<?xml version="1.0" encoding="UTF-8" standalone="no"?>
<svg
   xmlns:dc="http://purl.org/dc/elements/1.1/"
   xmlns:cc="http://creativecommons.org/ns#"
   xmlns:rdf="http://www.w3.org/1999/02/22-rdf-syntax-ns#"
   xmlns:svg="http://www.w3.org/2000/svg"
   xmlns="http://www.w3.org/2000/svg"
   xmlns:sodipodi="http://sodipodi.sourceforge.net/DTD/sodipodi-0.dtd"
   xmlns:inkscape="http://www.inkscape.org/namespaces/inkscape"
   id="svg"
   version="1.1"
   width="400"
   height="377.93103448275866"
   viewBox="0, 0, 400,377.93103448275866"
   sodipodi:docname="C01.svg"
   inkscape:version="0.92.5 (2060ec1f9f, 2020-04-08)">
  <metadata
     id="metadata9">
    <rdf:RDF>
      <cc:Work
         rdf:about="">
        <dc:format>image/svg+xml</dc:format>
        <dc:type
           rdf:resource="http://purl.org/dc/dcmitype/StillImage" />
      </cc:Work>
    </rdf:RDF>
  </metadata>
  <defs
     id="defs7" />
  <sodipodi:namedview
     pagecolor="#ffffff"
     bordercolor="#666666"
     borderopacity="1"
     objecttolerance="10"
     gridtolerance="10"
     guidetolerance="10"
     inkscape:pageopacity="0"
     inkscape:pageshadow="2"
     inkscape:window-width="1366"
     inkscape:window-height="689"
     id="namedview5"
     showgrid="false"
     inkscape:zoom="0.62445256"
     inkscape:cx="9.4330822"
     inkscape:cy="188.96552"
     inkscape:window-x="0"
     inkscape:window-y="0"
     inkscape:window-maximized="1"
     inkscape:current-layer="svg" />
  <g
     id="svgg"
     style="fill:#ffffff"
     transform="translate(0.02322965,0.14031228)">
    <path
       id="path0"
       d="m 154.905,5.627 c -8.049,4.098 -25.058,19.735 -29.137,26.787 -1.568,2.709 -1.643,2.699 -4.208,-0.577 l -2.612,-3.336 -1.683,9.978 c -2.278,13.505 -1.528,13.589 13.769,1.54 l 3.449,-2.716 -3.793,-0.031 c -5.704,-0.046 -4.7,-3.161 3.262,-10.127 24.58,-21.501 59.255,-21.848 88.016,-0.881 5.71,4.163 5.94,4.572 3.549,6.321 -3.033,2.218 -3.402,1.804 6.615,7.412 9.885,5.534 9.861,5.56 6.021,-6.969 -2.915,-9.513 -3.271,-10.041 -4.836,-7.166 -2.331,4.281 -2.636,4.164 -13.416,-5.173 C 197.608,1.381 173.993,-4.091 154.905,5.627 m -5.619,37.775 c -3.238,1.011 -8.36,4.073 -11.384,6.805 -5.089,4.597 -6.186,4.981 -14.803,5.172 -5.118,0.114 -7.444,0.439 -5.168,0.723 9.886,1.234 10.33,1.531 9.453,6.329 -0.522,2.854 -2.754,6.13 -6.186,9.077 -11.179,9.6 -17.597,30.271 -17.706,57.031 -0.026,6.344 -0.669,10.995 -1.6,11.57 -1.075,0.665 -0.895,1.333 0.581,2.158 2.492,1.395 6.247,16.612 7.779,31.526 0.821,7.988 2.049,11.945 5.39,17.369 2.38,3.863 5.266,9.685 6.414,12.939 1.148,3.253 4.18,8.232 6.739,11.064 6.653,7.364 14.931,36.753 12.505,44.396 -0.53,1.668 -0.208,3.283 0.774,3.89 5.169,3.195 0.104,14.918 -8.059,18.653 -4.295,1.965 -10.733,5.448 -14.307,7.741 -4.123,2.644 -7.461,3.862 -9.13,3.332 -1.453,-0.461 -10.592,1.684 -20.398,4.788 -28.054,8.88 -33.955,11.264 -34.672,14.005 -0.394,1.505 -2.843,3.082 -6.184,3.981 -25.281,6.808 -47.945,32.825 -47.945,55.039 0,7.969 2.231,6.865 3.362,-1.663 0.527,-3.974 1.799,-9.094 2.827,-11.379 1.027,-2.285 2.285,-5.601 2.795,-7.368 3.099,-10.742 41.513,-38.907 46.144,-33.832 3.569,3.912 13.517,36.54 16.035,52.593 0.831,5.302 2.613,8.378 4.031,6.96 0.581,-0.581 -0.064,-3.532 -6.192,-28.346 -2.291,-9.279 -5.802,-20.959 -7.802,-25.954 -2.07,-5.17 -3.111,-9.574 -2.418,-10.224 3.11,-2.914 46.862,-16.248 48.37,-14.741 1.04,1.04 12.015,31.463 20.475,56.757 4.497,13.444 8.152,22.23 9.351,22.48 1.399,0.292 -0.322,-6.298 -5.941,-22.759 -4.351,-12.743 -8.369,-24.639 -8.928,-26.435 l -1.018,-3.266 19.799,1.003 c 11.437,0.58 21.765,1.814 24.451,2.921 5.536,2.283 5.694,2.299 5.694,0.574 0,-3.438 -8.723,-5.452 -29.656,-6.845 -12.004,-0.799 -21.95,-1.611 -22.102,-1.804 -1.037,-1.316 -7.553,-19.122 -7.553,-20.64 0,-2.079 12.533,-10.146 19.633,-12.636 2.478,-0.87 5.387,-2.143 6.464,-2.83 1.49,-0.951 1.737,-0.701 1.034,1.045 -0.508,1.263 -1.3,3.227 -1.761,4.365 -0.528,1.305 -0.054,2.068 1.286,2.068 1.168,0 2.463,-1.086 2.876,-2.413 0.667,-2.141 3.474,-20.141 3.545,-22.729 0.015,-0.553 1.581,-0.297 3.481,0.569 1.9,0.865 3.917,1.077 4.483,0.471 0.566,-0.607 0.284,-1.369 -0.627,-1.695 -5.166,-1.851 -8.415,-6.206 -9.288,-12.452 -0.506,-3.618 -1.274,-8.751 -1.707,-11.406 l -0.788,-4.827 5.34,5.098 c 34.491,32.929 59.487,39.557 78.443,20.799 5.037,-4.983 20.956,-18.311 21.873,-18.311 0.212,0 0.106,8.769 -0.236,19.486 -0.517,16.176 -0.298,19.373 1.284,18.82 2.653,-0.926 12.649,2.204 17.324,5.426 2.141,1.476 6.066,3.511 8.721,4.524 7.301,2.785 7.406,3.105 4.836,14.735 -3.671,16.607 -1.146,15.245 -29.363,15.831 -23.334,0.485 -38.936,3.702 -30.916,6.375 0.958,0.32 2.569,-0.105 3.579,-0.944 2.021,-1.676 26.265,-4.245 33.933,-3.595 2.655,0.225 7.465,0.48 10.689,0.565 3.225,0.086 5.862,0.826 5.862,1.645 0,6.474 -16.202,37.12 -23.825,45.063 -3.903,4.067 -4.037,4.483 -1.447,4.483 8.008,0 29.729,-43.92 34.949,-70.666 1.987,-10.181 0.836,-9.968 20.005,-3.693 28.779,9.42 35.894,13.258 34.545,18.634 -0.783,3.122 -6.516,37.781 -8.247,49.863 -0.514,3.587 -0.298,5.862 0.556,5.862 0.767,0 1.395,-0.591 1.395,-1.314 0,-3.802 8.593,-52.274 9.762,-55.066 1.769,-4.225 7.853,-3.444 20.087,2.579 17.926,8.825 29.631,24.347 33.666,44.646 1.825,9.183 5.09,13.204 3.683,4.536 -4.881,-30.081 -26.938,-54.449 -51.7,-57.119 -3.593,-0.387 -9.015,-2.129 -12.049,-3.87 -3.035,-1.742 -11.724,-5.008 -19.311,-7.259 -7.586,-2.251 -17.206,-5.461 -21.379,-7.133 -4.172,-1.673 -9.816,-3.872 -12.541,-4.887 -2.726,-1.016 -7.255,-3.203 -10.066,-4.862 -2.811,-1.658 -8.96,-4.333 -13.665,-5.943 l -8.555,-2.929 -0.445,-7.586 c -0.49,-8.371 0.884,-16.393 6.818,-39.804 2.184,-8.617 3.971,-16.825 3.971,-18.241 0,-1.48 1.806,-3.508 4.247,-4.77 5.035,-2.603 8.155,-9.26 8.197,-17.486 0.017,-3.248 1.258,-8.612 2.759,-11.919 3.305,-7.283 3.463,-12.324 0.518,-16.529 -1.745,-2.491 -2.29,-7.568 -2.586,-24.1 -1.05,-58.538 -30.444,-93.759 -77.832,-93.262 -7.278,0.076 -16.958,-0.531 -21.51,-1.35 -10.578,-1.903 -16.475,-1.775 -23.817,0.518 m 35.748,4.239 c 4.286,1.037 9.872,3.154 12.414,4.704 2.541,1.549 5.397,2.819 6.345,2.822 3.176,0.01 1.768,-2.4 -2.414,-4.133 -6.822,-2.825 -4.964,-4.552 3.793,-3.524 27.03,3.174 52.918,27.633 61.136,57.762 2.279,8.353 5.263,35.204 4.527,40.732 -1.295,9.74 -1.826,10.927 -5.268,11.791 -1.882,0.473 -4.587,2.11 -6.012,3.639 -2.553,2.741 -2.603,2.613 -3.485,-8.853 -2.267,-29.503 -9.35,-39.648 -30.804,-44.121 -16.683,-3.479 -28.215,-12.066 -15.418,-11.48 3.535,0.162 5.949,-0.397 6.325,-1.463 0.398,-1.128 -0.803,-1.724 -3.476,-1.724 -2.246,0 -6.313,-0.931 -9.036,-2.069 -6.363,-2.658 -17.605,-2.634 -29.238,0.064 -10.08,2.338 -13.894,1.252 -17.182,-4.891 -1.82,-3.402 -3.755,-3.551 -4.484,-0.345 -0.424,1.863 -1.155,1.341 -3.205,-2.285 -3.469,-6.138 -7.866,-10.703 -8.495,-8.818 -0.272,0.816 1.086,3.812 3.018,6.658 7.783,11.469 4.263,27.77 -9.373,43.405 -4.293,4.923 -7.805,10.041 -7.805,11.374 0,3.31 2.268,3.069 3.158,-0.334 0.397,-1.518 1.466,-2.759 2.377,-2.759 0.97,0 1.296,0.94 0.786,2.269 -1.834,4.779 -3.631,22.101 -2.805,27.041 0.971,5.816 0.56,6.1 -4.257,2.944 -3.2,-2.097 -6.772,-2.088 -11.756,0.03 -1.776,0.754 -2.576,-1.336 -4.574,-11.947 l -2.423,-12.861 4.919,-5.215 c 4.786,-5.075 6.1,-7.778 3.781,-7.778 -0.627,0 -2.579,1.532 -4.339,3.406 -4.2,4.47 -5.557,3.357 -5.557,-4.558 0,-24.017 5.828,-42.048 16.771,-51.887 3.673,-3.302 6.677,-7.035 6.677,-8.297 0,-16.341 27.709,-25.998 55.379,-19.299 M 100,60.25 c -9.08,3.794 -9.779,4.223 -8.674,5.329 1.061,1.061 19.019,-6.298 19.019,-7.795 0,-1.697 -0.889,-1.485 -10.345,2.466 m 39.698,-2.931 c 1.493,1.604 18.923,6.031 18.923,4.807 0,-0.547 -1.631,-1.737 -3.624,-2.645 -4.434,-2.02 -16.794,-3.766 -15.299,-2.162 M 80,70.938 c -5.908,3.904 -10.104,8.447 -9.452,10.234 0.268,0.733 4.211,-2.009 8.762,-6.093 8.639,-7.751 8.946,-9.596 0.69,-4.141 M 61.599,92.256 c -3.858,7.087 -4.518,9.813 -2.377,9.813 0.71,0 3.183,-3.724 5.496,-8.276 5.203,-10.239 2.375,-11.633 -3.119,-1.537 m 98.57,3.003 c 5.347,2.727 5.932,2.756 14.172,0.689 15.594,-3.91 23.221,-3.073 27.152,2.98 4.283,6.596 11.806,10.777 24.516,13.624 18.618,4.171 24.931,13.896 26.1,40.207 0.769,17.306 2.766,19.726 9.96,12.069 7.311,-7.783 13.98,-1.981 10.336,8.992 -1.295,3.899 -2.855,11.121 -3.466,16.048 -1.238,9.983 -8.249,20.353 -8.249,12.201 0,-7.542 -3.839,-0.845 -4.547,7.931 -1.5,18.61 -7.438,30.98 -17.917,37.328 -2.438,1.476 -8.191,6.194 -12.784,10.483 -15.594,14.56 -35.351,15.439 -50.219,2.234 -3.722,-3.305 -11.307,-9.37 -16.857,-13.476 -11.055,-8.179 -15.058,-14.116 -20.457,-30.334 -2.788,-8.374 -5.495,-11.179 -5.495,-5.694 0,4.297 -3.455,0.744 -6.325,-6.503 -1.63,-4.118 -5.219,-11.174 -7.975,-15.681 -8.936,-14.615 -0.565,-28.674 9.904,-16.633 4.759,5.473 5.775,4.278 5.775,-6.795 0,-16.454 4.502,-36.246 10.154,-44.645 4.511,-6.703 7.777,-16.989 7.777,-24.49 0,-4.118 1.266,-4.198 8.445,-0.535 M 55.777,108.122 c -1.014,4.041 0.261,12.777 2.023,13.866 1.376,0.85 1.234,-15.14 -0.147,-16.519 -0.532,-0.532 -1.376,0.662 -1.876,2.653 m -3.826,17.05 c -0.632,1.045 -5.054,15.545 -5.054,16.573 0,2.994 3.55,-1.88 4.838,-6.643 0.913,-3.375 2.127,-7.223 2.696,-8.55 1.007,-2.345 -1.165,-3.553 -2.48,-1.38 m 35.635,16.897 c 0.469,0.759 3.144,1.336 5.944,1.282 4.103,-0.078 4.555,-0.327 2.332,-1.282 -3.873,-1.664 -9.304,-1.664 -8.276,0 m -40.242,10.698 c 0.442,3.987 1.47,8.332 2.285,9.655 1.106,1.795 1.257,0.306 0.597,-5.87 -0.487,-4.552 -1.515,-8.897 -2.285,-9.655 -0.946,-0.932 -1.139,0.972 -0.597,5.87 m 40.184,-1.687 c 1.819,2.68 3.577,5.628 3.907,6.552 0.331,0.923 1.042,1.271 1.581,0.772 1.113,-1.029 -2.947,-9.6 -5.277,-11.141 -3.3,-2.183 -3.374,-0.844 -0.211,3.817 m 69.911,-1.428 c -8.327,3.084 -15.223,8.197 -13.448,9.971 0.451,0.451 1.941,-0.194 3.31,-1.434 2.642,-2.391 14.078,-6.895 14.078,-5.545 0,0.438 0.793,0.139 1.762,-0.665 1.083,-0.899 6.129,-1.201 13.103,-0.784 11.831,0.707 15.907,-1.264 5.48,-2.65 -3.224,-0.429 -8.034,-1.086 -10.69,-1.46 -3.12,-0.439 -7.927,0.469 -13.595,2.567 m 46.922,-1.398 c -4.353,2.399 -2.007,3.513 5.406,2.568 12.318,-1.57 24.448,-0.97 28.046,1.387 5.22,3.421 8.568,3.085 5.208,-0.521 -5.042,-5.412 -30.9,-7.709 -38.66,-3.434 m 10.864,10.471 c -4.143,1.46 -7.867,2.716 -8.276,2.792 -0.408,0.075 0.81,0.575 2.706,1.109 2.18,0.614 4.124,0.305 5.284,-0.84 2.106,-2.078 4.371,-1.175 4.371,1.744 0,1.352 1.544,1.987 4.828,1.987 3.284,0 4.828,-0.635 4.828,-1.987 0,-2.96 2.958,-4.231 4.692,-2.017 1.737,2.219 6.342,2.961 6.342,1.022 0,-1.496 -7.065,-4.565 -13.103,-5.692 -2.448,-0.456 -7.216,0.312 -11.672,1.882 m -53.156,-0.289 c -6.512,1.144 -16.103,7.494 -12.439,8.237 1.265,0.256 3.471,-0.595 4.904,-1.892 2.624,-2.374 6.845,-1.947 6.845,0.693 0,2.886 10.656,1.641 11.434,-1.336 0.839,-3.206 3.739,-3.741 3.739,-0.69 0,2.226 1.263,2.556 4.713,1.232 7.175,-2.753 -9.041,-8.027 -19.196,-6.244 m -71.035,13.288 c 0,5.058 0.602,8.966 1.38,8.966 0.778,0 1.379,-3.908 1.379,-8.966 0,-5.057 -0.601,-8.965 -1.379,-8.965 -0.778,0 -1.38,3.908 -1.38,8.965 m 172.371,-3.691 c -1.709,1.384 -2.854,3.276 -2.544,4.205 0.35,1.049 2.091,0.095 4.592,-2.516 4.384,-4.576 2.964,-5.747 -2.048,-1.689 m -212.371,1.032 c 0,2.7 7.609,13.382 8.018,11.257 0.514,-2.669 -4.741,-12.046 -6.751,-12.046 -0.696,0 -1.267,0.355 -1.267,0.789 m 65.518,6.107 c -0.469,0.759 0.447,1.38 2.036,1.38 2.5,0 2.682,0.386 1.349,2.876 -2.038,3.808 -0.25,5.442 2.235,2.044 1.904,-2.604 2.02,-2.592 5.404,0.588 4.776,4.487 4.558,0.618 -0.248,-4.398 -3.691,-3.853 -9.154,-5.115 -10.776,-2.49 m 143.31,9.049 c 0,2.728 0.624,4.586 1.448,4.315 2.223,-0.731 2.5,-5.829 0.412,-7.562 -1.5,-1.244 -1.86,-0.615 -1.86,3.247 m -166.069,1.1 c 0,3.432 5.806,15.488 6.522,13.543 0.765,-2.079 -3.325,-13.603 -5.251,-14.793 -0.699,-0.432 -1.271,0.131 -1.271,1.25 m -35.862,4.43 c 0,3.029 8.659,15.308 9.344,13.251 0.5,-1.5 -7.442,-15.416 -8.798,-15.416 -0.3,0 -0.546,0.975 -0.546,2.165 m 68.966,4.518 c 0,2.172 1.231,5.039 2.758,6.421 2.403,2.174 2.759,2.212 2.759,0.295 0,-1.211 -0.621,-2.585 -1.38,-3.054 -0.758,-0.469 -1.379,-2.368 -1.379,-4.219 0,-1.852 -0.621,-3.367 -1.379,-3.367 -0.759,0 -1.379,1.766 -1.379,3.924 m 84.857,-1.51 c 0.558,1.327 1.328,3.965 1.712,5.862 0.823,4.07 2.835,6.896 4.91,6.896 0.968,0 0.909,-0.577 -0.169,-1.655 -0.91,-0.91 -1.655,-3.123 -1.655,-4.918 0,-1.795 -0.643,-4.464 -1.428,-5.931 -1.799,-3.361 -4.77,-3.585 -3.37,-0.254 m -33.886,4.138 c -0.911,2.844 -2.976,6.679 -4.59,8.52 l -2.933,3.349 4.473,-3.091 c 2.461,-1.7 5.098,-2.705 5.862,-2.233 0.764,0.473 1.389,0.238 1.389,-0.521 0,-0.758 -0.621,-1.762 -1.379,-2.231 -0.759,-0.469 -1.38,-2.058 -1.38,-3.53 0,-1.472 0.621,-2.677 1.38,-2.677 0.758,0 1.379,-0.621 1.379,-1.38 0,-3.348 -2.693,-0.917 -4.201,3.794 m 5.58,4.482 c 0,0.759 1.086,1.386 2.414,1.395 1.328,0.008 4.897,0.351 7.931,0.761 l 5.517,0.746 -4.641,-2.14 c -5.254,-2.424 -11.221,-2.829 -11.221,-0.762 m 18.621,0 c -2.223,0.956 -1.771,1.205 2.332,1.283 2.8,0.053 5.475,-0.524 5.944,-1.283 1.028,-1.664 -4.403,-1.664 -8.276,0 m -100.733,6.526 c 0.52,2.072 1.053,4.349 1.184,5.059 0.131,0.71 -1.779,1.898 -4.245,2.639 -9.85,2.962 -8.947,14.695 1.642,21.335 3.29,2.063 8.548,7.01 11.685,10.993 5.885,7.471 11.196,9.355 16.653,5.904 1.454,-0.919 2.951,-0.445 5.167,1.636 1.715,1.612 3.551,2.498 4.08,1.97 0.913,-0.913 -11.632,-13.111 -13.617,-13.241 -0.519,-0.034 -1.14,1.597 -1.38,3.625 -0.703,5.945 -3.106,5.18 -9.238,-2.941 -3.24,-4.292 -8.177,-8.86 -11.291,-10.449 -10.623,-5.419 -10.584,-16.504 0.059,-16.504 6.538,0 7.285,2.298 1.413,4.345 -2.276,0.793 -4.138,2.364 -4.138,3.491 0,1.127 0.764,1.795 1.697,1.484 0.933,-0.311 2.805,0.723 4.159,2.298 2.455,2.857 2.46,2.854 1.64,-0.778 -1.015,-4.494 1.171,-6.114 4.183,-3.102 4.505,4.505 3.64,0.46 -2.227,-10.407 -6.055,-11.217 -9.169,-14.302 -7.426,-7.357 m -30.991,0.931 c 0,0.987 13.746,10.474 15.175,10.474 2.903,0 1.126,-2.236 -5.206,-6.551 -5.811,-3.96 -9.969,-5.597 -9.969,-3.923 m 123.448,10.485 c -9.308,0.69 -18.538,3.925 -14.777,5.178 0.971,0.324 2.606,-0.107 3.632,-0.959 2.353,-1.953 25.489,-2.959 28.75,-1.25 1.502,0.788 3.332,0.771 4.787,-0.043 2.286,-1.279 0.347,-1.891 -10.668,-3.366 -1.138,-0.152 -6.414,0.046 -11.724,0.44 m 12.732,11.701 c -3.618,0.995 -7.653,1.599 -8.965,1.343 -8.279,-1.616 -11.399,-1.832 -10.725,-0.74 2.276,3.683 21.666,2.585 26.199,-1.484 1.537,-1.379 1.866,-1.423 -6.509,0.881 m -90.663,1.003 c 0,2.419 3.923,7.975 5.631,7.975 1.511,0 -2.105,-7.639 -4.242,-8.959 -0.764,-0.473 -1.389,-0.029 -1.389,0.984 m 42.295,37.864 c -1.352,1.352 9.76,7.624 12.552,7.086 1.646,-0.317 0.397,-1.617 -4.067,-4.233 -7.087,-4.154 -7.16,-4.178 -8.485,-2.853 m 55.999,5.024 c -5.717,3.865 -6.27,7.452 -0.704,4.574 4.968,-2.569 9.807,-7.797 7.107,-7.677 -1.066,0.047 -3.947,1.444 -6.403,3.103 m -38.253,3.642 c -1.003,1.623 -0.124,2.102 8.58,4.674 3.983,1.177 7.241,1.552 7.241,0.835 0,-0.718 -0.155,-1.306 -0.345,-1.306 -0.189,0 -3.575,-1.229 -7.523,-2.729 -3.975,-1.511 -7.524,-2.169 -7.953,-1.474 M 200,281.677 c -2.93,1.276 -3.073,1.591 -0.954,2.098 3.119,0.745 6.471,-0.473 6.471,-2.352 0,-1.738 -1.055,-1.69 -5.517,0.254 m 7.674,54.706 c -2.785,5.384 -6.336,7.264 -11.699,6.191 -4.809,-0.962 -5.505,0.691 -1.728,4.109 4.753,4.302 13.923,-1.268 16.052,-9.751 1.28,-5.1 -0.12,-5.393 -2.625,-0.549"
       inkscape:connector-curvature="0"
       style="fill:#ffffff;fill-rule:evenodd;stroke:none" />
  </g>
</svg>
