<?xml version="1.0" encoding="UTF-8" standalone="no"?>
<svg
   xmlns:dc="http://purl.org/dc/elements/1.1/"
   xmlns:cc="http://creativecommons.org/ns#"
   xmlns:rdf="http://www.w3.org/1999/02/22-rdf-syntax-ns#"
   xmlns:svg="http://www.w3.org/2000/svg"
   xmlns="http://www.w3.org/2000/svg"
   xmlns:sodipodi="http://sodipodi.sourceforge.net/DTD/sodipodi-0.dtd"
   xmlns:inkscape="http://www.inkscape.org/namespaces/inkscape"
   id="svg"
   version="1.1"
   width="400"
   height="377.93103448275866"
   viewBox="0, 0, 400,377.93103448275866"
   sodipodi:docname="C02.svg"
   inkscape:version="0.92.5 (2060ec1f9f, 2020-04-08)">
  <metadata
     id="metadata9">
    <rdf:RDF>
      <cc:Work
         rdf:about="">
        <dc:format>image/svg+xml</dc:format>
        <dc:type
           rdf:resource="http://purl.org/dc/dcmitype/StillImage" />
      </cc:Work>
    </rdf:RDF>
  </metadata>
  <defs
     id="defs7" />
  <sodipodi:namedview
     pagecolor="#ffffff"
     bordercolor="#666666"
     borderopacity="1"
     objecttolerance="10"
     gridtolerance="10"
     guidetolerance="10"
     inkscape:pageopacity="0"
     inkscape:pageshadow="2"
     inkscape:window-width="831"
     inkscape:window-height="480"
     id="namedview5"
     showgrid="false"
     inkscape:zoom="0.62445256"
     inkscape:cx="14.23729"
     inkscape:cy="188.96552"
     inkscape:window-x="0"
     inkscape:window-y="0"
     inkscape:window-maximized="0"
     inkscape:current-layer="svg" />
  <g
     id="svgg"
     transform="translate(-0.04207122,-8.2759849)"
     style="fill:#ffffff">
    <path
       id="path0"
       d="m 169.655,17.811 c 0,0.693 4.035,1.29 8.966,1.328 4.931,0.038 8.965,-0.529 8.965,-1.259 0,-0.731 -4.034,-1.328 -8.965,-1.328 -4.931,0 -8.966,0.566 -8.966,1.259 m -8.965,1.074 c -8.634,1.986 -13.311,3.436 -12.783,3.964 1.023,1.023 16.231,-2.471 16.231,-3.729 0,-0.654 -0.155,-1.117 -0.345,-1.029 -0.19,0.088 -1.586,0.445 -3.103,0.794 m 33.793,0.322 c 7.842,2.363 16.326,2.927 11.724,0.78 -2.276,-1.062 -6.621,-1.906 -9.655,-1.875 -4.648,0.047 -4.974,0.22 -2.069,1.095 m -30.069,7.08 c -8.907,4.45 -14.885,10.296 -16.301,15.941 -0.469,1.866 -4.383,6.939 -8.699,11.273 -9.977,10.017 -19.696,42.806 -16.092,54.289 0.322,1.026 0.952,5.42 1.399,9.765 l 0.813,7.9 -3.801,-1.449 c -4.033,-1.538 -14.954,-0.53 -16.206,1.496 -1.181,1.91 2.135,3.25 3.835,1.55 1.866,-1.866 9.229,-2.002 13.825,-0.255 3.595,1.367 4.923,6.348 5.832,21.863 0.303,5.172 1.832,9.838 5.28,16.11 2.669,4.857 5.515,11.289 6.324,14.293 0.877,3.256 2.906,6.404 5.022,7.791 4.761,3.119 7.008,8.994 9.6,25.107 1.195,7.427 2.393,13.723 2.662,13.992 1.691,1.691 -3.508,9.384 -11.869,17.564 -5.347,5.229 -8.976,9.757 -8.065,10.06 0.911,0.304 2.05,-0.051 2.531,-0.789 1.363,-2.088 5.887,-4.058 11.757,-5.119 5.967,-1.078 5.718,-2.042 2.884,11.136 -0.776,3.608 -0.676,3.74 1.141,1.511 1.095,-1.343 2.39,-4.936 2.877,-7.984 0.488,-3.047 1.822,-5.9 2.966,-6.339 1.319,-0.506 1.631,-1.37 0.854,-2.361 -0.674,-0.86 -1.606,-6.218 -2.071,-11.908 -0.464,-5.69 -1.27,-13.448 -1.79,-17.241 l -0.946,-6.897 3.733,4.411 c 2.053,2.426 6.963,6.734 10.912,9.574 3.948,2.84 9.845,7.804 13.104,11.032 l 5.925,5.869 -4.955,0.93 c -6.826,1.28 -5.198,2.168 5.086,2.774 4.79,0.282 13.9,0.888 20.246,1.347 14.956,1.082 16.725,0.535 26.105,-8.07 4.331,-3.974 10.358,-9.073 13.392,-11.331 6.199,-4.614 7.535,-6.128 7.565,-8.579 0.023,-1.799 -12.582,7.461 -23.336,17.144 -14.981,13.489 -30.208,12.408 -49.366,-3.506 -5.166,-4.291 -12.327,-10.168 -15.913,-13.06 -7.967,-6.425 -12.507,-13.971 -15.506,-25.776 -2.413,-9.495 -4.823,-13.769 -4.823,-8.552 0,6.433 -4.319,2.641 -7.608,-6.681 -1.17,-3.316 -3.908,-8.848 -6.086,-12.294 -9.178,-14.527 -2.722,-27.742 8.364,-17.122 6.359,6.093 8.088,3.91 8.088,-10.206 0,-15.002 4.477,-31.669 10.913,-40.631 3.105,-4.323 4.91,-8.935 6.009,-15.347 1.757,-10.259 1.749,-10.253 9.376,-6.362 5.259,2.683 5.969,2.715 16.333,0.75 13.675,-2.595 20.291,-1.67 22.819,3.187 3.927,7.547 7.832,9.788 26.536,15.229 10.495,3.053 12.448,4.818 17.399,15.722 2.774,6.11 5.224,22.268 4.741,31.272 -0.331,6.188 -0.319,6.207 4.15,6.004 4.883,-0.222 5.055,-0.044 3.294,3.397 -2.438,4.764 -2.991,16.806 -0.772,16.806 2.601,0 3.95,-3.415 2.586,-6.551 -1.667,-3.836 -0.655,-7.646 3.079,-11.597 2.814,-2.977 3.057,-3.755 1.296,-4.138 -1.56,-0.34 -1.803,-1.053 -0.865,-2.541 4.751,-7.54 8.405,5.566 4.247,15.231 -1.576,3.663 -2.865,9.099 -2.865,12.08 0,3.395 -1.068,6.778 -2.858,9.054 -3.189,4.053 -5.418,4.698 -5.418,1.566 0,-1.138 -0.62,-2.069 -1.379,-2.069 -0.758,0 -1.379,3.39 -1.379,7.533 0,4.227 -1.506,12.249 -3.431,18.276 -1.887,5.908 -3.411,11.984 -3.386,13.501 0.064,4.016 6.625,-16.806 7.628,-24.209 0.694,-5.12 1.55,-6.587 4.644,-7.956 4.707,-2.084 7.991,-8.291 9.618,-18.18 0.686,-4.172 2.37,-10.504 3.742,-14.07 2.461,-6.399 2.455,-6.536 -0.438,-10.449 -2.681,-3.626 -2.869,-5.199 -2.198,-18.35 2.672,-52.353 -16.858,-83.718 -60.388,-96.984 -13.58,-4.139 -13.838,-4.175 -13.377,-1.871 0.421,2.105 -4.57,2.071 -16.897,-0.114 C 180.748,21 173.849,21.572 164.414,26.287 m -31.311,2.221 c -8.014,4.129 -8.301,4.34 -7.266,5.375 0.807,0.807 17.611,-7.195 17.611,-8.386 0,-1.469 -3.786,-0.367 -10.345,3.011 m 74.7,0.629 c 4.433,1.643 9.283,3.828 10.78,4.856 3.892,2.674 7.139,2.54 4.865,-0.2 -0.944,-1.138 -2.496,-2.069 -3.448,-2.069 -0.952,0 -2.583,-1.028 -3.624,-2.285 -4.088,-4.935 10.785,-1.294 19.622,4.804 4.447,3.069 8.446,4.998 8.886,4.286 1.035,-1.675 4.841,0.362 14.504,7.765 12.484,9.562 29.34,50.699 22.459,54.809 -2.043,1.22 -2.708,18.897 -0.711,18.897 0.625,0 1.836,-2.328 2.692,-5.172 1.386,-4.606 1.477,-4.061 0.835,4.971 -0.396,5.579 -1.294,11.476 -1.995,13.104 -1.006,2.335 -1.203,1.732 -0.937,-2.862 0.434,-7.485 -2.171,-7.782 -3.212,-0.367 -0.478,3.401 -2.172,7.02 -4.269,9.116 l -3.476,3.477 -0.855,-13.008 c -1.842,-28.044 -7.914,-36.696 -29.212,-41.624 -14.754,-3.414 -25.611,-12.446 -12.914,-10.743 7.211,0.968 6.918,-2.634 -0.32,-3.939 -2.593,-0.467 -6.462,-1.555 -8.597,-2.418 -4.927,-1.991 -16.222,-2.01 -26.016,-0.043 -8.618,1.731 -15.362,-0.512 -16.993,-5.649 -1.083,-3.412 -3.09,-3.611 -3.714,-0.37 -0.324,1.684 -1.613,0.443 -4.297,-4.137 -2.109,-3.599 -4.765,-6.543 -5.903,-6.543 -1.609,0 -1.263,1.375 1.55,6.176 7.45,12.713 4.028,27.579 -9.65,41.919 -7.048,7.389 -9.638,12.595 -6.267,12.595 0.759,0 1.38,-0.895 1.38,-1.988 0,-2.069 2.475,-4.272 3.57,-3.177 0.346,0.345 -0.307,4.597 -1.451,9.448 -1.143,4.851 -2.088,12.403 -2.099,16.783 l -0.02,7.963 -3.478,-2.279 c -2.395,-1.569 -5.17,-2.051 -8.916,-1.549 -6.487,0.871 -6.024,1.903 -9.011,-20.071 -4.416,-32.483 6.935,-69.958 21.19,-69.958 0.877,0 1.598,-1.396 1.603,-3.103 0.049,-16.815 32.517,-26.656 57.449,-17.415 m -91.382,9.139 c -8.196,4.682 -9.493,5.664 -8.626,6.53 1.008,1.009 14.914,-6.351 14.944,-7.909 0.031,-1.621 -1.744,-1.234 -6.318,1.379 m 130.077,3.961 c -0.459,0.459 1.703,4.194 4.803,8.301 6.588,8.725 8.515,8.784 3.429,0.104 -3.853,-6.575 -6.925,-9.711 -8.232,-8.405 M 100.76,51.948 c -3.141,3.993 -5.048,9.741 -3.684,11.105 0.47,0.47 1.01,0.596 1.2,0.28 7.141,-11.902 8.773,-19.38 2.484,-11.385 m 159.962,9.562 c -0.018,0.831 1.273,2.692 2.867,4.135 1.595,1.443 3.784,4.333 4.863,6.421 1.951,3.772 4.651,5.129 4.651,2.336 0,-1.963 -12.341,-14.813 -12.381,-12.892 M 95.855,72.069 c 1.559,7.746 2.237,9.374 3.56,8.556 1.159,-0.717 0.881,-3.63 -1.015,-10.625 -1.207,-4.449 -3.484,-2.597 -2.545,2.069 M 276.42,88.2 c 3.466,9.573 5.72,12.523 4.274,5.593 C 279.281,87.025 276.242,80 274.727,80 c -0.702,0 0.06,3.69 1.693,8.2 M 100.69,85.21 c 0,0.59 1.002,2.504 2.227,4.252 1.591,2.272 1.98,4.722 1.363,8.583 -0.476,2.972 -0.303,5.403 0.384,5.403 3.399,0 3.957,-11.701 0.775,-16.245 -2.104,-3.004 -4.749,-4.114 -4.749,-1.993 m -0.345,26.879 c -2.623,6.38 -3.034,9.29 -1.312,9.29 1.014,0 2.808,-4.263 5.078,-12.069 1.576,-5.419 -1.254,-3.331 -3.766,2.779 m 74.817,8.362 c -6.572,2.198 -10.513,4.657 -9.341,5.829 0.533,0.534 3.78,-0.351 7.214,-1.965 7.493,-3.522 9.362,-3.597 17.829,-0.712 6.508,2.218 8.819,1.991 7.155,-0.702 -2.32,-3.754 -14.919,-5.105 -22.857,-2.45 m 50.621,-0.864 c -1.419,0.368 -2.302,1.634 -2.05,2.943 0.526,2.731 0.912,2.743 10.987,0.331 7.342,-1.757 8.177,-1.688 13.578,1.127 3.679,1.917 5.554,2.361 5.198,1.23 -1.55,-4.924 -17.745,-8.215 -27.713,-5.631 M 98.617,129.682 c 1.594,7.324 3.68,11.969 4.446,9.899 1.102,-2.981 -0.918,-10.904 -3.279,-12.864 -1.983,-1.646 -2.104,-1.339 -1.167,2.965 m 120.151,3.534 c -1.631,4.25 -0.791,10.981 1.927,15.438 5.435,8.914 2.045,19.622 -6.212,19.622 -1.897,0 -3.449,0.621 -3.449,1.379 0,2.948 9.142,1.415 12.428,-2.084 3.747,-3.988 5.959,-2.301 4.528,3.452 -0.786,3.159 -0.652,3.287 1.542,1.479 3.267,-2.693 1.942,-9.168 -4.244,-20.733 -3.937,-7.36 -4.704,-10.084 -4.189,-14.872 0.624,-5.797 -0.71,-7.904 -2.331,-3.681 m -40.201,1.14 c -9.225,2.869 -11.92,4.861 -6.646,4.912 2.551,0.025 4.662,0.894 5.13,2.111 1.26,3.286 9.953,2.677 12.438,-0.871 1.232,-1.758 2.908,-2.614 4.172,-2.129 1.162,0.446 2.435,0.289 2.829,-0.348 0.686,-1.11 -3.745,-3.295 -9.593,-4.73 -1.518,-0.372 -5.266,0.103 -8.33,1.055 m -69.601,0.648 c 0,0.665 0.894,1.952 1.987,2.859 1.093,0.907 2.179,3.311 2.413,5.341 0.306,2.648 1.329,3.82 3.616,4.144 2.435,0.346 3.087,-0.136 2.758,-2.038 -0.236,-1.369 0.346,-2.581 1.294,-2.693 0.949,-0.112 2.19,-0.292 2.759,-0.401 0.909,-0.173 -13.154,-8.423 -14.358,-8.423 -0.258,0 -0.469,0.545 -0.469,1.211 M 230.69,135.4 c -4.177,2.117 -3.948,4.175 0.344,3.097 2.862,-0.718 3.449,-0.37 3.449,2.043 0,2.404 0.837,2.908 4.827,2.908 3.372,0 4.828,-0.624 4.828,-2.069 0,-1.331 1.335,-2.069 3.744,-2.069 3.469,0 3.578,-0.165 1.482,-2.261 -2.78,-2.78 -14.417,-3.808 -18.674,-1.649 M 99.46,147.931 c -2.575,6.884 -3.037,9.31 -1.772,9.31 1.094,0 5.76,-9.521 5.76,-11.752 0,-2.031 -3.002,-0.193 -3.988,2.442 m 35.712,1.035 c 0,0.758 0.953,1.379 2.118,1.379 1.719,0 1.828,0.541 0.578,2.877 -2.038,3.807 -0.25,5.441 2.235,2.043 1.904,-2.604 2.02,-2.591 5.404,0.588 2.71,2.546 3.459,2.776 3.459,1.062 0,-1.203 -1.91,-3.794 -4.244,-5.758 -4.245,-3.572 -9.55,-4.789 -9.55,-2.191 m -42.116,16.643 c -1.203,2.326 -1.995,5.687 -1.759,7.47 0.334,2.537 1.061,1.62 3.352,-4.23 3.132,-8 2.029,-10.244 -1.593,-3.24 m 52.806,-2.063 c -1.805,1.835 -1.116,8.462 1.068,10.275 2.54,2.108 4.398,0.752 2.354,-1.719 -0.799,-0.966 -1.664,-3.524 -1.921,-5.683 -0.256,-2.159 -0.932,-3.452 -1.501,-2.873 M 200,175.172 c -1.536,0.993 -0.715,1.343 3.185,1.359 3.156,0.012 4.913,-0.53 4.401,-1.359 -1.077,-1.743 -4.889,-1.743 -7.586,0 m 18.564,0.092 c -1.323,2.141 -0.429,2.517 3.977,1.671 2.823,-0.543 3.402,-1.082 2.069,-1.927 -2.536,-1.607 -4.958,-1.504 -6.046,0.256 m 46.653,5.386 c -0.755,3.815 -0.925,6.936 -0.378,6.936 1.033,0 3.137,-12.483 2.253,-13.368 -0.277,-0.277 -1.121,2.618 -1.875,6.432 m -163.148,-2.719 c 0,0.759 2.172,1.379 4.828,1.379 2.655,0 4.827,-0.62 4.827,-1.379 0,-0.759 -2.172,-1.379 -4.827,-1.379 -2.656,0 -4.828,0.62 -4.828,1.379 m -9.077,2.579 c 0.408,0.66 2.668,1.998 5.023,2.973 3.929,1.627 4.207,2.164 3.388,6.531 -1.053,5.611 2.086,5.815 3.515,0.229 1.186,-4.638 -0.646,-7.617 -5.784,-9.408 -5.266,-1.836 -7.136,-1.935 -6.142,-0.325 m 106.67,12.511 c -9.798,3.221 -8.384,3.557 13.621,3.235 20.253,-0.296 24.929,-0.947 17.569,-2.444 -2.175,-0.442 -5.818,-1.368 -8.093,-2.058 -5.856,-1.774 -15.448,-1.248 -23.097,1.267 m 63.327,-0.377 c -0.506,0.505 -0.856,2.833 -0.779,5.172 l 0.141,4.253 1.133,-4.818 c 1.18,-5.02 1.057,-6.16 -0.495,-4.607 m -158.161,6.585 c 0,1.093 0.62,2.371 1.379,2.84 0.759,0.469 1.379,3.195 1.379,6.057 0,5.342 9.696,15.846 11.673,12.646 0.441,-0.713 -1.385,-3.04 -4.056,-5.172 -6.982,-5.571 -6.724,-10.083 0.578,-10.083 7.349,0 8.282,-2.22 1.325,-3.153 -3.078,-0.413 -6.683,-1.735 -8.011,-2.937 -2.998,-2.713 -4.267,-2.772 -4.267,-0.198 m 111.724,1.046 c -1.897,0.732 -6.242,0.984 -9.655,0.56 -5.817,-0.723 -6.034,-0.636 -3.449,1.375 3.05,2.373 14.916,2.046 17.443,-0.48 2.12,-2.12 -0.415,-2.969 -4.339,-1.455 m -97.91,31.104 c 0.021,6.45 1.714,11.426 3.101,9.113 1.114,-1.858 -0.577,-15.664 -1.918,-15.664 -0.663,0 -1.195,2.948 -1.183,6.551 m 145.041,-4.482 c -0.023,1.517 0.493,4 1.145,5.517 1.51,3.515 1.51,-0.112 0,-4.828 -0.888,-2.772 -1.113,-2.907 -1.145,-0.689 m 5.393,14.482 c 3.025,6.337 11.259,17.189 16.807,22.152 l 5.489,4.91 -1.625,9.635 c -2.868,17.005 -2.144,16.486 -22.262,15.927 -19.399,-0.539 -31.698,0.601 -35.358,3.278 -3.573,2.612 -1.244,4.016 2.581,1.556 5.43,-3.494 46.232,-3.655 47.563,-0.188 1.071,2.792 -9.144,23.869 -16.651,34.356 -32.307,45.132 -87.223,52.861 -109.075,15.35 -3.175,-5.449 -18.614,-50.554 -18.614,-54.38 0,-2.596 34.648,-0.889 40.557,1.999 6.206,3.033 9.051,2.322 3.901,-0.976 -3.703,-2.371 -8.226,-3.153 -25.354,-4.381 l -20.847,-1.496 -1.906,-4.56 c -4.5,-10.771 -3.866,-3.235 0.98,11.646 2.903,8.914 7.528,23.457 10.278,32.318 25.524,82.237 126.486,48.093 146.857,-49.665 1.449,-6.956 2.265,-8.575 4.021,-7.981 40.938,13.866 48.376,17.09 48.4,20.981 0.005,0.833 -1.57,8.592 -3.501,17.241 -7.342,32.889 -11.991,68.83 -8.903,68.83 0.758,0 1.379,-2.776 1.379,-6.17 0,-12.024 12.184,-76.399 15.083,-79.687 1.762,-2 15.17,2.714 23.905,8.405 13.273,8.648 18.798,17.125 23.817,36.54 2.624,10.151 3.28,11.58 3.334,7.268 0.309,-24.422 -27.123,-56.011 -48.638,-56.011 -2.607,0 -7.456,-1.508 -10.775,-3.351 -3.32,-1.843 -14.418,-6.394 -24.662,-10.113 -22.805,-8.28 -28.56,-11.81 -36.921,-22.651 -10.144,-13.154 -11.918,-15.094 -9.86,-10.782 m -96.317,-0.381 c -4.635,0.575 -6.345,3.154 -2.069,3.121 3.966,-0.031 8.62,-1.597 8.62,-2.901 0,-0.67 -0.465,-1.119 -1.034,-0.997 -0.569,0.121 -3.052,0.471 -5.517,0.777 m -50,4.223 c 0,1.686 7.393,4.434 11.93,4.434 4.839,0 3.914,-2.352 -1.241,-3.153 -2.465,-0.384 -5.879,-1.145 -7.586,-1.691 -1.838,-0.589 -3.103,-0.422 -3.103,0.41 m -37.931,1.275 c -10.844,0.758 -10.823,0.708 -4.672,11.378 5.653,9.804 8.12,11.942 8.12,7.035 0,-3.985 1.819,-4.43 8.474,-2.07 15.868,5.627 36.414,4.898 47.658,-1.691 7.892,-4.625 7.106,-5.033 -3.042,-1.582 -17.517,5.959 -50.037,-1.771 -44.298,-10.53 2.603,-3.972 4.027,-3.676 -12.24,-2.54 m 0.689,26.829 c -8.244,2.859 -16.022,4.397 -26.207,5.182 -30.377,2.34 -47.817,18.62 -54.417,50.798 -1.206,5.882 -2.8,13.691 -3.543,17.352 -0.742,3.661 -1.279,12.351 -1.191,19.31 0.186,14.856 2.365,8.549 2.538,-7.346 0.495,-45.401 22.29,-75.157 56.482,-77.113 l 14.352,-0.821 1.916,4.586 c 8.496,20.333 16.123,57.399 16.016,77.83 -0.09,17.03 1.642,19.656 3.051,4.626 1.349,-14.395 -5.119,-51.17 -13.287,-75.551 -4.858,-14.498 -5.057,-13.967 6.397,-17.067 8.043,-2.178 11.546,-4.05 10.1,-5.401 -0.265,-0.248 -5.758,1.379 -12.207,3.615 m 132.756,35.194 c -4.335,4.854 -5.469,5.098 -11.721,2.524 -3.827,-1.575 -2.987,3.001 1.034,5.636 4.31,2.823 8.36,0.652 13.105,-7.026 4.114,-6.657 2.987,-7.186 -2.418,-1.134"
       inkscape:connector-curvature="0"
       style="fill:#ffffff;fill-rule:evenodd;stroke:none" />
  </g>
</svg>
