<?xml version="1.0" encoding="UTF-8" standalone="no"?>
<svg
   xmlns:dc="http://purl.org/dc/elements/1.1/"
   xmlns:cc="http://creativecommons.org/ns#"
   xmlns:rdf="http://www.w3.org/1999/02/22-rdf-syntax-ns#"
   xmlns:svg="http://www.w3.org/2000/svg"
   xmlns="http://www.w3.org/2000/svg"
   xmlns:sodipodi="http://sodipodi.sourceforge.net/DTD/sodipodi-0.dtd"
   xmlns:inkscape="http://www.inkscape.org/namespaces/inkscape"
   id="svg"
   version="1.1"
   width="400"
   height="377.93103448275866"
   viewBox="0, 0, 400,377.93103448275866"
   sodipodi:docname="C03.svg"
   inkscape:version="0.92.5 (2060ec1f9f, 2020-04-08)">
  <metadata
     id="metadata10">
    <rdf:RDF>
      <cc:Work
         rdf:about="">
        <dc:format>image/svg+xml</dc:format>
        <dc:type
           rdf:resource="http://purl.org/dc/dcmitype/StillImage" />
      </cc:Work>
    </rdf:RDF>
  </metadata>
  <defs
     id="defs8" />
  <sodipodi:namedview
     pagecolor="#ffffff"
     bordercolor="#666666"
     borderopacity="1"
     objecttolerance="10"
     gridtolerance="10"
     guidetolerance="10"
     inkscape:pageopacity="0"
     inkscape:pageshadow="2"
     inkscape:window-width="825"
     inkscape:window-height="480"
     id="namedview6"
     showgrid="false"
     inkscape:zoom="0.62445256"
     inkscape:cx="14.23729"
     inkscape:cy="188.96552"
     inkscape:window-x="0"
     inkscape:window-y="0"
     inkscape:window-maximized="0"
     inkscape:current-layer="svg" />
  <path
     style="fill:#ffffff;fill-rule:evenodd;stroke:none"
     inkscape:connector-curvature="0"
     d="m 125.61456,9.5674516 c -0.727,0.16 -3.092,0.6610004 -5.254,1.1120004 -2.163,0.451 -4.63,1.082 -5.482,1.401 -0.853,0.32 -2.316,0.805 -3.252,1.079 -2.635,0.77 -7.251,2.742 -8.392,3.586 -0.566,0.419 -1.137,0.761 -1.269,0.761 -1.681,0 -10.377,9.011 -10.377,10.754 0,0.279 -0.246,0.602 -0.546,0.717 -0.301,0.115 -0.667,0.852 -0.814,1.638 -0.148,0.785 -0.497,1.657 -0.777,1.937 -0.28,0.28 -0.51,0.901 -0.51,1.38 0,0.478 -0.242,1.557 -0.538,2.396 -0.296,0.839 -0.472,1.592 -0.39,1.673 0.081,0.081 0.347,1.837 0.59,3.901 0.446,3.779 1.327,5.85 2.489,5.85 0.698,0 0.629,-2.049 -0.118,-3.494 -0.906,-1.752 -1.237,-10.62 -0.43,-11.539 0.317,-0.362 0.698,-1.056 0.847,-1.543 1.202,-3.937 11.846,-13.67 14.949,-13.67 0.222,0 1.506,-0.596 2.855,-1.324 2.4,-1.296 3.328,-1.616 7.157,-2.469 1.039,-0.232 2.911,-0.666 4.158,-0.965 8.599,-2.061 23.738,-1.27 26.447,1.382 0.197,0.193 0.561,0.351 0.808,0.351 1.166,0 5.851,2.574 9.637,5.293 4.09,2.939 12.447,11.462 12.447,12.695 0,0.164 0.322,0.991 0.715,1.836 2.62,5.636 3.706,19.858 1.796,23.55 -0.306,0.592 -0.674,1.751 -0.818,2.575 -0.252,1.442 -0.568,2.223 -3.163,7.816 -0.647,1.395 -1.177,2.651 -1.177,2.791 0,0.14 -0.595,1.083 -1.323,2.096 -0.728,1.013 -1.323,1.921 -1.323,2.018 0,0.187 -3.072,4.793 -3.412,5.115 -0.109,0.104 -1.045,1.457 -2.08,3.008 -1.814,2.719 -2.58,3.776 -3.401,4.69 -0.213,0.237 -1.047,1.451 -1.853,2.699 -0.806,1.247 -1.754,2.609 -2.106,3.024 -0.352,0.416 -1.029,1.824 -1.505,3.128 -1.019,2.794 -1.206,2.957 -2.567,2.233 -4.864,-2.588 -5.595,-3.096 -7.84,-5.449 -1.36,-1.426 -2.037,-1.889 -2.414,-1.649 -0.814,0.518 -0.25,1.918 1.552,3.85 2.138,2.291 6.318,4.868998 7.907,4.877998 1.245,0.007 1.918,1.776 1.78,4.674 -0.164,3.423 1.507,4.43 2.323,1.4 l 0.413,-1.537 1.09,0.563 c 3.199,1.655 4.6,5.232 2.858,7.302 -2.523,2.998 -5.621,2.733 -13.456,-1.151 -9.098,-4.51 -10.509,-4.932 -16.609,-4.97 -6.801,-0.043 -7.339,0.268 -15.454,8.941 -1.119,1.195 -2.17,2.173 -2.336,2.173 -0.665,0 -1.473,-1.234 -1.681,-2.564 -0.121,-0.773 -0.488,-2.476 -0.817,-3.785 -0.329,-1.308 -0.649,-3.062 -0.712,-3.897 -0.144,-1.94 -0.979,-3.205 -2.324,-3.52 -0.584,-0.137 -1.572,-0.485 -2.195,-0.774 -0.624,-0.289 -2.059,-0.897 -3.188,-1.35 -5.828,-2.340998 -6.574,-3.740998 -6.278,-11.773998 0.117,-3.187 0.169,-7.156 0.114,-8.82 -0.39,-11.788 -0.266,-12.674 2.579,-18.505 0.971,-1.99 1.178,-4.3 0.499,-5.569 -0.682,-1.274 -0.576,-5.702 0.181,-7.55 0.993,-2.423 2.571,-5.387 3.038,-5.705 0.721,-0.491 1.573,-0.358 1.051,0.165 -0.625,0.625 -0.569,2.668 0.108,3.958 1.672,3.184 2.085,4.681 2.085,7.571 0.001,5.007 1.808,6.841 6.805,6.905 2.35,0.031 2.814,0.236 3.18,1.407 0.219,0.704 0.451,0.792 1.599,0.606 3.619,-0.587 4.145,4.398 0.835,7.927 -1.323,1.411 -1.454,1.327 -1.206,-0.769 0.165,-1.391 0.074,-1.925 -0.395,-2.314 -1.58,-1.312 -2.412,2.038 -0.963,3.88 l 0.781,0.993 -1.916,1.837 c -1.053,1.01 -1.915,2.022 -1.915,2.249 0,0.753 0.794,0.917 1.471,0.305 0.367,-0.333 0.789,-0.604 0.937,-0.604 0.148,0 0.77,-0.371 1.383,-0.824 1.338,-0.989 1.979,-0.623 0.813,0.464 -0.453,0.422 -0.823,0.906 -0.823,1.075 0,0.924 -1.934,2.309 -3.222,2.309 -1.494,0 -1.807,1.198 -0.523,2.002 1.289,0.808 9.794,-5.918 9.794,-7.745 0,-0.401 1.582,-2.71 1.978,-2.887 0.152,-0.068 0.456,-0.791 0.676,-1.607 0.22,-0.816 0.52,-1.478 0.668,-1.471 1.779,0.079 4.364,5.884 4.759,10.684 0.438,5.325 1.944,4.191 1.639,-1.235 -0.303,-5.391 -1.509,-8.107 -5.208,-11.73 -1.167,-1.143 -2.553,-2.759 -3.079,-3.591 -1.874,-2.961 -6.304,-4.374 -10.876,-3.47 -4.156,0.822 -5.46,-0.506 -5.5,-5.604 -0.023,-2.866 -0.184,-3.731 -1.025,-5.482 -2.249,-4.685 -1.142,-6.554 4.082,-6.889 1.88,-0.121 3.045,-0.388 3.506,-0.805 0.379,-0.343 1.016,-0.626 1.415,-0.629 1.188,-0.01 1.938,-0.636 1.402,-1.172 -0.351,-0.351 -1.027,-0.306 -3.021,0.201 -1.413,0.36 -4.34,0.804 -6.503,0.987 -2.164,0.184 -4.112,0.511 -4.329,0.729 -0.217,0.217 -0.86,0.395 -1.428,0.395 -1.511,0 -2.597,1.7 -2.597,4.064 0,1.326 -0.219,2.122 -0.756,2.741 -0.416,0.479 -0.756,1.033 -0.756,1.229 0,0.197 -0.274,0.935 -0.609,1.641 -0.413,0.87 -0.53,1.74 -0.363,2.704 0.663,3.84 0.678,4.256 0.161,4.262 -1.415,0.016 -1.573,0.649 -0.51,2.043 l 1.048,1.374 -0.661,1.597 c -0.363,0.878 -0.842,2.021 -1.063,2.541 -1.395,3.277 -2.067,7.46 -1.399,8.708 0.225,0.421 0.453,5.527 0.551,12.343 0.142,9.904 0.259,11.795 0.794,12.772998 0.623,1.14 2.829,2.847 3.684,2.852 0.246,10e-4 0.957,0.34 1.581,0.753 0.623,0.413 1.354,0.753 1.622,0.754 0.738,0.004 5.185,2.154 5.628,2.72 0.213,0.273 0.594,1.857 0.847,3.521 0.974,6.406 1.187,7.598 1.563,8.746 0.761,2.324 -0.457,3.78 -5.124,6.126 -6.72,3.378 -10.631,12.021 -10.748,23.752 -0.022,2.27 -0.24,3.163 -1.35,5.533 -0.728,1.554 -1.323,3.132 -1.323,3.507 0,0.925 -1.495,6.218 -2.021,7.156 -0.471,0.839 -1.233,3.537 -1.815,6.427 -0.21,1.04 -0.638,2.804 -0.952,3.92 -0.315,1.116 -0.716,3.583 -0.893,5.482 -0.177,1.899 -0.487,4.474 -0.691,5.721 -1.717,10.551 -1.735,39.183 -0.033,51.302 0.196,1.391 0.356,3.421 0.356,4.511 0,1.733 0.26,4.493 0.985,10.444 0.138,1.138 0.372,1.607 0.799,1.607 0.765,0 0.45,-10.895 -0.513,-17.769 -1.203,-8.589 -1.039,-47.268 0.224,-52.741 0.239,-1.04 0.68,-3.167 0.978,-4.726 1.167,-6.097 1.668,-8.234 2.57,-10.964 0.515,-1.56 1.055,-3.468 1.2,-4.24 0.145,-0.773 0.5,-1.601 0.791,-1.842 0.29,-0.241 0.527,-0.777 0.527,-1.191 0,-0.414 0.325,-1.372 0.723,-2.128 0.398,-0.756 0.841,-1.715 0.985,-2.131 0.253,-0.727 0.278,-0.723 0.671,0.124 0.315,0.676 0.272,1.156 -0.184,2.079 -1.156,2.343 -1.411,4.328 -1.681,13.109 -0.412,13.397 -0.332,17.626 0.379,20.212 0.341,1.24 0.619,3.552 0.619,5.138 0,8.561 5.465,18.325 13.255,23.685 6.916,4.758 18.955,5.558 25.585,1.701 0.992,-0.577 2.783,-1.539 3.981,-2.137 2.674,-1.337 6.473,-4.427 8.446,-6.869 0.811,-1.004 1.985,-2.254 2.609,-2.777 0.624,-0.522 2.442,-2.185 4.04,-3.694 3.451,-3.259 3.111,-3.204 5.551,-0.901 1.075,1.014 2.674,2.332 3.554,2.929 0.88,0.597 1.736,1.299 1.902,1.559 0.166,0.261 0.554,0.474 0.862,0.474 0.308,0 0.658,0.255 0.778,0.567 0.12,0.312 0.461,0.567 0.759,0.567 0.298,0 1.229,0.681 2.069,1.512 0.84,0.832 1.599,1.513 1.687,1.513 0.143,0 0.575,0.367 2.459,2.097 0.645,0.592 2.237,0.755 2.237,0.228 0,-0.372 -3.446,-3.838 -3.817,-3.838 -0.137,0 -0.971,-0.68 -1.854,-1.512 -0.884,-0.832 -1.738,-1.512 -1.898,-1.512 -0.161,0 -1.193,-0.936 -2.295,-2.08 -1.101,-1.143 -2.31,-2.079 -2.686,-2.079 -0.375,0 -0.683,-0.255 -0.683,-0.567 0,-0.312 -0.149,-0.567 -0.331,-0.567 -0.182,0 -1.035,-0.638 -1.895,-1.418 -2.191,-1.986 -3.69,-3.119 -4.126,-3.119 -0.205,0 -0.47,-0.255 -0.59,-0.567 -0.12,-0.312 -0.478,-0.567 -0.796,-0.567 -0.319,0 -0.579,-0.252 -0.579,-0.56 0,-0.308 -0.412,-0.663 -0.915,-0.79 -0.503,-0.126 -1.443,-0.81 -2.089,-1.519 -0.645,-0.71 -1.416,-1.29 -1.713,-1.29 -0.296,0 -0.675,-0.213 -0.841,-0.473 -0.438,-0.684 -2.645,-2.174 -3.221,-2.174 -0.27,0 -0.704,-0.34 -0.964,-0.756 -0.259,-0.416 -0.726,-0.756 -1.036,-0.756 -0.731,0 -0.729,-0.612 0.003,-0.893 0.602,-0.231 0.798,-1.375 0.236,-1.375 -0.183,0 -0.542,0.253 -0.8,0.563 -0.541,0.652 -2.281,0.38 -2.762,-0.431 -0.167,-0.281 -0.714,-0.51 -1.216,-0.51 -0.526,0 -1.084,-0.321 -1.318,-0.757 -0.222,-0.415 -0.633,-0.756 -0.912,-0.756 -0.279,0 -0.71,-0.244 -0.958,-0.542 -0.248,-0.299 -0.953,-0.654 -1.567,-0.789 -0.615,-0.135 -1.581,-0.626 -2.148,-1.093 -0.567,-0.466 -1.882,-1.237 -2.921,-1.714 -5.2,-2.384 -7.283,-3.485 -8.318,-4.4 -0.624,-0.551 -1.73,-1.385 -2.457,-1.853 -0.728,-0.468 -1.749,-1.262 -2.269,-1.764 -0.52,-0.503 -1.881,-1.657 -3.024,-2.565 -13.718,-10.888 -18.654,-24.092 -13.408,-35.86 0.304,-0.682 0.553,-1.498 0.553,-1.812 0,-0.583 2.35,-3.914 4.303,-6.1 1.076,-1.203 3.604,-2.753 4.499,-2.758 0.254,-0.001 0.971,-0.273 1.595,-0.605 0.624,-0.332 1.926,-0.843 2.893,-1.135 0.967,-0.293 2.158,-0.869 2.646,-1.28 l 0.888,-0.748 -0.852,-0.669 -0.852,-0.67 0.837,-1.178 c 3.723,-5.241 14.434,-6.135 22.418,-1.872 4.818,2.573 5.248,3.602 1.512,3.621 -2.132,0.011 -5.293,1.37 -5.293,2.275 0,0.458 0.562,0.547 3.024,0.479 10.529,-0.292 16.148,2.026 19.795,8.164 0.861,1.451 1.566,2.727 1.566,2.837 0,0.716 4.874,7.157 7.469,9.87 1.716,1.794 3.379,3.763 3.695,4.375 0.317,0.612 0.742,1.113 0.944,1.113 0.203,0 0.369,0.18 0.369,0.399 0,0.219 0.936,1.556 2.079,2.971 1.144,1.416 2.08,2.678 2.08,2.804 0,0.231 1.01,1.706 5.48,8.004 3.817,5.379 6.996,10.046 6.996,10.272 0,0.114 0.818,1.252 1.817,2.529 1,1.277 2.457,3.302 3.237,4.5 0.78,1.198 2.391,3.409 3.579,4.915 1.187,1.505 2.821,3.758 3.629,5.005 0.808,1.248 2.69,3.8 4.181,5.672 1.491,1.871 2.936,3.823 3.212,4.338 0.697,1.303 3.985,4.744 6.243,6.533 2.887,2.288 5.731,4.739 8.884,7.654 1.575,1.455 4.459,4.092 6.411,5.86 1.951,1.767 3.731,3.384 3.956,3.593 0.225,0.209 1.344,1.14 2.488,2.069 3.06,2.485 7.911,6.881 12.246,11.1 2.102,2.045 4.321,4.087 4.93,4.537 3.007,2.222 17.694,17.681 21.163,22.277 1.482,1.963 2.518,3.182 5.191,6.11 0.964,1.057 3.333,3.706 5.263,5.887 5.418,6.121 8.296,8.122 8.296,5.769 0,-0.778 -0.476,-1.449 -1.891,-2.667 -2.219,-1.911 -2.333,-2.604 -0.624,-3.768 1.293,-0.88 5.092,-2.355 6.066,-2.355 0.301,0 1.028,-0.24 1.617,-0.532 0.588,-0.293 1.58,-0.761 2.204,-1.04 0.624,-0.279 2.376,-1.741 3.894,-3.248 2.774,-2.756 3.807,-3.305 3.916,-2.08 0.142,1.599 -0.188,2.576 -1.405,4.171 -1.054,1.38 -1.301,2.039 -1.301,3.472 0,0.973 -0.276,2.578 -0.613,3.567 -0.635,1.866 -0.489,2.341 0.787,2.558 0.518,0.088 0.903,-0.215 1.278,-1.008 0.854,-1.805 1.988,-2.835 3.121,-2.835 0.785,0 1.503,-0.522 2.947,-2.143 1.536,-1.722 2.137,-2.142 3.068,-2.142 3.456,0 1.245,4 -4.142,7.494 -5.027,3.26 -5.711,4.649 -4.145,8.418 1.339,3.22 3.996,3.871 8.04,1.97 1.987,-0.934 2.337,-0.839 1.991,0.538 -0.308,1.227 -2.913,3.285 -5.526,4.365 -6.031,2.494 -7.04,2.989 -8.408,4.134 -1.409,1.178 -2.178,2.725 -2.178,4.377 0,1.654 -3.611,3.41 -9.404,4.571 -4.275,0.858 -9.118,-0.974 -7.449,-2.817 0.88,-0.973 0.409,-1.166 -2.846,-1.166 -4.529,0 -4.172,0.253 -10.688,-7.562 -3.964,-4.754 -11.281,-12.129 -14.793,-14.912 -1.04,-0.824 -2.401,-1.979 -3.025,-2.566 -1.13,-1.064 -7.41,-5.471 -9.843,-6.907 -7.907,-4.669 -13.196,-8.328 -16.433,-11.368 -0.935,-0.879 -3.572,-3.154 -5.86,-5.057 -5.005,-4.163 -7.085,-6.153 -12.287,-11.761 -2.183,-2.354 -4.96,-5.311 -6.171,-6.572 -1.21,-1.261 -3.106,-3.314 -4.212,-4.562 -1.107,-1.247 -2.413,-2.72 -2.903,-3.272 -0.491,-0.552 -1.657,-1.869 -2.593,-2.927 -1.456,-1.645 -1.9,-1.922 -3.079,-1.926 -0.831,-0.002 -1.458,-0.214 -1.581,-0.535 -0.112,-0.292 -0.712,-0.643 -1.332,-0.779 -0.621,-0.136 -1.222,-0.493 -1.337,-0.792 -0.115,-0.299 -0.476,-0.544 -0.804,-0.544 -0.327,0 -0.96,-0.34 -1.406,-0.756 -0.446,-0.416 -1.099,-0.756 -1.45,-0.756 -0.351,0 -0.851,-0.255 -1.109,-0.567 -0.259,-0.312 -0.75,-0.567 -1.09,-0.567 -0.34,0 -0.831,-0.341 -1.091,-0.756 -0.26,-0.416 -0.641,-0.757 -0.847,-0.757 -0.206,0 -0.375,0.341 -0.375,0.757 0,0.415 0.235,0.756 0.523,0.756 0.288,0 0.612,0.34 0.721,0.756 0.109,0.416 0.469,0.756 0.8,0.756 0.331,0 0.602,0.252 0.602,0.56 0,0.308 0.468,0.676 1.04,0.819 0.572,0.142 1.213,0.493 1.424,0.779 0.376,0.507 1.295,1.101 3.208,2.073 0.519,0.264 1.03,0.578 1.134,0.698 0.104,0.121 1.295,0.836 2.646,1.589 2.705,1.507 5.088,3.581 5.46,4.753 0.447,1.41 -0.518,26.554 -1.114,28.994 -0.304,1.247 -0.556,2.874 -0.559,3.615 -0.01,2.185 -3.508,8.825 -6.262,11.886 -0.748,0.831 -1.619,1.888 -1.935,2.349 -0.762,1.111 -4.566,3.616 -5.043,3.321 -0.578,-0.357 -0.454,-1.596 0.435,-4.357 0.518,-1.608 0.718,-2.893 0.553,-3.55 -0.545,-2.174 -2.31,0.045 -2.831,3.56 -0.714,4.807 -2.314,7.952 -2.314,4.546 0,-0.757 -0.233,-1.695 -0.518,-2.085 -0.767,-1.049 -1.443,0.41 -1.367,2.951 0.103,3.43 0.109,3.415 -1.807,4.282 -3.965,1.792 -7.045,2.796 -10.936,3.565 -2.248,0.445 -4.257,0.938 -4.465,1.096 -0.208,0.159 -1.677,0.381 -3.264,0.495 -1.587,0.114 -3.408,0.478 -4.046,0.807 -0.637,0.33 -1.741,0.6 -2.452,0.6 -1.666,0 -4.979,1.069 -8.651,2.792 -1.602,0.752 -3.338,1.367 -3.857,1.367 -0.52,0 -1.924,0.255 -3.122,0.567 -3.154,0.821 -15.71,0.813 -16.393,-0.011 -0.348,-0.418 -0.422,-1.546 -0.27,-4.097 0.181,-3.036 -0.08,-4.988 -0.587,-4.388 -0.259,0.307 -1.668,3.15 -2.146,4.333 l -0.458,1.13 -1.321,-1.508 c -3.641,-4.156 -4.234,-4.73 -4.479,-4.334 -0.141,0.229 0.015,0.716 0.347,1.083 0.333,0.368 0.605,0.883 0.605,1.145 0,0.612 3.029,4.945 3.457,4.945 0.178,0 0.323,0.171 0.323,0.379 0,0.589 -1.743,0.444 -2.268,-0.189 -0.259,-0.312 -0.663,-0.567 -0.897,-0.567 -0.759,0.002 -6.094,-5.933 -7.025,-7.814 -0.497,-1.005 -1.34,-2.508 -1.874,-3.34 -0.534,-0.831 -1.182,-1.937 -1.44,-2.457 -0.259,-0.52 -0.614,-1.201 -0.791,-1.512 -1.199,-2.121 -1.962,-3.839 -1.964,-4.423 -0.002,-0.375 -0.341,-1.192 -0.754,-1.816 -0.413,-0.623 -0.752,-1.675 -0.754,-2.336 -0.001,-0.661 -0.257,-1.457 -0.569,-1.768 -0.316,-0.316 -0.567,-1.24 -0.567,-2.082 0,-0.833 -0.241,-2.674 -0.535,-4.091 -0.294,-1.418 -0.641,-3.768 -0.772,-5.224 -0.476,-5.299 -0.648,-6.238 -1.146,-6.238 -0.99,0 -0.673,10.149 0.354,11.342 0.269,0.312 0.579,1.62 0.689,2.907 0.11,1.286 0.472,2.728 0.805,3.203 0.332,0.475 0.605,1.559 0.605,2.409 0,0.85 0.249,1.875 0.555,2.279 0.305,0.403 0.56,1.125 0.567,1.604 0.006,0.478 0.336,1.499 0.733,2.268 0.994,1.93 2.303,4.836 2.303,5.114 0,0.215 1.078,1.88 4.202,6.492 l 1.281,1.891 -0.1,25.898 c -0.065,17.045 -0.247,26.883 -0.533,28.78 -0.49,3.259 0.172,16.886 0.885,18.218 0.892,1.667 1.055,-0.909 1.076,-16.942 0.044,-34.309 0.513,-50.622 1.488,-51.709 0.144,-0.16 1.608,0.606 3.253,1.702 l 2.992,1.992 h 10.781 c 8.028,0 10.996,-0.123 11.622,-0.48 0.463,-0.265 2.079,-0.638 3.592,-0.83 2.515,-0.319 4.677,-1.079 8.8,-3.095 2.773,-1.355 5.67,-2.162 8.71,-2.426 1.655,-0.144 3.691,-0.477 4.522,-0.741 0.832,-0.263 2.751,-0.592 4.264,-0.731 4.352,-0.398 9.928,-2.624 13.695,-5.468 0.728,-0.549 2.64,-1.653 4.249,-2.454 3.459,-1.72 3.429,-1.732 5.405,2.174 0.754,1.49 1.695,3.219 2.092,3.843 0.805,1.265 0.845,1.351 2.147,4.537 0.51,1.248 1.165,2.537 1.456,2.865 0.292,0.329 0.53,0.898 0.53,1.267 0,0.368 0.244,1.205 0.542,1.86 0.298,0.655 0.974,2.591 1.503,4.301 0.528,1.71 1.134,3.412 1.345,3.781 0.455,0.794 1.38,3.392 2.059,5.783 0.268,0.941 0.673,2.047 0.9,2.458 0.228,0.411 0.514,1.368 0.634,2.127 0.121,0.759 0.453,1.574 0.738,1.81 0.316,0.262 0.528,1.233 0.543,2.487 0.014,1.131 0.265,2.528 0.558,3.105 0.293,0.576 0.648,1.996 0.789,3.153 0.141,1.158 0.515,2.604 0.831,3.214 0.389,0.75 0.63,2.633 0.745,5.834 0.094,2.6 0.357,5.586 0.584,6.637 0.417,1.924 0.387,2.962 -0.406,13.933 -0.312,4.325 -0.319,6.129 -0.024,6.424 1.763,1.763 3.096,-19.589 1.412,-22.617 -0.458,-0.823 -0.563,-1.69 -0.412,-3.402 0.11,-1.264 0.007,-3.319 -0.231,-4.566 -0.237,-1.248 -0.598,-3.63 -0.8,-5.293 -0.202,-1.664 -0.614,-3.79 -0.913,-4.726 -0.3,-0.936 -0.875,-2.892 -1.278,-4.348 -2.562,-9.263 -3.581,-12.476 -4.197,-13.229 -0.171,-0.21 -0.505,-1.105 -0.741,-1.988 -0.236,-0.884 -0.573,-1.607 -0.748,-1.607 -0.175,0 -0.509,-0.756 -0.742,-1.679 -0.232,-0.923 -0.593,-1.784 -0.801,-1.913 -0.208,-0.128 -0.378,-0.652 -0.378,-1.163 0,-1.028 -1.859,-5.453 -2.29,-5.453 -0.15,0 -0.381,-0.578 -0.513,-1.285 -0.133,-0.707 -0.492,-1.494 -0.799,-1.748 -0.306,-0.254 -0.557,-0.679 -0.557,-0.944 0,-0.265 -0.571,-1.648 -1.269,-3.073 -2.38,-4.856 -2.558,-5.992 -1.176,-7.483 7.217,-7.787 8.889,-13.376 9.11,-30.458 0.085,-6.55 0.244,-12.461 0.353,-13.135 l 0.199,-1.227 1.023,0.64 c 0.921,0.577 8.009,7.29 10.039,9.508 0.761,0.831 3.675,3.695 5.059,4.971 0.339,0.311 1.192,1.025 1.897,1.585 0.704,0.56 1.882,1.806 2.617,2.769 1.641,2.149 4.061,4.407 6.344,5.919 0.946,0.627 1.721,1.294 1.721,1.482 0,0.189 0.189,0.343 0.42,0.343 0.231,0 1.233,0.68 2.227,1.512 0.993,0.832 1.977,1.512 2.186,1.512 0.208,0 0.477,0.256 0.597,0.568 0.12,0.311 0.464,0.567 0.765,0.567 0.301,0 0.604,0.127 0.673,0.283 0.163,0.366 2.979,2.527 3.718,2.853 0.312,0.138 1.248,0.678 2.08,1.201 0.831,0.523 1.767,1.071 2.079,1.218 1.108,0.522 8.941,5.97 9.452,6.573 0.104,0.123 0.47,0.379 0.813,0.569 1.842,1.02 10.795,9.131 13.58,12.303 1.337,1.522 3.657,4.049 5.155,5.614 1.499,1.565 3.502,3.892 4.453,5.172 2.851,3.838 12.196,8.07 17.82,8.07 2.503,0 7.991,-1.64 11.283,-3.371 0.824,-0.433 1.862,-0.788 2.306,-0.788 1.866,0 10.192,-7.818 14.696,-13.799 0.313,-0.416 0.575,-1.161 0.581,-1.656 0.007,-0.495 0.426,-2.196 0.931,-3.781 0.506,-1.584 1.216,-3.902 1.578,-5.149 1.21,-4.173 0.838,-19.152 -0.444,-17.87 -0.106,0.107 -0.242,3.661 -0.301,7.898 -0.097,6.983 -0.183,7.869 -0.929,9.478 -0.453,0.977 -0.823,1.919 -0.823,2.095 0,0.514 -3.087,3.309 -4.605,4.169 -2.551,1.447 -3.901,0.226 -2.591,-2.344 0.41,-0.802 0.655,-1.604 0.545,-1.781 -0.347,-0.561 -1.304,-0.348 -1.524,0.339 -1.077,3.357 -2.108,4.385 -2.777,2.769 -0.799,-1.927 0.689,-4.248 3.05,-4.756 0.707,-0.153 1.745,-0.512 2.307,-0.799 0.561,-0.287 1.359,-0.522 1.773,-0.522 1.072,0 1.355,-0.687 0.619,-1.501 -0.594,-0.656 -0.568,-0.792 0.435,-2.298 0.587,-0.881 1.26,-1.932 1.496,-2.336 0.235,-0.403 0.618,-0.923 0.85,-1.156 0.659,-0.658 0.473,-3.014 -0.312,-3.956 -1.83,-2.193 -3.632,-1.748 -6.618,1.631 -4.358,4.934 -7.45,4.423 -3.556,-0.588 5.08,-6.537 -0.818,-10.637 -6.25,-4.345 -2.532,2.934 -3.217,3.006 -5.54,0.583 -1.032,-1.076 -1.877,-2.079 -1.877,-2.229 0,-0.314 -1.398,-1.587 -2.351,-2.141 -1.277,-0.742 -3.898,-2.632 -4.547,-3.278 -0.982,-0.978 -5.881,-4.851 -6.136,-4.851 -0.289,0 -6.89,-5.162 -8.246,-6.449 -0.58,-0.55 -1.51,-1.238 -2.068,-1.528 -0.558,-0.291 -1.295,-0.785 -1.639,-1.096 -0.343,-0.312 -1.353,-1.163 -2.244,-1.891 -0.891,-0.728 -1.806,-1.493 -2.033,-1.701 -0.228,-0.208 -1.095,-0.879 -1.926,-1.49 -0.832,-0.612 -1.867,-1.463 -2.3,-1.891 -0.433,-0.428 -2.049,-1.866 -3.592,-3.196 -1.542,-1.331 -4.165,-3.876 -5.829,-5.658 -5.679,-6.081 -12.784,-12.892 -18.929,-18.148 -0.818,-0.699 -2.43,-2.145 -3.582,-3.213 -1.153,-1.069 -3.175,-2.879 -4.493,-4.022 -8.477,-7.357 -22.358,-22.589 -22.906,-25.136 -0.09,-0.419 -0.239,-4.165 -0.33,-8.324 -0.092,-4.158 -0.44,-10.538 -0.774,-14.177 -0.334,-3.639 -0.75,-8.253 -0.925,-10.254 -0.448,-5.118 -1.46,-6.072 -1.531,-1.444 -0.015,0.948 -0.27,2.054 -0.567,2.457 -0.584,0.794 -0.697,0.655 -1.102,-1.345 -0.272,-1.343 -1.831,-5.435 -3.17,-8.318 -3.035,-6.534 -6.826,-13.733 -7.332,-13.926 -0.183,-0.069 -0.332,-0.298 -0.332,-0.508 0,-0.211 -0.314,-0.835 -0.699,-1.387 -1.097,-1.576 -1.598,-3.346 -1.069,-3.773 0.565,-0.457 6.197,0.025 7.319,0.626 0.962,0.515 3.762,0.594 4.059,0.115 0.111,-0.181 -0.561,-0.433 -1.493,-0.561 -0.933,-0.127 -2.087,-0.488 -2.564,-0.801 -0.478,-0.313 -1.88,-0.721 -3.117,-0.906 -2.432,-0.363 -6.701,-1.403 -7.918,-1.927 -1.642,-0.708 -5.752,-2.784 -7.184,-3.628 -0.831,-0.491 -2.022,-1.155 -2.646,-1.476 -6.541,-3.366 -12.099,-7.314 -12.573,-8.932 -0.509,-1.737 -0.079,-4.989998 0.725,-5.486998 0.2,-0.123 0.528,-0.656 0.728,-1.184 0.43,-1.131 4.362,-7.137 5.388,-8.23 0.39,-0.416 1.107,-1.351 1.593,-2.079 0.486,-0.728 1.492,-2.174 2.237,-3.214 3.874,-5.411 4.593,-6.682 8.468,-14.957 0.639,-1.365 1.35,-3.406 1.58,-4.537 0.23,-1.131 0.66,-2.592 0.956,-3.247 0.344,-0.762 0.539,-2.484 0.539,-4.774 0,-2.33 0.198,-4.058 0.567,-4.941 1.603,-3.837 -0.614,-14.681 -4.015,-19.637 -2.925,-4.26 -10.239,-11.194 -13.187,-12.501 -0.52,-0.23 -1.034,-0.539 -1.142,-0.686 -0.109,-0.148 -0.619,-0.457 -1.135,-0.689 -0.515,-0.232 -1.552,-0.795 -2.304,-1.253 -5.785,-3.516 -7.356,-4.203 -11.866,-5.1920004 -1.838,-0.403 -13.845,-0.392 -15.69,0.014 m -0.382,20.1410004 c -3.364,3.218 -6.073,5.415 -7.05,5.72 -0.449,0.14 -1.023,0.503 -1.275,0.807 -0.253,0.304 -0.722,0.553 -1.044,0.553 -0.322,0 -0.855,0.233 -1.183,0.517 -0.328,0.285 -1.065,0.668 -1.636,0.851 -0.572,0.183 -1.083,0.503 -1.135,0.711 -0.177,0.708 1.526,0.612 2.981,-0.168 0.798,-0.427 1.741,-0.777 2.095,-0.777 0.355,0 0.739,-0.151 0.853,-0.336 0.114,-0.185 0.668,-0.452 1.23,-0.593 2.186,-0.549 9.753,-7.492 9.513,-8.73 -0.235,-1.211 -0.849,-0.946 -3.349,1.445 m -10.712,45.521 c -0.506,0.507 -1.02,-0.349 -0.55,-0.916 0.443,-0.533 0.504,-0.527 0.619,0.063 0.071,0.361 0.039,0.745 -0.069,0.853 m -1.343,0.99 c -0.485,0.485 -0.977,0.11 -0.618,-0.471 0.139,-0.225 0.426,-0.302 0.638,-0.172 0.258,0.16 0.252,0.372 -0.02,0.643 m 15.698,6.141 c -0.972,2.531 0.212,7.102 2.514,9.707 2.072,2.345 2.359,-0.322 0.389,-3.609 -0.976,-1.629 -1.461,-2.95 -1.607,-4.382 -0.208,-2.04 -0.847,-2.886 -1.296,-1.716 m 1.305,26.998998 c 3.95,1.035 7.401,2.561 13.582,6.006 5.458,3.042 10.725,2.221 13.599,-2.121 1.792,-2.706 2.801,-2.483 11.543,2.555 1.039,0.599 2.148,1.101 2.464,1.115 1.167,0.051 3.464,2.009 4.169,3.554 1.015,2.225 3.11,5.972 4.445,7.95 0.625,0.925 1.249,2.039 1.387,2.474 0.138,0.435 0.41,0.792 0.604,0.792 0.194,0 0.352,0.201 0.352,0.448 0,0.246 0.574,1.565 1.276,2.93 0.701,1.365 1.406,2.907 1.566,3.427 0.159,0.52 0.873,2.221 1.584,3.781 0.712,1.559 1.539,3.395 1.838,4.079 0.89,2.036 2.145,5.833 2.463,7.452 0.164,0.832 0.728,3.043 1.254,4.915 1.551,5.517 1.917,11.262 1.225,19.227 -0.737,8.477 -1.214,9.263 -3.644,6.011 -0.728,-0.974 -2.259,-2.969 -3.403,-4.433 -1.144,-1.465 -2.25,-2.94 -2.457,-3.278 -0.208,-0.339 -1.059,-1.582 -1.891,-2.763 -0.832,-1.181 -1.683,-2.434 -1.891,-2.785 -0.345,-0.579 -1.473,-2.205 -4.715,-6.794 -0.629,-0.891 -1.144,-1.694 -1.144,-1.784 0,-0.145 -2.752,-4.305 -3.501,-5.291 -0.158,-0.208 -0.966,-1.254 -1.796,-2.323 -0.83,-1.07 -1.509,-2.076 -1.509,-2.237 0,-0.161 -0.247,-0.562 -0.549,-0.891 -1.466,-1.597 -2.039,-2.279 -3.682,-4.38 -0.975,-1.247 -2.544,-3.119 -3.487,-4.158 -0.942,-1.04 -1.718,-1.988 -1.723,-2.106 -0.006,-0.119 -0.49,-0.753 -1.076,-1.409 -0.586,-0.657 -1.306,-1.666 -1.601,-2.242 -0.548,-1.075 -2.381,-4.059 -4.11,-6.689 -1.847,-2.81 -5.616,-5.513 -7.69,-5.513 -0.326,0 -0.65,-0.153 -0.719,-0.34 -0.07,-0.186 -2.078,-1.882 -4.463,-3.766 -7.55,-5.966 -12.821,-7.954 -19.788,-7.463 -2.545,0.179 -3.297,0.136 -2.813,-0.161 0.364,-0.223 0.662,-0.578 0.662,-0.789 0,-0.472 1.947,-2.138 3.542,-3.032 1.669,-0.934 6.467,-0.919 10.097,0.032 m 60.085,12.117 c 0,0.208 0.147,0.378 0.326,0.378 0.618,0 5.913,4.41 7.301,6.079 0.763,0.919 2.933,3.268 4.82,5.219 1.887,1.951 3.438,3.652 3.445,3.78 0.008,0.129 1.124,1.422 2.481,2.875 1.357,1.453 2.968,3.517 3.581,4.587 0.612,1.07 1.367,2.157 1.678,2.415 0.31,0.257 0.564,0.703 0.564,0.989 0,0.286 0.161,0.521 0.358,0.521 0.383,0 1.131,1.217 2.149,3.497 0.348,0.78 0.76,1.418 0.916,1.418 0.156,0 0.473,0.468 0.704,1.039 0.23,0.572 0.834,1.721 1.34,2.552 0.507,0.832 1.096,1.896 1.31,2.363 0.213,0.468 0.562,0.851 0.775,0.851 0.213,0 0.388,0.202 0.388,0.448 0,0.835 1.653,3.891 3.098,5.73 0.791,1.006 1.439,1.946 1.439,2.088 0,0.142 0.846,1.19 1.881,2.329 1.034,1.139 1.885,2.173 1.89,2.299 0.005,0.125 0.392,0.66 0.86,1.188 0.468,0.528 1.446,1.686 2.174,2.574 0.728,0.887 1.958,2.309 2.733,3.159 0.775,0.85 1.51,1.844 1.632,2.208 0.123,0.364 0.381,0.661 0.575,0.661 0.194,0 0.356,0.213 0.359,0.473 0.003,0.26 0.78,1.323 1.726,2.363 0.946,1.04 2.296,2.741 2.999,3.781 0.704,1.039 1.713,2.4 2.244,3.024 0.531,0.624 1.743,2.155 2.695,3.403 1.532,2.008 3.753,3.689 6.587,4.983 0.704,0.321 2.573,1.631 3.409,2.389 2.198,1.992 5.568,4.854 6.568,5.577 2.534,1.832 11.241,11.089 15.394,16.366 0.894,1.135 1.803,2.273 2.021,2.528 0.218,0.255 0.687,0.85 1.043,1.323 0.356,0.473 1.93,2.505 3.497,4.515 1.568,2.01 2.851,3.806 2.851,3.99 0,0.184 0.707,1.049 1.571,1.922 1.501,1.516 2.587,2.022 2.587,1.205 0,-0.398 -7.027,-10.112 -7.792,-10.772 -0.241,-0.208 -1.076,-1.314 -1.855,-2.457 -0.778,-1.144 -1.946,-2.599 -2.595,-3.233 -0.648,-0.634 -1.97,-2.081 -2.937,-3.214 -0.967,-1.133 -2.286,-2.643 -2.93,-3.357 -0.645,-0.713 -1.172,-1.406 -1.172,-1.539 0,-1.304 -14.012,-13.61 -15.497,-13.61 -0.21,0 -0.702,-0.298 -1.093,-0.662 -0.392,-0.363 -1.16,-1.001 -1.707,-1.417 -4.141,-3.145 -14.006,-14.052 -14.748,-16.305 -0.128,-0.39 -0.728,-1.053 -1.332,-1.474 -0.979,-0.681 -3.365,-3.514 -4.943,-5.868 -0.312,-0.465 -1.122,-1.46 -1.801,-2.21 -0.679,-0.751 -1.7,-2.045 -2.268,-2.876 -0.918,-1.34 -5.959,-8.053 -6.834,-9.098 -0.185,-0.221 -0.557,-0.813 -0.825,-1.316 -0.269,-0.502 -0.718,-1.142 -0.997,-1.421 -0.279,-0.279 -0.507,-0.729 -0.507,-1.001 0,-0.272 -0.255,-0.706 -0.567,-0.964 -0.312,-0.259 -0.567,-0.764 -0.567,-1.122 0,-0.359 -0.341,-0.96 -0.757,-1.336 -0.415,-0.376 -0.756,-1.005 -0.756,-1.398 0,-2.459 -7.268,-12.827 -13.057,-18.625 -0.423,-0.424 -1.357,-1.536 -2.076,-2.472 -0.718,-0.936 -2.434,-2.892 -3.813,-4.348 -1.379,-1.456 -3.049,-3.275 -3.711,-4.044 -2.014,-2.338 -6.832,-4.419 -6.832,-2.95 m 3.404,10.773 c -0.409,0.492 -0.409,1.075 -10e-4,3.324 0.454,2.495 0.524,2.63 0.823,1.593 0.852,-2.949 0.297,-6.266 -0.822,-4.917 m -100.215,32.062 c 1.918,2.321 8.251,8.336 10.094,9.587 0.797,0.54 1.622,1.19 1.833,1.444 0.212,0.253 2.129,1.856 4.26,3.561 4.612,3.691 4.513,2.707 0.662,6.559 -1.768,1.767 -3.214,3.405 -3.214,3.64 0,0.75 1.378,0.457 2.332,-0.496 1.042,-1.043 4.128,-3.305 5.725,-4.198 1.205,-0.673 4.797,-0.138 5.604,0.834 0.231,0.278 0.63,0.506 0.887,0.506 0.256,0 1.246,0.595 2.199,1.323 0.953,0.728 1.986,1.323 2.296,1.323 0.309,0 0.797,0.235 1.084,0.521 0.286,0.287 1.05,0.638 1.696,0.78 0.647,0.142 1.27,0.503 1.385,0.802 0.115,0.299 0.528,0.544 0.918,0.544 0.39,0 1.017,0.34 1.394,0.756 0.376,0.416 0.998,0.756 1.382,0.756 0.383,0 0.697,0.255 0.697,0.567 0,0.312 0.231,0.567 0.512,0.567 0.457,0 1.047,0.43 3.363,2.448 0.364,0.318 0.945,0.577 1.292,0.577 0.346,0 0.899,0.247 1.229,0.55 0.329,0.302 0.981,0.897 1.449,1.323 0.468,0.425 1.106,0.774 1.418,0.774 0.312,0 0.567,0.255 0.567,0.567 0,0.312 0.247,0.567 0.548,0.567 0.301,0 1.053,0.54 1.67,1.201 l 1.123,1.201 -1.345,2.107 c -0.739,1.159 -1.704,2.461 -2.143,2.894 -0.439,0.433 -1.232,1.283 -1.763,1.89 -1.541,1.763 -8.354,7.72 -8.828,7.72 -0.128,0 -0.925,0.502 -1.772,1.115 -2.253,1.632 -6.551,3.476 -10.989,4.715 -4.159,1.162 -10.911,0.524 -13.552,-1.281 -0.52,-0.355 -1.2,-0.765 -1.512,-0.911 -2.111,-0.988 -5.31,-3.289 -7.034,-5.059 -1.736,-1.784 -5.819,-8.249 -5.823,-9.222 -0.001,-0.281 -0.265,-1.014 -0.587,-1.631 -0.321,-0.616 -0.736,-2.317 -0.922,-3.78 -0.186,-1.464 -0.609,-3.309 -0.94,-4.102 -0.661,-1.58 -0.731,-33.94 -0.076,-34.953 0.429,-0.662 1.147,-0.185 2.881,1.914 m 32.915,16.335 c -0.582,0.701 0.36,1.506 2.647,2.266 1.044,0.347 2.073,0.957 2.286,1.355 0.222,0.413 0.789,0.725 1.32,0.725 0.513,0 1.272,0.34 1.688,0.756 0.416,0.416 1.078,0.756 1.472,0.756 0.394,0 0.814,0.255 0.933,0.567 0.12,0.312 0.563,0.567 0.986,0.567 0.422,0 0.768,0.174 0.768,0.386 0,0.213 0.463,0.596 1.029,0.851 0.566,0.256 1.939,1.358 3.05,2.449 1.718,1.688 2.234,1.985 3.449,1.985 2.001,0 3.014,-1.092 1.927,-2.076 -0.418,-0.378 -0.759,-0.916 -0.759,-1.196 0,-0.28 -0.244,-0.508 -0.542,-0.508 -0.298,0 -0.65,-0.341 -0.782,-0.757 -0.132,-0.415 -0.483,-0.756 -0.781,-0.756 -0.298,0 -0.542,-0.255 -0.542,-0.567 0,-0.312 -0.249,-0.567 -0.554,-0.567 -0.304,0 -0.736,-0.34 -0.958,-0.756 -0.223,-0.416 -0.628,-0.756 -0.9,-0.756 -0.273,0 -0.803,-0.34 -1.18,-0.756 -0.376,-0.416 -1.099,-0.756 -1.607,-0.756 -0.982,0 -4.692,-0.951 -5.954,-1.526 -3.319,-1.512 -6.504,-2.279 -6.996,-1.686 m 76.809,12.286 c 5.342,5.4 14.634,14.212 16.544,15.689 0.538,0.416 2.086,1.862 3.44,3.214 2.153,2.149 3.706,3.561 9.774,8.885 0.711,0.623 1.991,1.881 2.846,2.794 1.392,1.489 12.258,12.24 13.797,13.652 0.34,0.312 1.977,1.658 3.638,2.991 1.662,1.334 3.218,2.664 3.46,2.956 0.241,0.292 1.346,1.199 2.457,2.017 2.938,2.161 3.564,2.665 5.144,4.134 1.483,1.379 4.68,3.937 6.141,4.915 1.08,0.722 4.735,3.469 6.307,4.738 0.663,0.535 1.81,1.384 2.55,1.886 2.281,1.548 3.727,2.614 4.349,3.206 0.328,0.312 1.658,1.4 2.956,2.419 1.298,1.018 2.36,2.014 2.36,2.214 0,0.199 0.511,1.006 1.135,1.794 1.516,1.915 1.016,2.378 -3.695,3.421 -1.962,0.434 -4.831,1.681 -5.825,2.531 -1.23,1.053 -3.691,-1.145 -8.94,-7.987 -1.135,-1.48 -2.763,-3.476 -3.617,-4.435 -2.09,-2.347 -5.829,-6.613 -7.224,-8.24 -1.677,-1.957 -7.488,-7.67 -8.689,-8.541 -0.573,-0.416 -2.68,-2.344 -4.683,-4.284 -2.002,-1.94 -5.416,-5.173 -7.586,-7.183 -2.17,-2.011 -4.389,-4.082 -4.931,-4.601 -0.542,-0.52 -1.574,-1.434 -2.293,-2.03 -0.719,-0.596 -2.418,-2.128 -3.776,-3.403 -1.357,-1.275 -3.229,-2.936 -4.159,-3.691 -0.929,-0.755 -2.128,-1.776 -2.663,-2.268 -1.491,-1.372 -4.076,-3.668 -7.179,-6.375 -6.902,-6.024 -10.696,-9.817 -12.642,-12.641 -0.832,-1.207 -2.363,-3.242 -3.403,-4.521 -4.501,-5.541 -4.936,-6.485 -4.166,-9.036 0.799,-2.644 0.911,-2.705 2.083,-1.135 0.587,0.788 3.508,3.899 6.49,6.915 m -56.392,-5.127 c 0,0.3 0.151,0.638 0.336,0.752 0.416,0.257 1.263,-0.706 0.921,-1.048 -0.449,-0.45 -1.257,-0.26 -1.257,0.296 m 4.339,0.982 c -0.381,0.617 0.466,1.382 0.97,0.877 0.274,-0.274 0.226,-0.534 -0.155,-0.85 -0.406,-0.337 -0.619,-0.344 -0.815,-0.027 m 4.168,1.498 c -0.308,0.499 0.144,1.207 0.593,0.929 0.46,-0.284 0.457,-1.307 -0.004,-1.307 -0.195,0 -0.46,0.17 -0.589,0.378 m 5.35,2.823 c -0.267,0.695 0.442,1.177 0.964,0.655 0.403,-0.404 0.113,-1.21 -0.436,-1.21 -0.173,0 -0.411,0.25 -0.528,0.555 m -17.847,1.369 c -0.139,0.226 -0.057,0.607 0.183,0.847 0.474,0.474 1.288,-0.368 0.925,-0.957 -0.265,-0.427 -0.809,-0.374 -1.108,0.11 m 5.34,-0.076 c -0.114,0.184 0.031,0.533 0.322,0.774 0.59,0.489 1.193,-0.073 0.786,-0.731 -0.289,-0.469 -0.832,-0.49 -1.108,-0.043 m 5.624,0.076 c -0.389,0.63 0.487,1.353 1.009,0.831 0.436,-0.436 0.163,-1.243 -0.421,-1.243 -0.183,0 -0.448,0.185 -0.588,0.412 m 3.991,1.668 c 0,0.389 0.247,0.575 0.661,0.495 0.797,-0.153 0.747,-0.824 -0.074,-0.995 -0.343,-0.072 -0.587,0.137 -0.587,0.5 m 4.327,0.978 c -0.39,0.63 0.487,1.353 1.008,0.832 0.436,-0.436 0.163,-1.243 -0.421,-1.243 -0.183,0 -0.447,0.185 -0.587,0.411 m -9.783,1.437 c -0.114,0.184 0.031,0.532 0.322,0.774 0.589,0.489 1.193,-0.073 0.786,-0.732 -0.29,-0.468 -0.832,-0.489 -1.108,-0.042 m 15.344,0.208 c 0.072,0.347 0.301,0.621 0.509,0.61 0.561,-0.029 0.458,-0.875 -0.131,-1.071 -0.318,-0.106 -0.46,0.067 -0.378,0.461 m -18.001,1.321 c -0.119,0.193 -0.044,0.458 0.167,0.589 0.451,0.279 1.14,-0.075 1.14,-0.586 0,-0.46 -1.023,-0.463 -1.307,-0.003 m 9.818,1.154 c -0.279,0.451 0.075,1.14 0.585,1.14 0.46,0 0.463,-1.023 0.004,-1.307 -0.193,-0.12 -0.459,-0.045 -0.589,0.167 m 5.269,0.039 c -0.39,0.63 0.486,1.353 1.008,0.832 0.436,-0.437 0.163,-1.243 -0.421,-1.243 -0.183,0 -0.448,0.185 -0.587,0.411 m -9.621,1.646 c 0,0.3 0.151,0.638 0.335,0.752 0.417,0.257 1.264,-0.706 0.922,-1.048 -0.45,-0.45 -1.257,-0.26 -1.257,0.296 m 13.871,-0.301 c -0.493,0.493 -0.258,0.89 0.527,0.89 0.44,0 0.722,-0.198 0.638,-0.449 -0.184,-0.552 -0.815,-0.791 -1.165,-0.441 m -8.2,3.159 c 0,0.487 0.192,0.755 0.473,0.661 0.26,-0.086 0.472,-0.384 0.472,-0.661 0,-0.278 -0.212,-0.575 -0.472,-0.662 -0.281,-0.094 -0.473,0.174 -0.473,0.662 m 11.119,-0.236 c -0.32,0.834 0.106,1.261 0.683,0.683 0.341,-0.341 0.343,-0.552 0.006,-0.889 -0.336,-0.336 -0.5,-0.287 -0.689,0.206 m -5.637,1.37 c -0.407,0.659 0.196,1.221 0.786,0.732 0.291,-0.242 0.436,-0.591 0.322,-0.775 -0.276,-0.446 -0.819,-0.425 -1.108,0.043 m 9.478,-0.043 c -0.257,0.416 0.707,1.264 1.048,0.922 0.137,-0.137 0.249,-0.476 0.249,-0.753 0,-0.563 -0.974,-0.69 -1.297,-0.169 m 20.497,1.468 c -0.68,0.144 -0.45,0.88 0.75,2.393 0.469,0.59 1.34,3.315 1.94,6.07 0.451,2.064 2.208,4.857 3.057,4.857 1.133,0 1.127,-0.417 -0.037,-2.809 -0.6,-1.233 -1.091,-2.562 -1.091,-2.954 0,-0.393 -0.326,-1.51 -0.725,-2.485 -0.399,-0.974 -0.818,-2.203 -0.932,-2.73 -0.244,-1.126 -2.031,-2.539 -2.962,-2.342 m -34.154,1.254 c -0.39,0.631 0.487,1.354 1.008,0.832 0.436,-0.436 0.163,-1.243 -0.421,-1.243 -0.183,0 -0.447,0.185 -0.587,0.411 m 8.338,-0.033 c -0.276,0.447 0.082,1.135 0.589,1.135 0.196,0 0.356,-0.341 0.356,-0.756 0,-0.798 -0.55,-1.018 -0.945,-0.379 m 3.97,1.679 c 0,0.3 0.151,0.638 0.335,0.752 0.416,0.258 1.264,-0.706 0.922,-1.048 -0.45,-0.449 -1.257,-0.259 -1.257,0.296 m -6.564,0.852 c -0.452,0.452 -0.244,1.25 0.326,1.25 0.311,0 0.567,-0.245 0.567,-0.545 0,-0.631 -0.54,-1.058 -0.893,-0.705 m 10.971,-0.007 c -0.137,0.137 -0.249,0.476 -0.249,0.753 0,0.563 0.975,0.69 1.297,0.169 0.258,-0.416 -0.706,-1.264 -1.048,-0.922 m -5.732,3.15 c -0.13,0.21 0.038,0.486 0.372,0.614 0.724,0.278 1.127,-0.028 0.779,-0.591 -0.314,-0.508 -0.845,-0.519 -1.151,-0.023 m 5.664,1.146 c -0.382,0.617 0.465,1.382 0.97,0.877 0.273,-0.273 0.226,-0.534 -0.156,-0.85 -0.406,-0.337 -0.618,-0.344 -0.814,-0.027 m -8.782,2.104 c -1.004,1.145 -1.034,1.284 -0.283,1.284 0.312,0 0.567,-0.17 0.567,-0.378 0,-0.208 0.255,-0.378 0.567,-0.378 0.315,0 0.567,-0.336 0.567,-0.756 0,-1.007 -0.391,-0.944 -1.418,0.228 m 4.443,1.095 c 0,0.39 0.247,0.575 0.661,0.495 0.797,-0.153 0.747,-0.824 -0.074,-0.995 -0.343,-0.071 -0.587,0.137 -0.587,0.5 m 4.348,2.458 c -0.408,0.659 0.196,1.221 0.785,0.731 0.291,-0.241 0.436,-0.59 0.322,-0.774 -0.276,-0.446 -0.818,-0.425 -1.107,0.043 m 139.697,14.544 c -1.144,0.263 -2.558,0.671 -3.144,0.907 -0.585,0.235 -1.691,0.429 -2.457,0.43 -3.542,0.005 -5.78,1.69 -4.076,3.07 0.881,0.714 0.232,1.88 -1.476,2.648 -0.416,0.187 -1.947,1.095 -3.403,2.018 -1.455,0.923 -3.157,1.933 -3.78,2.244 -1.044,0.522 -4.06,2.236 -10.635,6.047 -2.817,1.633 -2.814,1.681 0.196,3.329 1.01,0.554 1.176,0.856 1.176,2.147 0,2.265 2.481,1.714 4.915,-1.093 0.475,-0.548 4.634,-3.777 4.865,-3.777 0.143,0 0.828,-0.519 1.523,-1.154 0.695,-0.635 2.392,-2.055 3.77,-3.155 1.379,-1.1 2.75,-2.293 3.047,-2.651 1.49,-1.798 2.654,-1.905 4.056,-0.375 l 1.302,1.422 2.843,-4.321 c 1.564,-2.377 3.278,-4.779 3.809,-5.337 0.731,-0.768 0.907,-1.251 0.723,-1.985 -0.271,-1.08 -0.328,-1.087 -3.254,-0.414 m -9.944,20.635 c -0.165,0.631 0.35,1.352 2.38,3.33 1.425,1.389 2.708,2.991 2.851,3.561 0.33,1.314 0.812,1.625 1.103,0.711 0.294,-0.928 -0.114,-1.949 -0.778,-1.949 -0.303,0 -0.527,-0.383 -0.527,-0.899 0,-0.495 -0.255,-1.111 -0.567,-1.37 -0.312,-0.259 -0.57,-0.662 -0.574,-0.897 -0.007,-0.475 -1.635,-2.127 -2.096,-2.127 -0.162,0 -0.585,-0.262 -0.938,-0.583 -0.586,-0.529 -0.663,-0.509 -0.854,0.223 m -4.423,43.754 c 0,0.816 -1.327,1.997 -2.643,2.351 -0.814,0.22 -1.976,0.815 -2.58,1.324 -0.604,0.508 -1.208,0.816 -1.34,0.683 -0.525,-0.524 -0.198,-1.624 0.609,-2.049 0.468,-0.246 0.935,-0.57 1.039,-0.719 0.606,-0.867 4.915,-2.262 4.915,-1.59 m -127.032,25.749 c 0,0.6 0.25,1.919 0.555,2.93 2.221,7.361 2.91,18.699 1.555,25.58 -0.296,1.498 -0.649,3.745 -0.785,4.993 -0.136,1.248 -0.49,2.998 -0.786,3.889 -0.875,2.63 -0.735,4.698 0.308,4.549 1.289,-0.183 1.854,-1.856 2.197,-6.501 0.171,-2.313 0.498,-5.056 0.727,-6.096 0.746,-3.397 0.672,-20.906 -0.096,-22.636 -0.358,-0.805 -0.65,-1.921 -0.65,-2.48 0,-0.56 -0.315,-1.355 -0.7,-1.768 -0.385,-0.413 -0.818,-1.381 -0.962,-2.151 -0.321,-1.712 -1.363,-1.948 -1.363,-0.309"
     id="path1" />
</svg>
