<?xml version="1.0" encoding="UTF-8" standalone="no"?>
<svg
   id="svg"
   width="400"
   height="377.93103"
   viewBox="0 0 400 377.93103"
   version="1.1"
   sodipodi:docname="C09-10.svg"
   inkscape:version="0.92.5 (2060ec1f9f, 2020-04-08)"
   xmlns:inkscape="http://www.inkscape.org/namespaces/inkscape"
   xmlns:sodipodi="http://sodipodi.sourceforge.net/DTD/sodipodi-0.dtd"
   xmlns="http://www.w3.org/2000/svg"
   xmlns:svg="http://www.w3.org/2000/svg"
   xmlns:rdf="http://www.w3.org/1999/02/22-rdf-syntax-ns#"
   xmlns:cc="http://creativecommons.org/ns#"
   xmlns:dc="http://purl.org/dc/elements/1.1/">
  <metadata
     id="metadata11">
    <rdf:RDF>
      <cc:Work
         rdf:about="">
        <dc:format>image/svg+xml</dc:format>
        <dc:type
           rdf:resource="http://purl.org/dc/dcmitype/StillImage" />
      </cc:Work>
    </rdf:RDF>
  </metadata>
  <defs
     id="defs9" />
  <sodipodi:namedview
     pagecolor="#ffffff"
     bordercolor="#666666"
     borderopacity="1"
     objecttolerance="10"
     gridtolerance="10"
     guidetolerance="10"
     inkscape:pageopacity="0"
     inkscape:pageshadow="2"
     inkscape:window-width="1366"
     inkscape:window-height="689"
     id="namedview7"
     showgrid="false"
     inkscape:zoom="0.62445256"
     inkscape:cx="14.23729"
     inkscape:cy="188.96552"
     inkscape:window-x="0"
     inkscape:window-y="0"
     inkscape:window-maximized="1"
     inkscape:current-layer="svg"
     inkscape:showpageshadow="0"
     inkscape:pagecheckerboard="0"
     inkscape:deskcolor="#d1d1d1" />
  <path
     style="fill:#ffffff;fill-rule:evenodd;stroke:none"
     inkscape:connector-curvature="0"
     d="m 192.43347,14.002864 c -0.104,0.104 -1.946,0.453 -4.093,0.776 -4.113,0.617 -4.563,0.754 -4.563,1.386 0,0.74 7.176,0.239 7.607,-0.532 0.203,-0.364 0.744,-0.664 1.202,-0.667 0.848,-0.006 2.339,-0.734 1.524,-0.745 -0.243,-0.003 -0.677,-0.096 -0.965,-0.206 -0.288,-0.111 -0.608,-0.116 -0.712,-0.012 m 26.8,0.679 c 0.638,0.308 0.978,0.301 1.305,-0.025 0.336,-0.337 0.131,-0.435 -0.863,-0.416 -1.225,0.024 -1.252,0.051 -0.442,0.441 m 1.973,1.046 c 0,0.208 0.468,0.375 1.04,0.372 0.81,-0.004 0.914,-0.087 0.472,-0.372 -0.739,-0.478 -1.512,-0.478 -1.512,0 m -40.994,1.35 c -0.605,0.605 -0.788,1.732 -0.352,2.168 0.132,0.133 0.722,-0.163 1.309,-0.657 0.587,-0.494 1.274,-0.967 1.527,-1.052 0.742,-0.247 -0.018,-1.053 -0.994,-1.053 -0.493,0 -1.163,0.267 -1.49,0.594 m 47.043,1.674 c 0.739,0.478 1.784,0.478 2.079,0 0.141,-0.227 -0.341,-0.375 -1.206,-0.372 -1.069,0.004 -1.294,0.1 -0.873,0.372 m -49.622,2.41 c -1.077,0.281 -1.418,0.563 -1.418,1.173 0,0.442 -0.192,0.996 -0.428,1.231 -1.242,1.242 0.065,1.608 1.649,0.462 2.998,-2.169 3.099,-3.624 0.197,-2.866 m 51.308,2.682 c -0.641,0.489 -0.665,0.617 -0.174,0.95 0.833,0.564 1.702,0.292 1.702,-0.533 0,-0.949 -0.612,-1.116 -1.528,-0.417 m -3.958,2.029 c -0.313,0.346 -1.057,0.983 -1.653,1.415 -0.834,0.605 -1.023,0.972 -0.824,1.6 0.333,1.05 1.673,0.289 2.852,-1.618 1.161,-1.879 0.909,-2.816 -0.375,-1.397 m -50.457,0.552 c -0.162,0.372 -0.188,0.784 -0.059,0.913 0.384,0.384 0.694,-0.155 0.517,-0.9 -0.157,-0.661 -0.177,-0.661 -0.458,-0.013 m 46.68,5.56 c 0,0.624 0.17,1.134 0.378,1.134 0.208,0 0.378,-0.51 0.378,-1.134 0,-0.624 -0.17,-1.134 -0.378,-1.134 -0.208,0 -0.378,0.51 -0.378,1.134 m 14.097,5.86 c 0.003,1.04 0.076,1.42 0.163,0.845 0.087,-0.574 0.084,-1.425 -0.005,-1.89 -0.09,-0.465 -0.161,0.005 -0.158,1.045 m -19.39,0.198 c 0,0.213 -0.425,0.549 -0.945,0.747 -1.097,0.417 -1.261,1.134 -0.26,1.134 0.376,0 1.062,-0.51 1.523,-1.134 0.669,-0.905 0.722,-1.134 0.26,-1.134 -0.318,0 -0.578,0.174 -0.578,0.387 m -48.485,3.093 c -0.232,1.582 0.071,2.831 0.516,2.128 0.424,-0.668 0.421,-2.862 -0.004,-3.124 -0.184,-0.115 -0.415,0.334 -0.512,0.996 m 68.397,1.531 c -1.046,0.765 -1.197,12.803 -0.175,13.982 0.373,0.43 0.679,0.926 0.679,1.103 0,0.176 0.17,0.32 0.378,0.32 0.208,0 0.378,-0.34 0.378,-0.756 0,-0.416 -0.245,-0.757 -0.544,-0.757 -1.198,0 -1.069,-7.025 0.205,-11.219 0.621,-2.042 0.137,-3.447 -0.921,-2.673 m -10.426,2.942 c -1.034,0.437 -1.955,1.502 -1.785,2.066 0.064,0.209 1.448,0.382 3.107,0.387 1.645,0.005 3.544,0.154 4.22,0.331 1.395,0.365 1.761,-0.791 0.708,-2.232 -0.61,-0.834 -4.721,-1.197 -6.25,-0.552 m -59.154,1.845 c -0.13,0.815 -0.077,1.878 0.117,2.363 0.278,0.694 0.359,0.378 0.378,-1.481 0.027,-2.704 -0.152,-3.024 -0.495,-0.882 m 42.737,-0.472 c -0.393,0.392 -0.297,1.638 0.126,1.638 0.208,0 0.378,-0.425 0.378,-0.945 0,-0.99 -0.088,-1.11 -0.504,-0.693 m -1.291,4.474 c 0.004,0.831 0.081,1.127 0.172,0.657 0.09,-0.471 0.087,-1.151 -0.008,-1.513 -0.095,-0.361 -0.168,0.024 -0.164,0.856 m -40.341,-0.599 c -0.339,0.549 0.12,2.678 0.578,2.678 0.438,0 0.446,-1.906 0.011,-2.592 -0.232,-0.367 -0.4,-0.391 -0.589,-0.086 m 59.585,1.175 c -1.32,0.39 -2.851,1.015 -3.403,1.389 -0.552,0.375 -1.257,0.783 -1.569,0.908 -0.311,0.124 0.285,0.353 1.324,0.508 1.039,0.155 2.361,0.56 2.937,0.9 1.388,0.818 2.214,0.291 2.723,-1.738 0.213,-0.85 0.515,-1.671 0.671,-1.824 1.032,-1.013 0.383,-1.047 -2.683,-0.143 m -40.824,1.244 c -1.056,1.123 -1.181,3.522 -0.16,3.074 1.846,-0.811 3.482,-0.635 5.373,0.578 2.175,1.396 3.062,1.372 3.454,-0.092 0.848,-3.172 -6.28,-6.1 -8.667,-3.56 m -17.226,3.165 c -0.321,2.133 0.206,4.027 0.738,2.647 0.145,-0.376 0.105,-1.567 -0.089,-2.646 l -0.353,-1.962 -0.296,1.961 m 37.501,-0.799 c -0.365,0.559 -0.509,3.484 -0.187,3.806 0.505,0.505 0.682,-0.175 0.567,-2.185 -0.064,-1.115 -0.235,-1.844 -0.38,-1.621 m -8.913,3.049 c 0.16,2.483 0.313,2.985 1.09,3.578 1.868,1.425 6.017,1.358 6.802,-0.11 0.637,-1.189 -0.243,-1.856 -1.008,-0.764 -1.519,2.169 -5.457,0.521 -5.457,-2.283 0,-1.669 -0.582,-3.309 -1.175,-3.309 -0.309,0 -0.383,0.848 -0.252,2.888 m -13.281,-0.43 c 0.012,1.319 0.064,1.409 0.407,0.7 0.274,-0.567 0.27,-1.023 -0.014,-1.512 -0.339,-0.583 -0.405,-0.446 -0.393,0.812 m 55.04,2.726 c -0.114,0.184 -0.069,0.557 0.099,0.829 0.232,0.376 0.373,0.387 0.585,0.044 0.153,-0.248 0.109,-0.622 -0.099,-0.83 -0.212,-0.211 -0.469,-0.23 -0.585,-0.043 m -67.707,0.96 c 1.201,1.418 2.044,1.833 2.044,1.004 0,-0.227 -0.34,-0.502 -0.756,-0.611 -0.416,-0.109 -0.756,-0.433 -0.756,-0.721 0,-0.287 -0.282,-0.523 -0.626,-0.523 -0.554,0 -0.544,0.098 0.094,0.851 m 13.764,0.072 c 0,0.956 0.556,1.598 0.901,1.039 0.276,-0.446 -0.162,-1.962 -0.567,-1.962 -0.184,0 -0.334,0.416 -0.334,0.923 m 8.505,1.716 c 0.2,0.909 0.06,1.3 -0.726,2.028 -1.306,1.21 -1.226,1.762 0.255,1.755 1.909,-0.009 2.409,-0.477 1.657,-1.55 -0.339,-0.484 -0.617,-1.439 -0.617,-2.12 0,-0.682 -0.184,-1.239 -0.408,-1.239 -0.256,0 -0.316,0.419 -0.161,1.126 m -19.76,0.457 c 0.233,0.701 1.047,0.817 1.047,0.149 0,-0.329 -0.269,-0.598 -0.598,-0.598 -0.33,0 -0.532,0.202 -0.449,0.449 m 1.498,1.47 c 0.074,0.223 0.297,0.406 0.494,0.406 0.198,0 0.42,-0.183 0.495,-0.406 0.075,-0.224 -0.148,-0.407 -0.495,-0.407 -0.346,0 -0.569,0.183 -0.494,0.407 m 12.582,0.629 c 0.143,0.57 0.393,1.123 0.557,1.229 0.163,0.106 0.409,0.533 0.547,0.949 0.577,1.747 2.559,3.258 4.956,3.779 0.624,0.136 1.512,0.6 1.975,1.031 0.981,0.916 1.387,0.406 1.172,-1.47 -0.11,-0.964 -0.248,-1.06 -1.362,-0.952 -1.903,0.185 -3.562,-0.574 -4.81,-2.199 -0.624,-0.813 -1.343,-1.485 -1.599,-1.495 -0.256,-0.01 -0.573,-0.443 -0.703,-0.963 -0.13,-0.52 -0.407,-0.945 -0.615,-0.945 -0.224,0 -0.272,0.424 -0.118,1.036 m 42.304,-0.155 c -1.102,1.149 -1.5,2.522 -0.731,2.522 0.326,0 0.593,-0.244 0.593,-0.542 0,-0.298 0.34,-0.649 0.756,-0.781 0.737,-0.234 1.049,-1.476 0.463,-1.838 -0.162,-0.1 -0.648,0.188 -1.081,0.639 m 10.067,0.637 c -0.452,0.844 -1.455,0.893 -3.684,0.179 -0.806,-0.258 -0.85,-0.172 -0.85,1.639 0,2.314 0.488,2.716 1.826,1.503 0.555,-0.504 1.472,-1.112 2.039,-1.352 0.595,-0.253 1.132,-0.848 1.274,-1.412 0.32,-1.275 -0.042,-1.609 -0.605,-0.557 m -63.298,1.153 c -0.134,0.326 -0.084,1.006 0.111,1.513 0.316,0.82 0.384,0.846 0.629,0.238 0.152,-0.376 0.102,-1.056 -0.111,-1.513 -0.319,-0.684 -0.429,-0.726 -0.629,-0.238 m 51.002,1.507 c -0.36,0.581 0.132,0.956 0.618,0.471 0.271,-0.272 0.278,-0.483 0.019,-0.643 -0.211,-0.13 -0.498,-0.053 -0.637,0.172 m 7.671,3.356 c -0.48,1.224 -0.853,1.566 -2.12,1.945 l -1.536,0.461 1.306,1.306 c 0.764,0.764 1.307,1.683 1.307,2.213 0,0.5 0.151,0.908 0.337,0.908 0.51,0 0.797,-1.014 0.797,-2.82 0,-1.243 0.191,-1.752 0.812,-2.164 0.684,-0.454 0.771,-0.76 0.55,-1.936 -0.336,-1.79 -0.725,-1.767 -1.453,0.087 m -38.224,1.795 c -0.423,0.423 -0.281,0.82 0.579,1.62 0.878,0.819 1.819,1.022 1.819,0.393 0,-0.208 -0.255,-0.378 -0.567,-0.378 -0.312,0 -0.567,-0.234 -0.567,-0.521 0,-0.641 -0.923,-1.455 -1.264,-1.114 m -16.317,0.501 c -0.606,0.261 -0.475,0.33 0.662,0.352 0.78,0.014 1.418,-0.144 1.418,-0.352 0,-0.451 -1.029,-0.451 -2.08,0 m 51.073,6.374 c -0.133,0.215 -0.225,1.804 -0.205,3.53 0.02,1.727 -0.018,3.461 -0.085,3.855 -0.067,0.393 0.066,0.782 0.295,0.863 0.532,0.189 1.097,-7.778 0.588,-8.288 -0.217,-0.216 -0.444,-0.201 -0.593,0.04 m -102.058,6.405 c -0.514,1.906 -0.613,2.815 -0.399,3.667 0.284,1.131 0.772,1.224 1.095,0.209 0.128,-0.406 0.578,-0.846 0.998,-0.98 0.742,-0.235 0.744,-0.265 0.075,-1.005 -0.379,-0.42 -0.639,-1.064 -0.579,-1.432 0.146,-0.883 -0.96,-1.31 -1.19,-0.459 m 2.025,-0.418 c 0,0.456 2.011,2.384 2.487,2.384 0.883,0 0.91,7.176 0.033,8.594 -0.382,0.619 0.727,0.707 5.798,0.463 l 4.726,-0.227 -3.687,-0.067 c -4.939,-0.09 -5.198,-0.337 -5.198,-4.931 0,-2.78 -0.129,-3.516 -0.756,-4.313 -0.416,-0.529 -0.756,-1.128 -0.756,-1.331 0,-0.202 -0.383,-0.471 -0.851,-0.596 -1.137,-0.305 -1.796,-0.296 -1.796,0.024 m 85.066,1.08 c 0,0.322 0.615,0.843 1.367,1.157 l 1.368,0.572 -0.895,0.962 -0.895,0.963 1.702,-0.216 c 5.44,-0.69 6.457,-0.879 6.849,-1.271 0.325,-0.325 0.067,-0.495 -1.034,-0.685 -0.807,-0.139 -2.795,-0.661 -4.417,-1.161 -3.459,-1.064 -4.045,-1.111 -4.045,-0.321 m -7.136,2.225 c -1.118,0.47 -2.19,1.136 -2.382,1.479 -0.192,0.344 -0.681,0.624 -1.087,0.624 -0.499,0 -0.737,0.259 -0.737,0.801 0,0.773 0.048,0.765 1.357,-0.234 1.132,-0.863 1.503,-0.969 2.232,-0.636 0.891,0.405 2.082,-0.355 2.082,-1.33 0,-0.217 0.72,-0.509 1.6,-0.65 1.194,-0.191 1.457,-0.345 1.039,-0.61 -0.837,-0.529 -1.852,-0.392 -4.104,0.556 m -34.452,0.536 c 0,0.54 -1.941,2.539 -2.741,2.822 -0.922,0.326 -0.828,1.014 0.139,1.014 0.935,0 3.878,-2.79 3.653,-3.464 -0.194,-0.583 -1.051,-0.886 -1.051,-0.372 m 40.927,1.48 c -0.468,0.077 -0.851,0.298 -0.851,0.492 0,0.458 1.78,0.458 2.063,0 0.292,-0.472 -0.177,-0.663 -1.212,-0.492 m 24.48,0.425 c 0,0.417 0.981,0.824 1.276,0.529 0.118,-0.119 0.125,-0.362 0.014,-0.541 -0.265,-0.43 -1.29,-0.42 -1.29,0.012 m -112.739,1.483 c -0.271,0.378 -0.834,0.83 -1.25,1.006 -0.637,0.268 -0.499,0.378 0.869,0.694 2.012,0.465 2.58,0.057 1.924,-1.384 -0.538,-1.18 -0.871,-1.249 -1.543,-0.316 m 82.022,1.771 c -0.099,0.52 -0.034,0.945 0.145,0.945 0.179,0 0.326,-0.15 0.326,-0.334 0,-0.183 0.34,-0.423 0.756,-0.531 1.054,-0.276 0.948,-1.025 -0.145,-1.025 -0.661,0 -0.949,0.252 -1.082,0.945 m -42.039,0.907 c -0.115,0.187 -1.067,0.546 -2.114,0.797 -1.692,0.406 -1.876,0.547 -1.655,1.267 0.336,1.094996 0.477,1.204996 0.945,0.736996 0.482,-0.481996 3.272,0.484 4.259,1.474 0.723,0.726 1.528,0.562 2.784,-0.567 1.068,-0.961 0.79,-1.400996 -0.887,-1.400996 -1.93,0 -2.897,-0.602 -2.415,-1.504 0.211,-0.393 0.383,-0.811 0.383,-0.929 0,-0.348 -1.071,-0.244 -1.3,0.126 m -49.534,1.146 c -0.12,0.194 -0.045,0.459 0.166,0.59 0.452,0.279 1.141,-0.075 1.141,-0.586 0,-0.46 -1.024,-0.463 -1.307,-0.004 m 87.768,1.08 c -0.612,0.078 -0.995,0.324 -0.903,0.580996 0.174,0.488 1.758,0.426 2.274,-0.09 0.45,-0.450996 -0.111,-0.651996 -1.371,-0.490996 m -89.035,0.486996 c 0.074,0.224 0.297,0.407 0.494,0.407 0.198,0 0.421,-0.183 0.495,-0.407 0.075,-0.222996 -0.148,-0.405996 -0.495,-0.405996 -0.346,0 -0.569,0.183 -0.494,0.405996 m 34.112,-0.078 c 0.273,0.441 3.034,0.863 3.779,0.577 1.142,-0.438 0.161,-0.905 -1.903,-0.905 -1.143,0 -1.988,0.147 -1.876,0.328 m 97.006,0.239 c 0,0.312 0.17,0.567 0.378,0.567 0.208,0 0.378,-0.255 0.378,-0.567 0,-0.312 -0.17,-0.567 -0.378,-0.567 -0.208,0 -0.378,0.255 -0.378,0.567 m -89.597,1.607 c 0.004,1.298 0.107,1.638 0.372,1.228 0.483,-0.747 0.483,-3.024 0,-3.024 -0.208,0 -0.375,0.808 -0.372,1.796 m 14.739,-0.683 c 0,0.197 0.461,0.58 1.026,0.851 0.564,0.271 1.401,1.052 1.861,1.734 0.767,1.141 0.855,1.179 1.079,0.473 0.134,-0.423 0.445,-0.788 0.691,-0.812 1.041,-0.101 2,0.15 2.594,0.68 0.58,0.517 0.646,0.457 0.756,-0.692 0.167,-1.729 1.049,-1.84 12.432,-1.565 6.567,0.159 9.501,0.101 10.019,-0.2 1.473,-0.855 -21.964,-0.693 -23.604,0.163 -1.363,0.711 -2.306,0.651 -3.64,-0.233 -1.172,-0.776 -3.214,-1.029 -3.214,-0.399 m 75.808,0.013 c -0.279,0.452 0.448,1.898 0.954,1.898 0.2,0 0.365,0.416 0.365,0.923 0,1.061 0.702,1.667 1.13,0.974 0.395,-0.64 0.024,-1.897 -0.56,-1.897 -0.262,0 -0.578,-0.51 -0.703,-1.134 -0.226,-1.13 -0.751,-1.468 -1.186,-0.764 m -83.874,1.016 c -0.138,0.139 -0.252,0.734 -0.252,1.323 0,1.346 1.023,1.458 1.352,0.148 0.327,-1.303 -0.355,-2.215 -1.1,-1.471 m 16.66,3.023 c -0.103,0.174 -0.008,0.742 0.212,1.262 l 0.399,0.945 0.155,-0.894 c 0.158,-0.905 -0.421,-1.896 -0.766,-1.313 m -67.335,0.978 c -0.349,1.304 -0.281,2.552 0.14,2.552 0.208,0 0.378,-0.765 0.378,-1.701 0,-1.873 -0.169,-2.151 -0.518,-0.851 m 68.883,4.503 c -0.068,1.734 -0.037,4.259 0.068,5.611 l 0.19,2.457 0.295,-2.268 c 0.358,-2.751 0.358,-2.761 0.112,-6.006 -0.273,-3.602 -0.519,-3.526 -0.665,0.206 m -28.668,-1.951 c -0.723,0.567 -1.547,0.742 -3.519,0.748 -1.438,0.005 -2.481,0.16 -2.363,0.351 0.116,0.188 1.229,0.25 2.473,0.137 1.49,-0.135 2.449,-0.05 2.811,0.251 0.583,0.483 2.111,-0.033 2.111,-0.713 0,-0.183 0.103,-0.603 0.229,-0.932 0.319,-0.83 -0.583,-0.748 -1.742,0.158 m 21.723,0.783 c -0.142,0.23 -0.091,0.584 0.113,0.788 0.242,0.242 0.448,0.169 0.593,-0.21 0.264,-0.689 -0.334,-1.179 -0.706,-0.578 m -63.45,3.093 c -0.478,1.783 -0.165,4.064 0.558,4.064 0.186,0 0.338,-1.106 0.338,-2.458 0,-2.432 -0.456,-3.249 -0.896,-1.606 m 10.726,2.363 c 0,1.063 0.145,1.323 0.743,1.323 0.931,0 3.374,2.112 3.83,3.311 0.5,1.313 2,1.031 2.165,-0.407 0.126,-1.101 -0.502,-1.898 -2.735,-3.471 -3.622,-2.552 -4.003,-2.624 -4.003,-0.756 m 21.259,-0.189 c 0,0.727 0.078,1.025 0.173,0.661 0.095,-0.364 0.095,-0.959 0,-1.323 -0.095,-0.364 -0.173,-0.066 -0.173,0.662 m 30.17,3.024 c 0,1.481 0.105,1.916 0.366,1.512 0.202,-0.311 0.367,-0.992 0.367,-1.512 0,-0.52 -0.165,-1.2 -0.367,-1.512 -0.261,-0.404 -0.366,0.032 -0.366,1.512 m -31.77,0.567 c 0,0.816 0.153,1.274 0.378,1.134 0.208,-0.128 0.378,-0.638 0.378,-1.134 0,-0.495 -0.17,-1.005 -0.378,-1.134 -0.225,-0.139 -0.378,0.319 -0.378,1.134 m -22.139,-0.047 c -0.394,1.569 1.42,4.53 3.66,5.978 1.184,0.764 1.592,2.018 0.885,2.724 -0.432,0.433 -0.367,0.651 0.411,1.382 0.508,0.477 0.971,0.796 1.03,0.708 0.771,-1.142 1.539,-3.656 1.695,-5.546 0.2,-2.424 0.019,-2.714 -1.145,-1.831 -1.286,0.976 -5.569,-1.594 -5.569,-3.342 0,-0.975 -0.727,-1.03 -0.967,-0.073 m 60.996,1.227 c -0.734,1.29 -0.681,4.208 0.069,3.745 0.502,-0.31 0.835,-2.799 0.464,-3.463 -0.189,-0.338 -0.429,-0.464 -0.533,-0.282 m 70.116,3.168 c 0,0.728 0.077,1.026 0.173,0.662 0.095,-0.364 0.095,-0.96 0,-1.324 -0.096,-0.363 -0.173,-0.066 -0.173,0.662 m -0.095,12.117 c -0.007,8.263 -0.456,11.695 -1.894,14.453 -0.429,0.824 -0.688,1.591 -0.574,1.705 0.114,0.113 0.207,0.008 0.207,-0.235 0,-0.53 2.586,-0.587 3.398,-0.073 1.518,0.96 2.107,-4.051 0.688,-5.856 -0.786,-0.999 -0.833,-1.464 -0.916,-8.982 -0.056,-5.045 -0.236,-8.077 -0.495,-8.336 -0.291,-0.291 -0.409,1.801 -0.414,7.324 m -73.101,-4.736 c -0.349,0.911 0.166,1.553 0.61,0.76 0.235,-0.42 0.234,-0.783 -0.002,-1.019 -0.238,-0.238 -0.452,-0.146 -0.608,0.259 m 40.901,3.961 c 0.548,0.624 1.213,1.134 1.478,1.134 0.266,0 0.5,0.213 0.521,0.473 0.047,0.594 0.63,-1.185 0.681,-2.079 0.031,-0.546 -0.289,-0.662 -1.819,-0.662 h -1.856 l 0.995,1.134 m -16.942,0.343 c -0.943,0.266 -0.943,0.268 -0.095,0.494 0.65,0.173 0.851,0.503 0.851,1.396 0,1.399 0.579,1.549 0.908,0.236 0.129,-0.514 0.578,-1.118 0.997,-1.343 1.63,-0.872 -0.319,-1.445 -2.661,-0.783 m -29.49,3.106 c 0,0.668 0.095,0.724 0.563,0.335 0.569,-0.472 0.448,-1.137 -0.207,-1.137 -0.196,0 -0.356,0.361 -0.356,0.802 m -52.26,4.78 c -0.096,0.368 -0.043,1.006 0.118,1.418 0.223,0.571 0.299,0.412 0.32,-0.668 0.028,-1.519 -0.155,-1.833 -0.438,-0.75 m 105.781,1.563 c -0.115,0.186 0.326,0.91 0.981,1.606 0.86,0.914 1.243,1.119 1.374,0.733 0.101,-0.293 -0.064,-0.719 -0.365,-0.945 -0.302,-0.226 -0.66,-0.708 -0.797,-1.072 -0.267,-0.713 -0.854,-0.871 -1.193,-0.322 m -52.576,0.416 c 0.129,0.208 0.479,0.378 0.779,0.378 0.299,0 0.544,-0.17 0.544,-0.378 0,-0.208 -0.35,-0.378 -0.778,-0.378 -0.428,0 -0.673,0.17 -0.545,0.378 m 13.8,0.807 c -1.144,0.187 -2.617,0.593 -3.274,0.902 -1.111,0.523 -2.33,0.422 -2.778,-0.232 -0.338,-0.493 -5.668,-0.868 -5.668,-0.399 0,0.424 0.462,0.572 3.213,1.025 3.189,0.526 11.018,0.049 11.785,-0.718 0.265,-0.265 -0.561,-1.048 -1.01,-0.957 -0.104,0.021 -1.124,0.192 -2.268,0.379 m -20.008,0.835 c -0.017,0.384 -0.355,0.782 -0.751,0.886 -1.027,0.268 -1.465,2.414 -0.485,2.377 0.427,-0.016 1.663,-2.975 1.456,-3.488 -0.108,-0.268 -0.203,-0.172 -0.22,0.225 m -23.623,4.671 c -0.378,1.192 0.181,2.393 0.595,1.276 0.172,-0.468 0.164,-1.118 -0.019,-1.446 -0.288,-0.513 -0.367,-0.49 -0.576,0.17 m 20.832,-0.115 c -0.155,0.394 -0.192,0.805 -0.083,0.914 0.344,0.344 0.648,-0.221 0.503,-0.939 -0.132,-0.658 -0.152,-0.656 -0.42,0.025 m 86.923,1.553 c -0.355,0.919 -0.852,1.957 -1.542,3.213 -0.657,1.199 -1.713,6.301 -1.713,8.28 0,1.981 0.655,2.34 0.949,0.521 0.128,-0.786 0.542,-2.194 0.921,-3.13 0.992,-2.446 2.011,-7.181 1.831,-8.506 -0.134,-0.986 -0.192,-1.036 -0.446,-0.378 m -5.633,0.572 c -2.952,1.583 -9.066,1.52 -10.143,-0.105 -0.129,-0.194 -0.554,-0.269 -0.945,-0.167 -0.644,0.169 -0.63,0.213 0.139,0.46 0.468,0.15 0.851,0.477 0.851,0.726 0,1.651 6.305,2.598 8.534,1.283 2.772,-1.635 4.163,-3.589 1.564,-2.197 m -103.578,0.845 c -0.235,0.701 0.131,1.82 0.517,1.581 0.444,-0.274 0.434,-2.053 -0.011,-2.053 -0.191,0 -0.418,0.212 -0.506,0.472 m 16.758,11.343 c 0.019,1.136 0.11,1.393 0.313,0.876 0.267,-0.683 0.126,-2.483 -0.195,-2.483 -0.079,0 -0.133,0.723 -0.118,1.607 m -1.255,2.768 c -0.156,0.158 -0.284,0.974 -0.284,1.813 0,1.081 0.118,1.407 0.404,1.121 0.222,-0.223 0.35,-1.038 0.284,-1.813 -0.067,-0.775 -0.248,-1.28 -0.404,-1.121 m 88.293,7.156 c 0.003,1.04 0.076,1.42 0.163,0.845 0.087,-0.574 0.085,-1.425 -0.005,-1.89 -0.09,-0.465 -0.161,0.005 -0.158,1.045 m -119.033,1.053 c -0.355,0.926 0.229,1.656 0.68,0.849 0.242,-0.431 0.228,-0.789 -0.04,-1.057 -0.288,-0.287 -0.473,-0.227 -0.64,0.208 m 117.439,6.013 c 0.02,1.471 0.114,1.805 0.352,1.252 0.453,-1.054 0.453,-2.745 0,-3.025 -0.235,-0.145 -0.368,0.526 -0.352,1.773 m -1.289,5.273 c -0.409,1.526 -0.295,10.353 0.128,9.93 0.535,-0.536 0.958,-9.311 0.489,-10.15 -0.344,-0.614 -0.399,-0.594 -0.617,0.22 m -125.486,1.208 c -0.454,1.11 -0.356,5.014 0.114,4.543 0.222,-0.222 0.347,-1.468 0.284,-2.817 -0.073,-1.532 -0.218,-2.165 -0.398,-1.726 m 32.838,5.009 c -0.34,0.886 -0.278,2.352 0.109,2.591 0.435,0.269 0.796,-0.677 0.796,-2.085 0,-1.187 -0.53,-1.483 -0.905,-0.506 m 91.13,8.312 c -0.35,2.556 -0.301,6.89 0.081,7.126 0.351,0.216 0.813,-3.333 0.804,-6.167 -0.009,-2.525 -0.584,-3.149 -0.885,-0.959 m -125.283,5.835 c 0,0.936 0.074,1.319 0.164,0.851 0.09,-0.468 0.09,-1.234 0,-1.702 -0.09,-0.467 -0.164,-0.085 -0.164,0.851 m 25.984,4.748 c 0,0.549 0.164,0.867 0.378,0.734 0.208,-0.128 0.378,-0.564 0.378,-0.967 0,-0.404 -0.17,-0.734 -0.378,-0.734 -0.208,0 -0.378,0.435 -0.378,0.967 m -2.272,3.07 c -1.577,2.487 -1.709,3.092 -0.846,3.896 0.986,0.919 1.855,-0.468 2.216,-3.533 0.304,-2.592 0.081,-2.651 -1.37,-0.363 m 100.314,1.634 c 0,1.352 0.069,1.904 0.152,1.229 0.084,-0.676 0.084,-1.782 0,-2.458 -0.083,-0.676 -0.152,-0.123 -0.152,1.229 m -122.994,0.923 c 0,0.878 0.599,1.628 0.988,1.239 0.288,-0.288 -0.277,-2.162 -0.651,-2.162 -0.186,0 -0.337,0.415 -0.337,0.923 m 1.512,1.912 c 0,0.312 0.276,0.568 0.613,0.568 0.503,0 0.528,-0.103 0.143,-0.568 -0.259,-0.311 -0.535,-0.567 -0.613,-0.567 -0.079,0 -0.143,0.256 -0.143,0.567 m 1.512,1.702 c 0,0.208 0.255,0.378 0.567,0.378 0.312,0 0.573,0.213 0.579,0.472 0.015,0.597 1.716,2.552 2.22,2.552 0.207,0 0.513,0.233 0.68,0.518 0.327,0.561 2.003,1.214 2.003,0.781 0,-0.639 -5.09,-5.079 -5.824,-5.079 -0.124,0 -0.225,0.17 -0.225,0.378 m 19.399,2.079 c 0.002,1.248 0.073,1.713 0.157,1.033 0.084,-0.679 0.082,-1.7 -0.004,-2.268 -0.086,-0.568 -0.155,-0.012 -0.153,1.235 m -5.694,-1.046 c -0.26,0.09 -0.472,0.405 -0.472,0.7 0,0.294 -0.256,0.535 -0.567,0.535 -0.312,0 -0.568,0.255 -0.568,0.567 0,0.808 0.435,0.694 1.452,-0.378 0.909,-0.959 0.992,-1.714 0.155,-1.424 m 107.562,2.117 c -0.359,0.875 -0.323,3.987 0.057,4.958 0.286,0.729 0.29,0.729 0.466,0 0.287,-1.189 -0.195,-5.76 -0.523,-4.958 m 1.234,9.043 c 0.013,1.079 0.739,1.631 0.745,0.567 0.003,-0.572 -0.165,-1.04 -0.373,-1.04 -0.207,0 -0.375,0.213 -0.372,0.473 m -105.752,4.442 c 0,1.144 0.07,1.611 0.157,1.04 0.087,-0.572 0.087,-1.508 0,-2.08 -0.087,-0.572 -0.157,-0.104 -0.157,1.04 m 105.798,4.741 c -0.247,0.632 -0.912,1.349 -1.479,1.593 -0.566,0.244 -1.285,0.611 -1.597,0.815 -0.312,0.205 -1.224,0.477 -2.027,0.606 -0.991,0.159 -1.52,0.464 -1.647,0.949 -0.155,0.593 -0.617,0.738 -2.699,0.846 l -2.512,0.132 2.552,0.074 c 2.226,0.064 2.552,0.165 2.552,0.79 0,1 0.697,1.174 4.706,1.174 2.947,0 3.665,0.122 4.479,0.763 1.545,1.215 1.677,0.12 0.153,-1.262 -2.265,-2.055 -3.354,-4.575 -2.308,-5.34 0.369,-0.27 0.54,-0.801 0.439,-1.365 -0.161,-0.909 -0.172,-0.905 -0.612,0.225 m -103.834,1.074 c -1.283,0.938 -0.381,2.224 1.354,1.931 1.056,-0.179 1.629,-0.093 2.026,0.305 0.739,0.738 3.223,1.189 3.735,0.677 0.571,-0.571 0.166,-0.824 -1.695,-1.059 -0.9,-0.114 -1.893,-0.408 -2.205,-0.654 -1.771,-1.394 -2.551,-1.686 -3.215,-1.2 m 102.431,3.511 c 0.36,0.939 -0.113,1.26 -1.86,1.26 -3.068,0 -4.949,-1.473 -1.965,-1.539 0.664,-0.014 1.547,-0.161 1.963,-0.326 0.923,-0.365 1.571,-0.155 1.862,0.605 m -91.843,0.54 c 1.864,0.322 8.058,0.161 8.437,-0.219 0.107,-0.107 -2.172,-0.175 -5.066,-0.151 -4.256,0.036 -4.9,0.107 -3.371,0.37 m 18.246,1.365 c 0.47,0.091 1.151,0.087 1.512,-0.007 0.362,-0.095 -0.023,-0.169 -0.855,-0.165 -0.831,0.005 -1.127,0.082 -0.657,0.172 m 57.652,-0.006 c 0.364,0.095 0.959,0.095 1.323,0 0.364,-0.095 0.066,-0.173 -0.662,-0.173 -0.728,0 -1.025,0.078 -0.661,0.173 m -87.177,1.503 c -0.378,0.378 -0.304,2.773 0.085,2.773 0.186,0 0.436,-0.255 0.555,-0.567 0.149,-0.387 0.755,-0.567 1.909,-0.567 2.091,0 2.608,-0.629 0.797,-0.969 -0.736,-0.138 -1.432,-0.402 -1.546,-0.586 -0.242,-0.393 -1.436,-0.448 -1.8,-0.084 m 108.632,1.805 c 0,0.533 0.17,0.968 0.378,0.968 0.208,0 0.378,-0.33 0.378,-0.734 0,-0.404 -0.17,-0.839 -0.378,-0.967 -0.214,-0.133 -0.378,0.185 -0.378,0.733 m -110.033,2.291 c -0.256,1.436 -0.241,8.415 0.019,8.879 0.389,0.693 0.685,-7.67 0.305,-8.616 -0.141,-0.353 -0.287,-0.471 -0.324,-0.263 m 111.469,0.473 c -0.09,0.364 -0.042,1.087 0.108,1.607 0.221,0.77 0.278,0.647 0.309,-0.662 0.039,-1.677 -0.136,-2.075 -0.417,-0.945 m 1.078,4.053 c -0.28,0.73 0.485,2.907 0.926,2.635 0.645,-0.399 0.282,-3.191 -0.415,-3.191 -0.164,0 -0.393,0.25 -0.511,0.556 m 24.424,7.666 c 2.859,0.064 7.538,0.064 10.397,0 2.859,-0.064 0.52,-0.117 -5.199,-0.117 -5.718,0 -8.057,0.053 -5.198,0.117 m -138.602,4.632 c -0.164,2.6 -0.542,5.886 -0.839,7.303 -0.594,2.835 -0.776,16.138 -0.221,16.138 0.176,0 0.421,-2.68 0.545,-5.955 0.129,-3.437 0.473,-6.907 0.814,-8.208 0.613,-2.341 0.737,-8.06 0.258,-11.924 -0.231,-1.86 -0.29,-1.58 -0.557,2.646 m 120.007,3.006 c -0.019,0.994 0.08,1.199 0.416,0.863 0.326,-0.326 0.333,-0.666 0.026,-1.304 -0.391,-0.811 -0.418,-0.784 -0.442,0.441 m -50.129,0.649 c -0.425,0.425 -1.025,0.541 -2.076,0.4 -1.567,-0.21 -1.797,-0.065 -4.287,2.702 -1.772,1.969 -2.09,2.01 -4.518,0.58 -1.203,-0.708 -2.35,-1.287 -2.548,-1.287 -0.584,0 -0.414,0.688 0.262,1.067 0.409,0.229 0.55,0.632 0.41,1.169 -0.178,0.68 0.038,0.92 1.267,1.412 1.27,0.508 1.555,0.844 1.993,2.347 0.676,2.317 1.02,2.131 1.863,-1.011 0.694,-2.584 0.732,-2.635 2.764,-3.662 1.133,-0.574 2.143,-1.178 2.245,-1.343 0.102,-0.164 0.694,-0.411 1.315,-0.548 0.622,-0.136 1.13,-0.457 1.13,-0.712 0,-0.255 0.468,-0.63 1.04,-0.834 0.86,-0.306 0.927,-0.414 0.389,-0.624 -0.385,-0.15 -0.895,-0.01 -1.249,0.344 m -20.218,-0.107 c 0,0.328 1.879,0.474 2.339,0.182 0.317,-0.201 -0.017,-0.318 -0.921,-0.321 -0.78,-0.003 -1.418,0.059 -1.418,0.139 m 3.403,1.367 c 0,0.208 0.638,0.376 1.418,0.373 1.054,-0.005 1.272,-0.1 0.85,-0.373 -0.745,-0.481 -2.268,-0.481 -2.268,0 m 68.249,1.879 c -0.383,0.62 0.157,4.609 0.588,4.342 0.193,-0.119 0.348,-1.014 0.344,-1.99 -0.006,-1.95 -0.465,-3.108 -0.932,-2.352 m -70.801,1.028 c 0.364,0.096 0.959,0.096 1.323,0 0.364,-0.095 0.066,-0.172 -0.661,-0.172 -0.728,0 -1.026,0.077 -0.662,0.172 m 72.144,6.64 c 0.043,3.259 0.672,3.935 0.703,0.756 0.015,-1.593 -0.132,-2.741 -0.352,-2.741 -0.208,0 -0.366,0.893 -0.351,1.985 m -10.446,-1.049 c 0.887,0.696 1.846,0.757 1.631,0.103 -0.085,-0.259 -0.652,-0.519 -1.26,-0.575 -1.054,-0.099 -1.071,-0.077 -0.371,0.472 m -50.193,1.957 c -0.384,0.384 -0.3,3.637 0.111,4.287 0.66,1.045 1.264,-0.146 0.991,-1.953 -0.273,-1.81 -0.707,-2.729 -1.102,-2.334 m -17.554,4.929 c 0.364,0.095 0.959,0.095 1.323,0 0.364,-0.095 0.066,-0.173 -0.661,-0.173 -0.728,0 -1.026,0.078 -0.662,0.173 m 19.101,0.717 c -0.143,0.225 -0.129,0.899 0.031,1.497 0.16,0.598 0.377,0.923 0.483,0.724 0.288,-0.541 -0.212,-2.699 -0.514,-2.221 m 57.931,0.326 c 0,0.288 0.128,0.58 0.284,0.65 0.31,0.137 1.707,2.864 2.389,4.662 l 0.43,1.135 0.351,-0.917 c 0.615,-1.605 -0.354,-4.943 -1.435,-4.943 -0.486,0 -0.885,-0.152 -0.885,-0.338 0,-0.186 -0.255,-0.436 -0.567,-0.555 -0.336,-0.129 -0.567,-0.004 -0.567,0.306 m -82.609,0.208 c -0.138,0.225 0.304,0.379 1.09,0.379 0.728,0 1.428,-0.171 1.557,-0.379 0.139,-0.224 -0.304,-0.378 -1.09,-0.378 -0.728,0 -1.428,0.171 -1.557,0.378 m 11.91,0 c 0,0.208 0.35,0.379 0.778,0.379 0.428,0 0.673,-0.171 0.545,-0.379 -0.129,-0.207 -0.479,-0.378 -0.779,-0.378 -0.299,0 -0.544,0.171 -0.544,0.378 m 13.929,5.479 c -0.141,2.463 -1.055,3.278 -2.09,1.863 -0.468,-0.641 -0.497,-0.634 -0.497,0.125 0,0.444 0.159,0.905 0.354,1.025 0.195,0.121 0.878,1.327 1.517,2.68 1.012,2.142 1.253,2.412 1.86,2.088 1.234,-0.661 1.648,-7.004 0.522,-8.014 -0.364,-0.326 -0.859,-0.917 -1.099,-1.313 -0.369,-0.605 -0.458,-0.362 -0.567,1.546 m -40.3,1.421 c 0.087,0.26 0.384,0.473 0.662,0.473 0.277,0 0.575,-0.213 0.661,-0.473 0.094,-0.281 -0.174,-0.472 -0.661,-0.472 -0.488,0 -0.756,0.191 -0.662,0.472 m -24.399,1.543 c -0.349,0.896 -0.302,2.88 0.091,3.845 0.29,0.711 0.323,0.699 0.547,-0.189 0.321,-1.269 -0.264,-4.618 -0.638,-3.656 m 15.231,7.626 c 0,0.519 0.065,0.945 0.145,0.945 0.08,0 0.226,-0.426 0.325,-0.945 0.1,-0.52 0.035,-0.946 -0.144,-0.946 -0.18,0 -0.326,0.426 -0.326,0.946 m -12.476,4.725 c 0,0.706 0.1,0.807 0.453,0.454 0.353,-0.353 0.353,-0.554 0,-0.907 -0.353,-0.353 -0.453,-0.252 -0.453,0.453 m 2.652,4.443 c 0.017,0.828 0.739,1.378 0.744,0.567 0.004,-0.468 -0.164,-0.851 -0.372,-0.851 -0.208,0 -0.375,0.128 -0.372,0.284 m 1.14,2.079 c 0.029,1.161 3.18,5.374 3.754,5.019 1.281,-0.792 0.182,-4.357 -1.343,-4.357 -0.456,0 -0.928,-0.255 -1.047,-0.567 -0.263,-0.685 -1.381,-0.762 -1.364,-0.095 m 119.184,3.308 c 0,0.936 0.074,1.319 0.164,0.851 0.09,-0.468 0.09,-1.234 0,-1.701 -0.09,-0.468 -0.164,-0.085 -0.164,0.85 m -56.769,2.152 c 0.072,4.741 0.614,5.855 0.666,1.368 0.026,-2.212 -0.116,-3.953 -0.333,-4.087 -0.241,-0.149 -0.362,0.836 -0.333,2.719 m 55.154,4.676 c 0,0.428 0.17,0.673 0.378,0.545 0.208,-0.129 0.378,-0.479 0.378,-0.779 0,-0.299 -0.17,-0.545 -0.378,-0.545 -0.208,0 -0.378,0.351 -0.378,0.779 m -110.392,0.45 c -0.003,0.572 0.165,1.04 0.373,1.04 0.478,0 0.478,-0.773 0,-1.512 -0.286,-0.442 -0.368,-0.338 -0.373,0.472 m 56.231,0.708 c -1.339,0.749 -0.753,4.113 0.716,4.113 1.261,0 1.423,-0.714 0.624,-2.748 -0.575,-1.464 -0.783,-1.676 -1.34,-1.365 m -54.698,1.939 c -0.014,0.571 0.144,1.039 0.352,1.039 0.444,0 0.444,-0.29 0,-1.323 -0.288,-0.67 -0.328,-0.638 -0.352,0.284 m 107.602,1.039 c -0.938,2.706 -1.626,5.583 -1.446,6.05 0.158,0.41 0.319,0.283 0.584,-0.461 0.731,-2.055 1.993,-2.201 20.833,-2.406 18.341,-0.201 22.299,-0.382 21.245,-0.972 -0.391,-0.218 -8.216,-0.315 -19.952,-0.245 -20.996,0.124 -19.308,0.274 -20.632,-1.838 -0.363,-0.58 -0.467,-0.601 -0.632,-0.128 m -106.365,1.303 c 0.137,0.357 0.249,0.806 0.249,0.997 0,0.191 0.182,0.347 0.405,0.347 0.587,0 0.259,-1.61 -0.371,-1.818 -0.374,-0.123 -0.458,0.018 -0.283,0.474 m 52.78,2.139 c -0.489,0.914 -0.988,11.234 -0.592,12.264 0.507,1.321 1.749,-0.395 1.331,-1.839 -0.411,-1.421 -0.025,-7.799 0.513,-8.479 0.458,-0.579 1.875,-0.619 2.425,-0.068 0.287,0.287 0.459,0.119 0.593,-0.581 0.213,-1.116 -0.252,-1.473 -2.433,-1.867 -1.19,-0.214 -1.462,-0.13 -1.837,0.57 m -51.585,0.338 c -0.31,0.977 -0.827,1.077 -7.373,1.427 l -5.482,0.294 7.176,0.299 c 4.794,0.199 7.281,0.447 7.492,0.747 0.454,0.644 -0.107,-1.243 -0.737,-2.482 -0.631,-1.241 -0.762,-1.275 -1.076,-0.285 m -55.850999,2.925 c 0.889,0.08 2.250999,0.079 3.024999,-0.003 0.774,-0.081 0.047,-0.146 -1.617,-0.145 -1.663999,0.002 -2.296999,0.068 -1.407999,0.148 m 112.862999,3.503 c 0,1.144 0.071,1.612 0.158,1.04 0.087,-0.572 0.087,-1.508 0,-2.079 -0.087,-0.572 -0.158,-0.104 -0.158,1.039 m -52.908,0.195 c -0.135,0.35 0.031,0.889 0.381,1.239 0.573,0.573 0.618,0.544 0.618,-0.385 0,-1.183 -0.657,-1.745 -0.999,-0.854 m 1.603,3.255 c -0.262,1.634 -0.08,2.221 0.687,2.221 0.27,0 0.668,0.553 0.884,1.229 l 0.395,1.229 0.037,-1.323 c 0.02,-0.728 -0.368,-2.121 -0.862,-3.096 l -0.9,-1.772 -0.241,1.512 m 51.132,0.087 c -0.115,0.955 -0.013,1.519 0.297,1.638 0.26,0.1 0.589,1.145 0.731,2.324 0.531,4.399 1.586,3.838 1.169,-0.623 -0.169,-1.818 -0.433,-2.674 -0.951,-3.089 -0.394,-0.315 -0.796,-0.828 -0.894,-1.14 -0.097,-0.312 -0.256,0.088 -0.352,0.89 m 45.454,0.528 c 0.024,1.659 0.059,1.723 0.462,0.85 0.241,-0.52 0.597,-1.057 0.792,-1.194 0.33,-0.232 -0.564,-1.452 -1.063,-1.452 -0.119,0 -0.205,0.808 -0.191,1.796 m -137.265,2.007 c -2.031,0.119 1.406,0.242 7.908,0.283 6.325,0.04 11.403,-0.024 11.284,-0.143 -0.295,-0.295 -14.765,-0.401 -19.192,-0.14 m 131.708,0.45 c 0.126,0.468 0.231,0.988 0.234,1.157 0.002,0.168 0.152,0.214 0.332,0.103 0.433,-0.267 0.07,-2.111 -0.415,-2.111 -0.208,0 -0.276,0.383 -0.151,0.851 m -46.796,1.551 c -0.322,1.718 -0.394,9.275 -0.09,9.578 0.55,0.551 0.726,-0.469 0.91,-5.293 0.187,-4.914 -0.262,-7.261 -0.82,-4.285 m 48.169,2.135 c 0,1.194 0.145,1.846 0.378,1.702 0.208,-0.129 0.378,-0.895 0.378,-1.702 0,-0.807 -0.17,-1.573 -0.378,-1.701 -0.233,-0.144 -0.378,0.508 -0.378,1.701 m 4.276,1.323 c 0.002,1.248 0.073,1.713 0.157,1.033 0.084,-0.679 0.082,-1.7 -0.004,-2.268 -0.086,-0.568 -0.155,-0.012 -0.153,1.235 m -42.813,1.229 c -0.014,1.092 0.144,1.985 0.352,1.985 0.455,0 0.455,-2.155 0,-3.214 -0.239,-0.555 -0.332,-0.229 -0.352,1.229 m 37.187,1.769 c -0.142,0.565 -0.088,1.198 0.12,1.406 0.252,0.252 0.464,0.035 0.636,-0.65 0.142,-0.565 0.088,-1.197 -0.12,-1.405 -0.252,-0.252 -0.464,-0.036 -0.636,0.649 m -90.841,2.863 c 0.009,1.88 0.043,1.965 0.355,0.887 0.211,-0.73 0.207,-1.537 -0.01,-2.08 -0.285,-0.712 -0.354,-0.476 -0.345,1.193"
     id="path1" />
  <path
     style="fill:#ffffff;fill-rule:evenodd;stroke:none"
     inkscape:connector-curvature="0"
     d="m 202.05982,11.980848 c 1.311,0.705 6.042,1.994 8.383,2.283 1.387,0.172 2.719,0.433 2.959,0.582 0.241,0.148 1.653,0.552 3.138,0.897 2.851,0.663 2.994,0.794 4.067,3.734 0.382,1.048 0.632,1.229 1.7,1.229 1.267,0 2.047,0.992 1.489,1.895 -0.2,0.323 1.098,3.331 2.444,5.666 0.394,0.683 4.366,9.026 5.31,11.153 2.661,5.994 2.473,14.495 -0.359,16.245 -0.219,0.135 -0.398,1.27 -0.398,2.521 v 2.275 l -3.921,3.908 c -3.19,3.178 -3.972,4.177 -4.193,5.358 -0.149,0.798 -0.41,1.621 -0.579,1.829 -2.375,2.917 -2.916,6.011 -1.718,9.83 0.521,1.664 0.951,3.444 0.954,3.957 0.007,1.22 1.084,4.035 2.15,5.617 0.723,1.074 1.415,1.708 4.094,3.749 3.419,2.605 5.573,3.462 8.756,3.485 2.486,0.017 4.287,1.298 4.287,3.048002 0,0.387 0.15,0.797 0.334,0.911 0.184,0.114 0.449,1.017 0.589,2.007 0.14,0.991 0.342,2.1 0.449,2.467 0.321,1.102 3.124,2.259 6.173,2.548 3.065,0.29 5.406,2.074 5.903,4.498 0.111,0.541 0.441,1.494 0.734,2.118 2.114,4.505 2.874,10.021 1.579,11.453 -0.351,0.387 -0.638,1.034 -0.638,1.436 0,0.403 -0.34,1.367 -0.756,2.143 -0.416,0.776 -0.756,1.667 -0.756,1.981 0,0.313 -0.341,1.205 -0.757,1.981 -0.415,0.775 -0.756,1.861 -0.756,2.412 0,0.552 -0.254,1.49 -0.565,2.085 -0.771,1.48 -0.712,3.386 0.187,5.998 0.416,1.209 0.756,2.597 0.756,3.084 0,0.487 0.167,0.886 0.371,0.886 0.204,0 0.488,0.468 0.632,1.04 0.143,0.572 0.786,2.06 1.43,3.308 0.643,1.247 1.557,3.459 2.031,4.915 0.494,1.517 1.38,3.234 2.075,4.023 0.666,0.757 1.755,2.033 2.419,2.835 0.665,0.803 1.6,1.913 2.08,2.467 0.479,0.555 1.127,1.326 1.439,1.715 1.715,2.136 4.374,5.248 4.657,5.449 0.382,0.273 1.192,1.643 1.762,2.981 0.221,0.52 0.555,1.286 0.742,1.702 1.755,3.901 2.291,5.322 2.291,6.072 0,0.483 0.165,0.98 0.367,1.105 0.203,0.125 0.559,0.943 0.792,1.818 0.233,0.875 0.676,1.874 0.985,2.221 0.44,0.493 0.47,0.803 0.138,1.423 -0.697,1.301 -2.063,-0.041 -3.051,-2.998 -0.81,-2.423 -2,-5.367 -3.516,-8.696 -1.284,-2.818 -5.777,-8.951 -9.695,-13.233 -3.616,-3.952 -4.14,-4.677 -4.419,-6.113 -0.134,-0.692 -0.558,-1.665 -0.942,-2.161 -0.383,-0.495 -0.697,-1.113 -0.697,-1.371 0,-0.258 -0.239,-0.668 -0.53,-0.91 -0.292,-0.242 -0.646,-0.9 -0.787,-1.462 -0.141,-0.562 -0.45,-1.255 -0.687,-1.54 -0.475,-0.574 -1.081,-2.111 -2.178,-5.535 -0.82,-2.558 -1.009,-8.49 -0.327,-10.278 0.223,-0.585 0.547,-1.745 0.72,-2.577 0.485,-2.337 1.086,-3.953 3.189,-8.577 1.172,-2.579 1.215,-3.534 0.222,-5.033 -0.414,-0.624 -0.753,-1.477 -0.754,-1.896 -0.001,-0.419 -0.343,-1.397 -0.759,-2.173 -0.416,-0.776 -0.756,-1.689 -0.756,-2.029 0,-2.108 -2.369,-3.945 -5.738,-4.45 -2.833,-0.425 -2.775,0.555 0.224,3.735 1.978,2.096 2.622,3.506 1.732,3.789 -0.9,0.285 -2.085,-0.853 -4.329,-4.16 -0.988,-1.455 -2.007,-2.901 -2.264,-3.213 -0.257,-0.312 -0.863,-1.673 -1.345,-3.025 -0.482,-1.351 -1.09,-2.712 -1.35,-3.024 -0.26,-0.312 -0.591,-1.362 -0.734,-2.333 -0.45,-3.04 -2.732,-4.264002 -3.616,-1.939 -0.511,1.344 -0.396,4.992 0.211,6.697 0.29,0.813 0.734,2.685 0.986,4.158 0.253,1.474 0.603,2.841 0.78,3.039 0.509,0.57 0.372,2.098 -0.188,2.098 -0.869,0 -1.667,-1.249 -1.932,-3.025 -0.564,-3.771 -3.707,-11.72 -4.633,-11.72 -0.597,0 -2.325,2.548 -2.18,3.214 1.071,4.914 1.452,14.745 0.572,14.745 -0.884,0 -1.851,-5.682 -2.251,-13.229 -0.291,-5.487 -2.054,-5.821 -4.023,-0.762 -0.404,1.039 -0.786,2.002 -0.85,2.141 -0.063,0.138 0.401,0.556 1.03,0.928 1.055,0.623 1.098,0.727 0.551,1.332 -0.831,0.918 -0.822,3.148 0.017,4.075 1.375,1.519 1.256,6.082 -0.159,6.082 -0.799,0 -0.962,-0.456 -1.291,-3.592 -0.368,-3.512 -0.903,-5.689 -1.75,-7.126 -0.761,-1.289 -0.799,-1.583 -0.385,-2.965 0.579,-1.934 0.12,-2.525 -1.26,-1.621 -0.542,0.355 -0.985,0.841 -0.985,1.08 0,0.24 -0.341,1.07 -0.757,1.846 -0.937,1.749 -1.097,7.94 -0.236,9.174 0.286,0.411 0.631,1.512 0.768,2.447 0.434,2.983 2.708,9.94 3.622,11.082 0.198,0.247 1.128,1.385 2.068,2.529 3.616,4.4 5.499,6.937 5.499,7.407 0,0.641 1.346,2.981 2.806,4.88 1.124,1.461 1.795,2.688 3.002,5.482 1.604,3.715 2.509,6.081 2.509,6.559 0,0.293 0.255,0.744 0.567,1.003 0.312,0.259 0.567,0.854 0.567,1.323 0,0.469 0.251,1.061 0.558,1.315 0.306,0.254 0.665,1.083 0.798,1.842 0.133,0.759 0.456,1.724 0.718,2.144 0.263,0.421 0.603,1.527 0.757,2.458 0.154,0.931 0.402,1.863 0.552,2.071 0.149,0.208 0.735,2.25 1.302,4.537 0.567,2.287 1.268,5.094 1.558,6.238 0.29,1.144 0.624,2.814 0.743,3.713 0.118,0.898 0.447,2.004 0.731,2.457 0.284,0.454 0.627,1.455 0.762,2.226 0.135,0.771 0.493,1.877 0.796,2.458 0.303,0.58 0.552,1.432 0.553,1.893 0.001,0.461 0.238,1.397 0.526,2.08 0.288,0.682 0.894,2.262 1.346,3.51 0.452,1.247 1.056,2.778 1.342,3.402 0.286,0.624 0.988,2.154 1.561,3.4 0.572,1.246 1.189,2.437 1.371,2.647 0.181,0.209 0.617,0.829 0.968,1.378 5.685,8.885 12.199,16.205 14.42,16.205 0.634,0 1.153,-0.143 1.153,-0.317 0,-0.384 3.464,-3.754 6.238,-6.07 1.902,-1.587 2.209,-2.278 2.499,-5.626 0.158,-1.815 0.555,-5.341 0.882,-7.836 0.66,-5.026 0.487,-9.51 -0.439,-11.342 -0.482,-0.956 -0.59,-3.959 -0.683,-19.093 -0.086,-13.959 -0.242,-18.8 -0.7,-21.739 -0.325,-2.079 -0.595,-4.5 -0.602,-5.378 -0.007,-0.913 -0.336,-2.129 -0.767,-2.836 -0.415,-0.681 -0.755,-1.757 -0.756,-2.391 -0.001,-0.634 -0.168,-1.32 -0.373,-1.524 -0.204,-0.205 -0.617,-1.132 -0.918,-2.061 -0.853,-2.639 -1.719,-4.983 -2.319,-6.283 -0.303,-0.655 -0.55,-1.538 -0.55,-1.963 0,-0.424 -0.173,-0.878 -0.385,-1.009 -0.835,-0.516 -2.262,-3.996 -2.262,-5.515 0,-1.292 -0.721,-3.12 -1.761,-4.462 -0.064,-0.083 -1.013,0.767 -2.108,1.89 -2.854,2.928 -5.484,4.952 -6.242,4.806 -0.97,-0.186 -1.044,-1.424 -0.125,-2.068 1.117,-0.782 6.407,-5.379 7.775,-6.756 3.155,-3.175 8.676,-6.983 10.124,-6.983 1.185,0 1.232,1.136 0.085,2.051 -1.209,0.963 -1.127,2.39 0.202,3.528 1.534,1.313 1.045,3.966 -1.144,6.214 -1.994,2.047 -2.711,3.947 -1.05,2.784 0.462,-0.324 1.068,-0.588 1.347,-0.588 2.038,0 7.939,-8.817 7.466,-11.154 -0.127,-0.623 -0.395,-2.325 -0.596,-3.78 -1.638,-11.861002 -8.506,-16.420002 -17.186,-11.409002 -0.416,0.24 -2.203,0.543002 -3.97,0.675002 -10.733,0.796 -14.498,1.147 -16.127,1.504 -4.122,0.905 -4.289,0.899 -4.289,-0.134 0,-1.242 0.754,-1.813002 2.726,-2.063002 0.892,-0.114 1.837,-0.377 2.1,-0.585 0.263,-0.208 3.624,-0.464 7.468,-0.569 8.704,-0.239 8.271,0.02 8.443,-5.035 0.151,-4.444 0.643,-5.476 3.211,-6.747 2.594,-1.283 3.657,-0.324 4.598,4.145 0.932,4.43 1.005,4.528 3.344,4.528 4.036,0 10.076,4.38 10.076,7.307002 0,0.255 0.231,0.8 0.513,1.21 0.282,0.41 0.606,1.815 0.721,3.123 0.115,1.307 0.43,2.643 0.701,2.969 0.966,1.165 0.89,7.274 -0.115,9.094 -1.996,3.618 -8.375,9.69 -10.509,10.005 -1.996,0.295 -1.828,1.568 0.938,7.124 0.258,0.519 0.591,1.617 0.739,2.438 0.148,0.821 0.51,1.837 0.805,2.258 0.295,0.42 0.536,1.311 0.536,1.979 0,0.668 0.194,1.694 0.432,2.279 0.237,0.585 0.649,2.34 0.915,3.9 0.266,1.559 0.648,3.516 0.85,4.348 0.201,0.832 0.473,9.809 0.602,19.949 0.208,16.207 0.315,18.631 0.887,20.038 0.692,1.704 0.802,9.538 0.279,19.748 -0.215,4.184 -0.949,7.373 -1.698,7.373 -0.146,0 -1.972,1.697 -4.057,3.773 -6.032,6.002 -9.172,6.174 -13.175,0.721 -0.732,-0.998 -1.833,-2.236 -2.446,-2.752 -0.613,-0.516 -1.12,-1.161 -1.126,-1.435 -0.007,-0.32 -0.144,-0.269 -0.385,0.143 -0.426,0.73 0.092,6.266 0.747,7.986 0.223,0.586 0.411,1.691 0.418,2.458 0.006,0.766 0.261,1.723 0.567,2.127 0.799,1.057 0.778,7.664 -0.029,8.816 -0.816,1.166 -0.859,10.832 -0.052,11.758 0.297,0.341 0.643,1.726 0.768,3.077 0.125,1.352 0.403,3.734 0.618,5.293 0.214,1.56 0.542,5.411 0.729,8.559 0.208,3.503 0.536,6.07 0.848,6.616 0.819,1.439 0.694,23.729 -0.146,26.035 -0.341,0.936 -0.721,2.323 -0.844,3.081 -0.122,0.759 -0.474,1.588 -0.78,1.843 -0.306,0.254 -0.557,1.089 -0.557,1.856 0,0.766 -0.25,1.724 -0.555,2.127 -0.306,0.404 -0.561,1.316 -0.567,2.028 -0.007,0.711 -0.249,1.562 -0.537,1.89 -0.289,0.328 -0.987,1.49 -1.552,2.582 -0.565,1.091 -1.176,1.985 -1.358,1.985 -0.183,0 -0.435,0.412 -0.562,0.917 -0.127,0.505 -0.555,1.211 -0.952,1.571 -0.397,0.359 -0.722,0.841 -0.722,1.071 0,0.23 -0.417,0.867 -0.926,1.416 -0.509,0.549 -1.482,1.908 -2.162,3.021 -0.681,1.112 -1.62,2.591 -2.088,3.287 -0.468,0.695 -1.143,1.929 -1.502,2.741 -0.358,0.812 -0.789,1.477 -0.957,1.477 -0.168,0 -0.306,0.212 -0.307,0.472 -0.002,0.26 -0.247,0.941 -0.545,1.512 l -0.542,1.04 3.096,0.034 c 31.482,0.347 55.46001,1.392 55.46001,2.418 0,1.336 -1.194,1.406 -16.95601,0.989 -26.545,-0.702 -42.644,-0.656 -43.507,0.125 -0.738,0.668 -3.809,5.74 -3.809,6.291 0,0.581 3.349,0.696 32.505,1.116 32.54001,0.469 31.38901,0.4 31.38901,1.885 0,1.374 -0.435,1.454 -5.67101,1.046 -2.391,-0.186 -15.492,-0.48 -29.112,-0.653 -13.62,-0.173 -25.938,-0.443 -27.374,-0.601 -3.758,-0.412 -4.797,2.124 -2.871,7.01 0.415,1.055 0.756,2.316 0.756,2.803 0,0.487 0.26,1.509 0.579,2.271 0.694,1.663 0.49,2.109 -0.963,2.109 -0.975,0 -1.117,-0.154 -1.305,-1.418 -0.116,-0.779 -0.47,-2.222 -0.786,-3.205 -1.998,-6.211 -1.64,-10.116 1.393,-15.208 1.323,-2.22 3.1,-5.344 3.949,-6.942 0.849,-1.598 2.21,-3.926 3.024,-5.174 0.813,-1.247 1.697,-2.694 1.963,-3.213 0.866,-1.691 1.463,-2.627 2.175,-3.415 2.299,-2.54 0.383,-12.44 -3.224,-16.662 -0.312,-0.365 -0.738,-0.888 -0.947,-1.163 -2.567,-3.373 -7.695,-8.25 -8.676,-8.25 -0.126,0 -1.037,-0.638 -2.025,-1.418 -10.518,-8.303 -27.196,-7.715 -33.222,1.172 -0.585,0.863 -1.149,1.654 -1.254,1.758 -1.109,1.103 -3.781,8.531 -3.781,10.511 0,0.797 -0.24,2.289 -0.532,3.315 -0.292,1.025 -0.648,2.715 -0.791,3.755 -0.143,1.039 -0.409,2.07 -0.59,2.29 -1.162,1.415 -0.758,16.964 0.78,30.035 1.427,12.124 1.4,12.815 -0.48,12.343 -1.045,-0.262 -1.412,-1.395 -1.412,-4.359 0,-0.963 -0.181,-2.345 -0.403,-3.072 -0.221,-0.726 -0.519,-2.506 -0.661,-3.954 -0.493,-5.011 -4.482,-4.505 -5.197,0.658 -0.223,1.613 -0.607,3.134 -0.853,3.38 -0.246,0.247 -0.448,0.863 -0.448,1.371 0,0.507 -0.328,1.621 -0.73,2.476 -0.401,0.855 -0.83,2.022 -0.952,2.593 -0.244,1.142 -0.991,1.351 -1.713,0.481 -0.473,-0.57 0.062,-4.018 0.763,-4.923 0.161,-0.208 0.409,-1.229 0.55,-2.268 0.141,-1.04 0.486,-2.571 0.766,-3.403 0.28,-0.832 0.609,-2.648 0.731,-4.037 0.123,-1.388 0.475,-3.126 0.782,-3.863 0.308,-0.736 0.561,-1.812 0.562,-2.39 0.001,-0.579 0.256,-1.539 0.567,-2.135 0.311,-0.596 0.565,-1.5 0.565,-2.009 0,-0.945 1.081,-3.94 2.159,-5.982 0.57,-1.08 1.177,-3.84 2.037,-9.263 0.214,-1.351 0.622,-2.927 0.906,-3.502 0.283,-0.574 0.633,-2.02 0.777,-3.213 0.143,-1.193 0.512,-2.456 0.819,-2.807 0.845,-0.964 0.524,-13.619 -0.386,-15.241 -0.35,-0.624 -0.637,-1.422 -0.639,-1.774 -0.001,-0.352 -0.167,-0.741 -0.368,-0.865 -0.201,-0.124 -0.808,-1.113 -1.35,-2.196 -0.891,-1.782 -3.733,-5.576 -4.397,-5.87 -0.148,-0.065 -1.001,-0.701 -1.898,-1.414 -0.896,-0.712 -1.817,-1.297 -2.045,-1.299 -0.228,-0.002 -0.807,-0.344 -1.286,-0.76 -0.48,-0.416 -1.08,-0.756 -1.335,-0.756 -0.255,0 -0.664,-0.242 -0.909,-0.538 -0.246,-0.295 -1.16,-0.648 -2.031,-0.783 -0.872,-0.136 -2.156,-0.506 -2.854,-0.823 -1.847,-0.839 -14.633,-0.804 -16.274,0.045 -0.624,0.322 -1.498,0.587 -1.943,0.587 -0.444,0 -1.856,0.516 -3.137,1.146 -2.41,1.187 -2.806,1.413 -5.364,3.066 -2.695,1.741 -7.332,6.743 -7.891,8.513 -0.141,0.449 -0.506,1.023 -0.81,1.275 -0.304,0.253 -0.552,0.857 -0.552,1.344 0,0.486 -0.383,1.784 -0.851,2.883 -1.136,2.67 -1.235,22.397 -0.126,25.047 0.345,0.824 0.732,2.525 0.861,3.781 0.129,1.256 0.446,2.623 0.705,3.039 0.259,0.416 0.594,1.346 0.745,2.067 0.151,0.721 0.421,1.572 0.601,1.89 1.773,3.14 2.176,6.224 2.201,16.859 0.024,10.031 -0.225,11.708 -1.51,10.163 -0.423,-0.508 -0.574,-2.221 -0.664,-7.529 l -0.117,-6.872 -20.488,-0.513 c -11.268,-0.282 -20.936996,-0.49 -21.485996,-0.462 -1.472,0.074 -2.655,-1.303 -1.712,-1.992 0.788,-0.577 19.400996,-0.145 26.906996,0.624 0.416,0.043 4.371,0.047 8.79,0.01 l 8.034,-0.067 v -1.726 c 0,-0.95 -0.2,-2.098 -0.444,-2.552 -0.244,-0.455 -0.547,-1.33 -0.674,-1.946 -0.293,-1.424 -1.02,-1.63 -5.917,-1.678 -2.101,-0.021 -6.014,-0.217 -8.695,-0.436 -2.681,-0.219 -10.149,-0.517 -16.595,-0.662 -11.437996,-0.257 -11.722996,-0.282 -11.831996,-1.04 -0.261,-1.826 0.665,-2.009 8.239996,-1.628 3.847,0.193 12.609,0.388 19.471,0.433 l 12.476,0.082 0.118,-1.869 c 0.065,-1.027 -0.132,-2.559 -0.438,-3.402 -2.192,-6.047 -2.2,-26.961 -0.012,-34.779 0.286,-1.026 0.521,-2.493 0.521,-3.261 0,-0.768 0.255,-2.119 0.567,-3.003 0.312,-0.884 0.567,-2.395 0.567,-3.357 0,-0.962 0.341,-2.939 0.757,-4.394 0.415,-1.454 0.756,-3.074 0.756,-3.601 0,-0.526 0.23,-1.292 0.51,-1.702 0.281,-0.41 0.618,-1.55 0.748,-2.533 0.131,-0.984 0.407,-2.089 0.614,-2.458 0.207,-0.368 0.633,-1.265 0.946,-1.993 0.313,-0.728 0.735,-1.578 0.937,-1.89 0.739,-1.141 2.329,-5.478 3.058,-8.343 0.188,-0.741 0.603,-1.847 0.921,-2.457 0.318,-0.61 0.58,-1.567 0.581,-2.127 0.001,-0.56 0.16,-1.115 0.353,-1.234 0.193,-0.119 0.552,-0.852 0.799,-1.629 0.247,-0.777 1.297,-2.286 2.333,-3.353 2.805,-2.887 3.013,-3.452 1.844,-5.012 -1.339,-1.788 -1.519,-5.36 -0.438,-8.692 0.43,-1.327 0.782,-2.912 0.782,-3.522 0,-0.611 0.202,-1.482 0.448,-1.936 0.245,-0.454 0.574,-2.272 0.73,-4.039 0.156,-1.768 0.406,-4.55 0.556,-6.183 0.272,-2.969 -0.236,-10.644 -1.018,-15.367 -0.223,-1.352 -0.622,-4.67 -0.886,-7.373 -0.263,-2.703 -0.579,-5.17 -0.701,-5.482 -0.122,-0.312 -0.406,-2.609 -0.631,-5.104 -0.225,-2.495 -0.841,-6.578 -1.37,-9.074 -0.528,-2.495 -1.176,-5.644 -1.44,-6.998 -0.263,-1.353 -0.653,-2.799 -0.867,-3.213 -0.213,-0.414 -0.495,-1.453 -0.625,-2.309 -0.131,-0.857 -0.493,-2.048 -0.806,-2.647 -0.313,-0.599 -0.569,-1.478 -0.571,-1.953 -0.001,-0.474 -0.23,-1.41 -0.51,-2.079 -0.279,-0.669 -0.62,-1.812 -0.757,-2.54 -0.258,-1.366 -1.842,-5.501 -2.272,-5.932 -0.606,-0.605 -0.187,-3.049 0.762,-4.446 0.978,-1.439 1.007,-1.648 1.087,-7.743 0.215,-16.494 0.835,-30.856 1.406,-32.558 2.055,-6.118002 10.915,-13.895002 16.974,-14.897002 2.777,-0.459 3.395,-5.682 1.022,-8.645 -0.887,-1.108 -1.174,-1.873 -1.238,-3.298 -0.051,-1.143 -0.339,-2.138 -0.749,-2.591 -0.478,-0.529 -0.635,-1.231 -0.556,-2.501 0.113,-1.848 -0.867,-3.182 -2.352,-3.203 -1.288,-0.018 -1.855,-1.276 -1.855,-4.117 0,-2.982 -0.133,-2.703 3.686,-7.726 2.192,-2.882 2.651,-5.5 1.462,-8.345 -0.748,-1.791 -1.064,-5.406 -0.665,-7.608 0.52,-2.865 1.597,-6.761 1.981,-7.165 0.188,-0.197 0.341,-0.761 0.341,-1.252 0,-0.811 0.396,-1.8 2.72,-6.796 0.754,-1.62 0.691,-3.481 -0.154,-4.531 -0.51,-0.633 -1.01,-2.978 -0.721,-3.385 0.596,-0.843 3.361,-1.709 4.135,-1.294 1.323,0.708 2.542,0.465 4.268,-0.853 4.965,-3.789 5.577,-4.032 11.61,-4.614 5.99,-0.578 15.407,-0.691 16.328,-0.196 m -11.532,2.576 c -8.483,0.149 -9.011,0.259 -12.719,2.665 -4.59,2.978 -5.211,3.218 -7.737,2.982 -1.329,-0.125 -2.417,-0.157 -2.417,-0.073 0,0.688 1.811,2.944 2.859,3.563 0.715,0.422 1.3,0.943 1.3,1.158 0,0.578 -1.429,1.903 -2.052,1.903 -0.576,0 -2.211,3.203 -3.624,7.1 -0.474,1.306 -1.007,2.465 -1.184,2.574 -0.404,0.25 -0.419,10.761 -0.017,11.396 0.206,0.323 0.499,0.121 0.964,-0.667 1.888,-3.197 7.881,-3.306 10.164,-0.185 1.031,1.409 -0.576,3.349 -2.017,2.437 -0.656,-0.416 -4.142,-0.446 -4.778,-0.042 -0.76,0.482 0.563,1.334 3.928,2.53 5.07,1.801 6.757,3.968 3.09,3.968 -1.499,0 -3.524,1.002 -5.166,2.556 -0.787,0.744 -1.079,0.283 -1.353,-2.138 -0.154,-1.365 -0.554,-2.627 -1.021,-3.22 -0.487,-0.619 -0.679,-1.251 -0.526,-1.733 0.209,-0.658 0.069,-0.758 -1.061,-0.758 -1.412,0 -1.774,0.739 -1.774,3.615 0,1.815 -0.466,2.789 -2.44,5.1 -4.157,4.868 -4.938,9.089 -1.325,7.156 1.298,-0.695 3.545,0.518 2.965,1.601 -0.702,1.312 -0.693,4.777 0.015,5.642 0.552,0.673 4.121,1.552 5.12,1.26 0.215,-0.063 0.861,-0.217 1.436,-0.343 1.407,-0.309 0.746,-1.636 -2.394,-4.805 -2.393,-2.416 -3.125,-4.818 -1.642,-5.387 0.856,-0.328 0.993,-0.193 3.287,3.27 4.158,6.278 4.846,8.696 2.536,8.913 -0.726,0.069 -1.579,0.357 -1.895,0.642 -0.325,0.292 -1.637,0.567 -3.024,0.632 -2.589,0.121 -3.318,1.203 -1.652,2.45 0.986,0.738 1.591,3.113 1.381,5.424 -0.379,4.176 4.782,5.053 11.867,2.014 1.598,-0.685 2.016,-0.648 2.993,0.27 0.457,0.429 2.161,1.113 3.787,1.519 1.626,0.407 3.05,0.867 3.163,1.023 0.114,0.156 0.633,0.476 1.152,0.71 1.575,0.709 4.159,3.162 4.159,3.948 0,1.386 -1.809,1.228 -3.327,-0.29 -1.083,-1.083 -1.966,-0.623 -1.966,1.022 0,1.304 0.168,1.626 1.132,2.174 0.623,0.355 1.133,0.772 1.134,0.928 0.002,0.156 0.3,0.285 0.664,0.286 0.364,0.001 1.172,0.341 1.796,0.754002 1.065,0.705 1.809,0.752 12.098,0.77 7.741,0.013 11.354,0.157 12.288,0.489 1.061,0.378 1.51,0.376 2.268,-0.011 0.52,-0.264 1.286,-0.489 1.702,-0.499 0.415,-0.009 1.072,-0.257 1.46,-0.55 0.387,-0.294 1.628,-0.649002 2.758,-0.790002 2.341,-0.293 2.153,-1.041 -0.588,-2.342 -1.71,-0.811 -5.332,-4.43 -5.332,-5.328 0,-0.194 -0.686,-2.427 -1.524,-4.962 -1.227,-3.709 -1.511,-5.089 -1.456,-7.073 0.072,-2.63 -0.222,-3.128 -1.852,-3.139 -0.474,-0.003 -0.96,-0.261 -1.08,-0.573 -0.12,-0.312 -0.373,-0.567 -0.564,-0.567 -0.853,0 -3.34,-2.062 -3.687,-3.058 -0.551,-1.581 0.459,-1.471 3.781,0.412 3.688,2.089 3.759,2.05 5.365,-2.941 1.18,-3.666 1.004,-3.424 5.887,-8.14 1.495,-1.444 1.965,-2.203 2.284,-3.69 0.221,-1.03 0.803,-2.849 1.294,-4.042 2.025,-4.926 1.966,-9.448 -0.183,-14.066 -2.052,-4.41 -4.588,-9.709 -4.892,-10.222 -0.185,-0.312 -0.568,-1.077 -0.851,-1.702 -0.48,-1.059 -1.229,-1.871 -4.318,-4.683 -0.85,-0.774 -1.228,-1.458 -1.228,-2.223 0,-2.037 -3.864,-3.868 -8.164,-3.868 -1.61,0 -2.475,-0.175 -2.8,-0.567 -0.259,-0.312 -0.626,-0.567 -0.815,-0.567 -0.189,0 -0.976,-0.285 -1.75,-0.633 -2.282,-1.029 -4.377,-1.568 -5.186,-1.336 -0.416,0.119 -4.329,0.28 -8.696,0.357 m 14.431,0.105 c -0.815,0.011 0.676,0.739 1.524,0.745 0.458,0.003 0.999,0.303 1.202,0.667 0.431,0.771 7.607,1.272 7.607,0.532 0,-0.632 -0.45,-0.769 -4.563,-1.386 -2.147,-0.323 -3.989,-0.672 -4.093,-0.776 -0.104,-0.104 -0.424,-0.099 -0.712,0.012 -0.288,0.11 -0.722,0.203 -0.965,0.206 m -26.428,0.436 c 0.327,0.326 0.667,0.333 1.305,0.025 0.81,-0.39 0.783,-0.417 -0.442,-0.441 -0.994,-0.019 -1.199,0.079 -0.863,0.416 m -2.18,1.071 c -0.442,0.285 -0.338,0.368 0.472,0.372 0.572,0.003 1.04,-0.164 1.04,-0.372 0,-0.478 -0.773,-0.478 -1.512,0 m 39.842,1.206 c -0.153,0.248 -0.072,0.519 0.18,0.603 0.253,0.085 0.94,0.558 1.527,1.052 1.117,0.939 1.551,0.869 1.551,-0.251 0,-1.46 -2.545,-2.557 -3.258,-1.404 m -46.458,1.818 c 0.295,0.478 1.34,0.478 2.079,0 0.421,-0.272 0.196,-0.368 -0.873,-0.372 -0.865,-0.003 -1.347,0.145 -1.206,0.372 m 49.818,3.226 c 0.757,1.436 3.642,3.359 3.926,2.618 0.127,-0.331 0.038,-0.794 -0.197,-1.03 -0.236,-0.235 -0.428,-0.789 -0.428,-1.231 0,-0.61 -0.341,-0.892 -1.418,-1.173 -1.98,-0.518 -2.473,-0.304 -1.883,0.816 m -50.953,2.283 c 0,0.825 0.869,1.097 1.702,0.533 0.491,-0.333 0.467,-0.461 -0.174,-0.95 -0.916,-0.699 -1.528,-0.532 -1.528,0.417 m 6.593,1.228 c 2.883,3.231 4.772,9.142 2.922,9.142 -0.764,0 -1.038,-0.276 -1.403,-1.417 -0.653,-2.046 -1.797,-3.8 -2.653,-4.072 -1.485,-0.471 -2.469,-3.966 -1.413,-5.021 0.671,-0.672 0.778,-0.614 2.547,1.368 m -2.245,0.118 c 0,0.742 1.487,2.872 2.441,3.497 1.505,0.986 1.837,-0.737 0.35,-1.816 -0.596,-0.432 -1.34,-1.069 -1.653,-1.415 -0.679,-0.75 -1.138,-0.857 -1.138,-0.266 m 51.195,1.745 c 0.413,0.413 0.697,-0.244 0.4,-0.927 -0.281,-0.648 -0.301,-0.648 -0.458,0.013 -0.09,0.38 -0.064,0.791 0.058,0.914 m -47.036,4.633 c 0,0.624 0.17,1.134 0.378,1.134 0.208,0 0.378,-0.51 0.378,-1.134 0,-0.624 -0.17,-1.134 -0.378,-1.134 -0.208,0 -0.378,0.51 -0.378,1.134 m 8.317,6.645 c 1.976,1.555 3.922,3.076 4.326,3.38 0.536,0.404 0.807,1.241 1.009,3.109 0.152,1.406 0.544,3.066 0.871,3.69 0.327,0.624 0.596,1.608 0.597,2.187 0.002,0.579 0.24,1.43 0.53,1.891 0.29,0.46 0.646,1.858 0.791,3.105 0.7,6.029 5.678,7.535 6.292,1.905 0.29,-2.653 1.809,-4.314 3.111,-3.403 0.631,0.442 0.828,0.365 1.692,-0.661 2.753,-3.272 8.269,-3.281 9.565,-0.015 0.227,0.572 0.649,1.492 0.938,2.044 1.007,1.927 0.332,6.078 -1.297,7.978 -0.576,0.672 -0.824,1.065 -2.103,3.332 -0.391,0.693 -0.944,1.493 -1.229,1.778 -0.285,0.285 -0.523,0.718 -0.53,0.964 -0.019,0.726 -3.253,2.948 -4.898,3.366 -1.222,0.31 -1.76,0.752 -2.718,2.23 -0.657,1.014 -1.398,1.843 -1.647,1.843 -0.249,0 -0.885,0.341 -1.414,0.757 -1.109,0.872 -2.638,0.986 -3.254,0.243 -0.337,-0.405 -0.02,-0.797 1.515,-1.871 2.066,-1.446 3.326,-3.14 3.712,-4.989 0.224,-1.07 0.359,-1.145 2.415,-1.329 2.554,-0.229 4.292,-1.884 1.978,-1.884 -2.048,0 -2.96,-0.666 -2.727,-1.991 0.118,-0.673 0.349,-1.986 0.513,-2.919 0.458,-2.6 2.756,-2.507 2.756,0.111 0,2.954 2.273,3.399 4.133,0.809 3.856,-5.369 2.605,-9.883 -1.906,-6.876 -2.677,1.784 -3.207,1.874 -4.776,0.806 l -1.42,-0.966 -0.189,2.457 c -0.269,3.488 -0.965,4.032 -5.163,4.032 h -3.156 l -1.134,-2.4 c -0.623,-1.319 -1.139,-2.978 -1.147,-3.686 -0.007,-0.708 -0.256,-1.712 -0.553,-2.232 -0.298,-0.52 -0.547,-1.444 -0.554,-2.054 -0.008,-0.61 -0.373,-1.853 -0.813,-2.762 -0.44,-0.908 -0.92,-2.667 -1.066,-3.907 -0.27,-2.287 -1.132,-3.906 -2.488,-4.669 -3.492,-1.965 -6.139,-4.602 -5.719,-5.697 0.405,-1.057 1.549,-0.548 5.157,2.294 m -21.821,0.06 c 0.087,0.575 0.16,0.195 0.163,-0.845 0.003,-1.04 -0.068,-1.51 -0.158,-1.045 -0.089,0.465 -0.092,1.316 -0.005,1.89 m 19.235,0.1 c 0.461,0.624 1.147,1.134 1.523,1.134 1.001,0 0.837,-0.717 -0.26,-1.134 -0.52,-0.198 -0.945,-0.534 -0.945,-0.747 0,-0.213 -0.26,-0.387 -0.578,-0.387 -0.462,0 -0.409,0.229 0.26,1.134 m 47.961,2.763 c 0.007,1.538 0.561,2.537 0.832,1.502 0.267,-1.02 -0.103,-3.162 -0.502,-2.915 -0.185,0.114 -0.333,0.75 -0.33,1.413 m -68.476,3.787 c 1.274,4.194 1.403,11.219 0.205,11.219 -0.299,0 -0.544,0.341 -0.544,0.757 0,0.416 0.17,0.756 0.378,0.756 0.208,0 0.378,-0.144 0.378,-0.32 0,-0.177 0.306,-0.673 0.679,-1.103 1.022,-1.179 0.871,-13.217 -0.175,-13.982 -1.058,-0.774 -1.542,0.631 -0.921,2.673 m 5.097,0.821 c -1.053,1.441 -0.687,2.597 0.708,2.232 0.676,-0.177 2.575,-0.326 4.22,-0.331 3.073,-0.009 3.591,-0.278 2.727,-1.417 -1.201,-1.584 -6.601,-1.925 -7.655,-0.484 m 64.909,2.175 c 0.019,1.859 0.1,2.175 0.378,1.481 0.312,-0.78 0.105,-3.844 -0.261,-3.844 -0.077,0 -0.13,1.064 -0.117,2.363 m -42.746,-0.661 c 0,0.52 0.17,0.945 0.378,0.945 0.423,0 0.519,-1.246 0.126,-1.638 -0.416,-0.417 -0.504,-0.297 -0.504,0.693 m 1.623,4.438 c 0.091,0.47 0.168,0.174 0.172,-0.657 0.004,-0.832 -0.069,-1.217 -0.164,-0.856 -0.095,0.362 -0.098,1.042 -0.008,1.513 m 39.593,0.382 c -0.003,0.572 0.151,1.04 0.342,1.04 0.458,0 0.917,-2.129 0.578,-2.678 -0.378,-0.612 -0.913,0.34 -0.92,1.638 m -61.632,-0.913 c 0,0.173 0.128,0.44 0.284,0.593 0.156,0.153 0.458,0.974 0.671,1.824 0.509,2.029 1.335,2.556 2.723,1.738 0.576,-0.34 1.898,-0.745 2.937,-0.9 1.039,-0.155 1.635,-0.384 1.324,-0.508 -0.312,-0.125 -1.017,-0.533 -1.569,-0.908 -0.552,-0.374 -2.083,-0.999 -3.403,-1.389 -2.847,-0.84 -2.967,-0.858 -2.967,-0.45 m 37.834,1.372 c -1.829,0.946 -3.033,2.671 -2.71,3.882 0.392,1.464 1.279,1.488 3.454,0.092 1.891,-1.213 3.527,-1.389 5.373,-0.578 1.021,0.448 0.896,-1.951 -0.16,-3.074 -0.986,-1.05 -4.212,-1.224 -5.957,-0.322 m 22.445,6.134 c 0.532,1.38 1.059,-0.514 0.738,-2.647 l -0.296,-1.961 -0.353,1.962 c -0.194,1.079 -0.234,2.27 -0.089,2.646 m -37.048,0.412 c 0.447,0.448 0.731,-0.382 0.642,-1.884 -0.142,-2.404 -0.607,-2.627 -0.737,-0.353 -0.064,1.115 -0.021,2.121 0.095,2.237 m 8.14,-2.727 c -0.203,0.534 -0.369,1.586 -0.369,2.339 0,2.804 -3.938,4.452 -5.457,2.283 -0.765,-1.092 -1.645,-0.425 -1.008,0.764 0.785,1.468 4.934,1.535 6.802,0.11 0.777,-0.593 0.93,-1.095 1.09,-3.578 0.193,-3.007 -0.303,-3.905 -1.058,-1.918 m 13.932,2.188 c 0.343,0.709 0.395,0.619 0.407,-0.7 0.012,-1.258 -0.054,-1.395 -0.393,-0.812 -0.284,0.489 -0.288,0.945 -0.014,1.512 m -55.317,2.899 c 0.212,0.343 0.353,0.332 0.585,-0.044 0.399,-0.645 0.007,-1.278 -0.486,-0.786 -0.208,0.208 -0.252,0.582 -0.099,0.83 m 67.859,-0.241 c 0,0.288 -0.34,0.612 -0.756,0.721 -0.706,0.185 -1.098,1.032 -0.472,1.019 0.882,-0.018 2.722,-2.263 1.854,-2.263 -0.344,0 -0.626,0.236 -0.626,0.523 m -14.115,0.299 c -0.247,0.944 0.016,1.56 0.531,1.242 0.448,-0.277 0.463,-2.064 0.018,-2.064 -0.184,0 -0.431,0.37 -0.549,0.822 m -8.191,1.93 c 0,0.681 -0.278,1.636 -0.617,2.12 -0.752,1.073 -0.252,1.541 1.657,1.55 1.481,0.007 1.561,-0.545 0.255,-1.755 -0.786,-0.728 -0.926,-1.119 -0.726,-2.028 0.155,-0.707 0.095,-1.126 -0.161,-1.126 -0.224,0 -0.408,0.557 -0.408,1.239 m 19.282,0.493 c 0,0.668 0.814,0.552 1.047,-0.149 0.083,-0.247 -0.119,-0.449 -0.449,-0.449 -0.329,0 -0.598,0.269 -0.598,0.598 m -1.44,1.321 c 0.075,0.223 0.297,0.406 0.495,0.406 0.197,0 0.42,-0.183 0.494,-0.406 0.075,-0.224 -0.148,-0.407 -0.494,-0.407 -0.347,0 -0.57,0.183 -0.495,0.407 m -12.326,0.538 c -0.13,0.52 -0.447,0.953 -0.703,0.963 -0.256,0.01 -0.975,0.682 -1.599,1.495 -1.248,1.625 -2.907,2.384 -4.81,2.199 -1.114,-0.108 -1.252,-0.012 -1.362,0.952 -0.215,1.876 0.191,2.386 1.172,1.47 0.463,-0.431 1.351,-0.895 1.975,-1.031 2.397,-0.521 4.379,-2.032 4.956,-3.779 0.138,-0.416 0.384,-0.843 0.547,-0.949 0.482,-0.313 0.861,-2.265 0.439,-2.265 -0.208,0 -0.485,0.425 -0.615,0.945 m -42.945,0.186 c 0,0.39 0.34,0.817 0.756,0.949 0.416,0.132 0.756,0.483 0.756,0.781 0,0.298 0.267,0.542 0.593,0.542 0.769,0 0.371,-1.373 -0.731,-2.522 -0.875,-0.912 -1.374,-0.821 -1.374,0.25 m -9.298,0.944 c 0.142,0.564 0.679,1.159 1.274,1.412 0.567,0.24 1.484,0.848 2.039,1.352 1.338,1.213 1.826,0.811 1.826,-1.503 0,-1.811 -0.044,-1.897 -0.85,-1.639 -2.229,0.714 -3.232,0.665 -3.684,-0.179 -0.563,-1.052 -0.925,-0.718 -0.605,0.557 m 63.163,2.347 c 0.245,0.608 0.313,0.582 0.629,-0.238 0.491,-1.278 0.022,-2.433 -0.518,-1.275 -0.213,0.457 -0.263,1.137 -0.111,1.513 m -50.88,0.227 c 0.486,0.485 0.978,0.11 0.618,-0.471 -0.139,-0.225 -0.426,-0.302 -0.637,-0.172 -0.259,0.16 -0.252,0.371 0.019,0.643 m -8.506,2.798 c -0.221,1.176 -0.134,1.482 0.55,1.936 0.621,0.412 0.812,0.921 0.812,2.164 0,1.806 0.287,2.82 0.797,2.82 0.186,0 0.337,-0.408 0.337,-0.908 0,-0.53 0.543,-1.449 1.307,-2.213 l 1.306,-1.306 -1.536,-0.461 c -1.267,-0.379 -1.64,-0.721 -2.12,-1.945 -0.728,-1.854 -1.117,-1.877 -1.453,-0.087 m 38.413,2.996 c 0,0.287 -0.255,0.521 -0.567,0.521 -0.312,0 -0.567,0.17 -0.567,0.378 0,0.629 0.941,0.426 1.819,-0.393 0.86,-0.8 1.002,-1.197 0.579,-1.62 -0.341,-0.341 -1.264,0.473 -1.264,1.114 m 15.501,-0.613 c 0,0.208 0.638,0.366 1.418,0.352 1.137,-0.022 1.268,-0.091 0.662,-0.352 -1.051,-0.451 -2.08,-0.451 -2.08,0 m -49.676,10.728 c 0.174,2.682 0.402,3.992 0.678,3.894 0.229,-0.081 0.362,-0.47 0.295,-0.863 -0.067,-0.394 -0.105,-2.128 -0.085,-3.855 0.038,-3.237 -0.176,-4.191 -0.798,-3.57 -0.205,0.206 -0.243,2.026 -0.09,4.394 m 101.551,2.51 c 0.06,0.368 -0.2,1.012 -0.579,1.432 -0.669,0.74 -0.667,0.77 0.075,1.005 0.42,0.134 0.87,0.574 0.998,0.98 0.323,1.015 0.811,0.922 1.095,-0.209 0.214,-0.852 0.115,-1.761 -0.399,-3.667 -0.23,-0.851 -1.336,-0.424 -1.19,0.459 m -2.631,-0.901 c -0.468,0.125 -0.851,0.394 -0.851,0.596 0,0.203 -0.34,0.802 -0.756,1.331 -0.627,0.797 -0.756,1.533 -0.756,4.313 0,4.594 -0.259,4.841 -5.198,4.931 l -3.687,0.067 4.726,0.227 c 5.071,0.244 6.18,0.156 5.798,-0.463 -0.877,-1.418 -0.85,-8.594 0.033,-8.594 0.476,0 2.487,-1.928 2.487,-2.384 0,-0.32 -0.659,-0.329 -1.796,-0.024 m -87.315,1.425 c -1.622,0.5 -3.61,1.022 -4.417,1.161 -1.101,0.19 -1.359,0.36 -1.034,0.685 0.392,0.392 1.409,0.581 6.849,1.271 l 1.702,0.216 -0.895,-0.963 -0.895,-0.962 1.368,-0.572 c 1.341,-0.56 1.897,-1.744 0.819,-1.744 -0.301,0 -1.875,0.409 -3.497,0.908 m 7.077,1.348 c -0.418,0.265 -0.155,0.419 1.039,0.61 0.88,0.141 1.6,0.433 1.6,0.65 0,0.975 1.191,1.735 2.082,1.33 0.729,-0.333 1.1,-0.227 2.232,0.636 1.309,0.999 1.357,1.007 1.357,0.234 0,-0.542 -0.238,-0.801 -0.737,-0.801 -0.406,0 -0.895,-0.28 -1.087,-0.624 -0.74,-1.323 -5.333,-2.764 -6.486,-2.035 m 80.011,3.545 c 0.072,2.525 0.319,3.002 1.393,2.681 2.126,-0.635 2.472,-4.088 0.5,-4.99 -1.429,-0.654 -1.959,-0.008 -1.893,2.309 m -42.506,-2.081 c -0.225,0.674 2.718,3.464 3.653,3.464 0.967,0 1.061,-0.688 0.139,-1.014 -0.8,-0.283 -2.741,-2.282 -2.741,-2.822 0,-0.514 -0.857,-0.211 -1.051,0.372 m -40.443,-0.222 c 0.087,0.26 0.484,0.532 0.882,0.604 0.399,0.073 1.081,0.46 1.515,0.86 1.226,1.128 3.18,1.589 3.18,0.749 0,-0.943 -1.501,-2.219 -2.836,-2.41 -2.281,-0.327 -2.901,-0.283 -2.741,0.197 m -0.645,1.822 c 0.283,0.458 2.063,0.458 2.063,0 0,-0.368 -1.488,-0.735 -1.991,-0.492 -0.159,0.077 -0.192,0.298 -0.072,0.492 m -4.381,1.769 c -0.009,1.196 -0.17,2.855 -0.359,3.686 -0.189,0.832 -0.515,2.278002 -0.724,3.214002 -2.52,11.25 -6.551,17.163 -13.645,20.021 -1.144,0.46 -2.653,1.085 -3.355,1.389 -1.403,0.606 -5.667,1.244 -8.432,1.263 -3.241,0.021 -3.388,0.494 -3.228,10.382 0.146,9.055 0.679,12.722 2.046,14.089 6.645,6.645 11.813,5.329 20.236,-5.156 5.828,-7.255 7.081,-9.825 4.548,-9.331 -4.471,0.871 -9.611,0.657 -8.762,-0.366 0.243,-0.293 0.722,-0.533 1.063,-0.533 0.342,0 1.299,-0.364 2.128,-0.809 1.512,-0.812 15.186,-0.895 17.858,-0.109 1.598,0.47 0.957,1.231 -1.229,1.458 -1.143,0.119 -2.972,0.311 -4.064,0.428 -2.661,0.283 -3.723,1.255 -5.759,5.27 -2.57,5.071 -9.194,12.076 -14.373,15.201 -3.911,2.36 -7.951,1.389 -12.477,-2.998 -1.473,-1.428 -1.713,-0.62 -0.562,1.889 0.451,0.983 0.964,2.128 1.14,2.543 0.322,0.761 1.067,4.544 1.862,9.452 0.235,1.456 0.663,3.583 0.951,4.726 0.919,3.654 1.387,5.803 1.77,8.129 0.206,1.247 0.636,3.191 0.955,4.319 0.32,1.128 0.723,4.616 0.898,7.751 0.174,3.134 0.486,6.635 0.695,7.778 2.142,11.77 2.376,22.994 0.622,29.868 -3.304,12.954 -2.673,15.408 4.335,16.84 0.728,0.148 1.659,0.503 2.069,0.789 0.41,0.285 1.394,0.519 2.186,0.519 0.792,0 2.004,0.235 2.692,0.523 0.689,0.287 2.342,0.635 3.674,0.772 1.332,0.137 3.914,0.523 5.738,0.857 2.943,0.54 4.218,0.554 11.342,0.124 4.415,-0.266 15.853,-0.613 25.418,-0.772 10.726,-0.178 17.971,-0.451 18.904,-0.711 0.831,-0.232 4.489,-0.529 8.128,-0.659 3.985,-0.144 6.992,-0.423 7.561,-0.703 0.52,-0.255 1.577,-0.579 2.349,-0.719 7.604,-1.376 8.966,-4.78 6.367,-15.915 -0.89,-3.812 -1.84,-9.445 -2.152,-12.76 -0.132,-1.403 -0.375,-2.552 -0.539,-2.552 -0.785,0 -6.403,-11.278 -6.403,-12.855 0,-0.364 -0.255,-0.874 -0.567,-1.133 -0.312,-0.259 -0.572,-0.663 -0.579,-0.897 -0.006,-0.235 -0.43,-1.277 -0.941,-2.317 -0.512,-1.04 -0.932,-2.239 -0.934,-2.665 -0.002,-0.427 -0.143,-0.937 -0.314,-1.134 -0.171,-0.198 -0.785,-2.401 -1.366,-4.896 -0.58,-2.496 -1.291,-5.179 -1.58,-5.963 -0.288,-0.784 -0.525,-1.975 -0.526,-2.646 -0.001,-0.672 -0.258,-1.712 -0.571,-2.311 -0.312,-0.599 -0.675,-1.79 -0.805,-2.647 -0.131,-0.856 -0.407,-1.772 -0.615,-2.035 -0.207,-0.263 -0.596,-1.368 -0.863,-2.457 -0.267,-1.089 -0.659,-2.49 -0.872,-3.114 -1.381,-4.055 -2.792,-8.457 -2.969,-9.262 -0.114,-0.52 -0.42,-1.201 -0.68,-1.513 -0.26,-0.311 -0.598,-0.992 -0.751,-1.512 -0.154,-0.52 -0.494,-1.2 -0.757,-1.512 -0.262,-0.312 -0.606,-0.993 -0.763,-1.512 -0.157,-0.52 -0.814,-1.711 -1.459,-2.647 -0.646,-0.936 -1.573,-2.467 -2.061,-3.403 -0.488,-0.935 -1.212,-1.983 -1.61,-2.329 -0.397,-0.345 -0.723,-0.908 -0.723,-1.251 0,-0.343 -0.553,-1.372 -1.229,-2.287 -0.675,-0.915 -1.654,-2.266 -2.173,-3.003 -1.051,-1.488 -2.208,-1.977 -3.298,-1.394 -0.747,0.4 -2.605,0.343 -12.446,-0.38 -7.691,-0.565 -12.362,0.205 -11.183,1.844 0.266,0.369 0.575,0.927 0.688,1.239 0.569,1.581 6.174,4.539 9.669,5.103 0.9,0.145 2.43,0.517 3.4,0.827 3.197,1.021 9.793,0.557 12.749,-0.898 1.328,-0.653 2.655,-1.095 2.95,-0.982 0.938,0.36 0.42,2.106 -0.815,2.743 -0.616,0.319 -1.351,0.792 -1.633,1.052 -0.283,0.26 -0.884,0.474 -1.337,0.475 -0.453,0.001 -1.334,0.279 -1.958,0.618 -2.485,1.349 -9.195,0.752 -13.611,-1.21 -0.623,-0.278 -1.729,-0.673 -2.457,-0.88 -5.833,-1.652 -7.992,-3.262 -9.987,-7.445 -0.776,-1.627 -1.559,-2.181 -3.701,-2.617 -1.022,-0.208 -1.89,-0.548 -1.93,-0.756 -0.149,-0.781 8.149,-1.216 10.892,-0.572 1.566,0.369 20.894,-0.33 20.272,-0.732 -0.698,-0.451 -1.909,-3.416 -2.156,-5.278 -0.143,-1.082 -0.578,-2.588 -0.965,-3.349 -0.388,-0.76 -0.71,-1.814 -0.717,-2.342 -0.007,-0.527 -0.262,-1.29 -0.567,-1.693 -0.305,-0.404 -0.555,-1.371 -0.555,-2.149 0,-0.779 -0.179,-1.887 -0.398,-2.463 -0.801,-2.105 -0.384,-6.682 0.803,-8.832 2.663,-4.819 2.913,-4.657 -6.643,-4.313 -10.383,0.373 -15.312,0.059 -15.312,-0.977 0,-0.164 -0.383,-0.395 -0.852,-0.513 -0.468,-0.117 -1.786,-1.043 -2.93,-2.056002 -1.967,-1.744 -7.086,-4.995 -7.864,-4.995 -0.198,0 -0.572,-0.256 -0.831,-0.568 -0.258,-0.311 -1.045,-0.567 -1.747,-0.567 h -1.277 l -0.017,2.174 m -20.177,-1.848 c -0.111,0.179 -0.104,0.422 0.014,0.541 0.295,0.295 1.276,-0.112 1.276,-0.529 0,-0.432 -1.025,-0.442 -1.29,-0.012 m 112.486,1.811 c -0.656,1.441 -0.088,1.849 1.924,1.384 1.368,-0.316 1.506,-0.426 0.869,-0.694 -0.416,-0.176 -0.979,-0.628 -1.25,-1.006 -0.672,-0.933 -1.005,-0.864 -1.543,0.316 m -82.462,0.923 c 0,0.228 0.34,0.503 0.756,0.612 0.416,0.108 0.756,0.348 0.756,0.531 0,0.184 0.147,0.334 0.326,0.334 0.179,0 0.244,-0.425 0.145,-0.945 -0.184,-0.963 -1.983,-1.445 -1.983,-0.532 m 42.722,1.313 c 0,0.118 0.172,0.536 0.383,0.929 0.482,0.902 -0.485,1.504002 -2.415,1.504002 -1.677,0 -1.955,0.44 -0.887,1.401 1.256,1.129 2.061,1.293 2.784,0.567 0.987,-0.99 3.777,-1.956 4.259,-1.474 0.468,0.468 0.609,0.358 0.945,-0.737002 0.221,-0.72 0.037,-0.861 -1.655,-1.267 -1.047,-0.251 -1.999,-0.61 -2.114,-0.797 -0.229,-0.37 -1.3,-0.474 -1.3,-0.126 m 49.527,1.276 c 0,0.511 0.689,0.865 1.141,0.586 0.211,-0.131 0.286,-0.396 0.166,-0.59 -0.283,-0.459 -1.307,-0.456 -1.307,0.004 m -87.832,1.567002 c 0.516,0.516 2.1,0.578 2.274,0.09 0.092,-0.257 -0.291,-0.503 -0.903,-0.581 -1.26,-0.161002 -1.821,0.04 -1.371,0.491 m 89.417,-0.004 c 0.074,0.224 0.297,0.407 0.495,0.407 0.197,0 0.42,-0.183 0.494,-0.407 0.075,-0.223 -0.148,-0.406 -0.494,-0.406 -0.347,0 -0.57,0.183 -0.495,0.406 m -37.288,-0.068 c -0.337,0.544 0.861,0.814 2.471,0.557 2.267,-0.363 2.158,-0.895 -0.182,-0.895 -1.144,0 -2.174,0.152 -2.289,0.338 m -93.597,0.229 c 0,0.312 0.17,0.567 0.378,0.567 0.208,0 0.378,-0.255 0.378,-0.567 0,-0.312 -0.17,-0.567 -0.378,-0.567 -0.208,0 -0.378,0.255 -0.378,0.567 m 89.608,1.039 c 0.004,0.676 0.171,1.484 0.373,1.796 0.265,0.41 0.368,0.07 0.372,-1.228 0.003,-0.988 -0.164,-1.796 -0.372,-1.796 -0.208,0 -0.376,0.553 -0.373,1.228 m -17.208,0.284 c -1.334,0.884 -2.277,0.944 -3.64,0.233 -1.64,-0.856 -25.077,-1.018 -23.604,-0.163 0.518,0.301 3.452,0.359 10.019,0.2 11.383,-0.275 12.265,-0.164 12.432,1.565 0.11,1.149 0.176,1.209 0.756,0.692 0.594,-0.53 1.553,-0.781 2.594,-0.68 0.246,0.024 0.557,0.389 0.691,0.812 0.224,0.706 0.312,0.668 1.079,-0.473 0.46,-0.682 1.297,-1.463 1.861,-1.734 0.565,-0.271 1.026,-0.654 1.026,-0.851 0,-0.63 -2.042,-0.377 -3.214,0.399 m -73.78,0.378 c -0.125,0.624 -0.441,1.134 -0.703,1.134 -0.584,0 -0.955,1.257 -0.56,1.897 0.428,0.693 1.13,0.087 1.13,-0.974 0,-0.507 0.165,-0.923 0.365,-0.923 0.506,0 1.233,-1.446 0.954,-1.898 -0.435,-0.704 -0.96,-0.366 -1.186,0.764 m 83.975,0.4 c -0.394,0.637 0.163,2.247 0.777,2.247 0.362,0 0.56,-0.378 0.56,-1.072 0,-1.462 -0.752,-2.122 -1.337,-1.175 m -16.341,4.188 0.155,0.894 0.399,-0.945 c 0.442,-1.045 0.232,-1.785 -0.342,-1.211 -0.202,0.202 -0.298,0.77 -0.212,1.262 m 67.583,0.516 c 0,0.936 0.17,1.701 0.378,1.701 0.421,0 0.489,-1.248 0.14,-2.552 -0.349,-1.3 -0.518,-1.022 -0.518,0.851 m -69.03,3.446 c -0.246,3.245 -0.246,3.255 0.112,6.006 l 0.295,2.268 0.19,-2.457 c 0.21,-2.699 0.046,-8.866 -0.227,-8.592 -0.095,0.094 -0.261,1.343 -0.37,2.775 m 27.591,-1.903 c 0.126,0.329 0.229,0.749 0.229,0.932 0,0.68 1.528,1.196 2.111,0.713 0.362,-0.301 1.321,-0.386 2.811,-0.251 1.244,0.113 2.357,0.051 2.473,-0.137 0.118,-0.191 -0.925,-0.346 -2.363,-0.351 -1.972,-0.006 -2.796,-0.181 -3.519,-0.748 -1.159,-0.906 -2.061,-0.988 -1.742,-0.158 m -20.687,1.519 c 0.145,0.379 0.351,0.452 0.593,0.21 0.433,-0.433 0.014,-1.303 -0.48,-0.998 -0.185,0.114 -0.236,0.469 -0.113,0.788 m 63.26,4.121 c 0,1.352 0.152,2.458 0.338,2.458 0.723,0 1.036,-2.281 0.558,-4.064 -0.44,-1.643 -0.896,-0.826 -0.896,1.606 m -11.767,0.097 c -4.131,2.746 -4.951,3.58 -4.801,4.887 0.165,1.438 1.665,1.72 2.165,0.407 0.456,-1.199 2.899,-3.311 3.83,-3.311 0.598,0 0.743,-0.26 0.743,-1.323 0,-1.498 -0.447,-1.65 -1.937,-0.66 m -19.495,1.132 c 0.095,0.364 0.173,0.066 0.173,-0.661 0,-0.728 -0.078,-1.026 -0.173,-0.662 -0.095,0.364 -0.095,0.959 0,1.323 m -30.73,2.363 c 0,0.52 0.165,1.201 0.367,1.512 0.261,0.404 0.366,-0.031 0.366,-1.512 0,-1.48 -0.105,-1.916 -0.366,-1.512 -0.202,0.312 -0.367,0.992 -0.367,1.512 m 31.747,0.567 c 0,0.496 0.17,1.006 0.378,1.134 0.225,0.14 0.378,-0.318 0.378,-1.134 0,-0.815 -0.153,-1.273 -0.378,-1.134 -0.208,0.129 -0.378,0.639 -0.378,1.134 m 21.928,0.026 c 0,1.748 -4.283,4.318 -5.569,3.342 -1.164,-0.883 -1.345,-0.593 -1.145,1.831 0.156,1.89 0.924,4.404 1.695,5.546 0.059,0.088 0.522,-0.231 1.03,-0.708 0.778,-0.731 0.843,-0.949 0.411,-1.382 -0.707,-0.706 -0.299,-1.96 0.885,-2.724 2.24,-1.448 4.054,-4.409 3.66,-5.978 -0.24,-0.957 -0.967,-0.902 -0.967,0.073 m -4.086,0.029 c -1.321,1.094 -1.673,2.781 -0.581,2.781 1.109,0 3.154,-1.851 3.154,-2.855 0,-1.242 -1.02,-1.213 -2.573,0.074 m -33.48,1.458 c 0.12,0.311 0.112,0.841 -0.016,1.176 -0.288,0.75 -1.172,0.15 -1.472,-1 -0.238,-0.908 1.144,-1.072 1.488,-0.176 m -23.089,1.892 c 0.294,1.572 0.773,2 1.096,0.981 0.217,-0.683 -0.043,-2.456 -0.47,-3.206 -0.398,-0.698 -0.864,0.957 -0.626,2.225 m -69.663,1.605 c 0.096,0.364 0.173,0.066 0.173,-0.662 0,-0.728 -0.077,-1.025 -0.173,-0.662 -0.095,0.364 -0.095,0.96 0,1.324 m 78.527,0.291 c 0.643,1.042 0.741,1.476 0.408,1.81 -0.77,0.77 -2.493,-0.493 -2.493,-1.827 0,-1.654 1.058,-1.645 2.085,0.017 m 6.723,0.119 c 1.111,0.906 1.186,1.086 0.722,1.722 -0.665,0.908 -2.658,0.115 -2.837,-1.129 -0.207,-1.443 0.747,-1.711 2.115,-0.593 m -85.891,12.057 c -0.083,7.518 -0.13,7.983 -0.916,8.982 -1.419,1.805 -0.83,6.816 0.688,5.856 0.812,-0.514 3.398,-0.457 3.398,0.073 0,0.243 0.093,0.348 0.207,0.235 0.114,-0.114 -0.145,-0.881 -0.574,-1.705 -1.438,-2.758 -1.887,-6.19 -1.894,-14.453 -0.005,-5.523 -0.123,-7.615 -0.414,-7.324 -0.259,0.259 -0.439,3.291 -0.495,8.336 m 73.4,-4.988 c 0.444,0.793 0.959,0.151 0.61,-0.76 -0.156,-0.405 -0.37,-0.497 -0.608,-0.259 -0.236,0.236 -0.237,0.599 -0.002,1.019 m -42.971,2.729 c 0.051,0.894 0.634,2.673 0.681,2.079 0.021,-0.26 0.255,-0.473 0.521,-0.473 0.265,0 0.93,-0.51 1.478,-1.134 l 0.995,-1.134 h -1.856 c -1.53,0 -1.85,0.116 -1.819,0.662 m 16.42,0.831 c -0.122,0.198 0.122,0.543 0.541,0.767 0.419,0.225 0.868,0.829 0.997,1.343 0.329,1.313 0.908,1.163 0.908,-0.236 0,-0.893 0.201,-1.223 0.851,-1.396 0.848,-0.226 0.848,-0.228 -0.095,-0.494 -1.408,-0.398 -2.95,-0.39 -3.202,0.016 m 31.773,2.623 c -0.114,0.184 0.046,0.545 0.356,0.802 0.468,0.389 0.563,0.333 0.563,-0.335 0,-0.811 -0.537,-1.084 -0.919,-0.467 m 52.741,5.997 c 0.021,1.08 0.097,1.239 0.32,0.668 0.27,-0.692 0.136,-2.085 -0.201,-2.085 -0.08,0 -0.133,0.638 -0.119,1.417 m -106.536,1.135 c -0.137,0.364 -0.495,0.846 -0.797,1.072 -0.301,0.226 -0.466,0.652 -0.365,0.945 0.131,0.386 0.514,0.181 1.374,-0.733 0.655,-0.696 1.096,-1.42 0.981,-1.606 -0.339,-0.549 -0.926,-0.391 -1.193,0.322 m 52.446,0.094 c 0,0.208 0.245,0.378 0.544,0.378 0.3,0 0.65,-0.17 0.779,-0.378 0.128,-0.208 -0.117,-0.378 -0.545,-0.378 -0.428,0 -0.778,0.17 -0.778,0.378 m -15.49,0.742 c -1.776,1.122 6.81,2.137 11.52,1.361 2.751,-0.453 3.213,-0.601 3.213,-1.025 0,-0.469 -5.33,-0.094 -5.668,0.399 -0.448,0.654 -1.667,0.755 -2.778,0.232 -0.657,-0.309 -2.13,-0.715 -3.274,-0.902 -1.144,-0.187 -2.164,-0.358 -2.268,-0.379 -0.104,-0.021 -0.44,0.12 -0.745,0.314 m 23.303,2.651 c 0.691,1.499 1.043,1.801 1.409,1.21 0.366,-0.593 -0.22,-1.887 -0.94,-2.075 -0.396,-0.104 -0.734,-0.502 -0.751,-0.886 -0.017,-0.397 -0.112,-0.493 -0.22,-0.225 -0.105,0.26 0.121,1.149 0.502,1.976 m 22.746,4.196 c 0.284,0.768 0.34,0.784 0.576,0.169 0.383,-0.998 -0.107,-2.419 -0.557,-1.615 -0.183,0.328 -0.191,0.978 -0.019,1.446 m -20.574,-0.502 c 0.407,0.407 0.622,-0.163 0.337,-0.889 -0.268,-0.681 -0.288,-0.683 -0.42,-0.025 -0.077,0.381 -0.039,0.792 0.083,0.914 m -86.538,5.011 c 0.356,1.56 0.958,3.602 1.337,4.537 0.379,0.936 0.793,2.344 0.921,3.13 0.294,1.819 0.949,1.46 0.949,-0.521 0,-1.979 -1.056,-7.081 -1.713,-8.28 -0.69,-1.256 -1.187,-2.294 -1.542,-3.213 -0.633,-1.64 -0.598,1.52 0.048,4.347 m 4.836,-3.32 c 1.579,1.58 3.609,2.564 5.285,2.564 1.799,0 5.562,-1.424 5.562,-2.105 0,-0.249 0.383,-0.576 0.851,-0.726 0.769,-0.247 0.783,-0.291 0.139,-0.46 -0.391,-0.102 -0.816,-0.027 -0.945,0.167 -1.077,1.625 -7.191,1.688 -10.143,0.105 -1.705,-0.913 -1.961,-0.757 -0.749,0.455 m 103.475,0.841 c 0,0.507 0.15,1.016 0.335,1.13 0.386,0.239 0.752,-0.88 0.517,-1.581 -0.276,-0.818 -0.852,-0.513 -0.852,0.451 m -16.337,10.161 c -0.092,0.483 -0.039,1.206 0.118,1.607 0.203,0.517 0.294,0.26 0.313,-0.876 0.029,-1.764 -0.169,-2.1 -0.431,-0.731 m 1.566,6.433 c 0.286,0.286 0.404,-0.04 0.404,-1.121 0,-1.984 -0.532,-2.519 -0.688,-0.692 -0.066,0.775 0.062,1.59 0.284,1.813 m -88.336,5.067 c 0.087,0.575 0.16,0.195 0.163,-0.845 0.003,-1.04 -0.068,-1.51 -0.158,-1.045 -0.09,0.465 -0.092,1.316 -0.005,1.89 m 118.516,1.057 c 0.451,0.807 1.035,0.077 0.68,-0.849 -0.167,-0.435 -0.352,-0.495 -0.64,-0.208 -0.268,0.268 -0.282,0.626 -0.04,1.057 m -117.462,4.642 c 0.056,2.146 0.675,2.607 0.703,0.522 0.016,-1.247 -0.117,-1.918 -0.352,-1.773 -0.208,0.128 -0.366,0.691 -0.351,1.251 m 1.243,10.799 c 0.337,6.264 1,6.663 0.993,0.596 -0.005,-5.306 -0.244,-6.921 -0.861,-5.82 -0.232,0.415 -0.283,2.422 -0.132,5.224 m 126.121,0.747 c 0.278,0.278 0.397,-0.241 0.397,-1.726 0,-3.147 -0.543,-4.016 -0.681,-1.091 -0.063,1.349 0.062,2.595 0.284,2.817 m -33.629,0.972 c 0,1.408 0.361,2.354 0.796,2.085 0.387,-0.239 0.449,-1.705 0.109,-2.591 -0.375,-0.977 -0.905,-0.681 -0.905,0.506 m -91.11,8.765 c -0.009,2.834 0.453,6.383 0.804,6.167 0.382,-0.236 0.431,-4.57 0.081,-7.126 -0.301,-2.19 -0.876,-1.566 -0.885,0.959 m 126.004,5.727 c 0.09,0.468 0.164,0.085 0.164,-0.851 0,-0.936 -0.074,-1.318 -0.164,-0.851 -0.09,0.468 -0.09,1.234 0,1.702 m -26.576,3.664 c 0,0.403 0.17,0.839 0.378,0.967 0.214,0.133 0.378,-0.185 0.378,-0.734 0,-0.532 -0.17,-0.967 -0.378,-0.967 -0.208,0 -0.378,0.33 -0.378,0.734 m 1.658,3.666 c 0.361,3.065 1.23,4.452 2.216,3.533 0.863,-0.804 0.731,-1.409 -0.846,-3.896 -1.451,-2.288 -1.674,-2.229 -1.37,0.363 m -99.096,2.5 c 0.083,0.675 0.152,0.123 0.152,-1.229 0,-1.352 -0.069,-1.905 -0.152,-1.229 -0.084,0.676 -0.084,1.782 0,2.458 m 122.224,-0.239 c -0.275,1.096 -0.093,1.483 0.519,1.105 0.487,-0.301 0.543,-2.095 0.066,-2.095 -0.185,0 -0.449,0.445 -0.585,0.99 m -1.346,1.845 c -0.385,0.465 -0.36,0.568 0.143,0.568 0.337,0 0.613,-0.256 0.613,-0.568 0,-0.311 -0.064,-0.567 -0.143,-0.567 -0.078,0 -0.354,0.256 -0.613,0.567 m -2.399,2.152 c -1.406,0.977 -4.406,3.872 -4.406,4.251 0,0.433 1.676,-0.22 2.003,-0.781 0.167,-0.285 0.473,-0.518 0.68,-0.518 0.504,0 2.205,-1.955 2.22,-2.552 0.006,-0.259 0.267,-0.472 0.579,-0.472 0.312,0 0.567,-0.17 0.567,-0.378 0,-0.558 -0.318,-0.47 -1.643,0.45 m -17.913,2.662 c 0.084,0.68 0.155,0.215 0.157,-1.033 0.002,-1.247 -0.067,-1.803 -0.153,-1.235 -0.086,0.568 -0.088,1.589 -0.004,2.268 m 6.006,-0.655 c 1.017,1.072 1.452,1.186 1.452,0.378 0,-0.312 -0.256,-0.567 -0.568,-0.567 -0.311,0 -0.567,-0.241 -0.567,-0.535 0,-0.295 -0.212,-0.61 -0.472,-0.7 -0.837,-0.29 -0.754,0.465 0.155,1.424 m -108.24,5.651 c 0.176,0.729 0.18,0.729 0.466,0 0.38,-0.971 0.416,-4.083 0.057,-4.958 -0.328,-0.802 -0.81,3.769 -0.523,4.958 m -1.456,4.652 c 0.005,0.81 0.087,0.914 0.373,0.472 0.478,-0.739 0.478,-1.512 0,-1.512 -0.208,0 -0.376,0.468 -0.373,1.04 m 106.34,4.915 c 0.087,0.571 0.157,0.104 0.157,-1.04 0,-1.144 -0.07,-1.612 -0.157,-1.04 -0.087,0.572 -0.087,1.508 0,2.08 m -105.814,4.841 c 1.046,0.765 -0.043,3.285 -2.308,5.34 -1.524,1.382 -1.392,2.477 0.153,1.262 0.814,-0.641 1.532,-0.763 4.479,-0.763 4.009,0 4.706,-0.174 4.706,-1.174 0,-0.625 0.326,-0.726 2.552,-0.79 l 2.552,-0.074 -2.512,-0.132 c -2.082,-0.108 -2.544,-0.253 -2.699,-0.846 -0.127,-0.485 -0.656,-0.79 -1.647,-0.949 -0.803,-0.129 -1.715,-0.401 -2.027,-0.606 -0.312,-0.204 -1.031,-0.571 -1.597,-0.815 -0.567,-0.244 -1.232,-0.961 -1.479,-1.593 -0.44,-1.13 -0.451,-1.134 -0.612,-0.225 -0.101,0.564 0.07,1.095 0.439,1.365 m 100.792,1.134 c -0.312,0.246 -1.305,0.54 -2.205,0.654 -1.861,0.235 -2.266,0.488 -1.695,1.059 0.512,0.512 2.996,0.061 3.735,-0.677 0.397,-0.398 0.97,-0.484 2.026,-0.305 1.304,0.22 1.504,0.151 1.743,-0.601 0.622,-1.962 -1.194,-2.027 -3.604,-0.13 m -97.354,1.706 c 0.416,0.165 1.299,0.312 1.963,0.326 2.984,0.066 1.103,1.539 -1.965,1.539 -1.747,0 -2.22,-0.321 -1.86,-1.26 0.291,-0.76 0.939,-0.97 1.862,-0.605 m 96.409,0.559 c -0.624,0.134 -1.645,0.459 -2.269,0.723 -1.06,0.449 -3.893,0.765 -15.69,1.75 -2.599,0.217 -11.446,0.557 -19.66,0.755 -8.213,0.198 -20.037,0.501 -26.276,0.674 -12.372,0.343 -16.391,0.021 -24.574,-1.97 -2.293,-0.557 -3.105,-0.431 -3.411,0.532 -0.209,0.66 -0.606,0.732 -4.006,0.732 -3.907,0 -5.763,0.523 -6.562,1.847 -0.682,1.131 -2.084,4.76 -2.32,6.003 -0.128,0.678 -0.384,1.326 -0.568,1.44 -0.185,0.114 -0.336,0.512 -0.336,0.884 0,0.373 -0.425,1.478 -0.945,2.455 -0.52,0.978 -0.945,2.115 -0.945,2.526 0,0.411 -0.255,0.846 -0.567,0.966 -0.312,0.119 -0.567,0.59 -0.567,1.046 0,0.456 -0.204,1.033 -0.452,1.282 -0.502,0.502 -2.203,6.648 -3.369,12.175 -0.241,1.144 -0.756,3.058 -1.144,4.255 -1.406,4.333 -0.873,6.533 1.054,4.346 1.589,-1.803 6.514,-5.675 8.259,-6.492 0.831,-0.389 1.852,-0.884 2.268,-1.099 7.424,-3.839 24.103,-3.237 30.521,1.102 2.916,1.971 6.516,4.936 7.286,6.001 0.416,0.574 1.005,1.304 1.308,1.622 0.303,0.317 1.418,1.894 2.478,3.505 l 1.926,2.928 0.993,-3.075 c 3.385,-10.486 3.257,-12.548 -0.935,-14.958 -1.51,-0.869 -3,-1.737 -3.312,-1.93 -1.411,-0.871 -4.568,-2.269 -6.943,-3.075 -2.623,-0.89 -3.435,-1.625 -2.47,-2.236 0.916,-0.58 2.308,-0.36 6.199,0.978 l 3.781,1.299 0.658,-0.839 0.659,-0.838 2.748,2.835 c 4.027,4.155 3.726,4.007 5.642,2.772 2.572,-1.659 3.084,-1.957 4.093,-2.378 0.519,-0.217 1.265,-0.58 1.656,-0.807 0.987,-0.571 3.468,-1.458 5.716,-2.043 1.04,-0.27 2.401,-0.664 3.024,-0.874 6.272,-2.116 8.757,-2.402 9.008,-1.037 0.081,0.439 -3.942,1.916 -6.216,2.282 -0.912,0.147 -2.034,0.506 -2.495,0.798 -0.46,0.292 -1.037,0.531 -1.281,0.531 -0.463,0 -2.921,1.063 -5.329,2.304 -0.769,0.396 -1.737,0.721 -2.151,0.721 -0.415,0 -0.859,0.17 -0.987,0.378 -0.149,0.239 0.854,0.378 2.741,0.378 5.401,0 5.559,1.409 0.253,2.274 -1.439,0.234 -3.231,0.584 -3.983,0.777 -0.752,0.193 -1.688,0.357 -2.08,0.364 -1.239,0.022 -2.308,1.269 -2.602,3.036 -0.378,2.275 -1.618,7.174 -2.051,8.104 -0.747,1.604 -1.919,5.529 -1.919,6.429 0,0.924 0.029,0.914 1.468,-0.474 3.341,-3.227 4.831,-4.373 7.047,-5.419 1.283,-0.607 2.534,-1.103 2.779,-1.103 0.245,0 1.413,-0.34 2.596,-0.756 2.513,-0.883 6.459,-1.001 7.962,-0.238 0.562,0.285 1.872,0.64 2.912,0.79 1.039,0.149 2.145,0.489 2.457,0.754 0.312,0.265 1.207,0.58 1.989,0.699 3.654,0.558 12.105,5.851 16.08,10.072 3.432,3.643 4.237,4.557 4.237,4.807 0,0.143 0.234,0.527 0.52,0.856 1.004,1.152 3.252,5.809 3.873,8.022 0.94,3.349 1.913,3.177 3.922,-0.694 0.519,-0.999 1.126,-2.072 1.35,-2.384 4.171,-5.812 5.335,-23.402 2.8,-42.311 -0.207,-1.542 -0.481,-5.625 -0.608,-9.074 -0.312,-8.415 -1.798,-11.831 -4.132,-9.496 -0.721,0.721 -2.054,-0.006 -2.054,-1.121 0,-0.826 0.257,-1.145 1.229,-1.53 2.631,-1.041 3.968,-4.719 1.445,-3.975 -0.327,0.096 -1.105,0.284 -1.728,0.417 m -14.865,0.367 c 0.379,0.38 6.573,0.541 8.437,0.219 1.529,-0.263 0.885,-0.334 -3.371,-0.37 -2.894,-0.024 -5.173,0.044 -5.066,0.151 m -82.394,0.065 c 0.363,0.095 0.959,0.095 1.323,0 0.364,-0.095 0.066,-0.173 -0.662,-0.173 -0.728,0 -1.025,0.078 -0.661,0.173 m 71.073,1.512 c 0.361,0.094 1.042,0.098 1.512,0.007 0.47,-0.09 0.174,-0.167 -0.657,-0.172 -0.832,-0.004 -1.217,0.07 -0.855,0.165 m -57.463,0.001 c 0.364,0.095 0.959,0.095 1.323,0 0.364,-0.095 0.067,-0.173 -0.661,-0.173 -0.728,0 -1.026,0.078 -0.662,0.173 m 86.7,1.587 c -0.114,0.184 -0.81,0.448 -1.546,0.586 -1.811,0.34 -1.294,0.969 0.797,0.969 1.154,0 1.76,0.18 1.909,0.567 0.384,1.001 0.892,0.606 0.892,-0.693 0,-1.635 -1.346,-2.572 -2.052,-1.429 m -107.588,1.955 c 0,0.404 0.17,0.734 0.378,0.734 0.208,0 0.378,-0.435 0.378,-0.968 0,-0.548 -0.164,-0.866 -0.378,-0.733 -0.208,0.128 -0.378,0.563 -0.378,0.967 m 110.328,7.235 c 0.073,2.606 0.246,4.05 0.442,3.701 0.26,-0.464 0.275,-7.443 0.019,-8.879 -0.274,-1.534 -0.56,1.676 -0.461,5.178 m -111.425,-3.76 c 0.031,1.309 0.088,1.432 0.309,0.662 0.253,-0.879 0.129,-2.269 -0.202,-2.269 -0.079,0 -0.128,0.723 -0.107,1.607 m -1.698,3.15 c -0.341,0.888 -0.278,2.352 0.111,2.593 0.441,0.272 1.206,-1.905 0.926,-2.635 -0.279,-0.727 -0.75,-0.708 -1.037,0.042 m -35.013,6.088 c 0.728,0.039 7.157,0.277 14.286,0.53 12.416,0.441 14.471,0.68 12.442,1.452 -1.969,0.748 -39.146996,0.621 -40.170996,-0.138 -2.16,-1.601 3.461996,-2.372 13.442996,-1.844 m 1.229,1.536 c 2.859,0.064 7.538,0.064 10.397,0 2.859,-0.064 0.52,-0.117 -5.198,-0.117 -5.719,0 -8.058,0.053 -5.199,0.117 m 148.147,7.861 c -0.023,2.343 0.189,4.658 0.553,6.049 0.341,1.301 0.685,4.771 0.814,8.208 0.124,3.275 0.369,5.955 0.545,5.955 0.555,0 0.373,-13.303 -0.221,-16.138 -0.297,-1.417 -0.675,-4.703 -0.839,-7.303 -0.347,-5.481 -0.782,-3.829 -0.852,3.229 m 30.398,-5.289 c 1.247,0.283 4.161,0.523 6.475,0.532 4.55801,0.017 6.07701,0.577 4.23801,1.561 -1.203,0.644 -27.95201,0.172 -29.39301,-0.518 -3.85,-1.846 11.713,-3.158 18.68,-1.575 m -149.969,5.929 c 0.336,0.336 0.435,0.131 0.416,-0.863 -0.024,-1.225 -0.051,-1.252 -0.442,-0.441 -0.307,0.638 -0.3,0.978 0.026,1.304 m 49.685,0.066 c 0.572,0.204 1.04,0.579 1.04,0.834 0,0.255 0.508,0.576 1.13,0.712 0.621,0.137 1.213,0.384 1.315,0.548 0.102,0.165 1.112,0.769 2.245,1.343 2.032,1.027 2.07,1.078 2.764,3.662 0.843,3.142 1.187,3.328 1.863,1.011 0.438,-1.503 0.723,-1.839 1.993,-2.347 1.229,-0.492 1.445,-0.732 1.267,-1.412 -0.14,-0.537 0.001,-0.94 0.41,-1.169 0.676,-0.379 0.846,-1.067 0.262,-1.067 -0.198,0 -1.345,0.579 -2.548,1.287 -2.428,1.43 -2.746,1.389 -4.518,-0.58 -2.49,-2.767 -2.72,-2.912 -4.287,-2.702 -1.051,0.141 -1.651,0.025 -2.076,-0.4 -0.354,-0.354 -0.864,-0.494 -1.249,-0.344 -0.538,0.21 -0.471,0.318 0.389,0.624 m 18.739,-0.205 c 0.46,0.292 2.339,0.146 2.339,-0.182 0,-0.08 -0.638,-0.142 -1.418,-0.139 -0.904,0.003 -1.238,0.12 -0.921,0.321 m -3.332,1.185 c -0.422,0.273 -0.204,0.368 0.85,0.373 0.78,0.003 1.418,-0.165 1.418,-0.373 0,-0.481 -1.523,-0.481 -2.268,0 m -66.913,4.231 c -0.004,0.976 0.151,1.871 0.344,1.99 0.431,0.267 0.971,-3.722 0.588,-4.342 -0.467,-0.756 -0.926,0.402 -0.932,2.352 m 70.41,-1.324 c 0.364,0.096 0.959,0.096 1.323,0 0.364,-0.095 0.066,-0.172 -0.662,-0.172 -0.727,0 -1.025,0.077 -0.661,0.172 m -71.524,7.396 c 0.018,1.882 0.129,2.504 0.352,1.985 0.456,-1.063 0.456,-4.726 0,-4.726 -0.22,0 -0.367,1.148 -0.352,2.741 m 9.518,-1.702 c -0.215,0.654 0.744,0.593 1.631,-0.103 0.7,-0.549 0.683,-0.571 -0.371,-0.472 -0.608,0.056 -1.175,0.316 -1.26,0.575 m 50.722,4.188 c -0.159,1.053 -0.09,1.792 0.194,2.076 0.663,0.663 1.153,-0.359 1.16,-2.42 0.009,-2.971 -0.887,-2.744 -1.354,0.344 m 17.333,2.595 c 0.364,0.095 0.959,0.095 1.323,0 0.364,-0.095 0.066,-0.173 -0.662,-0.173 -0.727,0 -1.025,0.078 -0.661,0.173 m -18.292,2.938 c 0.106,0.199 0.323,-0.126 0.483,-0.724 0.16,-0.598 0.174,-1.272 0.031,-1.497 -0.302,-0.478 -0.802,1.68 -0.514,2.221 m -58.551,-1.646 c 0,0.186 -0.399,0.338 -0.885,0.338 -1.081,0 -2.05,3.338 -1.435,4.943 l 0.351,0.917 0.43,-1.135 c 0.682,-1.798 2.079,-4.525 2.389,-4.662 0.559,-0.249 0.285,-1.174 -0.283,-0.956 -0.312,0.119 -0.567,0.369 -0.567,0.555 m 81.096,-0.041 c 0.129,0.208 0.829,0.379 1.557,0.379 0.786,0 1.228,-0.154 1.09,-0.379 -0.129,-0.207 -0.829,-0.378 -1.557,-0.378 -0.786,0 -1.229,0.154 -1.09,0.378 m -10.586,0 c -0.128,0.208 0.117,0.379 0.545,0.379 0.428,0 0.778,-0.171 0.778,-0.379 0,-0.207 -0.245,-0.378 -0.544,-0.378 -0.3,0 -0.65,0.171 -0.779,0.378 m -14.272,5.246 c -1.126,1.01 -0.712,7.353 0.522,8.014 0.607,0.324 0.848,0.054 1.86,-2.088 0.639,-1.353 1.322,-2.559 1.517,-2.68 0.195,-0.12 0.354,-0.581 0.354,-1.025 0,-0.759 -0.029,-0.766 -0.497,-0.125 -1.035,1.415 -1.949,0.6 -2.09,-1.863 -0.109,-1.908 -0.198,-2.151 -0.567,-1.546 -0.24,0.396 -0.735,0.987 -1.099,1.313 m 40.643,1.654 c 0.086,0.26 0.384,0.473 0.661,0.473 0.278,0 0.575,-0.213 0.662,-0.473 0.094,-0.281 -0.174,-0.472 -0.662,-0.472 -0.487,0 -0.755,0.191 -0.661,0.472 m 25.084,5.199 c 0.224,0.888 0.257,0.9 0.547,0.189 0.393,-0.965 0.44,-2.949 0.091,-3.845 -0.374,-0.962 -0.959,2.387 -0.638,3.656 m -15.063,3.97 c 0.099,0.519 0.245,0.945 0.325,0.945 0.08,0 0.145,-0.426 0.145,-0.945 0,-0.52 -0.146,-0.946 -0.326,-0.946 -0.179,0 -0.244,0.426 -0.144,0.946 m 12.493,5.179 c 0.353,0.353 0.453,0.252 0.453,-0.454 0,-0.705 -0.1,-0.806 -0.453,-0.453 -0.353,0.353 -0.353,0.554 0,0.907 m -2.943,4.556 c 0.004,0.688 0.076,0.742 0.372,0.283 0.474,-0.733 0.474,-1.134 0,-1.134 -0.208,0 -0.376,0.383 -0.372,0.851 m -1.76,1.607 c -0.119,0.312 -0.591,0.567 -1.047,0.567 -1.525,0 -2.624,3.565 -1.343,4.357 0.574,0.355 3.725,-3.858 3.754,-5.019 0.017,-0.667 -1.101,-0.59 -1.364,0.095 m -117.984,4.064 c 0.09,0.468 0.164,0.085 0.164,-0.851 0,-0.935 -0.074,-1.318 -0.164,-0.85 -0.09,0.467 -0.09,1.233 0,1.701 m 56.267,2.669 c 0.03,2.588 0.139,3.48 0.333,2.718 0.445,-1.748 0.445,-7.08 0,-6.805 -0.217,0.134 -0.359,1.875 -0.333,4.087 m -55.244,3.074 c 0,0.3 0.17,0.65 0.378,0.779 0.208,0.128 0.378,-0.117 0.378,-0.545 0,-0.428 -0.17,-0.779 -0.378,-0.779 -0.208,0 -0.378,0.246 -0.378,0.545 m 110.403,1.251 c -0.003,0.26 0.164,0.473 0.372,0.473 0.208,0 0.376,-0.468 0.373,-1.04 -0.006,-1.064 -0.732,-0.512 -0.745,0.567 m -57.313,3.747 c 0.271,0.705 1.978,0.636 2.257,-0.091 0.471,-1.228 0.237,-3.141 -0.43,-3.515 -0.724,-0.405 -2.227,2.562 -1.827,3.606 m 55.822,-0.911 c -0.015,0.156 0.143,0.283 0.351,0.283 0.208,0 0.366,-0.468 0.352,-1.039 -0.025,-0.97 -0.6,-0.353 -0.703,0.756 m -108.411,1.734 c -0.405,0.575 -2.097,0.619 -19.752,0.515 -11.736,-0.07 -19.560996,0.027 -19.951996,0.245 -1.054,0.59 2.903996,0.771 21.244996,0.972 18.84,0.205 20.102,0.351 20.833,2.406 0.746,2.097 0.805,-0.1 0.069,-2.564 -1.151,-3.85 -1.066,-3.692 -1.563,-2.897 -0.24,0.382 -0.635,0.977 -0.88,1.323 m 106.94,0.375 c -0.067,0.451 0.061,0.821 0.283,0.821 0.223,0 0.405,-0.156 0.405,-0.347 0,-0.191 0.112,-0.64 0.249,-0.997 0.175,-0.456 0.091,-0.597 -0.283,-0.474 -0.293,0.097 -0.588,0.545 -0.654,0.997 m -55.69,1.613 c -0.414,0.214 -0.55,0.633 -0.423,1.3 0.134,0.7 0.306,0.868 0.593,0.581 0.55,-0.551 1.967,-0.511 2.425,0.068 0.538,0.68 0.924,7.058 0.513,8.479 -0.418,1.444 0.824,3.16 1.331,1.839 0.396,-1.03 -0.103,-11.35 -0.592,-12.264 -0.451,-0.843 -2.212,-0.844 -3.847,-0.003 m 54.356,0.626 c -0.63,1.239 -1.191,3.126 -0.737,2.482 0.211,-0.3 2.698,-0.548 7.492,-0.747 l 7.176,-0.299 -5.482,-0.294 c -6.546,-0.35 -7.063,-0.45 -7.373,-1.427 -0.314,-0.99 -0.445,-0.956 -1.076,0.285 m -54.467,5.047 c -0.991,3.862 -0.713,4.877 1.334,4.877 h 1.542 l -0.131,-3.606 c -0.098,-2.687 -0.276,-3.697 -0.699,-3.963 -0.985,-0.622 -1.304,-0.202 -2.046,2.692 m 108.369,-2.41 c 0.774,0.082 2.136,0.083 3.02501,0.003 0.889,-0.08 0.256,-0.146 -1.40801,-0.148 -1.664,-0.001 -2.391,0.064 -1.617,0.145 m -109.996,4.546 c 0.087,0.572 0.158,0.104 0.158,-1.04 0,-1.143 -0.071,-1.611 -0.158,-1.039 -0.087,0.571 -0.087,1.507 0,2.079 m 52.067,0.009 c 0,0.929 0.045,0.958 0.618,0.385 0.35,-0.35 0.516,-0.889 0.381,-1.239 -0.342,-0.891 -0.999,-0.329 -0.999,0.854 m -2.607,5.757 0.037,1.323 0.395,-1.229 c 0.216,-0.676 0.614,-1.229 0.884,-1.229 0.767,0 0.949,-0.587 0.687,-2.221 l -0.241,-1.512 -0.9,1.772 c -0.494,0.975 -0.882,2.368 -0.862,3.096 m -50.375,-3.019 c -0.518,0.415 -0.782,1.271 -0.951,3.089 -0.417,4.461 0.638,5.022 1.169,0.623 0.142,-1.179 0.471,-2.224 0.731,-2.324 0.31,-0.119 0.412,-0.683 0.297,-1.638 -0.096,-0.802 -0.255,-1.202 -0.352,-0.89 -0.098,0.312 -0.5,0.825 -0.894,1.14 m -45.216,-0.917 c -0.345,0.345 -0.45,0.708 -0.246,0.851 0.195,0.137 0.551,0.674 0.792,1.194 0.403,0.873 0.438,0.809 0.462,-0.85 0.027,-1.954 -0.099,-2.104 -1.008,-1.195 m 9.256,0.041 c 0.832,0.311 0.533,1.947 -0.475,2.608 -1.816,1.19 -3.593,6.065 -2.465,6.763 0.697,0.43 1.557,4.045 1.095,4.602 -0.672,0.81 -1.446,0.592 -1.886,-0.532 -0.223,-0.572 -0.687,-1.622 -1.031,-2.333 -1.009,-2.088 -0.844,-5.959 0.322,-7.577 1.802,-2.501 3.527,-3.873 4.44,-3.531 m 55.509,1.029 c 0.156,0.623 -0.037,1.275 -0.602,2.04 -1.294,1.75 -0.975,6.209 0.677,9.487 1.194,2.369 1.464,3.447 0.983,3.928 -1.267,1.266 -5.446,-7.861 -4.846,-10.583 0.908,-4.118 3.228,-7.102 3.788,-4.872 m 54.316,2.272 c -0.119,0.119 4.959,0.183 11.284,0.143 6.502,-0.041 9.939,-0.164 7.908,-0.283 -4.427,-0.261 -18.897,-0.155 -19.192,0.14 m -113.227,0.414 c -0.1,0.524 -0.035,1.045 0.145,1.156 0.18,0.111 0.33,0.065 0.332,-0.103 0.003,-0.169 0.108,-0.689 0.234,-1.157 0.125,-0.468 0.057,-0.851 -0.151,-0.851 -0.208,0 -0.46,0.43 -0.56,0.955 m 46.687,5.732 c 0.184,4.824 0.36,5.844 0.91,5.293 0.304,-0.303 0.232,-7.86 -0.09,-9.578 -0.558,-2.976 -1.007,-0.629 -0.82,4.285 m -48.105,-2.15 c 0,0.807 0.17,1.573 0.378,1.702 0.233,0.144 0.378,-0.508 0.378,-1.702 0,-1.193 -0.145,-1.845 -0.378,-1.701 -0.208,0.128 -0.378,0.894 -0.378,1.701 m -3.677,2.356 c 0.084,0.68 0.155,0.215 0.157,-1.033 0.002,-1.247 -0.067,-1.803 -0.153,-1.235 -0.086,0.568 -0.088,1.589 -0.004,2.268 m 42.267,0.952 c -0.015,0.676 0.143,1.229 0.351,1.229 0.208,0 0.366,-0.893 0.352,-1.985 -0.03,-2.192 -0.654,-1.521 -0.703,0.756 m -37.24,1.769 c 0.172,0.685 0.384,0.902 0.636,0.65 0.208,-0.208 0.262,-0.841 0.12,-1.406 -0.172,-0.685 -0.384,-0.901 -0.636,-0.649 -0.208,0.208 -0.262,0.84 -0.12,1.405 m 91.242,2.994 c 0.312,1.078 0.346,0.993 0.355,-0.887 0.009,-1.669 -0.06,-1.905 -0.345,-1.193 -0.217,0.543 -0.221,1.35 -0.01,2.08"
     id="path2" />
</svg>
