<?xml version="1.0" encoding="UTF-8" standalone="no"?>
<svg
   xmlns:dc="http://purl.org/dc/elements/1.1/"
   xmlns:cc="http://creativecommons.org/ns#"
   xmlns:rdf="http://www.w3.org/1999/02/22-rdf-syntax-ns#"
   xmlns:svg="http://www.w3.org/2000/svg"
   xmlns="http://www.w3.org/2000/svg"
   xmlns:sodipodi="http://sodipodi.sourceforge.net/DTD/sodipodi-0.dtd"
   xmlns:inkscape="http://www.inkscape.org/namespaces/inkscape"
   id="svg"
   version="1.1"
   width="400"
   height="377.93103448275866"
   viewBox="0, 0, 400,377.93103448275866"
   sodipodi:docname="C13.svg"
   inkscape:version="0.92.5 (2060ec1f9f, 2020-04-08)">
  <metadata
     id="metadata11">
    <rdf:RDF>
      <cc:Work
         rdf:about="">
        <dc:format>image/svg+xml</dc:format>
        <dc:type
           rdf:resource="http://purl.org/dc/dcmitype/StillImage" />
      </cc:Work>
    </rdf:RDF>
  </metadata>
  <defs
     id="defs9" />
  <sodipodi:namedview
     pagecolor="#ffffff"
     bordercolor="#666666"
     borderopacity="1"
     objecttolerance="10"
     gridtolerance="10"
     guidetolerance="10"
     inkscape:pageopacity="0"
     inkscape:pageshadow="2"
     inkscape:window-width="1366"
     inkscape:window-height="689"
     id="namedview7"
     showgrid="false"
     inkscape:zoom="0.62445256"
     inkscape:cx="200"
     inkscape:cy="188.96552"
     inkscape:window-x="0"
     inkscape:window-y="0"
     inkscape:window-maximized="1"
     inkscape:current-layer="svg" />
  <path
     style="fill:#ffffff;fill-rule:evenodd;stroke:none"
     inkscape:connector-curvature="0"
     d="m 92.065774,15.092706 c 0,0.208 0.68,0.378 1.512,0.378 0.832,0 1.512,-0.17 1.512,-0.378 0,-0.208 -0.68,-0.378 -1.512,-0.378 -0.832,0 -1.512,0.17 -1.512,0.378 m 8.604996,1.401 c 0.47,0.091 1.151,0.087 1.512,-0.007 0.362,-0.095 -0.023,-0.169 -0.855,-0.165 -0.831,0.005 -1.127,0.082 -0.657,0.172 m 5.761,1.222 c 0,0.498 3.179,0.92 4.438,0.589 0.959,-0.252 0.983,-0.299 0.288,-0.582 -1.058,-0.432 -4.726,-0.437 -4.726,-0.007 m 23.252,4.182 c -0.149,0.241 0.838,0.364 2.719,0.34 2.056,-0.026 2.665,-0.129 2.007,-0.34 -1.376,-0.44 -4.454,-0.44 -4.726,0 m 7.561,1.512 c 0.129,0.208 1.255,0.378 2.502,0.378 1.416,0 2.181,-0.142 2.035,-0.378 -0.128,-0.208 -1.254,-0.378 -2.502,-0.378 -1.416,0 -2.181,0.142 -2.035,0.378 m 23.684,3.715 c -0.674,0.46 -0.239,0.693 1.893,1.012 1.963,0.294 3.637,-0.05 3.06,-0.627 -0.51,-0.51 -4.334,-0.807 -4.953,-0.385 m 9.139,2.052 c 1.51,0.258 2.457,0.251 3.025,-0.023 0.649,-0.314 0.181,-0.395 -2.199,-0.376 l -3.025,0.022 2.199,0.377 m 6.119,1.039 c -0.147,0.237 0.651,0.368 2.151,0.351 1.683,-0.019 2.163,-0.122 1.629,-0.351 -1.057,-0.455 -3.499,-0.455 -3.78,0 m 7.435,1.062 c -0.406,0.277 -0.381,0.392 0.125,0.586 1.031,0.396 6.617,0.281 6.617,-0.136 0,-0.208 -0.4,-0.378 -0.889,-0.378 -0.49,0 -1.893,-0.094 -3.119,-0.209 -1.227,-0.114 -2.457,-0.053 -2.734,0.137 m 8.255,1.584 c -0.432,0.279 -0.281,0.368 0.634,0.372 2.055,0.01 2.389,0.714 2.396,5.043 0.004,2.624 0.122,3.668 0.372,3.281 0.202,-0.312 0.372,-1.673 0.378,-3.025 0.014,-3.292 0.211,-3.858 1.628,-4.683 1.116,-0.651 1.151,-0.727 0.452,-1.009 -1.072,-0.431 -5.184,-0.416 -5.86,0.021 m 8.128,1.512 c 0.129,0.208 1.287,0.376 2.574,0.373 1.651,-0.004 2.174,-0.114 1.774,-0.373 -0.765,-0.494 -4.653,-0.494 -4.348,0 m 6.83,1.095 c -0.315,0.51 0.759,0.797 2.936,0.784 1.801,-0.011 1.897,-0.056 1.221,-0.567 -0.8,-0.605 -3.82,-0.763 -4.157,-0.217 m 4.855,7.223 c 0,3.431 0.058,4.835 0.128,3.119 0.07,-1.715 0.07,-4.523 0,-6.238 -0.07,-1.716 -0.128,-0.312 -0.128,3.119 m -16.877,58.552004 -0.101,57.077 -0.854,0.909 c -0.47,0.5 -0.739,1.024 -0.599,1.165 0.521,0.52 1.925,0.231 2.622,-0.539 0.63,-0.696 0.986,-0.764 2.872,-0.551 1.919,0.217 2.198,0.16 2.567,-0.529 0.227,-0.424 0.577,-0.772 0.778,-0.772 0.616,0 0.404,1.075 -0.289,1.462 -0.706,0.395 -0.691,0.405 2.41,1.557 0.654,0.244 1.504,0.732 1.89,1.086 1.49,1.366 5.651,3.834 6.464,3.834 1.226,0 1.053,-0.621 -0.244,-0.881 -0.939,-0.187 -1.137,-0.446 -1.361,-1.774 -0.21,-1.24 -0.389,-1.506 -0.887,-1.312 -1.861,0.724 -4.147,-0.886 -5.774,-4.067 -0.399,-0.779 -0.963,-1.417 -1.253,-1.417 -0.291,0 -0.605,-0.213 -0.7,-0.473 -0.122,-0.338 -0.712,-0.177 -2.072,0.567 -2.384,1.304 -3.977,1.365 -4.52,0.173 -0.271,-0.595 -0.339,-18.273 -0.216,-56.478 0.127,-39.395004 0.061,-55.685004 -0.227,-55.863004 -0.288,-0.178 -0.435,16.279 -0.506,56.826004 m 81.475,-1.992004 c 0.126,0.126 2.165,0.276 4.533,0.334 3.225,0.08 4.631,0.275 5.601,0.777004 0.735,0.381 2.757,0.807 4.674,0.984 1.857,0.172 3.55,0.485 3.761,0.696 0.468,0.468 3.007,0.519 2.721,0.055 -0.112,-0.181 -0.727,-0.434 -1.368,-0.562 -0.64,-0.128 -1.411,-0.48 -1.713,-0.782 -0.303,-0.303 -1.356,-0.654 -2.341,-0.780004 -0.986,-0.127 -2.505,-0.392 -3.377,-0.59 -1.715,-0.389 -12.865,-0.506 -12.491,-0.132 m -7.446,1.246004 c -0.714,0.279 -0.714,0.291 -0.009,0.561 0.914,0.351 5.463,-0.121 5.463,-0.566 0,-0.402 -4.425,-0.399 -5.454,0.005 m -4.925,1.522 c -0.118,0.192 -0.742,0.465 -1.386,0.606 -1.188,0.261 -3.172,1.452 -4.302,2.583 -0.342,0.341 -0.78,0.621 -0.973,0.621 -0.193,0 -0.351,0.255 -0.351,0.567 0,0.773 0.458,0.712 1.425,-0.189 0.447,-0.416 1.079,-0.756 1.407,-0.756 0.327,0 0.692,-0.253 0.81,-0.563 0.119,-0.31 0.879,-0.742 1.69,-0.96 0.859,-0.231 1.473,-0.627 1.473,-0.949 0,-0.362 0.392,-0.553 1.134,-0.553 0.624,0 1.135,-0.17 1.135,-0.378 0,-0.475 -1.77,-0.5 -2.062,-0.029 m 34.954,1.308 c 0,0.344 1.474,0.49 1.943,0.193 0.35,-0.222 0.121,-0.328 -0.714,-0.332 -0.676,-0.003 -1.229,0.06 -1.229,0.139 m 3.025,1.327 c 0,0.395 0.923,0.797 1.83,0.797 0.349,0 0.859,0.36 1.134,0.801 0.344,0.549 0.622,0.678 0.89,0.411 0.467,-0.467 0.084,-1.212 -0.623,-1.212 -0.277,0 -0.602,-0.255 -0.722,-0.567 -0.232,-0.606 -2.509,-0.814 -2.509,-0.23 m 6.05,3.664 c 0.003,0.655 1.804,3.898 2.035,3.666 0.549,-0.549 0.129,-1.888 -0.913,-2.91 -0.618,-0.606 -1.123,-0.947 -1.122,-0.756 m -55.2,3.371 c 0,0.312 0.17,0.567 0.378,0.567 0.208,0 0.378,-0.255 0.378,-0.567 0,-0.312 -0.17,-0.567 -0.378,-0.567 -0.208,0 -0.378,0.255 -0.378,0.567 m -1.302,2.015 c -0.341,1.072 0.144,1.903 0.617,1.058 0.209,-0.372 0.206,-0.864 -0.007,-1.244 -0.312,-0.557 -0.381,-0.536 -0.61,0.186 m 58.95,0.915 c -0.519,2.473 -1.756,5.915 -2.285,6.353 -0.298,0.248 -0.542,0.685 -0.542,0.971 0,0.287 -0.213,0.529 -0.473,0.539 -0.26,0.01 0.123,0.309 0.851,0.665 l 1.323,0.646 0.203,6.235 0.204,6.236 0.08,-5.892 c 0.062,-4.555 0.242,-6.4 0.791,-8.129 1.029,-3.234 1.206,-4.522 0.937,-6.813 -0.271,-2.305 -0.708,-2.63 -1.089,-0.811 m -24.661,3.585 c -0.26,0.09 -0.473,0.32 -0.473,0.511 0,0.446 1.402,0.453 1.677,0.008 0.252,-0.407 -0.543,-0.75 -1.204,-0.519 m -2.479,1.477 c -0.133,0.133 -0.161,0.373 -0.062,0.532 0.232,0.376 1.69,-0.003 1.69,-0.439 0,-0.384 -1.265,-0.455 -1.628,-0.093 m 21.84,4.321 c -0.137,0.221 -0.159,0.494 -0.048,0.605 0.271,0.27 1.008,-0.207 1.008,-0.653 0,-0.483 -0.652,-0.451 -0.96,0.048 m -48.189,0.753 c 0,0.428 0.17,0.673 0.378,0.545 0.208,-0.129 0.378,-0.479 0.378,-0.779 0,-0.299 -0.17,-0.545 -0.378,-0.545 -0.208,0 -0.378,0.351 -0.378,0.779 m 19.282,0.954 c 0,0.668 0.814,0.552 1.047,-0.149 0.083,-0.247 -0.12,-0.449 -0.449,-0.449 -0.329,0 -0.598,0.269 -0.598,0.598 m -5.403,0.536 c -0.109,0.415 -0.043,0.851 0.145,0.967 0.189,0.116 0.343,-0.224 0.343,-0.756 0,-1.158 -0.216,-1.252 -0.488,-0.211 m 21.565,2.907 c -0.994,0.26 -0.795,0.874 0.284,0.874 0.588,0 0.945,-0.215 0.945,-0.567 0,-0.582 -0.09,-0.605 -1.229,-0.307 m -8.979,0.496 c 0,0.208 0.595,0.378 1.323,0.378 0.728,0 1.324,-0.17 1.324,-0.378 0,-0.208 -0.596,-0.378 -1.324,-0.378 -0.728,0 -1.323,0.17 -1.323,0.378 m 8.49,5.301 c -2.268,0.399 -0.124,0.812 2.963,0.569 1.707,-0.133 3.911,-0.085 4.899,0.108 1.439,0.282 1.795,0.248 1.795,-0.167 0,-0.285 -0.212,-0.547 -0.472,-0.582 -1.181,-0.16 -8.183,-0.105 -9.185,0.072 m -44.537,1.758 c -0.377,2.278 -0.276,11.971 0.13,12.6 0.484,0.749 0.452,1.12 0.558,-6.49 0.091,-6.492 -0.2,-9.068 -0.688,-6.11 m 28.864,0.335 c 0,0.549 0.163,0.867 0.378,0.734 0.208,-0.128 0.378,-0.564 0.378,-0.967 0,-0.404 -0.17,-0.734 -0.378,-0.734 -0.208,0 -0.378,0.435 -0.378,0.967 m 31.758,0.734 c 0,0.312 0.17,0.567 0.378,0.567 0.208,0 0.378,-0.255 0.378,-0.567 0,-0.312 -0.17,-0.567 -0.378,-0.567 -0.208,0 -0.378,0.255 -0.378,0.567 m -220.288996,2.836 c 0,1.559 0.067,2.197 0.148,1.417 0.082,-0.779 0.082,-2.055 0,-2.835 -0.081,-0.78 -0.148,-0.142 -0.148,1.418 m 171.231996,-1.647 c -0.707,0.296 -0.173,0.891 0.799,0.891 0.466,0 1.059,0.211 1.317,0.469 0.352,0.352 0.537,0.36 0.74,0.031 0.15,-0.242 0.866,-0.495 1.592,-0.564 2.328,-0.221 1.413,-0.879 -1.327,-0.954 -1.456,-0.04 -2.86,0.017 -3.121,0.127 m 36.535,2.318 c 0.23,0.431 0.223,0.915 -0.021,1.352 -0.46,0.82 -0.39,0.905 0.822,1.006 2.303,0.192 2.475,0.086 2.475,-1.517 v -1.512 h -1.818 c -1.624,0 -1.779,0.071 -1.458,0.671 m -28.804,0.22 c -0.126,0.328 -0.055,0.704 0.158,0.836 0.588,0.364 0.827,-0.081 0.427,-0.795 -0.318,-0.569 -0.381,-0.573 -0.585,-0.041 m 41.326,0.221 c 0,0.428 0.17,0.778 0.378,0.778 0.208,0 0.378,-0.245 0.378,-0.545 0,-0.299 -0.17,-0.65 -0.378,-0.778 -0.208,-0.129 -0.378,0.116 -0.378,0.545 m 1.498,2.29 c -0.129,0.966 0.051,1.604 0.611,2.163 0.295,0.296 0.537,0.93 0.537,1.41 0,0.479 0.238,1.069 0.528,1.309 0.29,0.241 0.638,1.028 0.773,1.748 0.318,1.695 0.968,1.694 0.968,-0.002 0,-1.265 -1.276,-4.286 -2.026,-4.798 -0.202,-0.137 -0.58,-0.732 -0.841,-1.323 -0.272,-0.615 -0.507,-0.832 -0.55,-0.507 m -44.22,0.756 c 0,0.706 0.1,0.807 0.453,0.454 0.353,-0.353 0.353,-0.554 0,-0.907 -0.353,-0.353 -0.453,-0.252 -0.453,0.453 m -8.318,6.405 c 0,0.636 0.17,1.157 0.378,1.157 0.208,0 0.378,-0.415 0.378,-0.923 0,-0.508 -0.17,-1.028 -0.378,-1.157 -0.221,-0.136 -0.378,0.249 -0.378,0.923 m 6.328,2.931 c -0.846,0.22 -0.473,0.872 0.5,0.872 0.403,0 0.733,-0.255 0.733,-0.567 0,-0.582 -0.089,-0.604 -1.233,-0.305 m -175.839996,1.86 c -0.344,2.503 -0.228,123.528 0.12,126.045 0.158,1.143 0.323,-13.488 0.367,-32.515 0.088,-38.227 -0.07,-35.938 2.521,-36.525 1.796,-0.407 1.818,-0.429 0.719,-0.688 -2.738,-0.647 -2.704,-0.595 -2.993,-4.531 -0.436,-5.938 0.061,-10.78 1.157,-11.279 1.097,-0.5 1.135,-0.913 0.113,-1.237 -1.458,-0.463 -1.534,-1.601 -1.437,-21.422 0.09,-18.278 -0.023,-21.821 -0.567,-17.848 m 221.685996,-0.042 c 0,0.61 0.346,0.7 1.292,0.337 0.921,-0.353 0.709,-0.905 -0.347,-0.905 -0.588,0 -0.945,0.215 -0.945,0.568 m -56.565,1.111 c -0.311,0.808 0.167,2.565 0.621,2.284 0.484,-0.299 0.474,-2.34 -0.013,-2.641 -0.21,-0.129 -0.483,0.031 -0.608,0.357 m 55.431,0.59 c 0,0.416 0.17,0.756 0.378,0.756 0.208,0 0.378,-0.34 0.378,-0.756 0,-0.416 -0.17,-0.756 -0.378,-0.756 -0.208,0 -0.378,0.34 -0.378,0.756 m -42.344,0.901 c 0,0.336 1.529,0.511 1.723,0.198 0.116,-0.189 -0.224,-0.343 -0.756,-0.343 -0.532,0 -0.967,0.065 -0.967,0.145 m -14.345,2.271 c -0.266,0.497 -0.933,1.128 -1.481,1.401 -0.549,0.274 -1.291,0.74 -1.649,1.036 -0.661,0.545 -2.335,0.637 -8.484,0.461 -3.119,-0.089 -7.034,0.592 -10.336,1.796 -3.597,1.312 -4.984,1.527 -7.197,1.116 -1.423,-0.265 -2.483,-0.271 -3.227,-0.018 -1.072,0.365 -1.044,0.386 0.877,0.657 2.095,0.295 2.739,1.262 1.357,2.035 -0.739,0.414 -0.323,0.588 2.424,1.015 0.884,0.137 1.607,0.387 1.607,0.554 0,0.479 1.96,0.845 2.364,0.441 0.233,-0.233 0.07,-0.521 -0.455,-0.802 -1.396,-0.747 -0.935,-2.712 0.737,-3.142 0.727,-0.187 1.441,-0.533 1.587,-0.768 0.191,-0.31 0.934,-0.249 2.709,0.224 1.345,0.359 2.725,0.652 3.066,0.652 0.951,0 4.552,3.032 5.55,4.673 0.489,0.802 1.186,1.733 1.55,2.069 0.364,0.335 0.661,0.821 0.661,1.079 0,0.258 0.341,0.652 0.756,0.874 0.416,0.223 0.757,0.792 0.757,1.265 0,0.472 0.249,1.19 0.555,1.593 0.305,0.404 0.566,0.989 0.58,1.301 0.013,0.312 0.353,1.248 0.755,2.08 0.402,0.831 0.739,2.022 0.749,2.646 0.024,1.466 0.631,2.472 1.076,1.784 0.377,-0.583 -0.12,-4.639 -0.608,-4.96 -0.189,-0.125 -0.467,-0.725 -0.616,-1.335 -0.339,-1.383 -2.067,-4.374 -2.527,-4.374 -0.188,0 -0.342,-0.413 -0.342,-0.918 0,-0.505 -0.256,-1.173 -0.568,-1.485 -0.311,-0.312 -0.567,-0.689 -0.567,-0.838 0,-0.355 -1.913,-2.448 -4.712,-5.153 -3.085,-2.982 -2.903,-3.102 4.947,-3.271 4.904,-0.105 6.29,-0.247 6.449,-0.661 0.13,-0.34 0.788,-0.528 1.841,-0.528 1.808,0 2.273,-0.379 1.724,-1.402 -0.2,-0.373 -0.456,-0.975 -0.568,-1.339 -0.283,-0.915 -0.769,-0.827 -1.341,0.242 m 54.658,2.232 c -1.231,1.141 -1.233,1.267 -0.021,1.499 0.779,0.149 1.044,-0.004 1.337,-0.774 0.545,-1.433 -0.143,-1.812 -1.316,-0.725 m -114.037,1.212 c 0,1.076 1.111,1.317 1.868,0.405 0.358,-0.432 0.297,-0.623 -0.307,-0.946 -1.167,-0.624 -1.561,-0.488 -1.561,0.541 m 113.402,2.458 c -0.394,2.402 -0.336,7.616 0.082,7.476 0.554,-0.186 0.75,-6.405 0.229,-7.226 -0.154,-0.242 -0.294,-0.354 -0.311,-0.25 m -113.264,1.392 c -0.302,0.108 -0.327,0.606 -0.085,1.681 0.189,0.841 0.296,1.811 0.239,2.157 -0.069,0.421 0.209,0.674 0.841,0.763 0.91,0.128 0.92,0.107 0.283,-0.597 -0.872,-0.964 -0.833,-1.403 0.19,-2.117 0.643,-0.448 0.703,-0.598 0.247,-0.613 -0.332,-0.011 -0.757,-0.337 -0.945,-0.724 -0.188,-0.388 -0.534,-0.635 -0.77,-0.55 m 23.353,2.97 c -0.699,0.304 -2.096,0.553 -3.103,0.553 -1.908,0 -7.658,0.757 -7.436,0.979 0.07,0.07 2.099,0.211 4.511,0.312 2.411,0.102 5.518,0.449 6.905,0.77 2.84,0.659 4.365,0.746 4.365,0.249 0,-0.185 -0.595,-0.448 -1.323,-0.584 -1.319,-0.248 -1.859,-1.351 -0.939,-1.919 1.436,-0.888 -1.068,-1.19 -2.98,-0.36 m 66.323,0.846 c -0.505,0.505 -0.127,0.841 0.945,0.841 0.636,0 1.064,-0.15 0.951,-0.333 -0.261,-0.423 -1.618,-0.787 -1.896,-0.508 m -51.629,0.884 c 0,0.427 3.012,3.359 3.45,3.359 0.13,0 0.811,0.84 1.512,1.867 1.465,2.143 2.977,3.123 2.977,1.928 0,-0.399 -0.17,-0.831 -0.378,-0.959 -0.208,-0.129 -0.378,-0.516 -0.378,-0.862 0,-0.834 -4.144,-4.998 -4.975,-4.998 -0.358,0 -0.756,-0.17 -0.885,-0.378 -0.317,-0.514 -1.323,-0.481 -1.323,0.043 m -36.295,0.668 c 0,0.233 0.17,0.423 0.378,0.423 1.251,0 0.065,3.209 -1.313,3.555 -0.526,0.132 -0.955,0.407 -0.955,0.611 0,0.491 2.156,0.479 2.461,-0.013 0.13,-0.211 0.821,-0.628 1.534,-0.926 0.714,-0.298 1.298,-0.796 1.298,-1.106 0,-0.372 0.479,-0.613 1.417,-0.711 1.28,-0.134 1.241,-0.155 -0.403,-0.212 -1.315,-0.046 -2.182,-0.339 -3.119,-1.054 -0.714,-0.544 -1.298,-0.8 -1.298,-0.567 m 7.848,0.482 c 0.319,0.32 0.773,0.33 1.682,0.039 l 1.245,-0.399 -1.682,-0.038 c -1.274,-0.03 -1.577,0.067 -1.245,0.398 m 83.267,-0.059 c 0.74,0.478 1.513,0.478 1.513,0 0,-0.208 -0.468,-0.375 -1.04,-0.372 -0.81,0.004 -0.915,0.086 -0.473,0.372 m 3.153,1.695 c 0.308,0.308 0.639,0.776 0.736,1.039 0.127,0.346 0.297,0.366 0.613,0.07 0.675,-0.631 0.067,-1.67 -0.977,-1.67 -0.824,0 -0.867,0.065 -0.372,0.561 m 3.115,0.999 c 0.112,0.182 0.621,0.331 1.131,0.331 0.509,0 1.218,0.34 1.574,0.756 0.52,0.607 1.115,0.756 3.024,0.756 1.91,0 2.505,-0.149 3.025,-0.756 0.356,-0.416 0.95,-0.756 1.319,-0.756 0.37,0 0.672,-0.128 0.671,-0.284 -0.001,-0.156 -2.464,-0.305 -5.475,-0.33 -3.035,-0.026 -5.382,0.1 -5.269,0.283 m -107.353,5.635 c 0.258,0.258 0.699,0.266 1.305,0.024 0.859,-0.344 0.836,-0.367 -0.39,-0.39 -0.895,-0.016 -1.182,0.099 -0.915,0.366 m -2.884,1.123 c -0.441,0.284 -0.33,0.368 0.494,0.372 0.613,0.003 0.964,-0.154 0.829,-0.372 -0.29,-0.47 -0.597,-0.47 -1.323,0 m -10.829,4.35 c -0.12,0.313 -0.887,0.676 -1.704,0.807 -0.852,0.136 -1.422,0.417 -1.337,0.659 0.191,0.541 2.164,0.327 2.905,-0.315 0.312,-0.27 1.206,-0.605 1.985,-0.745 1.883,-0.337 1.813,-0.976 -0.106,-0.976 -1.009,0 -1.598,0.193 -1.743,0.57 m 78.503,1.087 c 0,0.728 0.171,1.429 0.378,1.557 0.225,0.139 0.379,-0.304 0.379,-1.089 0,-0.728 -0.171,-1.429 -0.379,-1.557 -0.224,-0.139 -0.378,0.303 -0.378,1.089 m -85.16,1.251 c -1.139,0.297 -0.723,0.873 0.63,0.873 1.502,0 2.489,-0.316 2.489,-0.796 0,-0.344 -1.918,-0.391 -3.119,-0.077 m -5.955,1.338 c -1.609,0.362 -1.65,0.403 -0.756,0.743 1.041,0.396 4.915,0.054 4.915,-0.435 0,-0.738 -1.694,-0.864 -4.159,-0.308 m -36.106,1.804 c 0.146,0.236 3.966,0.378 10.208,0.378 6.242,0 10.062,-0.142 10.208,-0.378 0.154,-0.249 -3.343,-0.378 -10.208,-0.378 -6.865,0 -10.361,0.129 -10.208,0.378 m 26.276,-0.03 c 0,0.58 2.125,0.858 4.434,0.579 3.814,-0.46 3.544,-0.904 -0.559,-0.916 -2.131,-0.006 -3.875,0.145 -3.875,0.337 m 124.648,1.028 c -0.402,0.402 0.102,0.874 0.693,0.647 0.304,-0.117 0.459,-0.365 0.344,-0.551 -0.245,-0.396 -0.695,-0.438 -1.037,-0.096 m -175.592996,0.417 c 1.82,0.07 4.796996,0.07 6.615996,0 1.82,-0.069 0.331,-0.126 -3.308,-0.126 -3.638996,0 -5.126996,0.057 -3.307996,0.126 m 111.058996,10.662 c -0.847,0.244 -0.775,0.303 0.687,0.562 0.897,0.16 1.734,0.188 1.859,0.064 0.546,-0.547 -1.274,-0.994 -2.546,-0.626 m 3.213,1.155 c -0.342,0.555 0.131,1.134 0.927,1.134 0.382,0 0.792,0.256 0.911,0.567 0.12,0.312 0.399,0.568 0.621,0.568 0.837,0 -1.097,-2.595 -1.964,-2.635 -0.144,-0.007 -0.366,0.158 -0.495,0.366 m -14.239,4.724 c -0.29,0.29 -3.559,0.542 -9.807,0.756 -3.138,0.107 -5.987,0.359 -6.331,0.56 -0.695,0.405 -0.933,0.387 7.504,0.57 2.807,0.06 5.529,0.134 6.049,0.164 0.52,0.03 1.456,0.007 2.079,-0.052 l 1.135,-0.106 0.244,6.428 c 0.135,3.535 0.428,9.404 0.653,13.043 0.497,8.067 0.544,17.408 0.094,18.596 -0.554,1.462 -0.953,10.138 -0.466,10.138 0.282,0 0.42,-1.356 0.42,-4.132 0,-3.225 0.128,-4.26 0.585,-4.717 0.594,-0.595 0.577,-17.461 -0.035,-33.078 -0.117,-2.993 -0.073,-5.582 0.097,-5.753 0.729,-0.728 1.98,0.122 2.211,1.502 0.126,0.757 0.465,2.142 0.753,3.077 0.288,0.936 0.705,2.868 0.927,4.294 0.223,1.426 0.653,2.842 0.958,3.147 0.304,0.304 0.553,0.956 0.553,1.449 0,0.492 0.171,1.002 0.381,1.131 0.632,0.391 0.859,-0.858 0.393,-2.171 -0.241,-0.678 -0.603,-2.679 -0.806,-4.447 -0.202,-1.767 -0.639,-4.185 -0.97,-5.373 -0.961,-3.448 0.886,-4.499 4.417,-2.514 0.891,0.501 1.702,0.707 2.131,0.541 0.657,-0.253 0.654,-0.287 -0.064,-0.675 -0.416,-0.225 -1.06,-0.724 -1.432,-1.109 -0.398,-0.411 -1.207,-0.7 -1.963,-0.7 -0.707,0 -1.391,-0.17 -1.52,-0.378 -0.232,-0.376 -7.828,-0.553 -8.19,-0.191 m -99.455996,2.737 c 0.889,0.08 2.25,0.079 3.024996,-0.003 0.774,-0.081 0.046,-0.146 -1.616996,-0.145 -1.664,0.002 -2.297,0.068 -1.408,0.148 m 71.067996,0.002 c 1.299,0.074 3.426,0.074 4.726,0 1.299,-0.073 0.236,-0.134 -2.363,-0.134 -2.6,0 -3.663,0.061 -2.363,0.134 m 106.806,1.8 c 0.004,0.832 0.081,1.127 0.172,0.657 0.09,-0.47 0.087,-1.151 -0.008,-1.512 -0.094,-0.362 -0.168,0.023 -0.164,0.855 m -171.551,-0.567 c -0.149,0.241 0.903,0.368 2.908,0.351 2.106,-0.018 2.892,-0.133 2.385,-0.351 -1.062,-0.456 -5.011,-0.456 -5.293,0 m 51.04,0 c -0.513,0.22 0.195,0.333 2.196,0.351 1.878,0.017 2.867,-0.111 2.718,-0.351 -0.281,-0.456 -3.854,-0.456 -4.914,0 m -5.788,0.875 c -2.463,0.55 -2.707,1.164 -0.525,1.321 1.971,0.142 5.954,-0.631 5.502,-1.068 -0.602,-0.583 -2.96,-0.703 -4.977,-0.253 m -37.457,0.195 c -0.4,0.275 -0.265,0.411 0.567,0.575 4.106,0.809 9.142,0.678 7.577,-0.197 -0.925,-0.518 -7.499,-0.823 -8.144,-0.378 m 19.426,1.558 c -6.432,0.294 -3.382,0.773 4.726,0.742 8.039,-0.03 11.184,-0.437 6.427,-0.831 -1.767,-0.146 -3.979,-0.233 -4.915,-0.192 -0.936,0.04 -3.743,0.167 -6.238,0.281 m 76.388,14.792 c -0.681,1.709 3.992,6.729 4.898,5.263 0.316,-0.511 -0.112,-1.133 -0.779,-1.133 -0.3,0 -0.545,-0.217 -0.545,-0.483 0,-0.927 -3.311,-4.306 -3.574,-3.647 m -13.353,18.686 c -0.107,22.86 -0.101,22.815 -4.246,29.832 -1.039,1.76 -1.889,3.437 -1.889,3.728 0,0.993 0.478,1.009 1.239,0.04 l 0.762,-0.968 1.93,2.021 c 1.062,1.111 3.261,2.87 4.887,3.91 1.625,1.04 3.751,2.493 4.724,3.23 0.973,0.737 2.705,1.734 3.849,2.215 1.144,0.482 2.335,1.072 2.647,1.311 1.756,1.344 6.869,3.112 10.019,3.463 1.039,0.116 2.834,0.476 3.988,0.799 3.435,0.961 27.133,-0.08 31.805,-1.398 2.008,-0.567 2.954,-0.153 2.965,1.296 0.01,1.44 0.642,1.984 0.882,0.76 0.217,-1.104 0.731,-5.943 0.688,-6.473 -0.066,-0.804 -1.359,-0.385 -2.437,0.79 -2.1,2.287 -3.688,2.558 -21.634,3.692 -3.327,0.21 -6.985,0.444 -8.129,0.519 -1.227,0.081 -2.544,-0.072 -3.214,-0.373 -1.175,-0.529 -8.717,-2.459 -9.608,-2.459 -0.279,0 -1.777,-0.723 -3.331,-1.606 -1.554,-0.884 -3.949,-2.174 -5.323,-2.866 -1.374,-0.692 -3.101,-1.733 -3.838,-2.314 -0.737,-0.581 -2.361,-1.582 -3.608,-2.225 -4.863,-2.505 -6.941,-6.597 -4.56,-8.978 0.324,-0.325 0.59,-0.821 0.59,-1.103 0,-0.282 0.284,-0.798 0.632,-1.146 0.6,-0.6 1.083,-1.986 2.038,-5.849 0.232,-0.935 0.664,-2.471 0.962,-3.412 0.734,-2.32 0.367,-4.293 -0.693,-3.725 -1.542,0.825 -1.607,0.259 -1.813,-15.849 l -0.198,-15.388 -0.086,18.526 m 20.613,-13.317 c -1.647,0.405 -1.828,0.912 -0.449,1.258 1.012,0.254 3.849,-0.005 4.23,-0.386 0.68,-0.68 -2.024,-1.304 -3.781,-0.872 m 54.77,1.24 c -0.128,0.334 -0.233,1.185 -0.233,1.892 0,0.707 -0.241,1.926 -0.535,2.71 -0.295,0.784 -0.642,2.596 -0.772,4.026 -0.13,1.431 -0.484,3.081 -0.788,3.668 -0.303,0.586 -0.551,1.673 -0.551,2.414 0,1.422 -1.695,8.904 -2.258,9.972 -0.904,1.71 -1.44,3.741 -1.12,4.245 0.509,0.806 0.424,2.358 -0.214,3.885 -0.312,0.747 -0.567,2.073 -0.567,2.947 0,0.893 -0.252,1.868 -0.576,2.226 -0.334,0.368 -0.674,1.734 -0.809,3.243 -0.128,1.434 -0.464,3.066 -0.747,3.628 -0.586,1.162 -0.699,4.461 -0.154,4.461 0.199,0 0.463,-0.638 0.588,-1.418 0.125,-0.78 0.4,-1.733 0.613,-2.119 0.38,-0.693 0.946,-3.032 2.07,-8.562 0.317,-1.559 0.718,-3.175 0.891,-3.591 0.593,-1.421 1.913,-7.558 2.156,-10.019 0.133,-1.352 0.386,-2.552 0.562,-2.668 0.323,-0.214 1.174,-4.169 1.867,-8.674 0.208,-1.352 0.62,-3.734 0.914,-5.293 0.984,-5.198 1.074,-6.604 0.458,-7.115 -0.454,-0.377 -0.606,-0.35 -0.795,0.142 m -181.832996,45.788 c -0.424,0.424 -0.3,27.347 0.126,27.347 0.245,0 0.378,-4.852 0.378,-13.799 0,-7.59 -0.057,-13.8 -0.126,-13.8 -0.069,0 -0.24,0.113 -0.378,0.252 m 171.040996,6.648 c 0.019,1.458 0.113,1.784 0.351,1.229 0.455,-1.059 0.455,-3.214 0,-3.214 -0.208,0 -0.366,0.893 -0.351,1.985 m -74.646,-0.656 c -0.346,0.903 -0.293,1.696 0.114,1.696 0.194,0 0.466,-0.358 0.604,-0.795 0.308,-0.971 -0.366,-1.818 -0.718,-0.901 m -4.014,8.406 c 0.004,0.757 0.098,0.895 0.343,0.507 0.186,-0.293 0.25,-0.761 0.143,-1.04 -0.307,-0.799 -0.492,-0.596 -0.486,0.533 m 75.86,7.064 c -0.349,2.548 -0.304,7.107 0.077,7.708 0.657,1.036 1.091,-7.196 0.463,-8.801 -0.219,-0.561 -0.35,-0.297 -0.54,1.093 m -81.537,3.052 c -0.523,1.373 -0.472,2.077 0.149,2.077 0.574,0 0.985,-0.793 0.985,-1.899 0,-1.139 -0.726,-1.253 -1.134,-0.178 m -1.335,3.249 c -0.139,0.437 -0.065,0.982 0.163,1.21 0.303,0.302 0.416,0.085 0.416,-0.794 0,-1.396 -0.218,-1.553 -0.579,-0.416 m -1.311,3.31 c 0,0.385 -0.426,1.16 -0.945,1.721 -0.564,0.608 -0.946,1.469 -0.946,2.134 0,0.613 -0.15,1.115 -0.335,1.115 -0.472,0 -0.904,3.24 -0.567,4.258 l 0.28,0.846 0.273,-0.945 c 0.151,-0.52 0.291,-1.484 0.312,-2.143 0.02,-0.658 0.216,-1.257 0.435,-1.329 0.837,-0.279 2.626,-6.358 1.871,-6.358 -0.208,0 -0.378,0.315 -0.378,0.701 m 82.616,6.151 c -0.154,2.001 -0.145,4.382 0.02,5.293 l 0.299,1.654 0.287,-1.512 c 0.377,-1.981 0.361,-7.354 -0.024,-8.317 -0.202,-0.505 -0.395,0.452 -0.582,2.882 m -86.706,9.405 c 0.009,2.324 0.029,2.381 0.383,1.05 0.249,-0.937 0.246,-1.757 -0.009,-2.457 -0.327,-0.895 -0.382,-0.686 -0.374,1.407 m 85.644,-0.521 c -0.148,0.148 -0.266,2.325 -0.263,4.837 0.007,5.297 0.556,5.331 0.94,0.058 0.236,-3.232 -0.077,-5.495 -0.677,-4.895 m -86.987,7.421 c -0.372,1.387 -0.269,5.891 0.14,6.143 0.242,0.15 0.378,-1.067 0.378,-3.38 0,-3.681 -0.112,-4.278 -0.518,-2.763 m 85.348,4.662 c -0.404,2.492 -0.398,5.093 0.015,6.018 0.446,1.001 0.927,-1.294 0.95,-4.537 0.021,-3.056 -0.564,-3.955 -0.965,-1.481 m -20.411,-0.397 c -0.886,1.352 -0.34,1.63 0.794,0.406 1.101,-1.188 1.151,-1.363 0.391,-1.363 -0.307,0 -0.841,0.431 -1.185,0.957 m -1.659,2.256 c 0,0.312 -0.222,0.568 -0.492,0.568 -1.223,0 -3.07,6.373 -2.373,8.189 0.366,0.954 0.961,-0.041 0.969,-1.621 0.003,-0.651 0.247,-1.384 0.543,-1.629 0.296,-0.245 0.652,-1.159 0.792,-2.031 0.141,-0.872 0.494,-1.962 0.786,-2.423 0.623,-0.982 0.683,-1.62 0.153,-1.62 -0.208,0 -0.378,0.256 -0.378,0.567 m -64.815,5.354 c -0.455,4.757 -0.434,12.157 0.035,12.627 0.584,0.584 0.992,-3.165 1.039,-9.549 0.041,-5.559 -0.647,-7.532 -1.074,-3.078 m 85.673,4.098 c 0.014,2.242 0.018,2.252 0.397,0.821 0.264,-0.994 0.26,-1.704 -0.013,-2.268 -0.324,-0.669 -0.395,-0.401 -0.384,1.447 m -25.017,5.127 c 0,1.178 0.145,1.823 0.378,1.679 0.208,-0.129 0.378,-0.99 0.378,-1.913 0,-0.924 -0.17,-1.679 -0.378,-1.679 -0.208,0 -0.378,0.861 -0.378,1.913 m 23.69,-0.044 c -0.415,2.078 -0.307,3.884 0.223,3.71 0.582,-0.192 0.818,-2.823 0.362,-4.054 -0.325,-0.879 -0.342,-0.868 -0.585,0.344"
     id="path1" />
  <path
     style="fill:#ffffff;fill-rule:evenodd;stroke:none"
     inkscape:connector-curvature="0"
     d="m 88.648233,13.62024 c -0.208,0.26 -0.514,0.898 -0.68,1.418 -0.383,1.199 -0.349,-3.826 -0.869,128.922 -0.242,61.862 -0.611,120.047 -0.821,129.301 -0.409,18.091 -0.519,89.528 -0.14,90.517 0.31,0.807 1.895,0.761 2.213,-0.064 0.14,-0.363 0.356,-33.98 0.479,-74.703 0.22,-72.767 0.237,-74.047 0.956,-74.313 0.822,-0.304 10.713997,0.817 12.754997,1.445 0.727,0.224 2.139,0.407 3.138,0.407 0.999,0 2.295,0.247 2.879,0.549 1.521,0.786 15.467,2.241 25.555,2.666 5.322,0.224 5.649,0.194 18.336,-1.697 1.352,-0.202 3.053,-0.608 3.781,-0.903 1.789,-0.724 6.923,-1.375 13.988,-1.772 3.224,-0.182 7.647,-0.52 9.83,-0.751 2.184,-0.232 6.058,-0.507 8.61,-0.611 l 4.641,-0.19 -0.104,29.463 c -0.071,20.278 -0.23,29.628 -0.51,29.993 -0.223,0.292 -0.604,1.225 -0.846,2.074 -0.382,1.338 -1.193,3.034 -2.877,6.018 -0.234,0.416 -0.865,1.437 -1.401,2.269 -0.536,0.832 -1.453,2.533 -2.038,3.78 -0.585,1.248 -1.174,2.354 -1.309,2.458 -0.354,0.272 -5.794,10.272 -7.199,13.232 -0.148,0.312 -0.798,1.588 -1.444,2.836 -2.383,4.6 -4.596,9.322 -4.596,9.806 0,0.274 -0.256,0.71 -0.568,0.969 -0.311,0.259 -0.568,0.663 -0.569,0.897 -0.001,0.234 -0.269,0.937 -0.595,1.561 -0.865,1.652 -2.427,9.726 -2.427,12.54 0,1.33 -0.255,3.028 -0.567,3.775 -0.312,0.746 -0.57,2.23 -0.573,3.296 -0.004,1.066 -0.255,2.959 -0.559,4.207 -0.305,1.248 -0.734,4.906 -0.954,8.129 -0.22,3.223 -0.564,6.676 -0.764,7.674 -0.811,4.041 -0.362,5.936 1.406,5.936 1.073,0 1.06,0.065 1.813,-8.695 1.856,-21.599 2.887,-29.524 4.207,-32.326 0.294,-0.623 0.695,-1.644 0.89,-2.268 0.196,-0.624 0.803,-2.325 1.349,-3.781 0.546,-1.455 1.089,-2.987 1.207,-3.402 0.117,-0.416 0.425,-1.012 0.684,-1.324 0.26,-0.312 0.833,-1.417 1.275,-2.457 0.441,-1.04 1.141,-2.52 1.554,-3.289 0.414,-0.769 0.752,-1.837 0.752,-2.374 0,-0.538 0.238,-1.068 0.529,-1.18 0.291,-0.112 1.586,-2.276 2.878,-4.809 1.292,-2.533 2.562,-4.86 2.821,-5.172 0.26,-0.312 0.952,-1.418 1.538,-2.458 0.586,-1.039 1.65,-2.789 2.365,-3.887 l 1.3,-1.996 1.184,1.348 c 1.193,1.358 5.668,4.717 7.423,5.571 0.52,0.253 1.081,0.677 1.247,0.941 0.167,0.264 0.476,0.481 0.687,0.481 0.212,0 0.926,0.407 1.588,0.904 1.231,0.925 8.837,4.781 10.493,5.32 0.91,0.296 2.652,0.687 8.448,1.898 5.186,1.082 25.924,0.487 31.034,-0.891 3.651,-0.985 3.685,-0.867 2.627,9.215 -0.305,2.911 -0.717,7.717 -0.915,10.679 -0.197,2.962 -0.53,6.025 -0.739,6.805 -0.209,0.781 -0.489,3.121 -0.621,5.2 -0.133,2.08 -0.478,4.62 -0.769,5.645 -0.29,1.026 -0.528,2.546 -0.528,3.379 0,0.832 -0.238,2.545 -0.529,3.806 -0.29,1.261 -0.731,4.164 -0.978,6.452 -0.247,2.287 -0.69,4.888 -0.984,5.779 -0.677,2.055 -0.689,5.396 -0.021,6.308 1.321,1.807 2.256,-0.566 2.92,-7.417 0.195,-2.007 0.608,-4.255 0.918,-4.998 0.31,-0.742 0.564,-2.109 0.564,-3.038 0,-0.929 0.175,-2.148 0.388,-2.709 0.213,-0.561 0.724,-3.933 1.135,-7.492 0.411,-3.559 0.85,-6.896 0.975,-7.416 0.126,-0.52 0.371,-3.072 0.544,-5.671 0.541,-8.088 1.126,-13.7 1.7,-16.311 0.303,-1.382 0.564,-3.594 0.579,-4.915 0.015,-1.322 0.168,-3.254 0.34,-4.294 0.6,-3.631 1.561,-7.945 1.911,-8.585 0.194,-0.355 0.465,-1.375 0.602,-2.268 0.137,-0.893 0.475,-2.073 0.752,-2.622 0.276,-0.549 0.66,-1.91 0.853,-3.024 0.193,-1.115 0.53,-2.537 0.75,-3.161 0.22,-0.624 0.756,-2.835 1.191,-4.915 0.435,-2.079 1.027,-4.631 1.315,-5.671 0.288,-1.04 0.688,-2.996 0.888,-4.348 0.2,-1.351 0.817,-4.159 1.37,-6.238 0.985,-3.698 1.787,-8.3 2.507,-14.367 0.197,-1.663 0.525,-3.414 0.73,-3.89 0.204,-0.476 0.48,-2.092 0.613,-3.592 0.133,-1.499 0.393,-3.019 0.577,-3.377 0.184,-0.359 0.495,-1.89 0.691,-3.403 0.196,-1.513 0.896,-4.367 1.556,-6.343 0.878,-2.627 1.244,-4.505 1.363,-6.994 0.089,-1.871 0.421,-4.082 0.737,-4.911 0.892,-2.344 0.907,-15.776 0.019,-17.548 -1.059,-2.111 -0.838,-2.679 2.104,-5.403 1.503,-1.393 4.034,-3.744 5.624,-5.226 1.591,-1.481 3.287,-3.438 3.77,-4.348 1.149,-2.165 2.073,-2.377 4.782,-1.096 2.424,1.147 6.994,1.188 7.811,0.07 0.225,-0.307 0.833,-0.689 1.352,-0.849 0.519,-0.159 1.175,-0.475 1.457,-0.701 0.282,-0.227 0.874,-0.592 1.315,-0.812 1.386,-0.691 1.823,-2.026 1.589,-4.855 -0.154,-1.851 -0.057,-2.917 0.341,-3.78 1.372,-2.97 1.902,-4.797 2.301,-7.932 0.199,-1.561 0.398,-1.896 1.434,-2.403 3.987,-1.954 4.181,-8.611 0.365,-12.539 -0.267,-0.275 -0.486,-0.734 -0.486,-1.021 0,-0.287 -0.231,-0.657 -0.514,-0.824 -1.341,-0.789 -1.228,-4.752 0.16,-5.61 0.198,-0.122 0.354,-3.09 0.354,-6.729 0,-5.058 0.122,-6.683 0.545,-7.288 0.962,-1.373 1.459,-5.463 1.012,-8.34 -0.991,-6.389 -4.353,-9.687 -13.439,-13.182 -1.441,-0.555 -2.887,-1.148 -3.214,-1.32 -4.255,-2.233 -21.27,-3.049 -23.655,-1.133 -0.209,0.167 -1.315,0.428 -2.459,0.58 -1.143,0.151 -2.504,0.488 -3.024,0.748 -0.52,0.26 -1.55,0.581 -2.29,0.715 -2.293,0.414 -5.315,2.229 -7.865,4.721 -1.616,1.58 -4.212,4.987 -4.212,5.528 0,0.271 -0.255,0.59 -0.567,0.71 -0.312,0.12 -0.568,0.436 -0.569,0.702 -0.002,0.266 -0.235,0.928 -0.518,1.471 -0.956,1.833 -2.138,6.001 -2.374,8.374 -0.129,1.298 -0.381,2.646 -0.56,2.995 -0.179,0.35 -0.401,3.412 -0.492,6.806 -0.092,3.393 -0.359,7.36 -0.594,8.816 -0.67,4.151 0.57,10.307 2.323,11.539 2.064,1.45 3.115,6.313 1.702,7.874 -1.234,1.363 -4.571,2.456 -6.584,2.156 -4.231,-0.63 -4.656,-0.65 -5.157,-0.235 -0.286,0.238 -1.784,0.575 -3.328,0.748 -1.544,0.173 -3.167,0.507 -3.606,0.742 -0.439,0.235 -1.367,0.427 -2.062,0.427 -0.695,0 -1.621,0.25 -2.057,0.555 -1.196,0.838 -3.428,1.048 -6.37,0.598 -1.455,-0.222 -4.007,-0.58 -5.671,-0.794 -2.012,-0.26 -3.183,-0.599 -3.497,-1.014 -0.576,-0.76 -0.624,-15.104 -0.099,-29.402 0.764,-20.767 0.945,-98.62 0.232,-99.212 -0.728,-0.604 -2.649,-1.001 -7.6,-1.573 -1.871,-0.216 -3.693,-0.55 -4.048,-0.742 -0.355,-0.192 -1.375,-0.449 -2.268,-0.571 -0.893,-0.122 -3.07,-0.537 -4.837,-0.922 -1.768,-0.386 -4.66,-0.891 -6.427,-1.122 -1.768,-0.232 -4.575,-0.599 -6.238,-0.814 -1.664,-0.216 -3.891,-0.635 -4.949,-0.932 -1.058,-0.296 -2.844,-0.54 -3.969,-0.541 -1.126,-10e-4 -2.557,-0.27 -3.181,-0.597 -0.624,-0.328 -2.24,-0.735 -3.591,-0.905 -1.352,-0.17 -3.989,-0.573 -5.861,-0.896 -7.016,-1.209 -10.869,-1.759 -12.325,-1.759 -0.825,0 -1.878,-0.241 -2.338,-0.536 -0.461,-0.295 -1.858,-0.657 -3.106,-0.804 -1.248,-0.147 -2.55,-0.413 -2.894,-0.592 -0.345,-0.178 -2.301,-0.583 -4.348,-0.899 -2.047,-0.317 -4.403,-0.741 -5.234,-0.942 -0.832,-0.202 -2.789,-0.377 -4.348,-0.39 -1.726,-0.013 -3.205,-0.234 -3.781,-0.562 -0.52,-0.298 -1.93,-0.547 -3.134,-0.554 -1.381,-0.009 -2.709,-0.279 -3.596,-0.731 -0.773,-0.395 -2.425,-0.831 -3.671,-0.97 -1.245,-0.139 -2.605,-0.398 -3.02,-0.575 -0.416,-0.177 -2.373,-0.519 -4.348,-0.761 -1.976,-0.242 -4.551997,-0.682 -5.725997,-0.977 -1.174,-0.295 -2.641,-0.536 -3.262,-0.536 -0.62,0 -1.739,-0.256 -2.485,-0.568 -1.654,-0.691 -2.678,-0.721 -3.179,-0.094 m 6.712,1.796 c 0,0.208 -0.68,0.378 -1.512,0.378 -0.832,0 -1.512,-0.17 -1.512,-0.378 0,-0.208 0.68,-0.378 1.512,-0.378 0.832,0 1.512,0.17 1.512,0.378 m 2.241,1.73 c 0.921,0.296 2.537997,0.544 3.591997,0.551 1.097,0.007 2.565,0.326 3.43,0.743 0.832,0.402 2.165,0.737 2.963,0.744 0.797,0.007 2.498,0.262 3.78,0.567 1.282,0.305 3.862,0.748 5.733,0.983 1.872,0.235 3.896,0.581 4.499,0.769 0.603,0.187 1.845,0.34 2.76,0.34 0.915,0 2.125,0.239 2.69,0.531 0.564,0.291 1.874,0.639 2.911,0.771 1.037,0.133 2.736,0.482 3.776,0.775 2.535,0.715 9.459,1.739 13.421,1.984 1.768,0.109 3.694,0.442 4.282,0.74 0.587,0.297 2.288,0.635 3.78,0.75 1.492,0.115 3.065,0.428 3.495,0.695 0.784,0.488 2.09,0.761 9.834,2.056 2.304,0.385 4.856,0.886 5.671,1.112 0.816,0.226 2.512,0.413 3.77,0.414 1.258,10e-4 2.473,0.187 2.699,0.414 0.381,0.381 2.594,0.803 9.947,1.897 1.56,0.231 3.049,0.482 3.308,0.556 0.656,0.188 0.684,96.216 0.033,112.81 l -0.451,11.516 -1.452,1.381 c -1.245,1.185 -1.454,1.618 -1.467,3.04 -0.009,0.912 -0.039,2.681 -0.067,3.932 -0.078,3.41 0.686,5.653 2.433,7.149 l 1.473,1.261 -1.243,0.996 c -0.684,0.549 -1.442,1.158 -1.684,1.354 -0.242,0.196 -0.873,0.466 -1.402,0.599 -0.529,0.132 -1.16,0.48 -1.402,0.771 -0.242,0.292 -0.678,0.53 -0.968,0.53 -0.291,0 -1.929,0.668 -3.64,1.483 -1.711,0.816 -3.494,1.593 -3.962,1.727 -0.468,0.134 -0.851,0.402 -0.851,0.596 0,0.194 -0.279,0.353 -0.62,0.353 -0.341,0 -1.319,0.318 -2.174,0.708 -3.061,1.395 -4.422,1.938 -4.85,1.938 -0.239,0 -1.126,0.31 -1.972,0.689 -3.123,1.4 -11.867,3.848 -13.741,3.848 -0.483,0 -1.419,0.28 -2.081,0.623 -1.058,0.547 -3.229,0.632 -17.845,0.698 -9.153,0.041 -20.299,0.273 -24.77,0.515 -15.335997,0.831 -21.738997,1.09 -22.081997,0.891 -0.204,-0.118 -0.228,-7.332 -0.059,-17.814 0.156,-9.689 0.401,-49.431 0.545,-88.315 0.144,-38.885 0.38,-70.89 0.524,-71.123 0.345,-0.558 5.212,-0.263 7.434,0.452 m 4.851997,-0.336 c -0.361,0.094 -1.042,0.098 -1.512,0.007 -0.47,-0.09 -0.174,-0.167 0.657,-0.172 0.832,-0.004 1.217,0.07 0.855,0.165 m 8.975,1.236 c 0.695,0.283 0.671,0.33 -0.288,0.582 -1.259,0.331 -4.438,-0.091 -4.438,-0.589 0,-0.43 3.668,-0.425 4.726,0.007 m 23.252,4.175 c 0.658,0.211 0.049,0.314 -2.007,0.34 -1.881,0.024 -2.868,-0.099 -2.719,-0.34 0.272,-0.44 3.35,-0.44 4.726,0 m 7.372,1.512 c 0.146,0.236 -0.619,0.378 -2.035,0.378 -1.247,0 -2.373,-0.17 -2.502,-0.378 -0.146,-0.236 0.619,-0.378 2.035,-0.378 1.248,0 2.374,0.17 2.502,0.378 m 24.1,4.1 c 0.577,0.577 -1.097,0.921 -3.06,0.627 -2.132,-0.319 -2.567,-0.552 -1.893,-1.012 0.619,-0.422 4.443,-0.125 4.953,0.385 m 7.211,1.644 c -0.568,0.274 -1.515,0.281 -3.025,0.023 l -2.199,-0.377 3.025,-0.022 c 2.38,-0.019 2.848,0.062 2.199,0.376 m 6.874,1.062 c 0.534,0.229 0.054,0.332 -1.629,0.351 -1.5,0.017 -2.298,-0.114 -2.151,-0.351 0.281,-0.455 2.723,-0.455 3.78,0 m 9.508,1.134 c 0.489,0 0.889,0.17 0.889,0.378 0,0.417 -5.586,0.532 -6.617,0.136 -1.272,-0.488 0.342,-0.935 2.609,-0.723 1.226,0.115 2.629,0.209 3.119,0.209 m 8.262,1.491 c 0.699,0.282 0.664,0.358 -0.452,1.009 -1.417,0.825 -1.614,1.391 -1.628,4.683 -0.006,1.352 -0.176,2.713 -0.378,3.025 -0.25,0.387 -0.368,-0.657 -0.372,-3.281 -0.007,-4.329 -0.341,-5.033 -2.396,-5.043 -0.915,-0.004 -1.066,-0.093 -0.634,-0.372 0.676,-0.437 4.788,-0.452 5.86,-0.021 m 6.616,1.533 c 0.4,0.259 -0.123,0.369 -1.774,0.373 -1.287,0.003 -2.445,-0.165 -2.574,-0.373 -0.305,-0.494 3.583,-0.494 4.348,0 m 6.639,1.312 c 0.676,0.511 0.58,0.556 -1.221,0.567 -2.177,0.013 -3.251,-0.274 -2.936,-0.784 0.337,-0.546 3.357,-0.388 4.157,0.217 m -6.802,0.358 c 1.025,0.295 2.753,0.65 3.838,0.79 2.799,0.361 2.555,-12.514 1.799,95.083 -0.197,27.969 -0.247,29.49 -0.969,29.49 -0.576,0 -4.127,-3.74 -4.127,-4.346 0,-1.557 -4.089,-2.815 -4.832,-1.487 -0.183,0.327 -1.042,0.689 -1.909,0.806 l -1.577,0.211 0.001,-37.573 c 0,-20.666 0.113,-47.909 0.251,-60.541 l 0.251,-22.968 h 2.704 c 1.488,0 3.544,0.241 4.57,0.535 m 7.628,9.767 c -0.07,1.716 -0.128,0.312 -0.128,-3.119 0,-3.431 0.058,-4.835 0.128,-3.119 0.07,1.715 0.07,4.523 0,6.238 m -16.272,54.47 c -0.123,38.205 -0.055,55.883 0.216,56.478 0.543,1.192 2.136,1.131 4.52,-0.173 1.36,-0.744 1.95,-0.905 2.072,-0.567 0.095,0.26 0.409,0.473 0.7,0.473 0.29,0 0.854,0.638 1.253,1.417 1.627,3.181 3.913,4.791 5.774,4.067 0.498,-0.194 0.677,0.072 0.887,1.312 0.224,1.328 0.422,1.587 1.361,1.774 1.297,0.26 1.47,0.881 0.244,0.881 -0.813,0 -4.974,-2.468 -6.464,-3.834 -0.386,-0.354 -1.236,-0.842 -1.89,-1.086 -3.101,-1.152 -3.116,-1.162 -2.41,-1.557 0.693,-0.387 0.905,-1.462 0.289,-1.462 -0.201,0 -0.551,0.348 -0.778,0.772 -0.369,0.689 -0.648,0.746 -2.567,0.529 -1.886,-0.213 -2.242,-0.145 -2.872,0.551 -0.697,0.77 -2.101,1.059 -2.622,0.539 -0.14,-0.141 0.129,-0.665 0.599,-1.165 l 0.854,-0.909 0.101,-57.077 c 0.071,-40.547 0.218,-57.004 0.506,-56.826 0.288,0.178 0.354,16.468 0.227,55.863 m 93.233,-0.897 c 0.872,0.198 2.391,0.463 3.377,0.59 0.985,0.126 2.038,0.477 2.341,0.78 0.302,0.302 1.073,0.654 1.713,0.782 0.641,0.128 1.256,0.381 1.368,0.562 0.286,0.464 -2.253,0.413 -2.721,-0.055 -0.211,-0.211 -1.904,-0.524 -3.761,-0.696 -1.917,-0.177 -3.939,-0.603 -4.674,-0.984 -0.97,-0.502 -2.376,-0.697 -5.601,-0.777 -2.368,-0.058 -4.407,-0.208 -4.533,-0.334 -0.374,-0.374 10.776,-0.257 12.491,0.132 m -14.483,1.109 c 0,0.445 -4.549,0.917 -5.463,0.566 -0.705,-0.27 -0.705,-0.282 0.009,-0.561 1.029,-0.404 5.454,-0.407 5.454,-0.005 m 10.01,0.396 c 0.213,0.167 1.833,0.517 3.601,0.777 4.795,0.706 10.406,2.128 12.098,3.067 0.312,0.173 1.642,0.86 2.956,1.527 1.588,0.805 2.983,1.907 4.159,3.284 l 1.77,2.071 -0.036,3.26 c -0.048,4.405 -1.309,6.418 -6.481,10.344 -1.718,1.304 -1.939,2.275 -0.562,2.472 0.919,0.131 2.691,-0.839 4.304,-2.357 2.639,-2.483 3.55,7.298 1.072,11.501 -1.625,2.756 -1.434,3.463 3.614,13.355 1.343,2.631 0.559,3.798 -2.291,3.407 -1.848,-0.253 -2.819,0.657 -1.634,1.532 0.453,0.334 0.523,0.985 0.345,3.253 -0.277,3.548 -1.27,4.321 -5.19,4.04 -2.693,-0.192 -3.275,0.051 -3.099,1.296 0.118,0.834 0.333,0.917 2.839,1.091 3.364,0.235 3.357,0.226 2.581,2.894 -0.358,1.234 -0.546,2.756 -0.428,3.48 0.245,1.513 -0.515,3.215 -1.749,3.913 -1.477,0.836 -9.125,0.554 -11.622,-0.428 -1.941,-0.765 -10.224,-4.853 -11.709,-5.781 -0.956,-0.597 -1.979,-0.094 -1.833,0.901 0.106,0.72 3.015,3.245 3.818,3.314 0.604,0.051 5.92,2.705 6.143,3.066 0.674,1.091 -4.001,7.545 -5.466,7.545 -0.181,0 -0.899,0.585 -1.595,1.299 -0.697,0.715 -3.194,3.263 -5.55,5.662 -4.577,4.662 -5.032,5.607 -2.803,5.823 2.273,0.219 -0.189,3.465 -3.034,3.999 -2.535,0.475 -10.863,-2.004 -10.863,-3.234 0,-0.174 -0.228,-0.317 -0.508,-0.317 -1.202,0 -5.919,-3.783 -5.919,-4.748 0,-0.521 -0.229,-1.494 -0.508,-2.164 -0.279,-0.669 -0.631,-1.897 -0.781,-2.728 -0.325,-1.801 -1.548,-5.899 -2.05,-6.871 -0.196,-0.38 -1.073,-2.137 -1.95,-3.905 -1.439,-2.902 -4.779,-7.612 -6.435,-9.073 -1.206,-1.064 -1.178,-1.787 0.079,-2.038 2.246,-0.449 8.227,-0.247 9.594,0.324 1.434,0.599 2.029,0.164 1.536,-1.122 -0.221,-0.575 -0.1,-0.628 1.731,-0.759 1.5,-0.107 2.263,-0.848 1.787,-1.738 -0.217,-0.405 -0.275,-1.527 -0.135,-2.586 0.324,-2.442 0.063,-3.324 -1.481,-4.99 -0.701,-0.758 -1.392,-1.609 -1.535,-1.891 -0.143,-0.282 -0.494,-0.919 -0.779,-1.417 -0.814,-1.416 -0.265,-2.282 0.65,-1.026 0.583,0.8 0.846,0.92 1.263,0.574 0.735,-0.611 0.656,-1.967 -0.178,-3.035 -0.429,-0.548 -0.775,-1.759 -0.883,-3.088 -0.341,-4.181 -1.097,-3.705 -1.671,1.053 -0.239,1.982 -0.308,2.125 -0.543,1.134 -0.46,-1.943 -0.381,-5.415 0.184,-8.054 0.317,-1.483 0.612,-5.612 0.711,-9.964 0.133,-5.837 0.301,-7.695 0.782,-8.659 0.336,-0.675 0.623,-1.584 0.637,-2.02 0.014,-0.436 0.526,-1.643 1.138,-2.683 0.611,-1.04 1.368,-2.442 1.68,-3.117 0.693,-1.497 5.64,-6.524 6.421,-6.524 0.141,0 0.69,-0.34 1.219,-0.756 0.528,-0.416 1.343,-0.756 1.809,-0.756 0.466,0 1.042,-0.234 1.279,-0.52 0.568,-0.684 2.204,-1.086 10.247,-2.516 1.352,-0.24 3.053,-0.58 3.781,-0.754 1.447,-0.347 4.856,-0.122 5.473,0.361 m -18.327,1.16 c 0,0.208 -0.511,0.378 -1.135,0.378 -0.742,0 -1.134,0.191 -1.134,0.553 0,0.322 -0.614,0.718 -1.473,0.949 -0.811,0.218 -1.571,0.65 -1.69,0.96 -0.118,0.31 -0.483,0.563 -0.81,0.563 -0.328,0 -0.96,0.34 -1.407,0.756 -0.967,0.901 -1.425,0.962 -1.425,0.189 0,-0.312 0.158,-0.567 0.351,-0.567 0.193,0 0.631,-0.28 0.973,-0.621 1.13,-1.131 3.114,-2.322 4.302,-2.583 0.644,-0.141 1.268,-0.414 1.386,-0.606 0.292,-0.471 2.062,-0.446 2.062,0.029 m 34.835,1.472 c -0.469,0.297 -1.943,0.151 -1.943,-0.193 0,-0.079 0.553,-0.142 1.229,-0.139 0.835,0.004 1.064,0.11 0.714,0.332 m 3.591,1.364 c 0.12,0.312 0.445,0.567 0.722,0.567 0.707,0 1.09,0.745 0.623,1.212 -0.268,0.267 -0.546,0.138 -0.89,-0.411 -0.275,-0.441 -0.785,-0.801 -1.134,-0.801 -0.907,0 -1.83,-0.402 -1.83,-0.797 0,-0.584 2.277,-0.376 2.509,0.23 m 5.798,6.081 c 0.019,1.447 -0.445,1.267 -1.354,-0.525 -1.194,-2.353 -1.138,-2.698 0.219,-1.366 0.618,0.607 1.129,1.457 1.135,1.891 m -56.701,0.724 c 0,0.312 -0.17,0.567 -0.378,0.567 -0.208,0 -0.378,-0.255 -0.378,-0.567 0,-0.312 0.17,-0.567 0.378,-0.567 0.208,0 0.378,0.255 0.378,0.567 m 38.272,1.85 c -0.62,0.706 -1.488,1.398 -1.93,1.538 -0.441,0.14 -0.803,0.395 -0.803,0.566 0,0.172 -0.397,0.412 -0.882,0.533 -5.598,1.405 -16.347,11.704 -14.947,14.321 0.42,0.784 0.438,0.785 0.951,0.069 1.732,-2.412 6.794,-7.661 7.874,-8.163 0.421,-0.196 1.446,-0.765 2.278,-1.266 0.832,-0.501 2.044,-1.155 2.693,-1.454 3.678,-1.692 7.364,-5.419 6.804,-6.879 -0.323,-0.84 -0.809,-0.665 -2.038,0.735 m -39.713,1.223 c -0.473,0.845 -0.958,0.014 -0.617,-1.058 0.229,-0.722 0.298,-0.743 0.61,-0.186 0.213,0.38 0.216,0.872 0.007,1.244 m 59.422,0.668 c 0.269,2.291 0.092,3.579 -0.937,6.813 -0.549,1.729 -0.729,3.574 -0.791,8.129 l -0.08,5.892 -0.204,-6.236 -0.203,-6.235 -1.323,-0.646 c -0.728,-0.356 -1.111,-0.655 -0.851,-0.665 0.26,-0.01 0.473,-0.252 0.473,-0.539 0,-0.286 0.244,-0.723 0.542,-0.971 0.529,-0.438 1.766,-3.88 2.285,-6.353 0.381,-1.819 0.818,-1.494 1.089,0.811 m -24.546,3.293 c -0.275,0.445 -1.677,0.438 -1.677,-0.008 0,-0.191 0.213,-0.421 0.473,-0.511 0.661,-0.231 1.456,0.112 1.204,0.519 m -2.055,1.051 c 0,0.436 -1.458,0.815 -1.69,0.439 -0.099,-0.159 -0.071,-0.399 0.062,-0.532 0.363,-0.362 1.628,-0.291 1.628,0.093 m -27.039,1.651 c -0.321,0.675 -1.009,1.973 -1.528,2.883 -2.053,3.603 -3.49,12.962 -2.421,15.774 0.676,1.776 1.188,0.481 1.496,-3.787 0.16,-2.202 0.465,-4.215 0.68,-4.475 0.214,-0.259 0.512,-1.152 0.661,-1.983 0.15,-0.832 0.402,-1.683 0.561,-1.891 0.543,-0.713 2.289,-6.749 2.097,-7.25 -0.325,-0.846 -0.934,-0.559 -1.546,0.729 m 13.336,2.972 c -1.636,1.22 -2.735,6.007 -1.379,6.007 0.186,0 0.337,-0.157 0.337,-0.349 0,-0.192 0.399,-0.83 0.887,-1.418 0.944,-1.139 2.219,-4.454 1.853,-4.82 -0.338,-0.337 -0.579,-0.255 -1.698,0.58 m 34.875,-0.443 c 0,0.446 -0.737,0.923 -1.008,0.653 -0.271,-0.271 0.206,-1.009 0.653,-1.009 0.195,0 0.355,0.161 0.355,0.356 m -48.393,0.567 c 0,0.3 -0.17,0.65 -0.378,0.779 -0.208,0.128 -0.378,-0.117 -0.378,-0.545 0,-0.428 0.17,-0.779 0.378,-0.779 0.208,0 0.378,0.246 0.378,0.545 m 19.573,1.039 c -0.233,0.701 -1.047,0.817 -1.047,0.149 0,-0.329 0.269,-0.598 0.598,-0.598 0.329,0 0.532,0.202 0.449,0.449 m -5.962,0.896 c 0,0.532 -0.154,0.872 -0.343,0.756 -0.188,-0.116 -0.254,-0.552 -0.145,-0.967 0.272,-1.041 0.488,-0.947 0.488,0.211 m 22.312,1.143 c -4.314,2.261 -5.231,4.398 -1.472,3.432 2.64,-0.679 6.283,-3.51 5.877,-4.567 -0.331,-0.865 -0.838,-0.734 -4.405,1.135 m -7.189,0.501 c -0.312,0.175 -1.362,0.434 -2.332,0.574 -0.971,0.14 -1.97,0.501 -2.221,0.803 -0.25,0.302 -0.681,0.549 -0.958,0.549 -1.52,0 -5.021,4.962 -5.661,8.024 -0.608,2.917 0.242,7.666 1.373,7.666 0.422,0 0.577,-0.969 0.73,-4.552 0.121,-2.838 0.373,-4.76 0.668,-5.104 0.261,-0.304 0.856,-1.148 1.322,-1.876 0.925,-1.445 4.015,-3.159 6.404,-3.553 1.396,-0.231 3.469,-1.951 3.09,-2.565 -0.247,-0.398 -1.684,-0.378 -2.415,0.034 m 7.183,1.359 c 0,0.352 -0.357,0.567 -0.945,0.567 -1.079,0 -1.278,-0.614 -0.284,-0.874 1.139,-0.298 1.229,-0.275 1.229,0.307 m -7.561,0.189 c 0,0.208 -0.596,0.378 -1.324,0.378 -0.728,0 -1.323,-0.17 -1.323,-0.378 0,-0.208 0.595,-0.378 1.323,-0.378 0.728,0 1.324,0.17 1.324,0.378 m 8.317,4.001 c -0.52,0.288 -1.466,0.527 -2.102,0.53 -1.582,0.007 -2.537,0.778 -2.376,1.917 0.152,1.077 0.57,1.106 4.789,0.327 2.517,-0.465 2.929,-0.449 4.537,0.173 2.685,1.039 3.633,1.138 4.21,0.442 1.733,-2.087 -6.113,-5.023 -9.058,-3.389 m 6.711,1.228 c 0.26,0.035 0.472,0.297 0.472,0.582 0,0.415 -0.356,0.449 -1.795,0.167 -0.988,-0.193 -3.192,-0.241 -4.899,-0.108 -3.087,0.243 -5.231,-0.17 -2.963,-0.569 1.002,-0.177 8.004,-0.232 9.185,-0.072 m -53.034,7.94 c -0.106,7.61 -0.074,7.239 -0.558,6.49 -0.406,-0.629 -0.507,-10.322 -0.13,-12.6 0.488,-2.958 0.779,-0.382 0.688,6.11 m 28.932,-6.008 c 0,0.403 -0.17,0.839 -0.378,0.967 -0.215,0.133 -0.378,-0.185 -0.378,-0.734 0,-0.532 0.17,-0.967 0.378,-0.967 0.208,0 0.378,0.33 0.378,0.734 m -17.784,1.089 c -4.495,2.971 -5.594,11.736 -2.003,15.976 0.278,0.328 0.506,0.754 0.507,0.945 0.004,0.652 4.014,4.505 5.317,5.108 1.643,0.761 5.078,-0.199 5.078,-1.418 0,-0.575 -0.326,-0.704 -1.89,-0.748 -3.431,-0.095 -3.592,-0.127 -3.592,-0.703 0,-0.312 0.308,-0.567 0.685,-0.567 1.254,0 2.34,-1.413 2.34,-3.045 0,-0.826 0.197,-1.818 0.437,-2.203 0.241,-0.386 0.332,-0.979 0.201,-1.319 -0.61,-1.589 -2.907,0.129 -2.907,2.175 0,0.986 -0.184,1.327 -0.802,1.489 -0.651,0.17 -0.771,0.429 -0.633,1.367 0.117,0.795 0.013,1.158 -0.332,1.158 -0.275,0 -0.501,-0.164 -0.501,-0.364 0,-0.2 -0.314,-0.667 -0.697,-1.039 -0.383,-0.372 -1.08,-1.698 -1.548,-2.945 -0.468,-1.248 -1.09,-2.75 -1.383,-3.339 -1.119,-2.254 0.179,-7.058 1.907,-7.058 1.704,0 5.123,2.753 5.123,4.125 0,0.953 0.942,1.658 1.835,1.375 0.622,-0.198 0.705,-0.481 0.537,-1.827 -0.164,-1.314 -0.111,-1.511 0.303,-1.121 0.761,0.717 1.782,0.566 2.058,-0.305 0.221,-0.697 0.386,-0.598 1.6,0.961 1.491,1.913 2.484,2.097 2.67,0.493 0.084,-0.728 -0.312,-1.562 -1.393,-2.93 -0.831,-1.051 -1.613,-2.231 -1.737,-2.623 -0.324,-1.019 -2.129,-1.303 -2.372,-0.373 -0.216,0.827 -1.432,0.953 -1.875,0.195 -1.011,-1.732 -5.181,-2.597 -6.933,-1.44 m 49.542,-0.122 c 0,0.312 -0.17,0.567 -0.378,0.567 -0.208,0 -0.378,-0.255 -0.378,-0.567 0,-0.312 0.17,-0.567 0.378,-0.567 0.208,0 0.378,0.255 0.378,0.567 m -220.896997,4.253 c -0.081,0.78 -0.148,0.142 -0.148,-1.417 0,-1.56 0.067,-2.198 0.148,-1.418 0.082,0.78 0.082,2.056 0,2.835 m 176.850997,-2.741 c 0,0.208 -0.594,0.435 -1.319,0.504 -0.726,0.069 -1.442,0.322 -1.592,0.564 -0.203,0.329 -0.388,0.321 -0.74,-0.031 -0.258,-0.258 -0.851,-0.469 -1.317,-0.469 -0.972,0 -1.506,-0.595 -0.799,-0.891 0.83,-0.348 5.767,-0.071 5.767,0.323 m 28.828,0.968 c -0.991,0.589 -0.88,2.806 0.179,3.548 1.879,1.316 5.965,0.613 5.965,-1.027 0,-0.389 0.263,-0.97 0.584,-1.291 0.321,-0.321 0.52,-0.777 0.442,-1.013 -0.185,-0.56 -6.281,-0.745 -7.17,-0.217 m 5.216,1.868 c 0,1.603 -0.172,1.709 -2.475,1.517 -1.212,-0.101 -1.282,-0.186 -0.822,-1.006 0.244,-0.437 0.251,-0.921 0.021,-1.352 -0.321,-0.6 -0.166,-0.671 1.458,-0.671 h 1.818 v 1.512 m -31.337,0.255 c -0.39,0.39 -0.968,-0.29 -0.743,-0.876 0.204,-0.532 0.267,-0.528 0.585,0.041 0.196,0.35 0.267,0.726 0.158,0.835 m 41.339,-0.422 c 0,0.3 -0.17,0.545 -0.378,0.545 -0.208,0 -0.378,-0.35 -0.378,-0.778 0,-0.429 0.17,-0.674 0.378,-0.545 0.208,0.128 0.378,0.479 0.378,0.778 m 2.133,3.887 c 0.75,0.512 2.026,3.533 2.026,4.798 0,1.696 -0.65,1.697 -0.968,0.002 -0.135,-0.72 -0.483,-1.507 -0.773,-1.748 -0.29,-0.24 -0.528,-0.83 -0.528,-1.309 0,-0.48 -0.242,-1.114 -0.537,-1.41 -0.56,-0.559 -0.74,-1.197 -0.611,-2.163 0.043,-0.325 0.278,-0.108 0.55,0.507 0.261,0.591 0.639,1.186 0.841,1.323 m -45.158,-0.62 c -0.353,0.353 -0.453,0.252 -0.453,-0.454 0,-0.705 0.1,-0.806 0.453,-0.453 0.353,0.353 0.353,0.554 0,0.907 m -8.015,6.185 c 0,0.508 -0.17,0.923 -0.378,0.923 -0.208,0 -0.378,-0.521 -0.378,-1.157 0,-0.674 0.157,-1.059 0.378,-0.923 0.208,0.129 0.378,0.649 0.378,1.157 m 45.388,0.417 c -1.586,2.016 -1.545,4.224 0.088,4.765 1.567,0.52 2.569,-0.368 1.444,-1.279 -0.923,-0.748 -1.035,-2.039 -0.244,-2.829 0.543,-0.543 0.418,-1.663 -0.186,-1.663 -0.171,0 -0.667,0.453 -1.102,1.006 m -38.583,2.585 c 0,0.615 -1.331,0.788 -1.683,0.218 -0.186,-0.3 0.336,-0.576 1.4,-0.741 0.156,-0.024 0.283,0.211 0.283,0.523 m -176.505997,19.403 c -0.097,19.821 -0.021,20.959 1.437,21.422 1.022,0.324 0.984,0.737 -0.113,1.237 -1.096,0.499 -1.593,5.341 -1.157,11.279 0.289,3.936 0.255,3.884 2.993,4.531 1.099,0.259 1.077,0.281 -0.719,0.688 -2.591,0.587 -2.433,-1.702 -2.521,36.525 -0.044,19.027 -0.209,33.658 -0.367,32.515 -0.348,-2.517 -0.464,-123.542 -0.12,-126.045 0.544,-3.973 0.657,-0.43 0.567,17.848 m 223.008997,-18.12 c 0,0.338 -0.889,0.797 -1.543,0.797 -0.191,0 -0.347,-0.256 -0.347,-0.567 0,-0.353 0.357,-0.568 0.945,-0.568 0.52,0 0.945,0.152 0.945,0.338 m -57.467,2.309 c 0,0.599 -0.165,1.192 -0.367,1.316 -0.454,0.281 -0.932,-1.476 -0.621,-2.284 0.344,-0.897 0.988,-0.266 0.988,0.968 m 55.199,-0.378 c 0,0.416 -0.17,0.756 -0.378,0.756 -0.208,0 -0.378,-0.34 -0.378,-0.756 0,-0.416 0.17,-0.756 0.378,-0.756 0.208,0 0.378,0.34 0.378,0.756 m -41.377,1.099 c -0.117,0.188 -0.552,0.253 -0.968,0.145 -1.04,-0.272 -0.946,-0.488 0.212,-0.488 0.532,0 0.872,0.154 0.756,0.343 m -67.778,1.694 c 0.46,0.289 1.504,0.642 2.319,0.785 1.463,0.258 4.42,1.94 7.06,4.018 1.568,1.234 3.338,1.751 8.093,2.363 1.872,0.241 3.403,0.583 3.403,0.76 0,0.756 -6.689,2.315 -12.426,2.895 -2.26,0.229 -4.472,0.641 -4.915,0.917 -0.444,0.276 -1.295,0.616 -1.892,0.754 -0.597,0.139 -1.332,0.5 -1.634,0.802 -1.224,1.224 -5.031,-0.268 -5.031,-1.971 0,-0.243 -0.213,-0.543 -0.472,-0.666 -0.26,-0.123 0.25,-0.135 1.134,-0.027 0.961,0.118 1.607,0.043 1.607,-0.186 0,-0.211 -0.256,-0.383 -0.568,-0.383 -0.311,0 -0.567,-0.255 -0.567,-0.567 0,-0.312 -0.146,-0.567 -0.325,-0.567 -0.517,0 -3.064,-2.534 -2.806,-2.792 0.128,-0.128 0.952,-0.232 1.831,-0.232 2.512,0 1.79,-2.467 -1.026,-3.503 -0.401,-0.148 -0.37,-0.333 0.149,-0.877 0.702,-0.736 1.588,-0.573 4.702,0.861 1.286,0.593 3.011,0.549 2.875,-0.073 -0.046,-0.208 -0.506,-0.431 -1.022,-0.496 -0.516,-0.065 -1.036,-0.423 -1.154,-0.797 -0.119,-0.373 -0.595,-0.861 -1.058,-1.085 l -0.842,-0.407 0.864,-0.025 c 0.475,-0.014 1.24,0.21 1.701,0.499 m 53.051,0.137 c 0.112,0.364 0.368,0.966 0.568,1.339 0.549,1.023 0.084,1.402 -1.724,1.402 -1.053,0 -1.711,0.188 -1.841,0.528 -0.159,0.414 -1.545,0.556 -6.449,0.661 -7.85,0.169 -8.032,0.289 -4.947,3.271 2.799,2.705 4.712,4.798 4.712,5.153 0,0.149 0.256,0.526 0.567,0.838 0.312,0.312 0.568,0.98 0.568,1.485 0,0.505 0.154,0.918 0.342,0.918 0.46,0 2.188,2.991 2.527,4.374 0.149,0.61 0.427,1.21 0.616,1.335 0.488,0.321 0.985,4.377 0.608,4.96 -0.445,0.688 -1.052,-0.318 -1.076,-1.784 -0.01,-0.624 -0.347,-1.815 -0.749,-2.646 -0.402,-0.832 -0.742,-1.768 -0.755,-2.08 -0.014,-0.312 -0.275,-0.897 -0.58,-1.301 -0.306,-0.403 -0.555,-1.121 -0.555,-1.593 0,-0.473 -0.341,-1.042 -0.757,-1.265 -0.415,-0.222 -0.756,-0.616 -0.756,-0.874 0,-0.258 -0.297,-0.744 -0.661,-1.079 -0.364,-0.336 -1.061,-1.267 -1.55,-2.069 -0.998,-1.641 -4.599,-4.673 -5.55,-4.673 -0.341,0 -1.721,-0.293 -3.066,-0.652 -1.775,-0.473 -2.518,-0.534 -2.709,-0.224 -0.146,0.235 -0.86,0.581 -1.587,0.768 -1.672,0.43 -2.133,2.395 -0.737,3.142 0.525,0.281 0.688,0.569 0.455,0.802 -0.404,0.404 -2.364,0.038 -2.364,-0.441 0,-0.167 -0.723,-0.417 -1.607,-0.554 -2.747,-0.427 -3.163,-0.601 -2.424,-1.015 1.382,-0.773 0.738,-1.74 -1.357,-2.035 -1.921,-0.271 -1.949,-0.292 -0.877,-0.657 0.744,-0.253 1.804,-0.247 3.227,0.018 2.213,0.411 3.6,0.196 7.197,-1.116 3.302,-1.204 7.217,-1.885 10.336,-1.796 6.149,0.176 7.823,0.084 8.484,-0.461 0.358,-0.296 1.1,-0.762 1.649,-1.036 0.548,-0.273 1.215,-0.904 1.481,-1.401 0.572,-1.069 1.058,-1.157 1.341,-0.242 m 54.633,3.199 c -0.293,0.77 -0.558,0.923 -1.337,0.774 -1.212,-0.232 -1.21,-0.358 0.021,-1.499 1.173,-1.087 1.861,-0.708 1.316,0.725 m -113.792,-0.054 c 0.604,0.323 0.665,0.514 0.307,0.946 -0.757,0.912 -1.868,0.671 -1.868,-0.405 0,-1.029 0.394,-1.165 1.561,-0.541 m 112.429,6.997 c -10e-4,2.418 -0.137,3.354 -0.506,3.478 -0.418,0.14 -0.476,-5.074 -0.082,-7.476 0.199,-1.215 0.59,1.443 0.588,3.998 m -69.83,-1.82 c 1.535,0.889 4.081,3.495 5.096,5.217 0.253,0.429 0.885,1.45 1.405,2.269 0.96,1.512 2.64,5.336 2.647,6.026 0.003,0.208 0.269,0.885 0.592,1.504 0.323,0.62 0.761,1.938 0.974,2.93 0.213,0.992 0.543,1.804 0.734,1.804 0.19,0 0.346,0.259 0.346,0.577 0,0.989 -1.758,-0.221 -5.387,-3.709 -2.892,-2.778 -3.308,-3.341 -3.308,-4.469 0,-3.239 -3.411,-7.159 -8.56,-9.836 -2.537,-1.319 -3.163,-1.809 -3.078,-2.41 0.224,-1.588 5.736,-1.526 8.539,0.097 m -42.307,0.488 c 0.456,0.015 0.396,0.165 -0.247,0.613 -1.023,0.714 -1.062,1.153 -0.19,2.117 0.637,0.704 0.627,0.725 -0.283,0.597 -0.632,-0.089 -0.91,-0.342 -0.841,-0.763 0.057,-0.346 -0.05,-1.316 -0.239,-2.157 -0.372,-1.656 0.221,-2.44 0.855,-1.131 0.188,0.387 0.613,0.713 0.945,0.724 m 24.785,1.466 c 0.119,0.194 0.044,0.459 -0.167,0.59 -0.92,0.568 -0.38,1.671 0.939,1.919 0.728,0.136 1.323,0.399 1.323,0.584 0,0.497 -1.525,0.41 -4.365,-0.249 -1.387,-0.321 -4.494,-0.668 -6.905,-0.77 -2.412,-0.101 -4.441,-0.242 -4.511,-0.312 -0.222,-0.222 5.528,-0.979 7.436,-0.979 1.007,0 2.404,-0.249 3.103,-0.553 1.469,-0.637 2.833,-0.737 3.147,-0.23 m 6.559,1.004 c 2.534,1.397 2.544,1.416 3.235,6.206 1.357,9.404 0.376,19.944 -2.869,30.813 -0.716,2.396 -2.032,5.373 -2.591,5.859 -0.121,0.104 -0.682,1.05 -1.249,2.101 -2.076,3.852 -7.559,8.478 -12.473,10.523 -2.706,1.126 -2.735,1.065 -4.539,-9.41 -0.287,-1.663 -0.645,-3.322 -0.796,-3.686 -0.447,-1.072 1.528,-0.833 4.237,0.515 3.769,1.874 5.39,1.11 2.909,-1.371 -3.159,-3.159 -9.106,-3.939 -21.33,-2.797 -1.975,0.185 -5.718,0.516 -8.317,0.736 -2.6,0.221 -5.592,0.648 -6.65,0.95 -1.161,0.332 -3.584,0.549 -6.11,0.549 -2.303,0 -5.521,0.256 -7.15,0.567 -1.63,0.312 -3.729,0.576 -4.665,0.587 -0.936,0.011 -2.977,0.275 -4.537,0.586 -1.559,0.311 -3.69,0.707 -4.734,0.881 -1.044,0.173 -2.709,0.59 -3.699,0.927 -2.508,0.851 -16.924,0.891 -19.064,0.053 -0.784,-0.307 -3.297,-0.718 -5.584,-0.913 -4.937,-0.422 -11.515,-1.363 -14.934,-2.137 -1.352,-0.306 -3.529,-0.556 -4.838997,-0.554 -1.31,0.002 -2.841,-0.228 -3.403,-0.511 -0.561,-0.283 -2.176,-0.617 -3.588,-0.743 -1.412,-0.126 -2.71,-0.318 -2.885,-0.425 -0.845,-0.523 -0.899,-12.412 -0.062,-13.767 0.153,-0.247 1.201,-0.54 2.329,-0.651 1.128,-0.11 2.751,-0.377 3.607,-0.592 1.899,-0.477 3.943,-0.531 32.280997,-0.849 22.661,-0.254 24.248,-0.349 29.679,-1.773 0.832,-0.218 2.363,-0.536 3.403,-0.707 2.709,-0.445 7.106,-1.842 10.208,-3.246 0.623,-0.282 1.729,-0.773 2.457,-1.091 0.728,-0.319 1.579,-0.736 1.89,-0.928 0.312,-0.193 2.269,-1.058 4.348,-1.924 4.453,-1.854 6.219,-2.68 6.995,-3.274 0.312,-0.239 1.502,-0.808 2.646,-1.264 1.144,-0.457 3.951,-1.733 6.238,-2.836 5.862,-2.827 6.624,-3.122 9.322,-3.611 1.319,-0.239 2.605,-0.606 2.858,-0.815 0.591,-0.489 3.291,-0.24 9.12,0.842 3.976,0.738 4.715,0.787 5.009,0.33 0.591,-0.92 0.203,-1.656 -1.073,-2.032 -1.354,-0.399 -1.587,-1.093 -0.567,-1.687 1.148,-0.668 3.1,-0.443 4.937,0.569 m 58.513,0.58 c 0.113,0.183 -0.315,0.333 -0.951,0.333 -1.072,0 -1.45,-0.336 -0.945,-0.841 0.278,-0.279 1.635,0.085 1.896,0.508 m -52.202,0.333 c 0.129,0.208 0.527,0.378 0.885,0.378 0.831,0 4.975,4.164 4.975,4.998 0,0.346 0.17,0.733 0.378,0.862 0.208,0.128 0.378,0.56 0.378,0.959 0,1.195 -1.512,0.215 -2.977,-1.928 -0.701,-1.027 -1.382,-1.867 -1.512,-1.867 -0.438,0 -3.45,-2.932 -3.45,-3.359 0,-0.524 1.006,-0.557 1.323,-0.043 m -33.201,2.332 c 1.644,0.057 1.683,0.078 0.403,0.212 -0.938,0.098 -1.417,0.339 -1.417,0.711 0,0.31 -0.584,0.808 -1.298,1.106 -0.713,0.298 -1.404,0.715 -1.534,0.926 -0.305,0.492 -2.461,0.504 -2.461,0.013 0,-0.204 0.429,-0.479 0.955,-0.611 1.378,-0.346 2.564,-3.555 1.313,-3.555 -0.208,0 -0.378,-0.19 -0.378,-0.423 0,-0.233 0.584,0.023 1.298,0.567 0.937,0.715 1.804,1.008 3.119,1.054 m 5.113,-1.1 c -0.909,0.291 -1.363,0.281 -1.682,-0.039 -0.332,-0.331 -0.029,-0.428 1.245,-0.398 l 1.682,0.038 -1.245,0.399 m 83.098,-0.098 c 0,0.478 -0.773,0.478 -1.513,0 -0.442,-0.286 -0.337,-0.368 0.473,-0.372 0.572,-0.003 1.04,0.164 1.04,0.372 m 3.185,1.765 c 0.133,0.346 0.045,0.814 -0.196,1.039 -0.316,0.296 -0.486,0.276 -0.613,-0.07 -0.097,-0.263 -0.428,-0.731 -0.736,-1.039 -0.495,-0.496 -0.452,-0.561 0.372,-0.561 0.52,0 1.038,0.278 1.173,0.631 m 12.314,0.976 c 0.001,0.156 -0.301,0.284 -0.671,0.284 -0.369,0 -0.963,0.34 -1.319,0.756 -0.52,0.607 -1.115,0.756 -3.025,0.756 -1.909,0 -2.504,-0.149 -3.024,-0.756 -0.356,-0.416 -1.065,-0.756 -1.574,-0.756 -0.51,0 -1.019,-0.149 -1.131,-0.331 -0.113,-0.183 2.234,-0.309 5.269,-0.283 3.011,0.025 5.474,0.174 5.475,0.33 m -116.792,5.612 c -0.606,0.242 -1.047,0.234 -1.305,-0.024 -0.267,-0.267 0.02,-0.382 0.915,-0.366 1.226,0.023 1.249,0.046 0.39,0.39 m -2.866,1.099 c 0.135,0.218 -0.216,0.375 -0.829,0.372 -0.824,-0.004 -0.935,-0.088 -0.494,-0.372 0.726,-0.47 1.033,-0.47 1.323,0 m 77.016,3.875 c -0.694,0.836 0.851,6.12 2.216,7.579 0.429,0.458 1.146,1.429 1.594,2.156 1.17,1.904 2.043,2.764 2.51,2.476 0.865,-0.535 0.124,-2.574 -1.863,-5.122 -0.568,-0.728 -1.16,-1.749 -1.316,-2.269 -0.157,-0.519 -0.515,-1.208 -0.797,-1.531 -0.282,-0.322 -0.65,-1.245 -0.817,-2.051 -0.33,-1.586 -0.873,-2.026 -1.527,-1.238 m -85.901,0.266 c 0,0.199 -0.638,0.476 -1.418,0.615 -0.779,0.14 -1.673,0.475 -1.985,0.745 -0.741,0.642 -2.714,0.856 -2.905,0.315 -0.085,-0.242 0.485,-0.523 1.337,-0.659 0.817,-0.131 1.584,-0.494 1.704,-0.807 0.244,-0.636 3.267,-0.828 3.267,-0.209 m 75.993,1.764 c 0,0.785 -0.154,1.228 -0.379,1.089 -0.207,-0.128 -0.378,-0.829 -0.378,-1.557 0,-0.786 0.154,-1.228 0.378,-1.089 0.208,0.128 0.379,0.829 0.379,1.557 m -82.798,0.86 c 0,0.48 -0.987,0.796 -2.489,0.796 -1.353,0 -1.769,-0.576 -0.63,-0.873 1.201,-0.314 3.119,-0.267 3.119,0.077 m -5.766,1.035 c 1.424,0.381 0.957,0.828 -1.134,1.085 -2.854,0.35 -4.556,-0.323 -2.174,-0.859 2.177,-0.491 2.292,-0.499 3.308,-0.226 m -18.998,2.03 c -0.146,0.236 -3.966,0.378 -10.208,0.378 -6.242,0 -10.062,-0.142 -10.208,-0.378 -0.153,-0.249 3.343,-0.378 10.208,-0.378 6.865,0 10.362,0.129 10.208,0.378 m 13.044,-0.035 c -0.867,0.49 -4.791,0.878 -6.058,0.6 -2.3,-0.505 -1.008,-0.943 2.749,-0.932 2.32,0.007 3.648,0.14 3.309,0.332 m 118.501,1.129 c 0.115,0.186 -0.04,0.434 -0.344,0.551 -0.591,0.227 -1.095,-0.245 -0.693,-0.647 0.342,-0.342 0.792,-0.3 1.037,0.096 m -170.014,0.321 c -1.819,0.07 -4.795997,0.07 -6.615997,0 -1.819,-0.069 -0.331,-0.126 3.307997,-0.126 3.639,0 5.128,0.057 3.308,0.126 m 97.625,8.804 c -1.695,0.281 -2.116,0.548 -2.365,1.5 -0.263,1.005 0.753,1.543 2.419,1.282 2.14,-0.337 8.149,0.428 8.847,1.126 0.339,0.34 0.775,0.617 0.967,0.617 0.193,0 1.024,0.61 1.849,1.354 2.603,2.352 4.259,0.725 1.831,-1.8 -1.933,-2.01 -3.716,-2.905 -6.96,-3.491 -4.221,-0.762 -5.078,-0.839 -6.588,-0.588 m 9.433,2.115 c 0.456,0.411 -0.489,0.561 -1.928,0.305 -1.462,-0.259 -1.534,-0.318 -0.687,-0.562 0.851,-0.246 2.204,-0.113 2.615,0.257 m 1.954,1.005 c 0.844,0.648 1.617,2.162 1.103,2.162 -0.222,0 -0.501,-0.256 -0.621,-0.568 -0.119,-0.311 -0.529,-0.567 -0.911,-0.567 -0.796,0 -1.269,-0.579 -0.927,-1.134 0.301,-0.487 0.615,-0.462 1.356,0.107 m -7.405,4.808 c 0.129,0.208 0.813,0.378 1.52,0.378 0.756,0 1.565,0.289 1.963,0.7 0.372,0.385 1.016,0.884 1.432,1.109 0.718,0.388 0.721,0.422 0.064,0.675 -0.429,0.166 -1.24,-0.04 -2.131,-0.541 -3.531,-1.985 -5.378,-0.934 -4.417,2.514 0.331,1.188 0.768,3.606 0.97,5.373 0.203,1.768 0.565,3.769 0.806,4.447 0.466,1.313 0.239,2.562 -0.393,2.171 -0.21,-0.129 -0.381,-0.639 -0.381,-1.131 0,-0.493 -0.249,-1.145 -0.553,-1.449 -0.305,-0.305 -0.735,-1.721 -0.958,-3.147 -0.222,-1.426 -0.639,-3.358 -0.927,-4.294 -0.288,-0.935 -0.627,-2.32 -0.753,-3.077 -0.231,-1.38 -1.482,-2.23 -2.211,-1.502 -0.17,0.171 -0.214,2.76 -0.097,5.753 0.612,15.617 0.629,32.483 0.035,33.078 -0.457,0.457 -0.585,1.492 -0.585,4.717 0,2.776 -0.138,4.132 -0.42,4.132 -0.487,0 -0.088,-8.676 0.466,-10.138 0.45,-1.188 0.403,-10.529 -0.094,-18.596 -0.225,-3.639 -0.518,-9.508 -0.653,-13.043 l -0.244,-6.428 -1.135,0.106 c -0.623,0.059 -1.559,0.082 -2.079,0.052 -0.52,-0.03 -3.242,-0.104 -6.049,-0.164 -8.437,-0.183 -8.199,-0.165 -7.504,-0.57 0.344,-0.201 3.193,-0.453 6.331,-0.56 6.248,-0.214 9.517,-0.466 9.807,-0.756 0.362,-0.362 7.958,-0.185 8.19,0.191 m -104.621,2.543 c -0.774997,0.082 -2.135997,0.083 -3.024997,0.003 -0.889,-0.08 -0.256,-0.146 1.408,-0.148 1.662997,-0.001 2.390997,0.064 1.616997,0.145 m 72.769,0.005 c -1.3,0.074 -3.427,0.074 -4.726,0 -1.3,-0.073 -0.237,-0.134 2.363,-0.134 2.599,0 3.662,0.061 2.363,0.134 m 23.851,9.078 c 0.536,20.157 0.227,36.891 -0.654,35.386 -0.806,-1.378 -0.678,-44.743 0.132,-44.743 0.15,0 0.385,4.21 0.522,9.357 m 78.401,-6.621 c -0.091,0.47 -0.168,0.175 -0.172,-0.657 -0.004,-0.832 0.07,-1.217 0.164,-0.855 0.095,0.361 0.098,1.042 0.008,1.512 m -166.43,-1.224 c 0.507,0.218 -0.279,0.333 -2.385,0.351 -2.005,0.017 -3.057,-0.11 -2.908,-0.351 0.282,-0.456 4.231,-0.456 5.293,0 m 50.661,0 c 0.149,0.24 -0.84,0.368 -2.718,0.351 -2.001,-0.018 -2.709,-0.131 -2.196,-0.351 1.06,-0.456 4.633,-0.456 4.914,0 m -5.725,1.128 c 0.452,0.437 -3.531,1.21 -5.502,1.068 -2.182,-0.157 -1.938,-0.771 0.525,-1.321 2.017,-0.45 4.375,-0.33 4.977,0.253 m -34.29,0.32 c 1.565,0.875 -3.471,1.006 -7.577,0.197 -0.832,-0.164 -0.967,-0.3 -0.567,-0.575 0.645,-0.445 7.219,-0.14 8.144,0.378 m 82.514,5.854 c 0.227,0.586 0.413,1.403 0.413,1.817 0,0.414 0.31,1.466 0.689,2.338 1.127,2.595 1.897,4.554 2.165,5.508 0.332,1.188 1.679,3.451 2.054,3.451 0.163,0 0.379,0.314 0.479,0.698 0.604,2.309 5.597,3.867 11.148,3.479 1.202,-0.084 2.539,0.087 3.403,0.435 5.615,2.262 9.479,2.932 18.436,3.197 10.075,0.298 19.16,-0.962 25.009,-3.469 1.821,-0.781 2.756,0.012 2.113,1.792 -0.256,0.708 -0.575,2.638 -0.709,4.288 -0.133,1.651 -0.474,3.461 -0.757,4.022 -0.283,0.562 -0.514,1.603 -0.514,2.314 0,0.711 -0.341,2.358 -0.756,3.66 -0.416,1.301 -0.757,2.692 -0.757,3.089 0,0.952 -1.409,5.473 -2.181,6.999 -0.5,0.986 -0.528,1.383 -0.154,2.202 0.25,0.549 0.373,1.131 0.273,1.293 -0.1,0.162 -0.375,1.552 -0.611,3.091 -0.237,1.538 -0.563,2.966 -0.725,3.174 -0.318,0.408 -0.838,2.499 -1.742,6.995 -0.313,1.559 -0.816,3.663 -1.117,4.674 -0.301,1.012 -0.548,2.575 -0.548,3.473 0,2.819 -3.863,6.092 -7.297,6.182 -0.79,0.02 -1.946,0.301 -2.569,0.623 -1.6,0.828 -27.091,1.027 -28.068,0.22 -0.345,-0.285 -1.937,-0.765 -3.539,-1.068 -2.738,-0.517 -7.168,-2.261 -8.432,-3.321 -0.312,-0.261 -1.871,-1.167 -3.465,-2.012 -1.593,-0.845 -3.723,-2.101 -4.733,-2.791 -1.009,-0.69 -2.649,-1.68 -3.643,-2.2 -3.445,-1.8 -4.325,-4.51 -2.482,-7.636 0.648,-1.099 1.328,-2.34 1.511,-2.758 0.184,-0.417 0.484,-1.014 0.669,-1.326 0.185,-0.312 0.773,-2.523 1.308,-4.915 1.352,-6.051 1.399,-6.291 1.813,-9.263 0.203,-1.455 0.564,-3.156 0.802,-3.78 0.292,-0.768 0.505,-7.428 0.659,-20.605 0.125,-10.709 0.277,-19.556 0.338,-19.66 0.061,-0.104 0.334,0.917 0.608,2.269 0.273,1.351 0.682,2.936 0.909,3.521 m -60.079,-4.763 c 3.03,0.251 3.117,0.281 1.512,0.537 -2.275,0.362 -13.786,0.39 -15.69,0.039 -1.474,-0.273 -0.714,-0.336 9.263,-0.768 0.936,-0.041 3.148,0.046 4.915,0.192 m 68.809,18.528 c 0,0.266 0.245,0.483 0.545,0.483 0.667,0 1.095,0.622 0.779,1.133 -0.906,1.466 -5.579,-3.554 -4.898,-5.263 0.263,-0.659 3.574,2.72 3.574,3.647 m -16.014,27.721 c 0.311,0.31 0.643,0.318 1.184,0.029 1.06,-0.568 1.427,1.405 0.693,3.725 -0.298,0.941 -0.73,2.477 -0.962,3.412 -0.955,3.863 -1.438,5.249 -2.038,5.849 -0.348,0.348 -0.632,0.864 -0.632,1.146 0,0.282 -0.266,0.778 -0.59,1.103 -2.381,2.381 -0.303,6.473 4.56,8.978 1.247,0.643 2.871,1.644 3.608,2.225 0.737,0.581 2.464,1.622 3.838,2.314 1.374,0.692 3.769,1.982 5.323,2.866 1.554,0.883 3.052,1.606 3.331,1.606 0.891,0 8.433,1.93 9.608,2.459 0.67,0.301 1.987,0.454 3.214,0.373 1.144,-0.075 4.802,-0.309 8.129,-0.519 17.946,-1.134 19.534,-1.405 21.634,-3.692 1.078,-1.175 2.371,-1.594 2.437,-0.79 0.043,0.53 -0.471,5.369 -0.688,6.473 -0.24,1.224 -0.872,0.68 -0.882,-0.76 -0.011,-1.449 -0.957,-1.863 -2.965,-1.296 -4.672,1.318 -28.37,2.359 -31.805,1.398 -1.154,-0.323 -2.949,-0.683 -3.988,-0.799 -3.15,-0.351 -8.263,-2.119 -10.019,-3.463 -0.312,-0.239 -1.503,-0.829 -2.647,-1.311 -1.144,-0.481 -2.876,-1.478 -3.849,-2.215 -0.973,-0.737 -3.099,-2.19 -4.724,-3.23 -1.626,-1.04 -3.825,-2.799 -4.887,-3.91 l -1.93,-2.021 -0.762,0.968 c -0.761,0.969 -1.239,0.953 -1.239,-0.04 0,-0.291 0.85,-1.968 1.889,-3.728 4.145,-7.017 4.139,-6.972 4.246,-29.832 l 0.086,-18.526 0.198,15.388 c 0.138,10.796 0.326,15.517 0.629,15.82 m 23.501,-25.548 c 0.362,0.361 -0.216,0.639 -1.762,0.846 -1.671,0.224 -3.456,-0.094 -3.456,-0.615 0,-0.894 4.362,-1.087 5.218,-0.231 m 52.084,3.019 c -0.133,1.049 -0.483,3.183 -0.778,4.743 -0.294,1.559 -0.706,3.941 -0.914,5.293 -0.693,4.505 -1.544,8.46 -1.867,8.674 -0.176,0.116 -0.429,1.316 -0.562,2.668 -0.243,2.461 -1.563,8.598 -2.156,10.019 -0.173,0.416 -0.574,2.032 -0.891,3.591 -1.124,5.53 -1.69,7.869 -2.07,8.562 -0.213,0.386 -0.488,1.339 -0.613,2.119 -0.125,0.78 -0.389,1.418 -0.588,1.418 -0.545,0 -0.432,-3.299 0.154,-4.461 0.283,-0.562 0.619,-2.194 0.747,-3.628 0.135,-1.509 0.475,-2.875 0.809,-3.243 0.324,-0.358 0.576,-1.333 0.576,-2.226 0,-0.874 0.255,-2.2 0.567,-2.947 0.638,-1.527 0.723,-3.079 0.214,-3.885 -0.32,-0.504 0.216,-2.535 1.12,-4.245 0.563,-1.068 2.258,-8.55 2.258,-9.972 0,-0.741 0.248,-1.828 0.551,-2.414 0.304,-0.587 0.658,-2.237 0.788,-3.668 0.13,-1.43 0.477,-3.242 0.772,-4.026 0.294,-0.784 0.535,-2.003 0.535,-2.71 0,-1.938 0.338,-2.607 1.028,-2.034 0.426,0.354 0.503,0.924 0.32,2.372 m -182.443997,57.106 c 0,8.947 -0.133,13.799 -0.378,13.799 -0.245,0 -0.378,-4.768 -0.378,-13.547 0,-11.952 0.094,-14.052 0.63,-14.052 0.069,0 0.126,6.21 0.126,13.8 m 171.239997,-7.656 c -0.049,2.277 -0.674,2.948 -0.703,0.756 -0.015,-1.092 0.143,-1.985 0.351,-1.985 0.208,0 0.366,0.553 0.352,1.229 m -74.631,1.001 c -0.138,0.437 -0.41,0.795 -0.604,0.795 -0.407,0 -0.46,-0.793 -0.114,-1.696 0.352,-0.917 1.026,-0.07 0.718,0.901 m -4.246,6.972 c 0.107,0.279 0.043,0.747 -0.143,1.04 -0.245,0.388 -0.339,0.25 -0.343,-0.507 -0.006,-1.129 0.179,-1.332 0.486,-0.533 m 76.227,9.513 c 0.033,3.249 -0.389,6.402 -0.776,5.792 -0.381,-0.601 -0.426,-5.16 -0.077,-7.708 0.327,-2.388 0.82,-1.281 0.853,1.916 m -81.256,1.314 c 0,1.106 -0.411,1.899 -0.985,1.899 -0.621,0 -0.672,-0.704 -0.149,-2.077 0.408,-1.075 1.134,-0.961 1.134,0.178 m -1.89,3.487 c 0,0.879 -0.113,1.096 -0.416,0.794 -0.228,-0.228 -0.302,-0.773 -0.163,-1.21 0.361,-1.137 0.579,-0.98 0.579,0.416 m -1.136,2.665 c -0.003,0.909 -1.854,5.754 -2.247,5.886 -0.219,0.072 -0.415,0.671 -0.435,1.329 -0.021,0.659 -0.161,1.623 -0.312,2.143 l -0.273,0.945 -0.28,-0.846 c -0.337,-1.018 0.095,-4.258 0.567,-4.258 0.185,0 0.335,-0.502 0.335,-1.115 0,-0.665 0.382,-1.526 0.946,-2.134 0.519,-0.561 0.945,-1.336 0.945,-1.721 0,-0.386 0.17,-0.701 0.378,-0.701 0.208,0 0.377,0.213 0.376,0.472 m 82.751,7.278 c 0.003,1.664 -0.124,3.705 -0.283,4.537 l -0.287,1.512 -0.299,-1.654 c -0.373,-2.061 0.123,-9.272 0.562,-8.175 0.166,0.415 0.305,2.117 0.307,3.78 m -87.212,9.557 c -0.354,1.331 -0.374,1.274 -0.383,-1.05 -0.008,-2.093 0.047,-2.302 0.374,-1.407 0.255,0.7 0.258,1.52 0.009,2.457 m 85.938,3.324 c -0.384,5.273 -0.933,5.239 -0.94,-0.058 -0.003,-2.512 0.115,-4.689 0.263,-4.837 0.6,-0.6 0.913,1.663 0.677,4.895 m -87.146,5.289 c 0,2.313 -0.136,3.53 -0.378,3.38 -0.622,-0.384 -0.402,-6.994 0.233,-6.994 0.08,0 0.145,1.626 0.145,3.614 m 64.952,-0.332 c -0.568,0.149 -2.808,2.829 -3.908,4.674 -0.216,0.363 -0.59,0.897 -0.831,1.187 -0.768,0.926 -1.439,4.384 -2.223,11.462 -0.115,1.04 -0.468,2.464 -0.784,3.165 -0.44,0.977 -0.479,1.486 -0.165,2.174 0.905,1.987 2.65,0.396 2.953,-2.693 0.122,-1.247 0.373,-2.561 0.557,-2.92 0.184,-0.358 0.498,-1.941 0.698,-3.517 0.205,-1.62 0.613,-3.115 0.937,-3.44 0.316,-0.315 0.574,-0.989 0.574,-1.497 0,-1.113 1.923,-4.624 3.273,-5.973 0.734,-0.734 0.913,-1.205 0.732,-1.926 -0.234,-0.933 -0.51,-1.039 -1.813,-0.696 m 20.843,3.712 c -0.023,3.243 -0.504,5.538 -0.95,4.537 -0.413,-0.925 -0.419,-3.526 -0.015,-6.018 0.401,-2.474 0.986,-1.575 0.965,1.481 m -19.633,-2.666 c 0,0.411 -1.921,2.194 -2.134,1.981 -0.364,-0.364 0.945,-2.15 1.576,-2.15 0.307,0 0.558,0.076 0.558,0.169 m -2.646,2.869 c 0,0.215 -0.239,0.768 -0.531,1.228 -0.292,0.461 -0.645,1.551 -0.786,2.423 -0.14,0.872 -0.496,1.786 -0.792,2.031 -0.296,0.245 -0.54,0.978 -0.543,1.629 -0.008,1.58 -0.603,2.575 -0.969,1.621 -0.697,-1.816 1.15,-8.189 2.373,-8.189 0.27,0 0.492,-0.256 0.492,-0.568 0,-0.311 0.17,-0.567 0.378,-0.567 0.208,0 0.378,0.176 0.378,0.392 m -64.497,8.607 c -0.047,6.384 -0.455,10.133 -1.039,9.549 -0.469,-0.47 -0.49,-7.87 -0.035,-12.627 0.427,-4.454 1.115,-2.481 1.074,3.078 m 84.996,1.841 c -0.379,1.431 -0.383,1.421 -0.397,-0.821 -0.011,-1.848 0.06,-2.116 0.384,-1.447 0.273,0.564 0.277,1.274 0.013,2.268 m -24.658,4.072 c 0,0.923 -0.17,1.784 -0.378,1.913 -0.233,0.144 -0.378,-0.501 -0.378,-1.679 0,-1.052 0.17,-1.913 0.378,-1.913 0.208,0 0.378,0.755 0.378,1.679 m 23.742,2.248 c -0.144,1.912 -1.058,2.344 -1.058,0.499 0,-0.719 0.113,-1.869 0.25,-2.557 0.347,-1.733 0.973,-0.139 0.808,2.058"
     id="path2" />
</svg>
