<?xml version="1.0" encoding="UTF-8" standalone="no"?>
<svg
   id="svg"
   version="1.1"
   width="400"
   height="377.93103"
   viewBox="0 0 400 377.93103"
   sodipodi:docname="C18-19.svg"
   inkscape:version="0.92.5 (2060ec1f9f, 2020-04-08)"
   inkscape:export-filename="C18.svg"
   inkscape:export-xdpi="96"
   inkscape:export-ydpi="96"
   xmlns:inkscape="http://www.inkscape.org/namespaces/inkscape"
   xmlns:sodipodi="http://sodipodi.sourceforge.net/DTD/sodipodi-0.dtd"
   xmlns="http://www.w3.org/2000/svg"
   xmlns:svg="http://www.w3.org/2000/svg"
   xmlns:rdf="http://www.w3.org/1999/02/22-rdf-syntax-ns#"
   xmlns:cc="http://creativecommons.org/ns#"
   xmlns:dc="http://purl.org/dc/elements/1.1/">
  <metadata
     id="metadata11">
    <rdf:RDF>
      <cc:Work
         rdf:about="">
        <dc:format>image/svg+xml</dc:format>
        <dc:type
           rdf:resource="http://purl.org/dc/dcmitype/StillImage" />
      </cc:Work>
    </rdf:RDF>
  </metadata>
  <defs
     id="defs9" />
  <sodipodi:namedview
     pagecolor="#ffffff"
     bordercolor="#666666"
     borderopacity="1"
     objecttolerance="10"
     gridtolerance="10"
     guidetolerance="10"
     inkscape:pageopacity="0"
     inkscape:pageshadow="2"
     inkscape:window-width="1366"
     inkscape:window-height="689"
     id="namedview7"
     showgrid="false"
     inkscape:zoom="0.62445256"
     inkscape:cx="200"
     inkscape:cy="188.96552"
     inkscape:window-x="0"
     inkscape:window-y="0"
     inkscape:window-maximized="1"
     inkscape:current-layer="svg"
     inkscape:showpageshadow="0"
     inkscape:pagecheckerboard="0"
     inkscape:deskcolor="#d1d1d1" />
  <g
     id="g823"
     transform="matrix(-1,0,0,1,403.25784,2.1975524)"
     style="fill:#ffffff">
    <path
       id="path0"
       d="m 246.459,7.954 c -2.606,1.333 -3.594,2.969 -2.902,4.803 0.361,0.956 0.326,1.323 -0.199,2.125 -0.82,1.251 -0.867,4.022 -0.069,4.022 0.312,0 0.57,-0.298 0.573,-0.662 0.003,-0.364 0.247,-1.087 0.543,-1.607 1.285,-2.261 2.476,-4.843 2.476,-5.367 0,-1.464 0.805,-2.867 1.535,-2.676 0.809,0.212 0.954,1.253 0.334,2.411 -0.444,0.831 -0.122,2.362 0.427,2.024 0.193,-0.12 0.35,-0.645 0.35,-1.169 0,-0.845 0.137,-0.938 1.229,-0.832 1.732,0.169 1.641,-1.661 -0.158,-3.181 -1.483,-1.253 -1.476,-1.253 -4.139,0.109 m 3.247,6.902 c -0.622,3.319 0.69,5.986 1.434,2.913 0.176,-0.727 0.416,-1.707 0.532,-2.176 0.231,-0.926 -0.423,-1.982 -1.229,-1.982 -0.277,0 -0.608,0.56 -0.737,1.245 m -2.447,0.456 c 0,0.52 0.17,0.945 0.378,0.945 0.208,0 0.378,-0.425 0.378,-0.945 0,-0.52 -0.17,-0.945 -0.378,-0.945 -0.208,0 -0.378,0.425 -0.378,0.945 m -6.888,1.762 c -0.081,0.241 -0.075,0.926 0.012,1.522 0.211,1.432 1.205,0.712 1.205,-0.873 0,-1.082 -0.911,-1.568 -1.217,-0.649 m 5.849,1.262 c 0.004,0.832 0.082,1.128 0.172,0.658 0.091,-0.471 0.087,-1.151 -0.007,-1.513 -0.095,-0.361 -0.169,0.024 -0.165,0.855 m -11.947,1.609 c -0.559,0.905 0.257,2.324 1.4,2.435 1.009,0.098 1.208,0.287 1.317,1.249 0.248,2.198 0.838,2.261 2.007,0.214 1.557,-2.725 1.37,-5.271 -0.21,-2.86 -0.815,1.244 -1.427,1.193 -2.243,-0.189 -0.621,-1.051 -1.86,-1.514 -2.271,-0.849 m 14.504,1.133 c 0.004,1.054 0.1,1.272 0.372,0.85 0.482,-0.745 0.482,-2.268 0,-2.268 -0.208,0 -0.375,0.638 -0.372,1.418 m -15.271,2.188 c -0.687,1.792 -0.096,11.308 0.63,10.134 0.435,-0.704 0.464,-10.45 0.032,-10.6 -0.235,-0.081 -0.532,0.129 -0.662,0.466 m 16.646,1.972 c -0.576,0.932 -0.699,5.764 -0.147,5.764 0.789,0 1.035,-0.811 1.035,-3.411 0,-2.011 -0.417,-3.115 -0.888,-2.353 m -67.543,5.764 c -0.721,0.231 -0.453,0.305 1.134,0.314 1.487,0.008 1.864,-0.082 1.323,-0.314 -0.912,-0.392 -1.233,-0.392 -2.457,0 M 135.708,47.07 c -0.189,20.105 -0.043,65.658 0.211,65.912 0.173,0.174 0.292,-16.704 0.351,-50.033 0.014,-7.486 -0.073,-17.779 -0.192,-22.873 -0.208,-8.872 -0.223,-8.577 -0.37,6.994 m 36.246,-11.534 c -0.665,0.759 -0.82,1.137 -0.464,1.137 0.293,0 0.533,-0.158 0.533,-0.352 0,-0.193 0.382,-0.406 0.85,-0.472 0.468,-0.067 0.851,-0.362 0.851,-0.657 0,-0.962 -0.752,-0.815 -1.77,0.344 m 22.624,-0.498 c -0.335,0.334 1.247,2.013 1.896,2.013 0.694,0 0.636,-0.194 -0.393,-1.304 -0.958,-1.034 -1.108,-1.105 -1.503,-0.709 m -25.781,2.788 c -0.359,0.581 0.133,0.956 0.618,0.471 0.272,-0.271 0.278,-0.483 0.02,-0.642 -0.211,-0.131 -0.499,-0.054 -0.638,0.171 m 67.586,3.384 c 0,0.728 0.077,1.025 0.173,0.661 0.095,-0.363 0.095,-0.959 0,-1.323 -0.096,-0.364 -0.173,-0.066 -0.173,0.662 m -73.172,0.62 c -0.402,0.402 0.102,0.874 0.693,0.647 0.304,-0.117 0.459,-0.364 0.344,-0.551 -0.245,-0.396 -0.695,-0.438 -1.037,-0.096 m 37.056,0.897 c -0.298,1.139 0.42,2.604 0.902,1.842 0.463,-0.731 0.424,-1.215 -0.165,-2.02 -0.483,-0.661 -0.52,-0.652 -0.737,0.178 m -28.965,3.166 c -0.309,0.373 -0.325,0.62 -0.051,0.789 0.219,0.136 0.504,-0.026 0.632,-0.361 0.319,-0.831 -0.032,-1.09 -0.581,-0.428 m 66.608,1.744 c 0,0.936 0.074,1.319 0.164,0.851 0.09,-0.468 0.09,-1.234 0,-1.702 -0.09,-0.467 -0.164,-0.085 -0.164,0.851 m -67.927,-0.155 c -0.315,0.821 0.149,1.52 0.569,0.857 0.426,-0.672 0.425,-1.458 -0.001,-1.458 -0.186,0 -0.442,0.27 -0.568,0.601 m 32.039,3.558 c 0,1.767 0.066,2.49 0.145,1.607 0.08,-0.884 0.08,-2.33 0,-3.214 -0.079,-0.884 -0.145,-0.161 -0.145,1.607 m -35.073,0.599 c -1.738,1.883 -2.478,2.425 -3.308,2.425 -1.247,0 -1.412,0.739 -0.318,1.422 0.451,0.282 0.848,1.074 0.993,1.981 0.387,2.419 1.26,1.512 1.275,-1.323 0.004,-0.83 0.412,-1.516 1.517,-2.557 0.832,-0.782 1.512,-1.675 1.512,-1.985 0,-0.309 0.152,-0.562 0.338,-0.562 0.474,0 0.883,-1.202 0.525,-1.544 -0.163,-0.155 -1.303,0.809 -2.534,2.143 m 71.992,0.868 c 0,1.517 0.511,2.363 0.867,1.437 0.248,-0.648 -0.108,-2.48 -0.534,-2.743 -0.183,-0.113 -0.333,0.475 -0.333,1.306 m 10.97,-0.995 c 0.013,1.079 0.739,1.632 0.745,0.567 0.003,-0.571 -0.165,-1.039 -0.372,-1.039 -0.208,0 -0.376,0.212 -0.373,0.472 m -79.553,4.452 c -0.784,0.868 -1.42,2.041 -1.572,2.898 -0.14,0.792 -0.598,1.714 -1.018,2.048 -0.503,0.4 -0.62,0.696 -0.344,0.867 0.504,0.311 1.682,-0.971 1.969,-2.143 0.113,-0.462 0.485,-0.894 0.827,-0.96 2.232,-0.429 3.195,5.054 1.08,6.148 -1.275,0.659 -1.224,1.843 0.108,2.542 0.442,0.232 0.94,0.652 1.106,0.933 0.534,0.904 1.488,0.627 1.17,-0.339 -0.394,-1.192 -0.287,-4.413 0.228,-6.892 0.51,-2.459 0.044,-4.424 -1.363,-5.741 l -0.874,-0.819 -1.317,1.458 m 30.292,1.235 c -0.488,1.271 -0.733,6.599 -0.316,6.857 0.649,0.401 1.179,-1.437 1.172,-4.062 -0.005,-2.421 -0.447,-3.862 -0.856,-2.795 m -37.267,5.372 c -0.006,1.444 0.07,1.697 0.322,1.072 0.184,-0.456 0.188,-1.293 0.009,-1.891 -0.278,-0.926 -0.323,-0.815 -0.331,0.819 m 90.638,-0.095 c -0.093,1.011 0.142,1.998 0.649,2.722 0.29,0.415 0.528,1.128 0.528,1.585 0,1.256 0.394,2.026 1.036,2.026 0.736,0 0.443,-2.766 -0.394,-3.715 -0.307,-0.348 -0.675,-1.186 -0.819,-1.861 -0.254,-1.2 -0.914,-1.698 -1,-0.757 m -54.866,4.443 c -0.387,1.311 -0.359,3.693 0.046,3.943 0.485,0.3 0.646,-0.833 0.425,-2.998 -0.16,-1.568 -0.241,-1.729 -0.471,-0.945 m -34.483,1.099 c -0.117,0.189 -0.053,0.742 0.143,1.229 0.332,0.828 0.356,0.806 0.378,-0.343 0.025,-1.243 -0.134,-1.512 -0.521,-0.886 m 92.274,2.209 c 0.356,1.484 0.521,1.534 0.521,0.157 0,-0.658 -0.173,-1.197 -0.385,-1.197 -0.229,0 -0.284,0.423 -0.136,1.04 m -81.521,0.661 c 0,0.364 0.365,0.568 1.018,0.568 0.976,0 0.987,-0.023 0.283,-0.556 -0.944,-0.714 -1.301,-0.717 -1.301,-0.012 m 67.681,1.04 c 0.003,0.884 0.171,1.862 0.372,2.174 0.26,0.403 0.368,-0.064 0.373,-1.607 0.003,-1.201 -0.164,-2.174 -0.373,-2.174 -0.208,0 -0.375,0.723 -0.372,1.607 m -45.771,0.308 c -0.302,0.194 -1,0.258 -1.552,0.142 -0.552,-0.116 -1.115,-0.03 -1.251,0.19 -0.136,0.22 -0.642,0.4 -1.124,0.4 -0.483,0 -1.123,0.37 -1.423,0.822 -0.436,0.656 -1.014,0.855 -2.876,0.99 -1.282,0.092 -2.25,0.298 -2.152,0.457 0.37,0.599 4.365,0.806 6.467,0.335 2.062,-0.461 2.14,-0.449 2.828,0.446 l 0.707,0.92 0.008,-0.96 c 0.005,-0.528 0.331,-1.592 0.725,-2.365 0.74,-1.452 0.6,-1.991 -0.357,-1.377 m -15.199,1.024 c -0.364,0.078 -0.662,0.288 -0.662,0.466 0,0.788 3.537,1.149 4.252,0.434 0.24,-0.24 0.275,-0.44 0.077,-0.445 -0.197,-0.005 -0.954,-0.141 -1.682,-0.303 -0.728,-0.161 -1.621,-0.23 -1.985,-0.152 m 61.38,3.76 c -1.646,1.289 -0.906,1.755 2.223,1.401 2.155,-0.244 2.853,-0.916 0.952,-0.916 -0.496,0 -1.132,-0.329 -1.413,-0.731 -0.5,-0.713 -0.543,-0.707 -1.762,0.246 m -76.408,0.898 c 0,1.23 0.155,1.588 0.756,1.746 0.416,0.108 0.756,0.433 0.756,0.72 0,0.288 0.259,0.523 0.576,0.523 0.503,0 0.508,-0.107 0.042,-0.85 -0.294,-0.468 -0.736,-1.489 -0.983,-2.269 -0.592,-1.867 -1.147,-1.804 -1.147,0.13 m 70.283,1.835 c -1.146,1.046 -1.188,1.154 -0.447,1.154 0.45,0 0.91,-0.147 1.022,-0.328 0.111,-0.181 0.9,-0.44 1.752,-0.576 1.805,-0.289 1.863,-1.113 0.091,-1.29 -0.858,-0.086 -1.478,0.181 -2.418,1.04 m -64.748,-0.474 c -0.133,0.133 -0.242,0.544 -0.242,0.914 0,0.369 -0.378,0.936 -0.841,1.26 l -0.84,0.589 0.839,0.587 c 0.52,0.364 0.931,1.159 1.079,2.088 0.355,2.217 0.807,2.144 1.097,-0.178 0.378,-3.02 -0.26,-6.092 -1.092,-5.26 m 54.2,3.863 c -1.257,0.23 -1.276,0.255 -0.378,0.511 1.333,0.379 3.113,0.332 3.781,-0.099 0.462,-0.299 0.415,-0.368 -0.253,-0.372 -0.451,-0.004 -1.046,-0.068 -1.323,-0.144 -0.277,-0.076 -1.099,-0.029 -1.827,0.104 m -16.008,0.667 c -0.141,0.141 -1.473,0.268 -2.961,0.284 -3.068,0.032 -3.701,0.583 -1.873,1.632 0.632,0.362 1.315,1 1.518,1.418 0.344,0.706 0.371,0.692 0.395,-0.205 0.054,-2.047 2.258,-2.258 3.263,-0.313 0.629,1.215 1.302,1.436 1.295,0.426 -0.016,-2.574 -0.784,-4.095 -1.637,-3.242 m -37.066,4.858 c -0.346,0.346 -0.885,1.124 -1.198,1.728 -0.312,0.604 -0.733,1.098 -0.936,1.098 -1.211,0 -0.077,0.704 1.312,0.814 l 1.68,0.134 0.42,-1.669 c 0.522,-2.073 -0.17,-3.213 -1.278,-2.105 m 39.085,0.747 c 0,0.816 0.153,1.274 0.379,1.134 0.207,-0.128 0.378,-0.639 0.378,-1.134 0,-0.495 -0.171,-1.006 -0.378,-1.134 -0.226,-0.14 -0.379,0.318 -0.379,1.134 m -44.234,3.97 c 0,0.208 -0.351,0.378 -0.781,0.378 -1.842,0 -2.347,0.696 -1.246,1.716 0.552,0.512 1.135,0.93 1.295,0.93 0.161,0 0.561,0.104 0.89,0.23 0.429,0.164 0.598,0.004 0.598,-0.567 0,-0.438 -0.182,-0.797 -0.404,-0.797 -0.833,0 -0.156,-1.672 0.782,-1.932 l 0.945,-0.261 -1.039,-0.038 c -0.572,-0.02 -1.04,0.133 -1.04,0.341 m -5.577,2.14 c -0.546,0.221 -0.645,1.262 -0.119,1.262 0.853,0 2.318,-0.789 2.105,-1.133 -0.244,-0.395 -1.175,-0.455 -1.986,-0.129 m 80.976,0.17 c -0.32,0.518 0.529,1.093 1.221,0.828 0.279,-0.107 0.507,-0.432 0.507,-0.721 0,-0.626 -1.355,-0.709 -1.728,-0.107 m -65.817,0.9 c 0.24,0.519 0.655,0.944 0.922,0.946 0.266,10e-4 0.638,0.385 0.826,0.853 0.329,0.818 0.343,0.811 0.366,-0.189 0.016,-0.683 -0.17,-1.04 -0.543,-1.04 -0.315,0 -0.567,-0.336 -0.567,-0.756 0,-0.491 -0.252,-0.756 -0.721,-0.756 -0.632,0 -0.667,0.115 -0.283,0.942 m 32.152,4.729 c 0,2.599 0.06,3.663 0.134,2.363 0.074,-1.299 0.074,-3.426 0,-4.726 -0.074,-1.299 -0.134,-0.236 -0.134,2.363 m 5.147,-2.101 c 0,0.948 0.17,1.723 0.378,1.723 0.208,0 0.378,-0.67 0.378,-1.49 0,-0.819 -0.17,-1.595 -0.378,-1.723 -0.231,-0.143 -0.378,0.437 -0.378,1.49 m -34.405,0.577 c 0,0.565 1.554,3.415 1.862,3.415 0.151,0 0.431,0.625 0.624,1.389 0.419,1.662 1.295,2.15 1.295,0.722 0,-0.538 -0.34,-1.317 -0.756,-1.733 -0.416,-0.416 -0.756,-1.091 -0.756,-1.499 0,-0.409 -0.34,-0.925 -0.756,-1.148 -0.416,-0.222 -0.756,-0.654 -0.756,-0.958 0,-0.305 -0.171,-0.554 -0.379,-0.554 -0.207,0 -0.378,0.165 -0.378,0.366 m -24.102,1.423 c -0.878,0.59 -1.261,3.126 -0.472,3.126 0.208,0 0.378,-0.187 0.378,-0.416 0,-0.228 0.277,-1 0.616,-1.714 0.734,-1.546 0.62,-1.764 -0.522,-0.996 m 15.542,-0.083 c -0.283,0.738 0.611,1.858 1.096,1.373 0.419,-0.419 0.017,-1.945 -0.512,-1.945 -0.201,0 -0.464,0.257 -0.584,0.572 m 58.938,-0.127 c -2.354,0.437 -2.551,0.892 -0.507,1.166 1.972,0.265 4.005,-0.177 4.005,-0.87 0,-0.688 -0.951,-0.769 -3.498,-0.296 m -7.088,1.824 c -0.136,0.219 0.24,0.378 0.9,0.378 0.624,0 1.24,-0.171 1.368,-0.378 0.136,-0.22 -0.241,-0.379 -0.9,-0.379 -0.624,0 -1.24,0.171 -1.368,0.379 m -50.089,1.417 c 0.004,0.757 0.098,0.895 0.343,0.507 0.186,-0.293 0.25,-0.761 0.143,-1.04 -0.307,-0.799 -0.492,-0.596 -0.486,0.533 m 42.572,-0.626 c -0.49,1.566 -0.521,2.704 -0.199,7.249 0.47,6.626 0.892,6.72 1.383,0.306 0.376,-4.904 0.354,-5.395 -0.306,-6.689 -0.437,-0.857 -0.777,-1.192 -0.878,-0.866 m -16.655,1.323 c -0.276,1.098 0.035,2.422 0.568,2.422 0.451,0 0.464,-2.91 0.014,-3.188 -0.185,-0.115 -0.447,0.23 -0.582,0.766 m -14.953,2.328 c -0.003,0.676 0.164,1.229 0.372,1.229 0.48,0 0.48,-1.148 0,-1.891 -0.278,-0.43 -0.368,-0.271 -0.372,0.662 m 23.435,4.442 c 0,0.816 0.152,1.274 0.378,1.134 0.208,-0.128 0.378,-0.638 0.378,-1.134 0,-0.495 -0.17,-1.005 -0.378,-1.134 -0.226,-0.139 -0.378,0.319 -0.378,1.134 m -31.869,-0.185 c -0.24,0.919 0.076,2.265 0.533,2.265 0.436,0 0.435,-2.54 -0.001,-2.809 -0.185,-0.114 -0.424,0.131 -0.532,0.544 m 11.101,1.036 c 0.104,1.108 0.678,1.726 0.703,0.756 0.015,-0.572 -0.143,-1.04 -0.351,-1.04 -0.208,0 -0.366,0.128 -0.352,0.284 m 1.108,2.532 c 0,0.302 0.416,0.997 0.925,1.546 0.508,0.549 0.976,1.13 1.039,1.293 0.189,0.485 1.817,0.867 1.817,0.427 0,-0.218 -0.596,-1.01 -1.324,-1.759 -0.727,-0.75 -1.323,-1.519 -1.323,-1.709 0,-0.19 -0.255,-0.345 -0.567,-0.345 -0.312,0 -0.567,0.246 -0.567,0.547 m 18.431,-0.331 c -0.156,0.158 -0.284,0.6 -0.284,0.981 0,0.381 -0.255,0.693 -0.567,0.693 -0.312,0 -0.567,0.156 -0.567,0.347 0,0.191 -0.103,0.617 -0.229,0.945 -0.127,0.33 -0.037,0.598 0.201,0.598 0.236,0 0.542,-0.297 0.678,-0.661 0.137,-0.364 0.488,-0.841 0.78,-1.061 0.293,-0.22 0.474,-0.789 0.402,-1.265 -0.072,-0.476 -0.258,-0.735 -0.414,-0.577 m -51.153,3.794 c -0.147,1.375 -0.103,4.735 0.098,7.467 l 0.365,4.969 0.061,-7.467 c 0.065,-7.818 -0.076,-9.15 -0.524,-4.969 m 21.935,-0.57 c -0.139,0.437 -0.065,0.982 0.163,1.21 0.302,0.302 0.416,0.086 0.416,-0.794 0,-1.396 -0.218,-1.553 -0.579,-0.416 m 39.932,2.514 c 0.018,1.612 0.151,3.781 0.295,4.821 l 0.262,1.89 0.262,-2.049 c 0.304,-2.386 -0.059,-7.592 -0.53,-7.592 -0.177,0 -0.308,1.319 -0.289,2.93 m -21.287,0.374 c 1.098,0.077 2.8,0.076 3.78,-0.002 0.981,-0.077 0.082,-0.14 -1.997,-0.139 -2.08,0.001 -2.882,0.064 -1.783,0.141 m -19.621,0.666 c -0.484,0.793 -0.668,2.297 -0.346,2.819 0.263,0.424 0.391,0.328 0.583,-0.437 0.285,-1.135 0.105,-2.942 -0.237,-2.382 m -4.681,0.941 c -0.278,0.451 -0.284,9.771 -0.011,18.152 0.194,5.954 0.153,5.597 0.56,4.903 0.187,-0.319 0.404,-3.817 0.483,-7.773 0.12,-5.983 0.252,-7.347 0.784,-8.106 0.842,-1.203 0.807,-1.97 -0.117,-2.547 -0.582,-0.363 -0.757,-0.886 -0.762,-2.265 -0.006,-1.979 -0.463,-3.131 -0.937,-2.364 m 3.034,3.518 c -0.162,0.373 -0.188,0.784 -0.058,0.913 0.384,0.384 0.693,-0.155 0.516,-0.9 -0.156,-0.66 -0.177,-0.661 -0.458,-0.013 m -19.317,10.13 c -0.28,0.84 -0.388,9.5 -0.13,10.364 0.062,0.208 -0.019,1.365 -0.18,2.572 -0.299,2.239 -0.018,5.178 0.496,5.178 0.408,0 0.836,-17.741 0.444,-18.442 -0.27,-0.483 -0.38,-0.426 -0.63,0.328 m -21.857,5.709 c -0.333,7.563 -0.546,63.129 -0.28,73.086 l 0.233,8.695 0.303,-12.098 c 0.326,-13.017 0.447,-74.233 0.147,-74.534 -0.1,-0.099 -0.281,2.084 -0.403,4.851 m 37.317,10.326 c 0.001,1.455 0.07,2.005 0.152,1.22 0.081,-0.784 0.08,-1.975 -0.004,-2.646 -0.083,-0.671 -0.15,-0.03 -0.148,1.426 m -1.52,9.074 c 0.003,1.247 0.073,1.712 0.157,1.033 0.084,-0.68 0.083,-1.701 -0.004,-2.269 -0.086,-0.568 -0.155,-0.012 -0.153,1.236 m -1.371,3.081 c -0.142,0.142 -0.258,0.53 -0.258,0.862 0,0.333 -0.34,1.24 -0.756,2.015 -0.416,0.776 -0.756,1.598 -0.756,1.826 0,0.228 0.34,0.847 0.756,1.375 0.886,1.126 1.025,3.128 0.218,3.128 -0.699,0 -1.577,2.573 -1.056,3.094 0.253,0.253 0.636,0.241 1.151,-0.034 0.424,-0.228 1.25,-0.425 1.836,-0.439 1.045,-0.025 1.049,-0.033 0.206,-0.44 -1.129,-0.544 -1.416,-1.835 -0.854,-3.844 0.888,-3.171 0.54,-8.569 -0.487,-7.543 m -18.134,4.933 c -0.253,1.323 0.074,2.285 0.532,1.564 0.421,-0.665 0.419,-2.107 -0.004,-2.368 -0.184,-0.114 -0.422,0.248 -0.528,0.804 m 65.878,3.722 c -0.35,0.421 -0.369,0.698 -0.072,0.995 0.596,0.596 1.597,0.088 1.597,-0.81 0,-0.908 -0.84,-1.01 -1.525,-0.185 m -3.768,1.685 c 0,0.483 1.9,0.483 2.647,0 0.415,-0.268 0.137,-0.368 -1.04,-0.372 -0.883,-0.003 -1.607,0.164 -1.607,0.372 m -5.954,1.405 c 0.572,0.087 1.507,0.087 2.079,0 0.572,-0.086 0.104,-0.157 -1.039,-0.157 -1.144,0 -1.612,0.071 -1.04,0.157 m -40.921,1.714 c 0.005,0.688 0.076,0.742 0.373,0.284 0.473,-0.733 0.473,-1.134 0,-1.134 -0.208,0 -0.376,0.382 -0.373,0.85 m 6.286,-0.457 c 0.251,0.251 2,0.429 4.342,0.442 2.278,0.013 4.398,0.224 5.057,0.503 1.324,0.562 12.973,1.063 13.736,0.591 0.963,-0.595 -0.677,-0.812 -4.25,-0.56 -2.789,0.196 -3.581,0.134 -4.027,-0.312 -0.43,-0.43 -2.214,-0.615 -7.917,-0.819 -5.396,-0.194 -7.249,-0.153 -6.941,0.155 m 25.656,-0.015 c -0.987,0.251 -0.889,0.293 0.756,0.327 1.348,0.028 1.727,-0.066 1.323,-0.327 -0.312,-0.202 -0.652,-0.349 -0.756,-0.328 -0.104,0.022 -0.7,0.169 -1.323,0.328 m -34.889,5.218 c -0.232,0.665 -0.593,1.209 -0.803,1.209 -0.902,0 -2.353,6.104 -2.155,9.064 0.105,1.565 0.2,3.313 0.21,3.885 0.036,2.04 0.775,0.999 0.775,-1.093 0,-1.492 0.176,-2.261 0.587,-2.562 0.686,-0.501 1.281,-2.783 1.294,-4.958 0.005,-0.839 0.233,-2.387 0.506,-3.442 0.6,-2.313 0.26,-4.039 -0.414,-2.103 m 58.17,1.379 c -0.022,1.096 0.082,1.382 0.391,1.073 0.298,-0.299 0.307,-0.732 0.029,-1.494 -0.386,-1.06 -0.391,-1.056 -0.42,0.421 m -72.881,3.422 c 0.002,1.247 0.073,1.712 0.157,1.033 0.084,-0.68 0.083,-1.701 -0.004,-2.269 -0.086,-0.568 -0.155,-0.012 -0.153,1.236 m 74.06,0.632 c 0.067,1.139 0.311,2.02 0.587,2.11 0.51,0.169 0.645,-1.682 0.234,-3.215 -0.42,-1.567 -0.937,-0.872 -0.821,1.105 m -64.725,8.086 c 0,0.548 0.164,0.866 0.378,0.733 0.208,-0.128 0.378,-0.563 0.378,-0.967 0,-0.404 -0.17,-0.734 -0.378,-0.734 -0.208,0 -0.378,0.435 -0.378,0.968 m -10.964,1.3 c 0,1.11 0.085,1.932 0.189,1.828 0.293,-0.293 0.345,-3.31 0.062,-3.593 -0.138,-0.138 -0.251,0.656 -0.251,1.765 m 9.707,1.288 c -0.357,0.928 -0.318,1.737 0.082,1.737 0.506,0 0.726,-0.85 0.433,-1.674 -0.241,-0.675 -0.279,-0.679 -0.515,-0.063 m 2.668,2.352 c -0.287,1.498 0.325,2.591 0.673,1.203 0.139,-0.554 0.091,-1.296 -0.106,-1.649 -0.304,-0.543 -0.392,-0.474 -0.567,0.446 m -3.97,2.032 c 0,0.727 0.078,1.025 0.173,0.661 0.095,-0.364 0.095,-0.959 0,-1.323 -0.095,-0.364 -0.173,-0.066 -0.173,0.662 m -9.665,-0.505 c -0.405,0.405 -0.29,4.285 0.126,4.285 0.21,0 0.378,-1.008 0.378,-2.268 0,-2.289 -0.047,-2.474 -0.504,-2.017 m 12.224,3.362 c 0,0.801 0.153,1.251 0.378,1.112 0.208,-0.128 0.378,-0.734 0.378,-1.345 0,-0.612 -0.17,-1.112 -0.378,-1.112 -0.208,0 -0.378,0.605 -0.378,1.345 m -1.26,1.931 c -0.388,0.388 -0.299,1.943 0.126,2.206 0.225,0.139 0.378,-0.311 0.378,-1.112 0,-1.382 -0.068,-1.529 -0.504,-1.094 m -11.542,2.142 c -0.591,0.712 0.448,2.156 1.094,1.52 0.458,-0.452 0.171,-2.023 -0.37,-2.023 -0.168,0 -0.494,0.226 -0.724,0.503 m 7.393,3.52 c -0.388,0.387 -0.318,9.965 0.072,9.965 0.445,0 0.786,-1.355 0.808,-3.213 0.011,-0.832 0.262,-1.938 0.559,-2.458 0.882,-1.542 -0.392,-5.342 -1.439,-4.294 m -9.708,6.257 c 0.004,1.191 0.104,1.477 0.372,1.062 0.48,-0.742 0.48,-2.161 0,-2.458 -0.23,-0.142 -0.376,0.405 -0.372,1.396 m 8.104,7.694 c -0.373,2.991 -0.045,6.073 0.741,6.941 0.528,0.584 0.576,0.889 0.24,1.518 -0.58,1.083 -0.84,1.01 -2.575,-0.724 -1.752,-1.753 -2.377,-1.871 -2.983,-0.564 -0.245,0.527 -0.281,0.942 -0.083,0.942 0.195,0 0.463,0.297 0.595,0.661 0.133,0.364 0.722,1.372 1.31,2.24 0.588,0.868 1.232,2.006 1.431,2.529 1.291,3.397 4.141,-0.218 3.631,-4.607 -0.137,-1.18 -0.344,-2.698 -0.459,-3.372 -0.178,-1.036 -0.073,-1.281 0.681,-1.583 0.491,-0.196 0.68,-0.368 0.42,-0.381 -0.26,-0.013 -0.473,-0.343 -0.473,-0.733 0,-0.727 -1.747,-4.962 -2.047,-4.962 -0.092,0 -0.285,0.943 -0.429,2.095 m 41.417,0.406 c 0,0.926 0.13,1.301 0.368,1.064 0.564,-0.565 0.635,-2.138 0.105,-2.326 -0.324,-0.115 -0.473,0.281 -0.473,1.262 m -48.242,2.072 c 0.352,2.204 2.354,4.895 2.146,2.884 -0.016,-0.15 -0.028,-0.603 -0.028,-1.004 0,-0.402 -0.341,-0.839 -0.756,-0.971 -0.477,-0.151 -0.757,-0.572 -0.757,-1.138 0,-0.493 -0.196,-1.018 -0.435,-1.166 -0.318,-0.197 -0.364,0.18 -0.17,1.395 m 47.196,1.098 c 0,0.728 0.078,1.025 0.173,0.662 0.095,-0.364 0.095,-0.96 0,-1.324 -0.095,-0.364 -0.173,-0.066 -0.173,0.662 m -1.829,2.803 c -0.299,0.78 -0.022,2.5 0.418,2.596 0.208,0.046 0.43,-0.64 0.494,-1.524 0.113,-1.561 -0.464,-2.239 -0.912,-1.072 m -1.156,3.839 c -0.125,0.325 -0.035,0.785 0.201,1.02 0.319,0.319 0.428,0.168 0.428,-0.592 0,-1.138 -0.283,-1.33 -0.629,-0.428 m -26.499,0.254 c 0.086,0.258 0.738,0.642 1.449,0.854 0.711,0.212 1.682,0.606 2.158,0.876 0.982,0.556 2.827,0.226 1.926,-0.344 -0.287,-0.182 -0.82,-0.334 -1.184,-0.337 -0.364,-0.003 -1.002,-0.346 -1.418,-0.762 -0.841,-0.841 -3.193,-1.071 -2.931,-0.287 m 54.727,3.879 c -0.259,0.312 -0.682,0.567 -0.94,0.567 -0.259,0 -0.876,0.313 -1.372,0.696 -1.659,1.281 -10.119,2.657 -18.671,3.038 -4.564,0.203 -5.018,0.277 -3.296,0.534 1.099,0.164 3.242,0.185 4.762,0.048 2.179,-0.198 2.958,-0.126 3.674,0.337 2.208,1.429 11.846,-0.113 13.552,-2.168 0.271,-0.327 0.826,-0.595 1.232,-0.595 0.78,0 2.949,-1.925 2.949,-2.617 0,-0.606 -1.349,-0.492 -1.89,0.16 m -43.006,0.45 c 0.364,0.095 0.96,0.095 1.324,0 0.364,-0.096 0.066,-0.173 -0.662,-0.173 -0.728,0 -1.025,0.077 -0.662,0.173 m 3.687,1.251 c 0,0.208 0.723,0.381 1.606,0.383 2.298,0.008 3.162,0.318 3.607,1.296 0.353,0.775 0.56,0.832 2.13,0.594 2.145,-0.325 2.343,-0.513 1.8,-1.704 -0.46,-1.009 -9.143,-1.549 -9.143,-0.569 m 2.784,7.534 c -0.135,0.675 -0.466,1.312 -0.736,1.415 -0.913,0.35 -1.077,2.397 -0.238,2.985 0.412,0.289 0.879,0.997 1.037,1.574 l 0.288,1.048 0.306,-1.323 c 0.289,-1.248 0.097,-6.418 -0.251,-6.765 -0.088,-0.089 -0.271,0.391 -0.406,1.066 m -2.779,5.793 c 0.005,0.688 0.076,0.742 0.373,0.284 0.473,-0.733 0.473,-1.134 0,-1.134 -0.208,0 -0.376,0.382 -0.373,0.85 m -26.411,7.324 c -0.522,1.26 0.077,4.874 0.74,4.464 0.385,-0.238 0.384,-3.305 -0.001,-4.687 l -0.26,-0.934 -0.479,1.157 m 22.098,0.741 c -0.126,0.329 -0.229,0.989 -0.229,1.466 0,0.478 -0.245,1.072 -0.545,1.32 -0.881,0.731 -0.849,1.999 0.072,2.917 0.468,0.467 0.851,1.111 0.851,1.432 0,0.322 0.255,0.585 0.567,0.585 0.646,0 0.702,-0.939 0.323,-5.425 -0.238,-2.805 -0.565,-3.529 -1.039,-2.295 m 8.51,6.847 c 0.032,3.812 0.128,4.813 0.356,3.708 0.446,-2.154 0.43,-8.416 -0.022,-8.695 -0.245,-0.152 -0.362,1.592 -0.334,4.987 m -47.982,-4.42 c -0.049,0.104 -0.195,6.616 -0.322,14.471 -0.26,15.95 -0.28,15.81 2.289,15.745 l 1.17,-0.03 -1.134,-0.4 c -0.624,-0.22 -1.22,-0.476 -1.324,-0.568 -0.104,-0.093 -0.279,-6.747 -0.388,-14.788 -0.11,-8.041 -0.241,-14.534 -0.291,-14.43 m 18.955,2.857 c -0.124,0.323 -0.051,1.131 0.163,1.795 0.384,1.195 0.388,1.189 0.426,-0.588 0.04,-1.823 -0.18,-2.273 -0.589,-1.207 m 22.211,4.496 c -0.021,0.969 0.096,1.364 0.335,1.125 0.228,-0.227 0.24,-0.797 0.033,-1.493 -0.332,-1.112 -0.336,-1.108 -0.368,0.368 m 26.284,10.258 c -0.397,1.032 -0.263,10.366 0.148,10.366 0.235,0 0.378,-2.079 0.378,-5.482 0,-5.398 -0.072,-6.068 -0.526,-4.884 m -22.282,0.786 c -0.52,0.521 -0.229,2.704 0.481,3.607 0.404,0.514 0.852,1.819 0.995,2.899 0.333,2.506 0.392,2.395 0.674,-1.274 0.228,-2.955 -1.128,-6.254 -2.15,-5.232 m -22.182,5.399 c 0,1.05 0.569,1.848 1.006,1.41 0.31,-0.31 -0.267,-2.522 -0.658,-2.522 -0.192,0 -0.348,0.5 -0.348,1.112 m 1.523,3.217 c -0.008,0.813 0.102,1.002 0.406,0.698 0.299,-0.299 0.302,-0.615 0.012,-1.115 -0.356,-0.612 -0.407,-0.561 -0.418,0.417 m 20.586,2.134 c -0.682,3.107 0.145,5.921 0.921,3.129 0.459,-1.655 0.516,-2.826 0.181,-3.701 -0.362,-0.941 -0.822,-0.703 -1.102,0.572 m -40.446,2.233 c -0.128,0.208 0.117,0.378 0.545,0.378 0.428,0 0.778,-0.17 0.778,-0.378 0,-0.208 -0.245,-0.378 -0.544,-0.378 -0.3,0 -0.65,0.17 -0.779,0.378 m 24.008,6.027 c 0,0.875 0.181,1.534 0.421,1.534 0.254,0 0.354,0.457 0.251,1.155 -0.123,0.837 0.015,1.253 0.502,1.513 1.294,0.693 1.399,-1.661 0.13,-2.93 -0.301,-0.301 -0.548,-0.951 -0.548,-1.444 0,-0.493 -0.17,-1.001 -0.378,-1.129 -0.229,-0.141 -0.378,0.374 -0.378,1.301 m 12.579,13.632 c 0,0.936 0.074,1.319 0.164,0.851 0.09,-0.468 0.09,-1.233 0,-1.701 -0.09,-0.468 -0.164,-0.085 -0.164,0.85 m -6.82,0.379 c 0,0.727 0.077,1.025 0.172,0.661 0.096,-0.364 0.096,-0.959 0,-1.323 -0.095,-0.364 -0.172,-0.066 -0.172,0.662 m 25.471,1.735 c -0.307,0.801 0.036,1.289 0.906,1.289 0.945,0 1.309,-0.657 0.742,-1.34 -0.6,-0.723 -1.36,-0.7 -1.648,0.051 m -20.058,1.258 c -0.625,1.011 -0.677,3.812 -0.071,3.812 0.498,0 0.619,-0.406 0.619,-2.08 0,-2.041 -0.121,-2.423 -0.548,-1.732 m 31.129,3.492 c 0.871,0.251 1.408,0.24 1.682,-0.034 0.284,-0.284 -0.091,-0.392 -1.28,-0.368 l -1.682,0.034 1.28,0.368 m -33.1,1.289 c -0.346,0.9 0.582,2.739 1.027,2.036 0.575,-0.909 0.43,-2.627 -0.221,-2.627 -0.319,0 -0.681,0.266 -0.806,0.591 m 35.033,-0.276 c 0,0.462 0.935,0.819 2.142,0.819 0.587,0 0.887,-0.179 0.79,-0.472 -0.181,-0.554 -2.932,-0.879 -2.932,-0.347 m 10.964,4.222 c 0,0.208 0.521,0.378 1.157,0.378 0.675,0 1.059,-0.158 0.923,-0.378 -0.129,-0.208 -0.649,-0.378 -1.157,-0.378 -0.507,0 -0.923,0.17 -0.923,0.378 m 3.495,1.007 c -0.261,0.105 -0.379,0.347 -0.261,0.537 0.29,0.47 2.437,0.442 2.437,-0.032 0,-0.208 -0.156,-0.378 -0.347,-0.378 -0.191,0 -0.574,-0.072 -0.851,-0.159 -0.276,-0.088 -0.717,-0.073 -0.978,0.032 m -51.888,3.719 c 0,0.935 0.151,1.701 0.336,1.701 0.416,0 0.92,-2.522 0.605,-3.031 -0.525,-0.85 -0.941,-0.263 -0.941,1.33 m -9.363,0.472 c -1.615,1.942 -2.087,3.601 -1.673,5.877 0.388,2.133 0.946,1.874 1.384,-0.642 0.375,-2.151 0.444,-2.251 1.902,-2.753 2.579,-0.889 3.102,-1.679 2.05,-3.102 -1.187,-1.605 -1.914,-1.482 -3.663,0.62 m 25.998,0.807 c 0,0.184 -0.34,0.423 -0.756,0.532 -0.786,0.205 -1.128,2.158 -0.378,2.158 0.775,0 1.834,-1.456 1.629,-2.24 -0.208,-0.797 -0.495,-1.058 -0.495,-0.45 m 48.771,0.8 c -0.429,0.277 -0.262,0.368 0.684,0.372 0.739,0.004 1.156,-0.149 1.018,-0.372 -0.294,-0.475 -0.967,-0.475 -1.702,0 m -66.68,1.332 c -0.35,0.911 0.166,1.553 0.609,0.76 0.235,-0.42 0.235,-0.783 -0.002,-1.02 -0.237,-0.237 -0.452,-0.145 -0.607,0.26 m -1.498,2.323 c -0.139,0.138 -0.253,0.541 -0.253,0.894 0,1.348 -1.532,2.722 -2.796,2.507 -0.645,-0.11 -0.961,-0.112 -0.701,-0.005 0.559,0.231 0.645,2.401 0.095,2.401 -0.208,0 -0.378,0.34 -0.378,0.756 0,0.42 -0.252,0.756 -0.567,0.756 -0.312,0 -0.567,0.154 -0.567,0.343 0,0.625 1.483,-0.034 1.714,-0.762 0.125,-0.393 0.448,-0.715 0.718,-0.715 0.27,0 0.965,-0.723 1.544,-1.607 0.58,-0.884 1.283,-1.743 1.563,-1.909 0.28,-0.166 0.51,-0.889 0.51,-1.607 0,-1.234 -0.32,-1.615 -0.882,-1.052 m 78.954,0.504 c -0.141,0.227 0.341,0.376 1.206,0.372 1.069,-0.004 1.294,-0.1 0.873,-0.372 -0.739,-0.478 -1.784,-0.478 -2.079,0 m 3.213,1.481 c 0,0.462 0.79,0.705 1.607,0.493 1.073,-0.279 0.757,-0.84 -0.473,-0.84 -0.623,0 -1.134,0.156 -1.134,0.347 m -68.179,2.174 c -0.306,0.306 -0.337,1.638 -0.038,1.638 0.88,0 1.688,-0.854 1.277,-1.35 -0.492,-0.592 -0.852,-0.676 -1.239,-0.288 m -1.609,2.963 c -0.135,0.538 -0.152,1.073 -0.037,1.188 0.37,0.37 1.016,-0.267 1.016,-1.001 0,-1.129 -0.709,-1.264 -0.979,-0.187 m 83.399,0.332 c 0,0.336 1.529,0.511 1.723,0.198 0.116,-0.189 -0.224,-0.343 -0.756,-0.343 -0.532,0 -0.967,0.065 -0.967,0.145 m -73.489,0.923 c -0.167,0.484 -0.204,0.98 -0.081,1.103 0.392,0.392 0.668,-0.186 0.524,-1.099 l -0.139,-0.883 -0.304,0.879 m -11.01,1.579 c -0.441,0.713 0.192,1.159 1.019,0.716 0.629,-0.336 0.68,-0.485 0.26,-0.751 -0.685,-0.434 -0.995,-0.426 -1.279,0.035 m -33.63,1.635 c -0.556,0.411 -0.9,0.443 -1.401,0.131 -0.979,-0.612 -1.329,0.02 -0.46,0.83 0.935,0.871 4.141,1.408 4.857,0.815 0.351,-0.292 0.586,-0.3 0.755,-0.027 0.273,0.442 2.153,0.467 3.603,0.048 0.924,-0.267 0.912,-0.29 -0.567,-1.052 -2.059,-1.06 -5.805,-1.472 -6.787,-0.745 m 39.301,-0.142 c -1.085,0.257 -1.057,0.282 0.657,0.564 1.883,0.311 2.934,0.12 2.934,-0.533 0,-0.432 -1.837,-0.448 -3.591,-0.031 m -27.41,0.164 c 0,0.337 1.393,0.471 2.085,0.201 0.571,-0.223 0.412,-0.299 -0.668,-0.319 -0.779,-0.015 -1.417,0.038 -1.417,0.118 m -15.475,2.029 c 0.024,0.921 0.064,0.953 0.352,0.283 0.443,-1.032 0.443,-1.323 0,-1.323 -0.208,0 -0.366,0.468 -0.352,1.04 m 32.866,7.678 c 0,0.927 0.15,1.442 0.378,1.301 0.208,-0.128 0.378,-0.819 0.378,-1.535 0,-0.715 -0.17,-1.3 -0.378,-1.3 -0.208,0 -0.378,0.69 -0.378,1.534 m -18.526,0.798 -0.945,0.371 1.116,0.59 c 0.613,0.325 1.409,0.95 1.767,1.39 0.618,0.756 0.667,0.762 0.923,0.103 0.445,-1.144 -1.64,-2.934 -2.861,-2.454 m 6.966,6.032 c -0.113,0.182 1.633,0.318 3.882,0.301 2.247,-0.016 3.916,-0.087 3.708,-0.158 -0.932,-0.318 -7.407,-0.439 -7.59,-0.143"
       inkscape:connector-curvature="0"
       style="fill:#ffffff;fill-rule:evenodd;stroke:none" />
    <path
       id="path2"
       d="m 135.563,3.364 c -0.131,0.211 -0.406,21.785 -0.612,47.942 -0.206,26.158 -0.443,49.006 -0.526,50.773 -0.472,10.051 -0.665,22.414 -0.985,62.964 -0.194,24.737 -0.511,52.632 -0.704,61.989 -0.193,9.357 -0.473,28.857 -0.622,43.332 l -0.271,26.318 0.808,0.808 c 0.521,0.521 1.284,0.809 2.143,0.809 0.8,0 1.418,0.213 1.54,0.533 0.113,0.293 0.66,0.639 1.217,0.769 0.557,0.13 1.523,0.465 2.147,0.744 1.646,0.736 3.542,1.378 5.482,1.853 0.935,0.23 1.912,0.623 2.17,0.875 0.257,0.251 0.966,0.566 1.575,0.7 0.608,0.134 1.2,0.488 1.315,0.787 0.116,0.301 0.701,0.544 1.309,0.544 0.605,0 1.311,0.255 1.57,0.567 0.259,0.312 0.663,0.573 0.897,0.58 0.235,0.007 1.107,0.342 1.939,0.743 0.831,0.402 1.871,0.737 2.309,0.744 3.369,0.054 5.693,2.622 6.985,7.717 0.205,0.807 0.622,1.823 0.926,2.259 0.305,0.435 0.555,1.102 0.555,1.482 0,0.381 0.324,1.321 0.72,2.09 4.715,9.146 3.868,12.054 -3.367,11.56 -3.03,-0.207 -5.017,0.521 -5.551,2.033 -0.128,0.363 -0.554,1.017 -0.946,1.455 -0.541,0.603 -0.718,1.396 -0.732,3.285 -0.027,3.511 0.132,3.798 2.722,4.916 1.977,0.853 2.234,1.078 1.908,1.666 -0.738,1.333 -4.81,5.406 -5.405,5.406 -0.332,0 -1.467,0.278 -2.52,0.619 -1.725,0.556 -2.041,0.561 -3.163,0.046 -1.159,-0.531 -5.551,-1.169 -7.967,-1.156 -3.112,0.016 -4.137,3.466 -1.786,6.017 0.831,0.902 1.518,1.857 1.526,2.121 0.051,1.821 4.065,4.073 7.258,4.073 1.273,0 2.568,0.279 3.503,0.756 0.816,0.416 1.691,0.756 1.945,0.756 0.254,0 0.566,0.298 0.693,0.662 0.253,0.725 3.989,3.921 5.03,4.303 5.038,1.849 12.181,-0.476 12.181,-3.965 0,-0.291 0.247,-0.734 0.548,-0.984 0.302,-0.251 0.666,-1.25 0.809,-2.221 0.142,-0.97 0.491,-2.1 0.774,-2.51 0.284,-0.41 0.521,-1.176 0.527,-1.702 0.007,-0.525 0.262,-1.285 0.567,-1.689 0.306,-0.404 0.556,-1.036 0.556,-1.405 0,-1.771 2.646,-3.37 3.947,-2.386 1.415,1.07 6.308,0.753 7.491,-0.485 1.827,-1.911 2.067,-8.042 0.411,-10.481 -0.279,-0.41 -0.507,-1.043 -0.507,-1.406 0,-0.363 -0.359,-1.348 -0.797,-2.189 -0.593,-1.136 -0.735,-1.892 -0.556,-2.942 0.132,-0.777 0.327,-2.008 0.432,-2.736 l 0.191,-1.323 -0.562,1.229 c -0.309,0.675 -0.72,1.228 -0.913,1.228 -0.192,0 -0.561,0.511 -0.82,1.135 -0.258,0.623 -0.628,1.134 -0.822,1.134 -0.193,0 -0.529,0.51 -0.747,1.134 -0.217,0.624 -0.512,1.134 -0.654,1.134 -0.143,0 -1.103,1.744 -2.133,3.876 -1.031,2.131 -1.973,3.96 -2.093,4.064 -0.592,0.51 -2.859,6.025 -3.265,7.939 -0.239,1.131 -1.982,4.856 -2.389,5.107 -0.158,0.098 -0.401,0.818 -0.54,1.6 -0.344,1.94 -2.404,6.052 -3.371,6.729 -2.331,1.633 -8.25,0.282 -10.262,-2.341 -2.842,-3.706 -2.8,-3.682 -6.93,-3.96 -4.05,-0.272 -5.658,-0.865 -7.043,-2.598 -0.416,-0.52 -1.412,-1.583 -2.213,-2.363 l -1.456,-1.418 h 1.719 c 0.946,0 2.288,0.271 2.982,0.602 1.196,0.571 1.431,0.551 4.475,-0.378 1.766,-0.539 3.629,-0.982 4.138,-0.985 2.643,-0.017 4.081,-0.911 7.914,-4.923 3.468,-3.629 4.313,-4.845 6.025,-8.682 0.325,-0.728 0.744,-1.54 0.93,-1.804 0.598,-0.845 2.121,-5.535 2.123,-6.533 0.001,-0.53 0.154,-1.125 0.341,-1.323 0.576,-0.61 2.685,-6.226 2.685,-7.15 0,-0.48 0.254,-1.361 0.565,-1.956 0.311,-0.596 0.566,-1.615 0.567,-2.264 0.001,-0.65 0.254,-1.895 0.561,-2.766 0.308,-0.872 0.66,-2.722 0.782,-4.112 0.123,-1.39 0.451,-3.208 0.729,-4.039 0.278,-0.832 0.59,-2.448 0.693,-3.592 0.104,-1.144 0.442,-2.59 0.753,-3.214 0.689,-1.382 1.658,-5.5 2.136,-9.073 0.195,-1.456 0.522,-3.607 0.728,-4.781 0.61,-3.489 0.942,-19.815 0.46,-22.63 -0.724,-4.228 -0.976,-14.056 -0.412,-16.071 0.713,-2.543 1.238,-2.694 7.491,-2.142 2.846,0.251 6.303,0.454 7.682,0.45 3.086,-0.007 3.145,0.121 2.382,5.2 -0.751,5.003 -0.773,25.752 -0.029,27.232 0.634,1.263 0.562,17.418 -0.085,19.07 -0.224,0.57 -0.523,2.186 -0.665,3.592 -0.304,3.012 -2.29,9.102 -3.639,11.161 -0.363,0.555 -0.661,1.11 -0.661,1.232 0,0.123 -0.353,1.022 -0.784,1.998 -0.43,0.977 -1.008,2.286 -1.283,2.91 -0.275,0.624 -0.858,1.933 -1.296,2.909 -0.438,0.976 -0.796,2.04 -0.796,2.363 0,0.323 -0.128,0.588 -0.286,0.588 -0.317,0 -1.982,3.458 -1.982,4.118 0,0.23 0.17,0.419 0.378,0.419 0.208,0 0.378,-0.17 0.378,-0.378 0,-0.208 0.691,-1.09 1.536,-1.96 0.844,-0.87 1.629,-2.049 1.743,-2.62 0.534,-2.674 3.249,-3.272 6.725,-1.484 0.824,0.424 1.866,0.771 2.317,0.771 0.45,0 1.031,0.255 1.289,0.567 0.259,0.312 0.855,0.567 1.324,0.567 0.469,0 1.059,0.249 1.311,0.552 0.252,0.304 0.826,0.658 1.275,0.787 0.997,0.285 4.541,1.612 6.166,2.309 0.656,0.281 1.374,0.511 1.597,0.511 0.223,0 1.133,0.329 2.022,0.731 0.89,0.402 2.468,1.098 3.508,1.546 1.039,0.449 2.23,0.966 2.646,1.149 1.249,0.551 4.055,1.533 5.764,2.015 0.883,0.25 1.811,0.659 2.061,0.909 0.25,0.25 0.685,0.455 0.966,0.455 0.281,0 1.14,0.332 1.909,0.739 0.769,0.406 2.419,1.112 3.667,1.569 1.248,0.456 2.804,1.059 3.46,1.34 0.655,0.281 1.421,0.511 1.701,0.512 0.281,0.001 1.067,0.341 1.748,0.756 0.681,0.415 1.553,0.755 1.938,0.755 0.386,0 0.899,0.239 1.141,0.53 0.242,0.292 0.901,0.638 1.464,0.769 0.563,0.132 1.535,0.471 2.159,0.753 2.051,0.929 5.298,2.107 5.809,2.107 0.275,0 0.953,0.243 1.505,0.541 0.901,0.486 2.519,1.217 5.918,2.673 1.729,0.74 6.029,2.079 6.68,2.079 0.317,0 0.978,0.348 1.469,0.774 0.577,0.5 1.301,0.734 2.043,0.662 1.221,-0.12 1.565,-0.966 0.583,-1.436 -0.312,-0.149 -1.104,-0.55 -1.76,-0.892 -0.655,-0.341 -1.509,-0.62 -1.896,-0.62 -0.386,0 -1.338,-0.341 -2.114,-0.757 -0.776,-0.415 -1.682,-0.756 -2.014,-0.756 -0.332,0 -1.036,-0.34 -1.565,-0.756 -0.528,-0.416 -1.244,-0.756 -1.59,-0.756 -0.347,0 -0.792,-0.154 -0.989,-0.343 -0.198,-0.188 -1.805,-0.884 -3.573,-1.547 -1.767,-0.662 -3.772,-1.443 -4.455,-1.736 -0.683,-0.293 -1.47,-0.533 -1.75,-0.533 -0.279,0 -0.71,-0.244 -0.958,-0.543 -0.248,-0.298 -0.982,-0.659 -1.632,-0.802 -0.649,-0.143 -1.415,-0.494 -1.702,-0.78 -0.287,-0.287 -0.811,-0.521 -1.166,-0.521 -0.355,0 -0.981,-0.226 -1.391,-0.501 -0.41,-0.276 -1.721,-0.713 -2.913,-0.971 -1.192,-0.259 -2.265,-0.629 -2.385,-0.822 -0.12,-0.194 -0.524,-0.353 -0.897,-0.353 -0.373,0 -2.022,-0.68 -3.664,-1.51 -1.642,-0.831 -3.184,-1.512 -3.427,-1.513 -0.243,-0.001 -0.923,-0.24 -1.512,-0.533 -1.622,-0.805 -5.179,-2.115 -5.744,-2.115 -0.275,0 -0.933,-0.34 -1.461,-0.756 -0.529,-0.416 -1.245,-0.756 -1.591,-0.756 -0.346,0 -0.815,-0.186 -1.042,-0.413 -0.227,-0.227 -1.835,-0.902 -3.573,-1.501 -1.738,-0.599 -3.421,-1.243 -3.74,-1.43 -0.319,-0.187 -1.115,-0.458 -1.77,-0.602 -0.654,-0.144 -1.383,-0.495 -1.62,-0.78 -0.237,-0.285 -0.972,-0.634 -1.633,-0.776 -0.661,-0.141 -1.374,-0.394 -1.584,-0.561 -0.509,-0.407 -3.295,-1.416 -5.857,-2.121 -1.143,-0.315 -2.241,-0.729 -2.438,-0.92 -0.198,-0.191 -0.708,-0.353 -1.135,-0.36 -2.05,-0.032 -3.274,-2.17 -2.098,-3.665 0.416,-0.529 0.756,-1.364 0.756,-1.856 0,-0.492 0.139,-0.894 0.308,-0.894 0.375,0 2.333,-4.921 2.352,-5.909 0.008,-0.389 0.257,-1.133 0.554,-1.653 0.297,-0.519 0.546,-1.407 0.554,-1.973 0.007,-0.565 0.341,-1.671 0.742,-2.457 0.616,-1.208 0.77,-2.605 0.987,-8.991 0.147,-4.313 0.484,-8.448 0.783,-9.626 0.289,-1.135 0.528,-2.922 0.53,-3.97 0.007,-2.76 2.423,-11.827 3.425,-12.85 0.193,-0.198 0.351,-0.683 0.351,-1.077 0,-0.395 0.243,-1.254 0.539,-1.91 0.296,-0.655 0.992,-2.722 1.547,-4.594 0.556,-1.871 1.249,-3.854 1.542,-4.406 0.292,-0.552 0.531,-1.239 0.531,-1.527 0,-0.287 0.33,-1.171 0.734,-1.963 0.404,-0.792 0.843,-1.932 0.975,-2.533 0.132,-0.601 0.397,-1.19 0.589,-1.309 0.192,-0.118 0.349,-0.554 0.349,-0.967 0,-0.687 1.703,-2.566 2.351,-2.595 0.84,-0.036 3.697,-2.515 3.694,-3.203 -0.008,-1.386 1.605,-9.439 2.135,-10.665 0.283,-0.656 0.515,-1.851 0.515,-2.657 0,-0.806 0.262,-1.839 0.582,-2.296 0.395,-0.564 0.591,-1.775 0.61,-3.77 0.016,-1.617 0.246,-3.621 0.511,-4.453 0.266,-0.831 0.587,-2.788 0.713,-4.347 0.127,-1.56 0.407,-4.967 0.624,-7.57 0.412,-4.963 -0.218,-14.402 -1.119,-16.746 -0.225,-0.586 -0.414,-1.436 -0.421,-1.891 -0.007,-0.454 -0.342,-1.506 -0.744,-2.338 -0.401,-0.832 -0.736,-1.776 -0.743,-2.098 -0.007,-0.323 -0.173,-0.748 -0.368,-0.945 -1.907,-1.926 -2.994,-9.336 -1.598,-10.89 0.549,-0.61 0.656,-2.192 0.83,-12.287 0.154,-8.857 0.328,-11.873 0.74,-12.802 0.452,-1.02 0.46,-1.535 0.052,-3.213 -0.267,-1.1 -0.627,-3.531 -0.799,-5.402 -0.507,-5.512 -1.126,-12.891 -1.509,-17.992 -0.197,-2.618 -0.534,-5.224 -0.75,-5.791 -2.027,-5.331 2.411,-9.642 9.971,-9.685 2.002,-0.012 6.893,-1.314 7.604,-2.025 0.303,-0.303 1.063,-0.664 1.689,-0.801 0.626,-0.137 1.138,-0.407 1.138,-0.598 0,-0.191 0.259,-0.348 0.575,-0.348 0.496,0 1.718,-0.596 5.157,-2.513 0.427,-0.238 1.397,-1.014 2.154,-1.724 0.758,-0.71 2.273,-1.994 3.368,-2.852 1.094,-0.859 2.422,-2.075 2.949,-2.702 0.528,-0.627 1.701,-1.51 2.607,-1.962 4.12,-2.058 5.509,-11.13 2.687,-17.548 -0.366,-0.831 -0.89,-2.022 -1.166,-2.646 -0.276,-0.624 -0.611,-1.56 -0.746,-2.08 -0.27,-1.042 -1.041,-2.847 -2.129,-4.989 -0.391,-0.769 -0.711,-1.756 -0.711,-2.193 0,-0.437 -0.249,-1.276 -0.553,-1.865 -0.585,-1.13 -1.52,-3.581 -2.123,-5.562 -0.199,-0.653 -0.614,-1.397 -0.922,-1.653 -0.308,-0.256 -0.561,-1.069 -0.561,-1.807 0,-0.738 -0.258,-1.627 -0.574,-1.976 -1.769,-1.955 -1.741,-8.977 0.044,-10.986 0.292,-0.328 0.53,-0.888 0.53,-1.244 0,-0.356 0.325,-1.108 0.721,-1.672 0.732,-1.04 1.021,-2.433 2.157,-10.396 0.521,-3.652 0.553,-4.734 0.176,-5.991 -0.286,-0.956 -0.367,-2.412 -0.214,-3.861 0.396,-3.753 -2.545,-6.479 -5.297,-4.908 -0.832,0.474 -1.853,1.019 -2.268,1.209 -1.065,0.489 -2.324,1.958 -2.634,3.074 -0.409,1.474 -1.379,3.504 -2.148,4.493 -0.385,0.496 -0.7,1.21 -0.7,1.587 0,0.377 -0.395,1.427 -0.876,2.332 l -0.876,1.647 -0.971,-1.06 c -1.054,-1.15 -2.049,-1.335 -3.091,-0.573 -1.457,1.065 -1.533,13.385 -0.095,15.438 0.338,0.483 0.616,1.162 0.616,1.508 0,0.346 0.254,1.116 0.564,1.712 0.311,0.595 0.566,1.94 0.567,2.988 0.002,1.048 0.278,2.919 0.613,4.159 0.336,1.239 0.763,3.012 0.949,3.939 0.186,0.927 0.506,1.854 0.713,2.06 0.206,0.206 0.374,0.9 0.374,1.543 0,0.642 0.316,1.786 0.701,2.542 0.385,0.756 0.811,2.312 0.946,3.459 0.135,1.147 0.446,2.564 0.692,3.148 0.444,1.054 0.98,4.234 1.855,11.012 0.539,4.171 0.473,4.292 -2.797,5.141 -1.209,0.314 -2.871,1.105 -3.7,1.762 -2.1,1.663 -3.266,1.843 -12.063,1.858 -5.75,0.009 -8.23,0.158 -9.607,0.576 -6.145,1.864 -15.346,-0.448 -15.346,-3.856 0,-0.259 -0.28,-1.056 -0.621,-1.772 -0.613,-1.286 -0.606,-1.326 0.636,-3.321 0.692,-1.111 1.383,-2.785 1.537,-3.721 0.385,-2.339 1.432,-7.057 1.971,-8.884 0.896,-3.034 0.59,-15.6 -0.427,-17.581 -2.56,-4.985 -4.451,-7.504 -6.73,-8.964 -2.266,-1.451 -4.253,-2.46 -5.234,-2.657 -0.615,-0.124 -1.551,-0.451 -2.08,-0.727 -1.332,-0.695 -6.34,-0.654 -7.715,0.063 -0.596,0.311 -1.447,0.565 -1.891,0.566 -1.125,0.001 -4.901,2.027 -7.662,4.11 -1.275,0.962 -2.694,2.004 -3.154,2.316 -2.406,1.632 -3.791,2.749 -3.791,3.057 0,0.19 -0.255,0.346 -0.567,0.346 -0.312,0 -0.567,0.214 -0.567,0.476 0,0.262 -0.34,0.689 -0.756,0.948 -0.416,0.26 -0.756,0.67 -0.756,0.912 0,0.242 -0.23,0.708 -0.51,1.037 -1.003,1.176 -2.458,8.141 -1.864,8.923 0.462,0.607 2.294,1.692 2.856,1.692 1.492,0 2.478,2.714 1.599,4.4 -0.727,1.394 -0.728,4.696 -0.002,6.434 0.312,0.746 0.566,1.889 0.565,2.54 -0.001,1.141 1.608,6.966 2.272,8.225 0.179,0.338 0.441,1.236 0.584,1.995 0.274,1.462 2.435,3.592 4.404,4.34 1.808,0.688 1.968,6.979 0.198,7.811 -0.462,0.217 -1.69,0.825 -2.73,1.35 -1.04,0.525 -2.741,1.36 -3.781,1.856 -1.949,0.93 -4.465,2.834 -7.232,5.473 -2.818,2.688 -3.538,9.154 -2.173,19.53 1.11,8.438 0.066,35.825 -1.506,39.532 -0.549,1.294 -1.003,2.655 -1.01,3.025 -0.007,0.37 -0.262,1.003 -0.567,1.407 -0.305,0.403 -0.555,1.086 -0.555,1.518 0,0.431 -0.34,1.418 -0.756,2.194 -0.416,0.776 -0.756,1.746 -0.756,2.156 0,0.409 -0.237,1.303 -0.527,1.986 -0.498,1.176 -1.16,5.74 -2.32,15.987 -0.282,2.495 -0.686,5.302 -0.896,6.238 -0.211,0.935 -0.391,2.475 -0.4,3.421 -0.009,0.946 -0.195,1.9 -0.414,2.118 -0.369,0.369 -1.477,7.256 -2.09,12.986 -0.144,1.352 -0.579,3.272 -0.967,4.268 -0.387,0.995 -0.704,2.378 -0.704,3.072 0,0.695 -0.255,1.874 -0.567,2.621 -0.935,2.237 -0.307,5.984 1.726,10.307 0.402,0.855 0.731,1.689 0.731,1.854 0,0.165 0.521,0.997 1.158,1.849 0.636,0.852 1.785,2.485 2.552,3.628 l 1.394,2.08 0.11,12.056 c 0.09,9.825 0.212,12.202 0.662,12.844 0.303,0.433 0.552,1.138 0.552,1.565 0,0.427 0.293,1.195 0.651,1.707 0.358,0.511 0.761,1.993 0.896,3.294 0.134,1.3 0.478,2.645 0.762,2.988 0.363,0.437 0.52,1.772 0.523,4.446 0.005,3.854 2.015,11.79 3.41,13.463 0.261,0.312 0.599,0.992 0.753,1.512 0.154,0.52 0.457,1.166 0.673,1.435 1.958,2.445 3.971,10.326 2.539,9.945 -0.311,-0.083 -1.077,-0.231 -1.701,-0.329 -0.624,-0.099 -1.389,-0.393 -1.701,-0.655 -0.312,-0.262 -0.993,-0.605 -1.512,-0.762 -0.52,-0.158 -1.351,-0.603 -1.847,-0.99 -0.496,-0.388 -1.304,-0.704 -1.796,-0.704 -0.492,0 -0.894,-0.15 -0.894,-0.334 0,-0.325 -2.078,-1.169 -5.104,-2.072 -0.832,-0.248 -1.884,-0.659 -2.338,-0.913 -0.455,-0.254 -1.151,-0.462 -1.549,-0.462 -0.397,0 -1.03,-0.34 -1.406,-0.756 -0.377,-0.416 -0.839,-0.756 -1.028,-0.756 -0.639,0 -4.374,-1.906 -4.844,-2.471 -0.545,-0.657 -0.17,-42.333 0.405,-44.991 0.181,-0.839 0.369,-16.916 0.418,-35.727 0.049,-18.812 0.21,-38.116 0.36,-42.898 0.378,-12.143 0.659,-30.578 0.913,-59.925 0.249,-28.937 0.425,-43.284 0.836,-68.431 0.161,-9.877 0.293,-22.977 0.293,-29.111 V 3.214 l -1.004,-0.117 c -0.552,-0.063 -1.11,0.057 -1.24,0.267 m 115.035,4.481 c 1.799,1.52 1.89,3.35 0.158,3.181 -1.092,-0.106 -1.229,-0.013 -1.229,0.832 0,0.524 -0.157,1.049 -0.35,1.169 -0.549,0.338 -0.871,-1.193 -0.427,-2.024 0.62,-1.158 0.475,-2.199 -0.334,-2.411 -0.73,-0.191 -1.535,1.212 -1.535,2.676 0,0.524 -1.191,3.106 -2.476,5.367 -0.296,0.52 -0.54,1.243 -0.543,1.607 -0.003,0.364 -0.261,0.662 -0.573,0.662 -0.798,0 -0.751,-2.771 0.069,-4.022 0.525,-0.802 0.56,-1.169 0.199,-2.125 -0.692,-1.834 0.296,-3.47 2.902,-4.803 2.663,-1.362 2.656,-1.362 4.139,-0.109 m 0.818,6.331 c 0.258,0.31 0.373,0.948 0.256,1.417 -0.116,0.469 -0.356,1.449 -0.532,2.176 -0.448,1.851 -1.389,1.746 -1.546,-0.172 -0.261,-3.207 0.623,-4.867 1.822,-3.421 m -3.401,1.136 c 0,0.52 -0.17,0.945 -0.378,0.945 -0.208,0 -0.378,-0.425 -0.378,-0.945 0,-0.52 0.17,-0.945 0.378,-0.945 0.208,0 0.378,0.425 0.378,0.945 m -6.427,2.411 c 0,1.585 -0.994,2.305 -1.205,0.873 -0.202,-1.382 -0.005,-1.961 0.669,-1.961 0.338,0 0.536,0.402 0.536,1.088 m 4.804,1.271 c -0.09,0.47 -0.168,0.174 -0.172,-0.658 -0.004,-0.831 0.07,-1.216 0.165,-0.855 0.094,0.362 0.098,1.042 0.007,1.513 M 245.1,18.147 c 0.109,0.416 0.043,0.851 -0.145,0.968 -0.188,0.116 -0.343,-0.224 -0.343,-0.756 0,-1.159 0.216,-1.252 0.488,-0.212 m 2.369,4.119 c -1.016,1.964 -0.175,3.256 1.214,1.867 1.872,-1.871 -0.49,9.715 -2.653,13.016 -0.792,1.209 -0.84,2.522 -0.154,4.167 0.28,0.67 0.627,1.898 0.773,2.729 0.373,2.134 1.314,5.051 2.159,6.692 0.396,0.769 0.719,1.65 0.719,1.957 0,0.308 0.275,0.835 0.611,1.171 0.613,0.613 0.731,0.96 1.859,5.492 0.808,3.244 2.04,6.905 2.475,7.354 0.192,0.197 0.348,0.642 0.348,0.987 0,0.346 0.696,1.971 1.546,3.611 l 1.546,2.982 -0.16,4.348 c -0.17,4.63 -0.735,6.284 -2.582,7.561 -0.451,0.312 -1.013,0.738 -1.249,0.946 -7.688,6.777 -15.882,12.287 -18.273,12.287 -0.393,0 -0.9,0.185 -1.126,0.412 -0.227,0.226 -1.749,0.548 -3.384,0.715 -1.634,0.167 -3.652,0.569 -4.484,0.895 -0.832,0.325 -1.948,0.599 -2.48,0.608 -0.532,0.009 -1.297,0.266 -1.701,0.571 -0.404,0.306 -1.006,0.561 -1.338,0.568 -0.332,0.006 -0.992,0.348 -1.466,0.76 -0.975,0.845 -1.522,0.698 -1.522,-0.411 0,-0.414 -0.248,-1.233 -0.551,-1.82 -0.303,-0.586 -0.667,-2.237 -0.807,-3.667 -0.141,-1.431 -0.433,-2.941 -0.649,-3.357 -0.216,-0.416 -0.519,-1.352 -0.672,-2.079 -0.152,-0.728 -0.731,-2.515 -1.285,-3.97 -1.671,-4.39 -1.7,-4.186 0.678,-4.878 2.34,-0.68 6.337,-0.805 6.925,-0.217 0.514,0.514 6.791,1.214 8.254,0.92 1.295,-0.26 8.507,-3.097 9.09,-3.576 0.208,-0.17 1.01,-0.428 1.783,-0.572 0.772,-0.145 1.601,-0.5 1.842,-0.79 0.288,-0.348 1.237,-0.528 2.777,-0.528 2.849,0 4.055,-0.642 3.065,-1.632 -0.35,-0.35 -1.028,-0.636 -1.508,-0.636 -1.087,0 -2.265,-2.555 -2.646,-5.74 -0.141,-1.181 -0.501,-2.35 -0.8,-2.598 -0.298,-0.248 -0.543,-0.983 -0.544,-1.633 -0.003,-1.774 -1.807,-12.232 -2.255,-13.069 -0.215,-0.401 -0.39,-1.045 -0.39,-1.43 0,-0.386 -0.341,-1.369 -0.756,-2.184 -0.416,-0.816 -0.757,-2.04 -0.757,-2.719 0,-0.68 -0.241,-1.877 -0.536,-2.661 -0.296,-0.784 -0.646,-2.505 -0.779,-3.824 -0.133,-1.319 -0.417,-2.85 -0.631,-3.403 -1.824,-4.714 -2.285,-9.343 -0.984,-9.881 1.654,-0.684 4.443,-3.784 4.443,-4.939 0,-0.559 0.434,-0.429 0.957,0.286 0.622,0.851 1.689,0.055 1.689,-1.261 0,-0.495 0.17,-0.899 0.378,-0.899 0.208,0 0.378,0.516 0.378,1.146 0,2.626 2.712,1.149 3.238,-1.764 0.393,-2.174 0.718,-2.416 0.847,-0.632 0.067,0.913 -0.134,2.068 -0.472,2.722 m -10.925,-1.472 c 0.816,1.382 1.428,1.433 2.243,0.189 1.58,-2.411 1.767,0.135 0.21,2.86 -1.169,2.047 -1.759,1.984 -2.007,-0.214 -0.109,-0.962 -0.308,-1.151 -1.317,-1.249 -0.949,-0.092 -1.227,-0.32 -1.383,-1.132 -0.373,-1.951 1.184,-2.265 2.254,-0.454 m 12.978,-0.284 c -0.004,0.468 -0.171,1.106 -0.373,1.418 -0.272,0.422 -0.368,0.204 -0.372,-0.85 -0.003,-0.78 0.164,-1.418 0.372,-1.418 0.208,0 0.376,0.383 0.373,0.85 m 1.113,1.324 c -0.023,0.907 -0.065,0.943 -0.331,0.283 -0.167,-0.416 -0.23,-0.884 -0.14,-1.039 0.32,-0.554 0.497,-0.27 0.471,0.756 m -16.169,6.175 c -0.13,5.168 -0.285,6.112 -0.859,5.207 -0.372,-0.587 -0.458,-9.021 -0.101,-9.95 0.715,-1.862 1.081,-0.053 0.96,4.743 m 16.574,-0.418 c 0,2.6 -0.246,3.411 -1.035,3.411 -0.552,0 -0.429,-4.832 0.147,-5.764 0.471,-0.762 0.888,0.342 0.888,2.353 m -65.974,3.411 c 0.541,0.232 0.164,0.322 -1.323,0.314 -1.587,-0.009 -1.855,-0.083 -1.134,-0.314 1.224,-0.392 1.545,-0.392 2.457,0 M 136.27,62.949 c -0.059,33.329 -0.178,50.207 -0.351,50.033 -0.254,-0.254 -0.4,-45.807 -0.211,-65.912 0.147,-15.571 0.162,-15.866 0.37,-6.994 0.119,5.094 0.206,15.387 0.192,22.873 m 50.236,-29.514 c 0.63,0.477 0.571,0.555 -0.756,0.983 -2.054,0.662 -2.051,0.657 -1.042,1.745 0.764,0.825 1.012,0.909 1.495,0.508 0.475,-0.394 0.707,-0.364 1.297,0.169 1.817,1.645 3.677,-0.672 1.937,-2.413 -0.71,-0.71 -0.719,-0.779 -0.103,-0.779 3.292,0 9.796,6.824 10.467,10.982 0.149,0.926 0.511,2.061 0.802,2.521 0.674,1.063 0.726,6.189 0.069,6.846 -0.253,0.254 -0.666,2.202 -0.916,4.329 -1.348,11.466 -1.972,13.071 -5.152,13.245 -1.816,0.099 -2.289,0.274 -2.814,1.041 -1.12,1.638 -2.969,2.018 -4.433,0.911 -0.404,-0.305 -1.254,-0.556 -1.891,-0.558 -2.794,-0.006 -8.427,-2.553 -10.419,-4.711 -1.063,-1.152 -1.246,-5.078 -0.363,-7.789 1.037,-3.186 -2.237,-8.056 -4.363,-6.488 -0.616,0.454 -2.079,3.392 -2.079,4.175 0,0.399 -0.34,1.158 -0.756,1.687 -0.416,0.528 -0.756,1.237 -0.756,1.575 0,1.566 2.827,0.938 3.244,-0.721 0.301,-1.199 0.73,-1.213 1.493,-0.048 0.726,1.108 0.016,3.282 -1.303,3.988 -1.263,0.676 -0.527,3.42 0.918,3.42 0.546,0 2.453,1.711 2.453,2.202 0,0.789 3.509,2.917 5.35,3.244 0.758,0.135 1.587,0.496 1.842,0.802 0.254,0.307 0.79,0.557 1.191,0.557 0.4,0 1.188,0.232 1.749,0.515 1.527,0.77 7.148,1.375 9.15,0.984 0.935,-0.182 1.903,-0.339 2.15,-0.348 0.247,-0.009 1.079,1.276 1.849,2.855 1.388,2.847 2.981,4.473 5.452,5.568 3.495,1.547 4.886,3.389 6.051,8.007 0.706,2.797 0.933,12.008 0.365,14.744 -0.26,1.248 -0.55,2.985 -0.645,3.86 -0.095,0.875 -0.412,1.789 -0.703,2.031 -0.292,0.242 -0.531,0.735 -0.531,1.096 0,3.246 -5.378,6.187 -9.938,5.434 -3.132,-0.518 -10.478,-9.998 -10.478,-13.523 0,-0.278 -0.255,-0.718 -0.567,-0.977 -0.312,-0.259 -0.567,-0.697 -0.567,-0.975 0,-0.473 -1.181,-2.449 -2.457,-4.111 -0.312,-0.407 -0.567,-0.932 -0.567,-1.169 0,-0.236 -1.514,-1.931 -3.364,-3.767 l -3.363,-3.337 0.493,-1.4 c 0.45,-1.274 0.425,-1.468 -0.277,-2.169 -0.609,-0.61 -0.842,-1.549 -1.112,-4.49 -0.35,-3.807 -1.103,-5.995 -2.313,-6.722 -0.879,-0.529 -1.486,0.344 -1.197,1.722 0.393,1.875 -0.839,1.629 -1.749,-0.349 -0.45,-0.978 -0.97,-2.033 -1.155,-2.345 -3.426,-5.782 -3.626,-19.569 -0.317,-21.879 0.409,-0.286 0.743,-0.67 0.743,-0.855 0,-0.185 0.603,-1.194 1.34,-2.243 0.738,-1.049 1.511,-2.28 1.718,-2.737 0.559,-1.231 1.341,-2.545 1.769,-2.973 0.386,-0.386 0.194,-1.838 -0.24,-1.813 -0.855,0.048 -3.831,2.783 -3.831,3.521 0,0.117 -0.385,0.781 -0.857,1.475 -3.019,4.449 -5.645,5.879 -7.46,4.064 -0.884,-0.883 -1.019,-3.093 -0.229,-3.748 0.29,-0.241 0.635,-1.009 0.766,-1.707 0.219,-1.169 0.955,-2.02 5.337,-6.171 0.274,-0.26 0.598,-0.472 0.719,-0.472 0.306,0 3.848,-2.498 5.835,-4.115 3.37,-2.743 10.99,-4.443 13.019,-2.904 m -12.782,1.757 c 0,0.295 -0.383,0.59 -0.851,0.657 -0.468,0.066 -0.85,0.279 -0.85,0.472 0,0.194 -0.24,0.352 -0.533,0.352 -0.356,0 -0.201,-0.378 0.464,-1.137 1.018,-1.159 1.77,-1.306 1.77,-0.344 m 22.357,0.555 c 1.029,1.11 1.087,1.304 0.393,1.304 -0.649,0 -2.231,-1.679 -1.896,-2.013 0.395,-0.396 0.545,-0.325 1.503,0.709 m -26.666,2.55 c -0.485,0.485 -0.977,0.11 -0.618,-0.471 0.139,-0.225 0.427,-0.302 0.638,-0.171 0.258,0.159 0.252,0.371 -0.02,0.642 m 67.141,3.574 c -0.096,0.364 -0.173,0.067 -0.173,-0.661 0,-0.728 0.077,-1.026 0.173,-0.662 0.095,0.364 0.095,0.96 0,1.323 m -72.308,0.055 c 0.115,0.187 -0.04,0.434 -0.344,0.551 -0.591,0.227 -1.095,-0.245 -0.693,-0.647 0.342,-0.342 0.792,-0.3 1.037,0.096 m 37.258,1.719 c -0.014,1.028 -0.665,1.455 -1.068,0.702 -0.615,-1.149 -0.117,-2.731 0.566,-1.798 0.28,0.383 0.506,0.876 0.502,1.096 m -29.623,2.676 c -0.128,0.335 -0.413,0.497 -0.632,0.361 -0.274,-0.169 -0.258,-0.416 0.051,-0.789 0.549,-0.662 0.9,-0.403 0.581,0.428 m 66.191,2.167 c -0.09,0.468 -0.164,0.085 -0.164,-0.851 0,-0.936 0.074,-1.318 0.164,-0.851 0.09,0.468 0.09,1.234 0,1.702 m -67.191,-1.135 c -0.004,0.26 -0.152,0.704 -0.331,0.986 -0.42,0.663 -0.884,-0.036 -0.569,-0.857 0.273,-0.713 0.908,-0.804 0.9,-0.129 m 31.284,5.294 c -0.079,0.883 -0.145,0.16 -0.145,-1.607 0,-1.768 0.066,-2.491 0.145,-1.607 0.08,0.884 0.08,2.33 0,3.214 m -32.63,-2.238 c -0.133,0.347 -0.394,0.631 -0.579,0.631 -0.186,0 -0.338,0.253 -0.338,0.562 0,0.31 -0.68,1.203 -1.512,1.985 -1.105,1.041 -1.513,1.727 -1.517,2.557 -0.015,2.835 -0.888,3.742 -1.275,1.323 -0.145,-0.907 -0.542,-1.699 -0.993,-1.981 -1.094,-0.683 -0.929,-1.422 0.318,-1.422 0.83,0 1.57,-0.542 3.308,-2.425 2.062,-2.235 3.177,-2.765 2.588,-1.23 m 70.265,2.019 c 0.108,0.562 0.11,1.244 0.006,1.516 -0.356,0.926 -0.867,0.08 -0.867,-1.437 0,-1.655 0.551,-1.706 0.861,-0.079 m 10.854,-0.349 c -0.005,0.811 -0.087,0.915 -0.372,0.473 -0.478,-0.74 -0.478,-1.512 0,-1.512 0.207,0 0.375,0.468 0.372,1.039 m -76.771,5.478 c 0.356,1.088 0.362,1.894 0.027,3.509 -0.515,2.479 -0.622,5.7 -0.228,6.892 0.318,0.966 -0.636,1.243 -1.17,0.339 -0.166,-0.281 -0.664,-0.701 -1.106,-0.933 -1.332,-0.699 -1.383,-1.883 -0.108,-2.542 2.115,-1.094 1.152,-6.577 -1.08,-6.148 -0.342,0.066 -0.714,0.498 -0.827,0.96 -0.287,1.172 -1.465,2.454 -1.969,2.143 -0.276,-0.171 -0.159,-0.467 0.344,-0.867 0.42,-0.334 0.878,-1.256 1.018,-2.048 0.152,-0.857 0.788,-2.03 1.572,-2.898 l 1.317,-1.458 0.874,0.819 c 0.481,0.45 1.082,1.455 1.336,2.232 m 27.621,2.437 c 0.007,2.625 -0.523,4.463 -1.172,4.062 -0.417,-0.258 -0.172,-5.586 0.316,-6.857 0.409,-1.067 0.851,0.374 0.856,2.795 m -37.801,3.649 c -0.252,0.625 -0.328,0.372 -0.322,-1.072 0.008,-1.634 0.053,-1.745 0.331,-0.819 0.179,0.598 0.175,1.435 -0.009,1.891 m 91.316,-0.41 c 0.144,0.675 0.512,1.513 0.819,1.861 0.837,0.949 1.13,3.715 0.394,3.715 -0.642,0 -1.036,-0.77 -1.036,-2.026 0,-0.457 -0.238,-1.17 -0.528,-1.585 -0.769,-1.098 -0.938,-3.194 -0.258,-3.194 0.192,0 0.466,0.553 0.609,1.229 m -55.344,7.179 c -0.242,1.126 -0.811,0.313 -0.806,-1.153 0.01,-2.585 0.534,-3.555 0.755,-1.395 0.106,1.04 0.129,2.186 0.051,2.548 m -34.484,-1.508 c -0.022,1.149 -0.046,1.171 -0.378,0.343 -0.196,-0.487 -0.26,-1.04 -0.143,-1.229 0.387,-0.626 0.546,-0.357 0.521,0.886 m 92.274,1.48 c 0,1.377 -0.165,1.327 -0.521,-0.157 -0.148,-0.617 -0.093,-1.04 0.136,-1.04 0.212,0 0.385,0.539 0.385,1.197 M 176.726,70.9 c 0.704,0.533 0.693,0.556 -0.283,0.556 -0.653,0 -1.018,-0.204 -1.018,-0.568 0,-0.705 0.357,-0.702 1.301,0.012 m 67.125,1.595 c -0.005,1.543 -0.113,2.01 -0.373,1.607 -0.484,-0.749 -0.484,-3.781 0,-3.781 0.209,0 0.376,0.973 0.373,2.174 m -46.159,1.118 c -0.394,0.773 -0.72,1.837 -0.725,2.365 l -0.008,0.96 -0.707,-0.92 c -0.688,-0.895 -0.766,-0.907 -2.828,-0.446 -2.102,0.471 -6.097,0.264 -6.467,-0.335 -0.098,-0.159 0.87,-0.365 2.152,-0.457 1.862,-0.135 2.44,-0.334 2.876,-0.99 0.3,-0.452 0.94,-0.822 1.423,-0.822 0.482,0 0.988,-0.18 1.124,-0.4 0.136,-0.22 0.699,-0.306 1.251,-0.19 0.552,0.116 1.25,0.052 1.552,-0.142 0.957,-0.614 1.097,-0.075 0.357,1.377 m -11.889,0.102 c 0.198,0.005 0.163,0.205 -0.077,0.445 -0.715,0.715 -4.252,0.354 -4.252,-0.434 0,-0.499 1.181,-0.639 2.647,-0.314 0.728,0.162 1.485,0.298 1.682,0.303 m 60.888,3.79 c 1.901,0 1.203,0.672 -0.952,0.916 -3.129,0.354 -3.869,-0.112 -2.223,-1.401 1.219,-0.953 1.262,-0.959 1.762,-0.246 0.281,0.402 0.917,0.731 1.413,0.731 m -78.436,0.283 c 0.247,0.78 0.689,1.801 0.983,2.269 0.466,0.743 0.461,0.85 -0.042,0.85 -0.317,0 -0.576,-0.235 -0.576,-0.523 0,-0.287 -0.34,-0.612 -0.756,-0.72 -0.601,-0.158 -0.756,-0.516 -0.756,-1.746 0,-1.934 0.555,-1.997 1.147,-0.13 m 72.86,1.504 c 0.096,0.292 -0.421,0.555 -1.397,0.711 -0.852,0.136 -1.641,0.395 -1.752,0.576 -0.112,0.181 -0.572,0.328 -1.022,0.328 -0.741,0 -0.699,-0.108 0.447,-1.154 1.313,-1.2 3.397,-1.458 3.724,-0.461 m -67.385,1.653 c 0.299,1.771 -0.101,5.736 -0.551,5.458 -0.166,-0.102 -0.409,-0.861 -0.541,-1.686 -0.148,-0.929 -0.559,-1.724 -1.079,-2.088 l -0.839,-0.587 0.84,-0.589 c 0.463,-0.324 0.841,-0.891 0.841,-1.26 0,-1.836 0.986,-1.278 1.329,0.752 m 56.263,2.237 c 0.668,0.004 0.715,0.073 0.253,0.372 -0.668,0.431 -2.448,0.478 -3.781,0.099 -0.898,-0.256 -0.879,-0.281 0.378,-0.511 0.728,-0.133 1.55,-0.18 1.827,-0.104 0.277,0.076 0.872,0.14 1.323,0.144 m -17.759,1.79 c 0.485,2.938 0,3.697 -1.057,1.653 -1.005,-1.945 -3.209,-1.734 -3.263,0.313 -0.024,0.897 -0.051,0.911 -0.395,0.205 -0.203,-0.418 -0.886,-1.056 -1.518,-1.418 -1.828,-1.049 -1.195,-1.6 1.873,-1.632 1.488,-0.016 2.82,-0.143 2.961,-0.284 0.617,-0.617 1.182,-0.149 1.399,1.163 m -1.995,1.228 c 0.191,0 0.347,0.233 0.347,0.516 0,0.284 0.34,0.949 0.756,1.478 0.416,0.529 0.756,1.279 0.756,1.668 0,0.389 0.248,1.061 0.551,1.493 1.148,1.64 3.016,12.921 3.605,21.775 0.19,2.854 0.609,5.965 0.93,6.913 0.333,0.978 0.593,3.065 0.602,4.828 0.009,1.752 0.259,3.766 0.572,4.619 0.449,1.222 0.595,5.081 0.763,20.105 l 0.208,18.593 -0.945,1.776 c -0.972,1.825 -3.18,3.539 -4.584,3.557 -0.416,0.006 -1.522,0.256 -2.458,0.557 -0.936,0.301 -3.573,0.827 -5.86,1.171 -7.245,1.087 -10.167,1.603 -11.646,2.053 -1.155,0.352 -1.789,0.328 -3.214,-0.121 -1.213,-0.383 -4.169,-0.618 -9.337,-0.744 -10.413,-0.252 -12.407,-1.142 -11.036,-4.924 0.313,-0.863 0.675,-3.101 0.805,-4.972 0.334,-4.82 0.826,-8.827 1.3,-10.586 0.224,-0.832 0.413,-2.533 0.42,-3.781 0.007,-1.248 0.255,-3.066 0.551,-4.042 0.343,-1.13 0.631,-4.625 0.794,-9.641 0.166,-5.097 0.408,-8.003 0.687,-8.254 1.039,-0.933 3.213,-4.996 3.5,-6.539 0.142,-0.765 0.51,-1.778 0.817,-2.251 0.658,-1.011 0.478,-6.27 -0.24,-6.987 -0.238,-0.238 -0.433,-1 -0.433,-1.693 0,-0.692 -0.396,-2.232 -0.88,-3.421 -0.484,-1.19 -1.2,-3.183 -1.591,-4.431 -0.391,-1.248 -0.931,-2.537 -1.199,-2.865 -0.269,-0.329 -0.489,-0.767 -0.489,-0.974 0,-0.207 -0.425,-0.777 -0.945,-1.265 -0.52,-0.488 -0.945,-1.1 -0.945,-1.36 0,-0.26 -0.478,-0.953 -1.062,-1.541 -1.861,-1.874 -0.995,-3.904 1.667,-3.904 0.9,0 7.334,6.81 7.334,7.763 0,0.172 0.642,1.345 1.427,2.607 2.057,3.307 2.154,3.485 3.872,7.021 0.858,1.767 1.836,3.778 2.174,4.468 0.666,1.362 4.336,5.362 4.92,5.362 0.198,0 0.847,0.383 1.442,0.851 2.263,1.779 11.496,0.459 11.496,-1.643 0,-0.188 0.213,-0.342 0.473,-0.342 1.319,0 3.563,-4.232 4.055,-7.648 0.188,-1.304 0.538,-3.307 0.778,-4.451 0.56,-2.666 0.358,-14.031 -0.263,-14.781 -0.241,-0.292 -0.558,-1.211 -0.704,-2.043 -0.146,-0.832 -0.501,-1.889 -0.79,-2.35 -0.724,-1.155 -0.685,-2.14 0.074,-1.849 0.329,0.126 0.754,0.229 0.945,0.229 m -35.192,4.572 -0.42,1.669 -1.68,-0.134 c -1.389,-0.11 -2.523,-0.814 -1.312,-0.814 0.203,0 0.624,-0.494 0.936,-1.098 1.558,-3.012 3.264,-2.752 2.476,0.377 m 38.564,-1.358 c 0,0.495 -0.171,1.006 -0.378,1.134 -0.226,0.14 -0.379,-0.318 -0.379,-1.134 0,-0.816 0.153,-1.274 0.379,-1.134 0.207,0.128 0.378,0.639 0.378,1.134 m -43.857,3.928 c -0.938,0.26 -1.615,1.932 -0.782,1.932 0.222,0 0.404,0.359 0.404,0.797 0,0.571 -0.169,0.731 -0.598,0.567 -0.329,-0.126 -0.729,-0.23 -0.89,-0.23 -0.16,0 -0.743,-0.418 -1.295,-0.93 -1.101,-1.02 -0.596,-1.716 1.246,-1.716 0.43,0 0.781,-0.17 0.781,-0.378 0,-0.208 0.468,-0.361 1.04,-0.341 l 1.039,0.038 -0.945,0.261 m -4.725,2.311 c 0.213,0.344 -1.252,1.133 -2.105,1.133 -0.526,0 -0.427,-1.041 0.119,-1.262 0.811,-0.326 1.742,-0.266 1.986,0.129 m 80.718,0.148 c 0,0.289 -0.228,0.614 -0.507,0.721 -0.692,0.265 -1.541,-0.31 -1.221,-0.828 0.373,-0.602 1.728,-0.519 1.728,0.107 m -66.541,0.607 c 0,0.42 0.252,0.756 0.567,0.756 0.373,0 0.559,0.357 0.543,1.04 -0.023,1 -0.037,1.007 -0.366,0.189 -0.188,-0.468 -0.56,-0.852 -0.826,-0.853 -0.267,-0.002 -0.682,-0.427 -0.922,-0.946 -0.384,-0.827 -0.349,-0.942 0.283,-0.942 0.469,0 0.721,0.265 0.721,0.756 m -11.839,0.402 c 1.246,0.471 3.074,2.11 3.559,3.19 0.186,0.416 0.509,1.011 0.718,1.323 0.208,0.312 0.553,0.993 0.766,1.513 0.213,0.519 0.8,1.625 1.305,2.457 1.234,2.032 1.142,1.762 2.092,6.158 1.11,5.133 0.963,9.901 -0.398,12.901 l -0.929,2.045 -0.378,-2.612 c -0.356,-2.458 -0.439,-2.62 -1.414,-2.732 -1.741,-0.201 -2.026,1.041 -1.491,6.478 1.212,12.301 -1.124,35.771 -3.901,39.199 -0.252,0.312 -0.636,1.077 -0.852,1.701 -0.216,0.624 -0.513,1.43 -0.659,1.791 -0.198,0.487 -0.013,0.752 0.717,1.03 1.017,0.387 1.264,0.931 0.606,1.338 -0.208,0.128 -0.378,0.578 -0.378,0.999 0,0.772 -2.687,6.052 -3.643,7.159 -0.284,0.328 -0.516,0.784 -0.516,1.013 0,0.228 -0.231,0.647 -0.514,0.93 -0.671,0.671 -1.984,3.655 -2.317,5.266 -0.387,1.868 -1.179,4.094 -2.061,5.79 -0.429,0.824 -0.779,1.887 -0.779,2.363 0,0.476 -0.157,0.865 -0.349,0.865 -0.192,0 -0.554,0.638 -0.805,1.418 -0.252,0.78 -0.594,1.593 -0.762,1.806 -0.406,0.517 -2.24,6.158 -2.255,6.938 -0.007,0.337 -0.262,0.944 -0.567,1.347 -0.305,0.404 -0.555,1.117 -0.555,1.585 0,0.468 -0.187,0.966 -0.414,1.106 -0.257,0.159 -0.319,0.778 -0.163,1.63 0.519,2.831 0.628,6.139 0.254,7.699 -0.212,0.887 -0.558,2.294 -0.768,3.125 -0.21,0.832 -0.457,3.265 -0.548,5.408 -0.159,3.763 -0.63,5.905 -0.63,2.868 0,-0.82 -0.238,-1.832 -0.53,-2.248 -0.291,-0.416 -0.722,-1.472 -0.958,-2.346 -0.578,-2.148 -3.048,-3.302 -3.048,-1.425 0,0.746 -1.278,0.75 -1.896,0.006 -0.387,-0.466 -0.325,-1.031 0.332,-3.033 0.444,-1.352 0.807,-2.977 0.807,-3.61 0,-0.633 0.193,-1.511 0.428,-1.95 0.235,-0.44 0.533,-1.662 0.662,-2.716 0.205,-1.683 0.349,-1.933 1.179,-2.044 1.418,-0.19 1.74,-0.696 0.98,-1.537 -1.296,-1.431 -1.215,-3.327 0.505,-11.947 0.415,-2.08 1.02,-6.503 1.346,-9.83 0.326,-3.327 0.758,-7.201 0.96,-8.608 0.202,-1.408 0.368,-3.709 0.368,-5.115 0,-2.087 0.138,-2.674 0.756,-3.203 0.471,-0.403 0.756,-1.115 0.756,-1.89 0,-0.683 0.233,-1.578 0.519,-1.988 0.285,-0.411 0.638,-1.342 0.784,-2.069 0.264,-1.315 1.511,-4.892 2.137,-6.128 0.179,-0.354 0.437,-1.375 0.573,-2.268 0.135,-0.893 0.521,-1.938 0.858,-2.324 0.508,-0.582 0.65,-2.146 0.844,-9.262 0.128,-4.71 0.421,-9.243 0.652,-10.075 0.602,-2.167 0.517,-8.386 -0.14,-10.208 -0.329,-0.914 -0.553,-3.008 -0.567,-5.293 -0.012,-2.079 -0.163,-4.998 -0.336,-6.486 -0.454,-3.912 0.081,-11.099 0.868,-11.675 0.337,-0.246 0.613,-0.606 0.613,-0.8 0,-0.418 2.967,-3.313 3.781,-3.689 0.312,-0.144 1.162,-0.585 1.89,-0.981 1.587,-0.861 1.566,-0.859 2.906,-0.353 m 43.121,6.876 c -0.074,1.3 -0.134,0.236 -0.134,-2.363 0,-2.599 0.06,-3.662 0.134,-2.363 0.074,1.3 0.074,3.427 0,4.726 m 5.769,-4.231 c 0,0.82 -0.17,1.49 -0.378,1.49 -0.208,0 -0.378,-0.775 -0.378,-1.723 0,-1.053 0.147,-1.633 0.378,-1.49 0.208,0.128 0.378,0.904 0.378,1.723 m -34.404,0.532 c 0,0.304 0.34,0.736 0.756,0.958 0.416,0.223 0.756,0.739 0.756,1.148 0,0.408 0.34,1.083 0.756,1.499 0.416,0.416 0.756,1.195 0.756,1.733 0,1.428 -0.876,0.94 -1.295,-0.722 -0.193,-0.764 -0.473,-1.389 -0.624,-1.389 -0.308,0 -1.862,-2.85 -1.862,-3.415 0,-0.201 0.171,-0.366 0.378,-0.366 0.208,0 0.379,0.249 0.379,0.554 m 16.635,1.285 c 0,2.66 1.474,7.613 2.265,7.613 1.207,0 1.346,-5.031 0.171,-6.206 -0.299,-0.298 -0.71,-0.981 -0.913,-1.516 -0.513,-1.35 -1.523,-1.277 -1.523,0.109 m -40.972,0.946 c -0.339,0.714 -0.616,1.486 -0.616,1.714 0,0.229 -0.17,0.416 -0.378,0.416 -0.789,0 -0.406,-2.536 0.472,-3.126 1.142,-0.768 1.256,-0.55 0.522,0.996 m 16.22,-0.857 c 0.334,1.052 -0.31,1.688 -0.94,0.928 -0.505,-0.609 -0.296,-1.722 0.324,-1.722 0.2,0 0.477,0.357 0.616,0.794 m 61.236,-0.053 c 0,0.693 -2.033,1.135 -4.005,0.87 -2.044,-0.274 -1.847,-0.729 0.507,-1.166 2.547,-0.473 3.498,-0.392 3.498,0.296 m -8.318,1.528 c -0.128,0.207 -0.744,0.378 -1.368,0.378 -0.66,0 -1.036,-0.159 -0.9,-0.378 0.128,-0.208 0.744,-0.379 1.368,-0.379 0.659,0 1.036,0.159 0.9,0.379 m -51.871,0.884 c 0.107,0.279 0.043,0.747 -0.143,1.04 -0.245,0.388 -0.339,0.25 -0.343,-0.507 -0.006,-1.129 0.179,-1.332 0.486,-0.533 m 43.27,7.462 c -0.491,6.414 -0.913,6.32 -1.383,-0.306 -0.462,-6.517 -0.096,-8.684 1.077,-6.383 0.66,1.294 0.682,1.785 0.306,6.689 m -16.919,-5.3 c 0,1.562 -0.542,2.005 -0.935,0.766 -0.292,-0.919 0.15,-2.741 0.597,-2.464 0.186,0.115 0.338,0.879 0.338,1.698 m -15.128,1.963 c 0.003,0.364 -0.165,0.662 -0.373,0.662 -0.208,0 -0.375,-0.553 -0.372,-1.229 0.004,-0.933 0.094,-1.092 0.372,-0.662 0.202,0.312 0.369,0.865 0.373,1.229 m 23.446,3.875 c 0,0.496 -0.17,1.006 -0.378,1.134 -0.226,0.14 -0.378,-0.318 -0.378,-1.134 0,-0.815 0.152,-1.273 0.378,-1.134 0.208,0.129 0.378,0.639 0.378,1.134 m -31.758,0.779 c 0,1.415 -0.548,1.76 -0.866,0.544 -0.254,-0.971 0.095,-2.322 0.531,-2.052 0.184,0.114 0.335,0.792 0.335,1.508 m 10.937,0.828 c -0.023,0.921 -0.063,0.954 -0.351,0.284 -0.444,-1.033 -0.444,-1.324 0,-1.324 0.208,0 0.366,0.468 0.351,1.04 m 1.539,1.574 c 0,0.19 0.596,0.959 1.323,1.709 0.728,0.749 1.324,1.541 1.324,1.759 0,0.44 -1.628,0.058 -1.817,-0.427 -0.063,-0.163 -0.531,-0.744 -1.039,-1.293 -1.042,-1.124 -1.208,-2.093 -0.358,-2.093 0.312,0 0.567,0.155 0.567,0.345 m 17.309,1.713 c -0.292,0.22 -0.643,0.697 -0.78,1.061 -0.136,0.364 -0.442,0.661 -0.678,0.661 -0.238,0 -0.328,-0.268 -0.201,-0.598 0.126,-0.328 0.229,-0.754 0.229,-0.945 0,-0.191 0.255,-0.347 0.567,-0.347 0.312,0 0.567,-0.312 0.567,-0.693 0,-1.063 0.551,-1.381 0.698,-0.404 0.072,0.476 -0.109,1.045 -0.402,1.265 m -50.641,6.921 -0.061,7.467 -0.365,-4.969 c -0.319,-4.345 -0.134,-9.965 0.329,-9.965 0.087,0 0.131,3.36 0.097,7.467 m 21.99,-5.123 c 0,0.88 -0.114,1.096 -0.416,0.794 -0.228,-0.228 -0.302,-0.773 -0.163,-1.21 0.361,-1.137 0.579,-0.98 0.579,0.416 m 40.199,1.94 c 0.129,1.524 0.116,3.693 -0.027,4.82 l -0.262,2.049 -0.262,-1.89 c -0.38,-2.736 -0.383,-7.751 -0.006,-7.751 0.177,0 0.428,1.248 0.557,2.772 m -18.353,0.53 c -0.98,0.078 -2.682,0.079 -3.78,0.002 -1.099,-0.077 -0.297,-0.14 1.783,-0.141 2.079,-10e-4 2.978,0.062 1.997,0.139 m -23.164,3.05 c -0.192,0.765 -0.32,0.861 -0.583,0.437 -0.322,-0.522 -0.138,-2.026 0.346,-2.819 0.342,-0.56 0.522,1.247 0.237,2.382 m -3.981,0.923 c 0.005,1.379 0.18,1.902 0.762,2.265 0.924,0.577 0.959,1.344 0.117,2.547 -0.532,0.759 -0.664,2.123 -0.784,8.106 -0.079,3.956 -0.296,7.454 -0.483,7.773 -0.407,0.694 -0.366,1.051 -0.56,-4.903 -0.273,-8.381 -0.267,-17.701 0.011,-18.152 0.474,-0.767 0.931,0.385 0.937,2.364 m 2.497,2.081 c -0.413,0.413 -0.696,-0.244 -0.4,-0.927 0.281,-0.648 0.302,-0.647 0.458,0.013 0.091,0.38 0.064,0.791 -0.058,0.914 m -19.003,18.389 c -0.134,4.91 -0.372,8.928 -0.528,8.928 -0.514,0 -0.795,-2.939 -0.496,-5.178 0.161,-1.207 0.242,-2.364 0.18,-2.572 -0.258,-0.864 -0.15,-9.524 0.13,-10.364 0.723,-2.176 0.946,0.69 0.714,9.186 m -21.999,22.981 c -0.007,17.12 -0.149,36.571 -0.316,43.225 l -0.303,12.098 -0.233,-8.695 c -0.457,-17.094 0.082,-78.538 0.683,-77.937 0.1,0.1 0.176,14.189 0.169,31.309 m 36.897,-14.912 c -0.082,0.785 -0.151,0.235 -0.152,-1.22 -0.002,-1.456 0.065,-2.097 0.148,-1.426 0.084,0.671 0.085,1.862 0.004,2.646 m -1.515,8.887 c -0.084,0.679 -0.154,0.214 -0.157,-1.033 -0.002,-1.248 0.067,-1.804 0.153,-1.236 0.087,0.568 0.088,1.589 0.004,2.269 m -0.542,5.259 c -0.023,1.485 -0.247,3.435 -0.499,4.332 -0.562,2.009 -0.275,3.3 0.854,3.844 0.843,0.407 0.839,0.415 -0.206,0.44 -0.586,0.014 -1.412,0.211 -1.836,0.439 -0.515,0.275 -0.898,0.287 -1.151,0.034 -0.521,-0.521 0.357,-3.094 1.056,-3.094 0.807,0 0.668,-2.002 -0.218,-3.128 -0.416,-0.528 -0.756,-1.147 -0.756,-1.375 0,-0.228 0.34,-1.05 0.756,-1.826 0.416,-0.775 0.756,-1.682 0.756,-2.015 0,-0.836 0.441,-1.196 0.901,-0.736 0.212,0.211 0.366,1.6 0.343,3.085 m -10.799,-2.08 c -0.197,1.033 0.138,1.378 1.014,1.041 0.836,-0.32 0.754,-1.534 -0.119,-1.762 -0.535,-0.14 -0.766,0.047 -0.895,0.721 m -7.464,4.033 c -0.003,0.456 -0.15,1.055 -0.325,1.333 -0.458,0.721 -0.785,-0.241 -0.532,-1.564 0.223,-1.169 0.866,-0.996 0.857,0.231 m 66.546,3.676 c 0,0.898 -1.001,1.406 -1.597,0.81 -0.297,-0.297 -0.278,-0.574 0.072,-0.995 0.685,-0.825 1.525,-0.723 1.525,0.185 m -2.646,1.5 c -0.747,0.483 -2.647,0.483 -2.647,0 0,-0.208 0.724,-0.375 1.607,-0.372 1.177,0.004 1.455,0.104 1.04,0.372 m 2.281,1.229 c 0.007,0.26 0.342,1.153 0.744,1.985 0.401,0.832 0.736,1.841 0.743,2.244 0.016,0.947 1.517,6.336 1.901,6.83 0.162,0.207 0.42,1.143 0.572,2.079 0.153,0.936 0.598,2.153 0.988,2.705 1.425,2.014 1,4.621 -1.09,6.677 -2.382,2.342 -6.144,6.991 -7.505,9.271 -0.6,1.006 -1.384,2.282 -1.741,2.836 -0.823,1.274 -4.099,7.804 -4.781,9.531 -0.284,0.718 -0.81,1.901 -1.17,2.628 -1.493,3.024 -4.533,13.95 -5.112,18.377 -0.139,1.062 -0.578,2.465 -0.975,3.118 l -0.721,1.187 -5.016,-0.055 c -4.572,-0.049 -7.473,-0.672 -7.473,-1.604 0,-0.048 0.4,-0.927 0.889,-1.954 0.49,-1.026 1.011,-2.366 1.16,-2.977 0.148,-0.611 0.487,-1.292 0.753,-1.513 0.267,-0.22 0.873,-1.592 1.347,-3.047 0.474,-1.456 1.18,-3.278 1.57,-4.05 0.389,-0.771 0.708,-1.663 0.708,-1.982 0,-0.636 1.76,-2.341 3.112,-3.015 1.183,-0.59 1.09,-1.513 -0.169,-1.658 -2.023,-0.233 -5.212,2.224 -5.212,4.017 0,0.404 -0.255,0.947 -0.567,1.205 -0.312,0.259 -0.567,0.99 -0.567,1.624 0,0.634 -0.238,1.421 -0.529,1.749 -0.651,0.734 -2.495,5.083 -2.495,5.884 0,0.321 -0.156,0.879 -0.347,1.24 -0.191,0.361 -0.556,1.221 -0.812,1.91 l -0.466,1.253 -3.441,-0.163 c -5.397,-0.256 -10.437,-1.552 -15.106,-3.884 -1.425,-0.712 -2.848,-1.295 -3.164,-1.295 -1.917,0 -8.748,-5.299 -9.901,-7.681 -1.267,-2.616 -0.732,-7.268 1.681,-14.625 0.306,-0.936 0.557,-1.93 0.556,-2.209 -10e-4,-0.279 0.338,-0.94 0.754,-1.469 0.416,-0.528 0.756,-1.222 0.756,-1.542 0,-0.319 0.228,-0.849 0.507,-1.178 0.973,-1.146 3.652,-9.921 3.652,-11.962 0,-0.528 0.246,-1.435 0.546,-2.016 0.301,-0.581 0.714,-2.402 0.919,-4.046 1.108,-8.907 4.019,-14.227 7.009,-12.808 1.274,0.604 3.313,1.024 8.161,1.68 4.851,0.657 17.443,0.577 18.789,-0.119 0.663,-0.343 2.278,-0.784 3.59,-0.981 1.311,-0.196 2.979,-0.537 3.705,-0.757 0.727,-0.22 2.343,-0.41 3.592,-0.422 1.249,-0.012 3.462,-0.343 4.917,-0.735 3.131,-0.842 4.721,-0.938 4.739,-0.283 m -8.803,0.176 c -0.572,0.087 -1.507,0.087 -2.079,0 -0.572,-0.086 -0.104,-0.157 1.04,-0.157 1.143,0 1.611,0.071 1.039,0.157 m -42.255,1.147 c -0.017,0.829 -0.739,1.379 -0.745,0.567 -0.003,-0.468 0.165,-0.85 0.373,-0.85 0.208,0 0.375,0.127 0.372,0.283 m 20.399,0.774 c 0.446,0.446 1.238,0.508 4.027,0.312 3.573,-0.252 5.213,-0.035 4.25,0.56 -0.763,0.472 -12.412,-0.029 -13.736,-0.591 -0.659,-0.279 -2.779,-0.49 -5.057,-0.503 -2.342,-0.013 -4.091,-0.191 -4.342,-0.442 -0.308,-0.308 1.545,-0.349 6.941,-0.155 5.703,0.204 7.487,0.389 7.917,0.819 M 200,177.316 c 0.404,0.261 0.025,0.355 -1.323,0.327 -1.803,-0.037 -1.667,-0.195 0.567,-0.655 0.104,-0.021 0.444,0.126 0.756,0.328 m -36.554,7.321 c -0.273,1.055 -0.501,2.603 -0.506,3.442 -0.013,2.175 -0.608,4.457 -1.294,4.958 -0.411,0.301 -0.587,1.07 -0.587,2.562 0,2.092 -0.739,3.133 -0.775,1.093 -0.01,-0.572 -0.105,-2.32 -0.21,-3.885 -0.198,-2.96 1.253,-9.064 2.155,-9.064 0.21,0 0.571,-0.544 0.803,-1.209 0.674,-1.936 1.014,-0.21 0.414,2.103 m 58.147,0.349 c -0.309,0.309 -0.413,0.023 -0.391,-1.073 0.029,-1.477 0.034,-1.481 0.42,-0.421 0.278,0.762 0.269,1.195 -0.029,1.494 m -73.115,3.382 c -0.084,0.679 -0.155,0.214 -0.157,-1.033 -0.002,-1.248 0.067,-1.804 0.153,-1.236 0.087,0.568 0.088,1.589 0.004,2.269 m 74.724,-1.506 c 0.411,1.533 0.276,3.384 -0.234,3.215 -0.276,-0.09 -0.52,-0.971 -0.587,-2.11 -0.116,-1.977 0.401,-2.672 0.821,-1.105 m -64.79,8.957 c 0,0.404 -0.17,0.839 -0.378,0.967 -0.214,0.133 -0.378,-0.185 -0.378,-0.733 0,-0.533 0.17,-0.968 0.378,-0.968 0.208,0 0.378,0.33 0.378,0.734 m -11.28,1.596 c -0.091,2.329 -0.44,2.28 -0.44,-0.062 0,-1.109 0.113,-1.903 0.251,-1.765 0.138,0.138 0.223,0.96 0.189,1.827 m 9.864,2.49 c -0.241,0.645 -0.852,0.599 -0.852,-0.063 0,-1.215 0.486,-1.933 0.77,-1.138 0.142,0.401 0.18,0.942 0.082,1.201 m 1.416,0.27 c 0,0.512 -0.34,1.794 -0.756,2.85 -0.416,1.055 -0.756,2.234 -0.756,2.62 0,0.386 -0.239,0.793 -0.532,0.905 -0.292,0.112 -0.648,0.738 -0.791,1.389 -0.144,0.652 -0.499,1.642 -0.79,2.2 -0.291,0.558 -0.53,1.302 -0.531,1.653 -0.002,0.352 -0.173,0.745 -0.381,0.873 -0.64,0.396 -0.458,-3.432 0.189,-3.969 0.312,-0.259 0.567,-0.665 0.567,-0.903 0,-0.237 0.341,-1.067 0.757,-1.843 0.415,-0.776 0.756,-1.81 0.756,-2.299 0,-0.489 0.34,-1.281 0.756,-1.761 0.416,-0.479 0.756,-1.271 0.756,-1.759 0,-0.488 0.17,-0.887 0.378,-0.887 0.208,0 0.378,0.419 0.378,0.931 m 1.328,2.021 c -0.348,1.388 -0.96,0.295 -0.673,-1.203 0.175,-0.92 0.263,-0.989 0.567,-0.446 0.197,0.353 0.245,1.095 0.106,1.649 m -4.47,1.49 c -0.095,0.364 -0.173,0.066 -0.173,-0.661 0,-0.728 0.078,-1.026 0.173,-0.662 0.095,0.364 0.095,0.959 0,1.323 m -9.334,0.851 c 0,1.26 -0.168,2.268 -0.378,2.268 -0.416,0 -0.531,-3.88 -0.126,-4.285 0.457,-0.457 0.504,-0.272 0.504,2.017 m 12.476,1.112 c 0,0.611 -0.17,1.217 -0.378,1.345 -0.225,0.139 -0.378,-0.311 -0.378,-1.112 0,-0.74 0.17,-1.345 0.378,-1.345 0.208,0 0.378,0.5 0.378,1.112 m -1.512,3.258 c 0,0.801 -0.153,1.251 -0.378,1.112 -0.627,-0.387 -0.415,-2.458 0.252,-2.458 0.069,0 0.126,0.606 0.126,1.346 m -10.763,1.339 c 0.14,0.442 0.056,0.987 -0.189,1.229 -0.646,0.636 -1.685,-0.808 -1.094,-1.52 0.594,-0.715 0.992,-0.625 1.283,0.291 m 8.089,5.822 c 0,0.416 -0.243,1.182 -0.54,1.701 -0.297,0.52 -0.548,1.626 -0.559,2.458 -0.022,1.858 -0.363,3.213 -0.808,3.213 -0.39,0 -0.46,-9.578 -0.072,-9.965 0.383,-0.383 1.979,1.708 1.979,2.593 m -10.943,3.33 c -0.003,0.456 -0.17,1.084 -0.372,1.396 -0.268,0.415 -0.368,0.129 -0.372,-1.062 -0.004,-0.991 0.142,-1.538 0.372,-1.396 0.208,0.129 0.376,0.607 0.372,1.062 m 8.896,8.059 c 0.517,1.17 0.94,2.446 0.94,2.836 0,0.39 0.213,0.72 0.473,0.733 0.26,0.013 0.071,0.185 -0.42,0.381 -0.754,0.302 -0.859,0.547 -0.681,1.583 0.115,0.674 0.322,2.192 0.459,3.372 0.51,4.389 -2.34,8.004 -3.631,4.607 -0.199,-0.523 -0.843,-1.661 -1.431,-2.529 -0.588,-0.868 -1.177,-1.876 -1.31,-2.24 -0.132,-0.364 -0.4,-0.661 -0.595,-0.661 -0.198,0 -0.162,-0.415 0.083,-0.942 0.606,-1.307 1.231,-1.189 2.983,0.564 1.735,1.734 1.995,1.807 2.575,0.724 0.336,-0.629 0.288,-0.934 -0.24,-1.518 -0.786,-0.868 -1.114,-3.95 -0.741,-6.941 0.324,-2.591 0.376,-2.59 1.536,0.031 m 40.721,0.176 c -0.187,1.593 -0.84,1.747 -0.84,0.199 0,-0.981 0.149,-1.377 0.473,-1.262 0.26,0.092 0.425,0.57 0.367,1.063 m -46.964,1.123 c 0,0.675 -0.158,1.059 -0.378,0.923 -0.208,-0.129 -0.378,-0.649 -0.378,-1.157 0,-0.507 0.17,-0.923 0.378,-0.923 0.208,0 0.378,0.521 0.378,1.157 m -1.513,0.919 c 0,0.566 0.28,0.987 0.757,1.138 0.415,0.132 0.756,0.569 0.756,0.971 0,0.401 0.012,0.854 0.028,1.004 0.07,0.674 -0.79,0.448 -1.308,-0.345 -0.745,-1.138 -1.284,-4.315 -0.668,-3.934 0.239,0.148 0.435,0.673 0.435,1.166 m 46.764,1.989 c -0.095,0.363 -0.173,0.066 -0.173,-0.662 0,-0.728 0.078,-1.026 0.173,-0.662 0.095,0.364 0.095,0.96 0,1.324 m -35.942,2.953 c 1.366,1.255 3.347,2.56 6.984,4.6 0.826,0.463 2.985,1.299 4.797,1.857 1.812,0.558 3.631,1.243 4.041,1.521 0.41,0.278 1.376,0.505 2.147,0.505 0.774,0 1.669,0.268 2,0.599 0.36,0.36 1.617,0.699 3.146,0.851 2.885,0.285 2.998,0.541 1.61,3.654 -0.37,0.832 -0.799,1.938 -0.953,2.458 -0.153,0.519 -0.481,1.2 -0.729,1.512 -0.47,0.59 -1.846,3.389 -2.789,5.671 -0.301,0.728 -0.766,1.749 -1.034,2.268 -0.268,0.52 -0.861,1.711 -1.318,2.647 -3.866,7.912 -3.808,7.689 -2.081,8 0.47,0.085 0.89,0.621 1.138,1.455 0.216,0.726 0.604,1.692 0.862,2.146 0.258,0.454 0.469,1.093 0.469,1.419 0,0.326 0.34,1.228 0.756,2.004 0.416,0.776 0.756,1.684 0.756,2.019 0,0.845 2.814,9.362 3.551,10.745 0.75,1.409 0.761,2.071 0.054,3.081 -0.634,0.905 -1.601,4.839 -2.08,8.462 -0.18,1.357 -0.596,3.509 -0.926,4.78 -0.329,1.272 -0.599,3.015 -0.599,3.874 0,0.858 -0.34,2.529 -0.756,3.713 -0.416,1.183 -0.756,2.774 -0.756,3.536 0,0.761 -0.24,1.584 -0.534,1.827 -0.294,0.244 -0.652,1.295 -0.795,2.336 -0.353,2.569 -1.263,2.395 -2.193,-0.419 -0.377,-1.143 -0.845,-2.24 -1.039,-2.437 -0.195,-0.198 -0.354,-0.682 -0.354,-1.076 0,-0.394 -0.317,-1.169 -0.705,-1.721 -0.389,-0.551 -0.802,-1.513 -0.919,-2.137 -0.264,-1.4 -2.737,-8.595 -3.275,-9.527 -0.217,-0.375 -0.563,-1.107 -0.771,-1.626 -0.208,-0.52 -0.534,-1.201 -0.726,-1.513 -0.859,-1.396 -1.922,-3.862 -1.922,-4.459 0,-0.361 -0.34,-1.291 -0.756,-2.067 -0.416,-0.776 -0.756,-1.73 -0.756,-2.122 0,-0.391 -0.255,-0.923 -0.567,-1.182 -0.312,-0.258 -0.567,-0.848 -0.567,-1.31 0,-0.463 -0.34,-1.149 -0.756,-1.525 -0.468,-0.423 -0.756,-1.165 -0.756,-1.941 0,-0.692 -0.241,-1.899 -0.536,-2.683 -0.294,-0.784 -0.643,-2.701 -0.774,-4.261 -0.49,-5.841 -1.433,-11.204 -2.303,-13.1 -0.3,-0.656 -0.546,-1.934 -0.546,-2.842 0,-0.927 -0.331,-2.267 -0.756,-3.06 -0.688,-1.283 -0.756,-2.133 -0.756,-9.349 0,-7.528 0.039,-7.962 0.756,-8.409 0.416,-0.26 0.756,-0.609 0.756,-0.775 0,-0.166 0.377,-0.813 0.839,-1.437 0.736,-0.997 0.829,-1.545 0.76,-4.521 -0.042,-1.863 -0.016,-3.388 0.059,-3.388 0.076,0 0.797,0.606 1.602,1.347 m 34.852,0.26 c -0.126,1.745 -0.796,2.05 -0.995,0.453 -0.149,-1.2 0.144,-2.06 0.7,-2.06 0.25,0 0.366,0.629 0.295,1.607 m -1.439,3.195 c 0,0.76 -0.109,0.911 -0.428,0.592 -0.236,-0.235 -0.326,-0.695 -0.201,-1.02 0.346,-0.902 0.629,-0.71 0.629,0.428 m -24.197,0.113 c 0.416,0.416 1.054,0.759 1.418,0.762 0.364,0.003 0.897,0.155 1.184,0.337 0.901,0.57 -0.944,0.9 -1.926,0.344 -0.476,-0.27 -1.447,-0.664 -2.158,-0.876 -1.71,-0.509 -1.98,-1.323 -0.44,-1.323 0.662,0 1.493,0.327 1.922,0.756 m 53.686,3.432 c 0,0.692 -2.169,2.617 -2.949,2.617 -0.406,0 -0.961,0.268 -1.232,0.595 -1.706,2.055 -11.344,3.597 -13.552,2.168 -0.716,-0.463 -1.495,-0.535 -3.674,-0.337 -1.52,0.137 -3.663,0.116 -4.762,-0.048 -1.722,-0.257 -1.268,-0.331 3.296,-0.534 8.552,-0.381 17.012,-1.757 18.671,-3.038 0.496,-0.383 1.113,-0.696 1.372,-0.696 0.258,0 0.681,-0.255 0.94,-0.567 0.541,-0.652 1.89,-0.766 1.89,-0.16 m -43.572,0.61 c -0.364,0.095 -0.96,0.095 -1.324,0 -0.363,-0.096 -0.066,-0.173 0.662,-0.173 0.728,0 1.026,0.077 0.662,0.173 m 11.506,1.82 c 0.543,1.191 0.345,1.379 -1.8,1.704 -1.57,0.238 -1.777,0.181 -2.13,-0.594 -0.445,-0.978 -1.309,-1.288 -3.607,-1.296 -0.883,-0.002 -1.606,-0.175 -1.606,-0.383 0,-0.98 8.683,-0.44 9.143,0.569 m -5.594,8.7 c 0.109,1.452 0.06,3.236 -0.108,3.964 l -0.306,1.323 -0.288,-1.048 c -0.158,-0.577 -0.625,-1.285 -1.037,-1.574 -0.839,-0.588 -0.675,-2.635 0.238,-2.985 0.27,-0.103 0.601,-0.74 0.736,-1.415 0.347,-1.734 0.537,-1.301 0.765,1.735 m -2.799,3.491 c -0.017,0.829 -0.739,1.379 -0.745,0.567 -0.003,-0.468 0.165,-0.85 0.373,-0.85 0.208,0 0.375,0.127 0.372,0.283 m 1.808,3.194 c 0.431,2.042 0.619,5.855 0.724,14.642 l 0.141,11.882 -0.861,-0.93 c -0.474,-0.512 -1.349,-2.456 -1.944,-4.32 -0.595,-1.865 -1.318,-4.032 -1.607,-4.816 -0.288,-0.784 -0.524,-1.911 -0.524,-2.504 0,-0.594 -0.255,-1.803 -0.567,-2.687 -0.933,-2.646 -0.728,-4.72 0.784,-7.918 0.743,-1.571 1.721,-3.643 2.174,-4.605 1,-2.124 0.962,-2.153 1.68,1.256 m -27.927,7.181 c 0.051,2.374 -0.526,2.604 -1.073,0.429 -0.347,-1.377 -0.339,-2.007 0.036,-2.913 l 0.479,-1.157 0.26,0.934 c 0.143,0.513 0.277,1.731 0.298,2.707 m 22.1,0.552 c 0.379,4.486 0.323,5.425 -0.323,5.425 -0.312,0 -0.567,-0.263 -0.567,-0.585 0,-0.321 -0.383,-0.965 -0.851,-1.432 -0.921,-0.918 -0.953,-2.186 -0.072,-2.917 0.3,-0.248 0.545,-0.842 0.545,-1.32 0,-1.061 0.36,-2.064 0.741,-2.064 0.155,0 0.392,1.302 0.527,2.893 m 8.162,3.273 c -0.012,1.911 -0.163,4.156 -0.335,4.987 -0.228,1.105 -0.324,0.104 -0.356,-3.708 -0.028,-3.395 0.089,-5.139 0.334,-4.987 0.211,0.13 0.369,1.774 0.357,3.708 m -47.994,26.077 c 0.104,0.092 0.7,0.348 1.324,0.568 l 1.134,0.4 -1.17,0.03 c -2.569,0.065 -2.549,0.205 -2.289,-15.745 0.127,-7.855 0.273,-14.367 0.322,-14.471 0.05,-0.104 0.181,6.389 0.291,14.43 0.109,8.041 0.284,14.695 0.388,14.788 m 18.865,-25.154 c -0.038,1.777 -0.042,1.783 -0.426,0.588 -0.214,-0.664 -0.287,-1.472 -0.163,-1.795 0.409,-1.066 0.629,-0.616 0.589,1.207 m 21.957,4.414 c -0.239,0.239 -0.356,-0.156 -0.335,-1.125 0.032,-1.476 0.036,-1.48 0.368,-0.368 0.207,0.696 0.195,1.266 -0.033,1.493 m 26.475,14.017 c 0,3.403 -0.143,5.482 -0.378,5.482 -0.411,0 -0.545,-9.334 -0.148,-10.366 0.454,-1.184 0.526,-0.514 0.526,4.884 m -20.658,1.134 c -0.282,3.669 -0.341,3.78 -0.674,1.274 -0.143,-1.08 -0.591,-2.385 -0.995,-2.899 -0.71,-0.903 -1.001,-3.086 -0.481,-3.607 1.022,-1.022 2.378,2.277 2.15,5.232 m -23.381,0.216 c 0.276,1.257 0.089,1.706 -0.548,1.312 -0.493,-0.304 -0.541,-2.473 -0.055,-2.473 0.191,0 0.463,0.523 0.603,1.161 m 0.978,3.866 c -0.304,0.304 -0.414,0.115 -0.406,-0.698 0.011,-0.978 0.062,-1.029 0.418,-0.417 0.29,0.5 0.287,0.816 -0.012,1.115 m 21.282,0.864 c 0.335,0.875 0.278,2.046 -0.181,3.701 -0.776,2.792 -1.603,-0.022 -0.921,-3.129 0.28,-1.275 0.74,-1.513 1.102,-0.572 m -40.225,2.805 c 0,0.208 -0.35,0.378 -0.778,0.378 -0.428,0 -0.673,-0.17 -0.545,-0.378 0.129,-0.208 0.479,-0.378 0.779,-0.378 0.299,0 0.544,0.17 0.544,0.378 m 23.441,5.855 c 0,0.493 0.247,1.143 0.548,1.444 1.269,1.269 1.164,3.623 -0.13,2.93 -0.487,-0.26 -0.625,-0.676 -0.502,-1.513 0.103,-0.698 0.003,-1.155 -0.251,-1.155 -0.24,0 -0.421,-0.659 -0.421,-1.534 0,-0.927 0.149,-1.442 0.378,-1.301 0.208,0.128 0.378,0.636 0.378,1.129 m 11.987,14.655 c -0.09,0.468 -0.164,0.085 -0.164,-0.851 0,-0.935 0.074,-1.318 0.164,-0.85 0.09,0.468 0.09,1.233 0,1.701 m -6.812,0.189 c -0.095,0.364 -0.172,0.066 -0.172,-0.661 0,-0.728 0.077,-1.026 0.172,-0.662 0.096,0.364 0.096,0.959 0,1.323 m 26.947,1.023 c 0.567,0.683 0.203,1.34 -0.742,1.34 -0.87,0 -1.213,-0.488 -0.906,-1.289 0.288,-0.751 1.048,-0.774 1.648,-0.051 m -21.158,3.041 c 0,1.674 -0.121,2.08 -0.619,2.08 -0.517,0 -0.579,-0.284 -0.381,-1.733 0.426,-3.102 1,-3.301 1,-0.347 m 32.263,1.726 c -0.274,0.274 -0.811,0.285 -1.682,0.034 l -1.28,-0.368 1.682,-0.034 c 1.189,-0.024 1.564,0.084 1.28,0.368 m -33.403,1.772 c -0.01,1.723 -0.614,2.32 -1.152,1.138 -0.526,-1.155 -0.254,-2.178 0.579,-2.178 0.381,0 0.577,0.355 0.573,1.04 m 36.586,-0.378 c 0.097,0.293 -0.203,0.472 -0.79,0.472 -1.207,0 -2.142,-0.357 -2.142,-0.819 0,-0.532 2.751,-0.207 2.932,0.347 m 10.112,3.875 c 0.136,0.22 -0.248,0.378 -0.923,0.378 -0.636,0 -1.157,-0.17 -1.157,-0.378 0,-0.208 0.416,-0.378 0.923,-0.378 0.508,0 1.028,0.17 1.157,0.378 m 3.244,1.134 c 0.191,0 0.347,0.17 0.347,0.378 0,0.474 -2.147,0.502 -2.437,0.032 -0.26,-0.42 0.544,-0.789 1.239,-0.569 0.277,0.087 0.66,0.159 0.851,0.159 m -52.776,2.262 c 0.315,0.509 -0.189,3.031 -0.605,3.031 -0.185,0 -0.336,-0.766 -0.336,-1.701 0,-1.593 0.416,-2.18 0.941,-1.33 m -6.641,1.182 c 1.052,1.423 0.529,2.213 -2.05,3.102 -1.458,0.502 -1.527,0.602 -1.902,2.753 -0.438,2.516 -0.996,2.775 -1.384,0.642 -0.414,-2.276 0.058,-3.935 1.673,-5.877 1.749,-2.102 2.476,-2.225 3.663,-0.62 m 4.944,0.904 c 0,0.52 -0.157,0.945 -0.349,0.945 -0.192,0 -0.545,0.595 -0.785,1.323 -0.241,0.728 -0.551,1.324 -0.691,1.324 -0.14,10e-4 -0.723,0.899 -1.296,1.995 -1.016,1.944 -1.078,1.99 -2.508,1.854 -1.713,-0.163 -2.714,-1.532 -1.722,-2.355 0.3,-0.249 0.546,-0.738 0.546,-1.087 0,-0.851 0.74,-1.542 1.652,-1.542 1.022,0 2.128,-1.078 2.128,-2.075 0,-1.112 0.286,-1.327 1.765,-1.327 1.092,0 1.26,0.126 1.26,0.945 m 17.886,0.973 c 0.205,0.784 -0.854,2.24 -1.629,2.24 -0.75,0 -0.408,-1.953 0.378,-2.158 0.416,-0.109 0.756,-0.348 0.756,-0.532 0,-0.608 0.287,-0.347 0.495,0.45 m 49.978,0.35 c 0.138,0.223 -0.279,0.376 -1.018,0.372 -0.946,-0.004 -1.113,-0.095 -0.684,-0.372 0.735,-0.475 1.408,-0.475 1.702,0 m -67.773,2.092 c -0.443,0.793 -0.959,0.151 -0.609,-0.76 0.155,-0.405 0.37,-0.497 0.607,-0.26 0.237,0.237 0.237,0.6 0.002,1.02 m 17.874,1.783 c 0.141,0.676 0.48,1.583 0.754,2.017 2.264,3.584 0.462,8.475 -3.122,8.475 -3.598,0 -4.759,-1.84 -2.554,-4.046 0.979,-0.978 1.324,-1.648 1.324,-2.573 0,-3.251 3.045,-6.528 3.598,-3.873 m -19.099,0.832 c 0,0.718 -0.23,1.441 -0.51,1.607 -0.28,0.166 -0.983,1.025 -1.563,1.909 -0.579,0.884 -1.274,1.607 -1.544,1.607 -0.27,0 -0.593,0.322 -0.718,0.715 -0.231,0.728 -1.714,1.387 -1.714,0.762 0,-0.189 0.255,-0.343 0.567,-0.343 0.315,0 0.567,-0.336 0.567,-0.756 0,-0.416 0.17,-0.756 0.378,-0.756 0.55,0 0.464,-2.17 -0.095,-2.401 -0.26,-0.107 0.056,-0.105 0.701,0.005 1.264,0.215 2.796,-1.159 2.796,-2.507 0,-0.353 0.114,-0.756 0.253,-0.894 0.562,-0.563 0.882,-0.182 0.882,1.052 m 80.151,-0.548 c 0.421,0.272 0.196,0.368 -0.873,0.372 -0.865,0.004 -1.347,-0.145 -1.206,-0.372 0.295,-0.478 1.34,-0.478 2.079,0 m 3.403,1.468 c 0,0.407 -1.146,0.737 -1.796,0.518 -0.897,-0.302 -0.47,-0.852 0.661,-0.852 0.624,0 1.135,0.15 1.135,0.334 m -69.209,2.475 c 0.358,0.432 0.296,0.622 -0.307,0.945 -1.031,0.552 -1.184,0.515 -1.184,-0.288 0,-1.232 0.742,-1.559 1.491,-0.657 m -1.869,2.862 c 0,0.734 -0.646,1.371 -1.016,1.001 -0.115,-0.115 -0.098,-0.65 0.037,-1.188 0.27,-1.077 0.979,-0.942 0.979,0.187 m 84.143,0.343 c -0.116,0.188 -0.552,0.253 -0.968,0.145 -1.04,-0.272 -0.946,-0.488 0.212,-0.488 0.532,0 0.872,0.154 0.756,0.343 m -74.85,1.832 c -0.436,0.436 -0.66,-0.247 -0.362,-1.107 l 0.304,-0.879 0.139,0.883 c 0.076,0.486 0.04,0.982 -0.081,1.103 m -10.093,0.437 c 0.42,0.266 0.369,0.415 -0.26,0.751 -0.827,0.443 -1.46,-0.003 -1.019,-0.716 0.284,-0.461 0.594,-0.469 1.279,-0.035 m -28.122,2.415 c 1.479,0.762 1.491,0.785 0.567,1.052 -1.45,0.419 -3.33,0.394 -3.603,-0.048 -0.169,-0.273 -0.404,-0.265 -0.755,0.027 -0.716,0.593 -3.922,0.056 -4.857,-0.815 -0.869,-0.81 -0.519,-1.442 0.46,-0.83 0.501,0.312 0.845,0.28 1.401,-0.131 0.982,-0.727 4.728,-0.315 6.787,0.745 m 36.105,-0.856 c 0,0.653 -1.051,0.844 -2.934,0.533 -1.714,-0.282 -1.742,-0.307 -0.657,-0.564 1.754,-0.417 3.591,-0.401 3.591,0.031 m -28.916,0.334 c -0.692,0.27 -2.085,0.136 -2.085,-0.201 0,-0.08 0.638,-0.133 1.417,-0.118 1.08,0.02 1.239,0.096 0.668,0.319 m 11.809,2.055 c -1.085,1.72 -1.349,3.412 -0.605,3.873 0.956,0.59 2.611,-3.375 1.987,-4.76 -0.312,-0.693 -0.435,-0.614 -1.382,0.887 m -28.666,-0.983 c -0.104,1.108 -0.678,1.726 -0.703,0.756 -0.014,-0.572 0.144,-1.04 0.352,-1.04 0.208,0 0.366,0.128 0.351,0.284 m 32.919,8.2 c 0,0.716 -0.17,1.407 -0.378,1.535 -0.228,0.141 -0.378,-0.374 -0.378,-1.301 0,-0.844 0.17,-1.534 0.378,-1.534 0.208,0 0.378,0.585 0.378,1.3 m -16.421,3.486 c -0.256,0.659 -0.305,0.653 -0.923,-0.103 -0.358,-0.44 -1.154,-1.065 -1.767,-1.39 l -1.116,-0.59 0.945,-0.371 c 1.221,-0.48 3.306,1.31 2.861,2.454 m 11.695,3.721 c 0.208,0.071 -1.461,0.142 -3.708,0.158 -2.249,0.017 -3.995,-0.119 -3.882,-0.301 0.183,-0.296 6.658,-0.175 7.59,0.143"
       inkscape:connector-curvature="0"
       style="fill:#ffffff;fill-rule:evenodd;stroke:none" />
  </g>
</svg>
