<?xml version="1.0" encoding="UTF-8" standalone="no"?>
<svg
   id="svg"
   version="1.1"
   width="400"
   height="377.93103"
   viewBox="0 0 400 377.93103"
   sodipodi:docname="C20-21.svg"
   inkscape:version="0.92.5 (2060ec1f9f, 2020-04-08)"
   xmlns:inkscape="http://www.inkscape.org/namespaces/inkscape"
   xmlns:sodipodi="http://sodipodi.sourceforge.net/DTD/sodipodi-0.dtd"
   xmlns="http://www.w3.org/2000/svg"
   xmlns:svg="http://www.w3.org/2000/svg"
   xmlns:rdf="http://www.w3.org/1999/02/22-rdf-syntax-ns#"
   xmlns:cc="http://creativecommons.org/ns#"
   xmlns:dc="http://purl.org/dc/elements/1.1/">
  <metadata
     id="metadata11">
    <rdf:RDF>
      <cc:Work
         rdf:about="">
        <dc:format>image/svg+xml</dc:format>
        <dc:type
           rdf:resource="http://purl.org/dc/dcmitype/StillImage" />
      </cc:Work>
    </rdf:RDF>
  </metadata>
  <defs
     id="defs9" />
  <sodipodi:namedview
     pagecolor="#ffffff"
     bordercolor="#666666"
     borderopacity="1"
     objecttolerance="10"
     gridtolerance="10"
     guidetolerance="10"
     inkscape:pageopacity="0"
     inkscape:pageshadow="2"
     inkscape:window-width="1366"
     inkscape:window-height="689"
     id="namedview7"
     showgrid="false"
     inkscape:zoom="0.62445256"
     inkscape:cx="200"
     inkscape:cy="188.96552"
     inkscape:window-x="0"
     inkscape:window-y="0"
     inkscape:window-maximized="1"
     inkscape:current-layer="svg"
     inkscape:showpageshadow="0"
     inkscape:pagecheckerboard="0"
     inkscape:deskcolor="#d1d1d1" />
  <g
     id="g823"
     transform="matrix(-1,0,0,1,402.39784,-17.46774)"
     style="fill:#ffffff">
    <path
       id="path1"
       d="m 113.8,135.024 c -0.52,0.21 -1.966,0.497 -3.214,0.638 l -2.268,0.255 1.242,0.886 c 1.202,0.858 1.291,0.867 2.756,0.281 1.416,-0.567 1.614,-0.56 3.105,0.103 3.775,1.681 6.491,1.306 4.556,-0.629 -1.583,-1.583 -4.355,-2.272 -6.177,-1.534 m -9.021,2.607 c -0.491,0.409 -1.087,0.744 -1.324,0.745 -0.714,0.002 -3.999,1.786 -3.75,2.035 0.59,0.589 3.059,0.176 4.265,-0.713 0.704,-0.52 1.697,-0.946 2.205,-0.946 0.837,0 1.911,-0.889 1.942,-1.606 0.025,-0.591 -2.484,-0.227 -3.338,0.485 m -8.24,5.06 c -2.547,2.322 -2.079,2.74 2.424,2.163 1.846,-0.237 4.111,-0.452 5.032,-0.478 1.421,-0.04 1.244,-0.112 -1.159,-0.473 -3.337,-0.5 -3.781,-0.73 -3.781,-1.959 0,-1.29 -0.416,-1.166 -2.516,0.747 m -12.04,2.867 c -0.145,0.235 0.571,0.378 1.89,0.378 1.32,0 2.036,-0.143 1.891,-0.378 -0.129,-0.208 -0.979,-0.378 -1.891,-0.378 -0.911,0 -1.761,0.17 -1.89,0.378 m 66.446,1.394 c 0.364,0.096 0.96,0.096 1.323,0 0.364,-0.095 0.067,-0.172 -0.661,-0.172 -0.728,0 -1.026,0.077 -0.662,0.172 m 3.686,1.252 c -0.416,0.269 -0.164,0.361 0.946,0.346 1.188,-0.016 1.35,-0.091 0.756,-0.346 -0.995,-0.427 -1.04,-0.427 -1.702,0 m -31.434,2.005 -1.378,0.848 0.885,1.028 c 0.955,1.11 0.948,1.114 2.145,-1.22 0.976,-1.904 0.613,-2.049 -1.652,-0.656 m 39.941,1.02 c 0.129,0.208 0.639,0.378 1.134,0.378 0.496,0 1.006,-0.17 1.134,-0.378 0.14,-0.226 -0.318,-0.378 -1.134,-0.378 -0.815,0 -1.273,0.152 -1.134,0.378 m -54.94,1.914 c -0.069,1.341 -1.418,3.059 -2.716,3.459 -0.312,0.097 0.498,0.297 1.801,0.445 1.302,0.148 2.549,0.157 2.771,0.02 0.221,-0.137 1.171,-0.034 2.11,0.229 1.431,0.401 1.761,0.392 2.044,-0.054 0.628,-0.993 -0.047,-2.246 -0.852,-1.58 -2.17,1.793 -4.76,0.807 -4.949,-1.884 -0.094,-1.348 -0.161,-1.551 -0.209,-0.635 m 30.176,4.891 c 0,0.208 0.261,0.378 0.579,0.378 0.319,0 0.677,0.255 0.797,0.567 0.12,0.312 0.364,0.567 0.543,0.567 0.411,0 -0.025,-1.229 -0.568,-1.601 -0.586,-0.401 -1.351,-0.351 -1.351,0.089 m -21.127,1.099 c -0.784,0.496 0.82,0.911 2.283,0.589 0.865,-0.19 1.038,-0.345 0.653,-0.589 -0.673,-0.426 -2.264,-0.426 -2.936,0 m 26.662,2.566 c -0.426,0.426 -0.259,0.872 0.325,0.872 0.312,0 0.568,-0.16 0.568,-0.356 0,-0.477 -0.591,-0.818 -0.893,-0.516 m 1.271,1.599 c 0,0.636 1.118,0.952 1.613,0.457 0.312,-0.312 0.314,-0.428 0.005,-0.428 -0.232,0 -0.691,-0.103 -1.02,-0.229 -0.33,-0.127 -0.598,-0.037 -0.598,0.2 m 5.488,4.178 c -0.306,0.495 0.564,0.914 0.997,0.481 0.242,-0.242 0.169,-0.448 -0.21,-0.594 -0.319,-0.122 -0.673,-0.071 -0.787,0.113 m -57.788,3.286 c -0.544,0.544 -0.205,1.191 0.747,1.43 1.299,0.326 1.887,-0.254 1.077,-1.063 -0.645,-0.646 -1.395,-0.796 -1.824,-0.367 m 8.065,5.041 c 0,0.208 0.553,0.367 1.229,0.352 1.03,-0.022 1.106,-0.079 0.473,-0.352 -1.045,-0.448 -1.702,-0.448 -1.702,0 m 66.163,1.513 c 0,0.208 0.553,0.375 1.228,0.372 0.933,-0.004 1.092,-0.094 0.662,-0.372 -0.743,-0.481 -1.89,-0.481 -1.89,0 m 8.605,2.914 c 0.471,0.09 1.151,0.087 1.513,-0.008 0.361,-0.095 -0.024,-0.169 -0.855,-0.164 -0.832,0.004 -1.128,0.081 -0.658,0.172 m 5.561,2.019 c -0.305,0.493 0.65,1.368 2.721,2.494 1.054,0.572 1.395,0.591 2.836,0.153 l 1.638,-0.497 -1.487,-0.521 c -0.818,-0.287 -1.754,-0.761 -2.08,-1.053 -0.857,-0.768 -3.272,-1.152 -3.628,-0.576 m 44.813,2.25 c -0.243,0.454 -0.815,0.769 -1.431,0.788 -0.627,0.019 -0.217,0.211 1.053,0.493 1.144,0.253 2.624,0.749 3.289,1.102 3.191,1.692 3.536,0.466 0.449,-1.596 -2.655,-1.772 -2.813,-1.809 -3.36,-0.787 m -36.295,1.134 c 0.312,0.202 0.822,0.367 1.134,0.367 0.504,0 0.504,-0.041 0,-0.367 -0.312,-0.201 -0.822,-0.366 -1.134,-0.366 -0.504,0 -0.504,0.04 0,0.366 m 89.225,0 c 0,0.454 1.779,0.454 2.836,0 0.568,-0.244 0.311,-0.331 -1.04,-0.351 -0.988,-0.015 -1.796,0.143 -1.796,0.351 m -125.331,6.806 c -0.52,0.223 0.01,0.319 1.702,0.306 1.893,-0.014 2.197,-0.084 1.323,-0.306 -1.518,-0.387 -2.126,-0.387 -3.025,0 m 39.538,0.486 c -0.352,0.941 0.307,1.298 2.523,1.366 1.691,0.052 1.537,-0.378 -0.491,-1.366 l -1.718,-0.836 -0.314,0.836 m -25.45,-0.219 c 0.47,0.09 1.151,0.087 1.512,-0.008 0.362,-0.094 -0.023,-0.168 -0.855,-0.164 -0.832,0.004 -1.128,0.082 -0.657,0.172 m -29.683,0.755 c -0.26,0.096 -0.473,0.488 -0.473,0.872 0,0.383 -0.213,0.768 -0.472,0.855 -0.26,0.087 0.037,0.081 0.661,-0.012 0.624,-0.094 1.297,-0.324 1.496,-0.512 0.462,-0.435 -0.557,-1.446 -1.212,-1.203 m 3.141,1.222 c -0.642,0.709 -0.62,0.74 0.716,0.991 0.758,0.142 1.625,0.505 1.926,0.806 0.302,0.302 0.931,0.473 1.399,0.381 l 0.852,-0.168 -0.825,-0.274 c -1.372,-0.456 -1.44,-1.69 -0.12,-2.193 0.311,-0.118 -0.3,-0.229 -1.36,-0.245 -1.451,-0.023 -2.089,0.15 -2.588,0.702 m 128.259,-0.071 c -0.201,0.734 -0.095,0.845 0.771,0.807 0.597,-0.026 0.745,-0.112 0.366,-0.212 -0.351,-0.093 -0.698,-0.456 -0.771,-0.807 -0.104,-0.496 -0.185,-0.448 -0.366,0.212 m -140.474,0.734 c 0.364,0.095 0.959,0.095 1.323,0 0.364,-0.095 0.066,-0.173 -0.661,-0.173 -0.728,0 -1.026,0.078 -0.662,0.173 m 178.968,0.352 c -0.138,0.434 -0.101,1.194 0.082,1.689 0.324,0.877 0.339,0.88 0.583,0.11 0.138,-0.435 0.101,-1.195 -0.082,-1.689 -0.324,-0.878 -0.339,-0.88 -0.583,-0.11 m -35.889,1.791 c -0.126,0.328 -0.055,0.704 0.157,0.835 0.589,0.364 0.828,-0.08 0.428,-0.794 -0.319,-0.569 -0.381,-0.574 -0.585,-0.041 m 22.875,0.871 c -0.983,1.121 -0.853,2.018 0.291,2.018 0.644,0 0.768,-0.244 0.768,-1.512 0,-1.785 0.044,-1.764 -1.059,-0.506 m -21.436,0.884 c -0.135,0.218 0.215,0.375 0.828,0.372 0.825,-0.004 0.936,-0.088 0.495,-0.372 -0.726,-0.47 -1.033,-0.47 -1.323,0 m -137.519,0.267 c 0.47,0.091 1.151,0.087 1.512,-0.007 0.362,-0.095 -0.023,-0.169 -0.855,-0.165 -0.832,0.004 -1.128,0.082 -0.657,0.172 m -69.853,0.878 c -5.303,0.13 -9.726,0.283 -9.83,0.339 -0.674,0.368 2.467,0.72 6.994,0.784 6.041,0.086 7.138,0.29 7.294,1.352 0.199,1.362 1.475,1.818 2.604,0.931 1.326,-1.043 5.746,-1.065 7.673,-0.039 l 1.315,0.7 0.665,-1.094 c 0.53,-0.872 0.953,-1.104 2.088,-1.146 0.783,-0.029 -0.278,-0.205 -2.357,-0.393 -2.756,-0.248 -4.059,-0.541 -4.805,-1.081 -0.564,-0.408 -1.244,-0.708 -1.513,-0.666 -0.268,0.042 -4.826,0.183 -10.128,0.313 m 85.822,0.537 c 0,0.302 -0.298,0.722 -0.662,0.934 -0.551,0.321 -0.463,0.387 0.527,0.397 1.279,0.012 2.056,-1.008 1.187,-1.559 -0.72,-0.458 -1.052,-0.386 -1.052,0.228 m -101.701,1.455 c -3.466,1.418 -5.186,2.46 -5.398,3.271 -0.239,0.914 0.035,0.871 5.019,-0.791 1.768,-0.589 3.506,-1.073 3.862,-1.076 0.625,-0.004 1.674,-1.4 1.32,-1.754 -0.579,-0.579 -2.956,-0.406 -4.803,0.35 m 105.198,1.282 c 0.364,0.095 0.959,0.095 1.323,0 0.364,-0.095 0.066,-0.173 -0.661,-0.173 -0.728,0 -1.026,0.078 -0.662,0.173 m 57.258,0.644 c -0.155,0.394 -0.192,0.805 -0.083,0.914 0.344,0.345 0.648,-0.22 0.503,-0.938 -0.132,-0.658 -0.152,-0.657 -0.42,0.024 m 31.773,0.077 c -0.365,0.365 -0.361,2.706 0.005,2.922 0.381,0.224 1.985,-0.4 1.983,-0.772 -0.004,-0.576 -1.713,-2.425 -1.988,-2.15 m 18.895,1.197 c -0.825,0.912 -0.834,2.206 -0.018,2.519 1.123,0.431 1.97,-1.453 1.154,-2.568 -0.463,-0.635 -0.519,-0.632 -1.136,0.049 m 21.292,1.516 c 0.016,1.334 0.877,2.457 1.755,2.288 1.196,-0.23 0.864,-1.85 -0.538,-2.634 l -1.229,-0.686 0.012,1.032 m -81.253,1.563 c -0.409,0.26 -0.302,0.475 0.496,0.998 0.955,0.626 1.056,0.628 1.656,0.027 1.008,-1.008 -0.81,-1.875 -2.152,-1.025 m 96.488,2.493 c 0.002,1.456 0.07,2.005 0.152,1.22 0.082,-0.784 0.08,-1.975 -0.003,-2.646 -0.084,-0.671 -0.151,-0.029 -0.149,1.426 m -132.267,-0.378 c 0.626,1.615 0.639,2.446 0.048,3.037 -0.67,0.67 -0.795,1.529 -0.271,1.853 0.186,0.115 0.449,-0.233 0.584,-0.772 0.136,-0.54 0.754,-1.409 1.375,-1.931 1.191,-1.002 1.003,-1.998 -0.377,-1.998 -0.348,0 -0.863,-0.213 -1.143,-0.473 -0.419,-0.388 -0.457,-0.338 -0.216,0.284 m 82.49,0.842 c -0.242,0.392 1.578,2.179 1.896,1.861 0.129,-0.129 -0.202,-0.67 -0.735,-1.203 -0.532,-0.533 -1.055,-0.829 -1.161,-0.658 m -65.741,0.382 c 1.099,0.077 2.8,0.076 3.781,-0.001 0.981,-0.078 0.082,-0.141 -1.998,-0.14 -2.079,0.001 -2.881,0.065 -1.783,0.141 M 166,218.053 c 0.024,0.921 0.064,0.954 0.352,0.283 0.443,-1.032 0.443,-1.323 0,-1.323 -0.208,0 -0.367,0.468 -0.352,1.04 m 126.745,0.713 c -0.321,0.836 0.346,1.812 1.339,1.96 0.675,0.1 0.812,-0.068 0.812,-1 0,-1.495 -1.661,-2.237 -2.151,-0.96 m -128.054,2.248 c -0.36,0.938 -0.269,2.426 0.148,2.426 0.208,0 0.378,-0.68 0.378,-1.512 0,-1.612 -0.155,-1.881 -0.526,-0.914 m 112.436,0.674 c 0,1.161 3.415,4.984 3.846,4.305 0.608,-0.956 0.277,-1.861 -1.215,-3.324 -1.548,-1.517 -2.631,-1.921 -2.631,-0.981 m -113.692,4.966 c 0.003,1.04 0.076,1.42 0.163,0.846 0.087,-0.575 0.085,-1.426 -0.005,-1.891 -0.09,-0.465 -0.161,0.005 -0.158,1.045 M 33.538,226.47 c -0.311,1.186 0.069,1.89 1.002,1.856 0.445,-0.017 0.597,-0.116 0.337,-0.221 -0.26,-0.105 -0.475,-0.474 -0.478,-0.821 -0.011,-1.157 -0.621,-1.734 -0.861,-0.814 m 128.38,6.044 c 0,0.936 0.073,1.319 0.164,0.851 0.09,-0.468 0.09,-1.234 0,-1.701 -0.091,-0.468 -0.164,-0.086 -0.164,0.85 m 108.648,-0.664 c -0.24,0.919 0.226,1.642 0.821,1.274 0.399,-0.247 0.175,-1.634 -0.312,-1.935 -0.159,-0.098 -0.388,0.199 -0.509,0.661 m -200.913,1.042 c 0,0.728 0.078,1.026 0.173,0.662 0.095,-0.364 0.095,-0.959 0,-1.323 -0.095,-0.364 -0.173,-0.067 -0.173,0.661 m 0.366,2.722 c -0.709,0.709 -0.534,1.706 0.339,1.934 1.649,0.431 2.311,-0.43 1.327,-1.726 -0.589,-0.776 -1.041,-0.833 -1.666,-0.208 m -20.495,0.683 c -1.166,0.721 0.488,1.714 1.89,1.134 0.649,-0.269 1.043,-0.613 0.875,-0.764 -0.559,-0.504 -2.194,-0.723 -2.765,-0.37 m 110.995,1.604 c -0.164,0.571 -0.165,1.337 -0.002,1.701 0.37,0.828 0.686,-0.508 0.447,-1.889 -0.138,-0.8 -0.165,-0.789 -0.445,0.188 m 96.948,-0.194 c -0.777,0.299 -1.89,1.617 -1.89,2.237 0,0.702 0.624,0.642 0.904,-0.088 0.167,-0.434 0.519,-0.533 1.292,-0.363 1.328,0.291 2.912,-1.093 1.947,-1.703 -0.61,-0.386 -1.39,-0.415 -2.253,-0.083 m -251.31,1.802 c 0.003,1.039 0.077,1.42 0.163,0.845 0.087,-0.575 0.085,-1.425 -0.005,-1.89 -0.089,-0.465 -0.161,0.005 -0.158,1.045 m 3.721,0.669 c -0.234,0.235 -0.426,0.648 -0.426,0.918 0,0.288 -0.445,0.492 -1.071,0.492 -1.497,0 -1.667,0.322 -0.808,1.528 0.409,0.575 0.745,1.219 0.745,1.431 0,0.823 1.983,2.712 2.846,2.712 0.49,0 1.007,0.19 1.15,0.421 0.161,0.26 0.974,0.353 2.118,0.243 1.509,-0.145 1.95,-0.047 2.348,0.522 0.547,0.78 0.989,0.56 0.989,-0.493 0,-0.478 -0.279,-0.693 -0.899,-0.693 -0.494,0 -1.11,-0.255 -1.369,-0.567 -0.266,-0.321 -1.09,-0.567 -1.896,-0.567 -1.202,0 -1.462,-0.147 -1.661,-0.94 -0.145,-0.579 -0.595,-1.029 -1.175,-1.175 -1.27,-0.319 -1.266,-1.741 0.006,-2.422 1.132,-0.606 1.167,-0.814 0.238,-1.394 -0.526,-0.328 -0.818,-0.332 -1.135,-0.016 m 110.257,2.828 c -0.192,2.921 1.039,5.387 2.688,5.387 0.201,0 0.441,0.213 0.534,0.473 0.093,0.26 0.276,0.374 0.407,0.254 0.132,-0.12 -0.369,-0.928 -1.111,-1.795 -1.217,-1.422 -1.371,-1.856 -1.565,-4.413 -0.277,-3.665 -0.71,-3.622 -0.953,0.094 m 139.6,-1.927 c 0,0.828 0.088,0.907 0.567,0.509 0.312,-0.259 0.568,-0.602 0.568,-0.762 0,-0.16 -0.256,-0.389 -0.568,-0.509 -0.414,-0.159 -0.567,0.047 -0.567,0.762 m -226.087,2.029 c 0,0.448 -0.39,0.942 -0.942,1.194 -1.069,0.487 -0.665,1.445 0.611,1.445 0.589,0 0.709,-0.289 0.709,-1.702 0,-0.935 -0.085,-1.701 -0.189,-1.701 -0.104,0 -0.189,0.344 -0.189,0.764 m 73.876,0.054 c -0.285,0.461 0.504,1.058 1.409,1.067 0.339,0.003 1.226,0.261 1.973,0.573 1.537,0.642 4.62,0.759 4.973,0.189 0.134,-0.217 -0.202,-0.379 -0.784,-0.379 -0.559,0 -1.548,-0.318 -2.196,-0.707 -1.394,-0.837 -5.009,-1.337 -5.375,-0.743 m 51.574,2.301 c -0.075,1.3 -0.022,2.873 0.117,3.497 0.156,0.697 0.269,-0.213 0.293,-2.363 0.044,-3.982 -0.205,-4.67 -0.41,-1.134 m -103.9,-0.661 c 0,0.311 0.256,0.567 0.568,0.567 0.312,0 0.567,-0.256 0.567,-0.567 0,-0.312 -0.255,-0.568 -0.567,-0.568 -0.312,0 -0.568,0.256 -0.568,0.568 m 13.706,0.122 c -0.373,0.237 -0.359,0.455 0.063,1.033 0.591,0.808 0.838,0.722 1.035,-0.36 0.146,-0.803 -0.382,-1.127 -1.098,-0.673 m -46.373,3.09 -2.232,1.11 1.048,0.398 c 1.216,0.462 11.167,0.079 11.167,-0.43 0,-0.176 -0.902,-0.321 -2.006,-0.321 -1.546,0 -2.299,-0.216 -3.287,-0.945 -1.608,-1.187 -1.951,-1.173 -4.69,0.188 m 135.188,11.343 c 0.037,5.493 0.133,7.035 0.328,5.293 0.414,-3.679 0.405,-11.829 -0.013,-12.476 -0.242,-0.375 -0.349,2.06 -0.315,7.183 m 102.962,-0.749 c -0.712,0.273 -0.716,0.306 -0.07,0.57 0.378,0.154 0.861,0.106 1.073,-0.106 0.531,-0.531 -0.085,-0.817 -1.003,-0.464 m 118.21,-0.054 c -0.377,0.239 -0.282,0.38 0.378,0.557 1.3,0.348 3.264,0.296 3.504,-0.092 0.45,-0.728 -2.846,-1.122 -3.882,-0.465 m 4.677,1.159 c -0.407,0.658 -0.123,0.803 2.177,1.115 1.14,0.155 2.359,0.568 2.709,0.918 0.769,0.769 1.346,0.801 2.271,0.125 0.655,-0.48 0.632,-0.528 -0.377,-0.782 -0.592,-0.148 -1.264,-0.526 -1.494,-0.84 -0.543,-0.744 -4.886,-1.184 -5.286,-0.536 m -10.789,6.374 c 0,1.167 0.82,1.589 3.005,1.55 3.638,-0.065 4.377,-0.517 1.721,-1.051 -1.248,-0.251 -2.66,-0.62 -3.137,-0.818 -1.248,-0.52 -1.589,-0.451 -1.589,0.319 m 16.635,0.046 c 0,0.879 2.215,1.73 3.467,1.332 1.055,-0.334 -0.014,-1.302 -1.438,-1.302 -0.467,0 -0.955,-0.171 -1.084,-0.379 -0.389,-0.629 -0.945,-0.424 -0.945,0.349 m 8.066,-0.134 c -0.125,0.326 -0.034,0.785 0.201,1.021 0.319,0.319 0.429,0.168 0.429,-0.593 0,-1.137 -0.283,-1.33 -0.63,-0.428 m -156.059,0.517 c -0.629,0.695 -0.636,0.787 -0.073,1.003 1.037,0.398 2.574,-0.169 2.435,-0.897 -0.178,-0.937 -1.554,-0.998 -2.362,-0.106 m -82.635,3.999 c -0.435,0.525 -0.431,0.672 0.025,0.954 0.732,0.452 1.279,-0.164 0.841,-0.946 -0.326,-0.581 -0.39,-0.582 -0.866,-0.008 m -93.673,3.307 c -0.623,1.723 -0.604,1.792 0.482,1.792 1.057,0 1.072,-0.06 0.434,-1.819 l -0.453,-1.253 -0.463,1.28"
       inkscape:connector-curvature="0"
       style="fill:#ffffff;fill-rule:evenodd;stroke:none" />
    <path
       id="path2"
       d="m 113.043,134.405 c -0.519,0.297 -1.753,0.546 -2.742,0.553 -1.052,0.008 -2.382,0.327 -3.208,0.77 -0.776,0.416 -1.602,0.756 -1.837,0.756 -1.078,0 -6.624,3.249 -8.727,5.112 -1.285,1.139 -2.59,2.071 -2.899,2.071 -1.694,0 -2.038,1.087 -0.688,2.174 0.815,0.657 3.47,0.59 5.197,-0.131 2.398,-1.002 6.868,-0.624 8.297,0.702 1.849,1.714 1.009,9.354 -1.028,9.354 -0.799,0 -3.29,2.306 -3.081,2.852 0.306,0.797 1.76,0.675 2.929,-0.244 0.812,-0.639 1.323,-0.748 2.603,-0.558 0.876,0.13 2.018,0.24 2.538,0.246 0.52,0.005 1.472,0.176 2.116,0.379 1.593,0.503 2.421,0.114 2.421,-1.138 0,-1.121 1.248,-2.514 2.448,-2.732 1.625,-0.295 1.919,-2.964 0.326,-2.964 -0.634,0 -2.507,1.299 -3.879,2.69 -2.39,2.423 -5.864,1.459 -4.203,-1.167 0.298,-0.471 0.555,-0.482 1.693,-0.071 1.559,0.564 2.103,0.349 2.103,-0.832 0,-1.087 -0.676,-1.754 -1.777,-1.754 -0.695,0 -0.871,-0.209 -0.877,-1.04 -0.009,-1.233 -2.042,-4.631 -2.771,-4.631 -0.28,0 -0.901,-0.341 -1.381,-0.757 -0.541,-0.469 -1.414,-0.756 -2.301,-0.756 -3.166,0 -4.675,-1.627 -1.952,-2.104 0.78,-0.137 1.795,-0.485 2.255,-0.774 0.461,-0.288 1.161,-0.524 1.556,-0.524 0.395,0 1.185,-0.368 1.756,-0.817 0.723,-0.568 1.506,-0.798 2.575,-0.756 0.846,0.033 1.931,-0.198 2.412,-0.513 0.629,-0.412 1.061,-0.467 1.54,-0.194 6.114,3.472 10.043,0.679 4.16,-2.957 -1.533,-0.947 -4.144,-1.062 -5.574,-0.245 m 4.813,0.857 c 2.524,1.13 3.449,2.461 2.025,2.913 -0.88,0.279 -2.34,-0.044 -4.46,-0.988 -1.491,-0.663 -1.689,-0.67 -3.105,-0.103 -1.465,0.586 -1.554,0.577 -2.756,-0.281 l -1.242,-0.886 2.268,-0.255 c 1.248,-0.141 2.694,-0.428 3.214,-0.638 1.398,-0.566 2.392,-0.507 4.056,0.238 m -9.739,1.884 c -0.031,0.717 -1.105,1.606 -1.942,1.606 -0.508,0 -1.501,0.426 -2.205,0.946 -1.206,0.889 -3.675,1.302 -4.265,0.713 -0.249,-0.249 3.036,-2.033 3.75,-2.035 0.237,-0.001 0.833,-0.336 1.324,-0.745 0.854,-0.712 3.363,-1.076 3.338,-0.485 m 14.972,1.185 c -0.573,0.927 2.448,1.797 4.001,1.153 1.973,-0.817 1.09,-1.488 -1.957,-1.488 -1.01,0 -1.93,0.151 -2.044,0.335 m 6.842,-0.083 c -0.78,0.78 0.782,2.773 2.174,2.773 0.486,0 1.086,0.244 1.334,0.543 0.248,0.298 0.992,0.66 1.653,0.804 0.662,0.144 1.538,0.495 1.949,0.78 1.046,0.728 2.093,0.656 2.073,-0.142 -0.014,-0.588 -2.24,-2.363 -2.963,-2.363 -0.154,0 -1.488,-0.596 -2.966,-1.324 -2.941,-1.449 -2.892,-1.433 -3.254,-1.071 m -30.876,3.696 c 0,1.229 0.444,1.459 3.781,1.959 2.403,0.361 2.58,0.433 1.159,0.473 -0.921,0.026 -3.186,0.241 -5.032,0.478 -4.503,0.577 -4.971,0.159 -2.424,-2.163 2.1,-1.913 2.516,-2.037 2.516,-0.747 m 41.672,1.79 c -0.547,0.547 0.074,1.444 1.002,1.448 0.338,0.001 1.125,0.341 1.749,0.754 1.609,1.065 3.97,0.945 3.97,-0.202 0,-1.304 -5.716,-3.004 -6.721,-2 m -56.039,1.03 c -1.374,0.183 -1.701,0.372 -1.701,0.983 0,1.016 5.797,1.365 6.6,0.397 1.271,-1.532 -0.345,-1.987 -4.899,-1.38 m 3.592,0.794 c 0.145,0.235 -0.571,0.378 -1.891,0.378 -1.319,0 -2.035,-0.143 -1.89,-0.378 0.129,-0.208 0.979,-0.378 1.89,-0.378 0.912,0 1.762,0.17 1.891,0.378 m 60.844,0.875 c -0.34,0.886 0.126,1.393 1.282,1.393 0.563,0 1.658,0.34 2.434,0.756 1.678,0.9 4.514,1.008 5.186,0.199 0.384,-0.462 0.278,-0.631 -0.615,-0.985 -0.593,-0.235 -1.674,-0.684 -2.402,-0.997 -2.069,-0.89 -5.6,-1.11 -5.885,-0.366 m -72.101,0.881 c -1.477,1.06 -1.36,1.628 0.339,1.641 1.211,0.008 4.367,-1.499 4.2,-2.007 -0.306,-0.932 -3.036,-0.712 -4.539,0.366 m 75.245,-0.362 c -0.363,0.096 -0.959,0.096 -1.323,0 -0.364,-0.095 -0.066,-0.172 0.662,-0.172 0.728,0 1.025,0.077 0.661,0.172 m -26.748,1.211 c 0,0.186 -0.443,0.448 -0.983,0.584 -1.362,0.342 -3.149,1.721 -3.765,2.906 -0.572,1.101 -0.395,1.53 0.492,1.19 0.714,-0.274 1.609,0.852 1.609,2.024 0,0.921 1.009,1.446 2.026,1.056 0.475,-0.182 0.621,-0.744 0.621,-2.391 0,-2.335 0.423,-3.059 1.789,-3.059 1.068,0 1.442,-0.798 0.873,-1.861 -0.422,-0.789 -2.662,-1.167 -2.662,-0.449 m 30.813,0.041 c 0.594,0.255 0.432,0.33 -0.756,0.346 -1.11,0.015 -1.362,-0.077 -0.946,-0.346 0.662,-0.427 0.707,-0.427 1.702,0 m -86.134,1.507 c -1.93,1.226 -2.136,2.011 -0.578,2.198 1.36,0.163 4.934,-1.71 4.783,-2.507 -0.21,-1.113 -2.197,-0.967 -4.205,0.309 m 89.872,-0.208 c -0.132,0.343 -0.176,0.66 -0.099,0.704 0.078,0.043 0.652,0.435 1.276,0.869 0.623,0.435 1.755,0.907 2.514,1.049 0.758,0.142 1.922,0.529 2.586,0.86 1.514,0.755 3.451,0.154 2.642,-0.821 -0.254,-0.306 -0.641,-0.557 -0.859,-0.557 -0.218,0 -0.665,-0.23 -0.993,-0.51 -1.627,-1.389 -6.707,-2.535 -7.067,-1.594 m -34.551,-0.056 c 0,0.14 -1.248,2.577 -1.637,3.197 -0.213,0.34 -0.539,0.185 -1.179,-0.559 l -0.885,-1.028 1.378,-0.848 c 1.196,-0.735 2.323,-1.105 2.323,-0.762 m 4.253,0.898 c -0.958,0.387 0.879,3.152 2.094,3.152 0.201,0 0.569,0.245 0.818,0.545 0.248,0.299 0.704,0.448 1.011,0.33 0.788,-0.303 0.501,-2.027 -0.421,-2.538 -0.414,-0.229 -1.16,-0.714 -1.658,-1.078 -0.949,-0.693 -1.076,-0.721 -1.844,-0.411 m 35.633,0.884 c -0.128,0.208 -0.638,0.378 -1.134,0.378 -0.495,0 -1.005,-0.17 -1.134,-0.378 -0.139,-0.226 0.319,-0.378 1.134,-0.378 0.816,0 1.274,0.152 1.134,0.378 m -56.084,4.946 c 0.854,0.457 3.225,0.155 4.034,-0.513 0.805,-0.666 1.48,0.587 0.852,1.58 -0.283,0.446 -0.613,0.455 -2.044,0.054 -0.939,-0.263 -1.889,-0.366 -2.11,-0.229 -0.222,0.137 -1.469,0.128 -2.771,-0.02 -1.303,-0.148 -2.113,-0.348 -1.801,-0.445 1.298,-0.4 2.647,-2.118 2.716,-3.459 0.048,-0.916 0.115,-0.713 0.209,0.635 0.107,1.525 0.318,2.078 0.915,2.397 m -45.903,-2.052 c -1.101,0.784 -1.318,1.115 -0.988,1.512 0.615,0.741 1.716,0.624 2.991,-0.319 2.539,-1.877 0.59,-3.038 -2.003,-1.193 m 107.258,-0.59 c -0.324,0.525 1.844,2.532 3.068,2.839 0.508,0.127 0.924,0.372 0.924,0.543 0,0.172 0.37,0.429 0.822,0.573 0.452,0.143 1.164,0.58 1.583,0.97 0.419,0.391 0.965,0.71 1.212,0.71 0.247,0 0.661,0.255 0.92,0.567 0.538,0.648 1.083,0.708 1.875,0.207 1.058,-0.67 -2.741,-3.743 -7.463,-6.037 -1.819,-0.883 -2.566,-0.978 -2.941,-0.372 m -35.327,1.799 c 0,1.221 4.057,4.97 5.378,4.97 0.587,0 1.222,0.433 1.802,1.229 1.334,1.831 2.407,2.916 2.893,2.924 0.237,0.003 0.534,0.273 0.66,0.6 0.136,0.357 0.568,0.545 1.08,0.471 2.074,-0.297 -0.225,-3.563 -3.59,-5.1 -0.78,-0.356 -1.418,-0.79 -1.418,-0.965 0,-0.477 -2.226,-2.559 -2.754,-2.577 -0.253,-0.008 -1.049,-0.518 -1.769,-1.134 -1.501,-1.283 -2.282,-1.426 -2.282,-0.418 m -14.612,1.939 c -0.446,0.183 -0.924,0.514 -1.062,0.737 -0.137,0.222 -0.995,0.404 -1.907,0.404 -0.911,0 -1.766,0.178 -1.9,0.395 -1.029,1.665 4.178,2.129 5.991,0.533 1.694,-1.489 0.925,-2.906 -1.122,-2.069 m -62.65,0.574 c -0.312,0.312 -0.717,0.567 -0.901,0.567 -0.53,0 -2.047,2.245 -1.794,2.655 0.125,0.203 0.608,0.37 1.072,0.37 1.039,0 4.609,-3.144 4.243,-3.736 -0.375,-0.608 -1.955,-0.521 -2.62,0.144 m 81.637,0.1 c 0.543,0.372 0.979,1.601 0.568,1.601 -0.179,0 -0.423,-0.255 -0.543,-0.567 -0.12,-0.312 -0.478,-0.567 -0.797,-0.567 -0.318,0 -0.579,-0.17 -0.579,-0.378 0,-0.44 0.765,-0.49 1.351,-0.089 m -63.754,1.06 c -1.204,1.451 0.739,5.804 3.297,7.385 2.337,1.444 3.238,0.148 1.227,-1.764 -1.237,-1.174 -2.347,-3.098 -2.744,-4.754 -0.288,-1.2 -1.154,-1.622 -1.78,-0.867 m 44.212,0.128 c 0.385,0.244 0.212,0.399 -0.653,0.589 -1.463,0.322 -3.067,-0.093 -2.283,-0.589 0.672,-0.426 2.263,-0.426 2.936,0 m -21.165,2.587 c -1.968,3.217 -2.131,3.875 -0.957,3.875 1.17,0 4.045,-4.384 3.339,-5.09 -0.575,-0.575 -1.609,-0.047 -2.382,1.215 m 83.423,-1.074 c -0.223,0.361 0.179,1.925 0.495,1.925 0.132,0 0.92,0.612 1.752,1.36 2.189,1.968 4.388,2.552 4.33,1.151 -0.04,-0.977 -6.163,-5.107 -6.577,-4.436 m -37.639,1.569 c 0,0.196 -0.256,0.356 -0.568,0.356 -0.584,0 -0.751,-0.446 -0.325,-0.872 0.302,-0.302 0.893,0.039 0.893,0.516 m -92.668,1.396 c -1.992,2.207 -2.633,5.009 -1.146,5.009 0.888,0 3.9,-5.074 3.342,-5.632 -0.652,-0.652 -1.183,-0.501 -2.196,0.623 m 94.664,-0.284 c 0.309,0 0.307,0.116 -0.005,0.428 -0.495,0.495 -1.613,0.179 -1.613,-0.457 0,-0.237 0.268,-0.327 0.598,-0.2 0.329,0.126 0.788,0.229 1.02,0.229 m -83.654,1.122 c -0.541,0.343 2.911,4.171 3.761,4.171 0.895,0 1.224,-1.151 0.6,-2.103 -1.496,-2.283 -2.938,-2.967 -4.361,-2.068 m 85.816,1.884 c 0,1.452 4.846,5.154 5.669,4.331 0.717,-0.717 -0.124,-2.023 -2.268,-3.527 -2.425,-1.701 -3.401,-1.931 -3.401,-0.804 m 24.491,0.297 c -0.358,0.575 -0.865,1.339 -1.128,1.699 -0.393,0.541 -0.366,0.765 0.156,1.287 1.222,1.223 3.287,-1.025 2.881,-3.136 -0.207,-1.076 -1.193,-0.998 -1.909,0.15 m 16.706,0.683 c -0.531,0.64 -0.579,0.578 1.903,2.486 2.074,1.594 4.538,2.753 4.958,2.332 0.355,-0.355 0.014,-1.999 -0.415,-1.999 -0.156,0 -1.425,-0.765 -2.821,-1.701 -2.837,-1.902 -2.946,-1.936 -3.625,-1.118 m -107.14,0.124 c -0.86,1.391 3.951,3.482 5.027,2.184 0.578,-0.696 0.264,-1.378 -0.637,-1.381 -0.352,-0.002 -1.127,-0.257 -1.722,-0.567 -1.211,-0.632 -2.361,-0.733 -2.668,-0.236 m 11.535,0.886 c -0.913,0.894 -1.701,1.269 -2.971,1.418 -3.153,0.369 -1.321,2.435 3.034,3.422 2.651,0.602 2.725,0.541 1.751,-1.428 l -0.777,-1.57 0.988,-1.295 c 0.851,-1.116 0.903,-1.327 0.378,-1.529 -0.949,-0.364 -1.08,-0.31 -2.403,0.982 m 57.113,-0.366 c -0.433,0.433 -1.303,0.014 -0.997,-0.481 0.114,-0.184 0.468,-0.235 0.787,-0.113 0.379,0.146 0.452,0.352 0.21,0.594 m -56.961,3.172 c 0.377,0.376 0.483,0.754 0.271,0.966 -0.464,0.464 -2.347,-0.031 -2.347,-0.617 0,-1.099 1.136,-1.29 2.076,-0.349 m -44.607,0.509 c -0.239,0.752 0.825,4.224 1.407,4.592 0.794,0.501 1.834,-0.112 1.605,-0.946 -0.989,-3.605 -2.46,-5.386 -3.012,-3.646 m 106.141,-0.499 c -1.008,0.407 0.582,2.424 2.363,2.998 0.416,0.134 1.04,0.492 1.387,0.796 0.784,0.688 2.348,0.506 2.499,-0.291 0.062,-0.327 -0.276,-0.801 -0.752,-1.055 -1.737,-0.924 -2.45,-1.394 -3.096,-2.039 -0.647,-0.648 -1.465,-0.787 -2.401,-0.409 m 42.429,1.656 c -0.3,0.485 0.487,1.496 1.163,1.496 0.272,0 0.729,0.235 1.015,0.521 0.287,0.287 1.064,0.64 1.728,0.786 0.664,0.146 1.208,0.409 1.208,0.583 0,0.548 2.186,0.827 3.013,0.385 0.886,-0.475 0.711,-1.016 -0.498,-1.541 -0.448,-0.195 -1.069,-0.513 -1.381,-0.706 -2.583,-1.604 -5.725,-2.37 -6.248,-1.524 m -100.859,0.601 c -0.804,0.803 1.855,3.542 3.439,3.542 0.216,0 0.889,0.284 1.494,0.632 1.059,0.607 2.363,0.506 2.363,-0.184 0,-0.626 -1.703,-2.255 -2.647,-2.53 -0.519,-0.152 -1.2,-0.492 -1.512,-0.757 -0.704,-0.596 -2.779,-1.061 -3.137,-0.703 m 66.343,2.137 c -0.518,0.623 1.202,2.196 2.957,2.704 0.52,0.15 1.512,0.53 2.206,0.843 1.352,0.611 3.1,0.41 3.066,-0.354 -0.036,-0.787 -2.155,-2.199 -3.658,-2.437 -0.784,-0.123 -1.519,-0.366 -1.633,-0.538 -0.419,-0.634 -2.467,-0.786 -2.938,-0.218 m -61.504,0.27 c 0.633,0.273 0.557,0.33 -0.473,0.352 -0.676,0.015 -1.229,-0.144 -1.229,-0.352 0,-0.448 0.657,-0.448 1.702,0 m 106.899,0.793 c -1.143,0.426 -1.072,1.016 0.189,1.574 0.572,0.253 1.265,0.675 1.54,0.937 0.274,0.262 0.785,0.478 1.134,0.48 0.349,0.001 1.145,0.34 1.769,0.753 1.206,0.799 3.762,1.021 4.169,0.362 0.326,-0.528 -0.513,-1.496 -1.296,-1.496 -0.344,0 -1.642,-0.529 -2.884,-1.176 -3.148,-1.639 -3.653,-1.796 -4.621,-1.434 m -40.548,0.72 c 0.43,0.278 0.271,0.368 -0.662,0.372 -0.675,0.003 -1.228,-0.164 -1.228,-0.372 0,-0.481 1.147,-0.481 1.89,0 m -62.238,0.586 c 0.129,0.335 0.234,0.758 0.234,0.939 0,0.696 2.784,1.146 3.382,0.548 0.8,-0.8 -0.068,-1.531 -2.198,-1.849 -1.421,-0.213 -1.619,-0.163 -1.418,0.362 m -22.036,0.047 c -3.513,1.487 -8.353,7.776 -8.353,10.853 0,0.824 1.793,2.717 5.822,6.145 0.522,0.443 1.873,1.597 3.004,2.562 3.628,3.1 3.092,3.85 -2.541,3.554 -2.665,-0.14 -3.32,-0.314 -4.457,-1.181 -1.294,-0.987 -3.719,-1.42 -3.719,-0.664 0,0.207 -3.538,0.349 -8.601,0.344 -4.781,-0.004 -9.273,0.168 -10.113,0.388 -0.832,0.217 -2.448,0.64 -3.592,0.939 -1.95,0.512 -3.988,1.344 -5.293,2.16 -0.312,0.196 -0.987,0.535 -1.5,0.755 -0.513,0.219 -1.675,1.006 -2.581,1.749 -0.906,0.742 -2.45,1.795 -3.431,2.341 -7.332,4.073 -10.399,10.924 -7.446,16.633 1.327,2.566 -1.007,4.481 -6.755,5.543 -16.854,3.113 -22.945,6.98 -19.402,12.316 0.467,0.705 1.105,1.78 1.417,2.39 0.802,1.566 2.985,3.599 4.133,3.848 1.149,0.249 4.175,1.18 6.177,1.902 1.546,0.557 5.78,0.641 9.799,0.194 3.371,-0.375 3.626,0.109 2.114,4.004 -3.62,9.322 -0.155,14.643 11.258,17.29 1.366,0.317 3.169,0.576 4.008,0.576 0.838,0 2.657,0.324 4.041,0.72 2.775,0.794 6.965,1.737 10.455,2.352 1.248,0.22 3.034,0.545 3.97,0.721 0.936,0.176 3.437,0.331 5.558,0.343 2.131,0.012 4.831,0.276 6.034,0.59 1.198,0.312 3.46,0.567 5.028,0.567 1.568,0 4.184,0.255 5.814,0.567 3.435,0.657 19.231,0.765 22.368,0.153 1.039,-0.203 5.122,-0.516 9.073,-0.695 3.951,-0.179 7.949,-0.507 8.885,-0.728 0.936,-0.221 3.062,-0.571 4.726,-0.778 1.663,-0.207 3.705,-0.544 4.537,-0.75 10.341,-2.55 23.599,-3.424 27.555,-1.815 5.9,2.399 36.185,3.228 49.949,1.367 10.69,-1.446 12.49,-1.788 14.612,-2.775 1.174,-0.546 3.216,-1.15 4.537,-1.341 1.321,-0.192 3.848,-0.693 5.615,-1.115 6.736,-1.609 13.93,-2.637 21.329,-3.047 4.141,-0.23 7.636,-0.484 7.768,-0.565 0.131,-0.081 2.357,0.13 4.947,0.47 6.71,0.88 23.093,0.839 27.582,-0.069 8.812,-1.783 18.219,-1.854 24.385,-0.185 2.181,0.59 17.51,0.872 21.362,0.393 3.755,-0.467 6.752,-1.19 13.799,-3.327 2.341,-0.709 2.555,-0.72 7.089,-0.354 3.98,0.321 4.28,0.164 2.451,-1.285 -1.393,-1.103 -6.501,-1.195 -9.41,-0.169 -0.851,0.301 -2.42,0.548 -3.486,0.549 -1.065,10e-4 -2.41,0.249 -2.988,0.551 -0.578,0.301 -2.365,0.731 -3.97,0.954 -1.605,0.224 -3.599,0.567 -4.431,0.764 -2.538,0.6 -15.205,0.457 -17.357,-0.196 -1.02,-0.31 -2.907,-0.563 -4.193,-0.563 -1.285,0 -3.172,-0.255 -4.193,-0.566 -2.716,-0.829 -6.405,-1.078 -9.417,-0.637 -6.594,0.966 -8.489,1.292 -10.964,1.884 -2.322,0.555 -4.552,0.612 -18.148,0.459 -21.151,-0.238 -21.969,-0.235 -27.883,0.098 -6.382,0.36 -6.406,0.317 -2.194,-4.011 5.96,-6.124 8.381,-9.641 10.07,-14.634 1.416,-4.186 1.359,-4.159 6.018,-2.819 1.04,0.299 3.422,0.905 5.293,1.348 1.872,0.442 3.914,1.03 4.537,1.307 0.624,0.276 2.666,1.123 4.537,1.881 1.872,0.758 3.985,1.664 4.696,2.013 1.703,0.834 6.423,0.902 12.317,0.176 2.496,-0.308 6.494,-0.693 8.885,-0.857 2.391,-0.165 4.858,-0.477 5.482,-0.695 0.624,-0.218 2.606,-0.507 4.404,-0.642 2.539,-0.19 3.455,-0.417 4.096,-1.015 0.608,-0.566 0.937,-0.658 1.248,-0.347 0.232,0.232 1.016,0.422 1.742,0.422 1.387,0 4.371,0.509 8.17,1.395 4.12,0.959 5.259,1.287 5.675,1.633 0.226,0.188 1.169,0.461 2.094,0.606 0.926,0.146 2.023,0.478 2.439,0.737 0.416,0.26 2.253,0.666 4.083,0.903 1.83,0.237 3.755,0.593 4.278,0.792 0.523,0.199 3.364,0.374 6.314,0.389 8.076,0.041 11.214,0.709 17.272,3.676 2.183,1.069 5.076,2.333 6.427,2.807 2.218,0.779 2.47,0.974 2.582,1.997 0.175,1.589 1.358,2.703 3.179,2.994 1.334,0.213 1.478,0.323 1.016,0.773 -0.46,0.448 -1.094,0.447 -4.319,-0.006 -6.792,-0.953 -7.172,-1.025 -8.199,-1.543 -1.854,-0.935 -2.568,-0.272 -1.955,1.817 0.769,2.619 1.075,2.671 14.403,2.447 13.696,-0.23 13.709,-0.233 13.709,-2.15 0,-1.425 -0.017,-1.441 -3.308,-3.055 -1.82,-0.893 -4.021,-2.103 -4.893,-2.691 -2.552,-1.721 -8.742,-3.703 -11.535,-3.694 -1.924,0.006 -5.407,-1.137 -9.186,-3.013 l -3.781,-1.877 -6.049,-0.397 c -3.327,-0.218 -7.326,-0.556 -8.885,-0.752 -1.56,-0.195 -4.537,-0.545 -6.616,-0.776 -3.547,-0.395 -11.314,-2.449 -13.422,-3.55 -0.764,-0.399 -4.486,-1.024 -6.238,-1.047 -2.751,-0.036 -12.212,0.659 -16.635,1.222 -3.119,0.397 -7.458,0.906 -9.641,1.13 -2.183,0.224 -5.416,0.573 -7.183,0.776 -4.417,0.507 -5.445,0.27 -11.732,-2.698 -3.68,-1.737 -6.677,-2.866 -9.074,-3.42 -4.572,-1.055 -9.467,-2.491 -10.196,-2.99 -0.661,-0.452 1.063,-2.265 2.153,-2.265 0.595,0 3.044,-1.042 5.219,-2.221 0.817,-0.442 2.615,-0.679 6.427,-0.847 8.757,-0.384 10.892,-1.322 19.865,-8.724 1.434,-1.183 3.378,-2.603 4.32,-3.155 1.973,-1.156 1.93,-1.072 1.011,-1.957 -0.387,-0.372 -0.805,-1.339 -0.93,-2.148 -0.269,-1.738 -1.555,-3.254 -2.759,-3.254 -1.578,0 -1.444,1.476 0.284,3.134 1.147,1.101 0.945,3.135 -0.356,3.589 -0.584,0.203 -2.045,1.307 -3.247,2.453 -2.274,2.167 -7.872,5.515 -10.815,6.468 -0.936,0.302 -2.552,0.82 -3.592,1.151 -4.349,1.381 -6.777,0.482 -7.993,-2.96 -0.14,-0.397 -0.733,-1.588 -1.318,-2.647 -0.988,-1.787 -2.718,-5.295 -3.935,-7.975 -2.074,-4.568 -2.269,-7.166 -0.709,-9.464 0.747,-1.102 0.922,-1.717 0.74,-2.605 -1.427,-6.981 -0.778,-10.048 2.126,-10.048 0.772,0 1.509,0.17 1.637,0.378 0.129,0.208 0.067,0.378 -0.136,0.378 -0.204,0 -0.656,0.894 -1.005,1.985 -0.349,1.092 -0.951,2.262 -1.337,2.6 -0.817,0.714 -0.594,1.087 0.651,1.087 0.763,0 0.882,-0.187 0.882,-1.38 v -1.379 l 3.239,0.249 3.24,0.249 1.581,-1.281 c 0.869,-0.705 2.006,-1.405 2.526,-1.556 0.52,-0.151 1.304,-0.5 1.743,-0.776 0.664,-0.418 1.042,-0.414 2.268,0.023 2.865,1.021 7.282,-0.146 7.898,-2.087 0.413,-1.302 0.946,-0.436 0.946,1.54 0,1.262 0.321,2.52 0.985,3.852 0.542,1.088 1.265,2.572 1.607,3.297 0.342,0.725 1.173,1.916 1.847,2.647 0.674,0.73 1.227,1.519 1.228,1.754 0.002,0.234 0.241,0.623 0.531,0.864 0.343,0.284 0.576,1.462 0.664,3.354 0.135,2.904 1.614,5.788 2.642,5.152 0.5,-0.308 0.361,-2.125 -0.242,-3.18 -0.307,-0.537 -0.546,-1.982 -0.553,-3.345 -0.015,-2.678 -0.563,-3.963 -2.653,-6.221 -1.237,-1.336 -1.333,-1.614 -1.358,-3.97 -0.051,-4.572 -0.586,-6.05 -1.822,-5.024 -0.334,0.278 -0.618,0.441 -0.63,0.364 -0.013,-0.077 -0.071,-0.779 -0.131,-1.559 -0.06,-0.78 -0.368,-1.716 -0.685,-2.079 -2.252,-2.582 -1.114,-4.253 2.896,-4.253 1.711,0 2.456,0.152 2.602,0.531 0.112,0.292 0.686,0.638 1.276,0.767 1.638,0.36 6.918,6.711 6.918,8.322 0,0.433 0.341,1.423 0.757,2.199 0.913,1.703 1.015,5.255 0.196,6.825 -0.305,0.585 -0.666,1.946 -0.803,3.025 -0.136,1.078 -0.48,2.228 -0.764,2.555 -0.284,0.327 -0.627,1.433 -0.763,2.457 -0.136,1.025 -0.477,2.199 -0.758,2.609 -0.281,0.41 -0.511,1.112 -0.511,1.56 0,0.96 -0.557,1.467 -1.985,1.808 -1.115,0.266 -1.413,1.344 -0.566,2.047 1.487,1.234 5.575,-3.184 5.575,-6.024 0,-1.119 0.297,-2.395 0.757,-3.252 0.415,-0.776 0.756,-1.843 0.756,-2.372 0,-0.528 0.295,-1.382 0.655,-1.896 2.892,-4.125 -0.156,-15.322 -5.291,-19.436 -0.673,-0.539 -1.415,-1.134 -1.647,-1.321 -2.432,-1.96 -5.581,-2.635 -8.814,-1.89 -1.755,0.404 -2.829,0.174 -5.13,-1.1 -1.695,-0.939 -10.939,-0.913 -12.277,0.034 -0.514,0.364 -1.224,0.661 -1.578,0.661 -0.973,0 -2.781,1.692 -3.948,3.693 -1.381,2.371 -3.202,4.625 -3.736,4.625 -2.308,0 -4.359,3.382 -4.359,7.189 0,2.863 -0.206,3.242 -3.735,6.894 -1.156,1.196 -2.364,2.174 -2.686,2.174 -0.321,0 -1.229,0.345 -2.017,0.768 -1.743,0.934 -2.077,0.738 -5.188,-3.052 -1.103,-1.343 -2.795,-3.293 -3.76,-4.332 -1.465,-1.578 -4.542,-5.909 -4.542,-6.393 0,-0.369 -3.021,-5.247 -4.152,-6.704 -2.062,-2.657 -7.825,-7.274 -9.652,-7.732 -0.518,-0.13 -0.941,-0.369 -0.941,-0.532 0,-0.163 -0.468,-0.406 -1.04,-0.539 -0.572,-0.134 -1.565,-0.517 -2.208,-0.851 -0.811,-0.422 -1.591,-0.528 -2.552,-0.348 -1.755,0.329 -1.747,0.704 0.034,1.501 0.78,0.348 1.999,0.944 2.708,1.324 l 1.291,0.691 -3.382,0.193 c -2.043,0.116 -3.857,0.438 -4.58,0.812 -0.659,0.341 -1.589,0.62 -2.067,0.622 -0.478,10e-4 -1.38,0.34 -2.004,0.753 -0.623,0.414 -1.484,0.753 -1.912,0.754 -0.428,0.002 -1.109,0.252 -1.512,0.558 -0.404,0.305 -0.996,0.56 -1.316,0.567 -0.32,0.006 -1.249,0.352 -2.065,0.768 -0.816,0.416 -1.804,0.756 -2.197,0.756 -0.392,0 -1.249,0.231 -1.905,0.513 -4.13,1.776 -5.64,1.867 -7.618,0.458 -2.913,-2.074 -4.073,-2.064 -3.076,0.026 0.358,0.751 0.577,1.439 0.486,1.53 -0.985,0.985 -15.45,0.684 -16.774,-0.349 -0.253,-0.198 -2.465,-0.521 -4.915,-0.718 -2.45,-0.197 -4.948,-0.521 -5.551,-0.72 -1.403,-0.463 -4.301,-0.463 -6.365,0 -0.887,0.2 -3.12,0.535 -4.963,0.745 -1.842,0.211 -3.545,0.545 -3.783,0.743 -0.82,0.68 -9.91,0.676 -10.697,-0.005 -1.151,-0.995 -4.124,-2.31 -4.891,-2.162 -0.946,0.182 -0.919,1.138 0.044,1.629 0.791,0.403 2.451,1.948 2.451,2.28 0,0.104 -2.146,0.189 -4.77,0.189 h -4.769 l -4.399,-2.114 c -2.419,-1.162 -4.909,-2.339 -5.533,-2.615 -0.624,-0.277 -2.475,-1.128 -4.114,-1.892 -1.639,-0.765 -4.021,-1.785 -5.293,-2.267 -1.272,-0.482 -3.477,-1.401 -4.9,-2.043 -1.423,-0.642 -2.784,-1.173 -3.025,-1.18 -0.24,-0.007 -1.118,-0.342 -1.95,-0.744 -0.831,-0.401 -1.767,-0.742 -2.079,-0.756 -0.312,-0.014 -1.248,-0.354 -2.079,-0.756 -0.832,-0.402 -1.734,-0.736 -2.004,-0.743 -0.27,-0.007 -0.953,-0.252 -1.517,-0.543 -1.191,-0.616 -4.176,-1.054 -4.95,-0.727 m -31.98,0.497 c -0.294,0.474 1.273,3.283 2.401,4.304 1.706,1.544 2.609,-0.313 1.101,-2.264 -1.595,-2.066 -2.986,-2.876 -3.502,-2.04 m 59.568,1.115 c -0.627,0.396 0.057,1.535 0.921,1.535 0.261,0 0.693,0.264 0.96,0.586 0.583,0.702 3.576,0.62 3.576,-0.098 0,-1.081 -4.379,-2.705 -5.457,-2.023 m 61.623,0.186 c -0.481,0.579 0.446,1.349 1.624,1.349 0.309,0 1.057,0.285 1.662,0.632 1.988,1.141 2.986,-0.21 1.514,-2.049 -0.534,-0.669 -4.232,-0.616 -4.8,0.068 m 3.291,0.475 c -0.362,0.095 -1.042,0.098 -1.513,0.008 -0.47,-0.091 -0.174,-0.168 0.658,-0.172 0.831,-0.005 1.216,0.069 0.855,0.164 m 3.587,0.747 c -1.634,0.659 0.123,3.226 3.311,4.84 0.726,0.368 1.66,0.962 2.076,1.32 1.021,0.878 3.174,1.7 3.51,1.339 0.149,-0.16 0.058,-0.368 -0.201,-0.461 -0.26,-0.092 -0.473,-0.409 -0.473,-0.704 0,-0.726 2.037,-0.702 2.646,0.032 0.583,0.702 1.529,0.726 2.437,0.062 0.975,-0.714 -2.752,-3.107 -6.595,-4.235 -0.52,-0.152 -1.281,-0.509 -1.691,-0.793 -0.41,-0.284 -1.028,-0.516 -1.372,-0.516 -0.344,0 -0.837,-0.256 -1.096,-0.568 -0.461,-0.554 -1.609,-0.697 -2.552,-0.316 m 4.089,1.856 c 0.326,0.292 1.262,0.766 2.08,1.053 l 1.487,0.521 -1.638,0.497 c -1.441,0.438 -1.782,0.419 -2.836,-0.153 -2.071,-1.126 -3.026,-2.001 -2.721,-2.494 0.356,-0.576 2.771,-0.192 3.628,0.576 m -65.576,-0.289 c -0.103,0.168 0.193,0.784 0.659,1.368 1.009,1.266 3.71,1.643 3.934,0.549 0.24,-1.173 -3.967,-2.928 -4.593,-1.917 m 110.121,2.75 c 3.087,2.062 2.742,3.288 -0.449,1.596 -0.665,-0.353 -2.145,-0.849 -3.289,-1.102 -1.27,-0.282 -1.68,-0.474 -1.053,-0.493 0.616,-0.019 1.188,-0.334 1.431,-0.788 0.547,-1.022 0.705,-0.985 3.36,0.787 M 58.032,184.882 c -0.533,1.682 3.461,4.139 4.085,2.513 0.205,-0.535 -1.247,-2.094 -2.64,-2.835 -1.094,-0.581 -1.163,-0.566 -1.445,0.322 m 132.894,0.751 c 0.504,0.326 0.504,0.367 0,0.367 -0.312,0 -0.822,-0.165 -1.134,-0.367 -0.504,-0.326 -0.504,-0.366 0,-0.366 0.312,0 0.822,0.165 1.134,0.366 m 90.927,0 c -1.057,0.454 -2.836,0.454 -2.836,0 0,-0.208 0.808,-0.366 1.796,-0.351 1.351,0.02 1.608,0.107 1.04,0.351 m -156.121,0.643 c -0.244,0.636 0.613,1.626 1.407,1.626 0.188,0 0.774,0.34 1.302,0.756 1.252,0.985 2.75,1.009 2.75,0.045 0,-1.689 -4.905,-3.87 -5.459,-2.427 m 101.436,0.878 c 0.906,0.411 1.869,0.748 2.14,0.748 0.676,0 4.004,2.676 5.939,4.776 1.854,2.011 2.21,2.567 4.639,7.242 0.995,1.915 1.935,3.483 2.088,3.483 1.355,0 1.184,4.918 -0.289,8.269 -0.331,0.754 -0.945,2.137 -1.364,3.073 -3.816,8.522 -13.253,11.03 -21.985,5.843 -0.831,-0.494 -2.022,-1.182 -2.646,-1.528 -2.519,-1.398 -6.359,-4.522 -7.579,-6.164 -0.712,-0.959 -1.464,-1.945 -1.671,-2.192 -0.269,-0.32 -0.134,-0.523 0.467,-0.707 0.464,-0.141 1.099,-0.472 1.411,-0.734 0.311,-0.263 0.992,-0.607 1.512,-0.764 2.996,-0.906 5.399,-4.083 4.083,-5.399 -0.992,-0.992 -2.949,-0.278 -2.949,1.077 0,2.163 -2.769,3.068 -8.372,2.735 l -3.647,-0.216 -2.464,1.378 c -1.355,0.758 -2.781,1.378 -3.169,1.378 -0.388,0 -1.091,0.27 -1.562,0.6 -0.868,0.608 -6.423,0.585 -15.89,-0.065 -2,-0.138 -3.54,-0.059 -4.2,0.215 -0.987,0.409 -3.451,-0.465 -4.174,-1.481 -0.514,-0.722 -4.299,-3.428 -4.795,-3.428 -0.312,0 -1.001,-0.34 -1.529,-0.756 -0.529,-0.416 -1.279,-0.756 -1.667,-0.756 -0.388,0 -0.705,-0.164 -0.705,-0.364 0,-0.2 -0.638,-0.54 -1.418,-0.756 -1.734,-0.48 -2.135,-0.742 -2.656,-1.733 -0.223,-0.425 -1.464,-1.318 -2.756,-1.985 -3.01,-1.552 -5.16,-1.633 -3.664,-0.137 1.151,1.151 -3.822,1.429 -5.939,0.331 -0.409,-0.212 -2.365,-0.466 -4.348,-0.565 -2.842,-0.141 -3.912,-0.36 -5.057,-1.033 -1.931,-1.135 -1.547,-1.273 3.751,-1.351 4.644,-0.068 4.789,-0.036 8.539,1.935 1.004,0.528 1.691,-0.571 1.188,-1.902 -0.47,-1.245 0.01,-1.5 2.833,-1.509 0.894,-0.003 2.151,-0.277 2.794,-0.609 1.802,-0.932 15.103,-0.974 18.319,-0.058 1.278,0.364 3.51,0.662 4.962,0.662 1.451,0 3.362,0.255 4.246,0.567 1.944,0.686 11.327,0.809 11.979,0.158 0.55,-0.551 3.8,-0.523 4.476,0.039 0.437,0.362 0.732,0.221 1.529,-0.725 0.725,-0.862 1.308,-1.173 2.197,-1.173 0.665,0 1.877,-0.34 2.692,-0.756 0.816,-0.416 1.727,-0.757 2.024,-0.757 0.297,0 1.282,-0.34 2.188,-0.756 0.907,-0.416 2.39,-1.096 3.297,-1.512 0.906,-0.416 1.895,-0.756 2.196,-0.756 0.301,0 0.878,-0.25 1.282,-0.555 0.403,-0.305 1.368,-0.561 2.144,-0.567 0.775,-0.007 2.051,-0.257 2.835,-0.557 3.112,-1.188 6.406,-1.265 8.745,-0.203 m 60.643,-0.008 c 0.776,0.415 1.758,0.756 2.181,0.756 1.872,0 1.394,3.662 -0.744,5.705 -1.266,1.21 -3.364,1.74 -4.495,1.135 -0.424,-0.227 -1.469,-0.413 -2.321,-0.413 -1.414,0 -2.339,0.377 -6.263,2.554 -1.124,0.624 -2.032,0.233 -3.579,-1.541 l -1.259,-1.444 0.793,-1.633 c 1.031,-2.123 2.89,-4.222 3.964,-4.478 0.467,-0.111 1.53,-0.463 2.362,-0.783 2.317,-0.891 7.584,-0.811 9.361,0.142 m -224.94,2.147 c -0.328,0.852 3.088,3.986 4.17,3.826 1.321,-0.196 1.14,-1.03 -0.604,-2.774 -1.754,-1.754 -3.14,-2.163 -3.566,-1.052 m 93.84,3.146 c 0.874,0.222 0.57,0.292 -1.323,0.306 -1.692,0.013 -2.222,-0.083 -1.702,-0.306 0.899,-0.387 1.507,-0.387 3.025,0 m 40.263,1.606 c 0.002,0.337 -2.117,0.312 -3.26,-0.037 -0.646,-0.198 -0.742,-0.41 -0.49,-1.083 l 0.314,-0.836 1.718,0.836 c 0.944,0.46 1.718,0.964 1.718,1.12 m -27.688,-1.347 c -0.361,0.095 -1.042,0.098 -1.512,0.008 -0.471,-0.09 -0.175,-0.168 0.657,-0.172 0.832,-0.004 1.217,0.07 0.855,0.164 m -29.983,1.966 c -0.199,0.188 -0.872,0.418 -1.496,0.512 -0.624,0.093 -0.921,0.099 -0.661,0.012 0.259,-0.087 0.472,-0.472 0.472,-0.855 0,-0.384 0.213,-0.776 0.473,-0.872 0.655,-0.243 1.674,0.768 1.212,1.203 m -69.738,-0.031 c 0,0.944 2.313,3.099 3.326,3.099 1.279,0 1.036,-1.256 -0.503,-2.608 -1.504,-1.32 -2.823,-1.549 -2.823,-0.491 m 75.615,-0.407 c -1.32,0.503 -1.252,1.737 0.12,2.193 l 0.825,0.274 -0.852,0.168 c -0.468,0.092 -1.097,-0.079 -1.399,-0.381 -0.301,-0.301 -1.168,-0.664 -1.926,-0.806 -2.226,-0.418 -0.77,-1.734 1.872,-1.693 1.06,0.016 1.671,0.127 1.36,0.245 m 125.448,0.981 c 0.379,0.1 0.231,0.186 -0.366,0.212 -0.866,0.038 -0.972,-0.073 -0.771,-0.807 0.181,-0.66 0.262,-0.708 0.366,-0.212 0.073,0.351 0.42,0.714 0.771,0.807 m -140.288,0.139 c -0.364,0.095 -0.959,0.095 -1.323,0 -0.364,-0.095 -0.066,-0.173 0.662,-0.173 0.727,0 1.025,0.078 0.661,0.173 m 178.31,2.151 c -0.244,0.77 -0.259,0.767 -0.583,-0.11 -0.183,-0.495 -0.22,-1.255 -0.082,-1.689 0.244,-0.77 0.259,-0.768 0.583,0.11 0.183,0.494 0.22,1.254 0.082,1.689 m -109.526,-0.184 c 0.36,1.379 4.56,4.577 6.011,4.577 0.231,0 0.964,0.272 1.63,0.604 1.307,0.652 3.224,0.44 2.968,-0.328 -0.083,-0.249 -1.876,-1.323 -3.985,-2.388 -2.109,-1.064 -4.053,-2.107 -4.319,-2.317 -1.044,-0.823 -2.506,-0.917 -2.305,-0.148 m 73.715,1.052 c -0.39,0.39 -0.968,-0.291 -0.743,-0.876 0.204,-0.533 0.266,-0.528 0.585,0.041 0.196,0.35 0.267,0.726 0.158,0.835 m 23.191,0.501 c 0,1.268 -0.124,1.512 -0.768,1.512 -1.144,0 -1.274,-0.897 -0.291,-2.018 1.103,-1.258 1.059,-1.279 1.059,0.506 m -21.172,0.378 c 0.441,0.284 0.33,0.368 -0.495,0.372 -0.613,0.003 -0.963,-0.154 -0.828,-0.372 0.29,-0.47 0.597,-0.47 1.323,0 m -137.33,0.26 c -0.361,0.094 -1.042,0.098 -1.512,0.007 -0.471,-0.09 -0.175,-0.168 0.657,-0.172 0.832,-0.004 1.217,0.07 0.855,0.165 m -59.724,1.238 c 0.746,0.54 2.049,0.833 4.805,1.081 2.079,0.188 3.14,0.364 2.357,0.393 -1.135,0.042 -1.558,0.274 -2.088,1.146 l -0.665,1.094 -1.315,-0.7 c -1.927,-1.026 -6.347,-1.004 -7.673,0.039 -1.129,0.887 -2.405,0.431 -2.604,-0.931 -0.156,-1.062 -1.253,-1.266 -7.294,-1.352 -4.527,-0.064 -7.668,-0.416 -6.994,-0.784 0.104,-0.056 4.527,-0.209 9.83,-0.339 5.302,-0.13 9.86,-0.271 10.128,-0.313 0.269,-0.042 0.949,0.258 1.513,0.666 m 75.233,-0.044 c 0.869,0.551 0.092,1.571 -1.187,1.559 -0.99,-0.01 -1.078,-0.076 -0.527,-0.397 0.364,-0.212 0.662,-0.632 0.662,-0.934 0,-0.614 0.332,-0.686 1.052,-0.228 m -10.126,0.959 c 2.946,0.115 4.714,0.362 5.482,0.766 0.624,0.328 1.497,0.598 1.94,0.599 0.825,0.003 5.697,1.722 6.378,2.251 0.208,0.162 0.817,0.398 1.355,0.526 1.476,0.352 4.056,1.895 6.584,3.937 2.527,2.042 2.693,2.733 1.287,5.355 -0.396,0.739 -0.72,1.725 -0.72,2.191 0,0.466 -0.339,1.404 -0.754,2.085 -0.415,0.681 -0.761,1.748 -0.769,2.372 -0.007,0.624 -0.263,1.465 -0.568,1.868 -0.305,0.404 -0.555,1.291 -0.555,1.971 0,0.68 -0.34,2.1 -0.756,3.155 -0.416,1.056 -0.756,2.516 -0.756,3.247 0,0.73 -0.233,1.787 -0.517,2.349 -0.284,0.561 -0.633,2.083 -0.775,3.382 -0.142,1.299 -0.505,2.952 -0.806,3.674 -0.302,0.722 -0.549,2.345 -0.549,3.606 0,1.387 -0.26,2.847 -0.657,3.698 -0.565,1.207 -0.67,2.821 -0.746,11.424 -0.049,5.511 -0.093,10.147 -0.099,10.303 -0.006,0.156 -1.605,0.283 -3.554,0.283 -2.011,0 -4.178,0.222 -5.01,0.513 -0.806,0.282 -2.741,0.634 -4.301,0.781 -1.559,0.148 -3.564,0.513 -4.455,0.811 -0.891,0.298 -2.593,0.546 -3.781,0.552 -1.188,0.005 -3.607,0.341 -5.374,0.746 -1.768,0.405 -4.235,0.741 -5.482,0.747 -1.248,0.005 -3.46,0.252 -4.915,0.547 -7.932,1.612 -40.343,1.616 -44.538,0.006 -0.342,-0.132 -2.199,-0.35 -4.126,-0.486 -3.413,-0.241 -3.517,-0.276 -4.073,-1.381 -1.613,-3.204 0.253,-20.125 2.773,-25.142 1.408,-2.802 1.839,-2.905 13.207,-3.17 9.111,-0.212 24.104,0.157 26.36,0.648 0.52,0.114 2.977,0.419 5.46,0.678 l 4.516,0.471 1.984,1.797 c 2.117,1.917 4.601,2.944 5.125,2.119 0.47,-0.74 0.367,-1.037 -0.666,-1.91 -3.696,-3.125 -4.118,-3.857 -4.328,-7.505 -0.161,-2.809 -0.326,-3.502 -0.938,-3.949 -1.791,-1.31 -2.25,0.242 -1.496,5.056 0.318,2.029 -0.206,2.085 -4.776,0.513 -1.749,-0.602 -4.456,-1.384 -6.015,-1.738 -1.56,-0.355 -4.15,-0.969 -5.756,-1.364 -1.606,-0.396 -3.377,-0.72 -3.936,-0.72 -0.56,0 -1.883,-0.244 -2.941,-0.544 -1.734,-0.491 -6.82,-1.187 -18.369,-2.517 -5.815,-0.669 -6.07,-0.951 -7.041,-7.811 -1.199,-8.476 -1.121,-10.639 0.616,-16.916 1.77,-6.398 2.569,-7.374 6.024,-7.367 2.585,0.006 2.98,0.151 5.917,2.165 2.673,1.833 3.852,0.656 1.673,-1.669 l -1.125,-1.201 1.032,-0.212 c 0.568,-0.117 2.393,-0.257 4.057,-0.312 l 3.024,-0.099 3.592,2.681 c 6.636,4.955 15.705,11.137 17.769,12.113 0.312,0.147 1.418,0.802 2.458,1.455 1.04,0.653 2.146,1.305 2.457,1.448 0.312,0.144 1.653,0.861 2.981,1.594 3.325,1.837 5.137,1.04 8.432,-3.709 2.675,-3.854 5.601,-11.743 5.601,-15.101 0,-1.518 0.662,-2.121 2.168,-1.971 0.783,0.078 3.38,0.218 5.771,0.311 m -87.824,0.374 c 0.354,0.354 -0.695,1.75 -1.32,1.754 -0.356,0.003 -2.094,0.487 -3.862,1.076 -4.984,1.662 -5.258,1.705 -5.019,0.791 0.508,-1.943 8.9,-4.922 10.201,-3.621 m 229.421,-0.154 c -0.254,0.41 0.569,1.321 2.313,2.564 1.271,0.905 1.93,2.364 1.068,2.364 -0.281,0 -0.616,-0.171 -0.745,-0.38 -0.268,-0.434 -1.855,-1.287 -3.118,-1.677 -1.077,-0.332 -1.134,0.59 -0.198,3.225 1.111,3.128 4.641,3.589 4.641,0.605 0,-1.664 0.323,-1.925 1.138,-0.918 1.636,2.02 2.455,-0.835 0.945,-3.294 -1.228,-1.998 -5.309,-3.679 -6.044,-2.489 m -127.703,1.786 c -0.364,0.095 -0.959,0.095 -1.323,0 -0.364,-0.095 -0.066,-0.173 0.662,-0.173 0.727,0 1.025,0.078 0.661,0.173 m -88.374,0.433 c 1.511,0.231 1.696,0.366 1.651,1.201 -0.078,1.457 -0.902,5.235 -1.7,7.795 -1.016,3.259 -1.078,16.349 -0.094,19.855 0.896,3.195 0.652,3.349 -5.317,3.345 -4.162,-0.004 -8.116,-0.515 -14.217,-1.841 -5.495,-1.193 -11.623,-5.078 -13.274,-8.414 -3.737,-7.552 -2.276,-12.611 4.596,-15.909 0.519,-0.25 1.566,-0.931 2.326,-1.513 0.76,-0.583 2.206,-1.216 3.214,-1.407 1.007,-0.192 2.342,-0.615 2.966,-0.94 0.624,-0.326 1.443,-0.593 1.821,-0.595 0.377,-0.001 1.058,-0.204 1.512,-0.45 1.747,-0.949 12.76,-1.7 16.516,-1.127 m 144.646,1.101 c -0.407,0.406 -0.623,-0.163 -0.337,-0.89 0.268,-0.681 0.288,-0.682 0.42,-0.024 0.077,0.38 0.039,0.791 -0.083,0.914 m 33.424,1.337 c 0.002,0.372 -1.602,0.996 -1.983,0.772 -0.366,-0.216 -0.37,-2.557 -0.005,-2.922 0.275,-0.275 1.984,1.574 1.988,2.15 m 18.298,0.44 c -0.336,1.116 -0.692,1.401 -1.409,1.126 -0.816,-0.313 -0.807,-1.607 0.018,-2.519 0.811,-0.895 1.785,0.081 1.391,1.393 m 22.347,1.371 c 0,1.145 -1.179,1.44 -1.907,0.478 -0.29,-0.382 -0.532,-1.159 -0.539,-1.726 l -0.012,-1.032 1.229,0.686 c 0.854,0.477 1.229,0.963 1.229,1.594 m -200.041,0.509 c -0.405,1.055 1.926,3.528 3.923,4.162 1.725,0.547 0.241,-2.359 -1.981,-3.882 -1.402,-0.96 -1.666,-0.998 -1.942,-0.28 m 118.566,-0.166 c 0.498,0.314 0.489,0.437 -0.072,0.997 -0.6,0.601 -0.701,0.599 -1.656,-0.027 -0.798,-0.523 -0.905,-0.738 -0.496,-0.998 0.68,-0.43 1.516,-0.42 2.224,0.028 m 41.598,0.671 c 3.75,4.47 3.511,6.086 -2.743,18.502 l -3.465,6.878 -0.016,4.653 c -0.032,8.976 3.248,12.621 8.805,9.786 2.876,-1.467 7.226,-6.275 7.245,-8.007 0.004,-0.426 0.076,-0.418 0.372,0.039 2.013,3.114 -3.808,12.854 -12.313,20.605 -1.826,1.663 -3.535,3.239 -3.798,3.501 -0.899,0.895 -4.113,2.271 -5.903,2.526 -0.983,0.14 -1.872,0.392 -1.975,0.559 -0.104,0.167 -0.974,0.524 -1.934,0.793 -0.96,0.269 -1.833,0.718 -1.94,0.997 -0.112,0.292 -0.759,0.508 -1.515,0.508 -0.727,0 -1.857,0.251 -2.512,0.557 -0.655,0.306 -2.467,0.737 -4.027,0.958 -1.559,0.221 -4.026,0.584 -5.482,0.808 -5.556,0.854 -44.272,0.5 -49.107,-0.45 -4.683,-0.919 -6.541,-1.813 -6.9,-3.322 -0.133,-0.554 -0.43,-1.248 -0.661,-1.542 -0.613,-0.776 -0.331,-12.846 0.361,-15.503 0.298,-1.144 0.541,-3.284 0.541,-4.755 0,-1.706 0.274,-3.454 0.757,-4.826 0.415,-1.183 0.756,-2.73 0.756,-3.438 0,-0.708 0.255,-1.897 0.567,-2.644 0.312,-0.746 0.573,-2.171 0.58,-3.165 0.007,-0.994 0.341,-2.489 0.743,-3.32 0.402,-0.832 0.736,-2.033 0.743,-2.669 0.007,-0.636 0.263,-1.487 0.568,-1.89 0.306,-0.404 0.561,-1.01 0.567,-1.348 0.019,-0.922 1.76,-6.008 2.574,-7.515 1.967,-3.643 2.068,-3.744 4.181,-4.184 2.173,-0.452 4.409,-0.311 10.699,0.674 3.763,0.589 4.145,0.589 5.998,-0.01 1.088,-0.351 2.459,-0.639 3.047,-0.639 0.587,0 1.158,-0.145 1.268,-0.323 0.21,-0.34 4.983,-2.103 6.718,-2.481 1.617,-0.353 2.789,0.344 4.23,2.515 1.201,1.809 2.661,3.259 6.532,6.483 0.653,0.544 1.309,0.99 1.457,0.99 0.148,0 0.804,0.45 1.458,1.001 0.654,0.55 2.295,1.494 3.646,2.098 1.352,0.604 2.883,1.325 3.403,1.602 0.52,0.277 1.541,0.631 2.268,0.785 0.728,0.155 1.659,0.515 2.069,0.8 2.145,1.492 8.223,-0.575 12.929,-4.396 2.38,-1.932 5.704,-7.262 6.73,-10.791 0.644,-2.216 1.425,-2.657 2.479,-1.4 m 52.818,3.014 c -0.082,0.785 -0.15,0.236 -0.152,-1.22 -0.002,-1.455 0.065,-2.097 0.149,-1.426 0.083,0.671 0.085,1.862 0.003,2.646 m -38.089,0.398 c 0.004,1.666 0.293,3.077 0.968,4.726 0.529,1.294 1.1,2.692 1.268,3.108 0.168,0.416 1.366,2.915 2.662,5.553 2.946,5.995 2.897,6.361 -1.112,8.282 -2.096,1.005 -4.353,1.674 -7.561,2.242 -2.937,0.52 -3.309,0.784 -3.627,2.581 -0.918,5.178 -6.598,9.91 -9.088,7.571 -2.862,-2.688 -2.16,-12.85 1.228,-17.776 1.215,-1.766 2.245,-1.597 2.799,0.459 0.455,1.691 0.941,2.109 1.71,1.471 0.813,-0.674 0.651,-2.57 -0.403,-4.712 -1.128,-2.294 -1.142,-2.654 -0.178,-4.832 0.417,-0.942 0.865,-2.793 0.997,-4.112 0.299,-3 0.575,-3.343 2.688,-3.343 1.968,0 3.383,-0.772 5.544,-3.023 1.782,-1.857 2.097,-1.588 2.105,1.805 m -92.971,-1.807 c 1.38,0 1.568,0.996 0.377,1.998 -0.621,0.522 -1.239,1.391 -1.375,1.931 -0.135,0.539 -0.398,0.887 -0.584,0.772 -0.524,-0.324 -0.399,-1.183 0.271,-1.853 0.591,-0.591 0.578,-1.422 -0.048,-3.037 -0.241,-0.622 -0.203,-0.672 0.216,-0.284 0.28,0.26 0.795,0.473 1.143,0.473 m 83.027,2.514 c -0.318,0.318 -2.138,-1.469 -1.896,-1.861 0.106,-0.171 0.629,0.125 1.161,0.658 0.533,0.533 0.864,1.074 0.735,1.203 m -63.856,-1.48 c -0.981,0.077 -2.682,0.078 -3.781,0.001 -1.098,-0.076 -0.296,-0.14 1.783,-0.141 2.08,-0.001 2.979,0.062 1.998,0.14 m 102.82,2.463 c -0.531,0.468 -1.343,1.138 -1.805,1.489 -0.887,0.674 -1.577,1.711 -2.282,3.426 -0.245,0.597 -0.719,1.04 -1.115,1.04 -1.102,0 -1.884,0.416 -1.884,1.003 0,0.618 1.66,2.4 2.236,2.4 0.529,0 2.301,-1.968 2.301,-2.556 0,-1.082 1.995,-4.29 2.539,-4.082 0.301,0.116 0.618,0.21 0.705,0.21 0.087,0 0.158,0.643 0.158,1.428 0,2.484 2.483,4.451 3.416,2.706 0.871,-1.626 0.444,-3.22 -1.158,-4.33 l -1.523,-1.056 0.764,-0.813 c 1.488,-1.583 -0.648,-2.368 -2.352,-0.865 m -198.012,1.011 c 0,0.964 3.749,4.241 4.696,4.104 1.237,-0.179 1.051,-0.813 -0.84,-2.859 -1.97,-2.132 -3.856,-2.741 -3.856,-1.245 m 188.295,-0.178 c -0.794,0.956 0.258,3.232 1.494,3.232 0.97,0 1.367,-2.658 0.493,-3.309 -0.833,-0.62 -1.429,-0.597 -1.987,0.077 m -114.598,2.003 c -0.104,1.108 -0.678,1.726 -0.703,0.756 -0.015,-0.572 0.144,-1.04 0.352,-1.04 0.208,0 0.366,0.128 0.351,0.284 m 127.595,1.08 c 0.992,0.381 0.799,2.499 -0.214,2.349 -0.993,-0.148 -1.66,-1.124 -1.339,-1.96 0.254,-0.664 0.607,-0.752 1.553,-0.389 m -18.591,1.534 c -0.262,0.105 -0.368,0.365 -0.237,0.577 0.131,0.213 0.024,1.037 -0.238,1.831 -0.591,1.792 0.671,3.891 2.147,3.57 0.451,-0.098 0.876,-0.052 0.945,0.104 0.417,0.938 2.531,1.535 3.122,0.881 1.396,-1.542 -1.037,-6.458 -3.195,-6.458 -0.386,0 -0.807,-0.17 -0.935,-0.378 -0.247,-0.399 -0.822,-0.445 -1.609,-0.127 m -110.49,2.017 c 0,0.832 -0.17,1.512 -0.378,1.512 -0.417,0 -0.508,-1.488 -0.148,-2.426 0.371,-0.967 0.526,-0.698 0.526,0.914 m -65.393,-0.661 c 0.036,1.357 3.933,4.333 4.767,3.641 0.67,-0.556 0.647,-0.819 -0.149,-1.736 -1.504,-1.733 -4.648,-3.03 -4.618,-1.905 m 179.934,1.402 c 1.492,1.463 1.823,2.368 1.215,3.324 -0.312,0.493 -1.265,-0.357 -3.026,-2.698 -1.823,-2.424 -0.493,-2.884 1.811,-0.626 m -116.16,4.831 c -0.087,0.574 -0.16,0.194 -0.163,-0.846 -0.003,-1.04 0.068,-1.51 0.158,-1.045 0.09,0.465 0.092,1.316 0.005,1.891 M 34.399,227.284 c 0.003,0.347 0.218,0.716 0.478,0.821 0.26,0.105 0.108,0.204 -0.337,0.221 -0.933,0.034 -1.313,-0.67 -1.002,-1.856 0.24,-0.92 0.85,-0.343 0.861,0.814 m 72.484,-0.814 c -0.137,0.524 0.055,0.894 0.618,1.189 0.449,0.235 1.437,0.914 2.194,1.507 1.38,1.081 2.733,1.392 3.146,0.723 0.296,-0.479 -4.189,-4.18 -5.066,-4.18 -0.381,0 -0.782,0.342 -0.892,0.761 m -69.947,4.91 c 1.623,1.04 3.142,1.89 3.377,1.89 0.234,0 0.629,0.245 0.877,0.543 0.247,0.299 0.915,0.645 1.484,0.77 2.324,0.51 4.903,2.253 7.915,5.347 3.757,3.86 3.826,4.375 0.635,4.784 -8.227,1.056 -13.944,2.808 -15.555,4.767 -1.251,1.522 -0.011,2.21 1.868,1.035 0.46,-0.288 2.709,-0.968 4.996,-1.512 2.287,-0.545 4.924,-1.175 5.86,-1.401 1.868,-0.451 4.464,-0.624 13.109,-0.875 6.56,-0.19 6.595,-0.172 5.639,2.772 -2.255,6.939 -3.493,14.773 -3.135,19.842 0.324,4.586 -1.783,5.325 -8.997,3.153 -3.285,-0.989 -5.23,-1.464 -7.372,-1.801 -1.144,-0.179 -2.915,-0.592 -3.935,-0.917 -1.021,-0.324 -2.695,-0.59 -3.72,-0.59 -6.957,0 -11.946,-7.07 -9.02,-12.779 1.172,-2.285 2.308,-4.978 2.311,-5.473 10e-4,-0.254 0.255,-0.948 0.565,-1.541 1.804,-3.461 1.535,-8.845 -0.557,-11.136 -1.979,-2.167 -3.179,-1.383 -1.934,1.264 1.507,3.207 0.989,3.935 -3.995,5.614 -2.058,0.693 -4.248,1.516 -4.866,1.828 -1.301,0.658 -1.772,0.552 -3.582,-0.811 -0.728,-0.548 -1.82,-1.247 -2.426,-1.552 -0.723,-0.365 -1.422,-1.252 -2.03,-2.579 -0.667,-1.454 -1.261,-2.17 -2.111,-2.545 -2.718,-1.2 -3.449,-2.915 -1.432,-3.358 0.591,-0.13 2.656,-0.824 4.588,-1.542 2.197,-0.817 4.19,-1.307 5.319,-1.307 0.993,0 2.883,-0.338 4.202,-0.751 1.318,-0.413 2.651,-0.764 2.963,-0.78 0.312,-0.016 1.503,-0.511 2.647,-1.1 2.797,-1.442 2.93,-1.426 6.312,0.741 m 77.577,-0.424 c -0.945,0.364 -0.345,1.423 1.738,3.066 1.97,1.553 2.471,1.608 2.451,0.266 -0.024,-1.594 -2.856,-3.847 -4.189,-3.332 m 47.569,2.409 c -0.091,0.468 -0.164,0.085 -0.164,-0.851 0,-0.936 0.073,-1.318 0.164,-0.85 0.09,0.467 0.09,1.233 0,1.701 m 109.481,-1.235 c 0.219,0.837 -0.357,1.42 -0.884,0.893 -0.393,-0.393 -0.026,-2.094 0.396,-1.834 0.159,0.099 0.379,0.522 0.488,0.941 m -201.737,1.424 c -0.095,0.364 -0.173,0.066 -0.173,-0.662 0,-0.728 0.078,-1.025 0.173,-0.661 0.095,0.364 0.095,0.959 0,1.323 m 182.908,1.24 c -0.147,0.238 -0.098,0.602 0.11,0.81 0.55,0.55 2.165,0.22 2.165,-0.443 0,-0.686 -1.889,-0.991 -2.275,-0.367 m -181.049,1.028 c 0.984,1.296 0.322,2.157 -1.327,1.726 -0.873,-0.228 -1.048,-1.225 -0.339,-1.934 0.625,-0.625 1.077,-0.568 1.666,0.208 m -19.396,0.845 c 0.168,0.151 -0.226,0.495 -0.875,0.764 -1.024,0.424 -1.265,0.404 -1.817,-0.148 -1.132,-1.133 1.462,-1.726 2.692,-0.616 m 108.673,2.747 c -0.13,0.747 -0.185,0.77 -0.445,0.188 -0.163,-0.364 -0.162,-1.13 0.002,-1.701 0.358,-1.25 0.714,-0.036 0.443,1.513 m 98.758,-1.624 c 0.965,0.61 -0.619,1.994 -1.947,1.703 -0.773,-0.17 -1.125,-0.071 -1.292,0.363 -0.28,0.73 -0.904,0.79 -0.904,0.088 0,-1.598 2.756,-3.031 4.143,-2.154 m -253.4,2.564 c -0.086,0.575 -0.16,0.194 -0.163,-0.845 -0.003,-1.04 0.069,-1.51 0.158,-1.045 0.09,0.465 0.092,1.315 0.005,1.89 m 78.935,-1.035 c 1.454,0.416 3.373,0.757 4.264,0.757 0.892,0 2.209,0.246 2.929,0.546 0.719,0.301 2.616,0.729 4.215,0.951 1.599,0.223 2.999,0.496 3.111,0.608 0.717,0.717 -1.75,0.95 -9.604,0.909 -12.387,-0.066 -27.325,0.785 -30.486,1.738 -0.86,0.259 -2.537,-0.571 -2.795,-1.383 -0.118,-0.372 -1.098,-1.458 -2.179,-2.415 -1.593,-1.411 -1.858,-1.808 -1.4,-2.098 1.243,-0.786 29.02,-0.449 31.945,0.387 m -46.444,0.692 c -0.861,0.952 -0.82,2.333 0.07,2.333 0.684,0 1.573,-1.399 1.573,-2.475 0,-0.764 -0.893,-0.687 -1.643,0.142 m -27.091,0.848 c 0,0.123 -0.425,0.451 -0.945,0.729 -1.272,0.681 -1.276,2.103 -0.006,2.422 0.58,0.146 1.03,0.596 1.175,1.175 0.199,0.793 0.459,0.94 1.661,0.94 0.806,0 1.63,0.246 1.896,0.567 0.259,0.312 0.875,0.567 1.369,0.567 0.62,0 0.899,0.215 0.899,0.693 0,1.053 -0.442,1.273 -0.989,0.493 -0.398,-0.569 -0.839,-0.667 -2.348,-0.522 -1.144,0.11 -1.957,0.017 -2.118,-0.243 -0.143,-0.231 -0.66,-0.421 -1.15,-0.421 -0.863,0 -2.846,-1.889 -2.846,-2.712 0,-0.212 -0.336,-0.856 -0.745,-1.431 -0.859,-1.206 -0.689,-1.528 0.808,-1.528 0.626,0 1.071,-0.204 1.071,-0.492 0,-0.927 0.789,-1.384 1.561,-0.902 0.389,0.243 0.707,0.542 0.707,0.665 m 109.368,2.053 c 0.194,2.557 0.348,2.991 1.565,4.413 0.742,0.867 1.243,1.675 1.111,1.795 -0.131,0.12 -0.314,0.006 -0.407,-0.254 -0.093,-0.26 -0.333,-0.473 -0.534,-0.473 -1.649,0 -2.88,-2.466 -2.688,-5.387 0.243,-3.716 0.676,-3.759 0.953,-0.094 m 139.782,-2.086 c 0,0.16 -0.256,0.503 -0.568,0.762 -0.479,0.398 -0.567,0.319 -0.567,-0.509 0,-0.715 0.153,-0.921 0.567,-0.762 0.312,0.12 0.568,0.349 0.568,0.509 m -226.844,3.219 c 0,1.413 -0.12,1.702 -0.709,1.702 -1.276,0 -1.68,-0.958 -0.611,-1.445 0.552,-0.252 0.942,-0.746 0.942,-1.194 0,-0.42 0.085,-0.764 0.189,-0.764 0.104,0 0.189,0.766 0.189,1.701 m 78.873,-0.14 c 0.648,0.389 1.637,0.707 2.196,0.707 0.582,0 0.918,0.162 0.784,0.379 -0.353,0.57 -3.436,0.453 -4.973,-0.189 -0.747,-0.312 -1.634,-0.57 -1.973,-0.573 -0.905,-0.009 -1.694,-0.606 -1.409,-1.067 0.366,-0.594 3.981,-0.094 5.375,0.743 m 46.609,2.692 c -0.024,2.15 -0.137,3.06 -0.293,2.363 -0.255,-1.141 -0.114,-5.86 0.176,-5.86 0.085,0 0.138,1.574 0.117,3.497 M 56.333,244.802 c 0,0.311 -0.255,0.567 -0.567,0.567 -0.312,0 -0.568,-0.256 -0.568,-0.567 0,-0.312 0.256,-0.568 0.568,-0.568 0.312,0 0.567,0.256 0.567,0.568 m 13.669,0.795 c -0.197,1.082 -0.444,1.168 -1.035,0.36 -0.422,-0.578 -0.436,-0.796 -0.063,-1.033 0.716,-0.454 1.244,-0.13 1.098,0.673 m -42.781,2.229 c 0.988,0.729 1.741,0.945 3.287,0.945 1.104,0 2.006,0.145 2.006,0.321 0,0.509 -9.951,0.892 -11.167,0.43 l -1.048,-0.398 2.232,-1.11 c 2.739,-1.361 3.082,-1.375 4.69,-0.188 m 287.571,3.893 c -0.102,0.166 0.24,0.847 0.761,1.513 1.027,1.311 2.285,1.586 2.67,0.583 0.434,-1.131 -2.805,-3.109 -3.431,-2.096 m -156.43,5.748 c -0.021,2.599 -0.163,5.832 -0.315,7.183 -0.195,1.742 -0.291,0.2 -0.328,-5.293 -0.034,-5.123 0.073,-7.558 0.315,-7.183 0.202,0.312 0.349,2.694 0.328,5.293 m 106.371,-2.095 c -0.891,0.28 -1.877,0.724 -2.193,0.987 -0.316,0.262 -2.142,1.256 -4.059,2.21 -4.398,2.188 -4.741,3.296 -0.885,2.859 5.058,-0.574 5.31,-0.66 5.909,-2.017 0.384,-0.869 1.125,-1.548 2.387,-2.188 2.977,-1.508 2.117,-2.883 -1.159,-1.851 m -231.061,2.071 c -0.787,0.788 -0.971,1.732 -0.55,2.829 0.365,0.951 1.212,0.696 1.863,-0.562 1.119,-2.165 0.19,-3.77 -1.313,-2.267 m 228.012,1.629 c -0.212,0.212 -0.695,0.26 -1.073,0.106 -0.646,-0.264 -0.642,-0.297 0.07,-0.57 0.918,-0.353 1.534,-0.067 1.003,0.464 m 120.703,-0.62 c 1.669,0.64 -1.045,1.214 -3.118,0.659 -0.66,-0.177 -0.755,-0.318 -0.378,-0.557 0.588,-0.373 2.634,-0.433 3.496,-0.102 m 6.467,1.797 c 0.23,0.314 0.902,0.692 1.494,0.84 1.009,0.254 1.032,0.302 0.377,0.782 -0.925,0.676 -1.502,0.644 -2.271,-0.125 -0.35,-0.35 -1.569,-0.763 -2.709,-0.918 -2.3,-0.312 -2.584,-0.457 -2.177,-1.115 0.4,-0.648 4.743,-0.208 5.286,0.536 m -14.486,5.519 c 0.477,0.198 1.889,0.567 3.137,0.818 2.656,0.534 1.917,0.986 -1.721,1.051 -2.185,0.039 -3.005,-0.383 -3.005,-1.55 0,-0.77 0.341,-0.839 1.589,-0.319 m 15.991,0.016 c 0.129,0.208 0.617,0.379 1.084,0.379 1.424,0 2.493,0.968 1.438,1.302 -1.252,0.398 -3.467,-0.453 -3.467,-1.332 0,-0.773 0.556,-0.978 0.945,-0.349 m 7.751,0.643 c 0,0.761 -0.11,0.912 -0.429,0.593 -0.235,-0.236 -0.326,-0.695 -0.201,-1.021 0.347,-0.902 0.63,-0.709 0.63,0.428 m -154.327,0.195 c 0.139,0.728 -1.398,1.295 -2.435,0.897 -0.563,-0.216 -0.556,-0.308 0.073,-1.003 0.808,-0.892 2.184,-0.831 2.362,0.106 m -84.106,4.854 c -0.638,0.638 -1.471,-0.261 -0.891,-0.961 0.476,-0.574 0.54,-0.573 0.866,0.008 0.196,0.351 0.207,0.771 0.025,0.953 m -93.165,3.855 c 0.016,0.156 -0.397,0.283 -0.917,0.283 -1.086,0 -1.105,-0.069 -0.482,-1.792 l 0.463,-1.28 0.453,1.253 c 0.25,0.689 0.467,1.38 0.483,1.536"
       inkscape:connector-curvature="0"
       style="fill:#ffffff;fill-rule:evenodd;stroke:none" />
  </g>
</svg>
