<?xml version="1.0" encoding="UTF-8" standalone="no"?>
<svg
   xmlns:dc="http://purl.org/dc/elements/1.1/"
   xmlns:cc="http://creativecommons.org/ns#"
   xmlns:rdf="http://www.w3.org/1999/02/22-rdf-syntax-ns#"
   xmlns:svg="http://www.w3.org/2000/svg"
   xmlns="http://www.w3.org/2000/svg"
   xmlns:sodipodi="http://sodipodi.sourceforge.net/DTD/sodipodi-0.dtd"
   xmlns:inkscape="http://www.inkscape.org/namespaces/inkscape"
   id="svg"
   version="1.1"
   width="400"
   height="377.93103448275866"
   viewBox="0, 0, 400,377.93103448275866"
   sodipodi:docname="C22-23.svg"
   inkscape:version="0.92.5 (2060ec1f9f, 2020-04-08)">
  <metadata
     id="metadata11">
    <rdf:RDF>
      <cc:Work
         rdf:about="">
        <dc:format>image/svg+xml</dc:format>
        <dc:type
           rdf:resource="http://purl.org/dc/dcmitype/StillImage" />
      </cc:Work>
    </rdf:RDF>
  </metadata>
  <defs
     id="defs9" />
  <sodipodi:namedview
     pagecolor="#ffffff"
     bordercolor="#666666"
     borderopacity="1"
     objecttolerance="10"
     gridtolerance="10"
     guidetolerance="10"
     inkscape:pageopacity="0"
     inkscape:pageshadow="2"
     inkscape:window-width="1366"
     inkscape:window-height="689"
     id="namedview7"
     showgrid="false"
     inkscape:zoom="0.62445256"
     inkscape:cx="200"
     inkscape:cy="188.96552"
     inkscape:window-x="0"
     inkscape:window-y="0"
     inkscape:window-maximized="1"
     inkscape:current-layer="svg" />
  <g
     id="g823"
     transform="translate(4.1505873,-0.96832295)"
     style="fill:#ffffff">
    <path
       id="path1"
       d="m 211.92,114.997 c -1.034,0.408 -2.738,1.539 -3.788,2.513 -2.156,2.002 -5.806,4.944 -8.44,6.803 -0.974,0.688 -2.351,1.709 -3.059,2.268 -1.496,1.182 -3.525,2.451 -5.14,3.214 -0.623,0.295 -2.07,1.304 -3.213,2.243 -1.144,0.939 -2.462,1.825 -2.93,1.968 -0.468,0.143 -0.851,0.399 -0.851,0.569 0,0.17 -0.298,0.41 -0.662,0.535 -0.363,0.124 -1.512,0.738 -2.552,1.364 -1.039,0.626 -2.315,1.321 -2.834,1.545 -0.52,0.225 -1.206,0.644 -1.525,0.933 -0.801,0.725 -8.636,4.715 -9.259,4.715 -0.278,0 -0.748,0.243 -1.045,0.54 -0.298,0.298 -1.373,0.706 -2.39,0.908 -1.018,0.202 -2.361,0.538 -2.984,0.745 -3.38,1.124 -5.211,1.617 -6.843,1.841 -0.999,0.137 -2.249,0.475 -2.78,0.752 -0.53,0.276 -1.437,0.504 -2.015,0.505 -0.579,0.001 -1.636,0.246 -2.349,0.544 -0.713,0.298 -2.111,0.662 -3.107,0.808 -0.995,0.147 -2.146,0.499 -2.556,0.782 -0.41,0.283 -1.35,0.515 -2.089,0.515 -0.74,0 -1.68,0.234 -2.09,0.52 -0.41,0.285 -1.512,0.646 -2.447,0.8 -0.936,0.155 -2.161,0.517 -2.723,0.804 -0.561,0.287 -1.327,0.528 -1.701,0.535 -0.374,0.007 -1.361,0.342 -2.193,0.743 -0.831,0.402 -1.767,0.738 -2.079,0.746 -0.312,0.008 -1.042,0.263 -1.623,0.566 -0.58,0.303 -1.686,0.661 -2.457,0.796 -0.771,0.135 -1.779,0.482 -2.239,0.77 -0.461,0.289 -1.385,0.525 -2.053,0.525 -1.143,0 -4.526,0.944 -7.507,2.095 -0.728,0.281 -1.864,0.616 -2.526,0.745 -0.661,0.128 -1.405,0.478 -1.653,0.776 -0.248,0.299 -0.814,0.543 -1.258,0.543 -1.268,0 -6.742,3.753 -8.822,6.049 -1.187,1.311 -2.376,2.97 -2.376,3.316 0,0.205 -0.255,0.584 -0.567,0.843 -0.312,0.259 -0.568,0.747 -0.57,1.086 -0.001,0.338 -0.25,1.09 -0.553,1.671 -1.323,2.538 -1.33,5.619 -0.015,6.934 0.314,0.314 0.573,0.856 0.575,1.205 0.021,2.722 7.565,13.953 13.989,20.827 3.197,3.421 2.969,3.685 -3.597,4.166 -7.207,0.529 -9.813,1.45 -9.131,3.227 0.214,0.557 0.518,0.628 3.082,0.727 0.944,0.036 1.155,0.219 1.254,1.083 0.066,0.572 0.3,1.04 0.521,1.04 0.259,0 0.312,-0.557 0.151,-1.568 -0.464,-2.9 0.2,-3.194 7.042,-3.122 l 5.777,0.061 2.119,2.873 c 2.843,3.857 3.349,10.919 1.236,17.257 -0.312,0.935 -0.664,2.892 -0.783,4.348 -0.254,3.097 -0.551,3.593 -2.145,3.586 -1.17,-0.006 -4.224,-0.916 -4.961,-1.48 -1.054,-0.806 -11.391,-3.43 -13.512,-3.43 -1.848,0 -9.108,-1.416 -10.865,-2.119 -2.255,-0.902 -5.961,-1.179 -8.602,-0.643 -3.028,0.615 -3.651,0.388 -3.387,-1.234 0.295,-1.822 -0.568,-1.914 -3.397,-0.359 -3.561,1.957 -5.238,1.534 -3.769,-0.953 1.106,-1.872 -0.391,-3.121 -3.864,-3.223 -4.668,-0.137 -5.5,-1.245 -5.109,-6.801 0.338,-4.81 -0.06,-5.462 -3.337,-5.462 -1.394,0 -2.563,-0.202 -2.921,-0.506 -0.328,-0.279 -1.673,-0.9 -2.987,-1.38 -1.725,-0.63 -2.709,-1.269 -3.533,-2.294 -1.796,-2.235 -3.264,-2.195 -6.742,0.187 -0.936,0.64 -2.506,1.556 -3.488,2.034 l -1.787,0.869 -1.758,-0.778 c -1.982,-0.877 -7.533,-1.103 -8.916,-0.363 -0.601,0.322 -1.105,0.267 -2.233,-0.242 -2.829,-1.275 -6.009,-0.203 -8.289,2.795 -0.725,0.953 -1.605,2.026 -1.956,2.384 -2.631,2.682 -4.087,4.948 -4.087,6.361 0,0.813 -0.352,2.071 -0.782,2.8 -0.821,1.392 -0.764,5.484 0.109,7.793 0.196,0.52 0.499,1.808 0.673,2.862 0.447,2.715 3.462,8.908 5.314,10.918 l 1.562,1.694 -0.792,1.111 c -2.787,3.914 2.537,5.266 15.075,3.829 1.774,-0.204 4.216,-0.371 5.425,-0.373 1.209,-0.002 2.569,-0.201 3.022,-0.444 0.453,-0.242 1.591,-0.646 2.527,-0.896 l 1.704,-0.456 -1.106,-0.442 c -0.89,-0.357 -1.591,-0.319 -3.592,0.193 -9.446,2.42 -18.264,-0.713 -25.54,-9.072 -0.524,-0.602 -0.953,-1.56 -0.953,-2.128 0,-0.568 -0.233,-1.226 -0.519,-1.463 -0.325,-0.27 -0.583,-1.521 -0.69,-3.354 -0.095,-1.608 -0.402,-3.29 -0.683,-3.737 -0.426,-0.678 -0.43,-1.278 -0.021,-3.592 0.778,-4.401 1.121,-5.52 2.31,-7.536 0.613,-1.041 1.115,-1.959 1.115,-2.041 0,-0.3 2.12,-2.356 3.601,-3.493 2.321,-1.781 2.955,-1.753 3.218,0.145 0.12,0.866 0.392,1.802 0.606,2.08 0.213,0.278 0.618,1.101 0.898,1.828 0.281,0.728 0.947,1.862 1.481,2.521 0.534,0.659 1.272,1.63 1.638,2.158 0.388,0.558 1.19,1.058 1.914,1.194 1.301,0.244 3.658,3.928 3.658,5.716 0,1.079 0.741,1.644 2.158,1.644 1.075,0 1.2,0.093 0.892,0.662 -3.576,6.606 -3.104,10.298 1.507,11.772 2.903,0.929 10.187,-2.759 10.187,-5.157 0,-1.276 0.668,-2.362 1.452,-2.362 0.906,0 3.2,-1.734 3.551,-2.684 0.636,-1.719 -4.574,1.154 -6.696,3.693 -1.622,1.94 -1.945,2.011 -2.277,0.5 -0.649,-2.953 -3.002,-2.366 -2.674,0.667 0.267,2.458 0.08,2.895 -1.39,3.255 -2.827,0.692 -3.877,-1.351 -2.14,-4.163 0.629,-1.017 0.798,-1.935 0.827,-4.491 l 0.036,-3.213 -1.961,-1.92 c -1.078,-1.056 -1.96,-2.232 -1.96,-2.613 0,-1.241 -3.927,-4.221 -5.847,-4.437 -1.968,-0.222 -2.525,-1.258 -2.305,-4.293 0.209,-2.881 0.436,-3.214 2.795,-4.096 2.944,-1.101 3.454,-0.852 3.388,1.653 -0.075,2.851 1.481,4.929 3.451,4.609 2.897,-0.47 4.228,-2.643 2.655,-4.331 -0.979,-1.051 -0.86,-1.202 1.254,-1.597 0.908,-0.17 2.823,-1.081 4.271,-2.033 3.411,-2.242 4.235,-2.246 4.963,-0.026 0.306,0.934 0.577,1.134 1.535,1.134 0.824,0 1.406,0.31 2,1.064 0.637,0.81 1.118,1.045 2.019,0.985 6.354,-0.426 10.445,2.071 8.052,4.916 -0.769,0.915 -2.01,4.295 -1.851,5.042 0.133,0.626 6.657,4.061 7.713,4.061 1.615,0 3.007,0.95 2.756,1.882 -0.142,0.525 -0.287,2.145 -0.323,3.6 -0.036,1.456 -0.291,3.299 -0.566,4.097 -0.404,1.167 -0.411,1.773 -0.04,3.099 0.412,1.472 0.376,1.826 -0.338,3.3 -0.44,0.909 -0.805,1.896 -0.812,2.195 -0.049,2.113 -1.938,2.369 -5.47,0.74 -0.927,-0.428 -3.639,-1.309 -5.671,-1.841 -0.831,-0.219 -2.099,-0.273 -2.817,-0.121 l -1.306,0.275 1.495,0.912 c 1.159,0.708 2.173,0.948 4.519,1.069 1.912,0.099 3.127,0.334 3.302,0.64 0.154,0.266 0.845,0.589 1.537,0.719 0.715,0.134 1.9,0.856 2.746,1.673 8.087,7.806 14.699,9.924 35.137,11.253 1.663,0.108 4.47,0.465 6.238,0.793 4.387,0.814 14.041,0.126 20.282,-1.446 1.386,-0.349 1.862,-0.306 3.061,0.278 2.127,1.035 16.42,1.262 20.513,0.326 3.819,-0.873 8.362,-1.126 9.917,-0.552 1.72,0.635 10.257,1.142 11.844,0.703 0.965,-0.266 1.56,-0.209 2.407,0.229 1.682,0.87 4.437,0.773 4.944,-0.174 0.222,-0.416 0.696,-0.773 1.053,-0.794 2.608,-0.152 -2.25,-0.65 -6.635,-0.681 l -5.392,-0.038 -3.322,-3.308 c -3.772,-3.756 -7.592,-6.204 -10.799,-6.922 -2.618,-0.586 -2.534,-0.46 -2.99,-4.478 -0.985,-8.683 0.033,-9.737 3.299,-3.417 1.673,3.235 2.056,3.53 4.177,3.212 1.349,-0.202 1.705,-0.409 1.705,-0.99 0,-1.187 -8.38,-9.194 -11.775,-11.252 -1.199,-0.726 -2.591,-2.277 -2.591,-2.886 0,-0.11 0.808,-0.575 1.795,-1.032 4.089,-1.894 9.767,-7.609 12.326,-12.405 0.388,-0.728 0.97,-1.622 1.293,-1.987 0.651,-0.738 1.245,-1.708 2.255,-3.684 2.186,-4.276 5.157,-9.047 5.704,-9.157 0.788,-0.16 3.787,1.662 6.085,3.698 2.068,1.832 6.286,5.239 10.034,8.106 3.756,2.872 6.254,5.119 6.254,5.624 0,0.233 0.159,0.425 0.353,0.425 0.194,0 0.472,0.382 0.617,0.85 0.146,0.468 0.765,1.486 1.375,2.262 0.611,0.776 1.5,2.143 1.976,3.039 0.476,0.895 1.047,1.962 1.269,2.37 0.222,0.408 0.927,1.91 1.567,3.339 0.99,2.21 1.248,2.527 1.729,2.127 1.28,-1.062 -0.851,-6.635 -3.775,-9.87 -0.731,-0.81 -1.33,-1.694 -1.33,-1.965 0,-0.27 -0.596,-1.069 -1.323,-1.774 -1.895,-1.837 -1.952,-3.996 -0.095,-3.614 0.676,0.138 3.781,0.383 6.9,0.543 3.119,0.159 6.151,0.491 6.737,0.736 0.587,0.245 3.032,0.618 5.433,0.829 2.401,0.21 4.522,0.479 4.713,0.597 0.19,0.118 1.894,0.359 3.786,0.537 4.547,0.426 4.339,0.032 3.75,7.083 -1.03,12.343 -1.12,15.587 -0.526,18.998 0.308,1.767 0.68,3.992 0.828,4.943 0.148,0.952 0.631,2.344 1.074,3.095 1.237,2.097 1.167,2.11 -12.572,2.24 l -12.467,0.119 -3.781,1.863 -3.78,1.864 -6.049,0.275 c -3.328,0.152 -6.177,0.291 -6.333,0.31 -0.156,0.02 0.087,0.406 0.541,0.86 2.183,2.183 11.692,1.622 16.323,-0.964 3.659,-2.042 4.72,-2.16 18.239,-2.025 6.842,0.068 14.566,0.327 17.165,0.575 9.698,0.925 13.355,1.02 21.682,0.561 4.606,-0.253 9.481,-0.651 10.832,-0.883 2.432,-0.419 2.921,-0.384 10.775,0.761 1.04,0.152 4.017,0.923 6.617,1.713 2.599,0.791 5.406,1.601 6.238,1.801 0.832,0.2 2.459,0.6 3.616,0.89 1.158,0.29 2.541,0.527 3.073,0.527 0.533,0 1.614,0.27 2.402,0.599 2.218,0.926 15.177,0.017 18.41,-1.292 0.57,-0.231 2.696,-0.686 4.726,-1.011 2.029,-0.326 5.816,-1.145 8.416,-1.821 9.282,-2.414 24.795,-1.324 22.186,1.558 -2.598,2.871 -0.126,3.859 9.313,3.721 9.341,-0.136 10.555,-0.792 13.123,-7.092 1.666,-4.089 2.153,-4.765 6.773,-9.407 2.587,-2.599 5.782,-6.172 7.099,-7.939 1.317,-1.768 2.645,-3.546 2.952,-3.952 0.307,-0.406 0.557,-0.908 0.557,-1.114 0,-0.206 0.41,-0.809 0.911,-1.341 2.862,-3.037 4.067,-8.372 2.267,-10.04 -1.666,-1.543 -3.332,-1.049 -6.029,1.79 -4.322,4.55 -7.3,6.063 -15.768,8.013 -1.195,0.275 -2.386,0.67 -2.646,0.876 -0.261,0.207 -1.14,0.497 -1.955,0.644 -0.814,0.147 -2.035,0.69 -2.713,1.207 -1.546,1.179 -5.908,2.783 -7.568,2.783 -0.69,0 -1.984,0.232 -2.875,0.516 -2.442,0.777 -11.139,1.453 -12.962,1.006 -0.832,-0.203 -3.469,-0.377 -5.86,-0.385 -2.799,-0.009 -4.887,-0.209 -5.86,-0.559 -0.832,-0.3 -2.788,-0.555 -4.348,-0.567 -1.56,-0.013 -3.856,-0.257 -5.104,-0.543 -1.248,-0.286 -3.289,-0.639 -4.537,-0.783 -1.247,-0.145 -3.289,-0.501 -4.537,-0.792 -1.247,-0.291 -4.256,-0.531 -6.686,-0.534 -2.43,-0.003 -4.897,-0.196 -5.482,-0.429 -0.585,-0.232 -2.554,-0.567 -4.374,-0.743 -1.821,-0.177 -3.648,-0.502 -4.06,-0.723 -0.737,-0.394 -5.159,-1.353 -8.131,-1.764 l -1.512,-0.208 1.456,1 c 0.801,0.55 2.332,1.239 3.403,1.53 1.07,0.291 2.54,0.709 3.267,0.93 0.726,0.221 1.923,0.401 2.659,0.401 0.737,0 2.307,0.34 3.49,0.756 1.315,0.462 3.121,0.756 4.644,0.756 1.37,0 2.863,0.199 3.317,0.443 0.794,0.425 3.682,0.838 13.869,1.983 2.6,0.292 5.322,0.734 6.05,0.981 5.048,1.714 30.279,1.601 35.113,-0.158 0.91,-0.331 2.016,-0.605 2.458,-0.608 0.441,-0.003 1.228,-0.251 1.748,-0.551 0.52,-0.299 1.371,-0.734 1.89,-0.965 0.52,-0.232 1.966,-0.885 3.214,-1.453 2.791,-1.27 5.905,-2.318 6.884,-2.318 1.056,0 6.178,-1.794 6.885,-2.411 0.329,-0.287 1.865,-1.233 3.414,-2.103 1.549,-0.87 3.037,-1.897 3.306,-2.282 0.27,-0.384 1.169,-1.237 1.999,-1.894 3.498,-2.771 4.096,0.663 0.741,4.264 -0.415,0.446 -1.252,1.691 -1.86,2.768 -0.607,1.077 -1.666,2.349 -2.352,2.827 -8.087,5.634 -12.023,9.903 -12.023,13.04 0,1.084 -0.375,2.086 -1.339,3.573 -0.737,1.137 -1.868,3.135 -2.515,4.441 -2.712,5.478 -4.745,5.811 -12.479,2.044 -2.641,-1.286 -5.129,-2.339 -5.529,-2.339 -0.4,0 -1.45,-0.255 -2.334,-0.567 -5.33,-1.881 -21.547,-0.435 -30.348,2.705 -0.784,0.28 -2.23,0.512 -3.214,0.515 -0.983,0.004 -2.979,0.264 -4.434,0.578 -5.485,1.184 -14.814,1.086 -19.849,-0.207 -2.837,-0.729 -5.731,-1.514 -8.318,-2.257 -9.075,-2.604 -18.324,-3.422 -26.209,-2.316 -6.461,0.906 -25.329,0.146 -28.687,-1.156 -1.222,-0.474 -1.703,-1.185 -3.163,-4.667 l -1.109,-2.647 0.082,-12.476 c 0.091,-13.721 0.118,-14.01 1.324,-14.393 1.32,-0.419 3.631,-0.311 4.245,0.198 0.307,0.255 1.629,0.557 2.936,0.67 1.307,0.113 2.836,0.438 3.398,0.722 0.561,0.283 1.412,0.521 1.89,0.528 0.478,0.007 1.55,0.342 2.382,0.744 0.832,0.401 2.167,0.736 2.967,0.743 0.801,0.007 1.992,0.252 2.647,0.545 0.655,0.293 2.535,0.622 4.178,0.731 1.643,0.11 3.093,0.371 3.222,0.58 0.13,0.21 1.297,0.552 2.593,0.761 1.296,0.208 2.523,0.482 2.726,0.607 0.203,0.126 1.605,0.454 3.116,0.729 3.438,0.627 6.141,1.3 7.852,1.956 3.514,1.347 6.018,1.029 3.438,-0.436 -2.696,-1.532 -10.298,-3.521 -23.098,-6.045 -3.847,-0.758 -7.568,-1.617 -8.269,-1.909 -0.702,-0.292 -1.942,-0.531 -2.756,-0.531 -0.815,0 -2.149,-0.34 -2.964,-0.756 -0.815,-0.416 -1.872,-0.762 -2.348,-0.768 -1.103,-0.016 -4.469,-1.174 -5.64,-1.94 -1.958,-1.282 -5.24,-1.857 -12.407,-2.177 -3.922,-0.175 -7.317,-0.433 -7.545,-0.574 -0.227,-0.14 -3.313,-0.332 -6.858,-0.425 -4.686,-0.122 -6.827,-0.33 -7.846,-0.761 -0.771,-0.325 -2.633,-0.647 -4.138,-0.714 -2.628,-0.118 -2.83,-0.196 -5.058,-1.959 -5.034,-3.98 -6.241,-4.915 -7.445,-5.763 -0.688,-0.484 -1.789,-1.373 -2.447,-1.974 -0.658,-0.601 -1.324,-1.092 -1.48,-1.092 -0.157,0 -1.437,-0.987 -2.846,-2.192 -4.106,-3.513 -5.95,-4.349 -6.747,-3.058 -0.588,0.951 -4.611,-0.45 -11.592,-4.039 -0.984,-0.506 -2.05,-0.919 -2.368,-0.919 -0.319,0 -0.875,-0.164 -1.236,-0.363 -0.361,-0.2 -1.812,-0.923 -3.224,-1.607 -4.72,-2.287 -4.427,-2.013 -4.427,-4.136 0,-1.134 -0.268,-2.363 -0.662,-3.034 -0.751,-1.282 0.219,-2.579 1.933,-2.582 1.295,-0.003 4.922,-1.627 6.52,-2.92 5.99,-4.844 16.346,-12.569 16.859,-12.576 0.146,-0.002 1.029,-0.519 1.963,-1.15 0.934,-0.63 2.219,-1.327 2.855,-1.549 0.636,-0.222 1.156,-0.557 1.156,-0.744 0,-0.188 0.298,-0.342 0.661,-0.344 0.364,-0.001 1.172,-0.27 1.796,-0.597 1.165,-0.612 2.095,-0.966 6.995,-2.66 3.618,-1.251 9.341,-1.476 11.153,-0.438 4.576,2.621 11.824,1.476 11.898,-1.88 0.006,-0.261 0.351,-1.109 0.767,-1.885 0.416,-0.776 0.756,-1.887 0.756,-2.469 0,-0.583 0.239,-1.436 0.531,-1.896 0.292,-0.461 0.649,-1.603 0.793,-2.539 0.417,-2.705 1.284,-5.205 3.215,-9.263 0.989,-2.079 1.927,-4.206 2.085,-4.726 0.157,-0.519 0.56,-1.308 0.895,-1.752 0.336,-0.444 0.865,-1.196 1.177,-1.671 0.312,-0.476 1.61,-2.017 2.884,-3.426 1.549,-1.713 2.4,-3.004 2.568,-3.896 0.137,-0.734 0.753,-2.292 1.369,-3.462 2.273,-4.322 -0.046,-6.254 -5.109,-4.255 m -1.272,5.74 c -0.083,0.931 0.083,1.67 0.472,2.099 0.551,0.61 0.527,0.731 -0.307,1.514 -0.561,0.527 -1.001,1.485 -1.156,2.514 -0.137,0.915 -0.39,1.75 -0.563,1.857 -0.173,0.107 -0.431,0.664 -0.573,1.238 -0.142,0.573 -1.13,2.234 -2.196,3.689 -2.197,3 -4.748,9.054 -5.186,12.307 -0.156,1.155 -0.461,2.431 -0.679,2.836 -0.218,0.405 -0.772,1.927 -1.232,3.383 -1.347,4.266 -1.62,4.641 -3.603,4.939 -2.077,0.311 -4.762,-0.01 -6.148,-0.735 -3.329,-1.744 -10.634,-1.786 -13.485,-0.077 -0.415,0.249 -1.479,0.663 -2.363,0.919 -0.883,0.256 -1.606,0.63 -1.606,0.829 0,0.2 -0.413,0.363 -0.918,0.363 -0.505,0 -1.151,0.233 -1.436,0.517 -0.284,0.285 -0.935,0.645 -1.445,0.801 -0.51,0.156 -1.183,0.507 -1.495,0.78 -0.312,0.273 -0.993,0.678 -1.512,0.899 -0.52,0.222 -1.2,0.559 -1.512,0.749 -7.597,4.619 -9.707,5.961 -10.289,6.543 -0.386,0.386 -1.629,1.295 -2.763,2.02 -1.134,0.726 -3.062,2.212 -4.285,3.303 -1.223,1.091 -3.224,2.464 -4.447,3.051 -1.223,0.588 -2.675,1.307 -3.227,1.6 -0.552,0.292 -1.658,0.539 -2.457,0.548 -0.8,0.009 -2.135,0.261 -2.967,0.561 -1.652,0.595 -5.86,0.757 -5.86,0.225 0,-0.438 -3.193,-1.794 -5.104,-2.168 -1.93,-0.377 -2.729,-0.258 -4.275,0.639 -2.123,1.233 -4.071,0.989 -4.827,-0.604 -1.825,-3.846 -8.37,-7.041 -9.624,-4.697 -0.492,0.92 -0.165,2.763 0.603,3.401 0.299,0.247 0.543,0.705 0.543,1.016 0,0.311 0.577,1.524 1.281,2.695 0.705,1.171 1.402,2.724 1.55,3.452 0.147,0.728 0.506,1.7 0.798,2.161 0.291,0.46 0.53,1.702 0.53,2.759 0,1.565 0.256,2.322 1.378,4.076 1.342,2.097 2.766,6.645 2.776,8.86 0.002,0.568 0.272,1.7 0.598,2.516 0.71,1.773 0.594,3.967 -0.215,4.102 -1.134,0.191 -13.611,-14.209 -13.611,-15.708 0,-0.196 -0.248,-0.561 -0.55,-0.812 -0.303,-0.251 -1.361,-1.846 -2.352,-3.544 -0.991,-1.698 -2.19,-3.664 -2.664,-4.368 -2.921,-4.347 -0.031,-11.62 6.327,-15.921 0.462,-0.312 1.202,-0.842 1.646,-1.177 0.443,-0.335 1.174,-0.725 1.623,-0.865 0.449,-0.141 1.023,-0.504 1.275,-0.808 0.252,-0.304 0.829,-0.553 1.282,-0.553 0.453,0 1.036,-0.212 1.295,-0.472 0.464,-0.465 3.723,-1.44 7.41,-2.219 1.028,-0.217 2.215,-0.636 2.636,-0.931 0.421,-0.295 1.074,-0.537 1.451,-0.537 0.377,0 1.062,-0.238 1.523,-0.53 0.46,-0.292 1.544,-0.645 2.409,-0.784 0.865,-0.139 1.885,-0.49 2.268,-0.78 0.384,-0.291 1.207,-0.534 1.831,-0.542 0.624,-0.008 1.591,-0.253 2.149,-0.544 0.557,-0.291 1.578,-0.647 2.268,-0.791 0.69,-0.144 1.595,-0.476 2.01,-0.737 0.416,-0.262 1.723,-0.596 2.904,-0.743 1.181,-0.147 2.35,-0.512 2.598,-0.811 0.252,-0.303 1.106,-0.543 1.936,-0.543 0.816,0 1.984,-0.258 2.594,-0.573 0.609,-0.316 1.92,-0.676 2.911,-0.802 0.991,-0.125 2.142,-0.436 2.558,-0.691 0.416,-0.254 1.714,-0.56 2.884,-0.679 1.17,-0.118 2.446,-0.387 2.836,-0.597 0.769,-0.416 3.597,-1.373 6.001,-2.033 0.831,-0.228 1.847,-0.643 2.258,-0.922 0.41,-0.28 1.012,-0.508 1.337,-0.508 0.326,0 1.215,-0.317 1.975,-0.705 0.76,-0.387 1.911,-0.81 2.557,-0.939 1.517,-0.304 5.579,-2.349 10.496,-5.286 2.148,-1.283 4.616,-2.728 5.483,-3.212 0.868,-0.483 2.349,-1.434 3.291,-2.112 0.943,-0.679 2.65,-1.778 3.793,-2.442 2.572,-1.494 3.032,-1.768 5.861,-3.494 1.247,-0.761 2.468,-1.446 2.713,-1.521 0.418,-0.13 1.287,-0.903 6.645,-5.911 2.587,-2.418 3.562,-2.515 3.369,-0.333 m -22.568,26.874 c -0.826,0.682 -2.132,1.355 -2.903,1.497 -0.771,0.142 -1.877,0.506 -2.458,0.809 -0.58,0.303 -1.812,0.552 -2.736,0.553 -1.736,0.003 -4.769,1.623 -4.34,2.318 0.321,0.519 2.163,0.365 2.974,-0.248 0.403,-0.305 1.342,-0.555 2.085,-0.555 0.743,0 1.986,-0.34 2.762,-0.756 0.776,-0.416 1.727,-0.756 2.114,-0.756 0.821,0 4.017,-2.344 4.339,-3.183 0.405,-1.056 -0.323,-0.929 -1.837,0.321 m -8.023,9.178 c -0.468,0.09 -1.234,0.09 -1.702,0 -0.467,-0.091 -0.085,-0.164 0.851,-0.164 0.936,0 1.319,0.073 0.851,0.164 m -111.059,4.465 c -0.208,0.064 -0.846,0.22 -1.418,0.346 -2.638,0.582 0.377,2.758 3.167,2.286 2.22,-0.375 1.941,-2.041 -0.426,-2.547 -0.519,-0.111 -1.115,-0.149 -1.323,-0.085 m 74.102,0.752 c -0.832,0.305 -2.533,0.562 -3.781,0.572 -1.434,0.012 -2.824,0.287 -3.78,0.749 -0.832,0.402 -1.741,0.736 -2.02,0.743 -0.279,0.007 -0.94,0.353 -1.469,0.769 -0.528,0.416 -1.182,0.756 -1.451,0.756 -0.449,0 -2.055,1.893 -2.055,2.422 0,0.369 1.828,0.255 2.065,-0.129 0.385,-0.623 4.278,-2.292 5.379,-2.306 0.585,-0.007 1.488,-0.256 2.008,-0.554 0.52,-0.297 1.923,-0.546 3.118,-0.553 1.195,-0.008 3.151,-0.343 4.348,-0.744 1.196,-0.402 2.515,-0.787 2.931,-0.856 0.416,-0.069 0.756,-0.378 0.756,-0.687 0,-0.788 -4.058,-0.91 -6.049,-0.182 m -81.264,0.561 c -1.857,0.357 -3.602,2.226 -2.602,2.786 0.409,0.228 0.955,0.137 1.654,-0.275 0.574,-0.339 1.538,-0.617 2.142,-0.617 1.618,0 2.686,-0.872 2.032,-1.66 -0.541,-0.652 -0.913,-0.679 -3.226,-0.234 m 11.321,0.76 c -0.507,0.218 -0.57,0.335 -0.189,0.355 0.312,0.017 1.418,0.448 2.457,0.96 3.132,1.541 5.025,1.031 2.548,-0.685 -1.488,-1.031 -3.324,-1.271 -4.816,-0.63 m -19.432,3.605 c -1.034,1.178 -1.653,3.099 -0.889,2.759 1.341,-0.596 5.009,-3.248 5.009,-3.622 0,-1.139 -2.894,-0.533 -4.12,0.863 m 26.673,-1.079 c -0.324,0.324 1.622,2.389 2.252,2.389 2.813,0 3.529,3.798 0.809,4.292 -1.839,0.334 -2.442,1.194 -1.134,1.616 3.099,1.001 4.369,2.572 4.18,5.172 l -0.116,1.585 -2.149,-0.124 c -2.325,-0.136 -4.516,0.811 -6.32,2.731 -1.884,2.006 0.13,3.324 2.416,1.581 0.702,-0.536 1.693,-0.974 2.201,-0.974 1.21,0 3.663,-1.033 3.663,-1.543 0,-0.219 0.317,-0.298 0.703,-0.175 1.264,0.401 1.465,-0.555 1.406,-6.684 l -0.057,-5.944 -1.498,-1.366 c -2.203,-2.008 -5.556,-3.356 -6.356,-2.556 m -29.593,5.431 c -0.889,0.333 -1.526,2.154 -0.953,2.726 0.486,0.487 1.075,0.084 1.73,-1.183 0.659,-1.275 0.318,-1.953 -0.777,-1.543 m 56.525,3.543 c 1.374,1.013 2.765,2.747 3.82,4.757 1.718,3.277 2.643,3.568 6.163,1.937 3.996,-1.852 5.407,-1.763 8.849,0.554 0.765,0.515 1.565,0.746 2.174,0.63 0.603,-0.115 0.965,-0.013 0.965,0.272 0,0.251 0.574,1.127 1.275,1.947 2.445,2.856 2.169,4.777 -1.168,8.124 -4.121,4.133 -4.677,5.974 -3.361,11.126 0.291,1.135 0.647,2.83 0.793,3.766 0.146,0.935 0.478,2.041 0.738,2.457 0.26,0.416 0.593,1.677 0.741,2.802 0.147,1.125 0.513,2.396 0.814,2.825 0.3,0.429 0.546,1.26 0.546,1.848 0,0.588 0.233,1.529 0.518,2.09 0.285,0.562 0.635,1.83 0.779,2.819 0.144,0.989 0.505,2.265 0.803,2.835 0.299,0.574 0.543,2.089 0.544,3.388 0.001,1.292 0.239,3.079 0.528,3.97 0.289,0.891 0.624,3.029 0.745,4.752 0.121,1.723 0.468,3.935 0.772,4.915 3.731,12.052 2.993,13.341 -8.281,14.459 -3.378,0.334 -8.403,1.137 -12.765,2.038 -4.063,0.839 -10.9,0.774 -15.999,-0.153 -2.271,-0.413 -5.319,-0.756 -6.775,-0.764 -1.455,-0.007 -3.752,-0.185 -5.104,-0.395 -1.351,-0.21 -3.903,-0.539 -5.671,-0.73 -11.241,-1.216 -15.088,-3.913 -15.114,-10.593 -0.04,-10.366 6.442,-15.716 15.825,-13.062 1.951,0.552 5.694,1.328 8.318,1.724 12.483,1.888 13.915,2.182 17.436,3.576 2.464,0.976 8.855,4.488 9.729,5.346 1.584,1.557 2.391,-0.329 0.911,-2.129 -1.607,-1.955 -1.871,-8.277 -0.419,-10.026 0.192,-0.232 0.518,-1.599 0.724,-3.039 0.206,-1.439 0.55,-3.533 0.764,-4.653 0.503,-2.631 0.495,-5.013 -0.021,-6.351 -0.226,-0.586 -0.485,-2.681 -0.575,-4.656 -0.091,-1.976 -0.402,-4.358 -0.691,-5.293 -0.289,-0.936 -0.629,-2.808 -0.754,-4.159 -0.126,-1.352 -0.473,-3.138 -0.773,-3.97 -0.299,-0.832 -0.552,-2.071 -0.561,-2.754 -0.017,-1.305 -1.148,-3.801 -2.851,-6.293 -0.686,-1.003 -1.079,-2.167 -1.214,-3.591 -0.109,-1.159 -0.434,-2.484 -0.721,-2.944 -0.288,-0.461 -0.523,-1.208 -0.523,-1.66 0,-1.179 -1.475,-4.072 -2.92,-5.727 -1.209,-1.385 -1.497,-2.167 -0.987,-2.677 0.398,-0.398 0.654,-0.312 1.974,0.662 m -30.298,0.254 c -0.921,1.005 -0.826,1.405 0.284,1.193 0.52,-0.099 0.945,-0.416 0.945,-0.704 0,-0.287 0.013,-0.646 0.028,-0.797 0.058,-0.557 -0.615,-0.393 -1.257,0.308 m -28.922,1.493 c -0.53,0.654 -0.851,1.563 -0.851,2.408 0,1.859 0.886,1.773 1.66,-0.162 1.107,-2.767 0.647,-4.044 -0.809,-2.246 m 24.563,2.732 c -1.031,1.098 -0.599,2.093 0.625,1.438 0.442,-0.237 0.804,-0.581 0.804,-0.764 0,-0.184 0.103,-0.603 0.23,-0.932 0.347,-0.904 -0.723,-0.737 -1.659,0.258 m -49.022,1.875 c -0.324,0.462 -0.589,1.015 -0.59,1.228 0,0.214 -1.095,1.58 -2.432,3.035 -2.374,2.584 -5.404,7.883 -6.054,10.586 -1.225,5.092 -1.347,8.885 -0.286,8.885 0.15,0 0.685,-1.148 1.188,-2.552 3.17,-8.844 8.351,-15.183 10.684,-13.071 1.192,1.079 3.158,-0.911 5.072,-5.134 0.779,-1.719 -0.396,-3.023 -3.131,-3.472 -3.037,-0.5 -3.815,-0.413 -4.451,0.495 m 111.38,1.617 c 0.094,1.186 -0.009,1.701 -0.34,1.701 -0.274,0 -0.475,-0.471 -0.475,-1.112 0,-0.611 -0.171,-1.217 -0.379,-1.345 -0.626,-0.388 -0.425,-0.946 0.34,-0.946 0.579,0 0.745,0.33 0.854,1.702 M 29.278,182.222 c 1.259,0.479 1.221,0.944 -0.274,3.428 l -1.241,2.063 -2.007,-0.125 -2.007,-0.125 -2.682,2.682 c -4.619,4.619 -4.165,1.056 0.503,-3.945 1.164,-1.247 2.511,-2.839 2.993,-3.536 0.929,-1.345 2.06,-1.451 4.715,-0.442 m 54.465,0.387 c 0.14,0.227 -0.341,0.375 -1.207,0.372 -1.069,-0.004 -1.293,-0.1 -0.872,-0.372 0.739,-0.478 1.784,-0.478 2.079,0 m -37.03,0.84 c -0.781,1.115 -0.743,2.287 0.107,3.337 0.952,1.176 1.573,0.649 1.573,-1.333 0,-2.829 -0.6,-3.545 -1.68,-2.004 m 40.304,0.007 c -0.706,0.706 -0.521,2.741 0.318,3.501 0.415,0.376 0.756,0.835 0.756,1.02 0,0.184 0.68,1.237 1.512,2.338 2,2.649 2.052,4.099 0.189,5.198 -1.995,1.177 -0.665,2.764 1.492,1.781 1.373,-0.626 2.719,-4.428 1.773,-5.012 -0.691,-0.428 -3.772,-5.412 -4.409,-7.134 -0.76,-2.052 -1.011,-2.313 -1.631,-1.692 m -16.466,0.885 c -0.54,1.408 -0.254,3.183 0.513,3.183 0.905,0 1.526,-1.066 1.526,-2.622 0,-1.296 -1.589,-1.734 -2.039,-0.561 m 65.186,3.921 c -0.228,0.426 -0.653,0.774 -0.946,0.774 -0.293,0 -0.775,0.346 -1.071,0.769 -0.525,0.749 -0.545,0.74 -0.757,-0.322 -0.341,-1.706 0.056,-2.832 0.753,-2.135 1.079,1.079 2.006,0.692 2.072,-0.864 0.059,-1.371 0.066,-1.378 0.212,-0.207 0.083,0.667 -0.035,1.56 -0.263,1.985 m -52.744,-1.883 c -0.125,0.203 -0.825,0.652 -1.555,0.998 -2.287,1.085 -1.736,2.604 0.945,2.604 2.144,0 3.909,-1.821 3.301,-3.406 -0.241,-0.629 -2.329,-0.781 -2.691,-0.196 m 0.561,1.901 c 0,0.208 -0.468,0.375 -1.04,0.372 -0.81,-0.004 -0.914,-0.087 -0.472,-0.372 0.739,-0.478 1.512,-0.478 1.512,0 m -15.71,1.167 c -0.418,0.675 0.331,1.048 1.334,0.664 0.763,-0.292 0.833,-0.423 0.378,-0.711 -0.746,-0.472 -1.403,-0.454 -1.712,0.047 m -21.089,0.219 c -0.589,0.589 0.148,3.907 0.867,3.907 0.537,0 1.149,-0.96 1.149,-1.802 0,-1.702 -1.183,-2.938 -2.016,-2.105 m 91.344,1.638 c 0.529,0.416 1.19,0.762 1.469,0.769 0.279,0.006 0.838,0.261 1.242,0.567 0.403,0.305 1.015,0.555 1.359,0.555 0.344,0 0.933,0.34 1.309,0.756 0.377,0.416 0.956,0.757 1.288,0.758 0.331,0.002 1.039,0.231 1.573,0.509 0.534,0.279 1.421,0.619 1.971,0.758 0.55,0.138 2.014,0.844 3.252,1.57 1.238,0.726 2.377,1.32 2.529,1.32 0.668,0 4.187,1.903 4.742,2.564 0.626,0.746 -0.761,4.275 -3.077,7.833 -0.406,0.624 -0.85,1.389 -0.986,1.701 -1.467,3.351 -2.124,4.538 -3.125,5.645 -0.645,0.713 -1.172,1.408 -1.172,1.543 0,0.662 -6.566,6.729 -8.177,7.557 -1.012,0.52 -2.475,1.328 -3.252,1.796 -0.776,0.468 -1.601,0.85 -1.833,0.85 -1.695,0 -4.508,-4.252 -4.508,-6.817 0,-0.694 -0.322,-1.953 -0.717,-2.799 -0.394,-0.845 -0.802,-1.962 -0.907,-2.482 -0.104,-0.52 -0.363,-1.455 -0.576,-2.079 -1.099,-3.228 -1.959,-7.211 -1.959,-9.078 0,-1.155 -0.255,-2.71 -0.567,-3.457 -0.852,-2.04 -0.348,-4.581 1.093,-5.504 1.495,-0.958 2.035,-1.4 3.316,-2.713 0.788,-0.808 1.534,-1.787 1.657,-2.174 0.313,-0.985 2.778,-0.953 4.056,0.052 m -80.006,0.807 c -1.902,1.105 -2.079,5.454 -0.298,7.352 0.547,0.584 1.506,1.834 2.131,2.778 0.882,1.334 1.43,1.769 2.457,1.954 1.698,0.305 3.26,0.941 3.578,1.455 0.478,0.773 2.534,1.62 2.943,1.212 1.056,-1.056 -2.296,-5.122 -4.6,-5.579 -2.511,-0.499 -6.558,-4.036 -6.197,-5.417 0.226,-0.865 1.996,-1.41 2.409,-0.741 0.402,0.651 5.205,0.731 6.451,0.107 2.157,-1.079 1.52,-2.408 -1.164,-2.429 -0.946,-0.007 -2.145,-0.256 -2.665,-0.553 -1.113,-0.637 -4.05,-0.718 -5.045,-0.139 m -9.605,2.874 c -0.834,0.288 -0.507,1.808 0.737,3.428 1.182,1.537 1.796,1.562 1.807,0.075 0.007,-0.894 -2.02,-3.683 -2.544,-3.503 m 15.406,4.637 c 0,0.487 0.192,0.755 0.473,0.662 0.26,-0.087 0.472,-0.385 0.472,-0.662 0,-0.277 -0.212,-0.575 -0.472,-0.662 -0.281,-0.093 -0.473,0.175 -0.473,0.662 m 24.789,0.125 -1.108,0.897 1.379,1.379 c 2.015,2.015 3.093,1.422 2.845,-1.566 -0.148,-1.776 -1.436,-2.069 -3.116,-0.71 m 73.673,-0.544 c 0.53,0.856 -1.63,1.599 -2.403,0.826 -0.67,-0.67 -0.679,-0.754 -0.1,-0.907 1.141,-0.301 2.29,-0.264 2.503,0.081 m -111.423,2.404 c -0.385,1.074 1.647,3.418 2.635,3.039 0.844,-0.324 0.556,-1.898 -0.5,-2.728 -1.132,-0.891 -1.887,-1.001 -2.135,-0.311 m 5.022,5.87 c 0,1.305 0.959,2.731 1.836,2.731 1.739,0 2.21,-2.61 0.603,-3.342 -1.671,-0.761 -2.439,-0.569 -2.439,0.611 m 34.404,0.071 c 0,0.834 0.276,0.942 1.091,0.426 0.418,-0.265 0.361,-0.418 -0.284,-0.763 -0.701,-0.376 -0.807,-0.331 -0.807,0.337 m -3.781,2.873 c -0.727,0.275 -1.673,0.51 -2.101,0.522 -2.393,0.065 -2.473,1.869 -0.135,3.062 1.875,0.957 2.534,0.934 2.683,-0.092 0.096,-0.661 0.504,-0.914 1.98,-1.229 2.216,-0.473 2.497,-0.983 1.132,-2.057 -1.138,-0.895 -1.659,-0.925 -3.559,-0.206 m -10.68,0.449 c -0.645,2.843 3.648,4.508 5.134,1.991 0.786,-1.329 0.517,-1.551 -2.695,-2.23 -2.481,-0.524 -2.261,-0.545 -2.439,0.239 m 39.792,1.062 c 0,0.299 -0.17,0.544 -0.378,0.544 -0.208,0 -0.378,-0.35 -0.378,-0.778 0,-0.428 0.17,-0.673 0.378,-0.545 0.208,0.129 0.378,0.479 0.378,0.779 m -57.42,0.457 c -0.602,1.124 -0.109,2.356 0.942,2.356 1.125,0 1.206,-1.046 0.173,-2.237 -0.705,-0.813 -0.742,-0.817 -1.115,-0.119 m -20.841,0.844 c 0,0.207 0.425,0.378 0.945,0.378 0.52,0 0.945,-0.171 0.945,-0.378 0,-0.208 -0.425,-0.379 -0.945,-0.379 -0.52,0 -0.945,0.171 -0.945,0.379 m 57.467,3.384 c -0.948,0.242 -1.359,1.375 -0.473,1.304 0.26,-0.021 0.813,-0.064 1.229,-0.095 0.416,-0.031 0.756,-0.302 0.756,-0.601 0,-0.738 -0.389,-0.894 -1.512,-0.608 m -35.331,0.365 c -0.482,0.781 0.171,2.479 1.126,2.926 0.859,0.401 0.935,0.361 0.935,-0.489 0,-1.111 -1.664,-3.078 -2.061,-2.437 m 163.025,2.016 c -0.234,0.704 -1.146,0.758 -1.992,0.118 -0.708,-0.535 -0.669,-0.567 0.7,-0.578 0.995,-0.009 1.4,0.136 1.292,0.46 m -133.46,0.345 c -2.043,0.746 -1.168,2.012 0.981,1.419 1.472,-0.407 1.653,-0.68 0.929,-1.405 -0.521,-0.521 -0.523,-0.521 -1.91,-0.014 m -5.875,2.712 c -1.728,0.905 -1.744,1.385 -0.047,1.385 1.384,0 2.236,-0.353 2.236,-0.927 0,-0.258 0.383,-0.654 0.851,-0.88 0.815,-0.393 0.804,-0.41 -0.284,-0.418 -0.623,-0.005 -1.864,0.373 -2.756,0.84 m -22.22,0.29 c -0.263,0.424 0.157,1.852 0.544,1.852 0.603,0 1.661,-1.041 1.434,-1.41 -0.339,-0.548 -1.722,-0.857 -1.978,-0.442 m 13.217,4.309 c -0.679,0.515 -0.662,0.544 0.323,0.555 0.572,0.007 1.039,-0.148 1.039,-0.344 0,-0.658 -0.639,-0.758 -1.362,-0.211 m 65.191,6.384 c 1.838,0.958 2.13,2.005 2.385,8.55 0.269,6.896 0.224,7.064 -1.979,7.421 l -1.308,0.212 -0.84,-2.794 c -0.461,-1.537 -0.839,-3.43 -0.839,-4.207 0,-0.777 -0.25,-2.01 -0.555,-2.74 -0.613,-1.468 -1.2,-7.677 -0.82,-8.669 0.206,-0.537 0.464,-0.446 1.778,0.632 0.845,0.693 1.825,1.411 2.178,1.595 m -74.415,-0.596 c 0,0.168 -0.249,0.636 -0.555,1.04 -0.531,0.703 -0.555,0.69 -0.567,-0.306 -0.008,-0.678 0.186,-1.04 0.555,-1.04 0.312,0 0.567,0.138 0.567,0.306 m 207.562,0.072 c 0.312,0.202 0.907,0.367 1.323,0.367 0.626,0 0.659,-0.063 0.189,-0.367 -0.312,-0.201 -0.907,-0.366 -1.323,-0.366 -0.626,0 -0.659,0.063 -0.189,0.366 m -138.103,4.059 c -0.087,0.575 -0.161,0.194 -0.163,-0.845 -0.003,-1.04 0.068,-1.51 0.158,-1.045 0.089,0.465 0.092,1.316 0.005,1.89 m 8.796,-0.94 c -0.003,0.468 -0.17,1.106 -0.372,1.418 -0.272,0.422 -0.368,0.204 -0.372,-0.851 -0.003,-0.779 0.164,-1.417 0.372,-1.417 0.208,0 0.376,0.382 0.372,0.85 m -7.222,7.94 c -0.036,1.606 -0.093,1.768 -0.297,0.85 -0.239,-1.073 -0.117,-2.835 0.197,-2.835 0.08,0 0.125,0.893 0.1,1.985 m -95.956,1.64 c -0.997,0.839 -1.669,2.802 -0.96,2.802 0.662,0 3.238,-1.634 3.578,-2.27 0.222,-0.415 0.781,-0.775 1.241,-0.799 0.662,-0.036 0.599,-0.105 -0.297,-0.334 -1.915,-0.487 -2.358,-0.412 -3.562,0.601 m -26.763,3.615 c 0.876,0.448 2.017,0.928 2.537,1.067 2.533,0.68 -0.382,2.436 -3.398,2.047 -0.933,-0.121 -2.188,-0.474 -2.79,-0.785 l -1.094,-0.566 1.467,-1.281 c 1.749,-1.527 1.348,-1.468 3.278,-0.482 m 120.439,1.564 c -0.245,0.46 -0.661,1.007 -0.924,1.215 -0.798,0.629 -0.804,1.846 -0.01,2.008 1.4,0.287 2.503,-0.692 2.503,-2.221 0,-1.69 -0.897,-2.263 -1.569,-1.002 m 217.826,-0.613 c -2.405,0.379 -2.647,0.512 -2.647,1.457 0,1.28 3.185,1.368 5.168,0.142 2.124,-1.312 0.838,-2.128 -2.521,-1.599 m 1.428,11.814 c 3.256,1.658 3.59,2.516 1.096,2.816 -3.464,0.416 -5.032,0.287 -5.979,-0.493 l -0.893,-0.734 1.211,-1.119 c 1.017,-0.939 1.635,-1.354 2.297,-1.542 0.058,-0.016 1.079,0.466 2.268,1.072"
       inkscape:connector-curvature="0"
       style="fill:#ffffff;fill-rule:evenodd;stroke:none" />
    <path
       id="path2"
       d="m 178.355,156.789 c 0.468,0.09 1.234,0.09 1.702,0 0.468,-0.091 0.085,-0.164 -0.851,-0.164 -0.936,0 -1.318,0.073 -0.851,0.164 m -44.896,24.663 c 0,0.196 0.17,0.461 0.378,0.59 0.208,0.128 0.379,0.734 0.379,1.345 0,0.641 0.201,1.112 0.475,1.112 0.331,0 0.434,-0.515 0.34,-1.701 -0.121,-1.517 -1.572,-2.759 -1.572,-1.346 m -108.896,1.212 c -0.482,0.697 -1.829,2.289 -2.993,3.536 -4.668,5.001 -5.122,8.564 -0.503,3.945 l 2.682,-2.682 2.007,0.125 2.007,0.125 1.241,-2.063 c 1.811,-3.009 1.588,-3.431 -2.129,-4.025 -1.315,-0.211 -1.51,-0.123 -2.312,1.039 m 57.101,-0.055 c -0.421,0.272 -0.197,0.368 0.872,0.372 0.866,0.003 1.347,-0.145 1.207,-0.372 -0.295,-0.478 -1.34,-0.478 -2.079,0 m 54.124,3.875 c -0.066,1.556 -0.993,1.943 -2.072,0.864 -0.697,-0.697 -1.094,0.429 -0.753,2.135 0.212,1.062 0.232,1.071 0.757,0.322 0.296,-0.423 0.778,-0.769 1.071,-0.769 0.781,0 1.382,-1.371 1.209,-2.759 -0.146,-1.171 -0.153,-1.164 -0.212,0.207 m -53.746,1.796 c -0.442,0.285 -0.338,0.368 0.472,0.372 0.572,0.003 1.04,-0.164 1.04,-0.372 0,-0.478 -0.773,-0.478 -1.512,0 m 77.811,10.842 c -0.579,0.153 -0.57,0.237 0.1,0.907 0.692,0.691 0.797,0.699 1.675,0.124 1.502,-0.984 0.423,-1.611 -1.775,-1.031 m -44.919,12.576 c 0,0.428 0.17,0.778 0.378,0.778 0.208,0 0.378,-0.245 0.378,-0.544 0,-0.3 -0.17,-0.65 -0.378,-0.779 -0.208,-0.128 -0.378,0.117 -0.378,0.545 m 105.664,7.418 c 0.846,0.64 1.758,0.586 1.992,-0.118 0.108,-0.324 -0.297,-0.469 -1.292,-0.46 -1.369,0.011 -1.408,0.043 -0.7,0.578 m -156.692,14.06 c 0.012,0.996 0.036,1.009 0.567,0.306 0.708,-0.936 0.704,-1.346 -0.012,-1.346 -0.369,0 -0.563,0.362 -0.555,1.04 m 70.418,2.552 c 0.002,1.039 0.076,1.42 0.163,0.845 0.087,-0.574 0.084,-1.425 -0.005,-1.89 -0.09,-0.465 -0.161,0.005 -0.158,1.045 m 8.215,0.472 c 0.004,1.055 0.1,1.273 0.372,0.851 0.482,-0.745 0.482,-2.268 0,-2.268 -0.208,0 -0.375,0.638 -0.372,1.417 m -6.875,6.239 c -0.084,0.467 -0.039,1.361 0.1,1.984 0.204,0.918 0.261,0.756 0.297,-0.85 0.047,-2.071 -0.136,-2.593 -0.397,-1.134 m -125.6,6.871 -1.467,1.281 1.094,0.566 c 0.602,0.311 1.857,0.664 2.79,0.785 3.016,0.389 5.931,-1.367 3.398,-2.047 -0.52,-0.139 -1.661,-0.619 -2.537,-1.067 -1.93,-0.986 -1.529,-1.045 -3.278,0.482 m 340.107,11.438 c -0.269,0.108 -1.035,0.7 -1.701,1.315 l -1.211,1.119 0.893,0.734 c 1.544,1.271 8.285,0.837 7.491,-0.482 -0.353,-0.588 -4.448,-3.034 -4.876,-2.913 -0.058,0.017 -0.326,0.119 -0.596,0.227"
       inkscape:connector-curvature="0"
       style="fill:#ffffff;fill-rule:evenodd;stroke:none" />
  </g>
</svg>
