<?xml version="1.0" encoding="UTF-8" standalone="no"?>
<svg
   xmlns:dc="http://purl.org/dc/elements/1.1/"
   xmlns:cc="http://creativecommons.org/ns#"
   xmlns:rdf="http://www.w3.org/1999/02/22-rdf-syntax-ns#"
   xmlns:svg="http://www.w3.org/2000/svg"
   xmlns="http://www.w3.org/2000/svg"
   xmlns:sodipodi="http://sodipodi.sourceforge.net/DTD/sodipodi-0.dtd"
   xmlns:inkscape="http://www.inkscape.org/namespaces/inkscape"
   id="svg"
   version="1.1"
   width="400"
   height="377.93103448275866"
   viewBox="0, 0, 400,377.93103448275866"
   sodipodi:docname="C24.svg"
   inkscape:version="0.92.5 (2060ec1f9f, 2020-04-08)">
  <metadata
     id="metadata11">
    <rdf:RDF>
      <cc:Work
         rdf:about="">
        <dc:format>image/svg+xml</dc:format>
        <dc:type
           rdf:resource="http://purl.org/dc/dcmitype/StillImage" />
      </cc:Work>
    </rdf:RDF>
  </metadata>
  <defs
     id="defs9" />
  <sodipodi:namedview
     pagecolor="#ffffff"
     bordercolor="#666666"
     borderopacity="1"
     objecttolerance="10"
     gridtolerance="10"
     guidetolerance="10"
     inkscape:pageopacity="0"
     inkscape:pageshadow="2"
     inkscape:window-width="1366"
     inkscape:window-height="689"
     id="namedview7"
     showgrid="false"
     inkscape:zoom="0.62445256"
     inkscape:cx="200"
     inkscape:cy="188.96552"
     inkscape:window-x="0"
     inkscape:window-y="0"
     inkscape:window-maximized="1"
     inkscape:current-layer="svg" />
  <g
     id="g823"
     style="fill:#ffffff"
     transform="translate(0.37532187,-1.5751905)">
    <path
       id="path1"
       d="m 268.809,72.59 c 0,0.481 1.523,0.481 2.269,0 0.421,-0.273 0.203,-0.368 -0.851,-0.372 -0.78,-0.004 -1.418,0.164 -1.418,0.372 m -4.909,3.119 c 0.005,0.688 0.076,0.742 0.372,0.283 0.474,-0.733 0.474,-1.134 0,-1.134 -0.208,0 -0.375,0.383 -0.372,0.851 m -14.236,10.68 c -0.12,0.312 -0.54,0.568 -0.933,0.568 -0.394,0 -1.056,0.34 -1.472,0.756 -0.416,0.416 -0.997,0.756 -1.292,0.756 -0.903,0 -1.74,0.438 -1.519,0.796 0.322,0.521 1.56,0.401 2.171,-0.21 0.302,-0.302 1.008,-0.664 1.57,-0.805 0.562,-0.141 1.105,-0.475 1.207,-0.741 0.102,-0.266 0.606,-0.59 1.119,-0.718 0.514,-0.129 0.832,-0.4 0.707,-0.602 -0.347,-0.561 -1.313,-0.436 -1.558,0.2 m 12.34,7.814 c -1.343,0.495 -2.25,1.81 -2.26,3.274 l -0.009,1.258 1.046,-1.069 c 2.329,-2.381 2.934,-4.095 1.223,-3.463 M 241.966,122.1 c 0,0.183 -0.095,0.581 -0.211,0.883 -0.143,0.372 0.105,0.61 0.765,0.737 1.29,0.246 1.389,-0.095 0.321,-1.117 -0.481,-0.46 -0.875,-0.687 -0.875,-0.503 m 13.989,0.715 c 0,0.995 0.1,1.07 1.336,0.995 1.317,-0.08 2.369,-0.559 1.228,-0.559 -0.322,0 -0.675,-0.34 -0.784,-0.756 -0.327,-1.251 -1.78,-0.99 -1.78,0.32 m 3.238,4.556 c -0.263,0.424 0.855,0.881 1.373,0.56 0.241,-0.149 0.193,-0.358 -0.129,-0.562 -0.66,-0.419 -0.985,-0.418 -1.244,0.002 m -2.86,1.505 c 0,1.599 0.894,2.196 1.453,0.971 0.682,-1.497 0.543,-2.059 -0.508,-2.059 -0.789,0 -0.945,0.18 -0.945,1.088 m -1.82,3.848 c -1.038,0.416 -0.827,0.953 0.472,1.201 0.933,0.179 1.582,-0.537 1.138,-1.256 -0.255,-0.411 -0.465,-0.404 -1.61,0.055 m 5.115,2.512 c -0.275,1.44 0.314,2.76 1.232,2.76 0.962,0 1.043,-1.493 0.155,-2.849 -0.786,-1.2 -1.145,-1.177 -1.387,0.089 m -22.531,1.01 c -1.063,1.131 -1.165,3.33 -0.111,2.376 0.381,-0.344 1.019,-0.628 1.418,-0.632 1.437,-0.011 1.612,-0.525 0.535,-1.579 l -1.04,-1.019 -0.802,0.854 m 1.619,6.434 c -0.322,0.839 0.083,1.743 0.781,1.743 0.741,0 0.752,-1.276 0.016,-1.886 -0.456,-0.378 -0.607,-0.351 -0.797,0.143 m 26.342,57.095 c -0.623,0.751 -0.375,1.886 0.447,2.044 0.473,0.091 0.656,-0.119 0.652,-0.752 -0.009,-1.376 -0.525,-1.983 -1.099,-1.292 m 31.166,6.266 c -0.272,0.44 0.442,1.899 0.928,1.899 0.449,0 0.881,-1.402 0.582,-1.887 -0.301,-0.487 -1.212,-0.494 -1.51,-0.012 m -64.356,3.411 c -0.109,0.416 -0.377,0.756 -0.595,0.756 -0.218,0 -0.298,0.099 -0.177,0.22 0.361,0.361 1.796,-0.581 1.796,-1.179 0,-0.826 -0.797,-0.668 -1.024,0.203 m 12.756,1.607 c -0.009,0.831 0.159,1.038 0.839,1.034 0.484,-0.004 0.674,-0.126 0.44,-0.284 -0.225,-0.153 -0.603,-0.618 -0.839,-1.034 -0.399,-0.705 -0.429,-0.685 -0.44,0.284 m 55.02,8.944 c -0.117,0.189 -0.053,0.742 0.142,1.229 0.332,0.828 0.357,0.806 0.379,-0.344 0.024,-1.242 -0.134,-1.511 -0.521,-0.885 m 47.151,1.925 c 0,0.936 0.074,1.319 0.164,0.851 0.09,-0.468 0.09,-1.234 0,-1.701 -0.09,-0.468 -0.164,-0.086 -0.164,0.85 m 22.617,-0.786 c -0.652,0.413 -0.06,2.949 1.354,5.796 0.975,1.964 1.1,2.033 2.18,1.216 0.403,-0.305 1.004,-0.555 1.335,-0.555 1.102,0 7.95,7.79 7.95,9.045 0,0.209 0.34,0.563 0.756,0.785 0.468,0.251 0.758,0.796 0.762,1.431 0.007,1.302 0.712,2.559 0.788,1.405 0.209,-3.2 -2.905,-9.863 -5.96,-12.755 -2.057,-1.946 -2.774,-3.227 -2.774,-4.956 0,-0.838 -0.213,-1.383 -0.598,-1.531 -0.912,-0.35 -5.192,-0.262 -5.793,0.119 m -121.157,7.784 c -0.12,0.313 -0.044,1.031 0.171,1.594 0.465,1.223 1.086,0.585 1.096,-1.125 0.006,-1.123 -0.889,-1.455 -1.267,-0.469 m -27.986,1.863 c -0.754,0.333 -0.945,0.572 -0.619,0.774 1.077,0.666 6.031,1.695 8.187,1.701 1.51,0.004 2.468,0.189 2.753,0.532 0.553,0.667 3.484,1.119 5.04,0.777 1.873,-0.411 0.293,-1.303 -2.308,-1.303 -1.38,0 -2.298,-0.204 -2.749,-0.613 -0.514,-0.465 -1.437,-0.61 -3.801,-0.6 -2.806,0.012 -3.215,-0.079 -4.035,-0.899 -1.03,-1.03 -0.985,-1.024 -2.468,-0.369 m 123.65,1.413 c -0.119,0.452 -0.059,1.09 0.133,1.418 0.257,0.44 0.351,0.225 0.36,-0.822 0.013,-1.594 -0.173,-1.819 -0.493,-0.596 m -17.384,2.904 -1.064,1.373 1.051,0.838 c 1.205,0.96 1.646,0.629 1.612,-1.211 -0.041,-2.258 -0.434,-2.503 -1.599,-1 m -75.321,3.104 c -0.436,0.704 0.208,2.975 1.072,3.779 l 0.833,0.777 0.246,-0.873 c 0.576,-2.044 0.361,-3.609 -0.529,-3.848 -1.172,-0.313 -1.337,-0.297 -1.622,0.165 m 74.882,11.399 c -0.356,0.859 1.139,2.987 1.895,2.696 0.772,-0.296 0.69,-0.793 -0.177,-1.068 -0.402,-0.128 -0.892,-0.692 -1.09,-1.254 -0.301,-0.855 -0.404,-0.916 -0.628,-0.374 m -122.923,8.129 c -0.371,0.596 -1.264,0.698 -7.751,0.886 -5.668,0.163 -6.337,0.228 -2.949,0.283 2.994,0.049 5.328,0.318 7.372,0.849 1.823,0.473 4.872,0.865 7.811,1.002 2.651,0.124 4.82,0.348 4.82,0.498 0,0.377 4.27,0.826 5.041,0.531 1.212,-0.466 0.183,-0.917 -2.091,-0.917 -1.59,0 -2.429,-0.173 -2.719,-0.56 -0.46,-0.614 -5.483,-1.468 -6.45,-1.097 -1.117,0.429 -2.419,-0.181 -2.546,-1.192 -0.108,-0.864 -0.16,-0.891 -0.538,-0.283 m -25.61,2.626 c -0.83,0.438 -1.025,0.755 -0.856,1.387 0.121,0.451 0.223,1.468 0.225,2.26 0.004,0.863 0.157,1.346 0.384,1.206 0.208,-0.128 0.378,-0.611 0.378,-1.072 0,-0.461 0.266,-1.219 0.592,-1.684 1.041,-1.487 0.592,-2.791 -0.723,-2.097 m -29.642,0.779 c -0.676,0.084 -1.229,0.312 -1.229,0.507 0,0.412 4.034,0.466 6.238,0.083 l 1.512,-0.263 -1.134,-0.255 c -1.242,-0.28 -3.47,-0.31 -5.387,-0.072 m 141.661,0.534 c 1.221,0.203 2.913,0.203 4.159,0.002 1.904,-0.308 1.711,-0.34 -2.059,-0.342 -3.739,-10e-4 -3.951,0.033 -2.1,0.34 m 61.92,0.331 c -0.827,0.965 -0.818,1.13 0.061,1.13 0.392,0 0.992,-0.425 1.332,-0.945 0.81,-1.236 -0.361,-1.391 -1.393,-0.185 M 9.546,262.259 c -0.597,0.417 -0.837,0.945 -0.806,1.776 0.024,0.65 0.12,0.893 0.213,0.539 0.258,-0.981 1.57,-1.232 2.419,-0.464 0.957,0.866 1.211,0.548 0.898,-1.122 -0.289,-1.537 -1.212,-1.784 -2.724,-0.729 m 260.614,0.245 c -0.96,0.702 0.148,1.023 2.278,0.66 1.396,-0.237 1.421,-0.265 0.47,-0.515 -0.552,-0.145 -1.237,-0.353 -1.523,-0.463 -0.285,-0.109 -0.836,0.034 -1.225,0.318 m -130.179,0.517 c 0.364,0.095 0.959,0.095 1.323,0 0.364,-0.096 0.067,-0.173 -0.661,-0.173 -0.728,0 -1.026,0.077 -0.662,0.173 m -13.327,1.251 c -0.415,0.269 -0.137,0.368 1.04,0.372 0.884,0.004 1.607,-0.164 1.607,-0.372 0,-0.482 -1.9,-0.482 -2.647,0 m 133.459,-0.013 c 0,0.655 1.355,1.154 1.833,0.676 0.718,-0.718 0.501,-1.041 -0.698,-1.041 -0.624,0 -1.135,0.164 -1.135,0.365 m -247.259,1.147 c 0,0.706 0.101,0.807 0.454,0.454 0.353,-0.353 0.353,-0.554 0,-0.907 -0.353,-0.353 -0.454,-0.252 -0.454,0.453 m 373.535,0.321 c 0,0.384 0.332,1.08 0.737,1.547 0.405,0.467 0.794,1.023 0.865,1.235 0.071,0.213 0.445,0.324 0.832,0.249 0.649,-0.127 0.631,-0.224 -0.234,-1.272 -0.515,-0.624 -1.045,-1.432 -1.178,-1.796 -0.319,-0.874 -1.022,-0.849 -1.022,0.037 m -265.874,-0.053 c 0.47,0.09 1.151,0.087 1.512,-0.008 0.362,-0.094 -0.023,-0.168 -0.855,-0.164 -0.832,0.004 -1.127,0.081 -0.657,0.172 m 187.992,0.11 c 0.739,0.479 1.512,0.479 1.512,0 0,-0.207 -0.468,-0.375 -1.04,-0.372 -0.81,0.005 -0.914,0.087 -0.472,0.372 m 31.38,1.11 c 0,0.61 -0.161,1.533 -0.358,2.05 -0.266,0.699 -0.217,1.057 0.189,1.394 0.467,0.388 0.547,0.091 0.547,-2.05 0,-1.377 -0.085,-2.504 -0.189,-2.504 -0.104,0 -0.189,0.5 -0.189,1.11 m -29.49,0.214 c 0.519,0.625 1.727,0.759 2.055,0.228 0.243,-0.393 -0.643,-0.795 -1.754,-0.795 -0.643,0 -0.693,0.094 -0.301,0.567 M 6.049,268.586 c 0,0.893 0.07,0.931 0.955,0.528 1.113,-0.507 1.045,-1.197 -0.134,-1.371 -0.659,-0.097 -0.821,0.069 -0.821,0.843 m 106.805,-0.155 c -0.132,0.214 0.186,0.378 0.734,0.378 0.532,0 0.968,-0.17 0.968,-0.378 0,-0.208 -0.33,-0.378 -0.734,-0.378 -0.404,0 -0.839,0.17 -0.968,0.378 m 200,0 c 0.129,0.208 0.479,0.378 0.779,0.378 0.3,0 0.545,-0.17 0.545,-0.378 0,-0.208 -0.351,-0.378 -0.779,-0.378 -0.428,0 -0.673,0.17 -0.545,0.378 m 24.266,0.246 c -0.65,0.65 -0.257,2.401 0.539,2.401 0.68,0 0.759,-0.154 0.54,-1.04 -0.298,-1.207 -0.711,-1.729 -1.079,-1.361 m 30.533,0.673 c -0.714,0.526 -0.708,0.551 0.211,0.906 1.077,0.415 1.72,0.019 1.385,-0.854 -0.282,-0.735 -0.654,-0.747 -1.596,-0.052 m -257.54,0.476 c 0.364,0.095 0.96,0.095 1.324,0 0.364,-0.095 0.066,-0.173 -0.662,-0.173 -0.728,0 -1.025,0.078 -0.662,0.173 m 171.281,0.019 c 1.203,0.075 3.074,0.075 4.159,-0.002 1.084,-0.076 0.099,-0.137 -2.188,-0.136 -2.287,0 -3.174,0.063 -1.971,0.138 m 91.385,0.854 c 0,0.624 0.17,1.135 0.378,1.135 0.208,0 0.378,-0.511 0.378,-1.135 0,-0.623 -0.17,-1.134 -0.378,-1.134 -0.208,0 -0.378,0.511 -0.378,1.134 M 5.917,271.175 c -0.143,0.57 -0.427,1.037 -0.631,1.037 -0.204,0 -0.371,0.17 -0.371,0.378 0,0.208 0.808,0.372 1.796,0.364 l 1.796,-0.013 -0.991,-0.837 c -0.544,-0.461 -1.069,-1.091 -1.164,-1.402 -0.111,-0.358 -0.27,-0.186 -0.435,0.473 m 100.51,-0.097 c -0.136,0.22 0.248,0.378 0.923,0.378 0.636,0 1.157,-0.171 1.157,-0.378 0,-0.208 -0.416,-0.379 -0.923,-0.379 -0.508,0 -1.028,0.171 -1.157,0.379 m 164.111,-0.04 c -0.701,0.274 -0.702,0.296 -0.029,0.554 0.903,0.346 4.028,-0.117 3.756,-0.557 -0.248,-0.401 -2.7,-0.399 -3.727,0.003 m 22.657,0.04 c -0.142,0.23 0.404,0.375 1.395,0.372 1.191,-0.004 1.477,-0.105 1.062,-0.372 -0.742,-0.48 -2.161,-0.48 -2.457,0 m -29.521,1.185 c -0.256,0.412 0.936,1.178 1.828,1.174 1.295,-0.005 4.174,-0.863 3.881,-1.156 -0.327,-0.326 -5.508,-0.342 -5.709,-0.018 m 55.23,0.437 c -1.429,0.789 -1.903,0.83 -8.566,0.739 -7.234,-0.098 -10.353,0.276 -7.313,0.877 0.831,0.164 2.448,0.26 3.591,0.213 1.144,-0.047 4.718,-0.099 7.942,-0.116 l 5.863,-0.031 1.784,1.204 c 2.246,1.515 4.827,4.051 4.827,4.742 0,0.289 0.271,0.796 0.602,1.127 0.331,0.331 0.723,1.055 0.871,1.609 0.433,1.619 1.174,1.524 1.174,-0.151 0,-0.992 -0.243,-1.667 -0.757,-2.107 -0.415,-0.356 -0.756,-0.886 -0.756,-1.178 0,-0.291 -0.255,-0.628 -0.567,-0.748 -0.853,-0.327 -0.681,-1.255 0.284,-1.527 l 0.85,-0.24 -0.821,-0.692 c -0.452,-0.38 -1.079,-1.307 -1.393,-2.059 -0.58,-1.387 -0.748,-1.475 -3.767,-1.962 -0.795,-0.128 -1.645,-0.301 -1.89,-0.384 -0.246,-0.083 -1.127,0.225 -1.958,0.684 m -224.111,1.297 c 0.671,0.083 1.862,0.085 2.647,0.003 0.784,-0.082 0.235,-0.15 -1.221,-0.152 -1.455,-0.002 -2.097,0.065 -1.426,0.149 m 80.905,1.741 c -0.112,0.692 -0.067,1.84 0.101,2.552 0.258,1.095 0.311,0.901 0.344,-1.258 0.042,-2.78 -0.125,-3.265 -0.445,-1.294 m -89.255,-0.313 c -0.311,0.312 -0.962,0.569 -1.444,0.572 -1.669,0.008 -3.714,0.474 -3.714,0.846 0,0.535 4.647,0.142 4.831,-0.407 0.081,-0.244 0.856,-0.445 1.723,-0.448 2.191,-0.006 4.411,-0.409 4.411,-0.801 0,-0.597 -5.184,-0.384 -5.807,0.238 m -8.56,2.484 c -1.267,0.242 -1.247,0.254 0.472,0.302 1.767,0.049 2.254,-0.099 1.324,-0.401 -0.26,-0.084 -1.068,-0.04 -1.796,0.099 m 167.194,3.441 c -0.71,0.71 -0.555,1.751 0.332,2.226 1.033,0.552 1.569,0.023 1.407,-1.391 -0.134,-1.17 -0.992,-1.582 -1.739,-0.835 m 86.26,0.479 c -0.298,0.776 0.122,1.838 0.607,1.537 0.21,-0.129 0.381,-0.555 0.381,-0.946 0,-0.932 -0.697,-1.349 -0.988,-0.591 m -267.911,0.48 c 0.47,0.09 1.151,0.087 1.512,-0.008 0.362,-0.094 -0.023,-0.168 -0.855,-0.164 -0.832,0.004 -1.127,0.082 -0.657,0.172 m -28.643,1.245 c 0,0.208 0.52,0.378 1.156,0.378 0.675,0 1.059,-0.158 0.923,-0.378 -0.129,-0.208 -0.649,-0.378 -1.157,-0.378 -0.507,0 -0.922,0.17 -0.922,0.378 m 22.306,0 c -0.415,0.268 -0.137,0.368 1.04,0.372 0.883,0.003 1.606,-0.164 1.606,-0.372 0,-0.483 -1.9,-0.483 -2.646,0 m 275.641,1.985 c 0.049,2.277 0.673,2.949 0.703,0.756 0.014,-1.092 -0.144,-1.985 -0.352,-1.985 -0.208,0 -0.366,0.553 -0.351,1.229 M 39.698,285.066 c 1.361,0.436 13.313,0.436 13.988,0 0.376,-0.242 -2.053,-0.356 -7.183,-0.334 -4.464,0.018 -7.35,0.16 -6.805,0.334 m 290.159,3.467 c 0.095,2.148 0.184,4.331 0.198,4.851 0.021,0.816 0.076,0.856 0.404,0.294 0.554,-0.951 0.289,-8.698 -0.304,-8.895 -0.361,-0.12 -0.43,0.749 -0.298,3.75 m -80.33,-2.333 c -0.405,0.262 -0.026,0.358 1.324,0.335 1.508,-0.025 1.699,-0.093 0.945,-0.335 -1.312,-0.42 -1.619,-0.42 -2.269,0 m 3.97,1.465 c 0.518,0.515 3.151,0.704 3.29,0.237 0.062,-0.208 -0.738,-0.431 -1.778,-0.496 -1.253,-0.077 -1.763,0.01 -1.512,0.259 m -79.149,2.505 c -0.007,1.444 0.069,1.697 0.321,1.072 0.184,-0.456 0.188,-1.293 0.009,-1.89 -0.278,-0.927 -0.323,-0.815 -0.33,0.818 m 83.381,-1.459 c -0.482,0.482 0.189,0.892 1.462,0.892 1.466,0 1.742,-0.55 0.45,-0.896 -1.104,-0.296 -1.613,-0.295 -1.912,0.004 m 3.141,1.618 c 0,0.192 0.506,0.459 1.125,0.595 1.318,0.29 2.264,-0.101 1.467,-0.606 -0.686,-0.435 -2.592,-0.427 -2.592,0.011 m -135.435,0.307 c 0.89,0.08 2.251,0.079 3.025,-0.002 0.774,-0.081 0.047,-0.147 -1.617,-0.145 -1.663,0.001 -2.297,0.068 -1.408,0.147 m -6.531,1.235 c -0.129,0.208 0.116,0.379 0.544,0.379 0.429,0 0.779,-0.171 0.779,-0.379 0,-0.207 -0.245,-0.378 -0.545,-0.378 -0.3,0 -0.65,0.171 -0.778,0.378 m 17.013,0 c 0.128,0.208 1.339,0.379 2.691,0.379 1.542,0 2.37,-0.141 2.224,-0.379 -0.129,-0.207 -1.34,-0.378 -2.691,-0.378 -1.542,0 -2.371,0.141 -2.224,0.378 m 128.544,0 c 0.129,0.208 0.734,0.379 1.346,0.379 0.611,0 1.112,-0.171 1.112,-0.379 0,-0.207 -0.606,-0.378 -1.346,-0.378 -0.801,0 -1.251,0.153 -1.112,0.378 m -149.055,1.395 c 0.364,0.095 0.96,0.095 1.324,0 0.364,-0.095 0.066,-0.173 -0.662,-0.173 -0.728,0 -1.025,0.078 -0.662,0.173 m 31.38,0 c 0.364,0.095 0.96,0.095 1.324,0 0.364,-0.095 0.066,-0.173 -0.662,-0.173 -0.728,0 -1.026,0.078 -0.662,0.173 m 121.74,0 c 0.363,0.095 0.959,0.095 1.323,0 0.364,-0.095 0.066,-0.173 -0.662,-0.173 -0.728,0 -1.025,0.078 -0.661,0.173 m -115.501,1.519 c 0.467,0.09 1.233,0.09 1.701,0 0.468,-0.09 0.085,-0.164 -0.851,-0.164 -0.935,0 -1.318,0.074 -0.85,0.164 m 119.853,0 c 0.47,0.091 1.151,0.087 1.512,-0.007 0.362,-0.095 -0.023,-0.169 -0.855,-0.165 -0.832,0.004 -1.128,0.082 -0.657,0.172 m 55.95,-0.051 c -0.156,0.158 -0.284,0.719 -0.284,1.246 0,0.688 0.116,0.842 0.411,0.548 0.225,-0.226 0.353,-0.787 0.283,-1.246 -0.07,-0.46 -0.254,-0.706 -0.41,-0.548 M 107.94,296.03 c -0.129,0.208 0.021,0.378 0.333,0.378 0.312,0 0.672,-0.17 0.801,-0.378 0.128,-0.208 -0.022,-0.378 -0.334,-0.378 -0.312,0 -0.672,0.17 -0.8,0.378 m 51.606,0 c 0.755,0.488 2.759,0.488 2.458,0 -0.129,-0.208 -0.862,-0.375 -1.629,-0.372 -1.041,0.004 -1.251,0.099 -0.829,0.372 m 117.77,0 c 0.128,0.208 0.479,0.378 0.778,0.378 0.3,0 0.545,-0.17 0.545,-0.378 0,-0.208 -0.35,-0.378 -0.779,-0.378 -0.428,0 -0.673,0.17 -0.544,0.378 m 55.594,0.851 c -0.158,0.364 -0.158,0.959 0,1.323 0.275,0.63 0.296,0.63 0.447,0 0.266,-1.116 -0.084,-2.156 -0.447,-1.323 m 26.108,0.129 c -0.155,0.405 0.17,0.533 1.359,0.533 1.741,0 1.742,-0.236 0.004,-0.734 -0.878,-0.252 -1.208,-0.203 -1.363,0.201 m -183.504,0.394 c -0.267,0.482 -1.021,0.926 -1.874,1.102 l -1.428,0.296 1.889,0.297 c 2.175,0.343 2.412,0.188 2.093,-1.367 -0.225,-1.098 -0.247,-1.109 -0.68,-0.328 m 108.04,-0.297 c -0.976,0.308 3.502,1.192 6.038,1.192 0.72,0 1.551,0.433 2.442,1.273 0.742,0.7 1.35,1.138 1.35,0.972 0,-0.781 1.312,-1.49 2.768,-1.495 1.159,-0.004 1.429,-0.103 1.012,-0.372 -0.311,-0.202 -0.955,-0.369 -1.431,-0.373 -0.475,-0.003 -1.274,-0.274 -1.775,-0.603 -1.027,-0.672 -8.755,-1.114 -10.404,-0.594 m 43.588,0.436 c -0.109,0.415 -0.439,0.756 -0.733,0.756 -0.294,0 -0.63,0.248 -0.747,0.552 -0.117,0.304 -0.537,0.656 -0.933,0.782 -0.913,0.29 -0.942,0.934 -0.043,0.934 0.719,0 3.48,-2.673 3.48,-3.369 0,-0.718 -0.818,-0.443 -1.024,0.345 m -160.507,-0.105 c 0.676,0.084 1.782,0.084 2.458,0 0.675,-0.084 0.123,-0.153 -1.229,-0.153 -1.352,0 -1.905,0.069 -1.229,0.153 m -65.69,1.239 c -0.425,0.275 -0.236,0.366 0.756,0.366 0.993,0 1.182,-0.091 0.756,-0.366 -0.311,-0.202 -0.652,-0.367 -0.756,-0.367 -0.104,0 -0.444,0.165 -0.756,0.367 m 230.354,1.039 c -0.425,1.144 -1.742,2.741 -2.259,2.741 -0.272,0 -0.496,0.171 -0.496,0.379 0,0.643 0.615,0.428 2.7,-0.946 1.105,-0.727 2.311,-1.323 2.679,-1.323 0.85,0 0.853,-0.345 0.009,-0.986 -0.944,-0.717 -2.343,-0.645 -2.633,0.135 m -33.541,0.053 c -0.244,0.394 2.232,2.383 2.559,2.056 0.236,-0.236 -1.647,-2.392 -2.089,-2.392 -0.145,0 -0.356,0.151 -0.47,0.336 m -54.658,1.432 c 0,0.365 1.506,4.771 1.699,4.968 0.064,0.066 0.317,-0.488 0.562,-1.232 0.435,-1.318 -0.08,-3.614 -0.81,-3.614 -0.14,0 -0.524,-0.103 -0.853,-0.229 -0.329,-0.126 -0.598,-0.078 -0.598,0.107 m -150.373,0.394 c 0.575,0.086 1.426,0.084 1.891,-0.006 0.465,-0.089 -0.006,-0.16 -1.045,-0.158 -1.04,0.003 -1.42,0.077 -0.846,0.164 m 90.17,-0.004 c 0.47,0.09 1.15,0.087 1.512,-0.008 0.361,-0.095 -0.023,-0.169 -0.855,-0.164 -0.832,0.004 -1.128,0.081 -0.657,0.172 m 138.702,0.122 c 0.258,0.258 0.699,0.266 1.305,0.024 0.859,-0.344 0.836,-0.367 -0.39,-0.39 -0.895,-0.016 -1.182,0.098 -0.915,0.366 m 27.571,0.71 c -0.266,0.431 0.141,1.547 0.565,1.547 0.506,0 0.759,-0.639 0.509,-1.289 -0.256,-0.667 -0.747,-0.785 -1.074,-0.258 m -285.087,0.445 c -0.624,0.141 4.948,0.276 12.382,0.301 7.434,0.024 13.516,-0.083 13.516,-0.239 0,-0.354 -24.348,-0.413 -25.898,-0.062 m 124.764,-0.032 c -0.139,0.224 0.274,0.367 1.017,0.351 1.043,-0.022 1.125,-0.081 0.495,-0.351 -1.026,-0.441 -1.24,-0.441 -1.512,0 m 130.435,0 c -0.133,0.214 0.185,0.378 0.733,0.378 0.533,0 0.968,-0.171 0.968,-0.378 0,-0.208 -0.33,-0.379 -0.734,-0.379 -0.403,0 -0.839,0.171 -0.967,0.379 m -272.874,0.266 c 0.468,0.09 1.234,0.09 1.702,0 0.468,-0.09 0.085,-0.163 -0.851,-0.163 -0.936,0 -1.319,0.073 -0.851,0.163 m 280.801,0.887 c -0.359,0.581 0.133,0.956 0.619,0.471 0.271,-0.272 0.278,-0.483 0.019,-0.643 -0.211,-0.131 -0.498,-0.053 -0.638,0.172 m -2.66,1.535 c -0.364,0.588 0.08,0.827 0.795,0.427 0.569,-0.318 0.573,-0.381 0.04,-0.585 -0.328,-0.126 -0.704,-0.055 -0.835,0.158 m -24.072,0.225 c 0.47,0.091 1.151,0.087 1.512,-0.007 0.362,-0.095 -0.023,-0.169 -0.855,-0.165 -0.832,0.005 -1.127,0.082 -0.657,0.172 m 11.72,0 c 0.471,0.091 1.151,0.087 1.513,-0.007 0.361,-0.095 -0.024,-0.169 -0.856,-0.165 -0.831,0.005 -1.127,0.082 -0.657,0.172 m 9.92,1.245 c -0.442,0.286 -0.337,0.368 0.473,0.373 0.572,0.003 1.039,-0.165 1.039,-0.373 0,-0.478 -0.772,-0.478 -1.512,0 m -73.449,2.92 c 0.671,0.083 1.862,0.085 2.647,0.003 0.784,-0.082 0.235,-0.15 -1.22,-0.152 -1.456,-0.002 -2.098,0.065 -1.427,0.149"
       inkscape:connector-curvature="0"
       style="fill:#ffffff;fill-rule:evenodd;stroke:none" />
    <path
       id="path2"
       d="m 277.127,67.985 c -0.312,0.141 -1.061,0.591 -1.665,1 -1.408,0.953 -5.116,2.467 -6.049,2.469 -1.813,0.004 -4.954,2.056 -8.307,5.425 -3.756,3.774 -8.131,6.878 -13.8,9.791 -5.16,2.652 -5.336,2.742 -7.281,3.704 -4.829,2.389 -4.992,6.398 -0.751,18.511 0.837,2.391 1.756,5.73 2.043,7.419 l 0.521,3.071 -1.044,2.033 c -0.574,1.118 -1.237,2.883 -1.475,3.923 -0.237,1.04 -1.083,3.251 -1.881,4.915 -1.312,2.737 -2.277,6.301 -2.277,8.406 0,0.439 0.443,1.326 0.985,1.97 0.811,0.963 0.946,1.421 0.763,2.581 -0.122,0.775 -0.391,3.196 -0.599,5.379 -0.207,2.184 -0.546,4.651 -0.754,5.482 -0.563,2.256 -0.466,7.681 0.176,9.796 0.31,1.02 0.563,3.096 0.563,4.613 0,1.516 0.244,3.693 0.542,4.837 0.298,1.144 0.646,4.172 0.774,6.729 0.127,2.557 0.479,5.641 0.781,6.854 1.037,4.161 0.071,10.155 -2.014,12.493 -0.892,1 -1.535,2.675 -1.676,4.367 -0.08,0.957 -0.382,1.45 -1.155,1.89 -1.588,0.903 -3.998,4.063 -4.445,5.829 -0.219,0.864 -0.816,2.454 -1.328,3.533 -0.512,1.078 -0.931,2.318 -0.931,2.756 0,0.721 -0.739,2.34 -1.989,4.356 -0.257,0.416 -1.183,1.659 -2.058,2.763 -0.874,1.104 -1.886,2.68 -2.249,3.503 -0.524,1.189 -0.946,1.573 -2.053,1.871 -0.766,0.206 -1.557,0.587 -1.757,0.845 -0.384,0.494 -1.763,3.094 -2.155,4.062 -0.127,0.312 -0.635,1.247 -1.131,2.079 -0.495,0.832 -2.11,3.924 -3.588,6.872 -2.652,5.286 -7.041,12.34 -8.252,13.26 -0.462,0.352 -3.27,0.473 -10.947,0.473 -9.604,0 -10.425,0.053 -11.737,0.756 -1.318,0.706 -2.135,0.756 -12.381,0.758 -7.691,0.001 -11.987,0.163 -14.372,0.544 -1.872,0.298 -4.678,0.664 -6.236,0.812 -1.559,0.149 -3.382,0.5 -4.052,0.78 -0.671,0.28 -2.203,0.513 -3.405,0.518 -1.202,0.005 -2.867,0.191 -3.698,0.415 -0.832,0.223 -3.809,0.612 -6.617,0.865 -2.807,0.252 -5.444,0.638 -5.86,0.856 -0.416,0.219 -1.501,0.511 -2.411,0.651 -0.91,0.139 -2.011,0.502 -2.447,0.808 -0.435,0.305 -1.159,0.555 -1.607,0.555 -0.448,0 -1.012,0.237 -1.252,0.527 -0.241,0.29 -1.011,0.635 -1.71,0.766 -0.7,0.132 -1.48,0.49 -1.734,0.796 -0.254,0.306 -0.783,0.557 -1.174,0.557 -0.391,0 -1.346,0.34 -2.122,0.756 -0.776,0.416 -1.69,0.756 -2.032,0.756 -0.341,0 -0.825,0.247 -1.076,0.549 -0.25,0.302 -1.246,0.667 -2.214,0.812 -0.967,0.145 -2.309,0.494 -2.981,0.775 -0.673,0.281 -2.292,0.515 -3.598,0.52 -1.306,0.005 -3.056,0.192 -3.888,0.415 -0.831,0.223 -2.788,0.614 -4.347,0.869 -1.56,0.255 -3.207,0.664 -3.662,0.909 -0.454,0.244 -1.305,0.45 -1.89,0.457 -0.586,0.007 -1.745,0.342 -2.577,0.744 -0.832,0.401 -1.852,0.742 -2.268,0.756 -0.416,0.014 -1.437,0.354 -2.269,0.756 -0.831,0.402 -1.947,0.736 -2.479,0.743 -0.533,0.007 -1.298,0.263 -1.702,0.568 -0.403,0.305 -1.213,0.561 -1.798,0.567 -0.585,0.007 -1.861,0.338 -2.835,0.736 -0.975,0.399 -2.605,0.824 -3.624,0.946 -1.019,0.122 -2.039,0.37 -2.268,0.552 -0.229,0.182 -1.37,0.447 -2.535,0.587 -1.165,0.141 -2.936,0.502 -3.935,0.803 -3.022,0.909 -13.964,0.765 -15.875,-0.209 -0.816,-0.416 -1.766,-0.756 -2.113,-0.756 -0.346,0 -0.842,-0.256 -1.1,-0.567 -0.259,-0.312 -0.679,-0.568 -0.933,-0.568 -0.254,0 -0.77,-0.34 -1.147,-0.756 -0.376,-0.416 -0.849,-0.756 -1.05,-0.756 -0.712,0 -6.657,-6.537 -8.591,-9.447 -0.312,-0.469 -0.737,-1.045 -0.945,-1.28 -0.208,-0.235 -0.997,-1.192 -1.754,-2.128 -2.873,-3.549 -6.308,-6.69 -7.98,-7.297 -0.815,-0.295 -3.966,1.748 -4.472,2.9 -0.195,0.443 -0.941,1.827 -1.657,3.074 -0.761,1.325 -1.316,2.819 -1.333,3.592 -0.017,0.728 -0.28,1.654 -0.585,2.057 -0.721,0.953 -0.731,4.132 -0.015,4.726 0.297,0.246 0.989,1.308 1.539,2.36 0.55,1.051 1.16,2.104 1.356,2.339 0.196,0.235 0.746,1.023 1.224,1.751 1.635,2.495 3.756,5.482 4.428,6.238 0.37,0.416 1.04,1.467 1.488,2.337 0.449,0.87 1.06,1.784 1.359,2.031 0.298,0.248 0.542,0.604 0.542,0.792 0,0.691 4.569,8.15 6.334,10.341 3.475,4.313 8.598,6.589 10.277,4.566 0.245,-0.295 1.101,-0.648 1.902,-0.783 0.8,-0.136 1.769,-0.484 2.152,-0.774 0.383,-0.29 0.954,-0.533 1.269,-0.54 0.315,-0.006 1.207,-0.352 1.983,-0.768 0.776,-0.416 1.731,-0.756 2.123,-0.756 0.391,0 1.337,-0.262 2.103,-0.582 2.09,-0.873 12.183,-1.124 20.628,-0.512 12.445,0.902 25.061,0.466 27.797,-0.961 0.619,-0.323 1.466,-0.589 1.882,-0.592 0.416,-0.002 1.243,-0.258 1.839,-0.569 0.596,-0.311 1.368,-0.565 1.716,-0.565 0.348,0 1.297,-0.338 2.109,-0.753 0.813,-0.414 2.033,-0.857 2.713,-0.984 0.68,-0.128 1.434,-0.47 1.675,-0.76 0.241,-0.29 0.724,-0.527 1.075,-0.527 0.351,0 0.968,-0.25 1.372,-0.555 0.403,-0.306 0.995,-0.561 1.315,-0.568 0.32,-0.006 1.246,-0.35 2.058,-0.764 0.812,-0.414 2.039,-0.859 2.727,-0.988 0.687,-0.129 1.25,-0.37 1.25,-0.537 0,-0.166 0.723,-0.419 1.607,-0.561 0.883,-0.142 1.956,-0.48 2.383,-0.75 2.648,-1.674 8.644,-2.417 12.721,-1.577 1.518,0.313 4.035,0.691 5.595,0.842 1.56,0.15 3.495,0.504 4.301,0.786 0.806,0.282 2.762,0.514 4.348,0.515 1.822,0.002 3.282,0.211 3.97,0.57 0.598,0.312 2.044,0.667 3.213,0.789 1.17,0.123 2.807,0.452 3.639,0.732 0.831,0.28 2.502,0.618 3.713,0.751 1.21,0.133 2.779,0.483 3.485,0.778 0.706,0.295 2.013,0.538 2.903,0.539 0.89,0.001 2.108,0.258 2.706,0.569 0.598,0.312 2.044,0.669 3.214,0.794 1.516,0.161 2.61,0.563 3.814,1.402 1.456,1.016 2.131,1.21 4.915,1.417 3.074,0.229 7.202,1.052 9.654,1.926 0.624,0.222 1.929,0.522 2.9,0.667 0.971,0.144 1.991,0.45 2.268,0.679 0.277,0.228 1.184,0.541 2.016,0.695 0.831,0.154 1.852,0.491 2.268,0.748 0.416,0.257 1.419,0.584 2.228,0.726 0.81,0.143 1.715,0.502 2.012,0.799 0.297,0.297 0.911,0.546 1.364,0.553 0.453,0.007 1.504,0.341 2.336,0.743 0.831,0.402 1.903,0.736 2.381,0.743 0.478,0.007 1.337,0.255 1.908,0.55 0.57,0.295 2.221,0.721 3.667,0.946 1.446,0.225 3.48,0.568 4.52,0.764 2.36,0.443 8.395,0.444 11.153,0.003 4.788,-0.766 7.115,-1.2 9.163,-1.71 1.313,-0.327 4.145,-0.545 7.183,-0.552 3.967,-0.01 5.45,-0.166 7.094,-0.744 2.584,-0.909 8.383,-0.992 13.611,-0.195 1.975,0.301 5.974,0.659 8.885,0.795 2.911,0.136 6.222,0.482 7.357,0.769 3.006,0.759 25.859,0.748 27.89,-0.013 0.784,-0.294 2.276,-0.622 3.316,-0.728 1.04,-0.107 2.401,-0.461 3.025,-0.787 0.623,-0.326 1.507,-0.594 1.962,-0.595 0.456,-10e-4 0.935,-0.175 1.066,-0.386 0.13,-0.211 0.778,-0.616 1.44,-0.9 0.661,-0.284 3.076,-1.859 5.367,-3.499 2.29,-1.641 4.877,-3.197 5.748,-3.458 0.872,-0.261 1.87,-0.76 2.218,-1.108 0.886,-0.886 2.858,-0.79 4.117,0.199 0.581,0.458 1.483,0.832 2.004,0.832 1.302,0 4.219,1.512 4.958,2.57 1.244,1.779 2.72,3.048 4.476,3.846 0.992,0.452 2.06,0.974 2.371,1.161 1.544,0.925 3.759,1.775 5.239,2.012 0.905,0.144 2.096,0.494 2.646,0.776 1.195,0.613 17.279,0.798 17.647,0.202 0.122,-0.196 1.156,-0.8 2.298,-1.34 3.314,-1.568 8.843,-7.395 8.843,-9.32 0,-0.314 0.256,-0.782 0.568,-1.041 0.311,-0.259 0.567,-0.879 0.567,-1.379 0,-0.5 0.34,-1.876 0.756,-3.06 0.416,-1.183 0.756,-2.774 0.756,-3.534 0,-0.761 0.255,-2.107 0.567,-2.991 0.597,-1.692 0.765,-4.161 0.284,-4.156 -0.879,0.008 -1.926,2.644 -2.176,5.479 -0.148,1.664 -0.505,3.484 -0.795,4.046 -0.289,0.561 -0.527,1.896 -0.527,2.965 0,1.851 -0.104,2.054 -2.149,4.183 -1.183,1.231 -2.501,2.677 -2.93,3.214 -4.341,5.424 -5.67,5.975 -14.384,5.958 -6.15,-0.012 -6.992,-0.093 -8.656,-0.832 -1.015,-0.451 -2.159,-0.819 -2.543,-0.819 -0.385,0 -1.256,-0.34 -1.937,-0.755 -0.681,-0.415 -1.706,-0.755 -2.278,-0.756 -0.572,-0.001 -1.039,-0.155 -1.039,-0.343 0,-0.187 -0.507,-0.517 -1.126,-0.733 -3.134,-1.093 -3.898,-3.912 -1.143,-4.219 0.936,-0.104 1.662,-0.359 1.614,-0.567 -0.143,-0.613 -2.996,-0.675 -3.554,-0.076 -0.424,0.453 -0.662,0.429 -1.641,-0.168 -0.63,-0.384 -1.557,-0.699 -2.06,-0.699 -0.504,-0.001 -1.184,-0.236 -1.512,-0.523 -1.313,-1.146 -7.342,-1.807 -10.711,-1.175 -1.597,0.3 -2.029,-1.055 -0.838,-2.629 0.781,-1.033 0.781,-7.708 0,-8.741 -0.306,-0.403 -0.561,-1.181 -0.567,-1.728 -0.015,-1.177 -1.686,-4.971 -2.48,-5.631 -0.307,-0.254 -0.557,-0.611 -0.557,-0.793 0,-0.356 -0.369,-0.828 -2.448,-3.131 -1.723,-1.908 -1.679,-2.342 0.264,-2.653 0.878,-0.14 1.917,-0.545 2.308,-0.899 0.571,-0.516 1.498,-0.648 4.69,-0.668 4.81,-0.03 5.016,-0.194 5.016,-3.998 0,-3.723 0.859,-4.575 4.678,-4.642 1.648,-0.029 3.029,-0.248 3.375,-0.535 0.729,-0.606 1.976,1.696 1.846,3.407 -0.087,1.135 0.287,1.307 1.468,0.675 0.465,-0.248 0.731,-0.79 0.731,-1.487 0,-2.463 0.572,-3.123 2.14,-2.468 1.654,0.691 1.929,0.492 2.088,-1.51 0.13,-1.631 0.932,-2.158 1.87,-1.228 1.164,1.153 4.488,2.316 4.488,1.569 0,-2.687 -6.527,-4.656 -7.603,-2.293 -0.452,0.992 -3.128,1.374 -9.647,1.379 -2.268,0.002 -3.196,0.151 -3.544,0.57 -0.259,0.312 -0.785,0.567 -1.168,0.567 -0.384,0 -0.945,0.468 -1.247,1.039 l -0.549,1.04 -0.408,-1.064 c -0.225,-0.586 -0.409,-1.36 -0.409,-1.72 0,-0.849 -0.725,-1.564 -1.587,-1.564 -1.299,0 -0.762,2.568 0.925,4.422 0.943,1.036 0.666,3.927 -0.3,3.125 -0.868,-0.72 -1.59,-0.151 -1.864,1.471 -0.298,1.765 -0.845,2.066 -3.129,1.723 -2.005,-0.3 -2.194,-0.673 -1.441,-2.838 0.642,-1.842 0.787,-5.091 0.242,-5.427 -1.089,-0.673 -2.911,4.844 -2.601,7.879 0.309,3.037 -7.664,2.252 -13.118,-1.292 -0.624,-0.405 -1.517,-0.936 -1.985,-1.18 -0.468,-0.243 -0.85,-0.582 -0.85,-0.752 0,-0.37 -6.794,-3.723 -7.579,-3.74 -0.303,-0.007 -0.88,-0.262 -1.284,-0.567 -0.404,-0.305 -1.104,-0.555 -1.555,-0.555 -1.04,0 -3.038,-1.783 -3.388,-3.025 -0.147,-0.52 -0.759,-1.756 -1.36,-2.746 -0.6,-0.991 -1.092,-1.932 -1.092,-2.09 0,-0.71 -1.201,-1.92 -1.711,-1.724 -1.069,0.41 0.333,4.85 2.125,6.73 1.039,1.09 0.213,1.227 -8.826,1.455 -6.599,0.167 -9.698,0.395 -11.058,0.812 -2.979,0.913 -5.597,0.692 -4.693,-0.397 1.393,-1.679 -0.331,-1.995 -2.134,-0.391 -4.319,3.844 -9.992,3.383 -10.99,-0.893 -0.257,-1.102 -1.954,-5.534 -2.451,-6.4 -2.607,-4.549 -3.74,-11.096 -2.453,-14.177 0.332,-0.794 0.602,-1.805 0.6,-2.248 -0.001,-0.442 0.284,-1.922 0.634,-3.289 0.622,-2.43 0.51,-4.036 -0.25,-3.566 -0.209,0.129 -0.38,0.965 -0.38,1.856 0,1.107 -0.226,1.824 -0.713,2.265 -0.392,0.355 -0.813,1.147 -0.936,1.76 -0.292,1.462 -1.964,1.556 -3.254,0.183 -1.144,-1.217 -0.873,-3.987 0.791,-8.103 0.64,-1.581 1.397,-3.646 1.683,-4.589 0.823,-2.716 5.278,-8.435 5.857,-7.52 0.511,0.808 0.421,3.276 -0.162,4.433 -0.283,0.562 -0.629,1.766 -0.769,2.676 -0.139,0.91 -0.503,2.011 -0.808,2.447 -0.631,0.901 -0.758,4.027 -0.164,4.027 0.616,0 1.903,-3.246 3.221,-8.129 0.337,-1.248 0.934,-3.034 1.326,-3.97 0.393,-0.935 0.83,-2.382 0.972,-3.213 0.142,-0.832 0.486,-2.06 0.765,-2.729 0.28,-0.669 0.512,-2.03 0.516,-3.025 0.012,-2.614 1.24,-5.189 2.224,-4.663 1.621,0.868 2.431,-1.211 1.246,-3.194 -0.373,-0.624 -0.983,-1.944 -1.355,-2.934 -1.355,-3.605 -2.501,-3.09 -2.501,1.124 0,1.361 -0.333,3.772 -0.74,5.356 -0.407,1.585 -0.836,3.349 -0.953,3.921 -0.243,1.193 -1.096,1.352 -2.389,0.446 -1.655,-1.159 -3.561,-0.074 -6.638,3.779 -1.313,1.645 -2.703,1.778 -4.324,0.414 -1.349,-1.134 -5.018,-5.668 -5.716,-7.062 -0.276,-0.553 -1.01,-1.561 -1.631,-2.24 l -1.128,-1.235 0.629,-4.187 c 0.997,-6.639 0.586,-11.937 -1.745,-22.524 -1.545,-7.012 -1.616,-26.952 -0.105,-29.019 0.515,-0.704 2.434,0.561 2.434,1.604 0,0.237 0.516,0.925 1.147,1.53 0.631,0.604 1.765,2.155 2.52,3.445 1.631,2.789 3.138,3.54 3.138,1.565 0,-1.021 -0.954,-2.725 -3.002,-5.366 -0.983,-1.267 -2.351,-3.324 -3.04,-4.572 -0.689,-1.247 -1.753,-2.802 -2.364,-3.454 -0.666,-0.711 -0.954,-1.284 -0.718,-1.429 0.584,-0.361 2.233,0.146 2.469,0.759 0.253,0.66 1.141,0.692 1.65,0.06 0.715,-0.886 -0.032,-1.964 -3.439,-4.967 -0.78,-0.687 -1.005,-1.155 -0.827,-1.716 0.29,-0.915 1.256,-0.431 3.529,1.768 1.249,1.209 2.817,1.608 3.292,0.839 0.386,-0.624 -0.982,-2.424 -3.126,-4.113 -1.092,-0.86 -1.985,-1.73 -1.985,-1.933 0,-0.736 1.623,-0.345 2.97,0.714 1.785,1.405 2.849,1.729 3.418,1.043 0.582,-0.702 -0.521,-1.999 -3.364,-3.954 -2.531,-1.742 -3.13,-3.465 -1.205,-3.465 0.612,0 1.324,0.255 1.583,0.567 0.259,0.312 0.623,0.567 0.809,0.567 0.186,0 2.419,2.105 4.963,4.678 5.894,5.961 7.461,6.712 7.461,3.577 0,-0.964 1.585,-4.096 1.956,-3.866 0.515,0.318 0.348,2.906 -0.262,4.076 -0.65,1.247 -1.057,7.366 -0.544,8.195 0.448,0.726 1.467,-0.582 1.484,-1.905 l 0.012,-0.935 0.64,0.935 c 0.352,0.514 0.753,1.02 0.89,1.124 0.138,0.104 0.467,0.87 0.732,1.701 0.264,0.832 0.693,1.768 0.952,2.08 0.259,0.312 0.839,1.775 1.289,3.252 0.826,2.711 2.002,4.471 2.809,4.205 0.649,-0.213 0.764,-1.754 0.186,-2.479 -0.469,-0.588 -0.659,-0.904 -1.74,-2.899 -0.634,-1.169 -1.599,-4.57 -1.599,-5.635 0,-0.525 -0.247,-1.514 -0.548,-2.197 -0.301,-0.683 -0.654,-2.217 -0.783,-3.41 -0.129,-1.192 -0.392,-2.265 -0.586,-2.385 -0.521,-0.322 -0.426,-1.791 0.216,-3.328 0.769,-1.841 0.713,-2.747 -0.227,-3.687 -0.436,-0.437 -1.182,-1.67 -1.658,-2.741 -0.476,-1.071 -1.395,-2.417 -2.042,-2.99 -1.352,-1.198 -1.771,-7.579 -0.669,-10.218 0.279,-0.669 0.628,-1.897 0.774,-2.728 0.147,-0.832 0.494,-2.278 0.771,-3.214 0.277,-0.936 0.69,-2.39 0.919,-3.232 0.347,-1.278 2.325,-4.797 3.072,-5.464 0.398,-0.356 1.529,-2.26 3.084,-5.194 0.856,-1.614 1.844,-3.274 2.196,-3.69 0.352,-0.416 1.382,-2.033 2.289,-3.592 2.72,-4.676 6.298,-9.074 7.383,-9.074 0.766,0 2.348,-2.271 2.577,-3.699 0.386,-2.418 -1.489,-4.101 -3.535,-3.174 m 1.134,3.282 c 0,0.311 -0.15,0.567 -0.332,0.567 -1.262,0 -7.927,7.516 -9.122,10.286 -0.206,0.477 -0.539,1.122 -0.741,1.434 -0.201,0.312 -1.227,2.115 -2.28,4.008 -2.189,3.938 -3.556,5.611 -5.044,6.177 -1.328,0.505 -1.947,1.989 -2.532,6.072 -0.254,1.767 -0.612,3.404 -0.797,3.638 -2.017,2.543 -3.102,11.531 -2.594,21.497 0.413,8.114 0.516,8.094 -6.516,1.269 -4.795,-4.652 -5.377,-5.617 -5.007,-8.306 0.327,-2.377 -0.853,-7.941 -3.002,-14.151 -2.377,-6.872 -2.447,-7.536 -1.003,-9.524 0.642,-0.883 1.403,-1.606 1.692,-1.606 0.288,0 0.622,-0.256 0.742,-0.568 0.119,-0.311 0.566,-0.567 0.993,-0.567 0.7,0 6.833,-2.764 7.755,-3.494 0.359,-0.285 0.988,-0.712 5.86,-3.972 1.143,-0.766 2.164,-1.491 2.268,-1.611 0.104,-0.12 1.635,-1.423 3.403,-2.896 1.767,-1.473 3.626,-3.124 4.13,-3.67 0.504,-0.545 1.189,-0.992 1.523,-0.992 0.333,0 0.941,-0.233 1.352,-0.519 0.41,-0.285 1.334,-0.647 2.053,-0.803 1.238,-0.27 3.199,-1.116 5.309,-2.29 1.236,-0.689 1.89,-0.681 1.89,0.021 m -7.183,1.323 c -0.746,0.481 -2.269,0.481 -2.269,0 0,-0.208 0.638,-0.376 1.418,-0.372 1.054,0.004 1.272,0.099 0.851,0.372 m -6.434,2.552 c -0.016,0.829 -0.739,1.379 -0.744,0.567 -0.003,-0.468 0.164,-0.851 0.372,-0.851 0.208,0 0.376,0.128 0.372,0.284 m -13.422,11.047 c 0.125,0.202 -0.193,0.473 -0.707,0.602 -0.513,0.128 -1.017,0.452 -1.119,0.718 -0.102,0.266 -0.645,0.6 -1.207,0.741 -0.562,0.141 -1.268,0.503 -1.57,0.805 -0.611,0.611 -1.849,0.731 -2.171,0.21 -0.221,-0.358 0.616,-0.796 1.519,-0.796 0.295,0 0.876,-0.34 1.292,-0.756 0.416,-0.416 1.078,-0.756 1.472,-0.756 0.393,0 0.813,-0.256 0.933,-0.568 0.245,-0.636 1.211,-0.761 1.558,-0.2 m 11.284,9.346 c -0.374,0.584 -1.15,1.543 -1.725,2.131 l -1.046,1.069 0.009,-1.258 c 0.01,-1.464 0.917,-2.779 2.26,-3.274 1.202,-0.444 1.363,-0.015 0.502,1.332 m -15.845,7.613 c -0.582,0.542 -0.711,1.069 -0.601,2.456 0.121,1.524 0.821,2.243 0.821,0.844 0,-0.276 0.254,-0.989 0.565,-1.584 1.071,-2.054 0.624,-3.03 -0.785,-1.716 m -3.055,20.525 c -0.248,0.526 -2.058,-0.149 -1.851,-0.69 0.116,-0.302 0.211,-0.7 0.211,-0.883 0,-0.184 0.394,0.043 0.875,0.503 0.481,0.461 0.826,0.942 0.765,1.07 m 14.129,-1.178 c 0.109,0.416 0.462,0.756 0.784,0.756 1.141,0 0.089,0.479 -1.228,0.559 -1.236,0.075 -1.336,0 -1.336,-0.995 0,-1.31 1.453,-1.571 1.78,-0.32 m 2.702,4.874 c 0.322,0.204 0.37,0.413 0.129,0.562 -0.518,0.321 -1.636,-0.136 -1.373,-0.56 0.259,-0.42 0.584,-0.421 1.244,-0.002 m -2.214,0.969 c 0,1.221 -0.854,2.486 -1.383,2.048 -0.946,-0.786 -0.641,-2.598 0.438,-2.598 0.574,0 0.945,0.216 0.945,0.55 m -2.1,4.331 c 0.444,0.719 -0.205,1.435 -1.138,1.256 -1.299,-0.248 -1.51,-0.785 -0.472,-1.201 1.145,-0.459 1.355,-0.466 1.61,-0.055 m 4.892,2.478 c 0.888,1.356 0.807,2.849 -0.155,2.849 -0.918,0 -1.507,-1.32 -1.232,-2.76 0.242,-1.266 0.601,-1.289 1.387,-0.089 m -21.46,2.56 c -0.234,0.153 -0.751,0.28 -1.151,0.283 -0.399,0.004 -1.037,0.288 -1.418,0.632 -1.054,0.954 -0.952,-1.245 0.111,-2.376 l 0.802,-0.854 1.04,1.019 c 0.691,0.677 0.898,1.111 0.616,1.296 m 0.521,6.007 c 0,0.844 -1.064,0.954 -1.376,0.142 -0.12,-0.312 -0.112,-0.841 0.016,-1.176 0.308,-0.803 1.36,-0.003 1.36,1.034 m 17.161,2.222 c 0.658,4.733 1.872,7.615 2.931,6.96 0.962,-0.594 -0.669,-6.96 -1.783,-6.96 -0.276,0 -0.689,-0.298 -0.917,-0.662 -0.335,-0.534 -0.38,-0.406 -0.231,0.662 m 11.377,11.405 c 0.329,1.617 2.098,4.133 3.19,4.537 1.127,0.417 0.814,-1.366 -0.677,-3.844 -1.334,-2.219 -2.912,-2.654 -2.513,-0.693 m -7.348,0.006 c 0.031,1.497 1.231,3.511 2.172,3.645 0.767,0.109 0.837,0.005 0.628,-0.945 -0.395,-1.796 -0.453,-1.893 -1.654,-2.748 l -1.164,-0.829 0.018,0.877 m -12.754,1.302 c -0.473,1.231 1.436,5.161 2.338,4.815 1.196,-0.459 0.831,-2.904 -0.685,-4.579 -0.913,-1.009 -1.334,-1.069 -1.653,-0.236 m 25.071,6.767 c -0.5,1.305 2.655,6.127 3.737,5.712 1.403,-0.538 -1.704,-6.289 -3.397,-6.289 -0.065,0 -0.218,0.26 -0.34,0.577 m -7.086,0.641 c -0.167,1.852 1.283,4.831 2.35,4.831 0.819,0 0.923,-0.812 0.324,-2.531 -0.437,-1.252 -2.601,-3.114 -2.674,-2.3 m -13.679,1.667 c -0.494,0.494 -0.244,2.589 0.49,4.11 0.402,0.831 0.736,1.725 0.743,1.985 0.019,0.68 1.129,0.582 1.4,-0.123 0.449,-1.172 -1.963,-6.642 -2.633,-5.972 m 18.465,7.418 c 0.368,1.218 2.188,4.063 2.6,4.063 0.192,10e-4 0.66,0.283 1.04,0.627 0.987,0.893 0.957,-0.513 -0.053,-2.493 -1.061,-2.08 -4.116,-3.951 -3.587,-2.197 m 7.943,0 c 1.022,3.345 2.829,5.452 3.539,4.124 0.567,-1.059 0.023,-2.305 -1.645,-3.77 -1.625,-1.426 -2.258,-1.544 -1.894,-0.354 m -23.427,3.254 c -0.556,0.9 2.502,6.711 3.279,6.231 1.046,-0.646 -1.049,-6.555 -2.324,-6.555 -0.415,0 -0.845,0.146 -0.955,0.324 m 20.572,4.507 c 0,1.446 2.935,5.165 3.625,4.593 0.91,-0.756 0.596,-2.169 -0.834,-3.752 -1.439,-1.593 -2.791,-2.001 -2.791,-0.841 m 7.95,0.244 c -0.395,1.038 1.056,4.377 1.902,4.377 1.489,0 1.094,-2.956 -0.609,-4.555 l -0.903,-0.848 -0.39,1.026 m -24.586,5.743 c 0,2.061 2.249,4.829 3.363,4.14 0.457,-0.282 -0.964,-4.049 -1.756,-4.656 -0.988,-0.757 -1.607,-0.558 -1.607,0.516 m 20.571,0.714 c -0.143,0.571 0.01,1.644 0.367,2.58 0.337,0.882 0.612,1.821 0.612,2.087 0,1.009 1.92,4.648 2.371,4.494 1.085,-0.369 0.388,-3.841 -1.561,-7.778 -1.21,-2.445 -1.471,-2.647 -1.789,-1.383 m 6.873,0.803 c -0.588,1.534 2.469,7.809 3.496,7.174 0.522,-0.322 0.594,-2.734 0.091,-3.045 -0.192,-0.119 -0.461,-0.728 -0.599,-1.355 -0.466,-2.121 -2.51,-4.019 -2.988,-2.774 m 24.917,1.278 c -0.888,0.981 -0.526,1.299 1.354,1.189 2.03,-0.12 3.374,-0.666 3.374,-1.371 0,-0.943 -3.844,-0.795 -4.728,0.182 m 13.14,0.626 c -0.756,0.305 1.797,2.324 4.567,3.611 1.363,0.633 2.743,1.05 3.067,0.925 0.896,-0.344 0.721,-1.67 -0.261,-1.975 -0.468,-0.145 -1.276,-0.555 -1.796,-0.91 -0.79,-0.54 -4.599,-1.97 -4.986,-1.872 -0.065,0.017 -0.331,0.116 -0.591,0.221 m -21.397,3.359 c -1.2,1.165 -1.813,2.44 -1.174,2.44 1.164,0 4.193,-2.706 3.78,-3.375 -0.44,-0.711 -1.187,-0.443 -2.606,0.935 m 33.401,2.983 c 0,0.512 0.24,1.067 0.534,1.234 0.293,0.166 1.139,0.855 1.88,1.531 2.35,2.144 3.601,0.967 1.461,-1.375 -1.649,-1.805 -3.875,-2.603 -3.875,-1.39 m -71.083,2.414 c 0.004,0.633 -0.179,0.843 -0.652,0.752 -0.822,-0.158 -1.07,-1.293 -0.447,-2.044 0.574,-0.691 1.09,-0.084 1.099,1.292 m 25.336,-0.357 c 0,0.742 1.287,3.342 2.269,4.583 0.575,0.728 1.312,1.961 1.638,2.741 1.137,2.724 3.163,1.137 3.385,-2.651 l 0.081,-1.38 -1.552,0.103 c -1.365,0.09 -1.672,-0.049 -2.539,-1.151 -1.713,-2.178 -2.133,-2.577 -2.715,-2.577 -0.311,0 -0.567,0.149 -0.567,0.332 m -6.805,1.904 c 0,1.286 3.887,5.406 4.777,5.065 0.993,-0.381 0.497,-1.353 -1.912,-3.75 -2.78,-2.766 -2.865,-2.805 -2.865,-1.315 m -45.394,0.752 c 0.43,0.604 0.782,1.371 0.782,1.703 0,0.662 1.295,3.245 1.803,3.596 0.174,0.121 0.66,1.07 1.079,2.11 0.917,2.277 4.959,5.84 6.637,5.853 1.051,0.007 2.712,-1.36 4.477,-3.687 1.536,-2.025 3.215,-2.871 3.664,-1.844 0.682,1.561 -0.079,3.259 -2.534,5.654 -1.806,1.762 -2.678,3.022 -3.825,5.526 -1.969,4.301 -2.014,4.371 -2.838,4.416 -1.379,0.074 -1.579,0.155 -1.8,0.73 -0.282,0.736 0.395,4.225 1.062,5.469 0.278,0.52 0.877,2.392 1.33,4.159 0.878,3.43 3.448,11.115 4.163,12.451 0.237,0.443 0.833,2.033 1.325,3.534 0.837,2.558 4.184,11.169 5.321,13.694 0.282,0.623 0.859,2.143 1.284,3.377 1.306,3.798 3.24,5.256 5.642,4.255 2.836,-1.181 5.256,-1.851 8.559,-2.368 1.872,-0.292 4.254,-0.693 5.293,-0.891 2.851,-0.541 6.708,-0.471 8.476,0.153 0.868,0.306 2.43,0.669 3.472,0.807 1.042,0.139 2.516,0.569 3.276,0.956 0.76,0.388 1.693,0.705 2.072,0.705 0.379,0 1.066,0.236 1.527,0.524 0.931,0.582 4.836,1.124 7.453,1.034 0.936,-0.032 4.046,-0.15 6.912,-0.262 8.249,-0.322 10.902,1.569 14.776,10.532 0.665,1.538 0.895,7.832 0.286,7.832 -0.182,0 -0.54,0.502 -0.794,1.115 -0.808,1.951 -4.893,5.528 -7.121,6.235 -0.417,0.132 -0.964,0.489 -1.216,0.793 -0.253,0.304 -0.757,0.552 -1.122,0.552 -0.365,0 -0.876,0.256 -1.135,0.568 -0.259,0.311 -0.837,0.567 -1.285,0.567 -0.448,0 -1.204,0.272 -1.679,0.605 -2.133,1.494 -12.725,1.579 -13.98,0.113 -0.338,-0.395 -1.028,-0.718 -1.532,-0.718 -0.917,0 -4.208,-2.385 -4.208,-3.05 0,-0.74 1.071,-0.302 2.388,0.977 1.712,1.663 3.234,2.038 4.152,1.023 0.66,-0.729 -2.642,-4.215 -4.031,-4.256 -0.236,-0.007 -1.11,-0.342 -1.942,-0.744 -0.943,-0.455 -2.366,-0.741 -3.781,-0.759 -1.247,-0.017 -3.459,-0.187 -4.915,-0.38 -1.455,-0.193 -4.063,-0.528 -5.795,-0.745 -1.731,-0.217 -3.603,-0.625 -4.158,-0.906 -0.556,-0.281 -1.682,-0.633 -2.504,-0.782 -0.821,-0.149 -1.837,-0.512 -2.258,-0.807 -0.42,-0.294 -1.153,-0.535 -1.627,-0.535 -0.474,0 -1.497,-0.341 -2.273,-0.757 -0.776,-0.415 -1.691,-0.756 -2.032,-0.756 -0.342,0 -0.833,-0.255 -1.092,-0.567 -0.259,-0.312 -0.729,-0.567 -1.044,-0.567 -0.316,0 -1.273,-0.324 -2.128,-0.721 -2.675,-1.241 -5.452,-2.304 -6.023,-2.304 -0.301,0 -1.035,-0.254 -1.631,-0.564 -0.596,-0.311 -1.689,-0.566 -2.43,-0.567 -2.134,-0.004 -4.378,-3.129 -5.567,-7.753 -0.214,-0.832 -0.563,-2.023 -0.775,-2.647 -1.448,-4.261 -2.325,-8.567 -3.275,-16.068 -0.303,-2.391 -0.726,-5.539 -0.941,-6.994 -0.522,-3.533 -1.091,-7.961 -1.55,-12.054 -0.218,-1.936 -0.771,-4.293 -1.306,-5.565 -0.511,-1.214 -0.929,-2.735 -0.929,-3.381 0,-0.932 -0.408,-1.548 -1.985,-2.995 -2.076,-1.906 -5.954,-8.529 -5.954,-10.168 0,-0.924 2.418,-1.218 2.774,-0.336 0.421,1.043 0.218,-0.732 -0.271,-2.363 -0.723,-2.417 0.233,-4.296 1.527,-3.002 0.282,0.282 0.463,-0.066 0.613,-1.18 0.405,-3.023 1.466,-2.951 3.582,0.244 2.188,3.302 3.033,2.073 1.385,-2.014 -1.622,-4.022 -2.014,-5.546 -1.613,-6.264 0.505,-0.902 0.911,-0.799 1.807,0.459 m 104.234,0.988 c -0.204,0.533 0.873,3.095 1.81,4.301 0.225,0.29 0.579,1.566 0.787,2.836 0.357,2.183 1.328,2.997 2.352,1.973 0.256,-0.256 -0.737,-3.851 -1.443,-5.221 -0.396,-0.769 -0.72,-1.584 -0.72,-1.811 0,-1.455 -2.352,-3.209 -2.786,-2.078 m -74.926,2.357 c 0.261,1.071 2.221,5.412 3.799,8.412 1.945,3.698 3.182,1.519 1.356,-2.388 -0.631,-1.348 -1.303,-3.149 -1.495,-4.003 -0.39,-1.734 -1.673,-3.029 -3.021,-3.048 -0.784,-0.011 -0.861,0.113 -0.639,1.027 m 29.132,-0.658 c 0.299,0.485 -0.133,1.887 -0.582,1.887 -0.486,0 -1.2,-1.459 -0.928,-1.899 0.298,-0.482 1.209,-0.475 1.51,0.012 m -64.842,3.196 c 0,0.598 -1.435,1.54 -1.796,1.179 -0.121,-0.121 -0.041,-0.22 0.177,-0.22 0.218,0 0.486,-0.34 0.595,-0.756 0.227,-0.871 1.024,-1.029 1.024,-0.203 m 13.011,2.56 c 0.234,0.158 0.044,0.28 -0.44,0.284 -0.68,0.004 -0.848,-0.203 -0.839,-1.034 0.011,-0.969 0.041,-0.989 0.44,-0.284 0.236,0.416 0.614,0.881 0.839,1.034 m 46.464,-0.983 c -0.131,0.341 -0.083,0.826 0.106,1.078 0.189,0.253 0.819,1.173 1.399,2.046 1.182,1.777 2.07,2.299 2.569,1.512 0.548,-0.867 0.401,-1.194 -1.472,-3.269 -1.94,-2.149 -2.241,-2.308 -2.602,-1.367 m 5.792,0.334 c -0.359,0.936 1.497,3.177 2.429,2.933 1.117,-0.292 1.198,-0.682 0.429,-2.064 -0.788,-1.414 -2.454,-1.921 -2.858,-0.869 m 8.599,3.004 c -0.263,0.686 0.945,2.373 1.938,2.705 0.416,0.139 0.978,0.569 1.25,0.955 0.562,0.798 1.816,0.937 2.07,0.229 0.513,-1.431 -4.717,-5.299 -5.258,-3.889 m -3.877,2.144 c -0.441,1.161 0.444,2.218 1.857,2.218 0.566,0 1.241,0.255 1.5,0.567 0.597,0.719 2.122,0.737 2.395,0.027 0.114,-0.296 -0.038,-0.743 -0.338,-0.991 -0.299,-0.249 -0.545,-0.645 -0.545,-0.881 0,-0.235 -0.638,-0.65 -1.417,-0.922 -2.803,-0.976 -3.087,-0.977 -3.452,-0.018 m 43.621,0.989 c -0.149,0.364 -0.418,2.108 -0.598,3.875 -0.18,1.768 -0.434,3.937 -0.565,4.82 -0.465,3.131 1.871,0.698 2.496,-2.6 0.891,-4.697 -0.083,-9.149 -1.333,-6.095 m -48.694,1.089 c -0.508,0.508 -0.258,1.368 0.925,3.194 1.247,1.924 1.651,2.012 2.232,0.484 0.797,-2.095 0.818,-2.712 0.108,-3.085 -1.04,-0.545 -2.963,-0.895 -3.265,-0.593 m 2.357,2.502 c -0.022,1.15 -0.047,1.172 -0.379,0.344 -0.195,-0.487 -0.259,-1.04 -0.142,-1.229 0.387,-0.626 0.545,-0.357 0.521,0.885 m 3.278,-0.63 c -0.899,2.343 0.14,4.098 1.876,3.169 1.27,-0.68 1.191,-2.01 -0.179,-2.985 -1.318,-0.939 -1.404,-0.948 -1.697,-0.184 m 12.625,0.402 c 0,2.088 4.232,5.915 5.853,5.293 0.947,-0.364 -0.663,-2.513 -1.883,-2.513 -0.599,0 -0.979,-0.28 -1.151,-0.85 -0.624,-2.064 -2.819,-3.567 -2.819,-1.93 m 52.225,-0.016 c -0.602,1.321 1.168,6.73 2.919,8.92 0.479,0.598 0.606,0.583 1.87,-0.217 l 1.357,-0.859 2.424,2.485 c 4.125,4.227 7.164,10.289 6.935,13.829 -0.352,5.419 -0.125,6.016 1.476,3.881 1.042,-1.389 1.416,-9.021 0.497,-10.157 -0.235,-0.291 -0.553,-1.125 -0.705,-1.853 -0.54,-2.583 -3.616,-7.787 -5.961,-10.085 -2.226,-2.181 -2.246,-2.22 -2.041,-3.96 0.307,-2.611 -0.262,-2.968 -4.727,-2.968 -3.506,0 -3.607,0.024 -4.044,0.984 m -92.344,0.244 c -0.133,1.439 1.579,5.577 2.306,5.577 0.183,0 0.441,0.34 0.573,0.756 0.132,0.416 0.404,0.756 0.604,0.756 0.696,0 0.786,-1.111 0.187,-2.312 -0.331,-0.663 -0.602,-1.371 -0.602,-1.572 0,-1.413 -2.949,-4.494 -3.068,-3.205 m 71.01,1.891 c -0.09,0.468 -0.164,0.085 -0.164,-0.851 0,-0.936 0.074,-1.318 0.164,-0.85 0.09,0.467 0.09,1.233 0,1.701 m 28.246,-1.756 c 0.385,0.148 0.598,0.693 0.598,1.531 0,1.729 0.717,3.01 2.774,4.956 3.055,2.892 6.169,9.555 5.96,12.755 -0.076,1.154 -0.781,-0.103 -0.788,-1.405 -0.004,-0.635 -0.294,-1.18 -0.762,-1.431 -0.416,-0.222 -0.756,-0.576 -0.756,-0.785 0,-1.255 -6.848,-9.045 -7.95,-9.045 -0.331,0 -0.932,0.25 -1.335,0.555 -1.08,0.817 -1.205,0.748 -2.18,-1.216 -1.414,-2.847 -2.006,-5.383 -1.354,-5.796 0.601,-0.381 4.881,-0.469 5.793,-0.119 m -50.022,2.309 c -0.948,0.786 -1.084,1.085 -0.765,1.681 0.213,0.398 0.285,1.048 0.159,1.443 -0.322,1.016 0.934,1.592 2.814,1.291 2.013,-0.321 2.256,0.354 0.987,2.744 -2.2,4.141 -2.838,4.698 -5.042,4.403 -1.594,-0.214 -1.616,-0.201 -1.538,0.876 0.11,1.516 -0.7,2.919 -1.506,2.606 -1.157,-0.451 -1.369,-0.386 -1.499,0.46 -0.135,0.886 -0.103,0.94 1.979,3.312 1.658,1.888 2.028,1.567 2.177,-1.883 l 0.113,-2.647 1.646,0.076 c 1.05,0.048 1.817,0.31 2.119,0.723 1.091,1.492 1.943,0.132 1.743,-2.781 -0.053,-0.772 0.207,-1.597 0.701,-2.225 0.432,-0.549 0.786,-1.29 0.786,-1.646 0,-0.356 0.274,-1.198 0.61,-1.871 0.964,-1.932 -0.098,-5.996 -1.745,-6.676 -2.067,-0.855 -2.589,-0.839 -3.739,0.114 m -22.347,3.7 c 0,0.312 0.232,0.567 0.516,0.567 0.284,0 0.948,0.341 1.477,0.756 0.529,0.416 1.222,0.757 1.541,0.757 0.706,0 1.299,-0.847 0.726,-1.038 -0.225,-0.075 -0.792,-0.468 -1.259,-0.873 -1.024,-0.888 -3.001,-0.999 -3.001,-0.169 m -53.314,2.363 c -0.01,1.71 -0.631,2.348 -1.096,1.125 -0.449,-1.181 -0.188,-2.165 0.575,-2.165 0.324,0 0.524,0.401 0.521,1.04 m 74.65,0.623 c -0.574,2.29 0.368,3.489 1.656,2.106 0.715,-0.767 0.722,-0.865 0.128,-1.908 -0.76,-1.337 -1.478,-1.417 -1.784,-0.198 m 19.576,-0.079 c -0.252,0.252 -0.459,0.866 -0.459,1.364 0,0.498 -0.253,1.357 -0.562,1.909 -1.296,2.314 -2.099,5.463 -1.536,6.026 0.389,0.389 2.044,-1.502 3.044,-3.477 1.473,-2.913 1.097,-7.407 -0.487,-5.822 m -121.011,1.219 c 0.82,0.82 1.229,0.911 4.035,0.899 2.364,-0.01 3.287,0.135 3.801,0.6 0.451,0.409 1.369,0.613 2.749,0.613 2.601,0 4.181,0.892 2.308,1.303 -1.556,0.342 -4.487,-0.11 -5.04,-0.777 -0.285,-0.343 -1.243,-0.528 -2.753,-0.532 -2.156,-0.006 -7.11,-1.035 -8.187,-1.701 -0.326,-0.202 -0.135,-0.441 0.619,-0.774 1.483,-0.655 1.438,-0.661 2.468,0.369 m 87.82,-0.028 c -0.28,0.731 0.468,2.14 1.136,2.14 0.282,0 1.456,0.958 2.609,2.13 2.098,2.131 3.285,2.495 3.273,1.001 -0.009,-0.961 -0.309,-1.286 -2.641,-2.853 -1.144,-0.769 -2.547,-1.755 -3.119,-2.192 -0.878,-0.671 -1.074,-0.707 -1.258,-0.226 m -28.824,0.332 c -0.702,0.702 -0.556,1.182 1.13,3.707 2.535,3.796 3.287,4.491 3.921,3.624 0.664,-0.907 -1.463,-4.525 -4.519,-7.69 -0.046,-0.049 -0.286,0.113 -0.532,0.359 m 62.679,1.336 c -0.009,1.047 -0.103,1.262 -0.36,0.822 -0.312,-0.533 -0.139,-2.24 0.226,-2.24 0.08,0 0.14,0.638 0.134,1.418 m -16.278,3.308 c 0.034,1.84 -0.407,2.171 -1.612,1.211 l -1.051,-0.838 1.064,-1.373 c 1.165,-1.503 1.558,-1.258 1.599,1 m -75.298,1.939 c 0.89,0.239 1.105,1.804 0.529,3.848 l -0.246,0.873 -0.833,-0.777 c -1.225,-1.141 -1.636,-4.198 -0.562,-4.177 0.143,0.003 0.644,0.108 1.112,0.233 m 87.731,1.909 c -0.353,0.094 -1.243,1.244 -1.977,2.557 -1.426,2.55 -2.458,3.214 -3.184,2.051 -0.551,-0.883 -1.035,-0.9 -1.362,-0.047 -0.164,0.425 0.012,0.872 0.496,1.264 0.411,0.333 0.805,1.1 0.873,1.705 0.198,1.729 2.019,1.784 2.795,0.084 0.315,-0.69 1.063,-2.02 1.663,-2.956 0.6,-0.935 1.104,-1.989 1.12,-2.34 0.016,-0.352 0.2,-0.745 0.408,-0.873 0.436,-0.27 0.519,-1.723 0.094,-1.658 -0.156,0.025 -0.572,0.12 -0.926,0.213 m -9.535,0.712 c -0.789,0.79 -0.754,1.419 0.125,2.214 0.89,0.806 1.545,0.009 1.253,-1.523 -0.232,-1.21 -0.649,-1.419 -1.378,-0.691 m -42.313,0.798 c -0.528,0.527 -0.202,1.428 1.085,2.998 1.769,2.16 1.564,3.369 -0.623,3.662 -3.537,0.475 -3.197,1.781 0.463,1.781 1.665,0 3.069,0.221 3.794,0.595 1.218,0.63 1.901,0.453 1.149,-0.298 -0.246,-0.246 -0.447,-0.953 -0.447,-1.571 0,-0.618 -0.293,-1.448 -0.652,-1.844 -0.359,-0.396 -0.826,-1.241 -1.04,-1.878 -0.405,-1.21 -3.295,-3.88 -3.729,-3.445 m -51.095,5.373 c 0.124,0.96 0.471,3.038 0.772,4.618 0.3,1.581 0.545,3.527 0.545,4.326 0,2.533 1.625,10.455 3.292,16.053 0.341,1.143 0.747,2.845 0.904,3.78 0.156,0.936 0.405,2.425 0.552,3.309 0.177,1.064 0.064,2.34 -0.334,3.78 -2.245,8.129 -2.267,16.805 -0.059,23.308 0.742,2.185 0.582,2.726 -0.9,3.051 -0.624,0.137 -1.337,0.494 -1.584,0.792 -0.324,0.39 -1.319,0.544 -3.524,0.547 -1.69,0.003 -4.008,0.256 -5.152,0.563 -2.647,0.711 -5.919,0.718 -8.641,0.019 -1.174,-0.301 -3.495,-0.713 -5.159,-0.915 -3.266,-0.397 -5.158,-0.825 -8.695,-1.965 -1.248,-0.402 -2.609,-0.736 -3.025,-0.743 -0.416,-0.006 -1.086,-0.261 -1.49,-0.567 -0.403,-0.305 -1.212,-0.555 -1.797,-0.555 -0.585,0 -1.698,-0.34 -2.474,-0.756 -0.776,-0.416 -1.712,-0.756 -2.08,-0.756 -0.367,0 -1.303,-0.34 -2.079,-0.756 -0.776,-0.416 -1.86,-0.756 -2.41,-0.756 -0.549,0 -1.193,-0.234 -1.43,-0.52 -0.238,-0.286 -1.087,-0.625 -1.887,-0.753 -0.8,-0.128 -1.945,-0.488 -2.545,-0.801 -0.782,-0.408 -2.315,-0.57 -5.437,-0.575 l -4.348,-0.007 -0.789,-1.224 c -1.486,-2.305 -1.862,-13.86 -0.717,-22.018 0.321,-2.288 0.736,-5.86 0.922,-7.94 0.187,-2.079 0.606,-4.291 0.932,-4.915 0.326,-0.624 0.594,-1.61 0.595,-2.192 0.005,-2.289 6.196,-3.205 14.558,-2.154 1.455,0.183 4.348,0.519 6.427,0.747 2.08,0.228 5.312,0.656 7.183,0.951 1.872,0.295 4.849,0.619 6.617,0.719 1.767,0.1 3.846,0.448 4.619,0.772 4.114,1.727 7.257,-0.011 11.235,-6.212 1.733,-2.701 4.565,-8.27 4.559,-8.965 -0.001,-0.165 0.382,-1.19 0.851,-2.276 0.998,-2.311 1.605,-2.011 1.993,0.986 m 86.53,-0.55 c -0.114,0.298 0.056,1.106 0.377,1.796 0.321,0.691 0.742,1.979 0.936,2.864 0.385,1.764 1.651,3.085 2.976,3.105 0.609,0.009 0.905,0.301 1.066,1.052 0.667,3.119 1.941,3.73 1.732,0.83 -0.137,-1.902 -1.412,-4.299 -3.073,-5.779 -0.625,-0.556 -1.136,-1.239 -1.136,-1.518 0,-0.278 -0.34,-0.899 -0.756,-1.378 -0.416,-0.48 -0.756,-1.016 -0.756,-1.192 0,-0.54 -1.145,-0.355 -1.366,0.22 m 3.66,4.95 c 0.867,0.275 0.949,0.772 0.177,1.068 -0.756,0.291 -2.251,-1.837 -1.895,-2.696 0.224,-0.542 0.327,-0.481 0.628,0.374 0.198,0.562 0.688,1.126 1.09,1.254 m -45.228,-0.252 c -1.48,0.464 -2.949,1.802 -2.697,2.458 0.573,1.493 4.675,-0.245 4.364,-1.849 -0.154,-0.792 -0.583,-0.949 -1.667,-0.609 m 54.063,0.169 c -0.425,1.109 -0.004,3.855 0.591,3.855 0.736,0 0.825,-4.009 0.095,-4.253 -0.26,-0.086 -0.568,0.093 -0.686,0.398 m -59.94,4.088 c -0.965,0.354 -2.099,2.102 -1.653,2.548 0.459,0.459 3.016,-1.268 3.137,-2.119 0.131,-0.928 -0.013,-0.969 -1.484,-0.429 m -71.959,3.966 c 0.506,0.127 1.184,0.129 1.507,0.005 0.967,-0.371 5.99,0.483 6.45,1.097 0.29,0.387 1.129,0.56 2.719,0.56 2.274,0 3.303,0.451 2.091,0.917 -0.771,0.295 -5.041,-0.154 -5.041,-0.531 0,-0.15 -2.169,-0.374 -4.82,-0.498 -2.939,-0.137 -5.988,-0.529 -7.811,-1.002 -2.044,-0.531 -4.378,-0.8 -7.372,-0.849 -3.388,-0.055 -2.719,-0.12 2.949,-0.283 6.487,-0.188 7.38,-0.29 7.751,-0.886 0.378,-0.608 0.43,-0.581 0.538,0.283 0.081,0.645 0.419,1.031 1.039,1.187 m -26.464,3.253 c -0.326,0.465 -0.592,1.223 -0.592,1.684 0,0.461 -0.17,0.944 -0.378,1.072 -0.227,0.14 -0.38,-0.343 -0.384,-1.206 -0.002,-0.792 -0.104,-1.809 -0.225,-2.26 -0.169,-0.632 0.026,-0.949 0.856,-1.387 1.315,-0.694 1.764,0.61 0.723,2.097 m -24.978,-1.246 1.134,0.255 -1.512,0.263 c -2.204,0.383 -6.238,0.329 -6.238,-0.083 0,-0.619 4.49,-0.914 6.616,-0.435 m 140.433,0.464 c -1.246,0.201 -2.938,0.201 -4.159,-0.002 -1.851,-0.307 -1.639,-0.341 2.1,-0.34 3.77,0.002 3.963,0.034 2.059,0.342 m 59.154,0.514 c -0.519,0.793 -2.044,1.36 -2.044,0.76 0,-0.512 1.387,-1.705 1.983,-1.705 0.639,0 0.643,0.057 0.061,0.945 M 12.27,262.988 c 0.313,1.67 0.059,1.988 -0.898,1.122 -0.849,-0.768 -2.161,-0.517 -2.419,0.464 -0.093,0.354 -0.189,0.111 -0.213,-0.539 -0.09,-2.423 3.094,-3.368 3.53,-1.047 m 163.439,-0.401 c 0.641,0.202 0.61,3.387 -0.058,5.952 -0.291,1.12 -0.65,4.148 -0.796,6.73 -0.146,2.581 -0.511,5.884 -0.81,7.34 -0.36,1.745 -0.522,4.612 -0.476,8.423 0.078,6.555 0.15,6.324 -1.794,5.784 -0.8,-0.222 -2.182,-0.404 -3.073,-0.406 -0.89,-0.001 -2.171,-0.233 -2.847,-0.515 -0.675,-0.282 -2.244,-0.632 -3.485,-0.777 -1.241,-0.145 -3.022,-0.494 -3.958,-0.776 -0.936,-0.282 -2.656,-0.612 -3.822,-0.733 -1.166,-0.121 -2.735,-0.476 -3.485,-0.789 -0.75,-0.314 -2.199,-0.57 -3.219,-0.57 -1.02,0 -2.559,-0.249 -3.419,-0.552 -0.86,-0.304 -2.88,-0.664 -4.49,-0.802 -1.609,-0.137 -3.855,-0.485 -4.99,-0.771 -2.794,-0.706 -11.654,-0.705 -13.33,0.002 -0.682,0.288 -1.922,0.694 -2.753,0.903 -2.147,0.54 -3.942,1.191 -5.557,2.017 -0.769,0.393 -1.71,0.715 -2.09,0.715 -0.381,0 -1.036,0.241 -1.457,0.536 -0.421,0.294 -1.388,0.652 -2.15,0.795 -0.762,0.143 -1.582,0.498 -1.823,0.788 -0.241,0.29 -0.752,0.527 -1.137,0.527 -0.628,0 -1.926,0.506 -5.446,2.123 -0.624,0.287 -1.722,0.635 -2.441,0.774 -0.719,0.14 -1.739,0.479 -2.268,0.756 -0.529,0.276 -1.509,0.502 -2.178,0.504 -0.668,10e-4 -2.029,0.3 -3.024,0.664 -1.627,0.595 -3.085,0.644 -14.475,0.49 -23.223,-0.315 -31.31,-0.067 -32.184,0.985 -0.232,0.28 -0.923,0.51 -1.534,0.51 -0.964,0 -2.946,0.75 -6.32,2.393 -0.499,0.243 -2.402,0.442 -4.229,0.442 h -3.32 l -2.142,-2.264 c -1.177,-1.246 -2.4,-2.777 -2.716,-3.403 -0.317,-0.626 -0.797,-1.393 -1.068,-1.705 -0.27,-0.312 -0.935,-1.418 -1.477,-2.458 -0.542,-1.039 -1.141,-2.145 -1.33,-2.457 -0.189,-0.312 -0.725,-1.375 -1.19,-2.363 -0.466,-0.988 -0.978,-1.796 -1.137,-1.796 -0.16,0 -0.513,-0.403 -0.784,-0.896 -0.271,-0.492 -0.871,-1.582 -1.334,-2.422 -0.462,-0.84 -1.832,-2.776 -3.044,-4.303 -1.214,-1.528 -2.618,-3.838 -3.123,-5.139 -0.505,-1.3 -1.134,-2.363 -1.398,-2.363 -0.263,0 -0.479,-0.17 -0.479,-0.378 0,-0.59 1.438,-0.444 1.788,0.182 0.52,0.928 2.649,1.178 2.819,0.331 0.077,-0.386 -0.034,-0.927 -0.248,-1.202 -0.744,-0.956 -1.594,-1.771 -2.313,-2.219 -0.694,-0.432 -0.69,-0.451 0.101,-0.472 0.453,-0.013 1.091,0.244 1.417,0.57 0.801,0.802 2.246,0.357 1.992,-0.614 -0.236,-0.904 1.588,-2.301 3.873,-2.966 l 1.678,-0.488 1.616,1.832 c 0.888,1.008 1.621,1.978 1.629,2.156 0.048,1.062 6.65,8.228 9.107,9.884 0.926,0.624 1.853,1.265 2.061,1.424 1.394,1.064 3.336,2.168 3.816,2.168 0.313,0 1.113,0.281 1.777,0.625 1.798,0.929 17.061,0.945 19.549,0.019 0.936,-0.348 2.126,-0.641 2.646,-0.651 0.52,-0.01 1.626,-0.347 2.458,-0.749 0.832,-0.402 2.022,-0.74 2.646,-0.752 0.624,-0.011 1.876,-0.357 2.783,-0.769 0.906,-0.411 2.042,-0.747 2.525,-0.747 0.482,0 1.103,-0.227 1.38,-0.504 0.277,-0.277 1.398,-0.61 2.491,-0.739 1.093,-0.13 2.362,-0.499 2.821,-0.82 0.459,-0.321 1.57,-0.584 2.47,-0.584 0.9,0 2.134,-0.257 2.742,-0.572 0.608,-0.314 2.173,-0.678 3.478,-0.808 1.305,-0.13 2.574,-0.394 2.819,-0.587 0.246,-0.193 1.574,-0.511 2.952,-0.706 1.378,-0.195 2.997,-0.609 3.599,-0.92 0.601,-0.311 1.995,-0.567 3.097,-0.568 1.102,-10e-4 2.439,-0.23 2.971,-0.507 0.533,-0.278 1.703,-0.623 2.6,-0.766 0.898,-0.144 1.989,-0.511 2.425,-0.816 0.436,-0.306 1.308,-0.556 1.937,-0.558 0.63,-10e-4 1.655,-0.34 2.279,-0.753 0.624,-0.414 1.496,-0.753 1.938,-0.754 0.443,-10e-4 1.017,-0.258 1.275,-0.57 0.259,-0.312 0.768,-0.567 1.13,-0.567 0.362,0 1.065,-0.317 1.561,-0.704 0.495,-0.387 1.326,-0.833 1.846,-0.991 0.52,-0.158 1.133,-0.437 1.362,-0.619 0.23,-0.183 1.505,-0.441 2.836,-0.574 1.33,-0.133 2.844,-0.451 3.364,-0.706 0.52,-0.255 2.449,-0.581 4.288,-0.726 1.838,-0.144 3.795,-0.446 4.348,-0.67 0.552,-0.225 3.642,-0.533 6.865,-0.685 3.223,-0.152 6.54,-0.477 7.372,-0.722 2.975,-0.875 25.278,-1.343 27.694,-0.581 m 97.199,0.062 c 0.951,0.25 0.926,0.278 -0.47,0.515 -2.13,0.363 -3.238,0.042 -2.278,-0.66 0.389,-0.284 0.94,-0.427 1.225,-0.318 0.286,0.11 0.971,0.318 1.523,0.463 m 26.336,0.609 c 0.624,0.347 1.751,0.633 2.506,0.634 0.755,10e-4 1.582,0.257 1.842,0.569 0.259,0.312 0.852,0.567 1.318,0.567 0.467,0 1.281,0.341 1.809,0.756 0.529,0.416 1.121,0.757 1.316,0.757 0.195,0 0.662,0.34 1.039,0.756 0.376,0.416 0.977,0.756 1.335,0.756 0.358,0 0.858,0.249 1.11,0.552 0.252,0.304 0.826,0.665 1.275,0.801 0.449,0.137 1.072,0.466 1.384,0.732 0.312,0.266 0.874,0.543 1.248,0.617 1.537,0.301 0.675,0.906 -1.626,1.141 -9.597,0.98 -15.231,0.641 -16.889,-1.018 -0.281,-0.281 -1.318,-0.619 -2.303,-0.751 -0.985,-0.132 -2.302,-0.42 -2.926,-0.64 -1.72,-0.607 -12.477,-0.835 -14.933,-0.316 -1.144,0.241 -3.356,0.651 -4.915,0.912 -1.56,0.26 -3.227,0.686 -3.704,0.945 -1.841,1.002 -3.193,0.432 -4.33,-1.824 -1.698,-3.368 -1.344,-4.157 1.872,-4.17 0.665,-0.003 2.19,-0.261 3.387,-0.573 1.198,-0.312 3.63,-0.58 5.406,-0.597 2.991,-0.028 5.438,-0.242 12.302,-1.075 4.33,-0.526 11.149,-0.269 12.477,0.469 m 82.84,-0.283 c -0.151,0.394 -0.482,0.512 -0.984,0.353 -0.416,-0.132 -1.355,-0.024 -2.085,0.24 -1.049,0.38 -1.685,0.386 -3.017,0.029 -1.28,-0.342 -1.919,-0.346 -2.643,-0.016 -2.026,0.923 -0.737,1.48 3.205,1.384 1.351,-0.033 2.908,0.07 3.46,0.228 0.768,0.22 1.188,0.102 1.796,-0.506 1.104,-1.104 1.064,-1.128 3.936,2.395 1.416,1.738 3.33,3.637 4.253,4.22 0.923,0.583 1.677,1.299 1.677,1.59 0,0.291 0.24,1.065 0.532,1.72 0.292,0.655 0.625,2.564 0.739,4.241 0.297,4.374 1.037,6.063 1.396,3.189 0.346,-2.768 -0.003,-6.699 -0.642,-7.229 -0.282,-0.234 -0.512,-0.584 -0.512,-0.778 0,-0.36 -1.319,-3.535 -1.809,-4.356 -3.33,-5.574 -8.348,-9.191 -9.302,-6.704 m -240.78,0.046 c -0.364,0.095 -0.959,0.095 -1.323,0 -0.364,-0.096 -0.066,-0.173 0.662,-0.173 0.728,0 1.025,0.077 0.661,0.173 m 224.438,0.942 c -0.347,0.561 0.393,1.125 1.113,0.848 0.347,-0.133 0.631,-0.374 0.631,-0.535 0,-0.463 -1.486,-0.73 -1.744,-0.313 m -236.441,0.309 c 0,0.208 -0.723,0.376 -1.607,0.372 -1.177,-0.004 -1.455,-0.103 -1.04,-0.372 0.747,-0.482 2.647,-0.482 2.647,0 m 133.081,-0.075 c 0,0.718 -0.883,1.168 -1.57,0.8 -1.053,-0.563 -0.84,-1.103 0.436,-1.103 0.623,0 1.134,0.136 1.134,0.303 M 13.308,265.86 c -0.353,0.353 -0.454,0.252 -0.454,-0.454 0,-0.705 0.101,-0.806 0.454,-0.453 0.353,0.353 0.353,0.554 0,0.907 m 342.72,-0.78 c -0.942,0.535 -0.15,1.461 1.25,1.461 1.026,0 2.214,-0.905 1.625,-1.238 -0.81,-0.457 -2.264,-0.57 -2.875,-0.223 m 31.383,0.61 c 0.133,0.364 0.663,1.172 1.178,1.796 0.865,1.048 0.883,1.145 0.234,1.272 -0.387,0.075 -0.761,-0.036 -0.832,-0.249 -0.071,-0.212 -0.46,-0.768 -0.865,-1.235 -0.786,-0.906 -0.993,-2.246 -0.347,-2.246 0.215,0 0.499,0.298 0.632,0.662 m -265.384,-0.024 c -0.361,0.095 -1.042,0.098 -1.512,0.008 -0.47,-0.091 -0.175,-0.168 0.657,-0.172 0.832,-0.004 1.217,0.07 0.855,0.164 m 187.992,0.118 c 0,0.479 -0.773,0.479 -1.512,0 -0.442,-0.285 -0.338,-0.367 0.472,-0.372 0.572,-0.003 1.04,0.165 1.04,0.372 m 30.246,2.504 c 0,2.141 -0.08,2.438 -0.547,2.05 -0.406,-0.337 -0.455,-0.695 -0.189,-1.394 0.197,-0.517 0.358,-1.44 0.358,-2.05 0,-0.61 0.085,-1.11 0.189,-1.11 0.104,0 0.189,1.127 0.189,2.504 m -19.849,-1.173 c -1.923,1.181 -1.939,1.848 -0.048,2.003 1.928,0.158 4.138,-1.656 3.017,-2.475 -0.894,-0.654 -1.22,-0.602 -2.969,0.472 m -8.351,-0.346 c 0.328,0.126 0.502,0.381 0.387,0.567 -0.328,0.531 -1.536,0.397 -2.055,-0.228 -0.513,-0.619 0.436,-0.811 1.668,-0.339 m -304.24,1.502 c 0.074,0.224 -0.296,0.604 -0.821,0.843 -0.885,0.403 -0.955,0.365 -0.955,-0.528 0,-0.996 1.467,-1.255 1.776,-0.315 m 359.358,-0.142 c -0.775,0.775 -0.531,2.755 0.474,3.838 1.266,1.367 1.619,1.265 2.12,-0.606 0.236,-0.884 0.602,-1.817 0.813,-2.075 1.06,-1.293 -2.172,-2.392 -3.407,-1.157 m 5.349,0.018 c -0.161,0.26 -0.42,1.408 -0.576,2.552 -0.157,1.144 -0.333,2.42 -0.393,2.836 -0.147,1.035 1.752,1.305 2.14,0.304 1.251,-3.232 0.267,-8.019 -1.171,-5.692 m -257.976,0.284 c 0,0.208 -0.436,0.378 -0.968,0.378 -0.548,0 -0.866,-0.164 -0.734,-0.378 0.129,-0.208 0.564,-0.378 0.968,-0.378 0.404,0 0.734,0.17 0.734,0.378 m 199.622,0 c 0,0.208 -0.245,0.378 -0.545,0.378 -0.3,0 -0.65,-0.17 -0.779,-0.378 -0.128,-0.208 0.117,-0.378 0.545,-0.378 0.428,0 0.779,0.17 0.779,0.378 m 24.021,1.607 c 0.219,0.886 0.14,1.04 -0.54,1.04 -0.623,0 -0.797,-0.234 -0.797,-1.072 0,-1.956 0.852,-1.935 1.337,0.032 m 31.05,-0.636 c 0.335,0.873 -0.308,1.269 -1.385,0.854 -0.919,-0.355 -0.925,-0.38 -0.211,-0.906 0.942,-0.695 1.314,-0.683 1.596,0.052 m -257.812,0.424 c -0.364,0.095 -0.96,0.095 -1.324,0 -0.363,-0.095 -0.066,-0.173 0.662,-0.173 0.728,0 1.026,0.078 0.662,0.173 m 174.116,0.017 c -1.085,0.077 -2.956,0.077 -4.159,0.002 -1.203,-0.075 -0.316,-0.138 1.971,-0.138 2.287,-10e-4 3.272,0.06 2.188,0.136 m 87.982,0.856 c 0,0.624 -0.17,1.135 -0.378,1.135 -0.208,0 -0.378,-0.511 -0.378,-1.135 0,-0.623 0.17,-1.134 0.378,-1.134 0.208,0 0.378,0.511 0.378,1.134 m -366.019,1.405 0.991,0.837 -1.796,0.013 c -0.988,0.008 -1.796,-0.156 -1.796,-0.364 0,-0.208 0.167,-0.378 0.371,-0.378 0.204,0 0.488,-0.467 0.631,-1.037 0.165,-0.659 0.324,-0.831 0.435,-0.473 0.095,0.311 0.62,0.941 1.164,1.402 m 371.738,-1.273 c -0.321,0.387 -0.264,0.65 0.237,1.092 0.7,0.619 2.035,0.366 2.56,-0.483 0.606,-0.98 -2.016,-1.55 -2.797,-0.609 m -270.747,0.247 c 0,0.207 -0.521,0.378 -1.157,0.378 -0.675,0 -1.059,-0.158 -0.923,-0.378 0.129,-0.208 0.649,-0.379 1.157,-0.379 0.507,0 0.923,0.171 0.923,0.379 m 165.758,-0.043 c 0.272,0.44 -2.853,0.903 -3.756,0.557 -0.673,-0.258 -0.672,-0.28 0.029,-0.554 1.027,-0.402 3.479,-0.404 3.727,-0.003 m 21.387,0.043 c 0.415,0.267 0.129,0.368 -1.062,0.372 -0.991,0.003 -1.537,-0.142 -1.395,-0.372 0.296,-0.48 1.715,-0.48 2.457,0 m -26.269,1.203 c 0.293,0.293 -2.586,1.151 -3.881,1.156 -0.892,0.004 -2.084,-0.762 -1.828,-1.174 0.201,-0.324 5.382,-0.308 5.709,0.018 m 53.369,0.119 c 3.019,0.487 3.187,0.575 3.767,1.962 0.314,0.752 0.941,1.679 1.393,2.059 l 0.821,0.692 -0.85,0.24 c -0.965,0.272 -1.137,1.2 -0.284,1.527 0.312,0.12 0.567,0.457 0.567,0.748 0,0.292 0.341,0.822 0.756,1.178 0.514,0.44 0.757,1.115 0.757,2.107 0,1.675 -0.741,1.77 -1.174,0.151 -0.148,-0.554 -0.54,-1.278 -0.871,-1.609 -0.331,-0.331 -0.602,-0.838 -0.602,-1.127 0,-0.691 -2.581,-3.227 -4.827,-4.742 l -1.784,-1.204 -5.863,0.031 c -3.224,0.017 -6.798,0.069 -7.942,0.116 -1.143,0.047 -2.76,-0.049 -3.591,-0.213 -3.04,-0.601 0.079,-0.975 7.313,-0.877 6.663,0.091 7.137,0.05 8.566,-0.739 0.831,-0.459 1.712,-0.767 1.958,-0.684 0.245,0.083 1.095,0.256 1.89,0.384 M 97.44,274 c -0.785,0.082 -1.976,0.08 -2.647,-0.003 -0.671,-0.084 -0.029,-0.151 1.426,-0.149 1.456,0.002 2.005,0.07 1.221,0.152 m 78.703,3.032 c -0.033,2.159 -0.086,2.353 -0.344,1.258 -0.274,-1.165 -0.106,-3.81 0.243,-3.81 0.077,0 0.122,1.149 0.101,2.552 M 92.25,275.187 c 0,0.392 -2.22,0.795 -4.411,0.801 -0.867,0.003 -1.642,0.204 -1.723,0.448 -0.184,0.549 -4.831,0.942 -4.831,0.407 0,-0.372 2.045,-0.838 3.714,-0.846 0.482,-0.003 1.133,-0.26 1.444,-0.572 0.623,-0.622 5.807,-0.835 5.807,-0.238 m -12.099,2.925 c 0,0.082 -0.808,0.126 -1.796,0.099 -1.719,-0.048 -1.739,-0.06 -0.472,-0.302 1.232,-0.235 2.268,-0.142 2.268,0.203 m 266.327,3.326 c -0.147,0.587 -0.009,1.265 0.367,1.801 0.332,0.474 0.603,1.138 0.603,1.476 0,1.18 2.205,3.754 3.216,3.754 1.289,0 1.183,-0.675 -0.381,-2.432 -0.727,-0.817 -1.323,-1.758 -1.323,-2.09 0,-0.332 -0.34,-0.894 -0.756,-1.251 -0.416,-0.356 -0.756,-0.894 -0.756,-1.196 0,-0.981 -0.728,-1.027 -0.97,-0.062 m -99.662,0.747 c 0.162,1.414 -0.374,1.943 -1.407,1.391 -0.887,-0.475 -1.042,-1.516 -0.332,-2.226 0.747,-0.747 1.605,-0.335 1.739,0.835 m 85.509,0.235 c 0,0.931 -0.697,1.348 -0.988,0.591 -0.298,-0.777 0.122,-1.838 0.607,-1.538 0.21,0.129 0.381,0.555 0.381,0.947 M 64.938,282.301 c -0.361,0.095 -1.042,0.098 -1.512,0.008 -0.47,-0.09 -0.175,-0.168 0.657,-0.172 0.832,-0.004 1.217,0.07 0.855,0.164 m -28.076,1.253 c 0.136,0.22 -0.248,0.378 -0.923,0.378 -0.636,0 -1.156,-0.17 -1.156,-0.378 0,-0.208 0.415,-0.378 0.922,-0.378 0.508,0 1.028,0.17 1.157,0.378 m 22.873,0 c 0,0.208 -0.723,0.375 -1.606,0.372 -1.177,-0.004 -1.455,-0.104 -1.04,-0.372 0.746,-0.483 2.646,-0.483 2.646,0 m 273.698,2.741 c -0.02,1.458 -0.113,1.784 -0.352,1.229 -0.455,-1.059 -0.455,-3.214 0,-3.214 0.208,0 0.366,0.893 0.352,1.985 m 42.159,-1.43 c -0.404,0.305 -1.181,0.561 -1.727,0.567 -1.289,0.016 -2.228,1.039 -1.44,1.57 0.866,0.583 3.752,0.127 4.607,-0.728 1.388,-1.388 0.143,-2.606 -1.44,-1.409 m -321.906,0.201 c -0.675,0.436 -12.627,0.436 -13.988,0 -0.545,-0.174 2.341,-0.316 6.805,-0.334 5.13,-0.022 7.559,0.092 7.183,0.334 m 277.045,3.917 c 0.06,2.236 -0.062,4.335 -0.272,4.695 -0.328,0.562 -0.383,0.522 -0.404,-0.294 -0.014,-0.52 -0.103,-2.703 -0.198,-4.851 -0.132,-3.001 -0.063,-3.87 0.298,-3.75 0.325,0.108 0.502,1.396 0.576,4.2 m 1.663,-0.457 c 0.82,7.344 -0.53,11.343 -4.702,13.931 -0.838,0.52 -1.713,1.129 -1.945,1.354 -0.454,0.438 -1.952,1.294 -3.887,2.219 -0.662,0.316 -1.31,0.748 -1.441,0.959 -0.13,0.211 -0.506,0.383 -0.835,0.383 -0.329,0 -1.297,0.323 -2.151,0.717 -0.855,0.395 -2.575,0.889 -3.822,1.098 -1.248,0.209 -2.949,0.563 -3.781,0.786 -2.499,0.671 -20.087,0.548 -22.341,-0.155 -1.021,-0.319 -3.727,-0.668 -6.015,-0.777 -2.287,-0.109 -5.604,-0.483 -7.372,-0.831 -4.706,-0.928 -18.63,-0.919 -21.524,0.013 -3.488,1.124 -5.205,0.926 -5.974,-0.687 -0.829,-1.737 -0.152,-3.167 1.802,-3.805 1.716,-0.56 1.685,-1.389 -0.061,-1.673 -3.922,-0.637 -4.9,-4.075 -3.619,-12.723 0.588,-3.966 0.923,-4.323 2.823,-3.007 0.798,0.554 1.747,1.007 2.107,1.007 0.36,0 1.031,0.235 1.492,0.522 0.46,0.287 1.582,0.633 2.492,0.768 0.91,0.136 2.011,0.496 2.447,0.801 0.435,0.305 1.033,0.555 1.328,0.555 0.295,0 1.235,0.322 2.09,0.715 0.854,0.393 2.319,1.019 3.255,1.39 0.936,0.372 2.382,0.966 3.214,1.322 0.831,0.355 2.076,0.767 2.766,0.914 0.69,0.147 1.711,0.505 2.268,0.796 0.558,0.291 1.321,0.531 1.695,0.532 0.374,0.001 1.14,0.236 1.701,0.521 0.562,0.286 2.005,0.639 3.207,0.785 1.203,0.146 2.649,0.507 3.214,0.802 0.565,0.295 1.708,0.541 2.54,0.547 0.832,0.007 2.193,0.191 3.024,0.409 0.832,0.219 2.273,0.534 3.203,0.7 1.034,0.185 1.84,0.577 2.079,1.011 0.621,1.131 3.339,3.684 4.562,4.285 0.616,0.303 1.376,0.753 1.688,1 3.158,2.506 13.698,2.48 18.205,-0.044 0.552,-0.309 1.263,-0.562 1.579,-0.562 0.484,0 3.059,-1.248 7.657,-3.71 1.418,-0.759 4.695,-4.399 4.695,-5.214 0,-0.154 0.287,-0.597 0.638,-0.984 0.582,-0.644 0.868,-3.888 0.873,-9.909 0.002,-1.799 0.467,0.026 0.826,3.239 M 251.796,286.2 c 0.754,0.242 0.563,0.31 -0.945,0.335 -1.35,0.023 -1.729,-0.073 -1.324,-0.335 0.65,-0.42 0.957,-0.42 2.269,0 m 114.457,1.717 c -1.113,1.032 -1.262,1.691 -0.644,2.845 0.543,1.015 0.774,0.926 2.044,-0.79 0.723,-0.977 1.41,-1.503 1.962,-1.503 1.04,0 1.562,-0.72 0.849,-1.171 -1.066,-0.675 -3.144,-0.37 -4.211,0.619 m -109.466,-0.015 c -0.139,0.467 -2.772,0.278 -3.29,-0.237 -0.251,-0.249 0.259,-0.336 1.512,-0.259 1.04,0.065 1.84,0.288 1.778,0.496 m -82.118,3.34 c -0.252,0.625 -0.328,0.372 -0.321,-1.072 0.007,-1.633 0.052,-1.745 0.33,-0.818 0.179,0.597 0.175,1.434 -0.009,1.89 m 84.972,-2.535 c 1.292,0.346 1.016,0.896 -0.45,0.896 -1.273,0 -1.944,-0.41 -1.462,-0.892 0.299,-0.299 0.808,-0.3 1.912,-0.004 m 3.821,1.611 c 0.797,0.505 -0.149,0.896 -1.467,0.606 -0.619,-0.136 -1.125,-0.403 -1.125,-0.595 0,-0.438 1.906,-0.446 2.592,-0.011 m -135.002,0.316 c -0.774,0.081 -2.135,0.082 -3.025,0.002 -0.889,-0.079 -0.255,-0.146 1.408,-0.147 1.664,-0.002 2.391,0.064 1.617,0.145 m -8.233,1.237 c 0,0.208 -0.35,0.379 -0.779,0.379 -0.428,0 -0.673,-0.171 -0.544,-0.379 0.128,-0.207 0.478,-0.378 0.778,-0.378 0.3,0 0.545,0.171 0.545,0.378 m 20.605,0 c 0.146,0.238 -0.682,0.379 -2.224,0.379 -1.352,0 -2.563,-0.171 -2.691,-0.379 -0.147,-0.237 0.682,-0.378 2.224,-0.378 1.351,0 2.562,0.171 2.691,0.378 m 126.087,0 c 0,0.208 -0.501,0.379 -1.112,0.379 -0.612,0 -1.217,-0.171 -1.346,-0.379 -0.139,-0.225 0.311,-0.378 1.112,-0.378 0.74,0 1.346,0.171 1.346,0.378 m 91.995,0.095 c -0.164,0.26 -0.316,1.287 -0.338,2.284 -0.034,1.549 -0.241,2.016 -1.433,3.237 -0.766,0.784 -1.276,1.543 -1.133,1.686 0.462,0.462 1.918,0.276 2.402,-0.307 0.741,-0.893 2.245,-0.673 5.104,0.75 1.456,0.724 3.029,1.319 3.497,1.323 0.468,0.003 0.851,0.173 0.851,0.377 0,0.795 1.826,0.811 3.359,0.03 1.732,-0.884 2.133,-2.153 0.745,-2.359 -0.772,-0.116 -0.755,-0.181 0.378,-1.39 1.309,-1.397 1.484,-1.945 0.622,-1.945 -0.312,0 -0.567,0.255 -0.567,0.567 0,0.312 -0.17,0.567 -0.378,0.567 -0.529,0 -0.472,-0.888 0.094,-1.462 0.379,-0.384 0.323,-0.584 -0.283,-1.008 -0.416,-0.29 -0.962,-0.704 -1.213,-0.919 -0.251,-0.215 -0.762,-0.378 -1.134,-0.361 -0.397,0.017 -0.482,0.109 -0.205,0.22 0.649,0.262 0.594,1.447 -0.095,2.018 -0.746,0.619 -0.717,1.568 0.092,2.978 1.536,2.675 -2.61,2.32 -5.72,-0.491 -0.938,-0.848 -2.153,-1.858 -2.701,-2.244 -0.778,-0.55 -0.944,-0.907 -0.76,-1.639 0.423,-1.686 -0.443,-3.085 -1.184,-1.912 m -242.184,1.3 c -0.364,0.095 -0.96,0.095 -1.324,0 -0.363,-0.095 -0.066,-0.173 0.662,-0.173 0.728,0 1.026,0.078 0.662,0.173 m 31.38,0 c -0.364,0.095 -0.96,0.095 -1.324,0 -0.364,-0.095 -0.066,-0.173 0.662,-0.173 0.728,0 1.026,0.078 0.662,0.173 m 121.739,0 c -0.364,0.095 -0.96,0.095 -1.323,0 -0.364,-0.095 -0.067,-0.173 0.661,-0.173 0.728,0 1.026,0.078 0.662,0.173 m 93.137,0.641 c -0.875,1.054 -0.072,1.817 1.62,1.538 2.327,-0.383 2.911,-0.792 1.746,-1.223 -2.018,-0.746 -2.938,-0.832 -3.366,-0.315 m -208.26,0.878 c -0.468,0.09 -1.234,0.09 -1.701,0 -0.468,-0.09 -0.085,-0.164 0.85,-0.164 0.936,0 1.319,0.074 0.851,0.164 m 119.664,-0.007 c -0.361,0.094 -1.042,0.098 -1.512,0.007 -0.471,-0.09 -0.175,-0.168 0.657,-0.172 0.832,-0.004 1.217,0.07 0.855,0.165 m 54.565,1.75 c -0.295,0.294 -0.411,0.14 -0.411,-0.548 0,-1.247 0.53,-1.78 0.694,-0.698 0.07,0.459 -0.058,1.02 -0.283,1.246 M 109.074,296.03 c -0.129,0.208 -0.489,0.378 -0.801,0.378 -0.312,0 -0.462,-0.17 -0.333,-0.378 0.128,-0.208 0.488,-0.378 0.8,-0.378 0.312,0 0.462,0.17 0.334,0.378 m 52.93,0 c 0.301,0.488 -1.703,0.488 -2.458,0 -0.422,-0.273 -0.212,-0.368 0.829,-0.372 0.767,-0.003 1.5,0.164 1.629,0.372 m 116.635,0 c 0,0.208 -0.245,0.378 -0.545,0.378 -0.299,0 -0.65,-0.17 -0.778,-0.378 -0.129,-0.208 0.116,-0.378 0.544,-0.378 0.429,0 0.779,0.17 0.779,0.378 m 54.718,2.174 c -0.151,0.63 -0.172,0.63 -0.447,0 -0.158,-0.364 -0.158,-0.959 0,-1.323 0.363,-0.833 0.713,0.207 0.447,1.323 m 28.383,-0.862 c 0.11,0.11 -0.503,0.201 -1.363,0.201 -1.189,0 -1.514,-0.128 -1.359,-0.533 0.194,-0.505 2.121,-0.27 2.722,0.332 m -185.531,1.789 c -0.12,0.146 -1.069,0.132 -2.108,-0.032 l -1.889,-0.297 1.428,-0.296 c 0.853,-0.176 1.607,-0.62 1.874,-1.102 0.433,-0.781 0.455,-0.77 0.68,0.328 0.128,0.623 0.135,1.253 0.015,1.399 m 117.749,-1.43 c 0.501,0.329 1.3,0.6 1.775,0.603 0.476,0.004 1.12,0.171 1.431,0.373 0.417,0.269 0.147,0.368 -1.012,0.372 -1.456,0.005 -2.768,0.714 -2.768,1.495 0,0.166 -0.608,-0.272 -1.35,-0.972 -0.891,-0.84 -1.722,-1.273 -2.442,-1.273 -2.536,0 -7.014,-0.884 -6.038,-1.192 1.649,-0.52 9.377,-0.078 10.404,0.594 m 34.208,-0.503 c 0,0.696 -2.761,3.369 -3.48,3.369 -0.899,0 -0.87,-0.644 0.043,-0.934 0.396,-0.126 0.816,-0.478 0.933,-0.782 0.117,-0.304 0.453,-0.552 0.747,-0.552 0.294,0 0.624,-0.341 0.733,-0.756 0.206,-0.788 1.024,-1.063 1.024,-0.345 m -159.073,0.24 c -0.676,0.084 -1.782,0.084 -2.458,0 -0.676,-0.084 -0.123,-0.153 1.229,-0.153 1.352,0 1.904,0.069 1.229,0.153 m -138.616,1.17 c -0.713,1.154 1.719,2.337 4.793,2.331 5.273,-0.009 5.616,-1.255 0.465,-1.684 -1.77,-0.147 -3.314,-0.423 -3.431,-0.612 -0.264,-0.428 -1.568,-0.453 -1.827,-0.035 m 71.98,0.069 c 0.426,0.275 0.237,0.366 -0.756,0.366 -0.992,0 -1.181,-0.091 -0.756,-0.366 0.312,-0.202 0.652,-0.367 0.756,-0.367 0.104,0 0.445,0.165 0.756,0.367 m 231.475,0.904 c 0.844,0.641 0.841,0.986 -0.009,0.986 -0.368,0 -1.574,0.596 -2.679,1.323 -2.085,1.374 -2.7,1.589 -2.7,0.946 0,-0.208 0.224,-0.379 0.496,-0.379 0.517,0 1.834,-1.597 2.259,-2.741 0.29,-0.78 1.689,-0.852 2.633,-0.135 m -34.417,0.937 c 0.563,0.597 0.924,1.185 0.802,1.307 -0.327,0.327 -2.803,-1.662 -2.559,-2.056 0.335,-0.543 0.672,-0.4 1.757,0.749 m -54.964,0.805 c 0.73,0 1.245,2.296 0.81,3.614 -0.536,1.625 -0.486,1.664 -1.47,-1.143 -0.949,-2.705 -0.969,-2.998 -0.193,-2.7 0.329,0.126 0.713,0.229 0.853,0.229 m -149.933,0.266 c -0.465,0.09 -1.316,0.092 -1.891,0.006 -0.574,-0.087 -0.194,-0.161 0.846,-0.164 1.039,-0.002 1.51,0.069 1.045,0.158 m 89.791,-0.006 c -0.362,0.095 -1.042,0.098 -1.512,0.008 -0.471,-0.091 -0.175,-0.168 0.657,-0.172 0.832,-0.005 1.216,0.069 0.855,0.164 m 138.495,0.154 c -0.606,0.242 -1.047,0.234 -1.305,-0.024 -0.267,-0.268 0.02,-0.382 0.915,-0.366 1.226,0.023 1.249,0.046 0.39,0.39 m 27.34,0.944 c 0.25,0.65 -0.003,1.289 -0.509,1.289 -0.424,0 -0.831,-1.116 -0.565,-1.547 0.327,-0.527 0.818,-0.409 1.074,0.258 M 89.981,302.93 c 0,0.156 -6.082,0.263 -13.516,0.239 -7.434,-0.025 -13.006,-0.16 -12.382,-0.301 1.55,-0.351 25.898,-0.292 25.898,0.062 m 100.378,-0.094 c 0.63,0.27 0.548,0.329 -0.495,0.351 -0.743,0.016 -1.156,-0.127 -1.017,-0.351 0.272,-0.441 0.486,-0.441 1.512,0 m 130.624,0 c 0,0.207 -0.435,0.378 -0.968,0.378 -0.548,0 -0.866,-0.164 -0.733,-0.378 0.128,-0.208 0.564,-0.379 0.967,-0.379 0.404,0 0.734,0.171 0.734,0.379 M 48.11,303.102 c -0.468,0.09 -1.234,0.09 -1.702,0 -0.468,-0.09 -0.085,-0.163 0.851,-0.163 0.936,0 1.319,0.073 0.851,0.163 m 279.718,1.358 c -0.486,0.485 -0.978,0.11 -0.619,-0.471 0.14,-0.225 0.427,-0.303 0.638,-0.172 0.259,0.16 0.252,0.371 -0.019,0.643 m -2.484,1.491 c -0.715,0.4 -1.159,0.161 -0.795,-0.427 0.131,-0.213 0.507,-0.284 0.835,-0.158 0.533,0.204 0.529,0.267 -0.04,0.585 m -23.355,-0.209 c -0.361,0.094 -1.042,0.098 -1.512,0.007 -0.47,-0.09 -0.175,-0.167 0.657,-0.172 0.832,-0.004 1.217,0.07 0.855,0.165 m 11.721,0 c -0.362,0.094 -1.042,0.098 -1.513,0.007 -0.47,-0.09 -0.174,-0.167 0.657,-0.172 0.832,-0.004 1.217,0.07 0.856,0.165 m 9.919,1.252 c 0,0.208 -0.467,0.376 -1.039,0.373 -0.81,-0.005 -0.915,-0.087 -0.473,-0.373 0.74,-0.478 1.512,-0.478 1.512,0 m -72.314,2.923 c -0.785,0.082 -1.976,0.08 -2.647,-0.003 -0.671,-0.084 -0.029,-0.151 1.427,-0.149 1.455,0.002 2.004,0.07 1.22,0.152"
       inkscape:connector-curvature="0"
       style="fill:#ffffff;fill-rule:evenodd;stroke:none" />
  </g>
</svg>
