<?xml version="1.0" encoding="UTF-8" standalone="no"?>
<svg
   xmlns:dc="http://purl.org/dc/elements/1.1/"
   xmlns:cc="http://creativecommons.org/ns#"
   xmlns:rdf="http://www.w3.org/1999/02/22-rdf-syntax-ns#"
   xmlns:svg="http://www.w3.org/2000/svg"
   xmlns="http://www.w3.org/2000/svg"
   xmlns:sodipodi="http://sodipodi.sourceforge.net/DTD/sodipodi-0.dtd"
   xmlns:inkscape="http://www.inkscape.org/namespaces/inkscape"
   id="svg"
   version="1.1"
   width="400"
   height="377.93103448275866"
   viewBox="0, 0, 400,377.93103448275866"
   sodipodi:docname="C25-26.svg"
   inkscape:version="0.92.5 (2060ec1f9f, 2020-04-08)">
  <metadata
     id="metadata11">
    <rdf:RDF>
      <cc:Work
         rdf:about="">
        <dc:format>image/svg+xml</dc:format>
        <dc:type
           rdf:resource="http://purl.org/dc/dcmitype/StillImage" />
      </cc:Work>
    </rdf:RDF>
  </metadata>
  <defs
     id="defs9" />
  <sodipodi:namedview
     pagecolor="#ffffff"
     bordercolor="#666666"
     borderopacity="1"
     objecttolerance="10"
     gridtolerance="10"
     guidetolerance="10"
     inkscape:pageopacity="0"
     inkscape:pageshadow="2"
     inkscape:window-width="1366"
     inkscape:window-height="689"
     id="namedview7"
     showgrid="false"
     inkscape:zoom="0.62445256"
     inkscape:cx="200"
     inkscape:cy="188.96552"
     inkscape:window-x="0"
     inkscape:window-y="0"
     inkscape:window-maximized="1"
     inkscape:current-layer="svg" />
  <path
     style="fill:#ffffff;fill-rule:evenodd;stroke:none"
     inkscape:connector-curvature="0"
     d="m 210.5024,114.08271 c -1.106,0.576 -1.6,1.078 -1.607,1.635 -0.006,0.443 -0.266,1.016 -0.578,1.275 -0.569,0.473 -0.771,2.807 -0.34,3.932 0.467,1.217 3.554,-1.208 3.554,-2.791 0,-0.548 0.233,-1.315 0.517,-1.704 0.76,-1.039 1.462,0.43 1.319,2.76 -0.088,1.423 0.018,1.792 0.54,1.892 0.473,0.091 0.649,-0.13 0.649,-0.817 0,-1.562 0.381,-2.227 0.989,-1.723 0.723,0.6 0.66,2.496 -0.097,2.919 -0.35,0.196 -0.5,0.542 -0.344,0.794 0.196,0.317 0.643,0.167 1.54,-0.517 1.593,-1.215 1.609,-1.213 1.903,0.265 0.134,0.675 0.708,1.6 1.275,2.054 l 1.031,0.825 0.482,-1.88 0.482,-1.88 -1.873,-2.726 c -3.262,-4.75 -6.105,-6.048 -9.442,-4.313 m -5.571,0.448 c -1.199,0.98 -1.123,1.071 1.225,1.477 1.207,0.209 1.972,-0.592 1.972,-2.064 0,-0.695 -2.099,-0.31 -3.197,0.587 m -2.325,4.191 c -0.138,0.55 -0.059,1.158 0.182,1.399 0.315,0.316 0.426,0.065 0.426,-0.973 0,-1.629 -0.261,-1.811 -0.608,-0.426 m -1.358,3.527 c -0.239,1.626 0.308,2.315 0.639,0.806 0.15,-0.682 0.106,-1.385 -0.1,-1.591 -0.241,-0.24 -0.429,0.034 -0.539,0.785 m -1.511,4.669 c -0.158,2.646 0.076,4.093 0.641,3.962 0.555,-0.128 0.495,-6.32 -0.061,-6.323 -0.272,-10e-4 -0.493,0.898 -0.58,2.361 m 19.356,-0.073 c 0,0.675 0.157,1.06 0.378,0.923 0.208,-0.128 0.378,-0.649 0.378,-1.156 0,-0.508 -0.17,-0.923 -0.378,-0.923 -0.208,0 -0.378,0.52 -0.378,1.156 m -1.273,1.786 c -0.104,0.169 -0.055,0.526 0.111,0.794 0.234,0.38 0.349,0.358 0.525,-0.101 0.238,-0.62 -0.311,-1.219 -0.636,-0.693 m -16.62,4.948 c -0.354,2.101 0.145,7.99 0.532,6.287 0.331,-1.457 0.332,-5.341 0.002,-6.805 -0.25,-1.105 -0.264,-1.092 -0.534,0.518 m 15.349,1.184 c 0,0.935 0.074,1.318 0.164,0.85 0.09,-0.468 0.09,-1.233 0,-1.701 -0.09,-0.468 -0.164,-0.085 -0.164,0.851 m -18.026,12.041 c -0.164,0.488 -0.623,1.211 -1.018,1.606 -0.952,0.952 -1.007,4.677 -0.088,5.988 1.48,2.114 1.664,7.722 0.283,8.641 -0.221,0.148 -0.512,0.566 -0.646,0.93 -0.134,0.363 -0.505,0.661 -0.823,0.661 -0.318,0 -0.579,0.182 -0.579,0.404 0,0.612 1.413,0.039 2.444,-0.992 2.633,-2.633 3.333,-4.928 1.639,-5.371 -0.947,-0.248 -0.754,-2.594 0.413,-5.009 0.762,-1.577 0.153,-2.225 -1.004,-1.069 -1.083,1.084 -1.396,-2.389 -0.401,-4.454 0.213,-0.44 0.317,-1.121 0.233,-1.512 -0.135,-0.625 -0.19,-0.604 -0.453,0.177 m 9.032,1.954 c -1.33,0.492 -3.944,3.378 -3.697,4.081 0.72,2.046 2.202,2.757 2.512,1.205 0.209,-1.044 0.354,-1.134 1.812,-1.134 1.564,0 1.8,0.134 3.937,2.229 0.887,0.869 2.192,3.064 1.822,3.064 -0.476,0 -2.634,-1.296 -2.893,-1.737 -0.458,-0.781 -2.884,-1.108 -3.517,-0.474 -0.598,0.598 1.288,3.345 2.297,3.345 0.281,0 1.016,0.426 1.634,0.945 0.618,0.52 1.527,0.946 2.019,0.946 1.64,0 3.125,4.351 2.249,6.588 -0.278,0.708 -0.307,0.706 -1.088,-0.075 l -0.802,-0.802 -0.223,1.587 c -0.123,0.872 -0.07,3.117 0.117,4.989 l 0.341,3.403 0.051,-3.145 0.052,-3.144 2.079,-1.94 c 1.144,-1.066 2.079,-2.113 2.079,-2.325 0,-0.921 -1.279,-3.624 -1.715,-3.624 -0.638,0 -1.435,-2.294 -0.961,-2.768 0.555,-0.555 1.542,0.01 1.542,0.884 0,0.869 1.794,2.744 2.316,2.422 1.267,-0.783 -1.258,-11.124 -2.716,-11.124 -0.182,0 -0.571,-0.456 -0.863,-1.013 -0.495,-0.946 -0.68,-1.007 -2.797,-0.921 -1.688,0.069 -2.321,-0.046 -2.476,-0.451 -0.284,-0.74 -2.179,-1.356 -3.111,-1.011 m 3.22,2.64 c 0.898,0.897 0.974,1.512 0.189,1.512 -0.312,0 -0.567,-0.255 -0.567,-0.567 0,-0.312 -0.17,-0.567 -0.378,-0.567 -0.208,0 -0.378,-0.255 -0.378,-0.567 0,-0.754 0.229,-0.716 1.134,0.189 m -16.635,14.744 c 0,0.208 0.245,0.379 0.545,0.379 0.299,0 0.65,-0.171 0.778,-0.379 0.129,-0.207 -0.117,-0.378 -0.545,-0.378 -0.428,0 -0.778,0.171 -0.778,0.378 m -2.233,1.168 c -0.863,0.345 -0.874,0.39 -0.218,0.87 0.768,0.561 -1.074,2.877 -2.288,2.877 -0.384,0 -0.554,0.418 -0.554,1.365 0,1.222 0.088,1.343 0.85,1.162 3.785,-0.899 7.107,-0.595 8.698,0.796 0.366,0.319 0.762,0.482 0.881,0.363 0.308,-0.308 -0.95,-2.132 -1.773,-2.572 -0.973,-0.521 -0.469,-1.492 0.775,-1.492 0.99,0 3.759,1.746 3.788,2.389 0.016,0.374 1.804,2.833 2.742,3.772 0.373,0.373 0.949,1.09 1.279,1.594 0.445,0.68 0.915,0.903 1.828,0.869 0.676,-0.025 1.426,0.076 1.666,0.224 1.177,0.727 0.222,-1.711 -1.462,-3.737 -1.035,-1.244 -1.882,-2.435 -1.883,-2.646 -0.004,-1.031 -4.239,-5.111 -5.303,-5.111 -1.493,0 -2.911,0.706 -3.135,1.56 -0.255,0.976 -1.223,0.577 -3.011,-1.239 -1.554,-1.58 -1.546,-1.577 -2.88,-1.044 m -3.602,1.44 c -0.514,0.202 -0.596,0.37 -0.275,0.569 0.571,0.353 2.707,-0.089 2.707,-0.56 0,-0.411 -1.393,-0.416 -2.432,-0.009 m -2.294,1.551 c -0.128,0.208 0.022,0.378 0.334,0.378 0.312,0 0.672,-0.17 0.8,-0.378 0.129,-0.208 -0.021,-0.378 -0.333,-0.378 -0.312,0 -0.672,0.17 -0.801,0.378 m -1.323,1.708 c 0,0.834 -2.086,1.624 -5.005,1.895 -3.375,0.314 -4.054,1.668 -0.845,1.684 1.434,0.008 2.825,0.952 2.825,1.918 0,0.404 0.135,0.735 0.3,0.735 0.328,0 2.347,-3.934 2.347,-4.572 0,-0.219 0.255,-0.652 0.567,-0.964 0.65,-0.651 0.743,-1.27 0.189,-1.27 -0.208,0 -0.378,0.258 -0.378,0.574 m -14.083,3.852 c 0.468,0.09 1.233,0.09 1.701,0 0.468,-0.09 0.085,-0.164 -0.851,-0.164 -0.935,0 -1.318,0.074 -0.85,0.164 m -5.955,1.271 c -0.822,0.241 -0.761,0.282 0.473,0.315 1.439,0.038 1.801,-0.125 0.945,-0.426 -0.26,-0.091 -0.898,-0.041 -1.418,0.111 m 29.017,-0.183 c -0.122,0.122 0.06,0.549 0.403,0.95 0.585,0.684 0.639,0.688 0.867,0.063 0.372,-1.023 -0.536,-1.747 -1.27,-1.013 m -33.837,1.304 c -1.009,0.405 -1.13,1.123 -0.189,1.12 1.475,-0.005 3.63,-0.816 3.085,-1.161 -0.665,-0.421 -1.787,-0.405 -2.896,0.041 m 19.47,1.855 c -1.671,1.668 -1.73,1.868 -0.472,1.628 0.52,-0.099 0.945,-0.405 0.945,-0.678 0,-0.274 0.34,-0.606 0.756,-0.738 0.416,-0.132 0.756,-0.569 0.756,-0.97 0,-1.009 -0.345,-0.877 -1.985,0.758 m -23.345,-0.394 c -0.85,0.236 -0.873,0.291 -0.233,0.537 0.895,0.344 3.322,-0.086 3.042,-0.539 -0.237,-0.385 -1.426,-0.384 -2.809,0.002 m 41.035,1.15 c -0.141,0.228 0.108,1.005 0.553,1.726 0.923,1.493 0.76,2.655 -0.513,3.667 -1.359,1.079 -0.055,2.127 1.588,1.277 1.764,-0.913 2.111,-1.837 1.325,-3.532 -0.843,-1.82 -2.609,-3.695 -2.953,-3.138 m 17.624,0.307 c -0.191,0.364 -0.465,1.212 -0.61,1.886 -0.144,0.673 -0.675,1.548 -1.179,1.944 -1.241,0.977 -1.224,2.883 0.04,4.597 1.136,1.539 1.322,9.966 0.331,14.919 -0.764,3.816 -0.729,4.314 0.225,3.213 0.596,-0.686 0.757,-1.414 0.757,-3.429 0,-3.149 0.175,-3.63 1.592,-4.362 0.991,-0.513 1.061,-0.655 0.599,-1.215 -2.605,-3.162 -2.862,-10.791 -0.469,-13.929 1.065,-1.395 1.157,-2.11 0.357,-2.774 -0.312,-0.258 -0.567,-0.705 -0.567,-0.991 0,-0.734 -0.663,-0.648 -1.076,0.141 m -103.195,0.039 c -1.201,0.761 0.549,1.293 2.56,0.777 1.212,-0.31 1.73,-0.596 1.428,-0.788 -0.621,-0.394 -3.362,-0.387 -3.988,0.011 m 78.955,0.505 c -1.225,1.314 -0.718,2.265 0.726,1.363 0.61,-0.382 0.926,-0.386 1.51,-0.021 1.13,0.705 1.387,-0.169 0.369,-1.253 -1.064,-1.132 -1.616,-1.151 -2.605,-0.089 m -94.224999,-0.123 c 0.46,0.292 2.339,0.146 2.339,-0.182 0,-0.079 -0.638,-0.142 -1.418,-0.139 -0.904,0.004 -1.238,0.12 -0.921,0.321 m -6.024,3.09 c -2.907,2.827 -2.666,3.578 0.662,2.065 2.706,-1.231 3.92,-2.305 3.92,-3.468 0,-1.755 -1.949,-1.158 -4.582,1.403 m 19.704999,-0.959 -1.702,0.493 2.836,0.025 c 2.572,0.023 2.767,-0.027 2.102,-0.53 -0.852,-0.644 -0.974,-0.644 -3.236,0.012 m 113.799,0.185 c -0.674,0.219 -0.141,0.317 1.859,0.344 1.542,0.021 2.733,-0.025 2.647,-0.103 -0.386,-0.344 -3.651,-0.519 -4.506,-0.241 m -50.749,1.8 c -0.542,0.572 -1.324,2.06 -1.737,3.308 -0.841,2.538 -1.626,3.171 -4.035,3.255 -1.424,0.05 -1.394,0.07 0.511,0.347 2.614,0.38 2.79,0.596 3.135,3.825 0.16,1.49 0.468,2.887 0.685,3.104 0.217,0.217 0.395,1.047 0.395,1.844 0,0.797 0.265,2.081 0.589,2.854 0.696,1.661 0.447,3.623 -0.55,4.325 -2.416,1.701 -3.881,7.647 -3.951,16.032 -0.047,5.686 -0.161,7.038 -0.614,7.318 -0.306,0.189 -0.411,0.481 -0.232,0.648 0.178,0.167 0.4,0.091 0.493,-0.168 0.093,-0.26 0.389,-0.473 0.658,-0.473 0.269,0 0.716,-0.272 0.992,-0.605 0.974,-1.175 7.664,-5.383 8.619,-5.422 0.287,-0.012 1.335,-0.606 2.329,-1.32 0.994,-0.715 2.537,-1.671 3.429,-2.126 2.282,-1.164 9.031,-6.365 9.031,-6.959 0,-0.271 0.383,-0.616 0.851,-0.766 0.798,-0.257 0.805,-0.285 0.109,-0.466 -0.408,-0.105 -0.805,-0.002 -0.882,0.23 -0.412,1.234 -2.279,0.118 -4.047,-2.419 -3.16,-4.532 -6.767,-6.697 -11.094,-6.656 l -2.529,0.023 -0.833,-1.596 c -0.458,-0.878 -1.003,-2.689 -1.212,-4.025 -0.208,-1.335 -0.554,-2.603 -0.768,-2.816 -0.748,-0.748 0.803,-9.52 1.873,-10.59 0.458,-0.458 0.516,-1.746 0.078,-1.746 -0.169,0 -0.751,0.468 -1.293,1.04 m -51.042,1.118 c 0.47,0.09 1.151,0.087 1.512,-0.008 0.362,-0.095 -0.023,-0.168 -0.855,-0.164 -0.832,0.004 -1.127,0.081 -0.657,0.172 m 262.811,2.064 c -0.022,0.277 -0.08,1.141 -0.129,1.919 -0.048,0.778 -0.408,1.769 -0.8,2.202 -0.517,0.571 -0.753,1.529 -0.864,3.5 -0.083,1.492 -0.386,3.048 -0.672,3.459 -0.554,0.794 -0.713,2.467 -0.234,2.467 0.3,0 2.36,-4.274 2.36,-4.897 0,-0.197 0.236,-0.494 0.525,-0.66 0.724,-0.417 1.024,-8.102 0.326,-8.336 -0.26,-0.087 -0.491,0.069 -0.512,0.346 m -193.156,2.019 c 0,0.753 0.17,1.686 0.376,2.073 0.207,0.387 0.571,2.013 0.81,3.614 0.334,2.252 0.517,2.761 0.805,2.245 0.554,-0.989 0.108,-5.323 -0.622,-6.053 -0.337,-0.337 -0.613,-1.101 -0.613,-1.697 0,-0.597 -0.17,-1.191 -0.378,-1.319 -0.225,-0.139 -0.378,0.319 -0.378,1.137 m -34.404,0.186 c 0,0.208 0.425,0.378 0.945,0.378 0.52,0 0.945,-0.17 0.945,-0.378 0,-0.208 -0.425,-0.378 -0.945,-0.378 -0.52,0 -0.945,0.17 -0.945,0.378 m 103.138,2.092 c -0.14,0.14 -0.095,0.673 0.099,1.185 0.195,0.512 0.371,1.388 0.392,1.946 0.035,0.953 0.053,0.963 0.284,0.158 0.293,-1.022 1.986,-1.978 3.502,-1.978 1.013,0 1.463,-0.491 0.808,-0.88 -0.541,-0.321 -4.831,-0.685 -5.085,-0.431 m 5.746,1.645 c 0,0.424 1.343,0.788 2.93,0.795 1.566,0.007 1.598,-0.583 0.048,-0.893 -1.677,-0.335 -2.978,-0.292 -2.978,0.098 m -221.738999,0.422 c 0.416,0.179 1.473,0.337 2.349,0.352 1.127,0.018 1.817,0.268 2.363,0.854 l 0.771,0.827 1.179,-1.205 1.178,-1.206 -4.298,0.027 c -2.753,0.017 -4.026,0.143 -3.542,0.351 m 12.666,0 c 0,0.208 0.755,0.378 1.679,0.378 0.923,0 1.784,-0.17 1.912,-0.378 0.144,-0.233 -0.5,-0.378 -1.679,-0.378 -1.052,0 -1.912,0.17 -1.912,0.378 m 24.259,0.64 c -0.292,0.545 -0.313,0.907 -0.061,1.062 0.443,0.274 0.901,-0.695 0.664,-1.405 -0.104,-0.313 -0.317,-0.192 -0.603,0.343 m -26.906,0.494 c -0.44,0.285 -0.33,0.368 0.495,0.373 0.613,0.003 0.963,-0.155 0.828,-0.373 -0.29,-0.469 -0.596,-0.469 -1.323,0 m 217.485999,0.261 c 0.364,0.095 0.959,0.095 1.323,0 0.364,-0.095 0.066,-0.173 -0.661,-0.173 -0.728,0 -1.026,0.078 -0.662,0.173 m -234.805999,0.976 c -0.262,0.317 -1.418,0.662 -2.632,0.787 -1.191,0.123 -2.931,0.366 -3.866,0.54 l -1.702,0.317 1.513,0.232 c 5.344,0.82 4.889,0.852 6.208,-0.437 0.67,-0.655 1.157,-1.373 1.083,-1.597 -0.083,-0.248 -0.317,-0.187 -0.604,0.158 m 42.084,1.49 c -0.624,1.076 -1.696,2.545 -2.382,3.263 -1.306,1.368 -1.36,2.328 -0.131,2.328 1.485,0 4.592,-1.244 4.592,-1.839 0,-0.325 0.439,-0.94 0.974,-1.367 l 0.974,-0.777 -1.163,-1.463 c -0.639,-0.805 -1.163,-1.61 -1.163,-1.79 0,-0.794 -0.653,-0.163 -1.701,1.645 m 6.333,-0.192 c -0.468,0.091 -0.851,0.323 -0.851,0.516 0,0.413 5.938,0.434 8.128,0.028 l 1.513,-0.28 -1.849,-0.265 c -1.938,-0.278 -5.493,-0.277 -6.941,0.001 m 175.453999,2.191 c 0.002,1.456 0.071,2.005 0.152,1.22 0.082,-0.784 0.081,-1.975 -0.003,-2.646 -0.083,-0.671 -0.15,-0.029 -0.149,1.426 m 18.328,-1.81 c 0.479,0.092 1.024,0.57 1.212,1.063 0.187,0.493 0.773,1.18 1.303,1.527 0.529,0.347 0.962,0.951 0.962,1.343 0,0.392 0.17,0.713 0.378,0.713 0.208,0 0.378,-0.562 0.378,-1.248 0,-0.686 0.185,-1.433 0.411,-1.659 0.616,-0.616 -3.148,-2.102 -4.948,-1.952 -0.312,0.026 -0.175,0.122 0.304,0.213 m 113.977,1.621 c 0,0.936 0.073,1.319 0.163,0.851 0.091,-0.468 0.091,-1.234 0,-1.702 -0.09,-0.467 -0.163,-0.085 -0.163,0.851 m -328.397999,-0.854 c -0.319,0.516 0.074,2.366 0.503,2.366 0.161,0 0.382,0.341 0.491,0.757 0.134,0.51 0.516,0.756 1.178,0.756 1.23,0 1.234,-0.259 0.021,-1.214 -0.528,-0.415 -1.176,-1.284 -1.44,-1.931 -0.303,-0.741 -0.581,-1.013 -0.753,-0.734 m 221.677999,0.476 c 0,0.208 0.691,0.378 1.535,0.378 0.927,0 1.442,-0.15 1.301,-0.378 -0.129,-0.208 -0.819,-0.378 -1.535,-0.378 -0.715,0 -1.301,0.17 -1.301,0.378 m -190.169999,3.403 c 0,2.496 0.392,3.384 0.905,2.048 0.549,-1.431 0.155,-4.695 -0.567,-4.695 -0.186,0 -0.338,1.191 -0.338,2.647 m 97.920999,-0.79 c 0,1.794 1.489,4.948 2.335,4.948 0.874,0 -0.381,3.986 -1.464,4.651 -0.271,0.166 -0.493,0.448 -0.493,0.626 0,0.503 1.552,-0.025 1.774,-0.603 0.108,-0.283 0.407,-0.515 0.663,-0.515 1.432,0 1.433,-4.131 0.002,-4.68 -0.302,-0.116 -0.549,-0.536 -0.549,-0.933 0,-0.397 -0.252,-0.93 -0.559,-1.186 -0.308,-0.255 -0.67,-1.297 -0.805,-2.314 -0.318,-2.394 -0.904,-2.391 -0.904,0.006 m 186.389,0.264 c 0,0.334 -0.342,0.972 -0.76,1.418 -2.527,2.69 -3.722,4.183 -3.56,4.446 0.236,0.381 1.296,-0.01 1.296,-0.477 0,-0.192 0.51,-0.849 1.134,-1.459 0.624,-0.609 1.134,-1.369 1.134,-1.688 0,-0.319 0.228,-0.58 0.506,-0.58 0.279,0 0.704,-0.433 0.946,-0.963 0.561,-1.231 0.553,-1.306 -0.129,-1.306 -0.312,0 -0.567,0.274 -0.567,0.609 m -347.447999,2.591 c 0,1.384 0.808,2.299 1.721,1.949 1.065,-0.409 0.557,-2.589 -0.681,-2.917 -0.98,-0.26 -1.04,-0.204 -1.04,0.968 m 250.913999,-0.77 c -0.139,0.363 -0.107,0.922 0.073,1.243 0.473,0.845 0.879,-0.016 0.495,-1.052 -0.277,-0.751 -0.345,-0.773 -0.568,-0.191 m -255.301999,1.131 c -0.113,0.295 -0.041,1.273 0.16,2.174 l 0.366,1.638 0.041,-2.174 c 0.04,-2.132 -0.158,-2.703 -0.567,-1.638 m 195.820999,2.657 c 0.137,0.357 0.25,0.891 0.25,1.186 0,0.295 0.181,0.536 0.403,0.536 0.591,0 0.257,-1.99 -0.369,-2.196 -0.374,-0.123 -0.459,0.018 -0.284,0.474 m 90.136,0.098 c 0.468,0.091 1.234,0.091 1.702,0 0.467,-0.09 0.085,-0.163 -0.851,-0.163 -0.936,0 -1.319,0.073 -0.851,0.163 m -102.079,1.84 c -0.156,0.158 -0.273,0.983 -0.26,1.832 0.022,1.4 0.059,1.457 0.396,0.613 0.412,-1.034 0.309,-2.898 -0.136,-2.445 m 13.333,0.423 c 0.003,0.376 0.17,0.939 0.372,1.251 0.287,0.444 0.368,0.346 0.372,-0.45 0.003,-0.56 -0.164,-1.122 -0.372,-1.251 -0.208,-0.129 -0.376,0.074 -0.372,0.45 m 146.453,1.795 c -0.115,0.3 -0.691,0.65 -1.28,0.78 -0.589,0.129 -1.165,0.48 -1.279,0.779 -0.115,0.299 -0.597,0.546 -1.072,0.55 -1.183,0.008 -2.071,0.568 -1.343,0.847 0.858,0.329 2.56,-0.142 2.56,-0.708 0,-0.296 0.383,-0.523 0.879,-0.523 0.797,0 2.524,-1.375 2.524,-2.009 0,-0.486 -0.779,-0.262 -0.989,0.284 m -289.747999,1.532 c 0,0.845 -1.924,5.578 -2.577,6.339 -2.165,2.523 1.793,0.543 4.513,-2.258 l 2.033,-2.094 -1.221,0.226 c -1.32,0.245 -1.992,-0.428 -1.992,-1.995 0,-0.43 -0.17,-0.781 -0.378,-0.781 -0.208,0 -0.378,0.253 -0.378,0.563 m -75.7499997,1.611 c -0.329,1.99 -0.23,10.675 0.135,11.814 0.177,0.552 0.319,-2.003 0.341,-6.143 0.038,-7.173 -0.052,-8.24 -0.476,-5.671 m 335.2009987,-0.401 c 0.364,0.095 0.96,0.095 1.324,0 0.364,-0.096 0.066,-0.173 -0.662,-0.173 -0.728,0 -1.026,0.077 -0.662,0.173 m 45.28,1.724 c 0.004,1.421 0.11,1.824 0.373,1.418 0.483,-0.749 0.483,-3.403 0,-3.403 -0.208,0 -0.376,0.893 -0.373,1.985 m -24.58,-0.473 c -0.803,0.257 -0.704,0.309 0.661,0.341 0.884,0.02 1.607,-0.133 1.607,-0.341 0,-0.436 -0.908,-0.436 -2.268,0 m -156.1,3.493 c -0.856,0.882 -1.556,1.903 -1.556,2.269 0,0.366 -0.255,0.665 -0.567,0.665 -0.331,0 -0.567,0.344 -0.567,0.827 0,0.673 0.457,0.352 2.457,-1.729 2.238,-2.328 3.001,-3.634 2.123,-3.634 -0.184,0 -1.035,0.721 -1.89,1.602 m -102.123,2.987 c -0.936,0.192 -2.67,0.242 -3.854,0.113 -1.183999,-0.129 -2.715999,-0.092 -3.402999,0.083 -1.47,0.374 10.495999,0.854 12.360999,0.495 1.096,-0.21 1.074,-0.233 -0.64,-0.67 -1.988,-0.506 -2.09,-0.506 -4.464,-0.021 m -72.003999,0.295 c -0.118,0.191 0.309,0.462 0.95,0.603 1.26,0.277 1.709,0.09 1.315,-0.547 -0.305,-0.494 -1.969,-0.535 -2.265,-0.056 m 226.722999,1.165 c 0,0.727 0.078,1.025 0.173,0.661 0.095,-0.364 0.095,-0.959 0,-1.323 -0.095,-0.364 -0.173,-0.066 -0.173,0.662 m -147.725,0.378 c 0.129,0.208 0.692,0.375 1.251,0.372 0.796,-0.004 0.894,-0.086 0.45,-0.372 -0.747,-0.483 -1.999,-0.483 -1.701,0 m 91.19,0.526 c -0.155,0.394 -0.192,0.805 -0.083,0.914 0.344,0.345 0.648,-0.22 0.503,-0.938 -0.132,-0.658 -0.152,-0.657 -0.42,0.024 m -88.64,0.702 c 0.086,0.26 0.525,0.527 0.977,0.594 0.451,0.066 0.821,0.364 0.821,0.662 0,0.297 0.236,0.54 0.524,0.54 0.33,0 0.617,0.619 0.775,1.671 0.357,2.38 0.895,2.675 4.561,2.499 1.469,-0.07 1.485,-0.085 0.545,-0.514 -0.532,-0.243 -1.553,-0.994 -2.268,-1.669 -0.716,-0.675 -1.514,-1.228 -1.774,-1.229 -0.26,-0.001 -0.473,-0.135 -0.473,-0.299 0,-0.366 -3.032,-2.727 -3.503,-2.727 -0.187,0 -0.27,0.213 -0.185,0.472 m 176.184,-0.205 c -1.057,0.203 -1.072,0.55 -0.064,1.462 1.152,1.043 4.992,1.041 5.199,-0.003 0.283,-1.423 -1.983,-2.066 -5.135,-1.459 m -31.076,0.948 c -0.011,0.357 -0.361,0.831 -0.777,1.053 -1.159,0.621 -0.95,1.513 0.356,1.513 1.394,0 1.513,-0.245 0.92,-1.891 -0.263,-0.728 -0.487,-1.031 -0.499,-0.675 m -26.99,0.171 c -0.139,0.139 -0.252,1.075 -0.252,2.08 0,2.121 0.83,2.481 2.005,0.867 0.992,-1.364 -0.622,-4.078 -1.753,-2.947 m -147.510999,0.504 c -0.67,0.288 -0.638,0.328 0.284,0.352 0.571,0.014 1.039,-0.144 1.039,-0.352 0,-0.443 -0.29,-0.443 -1.323,0 m 115.398999,0.985 c -0.152,0.151 -0.276,0.536 -0.276,0.855 0,0.426 0.112,0.468 0.42,0.159 0.232,-0.231 0.356,-0.616 0.276,-0.855 -0.08,-0.239 -0.269,-0.311 -0.42,-0.159 m -192.0839987,0.424 c -0.361,0.585 0.116,4.262 0.552,4.262 0.381,0 0.376,-2.396 -0.008,-3.777 -0.173,-0.621 -0.358,-0.786 -0.544,-0.485 m 29.2629997,2.07 c -0.033,3.251 1.597,5.229 4.285,5.2 l 1.549,-0.017 -1.384,-0.731 c -1.065,-0.562 -1.339,-0.907 -1.187,-1.489 0.246,-0.94 -0.158,-2.661 -0.625,-2.661 -0.19,0 -0.399,0.466 -0.465,1.036 -0.165,1.427 -1.443,1.684 -1.443,0.29 0,-0.549 0.176,-1.327 0.391,-1.729 0.216,-0.402 0.242,-0.731 0.058,-0.731 -0.183,0 -0.518,-0.383 -0.744,-0.851 -0.34,-0.706 -0.414,-0.42 -0.435,1.683 m 160.086999,0.549 c -0.831,0.962 -2.044,2.534 -2.695,3.492 -0.65,0.959 -1.628,2.22 -2.173,2.802 -0.546,0.583 -0.992,1.159 -0.992,1.281 0,0.525 -3.367,4.276 -5.056,5.632 -1.013,0.814 -2.204,1.86 -2.646,2.324 -0.443,0.464 -1.017,0.847 -1.277,0.851 -0.26,0.003 -0.473,0.18 -0.473,0.394 0,0.213 -0.382,0.557 -0.85,0.765 -1.356,0.603 -3.3,2.132 -3.041,2.391 0.13,0.13 1.49,0.237 3.021,0.237 1.62,0 3.353,0.237 4.142,0.567 2.525,1.055 6.086,0.578 3.723,-0.498 -1.495,-0.681 -1.212,-1.93 0.887,-3.911 2.104,-1.985 3,-3.706 4.346,-8.349 0.778,-2.683 1.354,-3.811 3.061,-5.993 2.916,-3.727 2.935,-5.353 0.023,-1.985 m -127.220999,-1.04 c 0,0.516 -2.165,1.164 -4.12,1.232 -1.385,0.048 -1.489,0.091 -0.511,0.213 0.676,0.083 1.229,0.303 1.229,0.487 0,0.516 2.377,2.619 2.721,2.407 0.167,-0.104 0.303,-0.654 0.303,-1.224 0,-0.57 0.151,-1.198 0.336,-1.396 0.569,-0.609 0.883,-2.06 0.446,-2.06 -0.222,0 -0.404,0.153 -0.404,0.341 m 315.982999,2.661 c -0.261,1.959 -0.166,2.668 0.296,2.207 0.115,-0.116 0.158,-1.123 0.094,-2.237 l -0.116,-2.027 -0.274,2.057 m -339.714999,-0.669 c -0.829,0.829 -0.546,1.507 0.575,1.378 0.745,-0.086 1.04,-0.332 1.04,-0.871 0,-0.878 -0.946,-1.176 -1.615,-0.507 m -36.6639997,3.149 c 0.004,0.832 0.082,1.127 0.172,0.657 0.091,-0.47 0.087,-1.151 -0.008,-1.512 -0.094,-0.362 -0.168,0.023 -0.164,0.855 m 352.3619987,-1.063 c 0.364,0.095 0.96,0.095 1.323,0 0.364,-0.095 0.067,-0.173 -0.661,-0.173 -0.728,0 -1.026,0.078 -0.662,0.173 m -201.115,1.347 c -1.101,1.725 -3.446,2.635 -6.103,2.368 -2.764,-0.277 -4.121,0.28 -1.859,0.763 0.678,0.145 1.681,0.525 2.23,0.844 0.548,0.319 1.229,0.463 1.512,0.319 1.449,-0.733 2.253,-1.326 3.534,-2.606 0.772,-0.773 1.557,-1.405 1.744,-1.405 0.188,0 0.341,-0.17 0.341,-0.378 0,-0.54 -1.039,-0.468 -1.399,0.095 m 206.881,-0.095 c -0.147,0.237 0.586,0.364 1.962,0.34 1.671,-0.028 1.97,-0.11 1.251,-0.34 -1.366,-0.438 -2.943,-0.438 -3.213,0 m -295.178999,1.034 -1.795,0.141 0.528,1.02 c 0.726,1.405 2.059,2.558 2.456,2.125 0.281,-0.308 0.96,-3.671 0.705,-3.496 -0.054,0.038 -0.907,0.132 -1.894,0.21 m 301.633999,0.06 c -0.676,0.265 -0.681,0.304 -0.064,0.541 1.013,0.389 3.25,0.304 3.25,-0.123 0,-0.208 -0.327,-0.378 -0.726,-0.378 -0.398,0 -0.951,-0.073 -1.228,-0.163 -0.277,-0.089 -0.832,-0.034 -1.232,0.123 m -225.926,0.418 c 0.739,0.478 1.784,0.478 2.079,0 0.141,-0.227 -0.341,-0.376 -1.206,-0.372 -1.069,0.004 -1.294,0.1 -0.873,0.372 m -137.617999,0.901 c 0,0.52 0.17,1.05 0.378,1.179 0.214,0.131 0.378,-0.178 0.378,-0.712 0,-0.52 -0.17,-1.05 -0.378,-1.179 -0.214,-0.132 -0.378,0.178 -0.378,0.712 m 1.134,2.325 c 0,0.526 0.255,1.055 0.567,1.174 0.312,0.12 0.567,0.428 0.567,0.684 0,0.256 0.426,0.66 0.946,0.896 0.519,0.237 0.945,0.605 0.945,0.817 0,0.213 0.255,0.386 0.567,0.386 0.85,0 0.727,-0.269 -1.229,-2.69 -1.996,-2.47 -2.363,-2.667 -2.363,-1.267 m 37.051,2.067 -0.945,0.303 1.04,0.038 c 0.572,0.02 1.039,-0.133 1.039,-0.341 0,-0.208 -0.042,-0.361 -0.094,-0.34 -0.052,0.02 -0.52,0.174 -1.04,0.34 m 173.604999,2.667 c -0.481,0.193 -0.768,0.523 -0.638,0.734 0.278,0.45 1.702,-0.192 1.702,-0.768 0,-0.2 -0.042,-0.354 -0.094,-0.34 -0.052,0.013 -0.488,0.181 -0.97,0.374 m -144.089999,0.557 c -0.014,0.422 0.273,1.037 0.636,1.366 0.364,0.33 1.086,1.133 1.603,1.786 0.518,0.652 1.156,1.186 1.418,1.186 0.262,0 0.477,0.255 0.477,0.567 0,0.312 0.17,0.567 0.378,0.567 0.557,0 0.47,-0.318 -0.452,-1.643 -0.969,-1.392 -2.481,-2.894 -2.913,-2.894 -0.165,0 -0.485,-0.383 -0.711,-0.851 -0.387,-0.802 -0.411,-0.807 -0.436,-0.084 m -59.004,1.019 c 0,0.162 0.68,0.294 1.512,0.294 0.832,0 1.512,-0.067 1.512,-0.149 0,-0.082 -0.68,-0.215 -1.512,-0.294 -0.832,-0.079 -1.512,-0.012 -1.512,0.149 m 201.017999,-0.22 c -0.133,0.133 -0.156,0.38 -0.051,0.55 0.236,0.382 1.301,0.009 1.301,-0.455 0,-0.387 -0.89,-0.456 -1.25,-0.095 m -196.381999,1.541 c 0.575,0.087 1.426,0.085 1.891,-0.005 0.465,-0.089 -0.006,-0.161 -1.045,-0.158 -1.04,0.003 -1.421,0.077 -0.846,0.163 m 140.353999,9.527 -1.134,0.257 1.077,0.22 c 1.406,0.288 2.787,-0.04 2.074,-0.492 -0.278,-0.176 -0.59,-0.302 -0.694,-0.281 -0.104,0.022 -0.699,0.155 -1.323,0.296 m -6.994,1.544 -1.323,0.279 1.629,0.05 c 1.001,0.03 1.539,-0.096 1.395,-0.329 -0.128,-0.208 -0.266,-0.355 -0.306,-0.328 -0.039,0.027 -0.667,0.175 -1.395,0.328 m -58.915999,2.577 c -0.753,0.511 2.008999,0.807 4.283999,0.46 1.367,-0.209 1.565,-0.303 0.715,-0.34 -0.647,-0.027 -1.923,-0.143 -2.836,-0.256 -0.911999,-0.112 -1.885999,-0.051 -2.162999,0.136 m 41.064999,0.349 c 1.098,0.077 2.8,0.076 3.78,-0.002 0.981,-0.077 0.082,-0.14 -1.997,-0.139 -2.08,10e-4 -2.882,0.064 -1.783,0.141 m -12.455,0.663 c -0.192,0.192 -3.816,0.347 -13.929,0.597 -2.183,0.053 1.121,0.22 7.342,0.369 11.484,0.276 16.503,0.098 16.488,-0.585 -0.009,-0.395 -9.522,-0.76 -9.901,-0.381 m -21.301,0.57 c 0.129,0.208 0.777,0.376 1.44,0.372 0.918,-0.004 1.071,-0.093 0.639,-0.372 -0.749,-0.484 -2.378,-0.484 -2.079,0"
     id="path1" />
  <path
     style="fill:#ffffff;fill-rule:evenodd;stroke:none"
     inkscape:connector-curvature="0"
     d="m 211.32785,112.88319 c -1.009,0.312 -1.996,0.357 -2.973,0.138 -2.974,-0.668 -6.67,2.417 -6.67,5.567 0,0.43 -0.153,0.943 -0.339,1.141 -1.98,2.093 -2.995,10.077 -1.729,13.591 0.734,2.039 0.697,6.269 -0.075,8.645 -0.75,2.308 -2.08,5.252 -2.516,5.572 -1.122,0.824 -1.083,6.515 0.058,8.278 2.473,3.824 -0.926,9.459 -6.662,11.043 -2.01,0.555 -4.696,2.367 -6.646,4.484 l -1.774,1.926 -3.377,0.317 c -1.858,0.174 -3.596,0.453 -3.864,0.62 -0.267,0.167 -1.847,0.513 -3.511,0.769 -5.768,0.887 -8.642,1.613 -17.013,4.296 -2.079,0.666 -5.397,1.424 -7.372,1.685 -1.976,0.26 -4.486,0.679 -5.578,0.931 -3.135,0.723 -22.978,-0.64 -24.685,-1.695 -0.46,-0.285 -9.346,-1.02 -12.837,-1.062 -10.000001,-0.121 -16.006001,4.425 -25.197001,19.071 -2.817,4.489 -3.345,4.868 -6.798,4.872 -3.089,0.005 -3.951,-0.368 -5.012,-2.168 -3.424,-5.805 -5.721,-7.312 -9.891,-6.492 -1.71,0.337 -2.791,0.341 -4.402,0.017 -1.174,-0.235 -3.447,-0.428 -5.05,-0.428 -1.773,0 -3.463,-0.229 -4.312,-0.584 -1.84,-0.769 -2.587,-0.481 -5.187,1.999 l -2.169,2.069 -3.215,0.2 c -3.295,0.206 -3.775,0.393 -6.428,2.508 -1.278,1.018 -1.607,1.093 -5.152,1.167 l -3.787,0.079 -3.231,2.218 c -3.783,2.596 -5.0060004,3.896 -6.6750004,7.09 l -1.226,2.346 0.003,8.507 c 0.002,8.284 0.029,8.581 1.022,11.342 1.895,5.268 2.048,5.657 2.341,5.948 0.161,0.16 0.537,0.801 0.8360004,1.425 2.883,6.01 8.394,9.52 15.835,10.083 5.056,0.383 12.139,-0.153 13.876,-1.05 0.562,-0.29 1.327,-0.533 1.702,-0.54 0.374,-0.007 1.36,-0.341 2.192,-0.743 0.832,-0.402 1.683,-0.737 1.891,-0.746 1.153,-0.047 10.07,-6.576 13.88,-10.163 2.703,-2.544 6.134,-3.403 7.289,-1.824 0.515,0.704 3.563,4.313 4.666,5.525 0.485,0.534 1.511,1.65 2.28,2.482 0.769,0.832 2.19,2.533 3.157,3.781 0.967,1.247 2.293,2.864 2.947,3.591 0.654,0.728 2.405,2.77 3.891,4.537 4.889,5.815 9.486,8.324 16.385001,8.94 1.218,0.109 2.857,0.439 3.641,0.733 2.088,0.784 33.028,0.754 35.241,-0.034 0.828,-0.295 2.7,-0.649 4.159,-0.787 1.459,-0.138 3.226,-0.484 3.928,-0.77 0.701,-0.286 2.062,-0.528 3.024,-0.537 0.962,-0.009 2.43,-0.262 3.262,-0.561 0.832,-0.3 2.307,-0.548 3.278,-0.551 5.85,-0.019 15.339,-3.131 19.918,-6.533 1.902,-1.414 5.539,-1.607 9.772,-0.52 5.816,1.493 16.319,1.532 22.42,0.081 1.351,-0.321 2.882,-0.587 3.402,-0.591 2.572,-0.019 12.629,-6.727 15.969,-10.65 1.906,-2.24 3.896,-5.738 5.399,-9.492 1.005,-2.511 1.766,-3.149 2.958,-2.481 1.637,0.916 33.564,-0.195 40.325,-1.403 6.221,-1.112 13.246,-0.893 17.202,0.535 1.871,0.675 3.913,1.365 4.537,1.533 0.623,0.169 1.559,0.488 2.079,0.71 0.52,0.222 2.221,0.758 3.781,1.191 1.559,0.433 3.771,1.081 4.915,1.441 1.873,0.589 4.306,0.654 24.574,0.654 23.647,0 25.217,0.088 34.027,1.91 12.357,2.557 13.272,2.669 15.317,1.889 4.054,-1.549 4.679,-3.181 5.076,-13.251 0.307,-7.797 0.891,-11.041 2.312,-12.857 2.888,-3.692 4.269,-13.624 2.312,-16.633 -0.676,-1.039 -1.649,-3.266 -2.163,-4.947 -1.181,-3.865 -1.997,-4.693 -4.623,-4.693 -2.193,0 -2.72,0.522 -2.744,2.716 -0.007,0.689 -0.256,1.679 -0.553,2.198 -0.298,0.52 -0.547,1.636 -0.554,2.479 -0.028,3.209 -2.057,7.737 -4.879,10.892 -0.77,0.86 -1.894,2.244 -2.498,3.076 -5.719,7.871 -17.279,9.954 -32.334,5.826 -2.391,-0.656 -4.943,-1.324 -5.671,-1.485 -3.023,-0.668 -7.55,-1.921 -10.18,-2.817 -1.544,-0.527 -3.293,-0.957 -3.887,-0.957 -0.594,0 -1.68,-0.251 -2.413,-0.557 -0.734,-0.307 -2.217,-0.664 -3.296,-0.793 -4.172,-0.502 -9.258,-1.706 -11.793,-2.79 -1.456,-0.623 -2.923,-1.137 -3.26,-1.143 -0.533,-0.009 -2.504,-0.755 -5.058,-1.915 -0.876,-0.398 -2.998,-1.141 -6.994,-2.45 -1.931,-0.632 -3.7,-0.93 -5.546,-0.934 -2.394,-0.004 -3.306,-0.243 -7.805,-2.049 -5.594,-2.244 -10.484,-3.823 -13.114,-4.234 -0.936,-0.146 -3.318,-0.935 -5.293,-1.754 -1.975,-0.819 -4.357,-1.714 -5.293,-1.99 -0.936,-0.275 -2.977,-1.006 -4.537,-1.623 -4.652,-1.841 -5.362,-2.045 -8.184,-2.355 -1.486,-0.164 -3.017,-0.462 -3.402,-0.664 -0.386,-0.201 -2.056,-0.489 -3.711,-0.641 -1.656,-0.151 -3.442,-0.452 -3.97,-0.668 -0.528,-0.216 -3.387,-0.505 -6.353,-0.641 -6.42,-0.296 -6.4,-0.283 -7.158,-4.432 -1.145,-6.268 -1.173,-6.007 0.829,-7.798 4.942,-4.421 5.289,-13.589 0.689,-18.192 l -1.065,-1.066 v -5.38 c 0,-3.724 0.144,-5.555 0.468,-5.945 0.258,-0.31 0.83,-2.42 1.272,-4.689 0.623,-3.203 1.131,-4.69 2.272,-6.649 0.809,-1.388 1.47,-2.789 1.47,-3.113 0,-0.325 0.198,-1.329 0.439,-2.232 0.434,-1.623 0.419,-1.67 -1.372,-4.259 -2.467,-3.564 -2.761,-3.87 -4.927,-5.115 -2.08,-1.196 -2.338,-1.227 -4.535,-0.548 m 4.927,1.817 c 1.074,0.733 2.557,2.329 3.673,3.955 l 1.873,2.726 -0.482,1.88 -0.482,1.88 -1.031,-0.825 c -0.567,-0.454 -1.141,-1.379 -1.275,-2.054 -0.294,-1.478 -0.31,-1.48 -1.903,-0.265 -0.897,0.684 -1.344,0.834 -1.54,0.517 -0.156,-0.252 -0.006,-0.598 0.344,-0.794 0.757,-0.423 0.82,-2.319 0.097,-2.919 -0.608,-0.504 -0.989,0.161 -0.989,1.723 0,0.687 -0.176,0.908 -0.649,0.817 -0.522,-0.1 -0.628,-0.469 -0.54,-1.892 0.143,-2.33 -0.559,-3.799 -1.319,-2.76 -0.284,0.389 -0.517,1.156 -0.517,1.704 0,1.583 -3.087,4.008 -3.554,2.791 -0.431,-1.125 -0.229,-3.459 0.34,-3.932 0.312,-0.259 0.572,-0.832 0.578,-1.275 0.03,-2.276 4.721,-3.088 7.376,-1.277 m -8.143,-0.497 c 0,1.472 -0.765,2.273 -1.972,2.064 -2.348,-0.406 -2.424,-0.497 -1.225,-1.477 1.098,-0.897 3.197,-1.282 3.197,-0.587 m -1.66,4.278 c 0.154,0.468 0.236,2.268 0.181,4 -0.121,3.833 1.005,4.446 2.196,1.198 0.743,-2.025 2.216,-2.566 2.875,-1.055 0.232,0.531 0.768,0.911 1.386,0.983 0.555,0.064 1.576,0.7 2.269,1.414 0.693,0.713 1.579,1.299 1.968,1.301 0.517,0.003 0.605,0.131 0.327,0.476 -0.209,0.26 -0.501,1.037 -0.649,1.727 -0.147,0.69 -0.506,1.711 -0.797,2.269 -0.291,0.558 -0.533,1.439 -0.537,1.959 -0.004,0.52 -0.345,2.024 -0.758,3.342 -0.608,1.94 -0.751,3.465 -0.751,8.008 0,6.045 -0.423,7.111 -2.201,5.554 -0.962,-0.842 -2.963,-1.781 -3.796,-1.781 -0.946,0 -4.625,2.891 -4.87,3.827 -0.239,0.915 -0.555,0.897 -1.157,-0.067 -0.322,-0.517 -0.732,-0.706 -1.225,-0.567 -0.407,0.115 -1.08,0.306 -1.496,0.424 -1.081,0.307 -0.971,-0.69 0.378,-3.428 0.614,-1.248 1.122,-2.439 1.128,-2.647 0.006,-0.207 0.26,-0.856 0.565,-1.441 1.246,-2.387 1.732,-6.76 1.11,-9.968 -0.916,-4.723 -0.88,-8.308 0.105,-10.33 0.455,-0.935 0.947,-2.211 1.092,-2.835 0.67,-2.875 2.075,-4.125 2.657,-2.363 m -3.254,0.926 c 0,1.038 -0.111,1.289 -0.426,0.973 -0.241,-0.241 -0.32,-0.849 -0.182,-1.399 0.347,-1.385 0.608,-1.203 0.608,0.426 m -1.327,3.907 c -0.331,1.509 -0.878,0.82 -0.639,-0.806 0.11,-0.751 0.298,-1.025 0.539,-0.785 0.206,0.206 0.25,0.909 0.1,1.591 m -1.131,4.621 c 0,2.973 -0.516,4.292 -0.958,2.448 -0.345,-1.44 0.04,-5.57 0.519,-5.567 0.298,0.002 0.439,1.006 0.439,3.119 m 19.093,-1.064 c 0,0.507 -0.17,1.028 -0.378,1.156 -0.221,0.137 -0.378,-0.248 -0.378,-0.923 0,-0.636 0.17,-1.156 0.378,-1.156 0.208,0 0.378,0.415 0.378,0.923 m -1.393,2.712 c -0.176,0.459 -0.291,0.481 -0.525,0.101 -0.355,-0.574 -0.067,-1.193 0.415,-0.895 0.184,0.114 0.234,0.472 0.11,0.794 m -16.466,7.14 c 0,3.982 -0.474,4.971 -0.792,1.652 -0.317,-3.311 0.081,-7.067 0.536,-5.055 0.141,0.624 0.256,2.155 0.256,3.403 m 14.723,-0.851 c -0.09,0.468 -0.164,0.085 -0.164,-0.85 0,-0.936 0.074,-1.319 0.164,-0.851 0.09,0.468 0.09,1.233 0,1.701 m -17.97,12.526 c -0.995,2.065 -0.682,5.538 0.401,4.454 1.157,-1.156 1.766,-0.508 1.004,1.069 -1.167,2.415 -1.36,4.761 -0.413,5.009 1.694,0.443 0.994,2.738 -1.639,5.371 -1.031,1.031 -2.444,1.604 -2.444,0.992 0,-0.222 0.261,-0.404 0.579,-0.404 0.318,0 0.689,-0.298 0.823,-0.661 0.134,-0.364 0.425,-0.782 0.646,-0.93 1.381,-0.919 1.197,-6.527 -0.283,-8.641 -0.919,-1.311 -0.864,-5.036 0.088,-5.988 0.395,-0.395 0.854,-1.118 1.018,-1.606 0.263,-0.781 0.318,-0.802 0.453,-0.177 0.084,0.391 -0.02,1.072 -0.233,1.512 m 11.923,1.63 c 0.155,0.405 0.788,0.52 2.476,0.451 2.117,-0.086 2.302,-0.025 2.797,0.921 0.292,0.557 0.681,1.013 0.863,1.013 1.458,0 3.983,10.341 2.716,11.124 -0.522,0.322 -2.316,-1.553 -2.316,-2.422 0,-0.874 -0.987,-1.439 -1.542,-0.884 -0.474,0.474 0.323,2.768 0.961,2.768 0.436,0 1.715,2.703 1.715,3.624 0,0.212 -0.935,1.259 -2.079,2.325 l -2.079,1.94 -0.052,3.144 -0.051,3.145 -0.341,-3.403 c -0.187,-1.872 -0.24,-4.117 -0.117,-4.989 l 0.223,-1.587 0.802,0.802 c 0.781,0.781 0.81,0.783 1.088,0.075 0.876,-2.237 -0.609,-6.588 -2.249,-6.588 -0.492,0 -1.401,-0.426 -2.019,-0.946 -0.618,-0.519 -1.353,-0.945 -1.634,-0.945 -1.009,0 -2.895,-2.747 -2.297,-3.345 0.633,-0.634 3.059,-0.307 3.517,0.474 0.259,0.441 2.417,1.737 2.893,1.737 0.37,0 -0.935,-2.195 -1.822,-3.064 -2.137,-2.095 -2.373,-2.229 -3.937,-2.229 -1.458,0 -1.603,0.09 -1.812,1.134 -0.31,1.552 -1.792,0.841 -2.512,-1.205 -0.843,-2.396 5.9,-5.437 6.808,-3.07 m -1.025,1.44 c 0,0.312 0.17,0.567 0.378,0.567 0.208,0 0.378,0.255 0.378,0.567 0,0.312 0.255,0.567 0.567,0.567 0.785,0 0.709,-0.615 -0.189,-1.512 -0.905,-0.905 -1.134,-0.943 -1.134,-0.189 m -6.427,2.441 c 0,0.407 0.596,1.215 1.326,1.796 0.73,0.581 1.854,1.821 2.498,2.757 0.644,0.936 1.824,2.161 2.622,2.723 1.073,0.755 1.563,1.445 1.88,2.646 0.236,0.894 0.61,2.253 0.83,3.021 0.23,0.798 0.279,2.012 0.116,2.835 -0.389,1.96 -0.372,2.624 0.127,4.989 0.497,2.354 0.523,5.565 0.052,6.659 -0.324,0.754 -0.325,0.754 -0.351,-0.005 -0.042,-1.204 -1.243,-3.169 -4.927,-8.062 -4.568,-6.068 -5.71,-6.841 -8.195,-5.546 -1.162,0.607 -2.628,0.749 -2.916,0.284 -0.203,-0.328 1.041,-1.972 1.516,-2.004 2.123,-0.141 4.062,-5.421 2.96,-8.059 -0.812,-1.943 0.118,-4.774 1.568,-4.774 0.635,0 0.894,0.214 0.894,0.74 m -7.751,12.492 c -0.128,0.208 -0.479,0.379 -0.778,0.379 -0.3,0 -0.545,-0.171 -0.545,-0.379 0,-0.207 0.35,-0.378 0.778,-0.378 0.428,0 0.674,0.171 0.545,0.378 m -0.676,2.212 c 1.788,1.816 2.756,2.215 3.011,1.239 0.224,-0.854 1.642,-1.56 3.135,-1.56 1.064,0 5.299,4.08 5.303,5.111 0.001,0.211 0.848,1.402 1.883,2.646 1.684,2.026 2.639,4.464 1.462,3.737 -0.24,-0.148 -0.99,-0.249 -1.666,-0.224 -0.913,0.034 -1.383,-0.189 -1.828,-0.869 -0.33,-0.504 -0.906,-1.221 -1.279,-1.594 -0.938,-0.939 -2.726,-3.398 -2.742,-3.772 -0.029,-0.643 -2.798,-2.389 -3.788,-2.389 -1.244,0 -1.748,0.971 -0.775,1.492 0.823,0.44 2.081,2.264 1.773,2.572 -0.119,0.119 -0.515,-0.044 -0.881,-0.363 -1.591,-1.391 -4.913,-1.695 -8.698,-0.796 -0.762,0.181 -0.85,0.06 -0.85,-1.162 0,-0.947 0.17,-1.365 0.554,-1.365 1.214,0 3.056,-2.316 2.288,-2.877 -0.656,-0.48 -0.645,-0.525 0.218,-0.87 1.334,-0.533 1.326,-0.536 2.88,1.044 m -4.05,0.405 c 0,0.471 -2.136,0.913 -2.707,0.56 -0.321,-0.199 -0.239,-0.367 0.275,-0.569 1.039,-0.407 2.432,-0.402 2.432,0.009 m -3.592,1.542 c -0.128,0.208 -0.488,0.378 -0.8,0.378 -0.312,0 -0.462,-0.17 -0.334,-0.378 0.129,-0.208 0.489,-0.378 0.801,-0.378 0.312,0 0.462,0.17 0.333,0.378 m -1.701,1.486 c 0,0.193 -0.255,0.606 -0.567,0.918 -0.312,0.312 -0.567,0.745 -0.567,0.964 0,0.638 -2.019,4.572 -2.347,4.572 -0.165,0 -0.3,-0.331 -0.3,-0.735 0,-0.966 -1.391,-1.91 -2.825,-1.918 -3.209,-0.016 -2.53,-1.37 0.845,-1.684 2.919,-0.271 5.005,-1.061 5.005,-1.895 0,-0.316 0.17,-0.574 0.378,-0.574 0.208,0 0.378,0.158 0.378,0.352 m 2.628,2.05 c 0.452,1.37 1.474,2.425 3.172,3.275 3.176,1.589 7.194,7.495 5.137,7.55 -0.281,0.008 -2.241,-2.984 -2.241,-3.421 0,-1.625 -4.21,-1.569 -5.234,0.07 -0.579,0.928 -0.649,5.25 -0.1,6.27 1.011,1.88 1.908,4.239 2.127,5.594 0.135,0.831 0.472,2.277 0.749,3.213 0.277,0.936 0.612,2.807 0.743,4.159 0.269,2.77 1.089,5.249 2.364,7.142 1.142,1.695 1.09,2.404 -0.294,3.98 -2.097,2.387 -2.701,2.244 -5.037,-1.196 -2.908,-4.282 -6.906,-6.667 -11.279,-6.728 -3.28,-0.045 -4.455,-0.861 -4.455,-3.094 0,-0.604 -0.182,-2.086 -0.405,-3.292 -0.457,-2.472 0.163,-8.669 0.967,-9.666 0.251,-0.312 0.556,-0.849 0.678,-1.192 0.121,-0.344 1.559,-1.644 3.195,-2.89 3.378,-2.571 4.661,-4.094 5.998,-7.118 1.813,-4.098 3.142,-4.999 3.915,-2.656 m 8.992,0.874 c 1.095,0.554 1.991,1.168 1.991,1.364 0,0.197 0.323,0.722 0.719,1.167 0.395,0.445 1.438,1.618 2.316,2.606 1.581,1.777 3.346,2.409 3.959,1.417 1.126,-1.822 3.334,0.257 4.109,3.869 0.28,1.303 1.001,3.39 1.603,4.638 1.226,2.544 1.54,11.167 0.477,13.121 -0.271,0.498 -0.539,2.802 -0.63,5.404 -0.189,5.415 -0.542,6.248 -4.315,10.199 -1.395,1.461 -3.219,3.592 -4.053,4.735 -0.834,1.144 -1.734,2.331 -2,2.637 -0.266,0.307 -1.567,1.923 -2.891,3.592 -1.324,1.669 -2.53,3.119 -2.681,3.223 -0.152,0.104 -0.901,1.016 -1.667,2.026 -7.623,10.06 -19.975,20.268 -26.137,21.601 -0.624,0.135 -1.9,0.488 -2.836,0.784 -1.438,0.456 -6.679,1.448 -17.013,3.218 -1.144,0.196 -2.675,0.594 -3.403,0.883 -0.783,0.312 -4.252,0.702 -8.506,0.955 -3.951,0.236 -8.545,0.58 -10.208,0.766 -3.911,0.436 -11.519,0.432 -14.178,-0.008 -1.144,-0.19 -4.243,-0.593 -6.887,-0.898 -2.644,-0.304 -5.111001,-0.712 -5.482001,-0.907 -0.371,-0.195 -1.44,-0.481 -2.376,-0.635 -4.436,-0.731 -8.077,-3.454 -12.379,-9.259 -1.156,-1.56 -2.291,-3.006 -2.523,-3.214 -0.232,-0.208 -1.354,-1.476 -2.495,-2.819 -1.14,-1.343 -2.49,-2.84 -3,-3.327 -5.586,-5.344 16.236,-18.455 27.538001,-16.545 1.496,0.252 1.555,0.316 1.555,1.671 0,2.673 4.161,5.387 9.365,6.108 1.304,0.181 3.636,0.59 5.182,0.91 1.547,0.319 3.734,0.58 4.86,0.58 1.126,0 2.771,0.256 3.655,0.568 0.884,0.311 2.627,0.567 3.872,0.567 1.246,0 3.053,0.248 4.017,0.552 0.964,0.303 3.283,0.908 5.155,1.345 6.968,1.625 8.336,1.968 9.074,2.276 0.415,0.173 1.585,0.666 2.6,1.095 2.462,1.043 3.698,0.984 5.477,-0.259 2.064,-1.442 11.043,-8.455 11.859,-9.263 0.368,-0.364 0.753,-0.661 0.857,-0.661 0.103,0 1.004,-0.587 2.002,-1.303 0.998,-0.717 2.231,-1.484 2.742,-1.703 4.398,-1.894 16.677,-10.404 21.043,-14.585 1.698,-1.626 1.898,-3.74 0.553,-5.85 -1.98,-3.107 -2.573,-5.088 -3.505,-11.72 -0.219,-1.559 -0.641,-3.317 -0.936,-3.906 -0.296,-0.588 -0.537,-1.253 -0.537,-1.476 0,-0.223 -0.436,-1.326 -0.969,-2.451 -1.891,-3.999 -0.838,-4.313 2.749,-0.819 2.839,2.766 2.998,2.791 5.181,0.798 1.992,-1.819 1.649,-4.26 -0.949,-6.758 -0.616,-0.593 -1.7,-1.929 -2.408,-2.968 -1.035,-1.521 -1.662,-2.023 -3.202,-2.568 -2.058,-0.728 -2.426,-1.251 -1.064,-1.513 1.898,-0.366 2.821,-0.221 4.72,0.74 m -24.758,1.15 c -0.468,0.09 -1.233,0.09 -1.701,0 -0.468,-0.09 -0.085,-0.164 0.85,-0.164 0.936,0 1.319,0.074 0.851,0.164 m -5.765,1.475 c 0,0.082 -0.638,0.132 -1.418,0.111 -1.234,-0.033 -1.295,-0.074 -0.473,-0.315 0.874,-0.256 1.891,-0.146 1.891,0.204 m 13.775,-0.268 c 0.212,0.343 -3.847,4.575 -4.388,4.575 -1.295,0 -5.324,5.619 -5.762,8.034 l -0.257,1.418 -2.157,-0.013 c -1.186,-0.007 -3.262,-0.257 -4.614,-0.554 -1.352,-0.297 -4.074,-0.557 -6.049,-0.576 -1.976,-0.02 -4.443,-0.202 -5.482,-0.406 -1.04,-0.203 -4.017,-0.535 -6.617,-0.736 -11.825,-0.918 -17.538,-1.669 -18.657,-2.453 -0.436,-0.305 -1.1,-0.555 -1.476,-0.555 -0.376,0 -0.788,-0.269 -0.914,-0.599 -0.126,-0.329 -0.589,-0.743 -1.028,-0.921 -1.183,-0.478 2.141,-0.459 6.953,0.039 9.394,0.973 27.706,-1.947 36.105,-5.756 0.832,-0.377 2.193,-0.697 3.025,-0.711 0.832,-0.014 2.023,-0.259 2.647,-0.545 1.285,-0.588 8.335,-0.785 8.671,-0.241 m 14.699,-0.056 c 0.493,0.852 -0.321,1.616 -0.945,0.887 -0.343,-0.401 -0.525,-0.828 -0.403,-0.95 0.313,-0.313 1.154,-0.274 1.348,0.063 m -32.289,1.2 c 0.395,0.25 0.148,0.445 -0.945,0.748 -1.862,0.517 -2.802,0.525 -2.802,0.025 0,-0.845 2.741,-1.41 3.747,-0.773 m 18.559,1.138 c 0,0.401 -0.34,0.838 -0.756,0.97 -0.416,0.132 -0.756,0.464 -0.756,0.738 0,0.273 -0.425,0.579 -0.945,0.678 -1.258,0.24 -1.199,0.04 0.472,-1.628 1.64,-1.635 1.985,-1.767 1.985,-0.758 m -22.521,0.362 c 0.28,0.453 -2.147,0.883 -3.042,0.539 -0.64,-0.246 -0.617,-0.301 0.233,-0.537 1.383,-0.386 2.572,-0.387 2.809,-0.002 m 41.179,4.29 c 0.786,1.695 0.439,2.619 -1.325,3.532 -1.643,0.85 -2.947,-0.198 -1.588,-1.277 1.273,-1.012 1.436,-2.174 0.513,-3.667 -0.445,-0.721 -0.694,-1.498 -0.553,-1.726 0.344,-0.557 2.11,1.318 2.953,3.138 m 15.747,-2.972 c 0,0.286 0.255,0.733 0.567,0.991 0.8,0.664 0.708,1.379 -0.357,2.774 -2.393,3.138 -2.136,10.767 0.469,13.929 0.462,0.56 0.392,0.702 -0.599,1.215 -1.417,0.732 -1.592,1.213 -1.592,4.362 0,2.015 -0.161,2.743 -0.757,3.429 -0.954,1.101 -0.989,0.603 -0.225,-3.213 0.991,-4.953 0.805,-13.38 -0.331,-14.919 -1.264,-1.714 -1.281,-3.62 -0.04,-4.597 0.504,-0.396 1.035,-1.271 1.179,-1.944 0.452,-2.103 1.686,-3.587 1.686,-2.027 m -100.283,0.169 c 0.302,0.192 -0.216,0.478 -1.428,0.788 -2.011,0.516 -3.761,-0.016 -2.56,-0.777 0.626,-0.398 3.367,-0.405 3.988,-0.011 m 77.572,0.605 c 1.018,1.084 0.761,1.958 -0.369,1.253 -0.584,-0.365 -0.9,-0.361 -1.51,0.021 -1.444,0.902 -1.951,-0.049 -0.726,-1.363 0.989,-1.062 1.541,-1.043 2.605,0.089 m -94.491001,-0.394 c 0,0.328 -1.879,0.474 -2.339,0.182 -0.317,-0.201 0.017,-0.317 0.921,-0.321 0.78,-0.003 1.418,0.06 1.418,0.139 m -3.781,1.869 c 0,1.163 -1.214,2.237 -3.92,3.468 -3.328,1.513 -3.569,0.762 -0.662,-2.065 2.633,-2.561 4.582,-3.158 4.582,-1.403 m 18.359001,0.432 c 0.665,0.503 0.47,0.553 -2.102,0.53 l -2.836,-0.025 1.702,-0.493 c 2.262,-0.656 2.384,-0.656 3.236,-0.012 m 115.069,0.438 c 0.086,0.078 -1.105,0.124 -2.647,0.103 -2,-0.027 -2.533,-0.125 -1.859,-0.344 0.855,-0.278 4.12,-0.103 4.506,0.241 m -53.655,1.2 c 0,0.374 -0.173,0.854 -0.385,1.065 -1.07,1.07 -2.621,9.842 -1.873,10.59 0.214,0.213 0.56,1.481 0.768,2.816 0.209,1.336 0.754,3.147 1.212,4.025 l 0.833,1.596 2.529,-0.023 c 4.327,-0.041 7.934,2.124 11.094,6.656 1.768,2.537 3.635,3.653 4.047,2.419 0.077,-0.232 0.474,-0.335 0.882,-0.23 0.696,0.181 0.689,0.209 -0.109,0.466 -0.468,0.15 -0.851,0.495 -0.851,0.766 0,0.594 -6.749,5.795 -9.031,6.959 -0.892,0.455 -2.435,1.411 -3.429,2.126 -0.994,0.714 -2.042,1.308 -2.329,1.32 -0.955,0.039 -7.645,4.247 -8.619,5.422 -0.276,0.333 -0.723,0.605 -0.992,0.605 -0.269,0 -0.565,0.213 -0.658,0.473 -0.093,0.259 -0.315,0.335 -0.493,0.168 -0.179,-0.167 -0.074,-0.459 0.232,-0.648 0.453,-0.28 0.567,-1.632 0.614,-7.318 0.07,-8.385 1.535,-14.331 3.951,-16.032 0.997,-0.702 1.246,-2.664 0.55,-4.325 -0.324,-0.773 -0.589,-2.057 -0.589,-2.854 0,-0.797 -0.178,-1.627 -0.395,-1.844 -0.217,-0.217 -0.525,-1.614 -0.685,-3.104 -0.345,-3.229 -0.521,-3.445 -3.135,-3.825 -1.905,-0.277 -1.935,-0.297 -0.511,-0.347 2.409,-0.084 3.194,-0.717 4.035,-3.255 0.982,-2.966 3.337,-5.554 3.337,-3.667 m 51.418,0.074 c 2.599,0.199 5.406,0.531 6.238,0.739 0.832,0.208 2.47,0.382 3.64,0.387 1.17,0.005 2.739,0.265 3.485,0.576 0.747,0.312 1.843,0.568 2.437,0.568 2.087,0 7.541,1.905 14.692,5.133 0.655,0.296 1.358,0.538 1.563,0.538 1.704,0 1.994,13.397 0.591,27.221 -0.916,9.016 -0.172,8.53 -12.543,8.192 -10.683,-0.291 -11.151,-0.429 -12.404,-3.655 -0.445,-1.144 -1.071,-2.675 -1.391,-3.403 -0.32,-0.728 -1.296,-3.11 -2.167,-5.293 -2.909,-7.29 -4.507,-9.773 -9.684,-15.053 -4.167,-4.249 -4.287,-4.431 -4.287,-6.484 0,-0.852 -0.255,-2.16 -0.567,-2.907 -1.601,-3.831 0.545,-7.487 4.159,-7.087 0.831,0.092 3.639,0.33 6.238,0.528 m -111.619,0.596 c 3.205,0.766 7.437,1.967 9.161,2.6 3.208,1.177 5.731,1.695 9.162,1.879 2.024,0.109 4.746,0.368 6.049,0.575 1.304,0.208 5.11,0.548 8.459,0.756 3.349,0.208 6.566,0.559 7.149,0.781 0.582,0.221 3.542,0.567 6.576,0.767 9.589,0.635 9.485,0.592 9.489,3.908 0.001,1.274 0.233,2.761 0.516,3.303 1.254,2.403 1.16,5.111 -0.251,7.249 -3.529,5.345 -4.198,8.017 -4.152,16.584 l 0.036,6.672 -1.006,0.877 c -0.553,0.482 -2.045,1.574 -3.314,2.426 -1.27,0.852 -2.886,2.091 -3.592,2.752 -1.573,1.474 -1.475,1.473 -6.576,0.105 -3.702,-0.993 -7.833,-1.959 -13.044,-3.049 -0.935,-0.196 -2.807,-0.61 -4.158,-0.92 -1.352,-0.31 -4.074,-0.761 -6.05,-1.003 -4.386,-0.537 -7.065,-1.491 -8.531,-3.041 -2.664,-2.816 -5.752,-4.71 -10.972,-6.731 -1.512,-0.586 -11.421001,-0.347 -13.767001,0.331 -5.495,1.59 -7.976,2.413 -8.157,2.706 -0.113,0.183 -0.494,0.332 -0.848,0.332 -1.479,0 -8.18,5.031 -11.574,8.691 -3.451,3.72 -5.561,0.625 -2.294,-3.366 1.26,-1.54 7.067,-7.052 9.264,-8.794 1.135,-0.899 2.335,-1.89 2.666,-2.202 0.331,-0.312 1.343,-1.163 2.247,-1.891 0.905,-0.727 1.917,-1.578 2.249,-1.89 0.332,-0.312 1.616,-1.418 2.853,-2.457 11.866001,-9.97 7.353,-18.874 -8.032,-15.846 -1.39,0.273 -1.732,-0.721 -0.694,-2.014 6.204,-7.723 6.357,-7.858 11.186,-9.839 3.126,-1.282 15.010001,-1.432 19.950001,-0.251 m 9.071,0.799 c -0.361,0.095 -1.042,0.098 -1.512,0.008 -0.47,-0.091 -0.175,-0.168 0.657,-0.172 0.832,-0.004 1.217,0.069 0.855,0.164 m 262.147,5.822 c -0.099,2.85 -0.282,4.021 -0.662,4.24 -0.289,0.166 -0.525,0.463 -0.525,0.66 0,0.623 -2.06,4.897 -2.36,4.897 -0.479,0 -0.32,-1.673 0.234,-2.467 0.286,-0.411 0.589,-1.967 0.672,-3.459 0.111,-1.971 0.347,-2.929 0.864,-3.5 0.392,-0.433 0.752,-1.424 0.8,-2.202 0.049,-0.778 0.107,-1.642 0.129,-1.919 0.021,-0.277 0.252,-0.433 0.512,-0.346 0.349,0.117 0.437,1.183 0.336,4.096 m -193.248,-1.549 c 0,0.596 0.276,1.36 0.613,1.697 0.73,0.73 1.176,5.064 0.622,6.053 -0.288,0.516 -0.471,0.007 -0.805,-2.245 -0.239,-1.601 -0.603,-3.227 -0.81,-3.614 -0.496,-0.927 -0.494,-3.517 0.002,-3.21 0.208,0.128 0.378,0.722 0.378,1.319 m -33.27,0.004 c 0,0.208 -0.425,0.378 -0.945,0.378 -0.52,0 -0.945,-0.17 -0.945,-0.378 0,-0.208 0.425,-0.378 0.945,-0.378 0.52,0 0.945,0.17 0.945,0.378 m 106.333,2.523 c 0.655,0.389 0.205,0.88 -0.808,0.88 -1.516,0 -3.209,0.956 -3.502,1.978 -0.231,0.805 -0.249,0.795 -0.284,-0.158 -0.021,-0.558 -0.197,-1.434 -0.392,-1.946 -0.194,-0.512 -0.239,-1.045 -0.099,-1.185 0.254,-0.254 4.544,0.11 5.085,0.431 m 123.183,0.719 c 0.13,0.608 0.865,2.283 1.634,3.721 2.029,3.796 1.783,6.221 -1.27,12.508 -3.021,6.22 -3.092,6.538 -3.398,15.312 -0.291,8.363 -0.568,9.56 -2.497,10.825 -1.04,0.681 -4.843,0.557 -6.626,-0.217 -1.669,-0.723 -11.435,-2.37 -16.036,-2.704 -2.495,-0.181 -5.777,-0.502 -7.293,-0.714 -3.845,-0.537 -11.896,-0.462 -19.928,0.185 -8.679,0.699 -15.556,0.714 -18.501,0.039 -1.261,-0.289 -3.654,-0.818 -5.317,-1.176 -6.546,-1.408 -11.138,-3.204 -12.102,-4.732 -1.065,-1.687 -2.687,-2.429 -4.62,-2.115 -0.784,0.128 -2.872,0.386 -4.639,0.575 -1.768,0.189 -3.847,0.614 -4.62,0.945 -0.814,0.348 -2.483,0.604 -3.969,0.609 -1.411,0.004 -3.67,0.168 -5.022,0.364 -9.987,1.45 -14.216,0.893 -13.214,-1.743 0.218,-0.575 0.469,-5.206 0.559,-10.327 0.09,-5.107 0.336,-10.306 0.547,-11.553 0.211,-1.248 0.384,-3.481 0.386,-4.963 0.002,-3.556 0.378,-3.896 3.324,-3.013 1.188,0.356 2.925,0.806 3.861,1 2.66,0.551 7.946,2.762 9.711,4.061 0.73,0.538 1.873,2.184 2.906,4.184 1.999,3.871 2.962,4.933 3.822,4.219 0.827,-0.687 0.703,-2.171 -0.374,-4.486 -1.527,-3.278 -1.293,-3.681 1.767,-3.049 2.857,0.59 12.972,3.967 16.384,5.47 3.987,1.756 6.011,2.438 7.266,2.45 0.786,0.008 1.855,0.257 2.374,0.554 0.52,0.297 1.85,0.546 2.955,0.554 1.987,0.013 7.384,1.093 10.629,2.126 0.921,0.294 2.112,0.535 2.646,0.536 0.535,0.001 1.408,0.229 1.94,0.507 0.532,0.278 1.678,0.619 2.547,0.758 0.869,0.138 2.135,0.493 2.813,0.788 0.679,0.294 2.595,0.874 4.259,1.289 1.663,0.414 3.79,0.944 4.726,1.178 11.272,2.812 23.74,0.5 29.111,-5.399 1.144,-1.256 2.553,-2.806 3.132,-3.444 2.019,-2.226 5.844,-8.351 6.099,-9.766 0.163,-0.904 0.593,-1.641 1.184,-2.028 0.771,-0.505 0.927,-0.913 0.927,-2.423 0,-2.453 1.444,-3.134 1.917,-0.905 m -119.544,0.397 c 1.55,0.31 1.518,0.9 -0.048,0.893 -1.587,-0.007 -2.93,-0.371 -2.93,-0.795 0,-0.39 1.301,-0.433 2.978,-0.098 m -218.055001,1.348 -1.179,1.205 -0.771,-0.827 c -0.546,-0.586 -1.236,-0.836 -2.363,-0.854 -3.892,-0.065 -2.851,-0.678 1.193,-0.703 l 4.298,-0.027 -1.178,1.206 m 9.595,-0.828 c -0.128,0.208 -0.989,0.378 -1.912,0.378 -0.924,0 -1.679,-0.17 -1.679,-0.378 0,-0.208 0.86,-0.378 1.912,-0.378 1.179,0 1.823,0.145 1.679,0.378 m 21.211,1.36 c -0.122,0.318 -0.394,0.472 -0.604,0.342 -0.252,-0.155 -0.231,-0.517 0.061,-1.062 0.481,-0.901 0.934,-0.3 0.543,0.72 m -26.126,-0.226 c 0.135,0.218 -0.215,0.376 -0.828,0.373 -0.825,-0.005 -0.935,-0.088 -0.495,-0.373 0.727,-0.469 1.033,-0.469 1.323,0 m -13.799,0.899 c 0,0.495 -0.264,1.118 -0.586,1.386 -1.058,0.878 -0.54,2.424 0.858,2.559 1.157,0.112 1.239,0.033 1.649,-1.596 0.791,-3.141 4.506,-3.949 4.506,-0.979 0,1.483 1.392,2.327 2.144,1.299 0.276,-0.378 0.503,-0.985 0.503,-1.349 0,-1.053 0.596,-1.196 5.536,-1.328 l 4.661,-0.125 0.667,1.017 c 0.367,0.559 1.262,2.207 1.99,3.661 1.889,3.777 2.469,4.019 9.235,3.857 9.651,-0.231 12.441,-0.913 12.241,-2.993 -0.133,-1.396 1.516,-2.061 5.255,-2.119 7.375,-0.114 5.591,6.876 -3.529,13.833 -1.723,1.314 -2.393,0.615 -1.258,-1.31 1.046,-1.772 0.988,-3.101 -0.134,-3.101 -1.754,0 -3.351,2.331 -4.709,6.876 -0.734,2.456 -0.928,2.699 -6.663,8.412 l -5.906,5.884 h -2.467 c -1.357,0 -3.039,0.239 -3.738,0.531 -0.699,0.292 -1.904,0.513 -2.678,0.491 -1.612,-0.046 -2.614,0.932 -2.288,2.233 0.214,0.855 -2.3,3.715 -3.641,4.14 -0.376,0.12 -0.684,0.376 -0.684,0.57 0,0.194 -0.175,0.352 -0.389,0.352 -0.334,0 -1.849,1.072 -5.093,3.604 -0.922,0.719 -2.327,1.523 -3.592,2.054 -0.52,0.218 -1.397,0.651 -1.948,0.961 -0.552,0.311 -1.423,0.565 -1.936,0.565 -0.513,0 -1.943,0.323 -3.178,0.717 -2.38,0.76 -7.36,0.621 -10.896,-0.304 -0.832,-0.217 -2.044,-0.399 -2.694,-0.404 -3.419,-0.026 -9.825,-5.122 -10.921,-8.687 -0.156,-0.51 -0.517,-1.161 -0.802,-1.445 -0.284,-0.284 -0.517,-0.854 -0.517,-1.265 0,-0.412 -0.236,-1.207 -0.525,-1.769 -0.2890004,-0.561 -0.7190004,-2.274 -0.9560004,-3.806 -0.236,-1.532 -0.595,-3.094 -0.798,-3.472 -0.829,-1.55 -0.444,-11.547 0.523,-13.55 1.2890004,-2.672 3.5050004,-5.154 6.1300004,-6.864 3.438,-2.24 4.404,-2.036 2.92,0.618 -1.08,1.933 -0.978,2.963 0.452,4.58 0.726,0.82 1.011,0.944 1.268,0.553 0.386,-0.585 0.906,-6.039 0.62,-6.502 -0.291,-0.47 1.208,-0.831 2.383,-0.573 0.783,0.172 1.487,-0.075 2.891,-1.012 5.135,-3.428 4.781,-3.259 6.035,-2.862 2.294,0.728 2.793,0.74 4.056,0.1 0.702,-0.357 2.053,-1.478 3.001,-2.493 1.902,-2.034 3.002,-2.38 3.002,-0.945 m 231.285001,-0.638 c -0.364,0.095 -0.959,0.095 -1.323,0 -0.364,-0.095 -0.066,-0.173 0.662,-0.173 0.727,0 1.025,0.078 0.661,0.173 m -236.608001,2.415 c -1.319,1.289 -0.864,1.257 -6.208,0.437 l -1.513,-0.232 1.702,-0.317 c 0.935,-0.174 2.675,-0.417 3.866,-0.54 1.214,-0.125 2.37,-0.47 2.632,-0.787 0.287,-0.345 0.521,-0.406 0.604,-0.158 0.074,0.224 -0.413,0.942 -1.083,1.597 m 44.264,-1.594 c 0,0.18 0.524,0.985 1.163,1.79 l 1.163,1.463 -0.974,0.777 c -0.535,0.427 -0.974,1.042 -0.974,1.367 0,0.595 -3.107,1.839 -4.592,1.839 -1.229,0 -1.175,-0.96 0.131,-2.328 0.686,-0.718 1.758,-2.187 2.382,-3.263 1.048,-1.808 1.701,-2.439 1.701,-1.645 m 11.573,1.452 1.849,0.265 -1.513,0.28 c -2.19,0.406 -8.128,0.385 -8.128,-0.028 0,-0.692 4.495,-0.99 7.792,-0.517 m 168.665001,3.412 c -0.081,0.785 -0.15,0.236 -0.152,-1.22 -10e-4,-1.455 0.066,-2.097 0.149,-1.426 0.084,0.671 0.085,1.862 0.003,2.646 m 20.39,-2.771 c 2.51,0.669 2.965,0.945 2.43,1.48 -0.226,0.226 -0.411,0.973 -0.411,1.659 0,0.686 -0.17,1.248 -0.378,1.248 -0.208,0 -0.378,-0.321 -0.378,-0.713 0,-0.392 -0.433,-0.996 -0.962,-1.343 -0.53,-0.347 -1.116,-1.034 -1.303,-1.527 -0.188,-0.493 -0.733,-0.971 -1.212,-1.063 -0.479,-0.091 -0.616,-0.187 -0.304,-0.213 0.312,-0.026 1.445,0.186 2.518,0.472 m 111.926,2.213 c -0.09,0.468 -0.163,0.085 -0.163,-0.851 0,-0.936 0.073,-1.318 0.163,-0.851 0.091,0.468 0.091,1.234 0,1.702 m -326.368001,0.96 c 1.213,0.955 1.209,1.214 -0.021,1.214 -0.662,0 -1.044,-0.246 -1.178,-0.756 -0.109,-0.416 -0.33,-0.757 -0.491,-0.757 -0.429,0 -0.822,-1.85 -0.503,-2.366 0.172,-0.279 0.45,-0.007 0.753,0.734 0.264,0.647 0.912,1.516 1.44,1.931 m 222.321001,-2.189 c 0.141,0.228 -0.374,0.378 -1.301,0.378 -0.844,0 -1.535,-0.17 -1.535,-0.378 0,-0.208 0.586,-0.378 1.301,-0.378 0.716,0 1.406,0.17 1.535,0.378 m -192.101001,1.354 c 0.549,1.431 0.155,4.695 -0.567,4.695 -0.186,0 -0.338,-1.191 -0.338,-2.646 0,-2.497 0.392,-3.385 0.905,-2.049 m 97.920001,1.253 c 0.135,1.017 0.497,2.059 0.805,2.314 0.307,0.256 0.559,0.789 0.559,1.186 0,0.397 0.247,0.817 0.549,0.933 1.431,0.549 1.43,4.68 -0.002,4.68 -0.256,0 -0.555,0.232 -0.663,0.515 -0.222,0.578 -1.774,1.106 -1.774,0.603 0,-0.178 0.222,-0.46 0.493,-0.626 1.083,-0.665 2.338,-4.651 1.464,-4.651 -0.846,0 -2.335,-3.154 -2.335,-4.948 0,-2.397 0.586,-2.4 0.904,-0.006 m 22.802,-0.88 c 0.374,0.534 1.235,1.598 1.914,2.363 3.139,3.54 8.365,13.507 10.444,19.918 2.421,7.468 -1.348,15.902 -9.599,21.481 -1.144,0.773 -3.008,2.067 -4.143,2.876 -3.357,2.393 -9.691,3.638 -17.785,3.496 -8.771,-0.154 -9.831,-0.639 -7.149,-3.271 1.254,-1.232 3.746,-6.138 3.746,-7.376 0,-1.311 1.849,-6.147 2.627,-6.872 0.405,-0.377 1.753,-2.006 2.996,-3.62 1.244,-1.613 2.996,-3.814 3.896,-4.89 9.578,-11.466 9.743,-11.779 10.103,-19.144 0.297,-6.058 1.164,-7.515 2.95,-4.961 m 163.817,0.713 c 0,0.631 -0.967,2.097 -1.384,2.097 -0.278,0 -0.506,0.261 -0.506,0.58 0,0.319 -0.51,1.079 -1.134,1.688 -0.624,0.61 -1.134,1.267 -1.134,1.459 0,0.467 -1.06,0.858 -1.296,0.477 -0.162,-0.263 1.033,-1.756 3.56,-4.446 0.418,-0.446 0.76,-1.084 0.76,-1.418 0,-0.335 0.255,-0.609 0.567,-0.609 0.312,0 0.567,0.078 0.567,0.172 m -353.408001,0.99 c -1.875,0.724 -1.961,3.709 -0.194,6.751 l 0.972,1.674 0.665,-0.821 c 0.557,-0.688 0.633,-1.331 0.467,-3.943 -0.219,-3.449 -0.594,-4.169 -1.91,-3.661 m 4.077,0.338 c -0.45,0.841 -0.134,3.498 0.513,4.314 1.377,1.738 3.639,-0.022 3.639,-2.83 0,-1.8 -3.343,-2.995 -4.152,-1.484 m 2.947,2.214 c 0.082,0.829 -0.067,1.278 -0.477,1.435 -0.913,0.35 -1.721,-0.565 -1.721,-1.949 0,-1.823 2.015,-1.352 2.198,0.514 m 249.357001,0.151 c -0.371,0.6 -0.937,-0.665 -0.641,-1.435 0.223,-0.582 0.291,-0.56 0.568,0.191 0.174,0.469 0.207,1.028 0.073,1.244 m -255.376001,1.334 -0.041,2.174 -0.366,-1.638 c -0.201,-0.901 -0.273,-1.879 -0.16,-2.174 0.409,-1.065 0.607,-0.494 0.567,1.638 m 268.093001,1.126 c -1.62,2.06 -0.268,4.145 1.417,2.185 1.075,-1.25 1.121,-2.68 0.095,-2.948 -0.513,-0.134 -0.999,0.111 -1.512,0.763 m -71.903,0.604 c 0.066,0.556 -0.061,1.011 -0.283,1.011 -0.222,0 -0.403,-0.241 -0.403,-0.536 0,-0.295 -0.113,-0.829 -0.25,-1.186 -0.175,-0.456 -0.09,-0.597 0.284,-0.474 0.293,0.096 0.587,0.63 0.652,1.185 m 90.902,-0.613 c -0.468,0.091 -1.234,0.091 -1.702,0 -0.468,-0.09 -0.085,-0.163 0.851,-0.163 0.936,0 1.318,0.073 0.851,0.163 m -103.645,4.285 c -0.337,0.844 -0.374,0.787 -0.396,-0.613 -0.013,-0.849 0.104,-1.674 0.26,-1.832 0.445,-0.453 0.548,1.411 0.136,2.445 m 13.941,-1.221 c -0.004,0.796 -0.085,0.894 -0.372,0.45 -0.483,-0.747 -0.483,-1.999 0,-1.701 0.208,0.129 0.375,0.691 0.372,1.251 m 146.698,0.71 c 0,0.634 -1.727,2.009 -2.524,2.009 -0.496,0 -0.879,0.227 -0.879,0.523 0,0.566 -1.702,1.037 -2.56,0.708 -0.728,-0.279 0.16,-0.839 1.343,-0.847 0.475,-0.004 0.957,-0.251 1.072,-0.55 0.114,-0.299 0.69,-0.65 1.279,-0.779 0.589,-0.13 1.165,-0.48 1.28,-0.78 0.21,-0.546 0.989,-0.77 0.989,-0.284 m -289.981001,2.034 c 0,1.567 0.672,2.24 1.992,1.995 l 1.221,-0.226 -2.033,2.094 c -2.72,2.801 -6.678,4.781 -4.513,2.258 0.653,-0.761 2.577,-5.494 2.577,-6.339 0,-0.31 0.17,-0.563 0.378,-0.563 0.208,0 0.378,0.351 0.378,0.781 m -76.0300004,7.064 c -0.022,4.14 -0.164,6.695 -0.341,6.143 -0.579,-1.808 -0.373,-13.232 0.239,-13.232 0.076,0 0.122,3.19 0.102,7.089 m 336.0490014,-6.072 c -0.364,0.095 -0.96,0.095 -1.324,0 -0.364,-0.096 -0.066,-0.173 0.662,-0.173 0.728,0 1.026,0.077 0.662,0.173 m 44.701,1.157 c -0.003,0.779 -0.171,1.673 -0.372,1.985 -0.263,0.406 -0.369,0.003 -0.373,-1.418 -0.003,-1.092 0.165,-1.985 0.373,-1.985 0.208,0 0.375,0.638 0.372,1.418 m -23.057,0.094 c 0,0.208 -0.723,0.361 -1.607,0.341 -1.365,-0.032 -1.464,-0.084 -0.661,-0.341 1.36,-0.436 2.268,-0.436 2.268,0 m -344.010001,0.691 c -0.809,1.512 2.004,4.307 4.88,4.849 6.25,1.179 10.208,4.588 10.208,8.793 0,5.605 4.819,8.413 9.058,5.278 0.622,-0.459 2.106,-0.896 3.824,-1.125 2.451,-0.326 5.968,-1.218 6.897,-1.749 1.015,-0.581 -1.13,-1.614 -3.351,-1.614 -3.539,0 -3.527,-2.24 0.03,-5.536 1.856,-1.72 2.255,-3.16 0.875,-3.16 -1.53,0 -4.814,1.846 -5.441,3.059 -0.517,0.999 -0.74,1.118 -1.698,0.908 -2.516,-0.552 -3.485,0.951 -1.688,2.617 1.259,1.166 1.192,2.215 -0.218,3.402 -1.587,1.335 -1.774,1.268 -2.785,-1.006 -0.485,-1.092 -1.369,-2.347 -1.964,-2.789 -0.998,-0.742 -2.109,-2.578 -3.117,-5.152 -0.462,-1.182 -2.461,-2.547 -3.732,-2.549 -0.468,-0.001 -1.487,-0.342 -2.263,-0.758 -0.776,-0.416 -1.886,-0.756 -2.468,-0.756 -1.59,0 -3.407,-0.891 -4.523,-2.217 -1.129,-1.341 -1.982,-1.508 -2.524,-0.495 m 187.867001,1.739 c 0,0.296 -1.106,1.689 -2.458,3.095 -2,2.081 -2.457,2.402 -2.457,1.729 0,-0.483 0.236,-0.827 0.567,-0.827 0.312,0 0.567,-0.299 0.567,-0.665 0,-0.68 2.841,-3.871 3.446,-3.871 0.184,0 0.335,0.242 0.335,0.539 m -99.884,4.071 c 1.714,0.437 1.736,0.46 0.64,0.67 -1.865,0.359 -13.831001,-0.121 -12.361001,-0.495 0.687,-0.175 2.219,-0.212 3.403001,-0.083 1.184,0.129 2.918,0.079 3.854,-0.113 2.374,-0.485 2.476,-0.485 4.464,0.021 m -74.203001,0.33 c 0.394,0.637 -0.055,0.824 -1.315,0.547 -0.641,-0.141 -1.068,-0.412 -0.95,-0.603 0.296,-0.479 1.96,-0.438 2.265,0.056 m 224.631001,1.77 c -0.095,0.364 -0.173,0.066 -0.173,-0.661 0,-0.728 0.078,-1.026 0.173,-0.662 0.095,0.364 0.095,0.959 0,1.323 m -146.197,-0.283 c 0.444,0.286 0.346,0.368 -0.45,0.372 -0.559,0.003 -1.122,-0.164 -1.251,-0.372 -0.298,-0.483 0.954,-0.483 1.701,0 m 89.826,1.416 c -0.407,0.406 -0.623,-0.163 -0.337,-0.89 0.268,-0.681 0.288,-0.682 0.42,-0.024 0.077,0.38 0.039,0.791 -0.083,0.914 m -92.094,-0.299 c 2.715,1.228 4.566,3.042 3.104,3.042 -1.352,0 -6.507,-2.66 -6.507,-3.357 0,-0.589 1.766,-0.425 3.403,0.315 m 5.224,0.854 c 0.87,0.668 1.581,1.349 1.581,1.512 0,0.164 0.213,0.298 0.473,0.299 0.26,0.001 1.058,0.554 1.774,1.229 0.715,0.675 1.736,1.426 2.268,1.669 0.94,0.429 0.924,0.444 -0.545,0.514 -3.666,0.176 -4.204,-0.119 -4.561,-2.499 -0.158,-1.052 -0.445,-1.671 -0.775,-1.671 -0.288,0 -0.524,-0.243 -0.524,-0.54 0,-0.298 -0.37,-0.596 -0.821,-0.662 -0.452,-0.067 -0.891,-0.334 -0.977,-0.594 -0.258,-0.784 0.441,-0.538 2.107,0.743 m 178.677,-0.718 c 0.376,0.276 0.615,0.825 0.535,1.229 -0.31,1.563 -5.986,0.612 -5.986,-1.002 0,-0.728 4.509,-0.915 5.451,-0.227 m -34.843,3 c -0.078,0.156 -0.643,0.284 -1.254,0.284 -1.306,0 -1.515,-0.892 -0.356,-1.513 0.416,-0.222 0.766,-0.696 0.777,-1.053 0.012,-0.356 0.236,-0.053 0.499,0.675 0.262,0.728 0.413,1.451 0.334,1.607 m -26.057,-1.231 c 0.64,1.083 0.639,1.17 -0.013,2.067 -1.175,1.614 -2.005,1.254 -2.005,-0.867 0,-2.669 0.851,-3.175 2.018,-1.2 m -147.954001,-0.376 c 0,0.208 -0.468,0.366 -1.039,0.352 -0.922,-0.024 -0.954,-0.064 -0.284,-0.352 1.033,-0.443 1.323,-0.443 1.323,0 m 114.220001,1.999 c -0.308,0.309 -0.42,0.267 -0.42,-0.159 0,-0.319 0.124,-0.704 0.276,-0.855 0.151,-0.152 0.34,-0.08 0.42,0.159 0.08,0.239 -0.044,0.624 -0.276,0.855 m -191.3840014,2.255 c 0.021,0.779 -0.111,1.417 -0.292,1.417 -0.436,0 -0.913,-3.677 -0.552,-4.262 0.357,-0.577 0.792,0.889 0.844,2.845 m 29.5980004,-1.607 c 0.184,0 0.158,0.329 -0.058,0.731 -0.215,0.402 -0.391,1.18 -0.391,1.729 0,1.394 1.278,1.137 1.443,-0.29 0.066,-0.57 0.275,-1.036 0.465,-1.036 0.467,0 0.871,1.721 0.625,2.661 -0.152,0.582 0.122,0.927 1.187,1.489 l 1.384,0.731 -1.549,0.017 c -2.688,0.029 -4.318,-1.949 -4.285,-5.2 0.021,-2.103 0.095,-2.389 0.435,-1.683 0.226,0.468 0.561,0.851 0.744,0.851 m 160.988001,0.15 c 0,0.291 -0.946,1.738 -2.103,3.216 -1.707,2.182 -2.283,3.31 -3.061,5.993 -1.346,4.643 -2.242,6.364 -4.346,8.349 -2.099,1.981 -2.382,3.23 -0.887,3.911 2.363,1.076 -1.198,1.553 -3.723,0.498 -0.789,-0.33 -2.522,-0.567 -4.142,-0.567 -1.531,0 -2.891,-0.107 -3.021,-0.237 -0.259,-0.259 1.685,-1.788 3.041,-2.391 0.468,-0.208 0.85,-0.552 0.85,-0.765 0,-0.214 0.213,-0.391 0.473,-0.394 0.26,-0.004 0.834,-0.387 1.277,-0.851 0.442,-0.464 1.633,-1.51 2.646,-2.324 1.689,-1.356 5.056,-5.107 5.056,-5.632 0,-0.122 0.446,-0.698 0.992,-1.281 0.545,-0.582 1.523,-1.843 2.173,-2.802 2.519,-3.711 4.775,-5.943 4.775,-4.723 m -128.751001,0.7 c -0.141,0.468 -0.408,1.013 -0.592,1.21 -0.185,0.198 -0.336,0.826 -0.336,1.396 0,0.57 -0.136,1.12 -0.303,1.224 -0.344,0.212 -2.721,-1.891 -2.721,-2.407 0,-0.184 -0.553,-0.404 -1.229,-0.487 -0.978,-0.122 -0.874,-0.165 0.511,-0.213 1.955,-0.068 4.12,-0.716 4.12,-1.232 0,-0.188 0.182,-0.341 0.404,-0.341 0.242,0 0.301,0.339 0.146,0.85 m 315.729001,4.359 c -0.462,0.461 -0.557,-0.248 -0.296,-2.207 l 0.274,-2.057 0.116,2.027 c 0.064,1.114 0.021,2.121 -0.094,2.237 m -338.396001,-2.369 c 0,0.539 -0.295,0.785 -1.04,0.871 -1.121,0.129 -1.404,-0.549 -0.575,-1.378 0.669,-0.669 1.615,-0.371 1.615,0.507 m -38.1070004,3.299 c -0.09,0.47 -0.168,0.175 -0.172,-0.657 -0.004,-0.832 0.07,-1.217 0.164,-0.855 0.095,0.361 0.099,1.042 0.008,1.512 m 353.5130014,-1.72 c -0.363,0.095 -0.959,0.095 -1.323,0 -0.364,-0.095 -0.066,-0.173 0.662,-0.173 0.728,0 1.025,0.078 0.661,0.173 m -201.039,1.252 c 0,0.208 -0.153,0.378 -0.341,0.378 -0.187,0 -0.972,0.632 -1.744,1.405 -1.281,1.28 -2.085,1.873 -3.534,2.606 -0.283,0.144 -0.964,0 -1.512,-0.319 -0.549,-0.319 -1.552,-0.699 -2.23,-0.844 -2.262,-0.483 -0.905,-1.04 1.859,-0.763 2.657,0.267 5.002,-0.643 6.103,-2.368 0.36,-0.563 1.399,-0.635 1.399,-0.095 m 208.695,0 c 0.719,0.23 0.42,0.312 -1.251,0.34 -1.376,0.024 -2.109,-0.103 -1.962,-0.34 0.27,-0.438 1.847,-0.438 3.213,0 m -296.641001,2.363 c -0.402,2.671 -1.584,2.605 -3.018,-0.168 l -0.528,-1.02 1.795,-0.141 c 0.987,-0.078 1.84,-0.172 1.894,-0.21 0.054,-0.037 -0.01,0.655 -0.143,1.539 m 302.343001,-1.229 c 0.399,0 0.726,0.17 0.726,0.378 0,0.427 -2.237,0.512 -3.25,0.123 -0.82,-0.315 0.416,-0.948 1.296,-0.664 0.277,0.09 0.83,0.163 1.228,0.163 m -226.307,0.378 c -0.295,0.478 -1.34,0.478 -2.079,0 -0.421,-0.272 -0.196,-0.368 0.873,-0.372 0.865,-0.004 1.347,0.145 1.206,0.372 m -138.941001,1.368 c 0,0.534 -0.164,0.843 -0.378,0.712 -0.208,-0.129 -0.378,-0.659 -0.378,-1.179 0,-0.534 0.164,-0.844 0.378,-0.712 0.208,0.129 0.378,0.659 0.378,1.179 m 69.342,1.468 c -0.324,1.292 0.031,2.494 1.107,3.747 0.943,1.096 2.4,1.231 2.248,0.208 -0.608,-4.094 -2.7,-6.561 -3.355,-3.955 m -66.601,1.657 c 1.956,2.421 2.079,2.69 1.229,2.69 -0.312,0 -0.567,-0.173 -0.567,-0.386 0,-0.212 -0.426,-0.58 -0.945,-0.817 -0.52,-0.236 -0.946,-0.64 -0.946,-0.896 0,-0.256 -0.255,-0.564 -0.567,-0.684 -0.566,-0.217 -0.821,-2.133 -0.283,-2.13 0.156,0.001 1.091,1.001 2.079,2.223 m 35.822,0.8 c 0,0.208 -0.467,0.361 -1.039,0.341 l -1.04,-0.038 0.945,-0.303 c 0.52,-0.166 0.988,-0.32 1.04,-0.34 0.052,-0.021 0.094,0.132 0.094,0.34 m 173.535001,2.633 c 0,0.576 -1.424,1.218 -1.702,0.768 -0.184,-0.297 0.637,-0.862 1.608,-1.108 0.052,-0.014 0.094,0.14 0.094,0.34 m -144.007001,1.526 c 0.432,0 1.944,1.502 2.913,2.894 0.922,1.325 1.009,1.643 0.452,1.643 -0.208,0 -0.378,-0.255 -0.378,-0.567 0,-0.312 -0.215,-0.567 -0.477,-0.567 -0.262,0 -0.9,-0.534 -1.418,-1.186 -0.517,-0.653 -1.239,-1.456 -1.603,-1.786 -0.363,-0.329 -0.65,-0.944 -0.636,-1.366 0.025,-0.723 0.049,-0.718 0.436,0.084 0.226,0.468 0.546,0.851 0.711,0.851 m -57.127,0.229 c 0,0.082 -0.68,0.149 -1.512,0.149 -0.832,0 -1.512,-0.132 -1.512,-0.294 0,-0.161 0.68,-0.228 1.512,-0.149 0.832,0.079 1.512,0.212 1.512,0.294 m 199.244001,-0.27 c 0,0.464 -1.065,0.837 -1.301,0.455 -0.105,-0.17 -0.082,-0.417 0.051,-0.55 0.36,-0.361 1.25,-0.292 1.25,0.095 m -195.741001,1.441 c -0.465,0.09 -1.316,0.092 -1.891,0.005 -0.575,-0.086 -0.194,-0.16 0.846,-0.163 1.039,-0.003 1.51,0.069 1.045,0.158 m 141.461001,1.989 c -1.976,0.8 -2.411,3.416 -0.568,3.416 0.744,0 4.186,-2.107 4.186,-2.562 0,-1.071 -1.947,-1.53 -3.618,-0.854 m -0.981,7.528 c 0.713,0.452 -0.668,0.78 -2.074,0.492 l -1.077,-0.22 1.134,-0.257 c 0.624,-0.141 1.219,-0.274 1.323,-0.296 0.104,-0.021 0.416,0.105 0.694,0.281 m -7.31,1.559 c 0.144,0.233 -0.394,0.359 -1.395,0.329 l -1.629,-0.05 1.323,-0.279 c 0.728,-0.153 1.356,-0.301 1.395,-0.328 0.04,-0.027 0.178,0.12 0.306,0.328 m -55.618,2.697 c 0.85,0.037 0.652,0.131 -0.715,0.34 -2.275,0.347 -5.037001,0.051 -4.284001,-0.46 0.277,-0.187 1.251,-0.248 2.163001,-0.136 0.913,0.113 2.189,0.229 2.836,0.256 m 39.846,0.227 c -0.98,0.078 -2.682,0.079 -3.78,0.002 -1.099,-0.077 -0.297,-0.14 1.783,-0.141 2.079,-0.001 2.978,0.062 1.997,0.139 m -6.334,1.046 c 0.015,0.683 -5.004,0.861 -16.488,0.585 -6.221,-0.149 -9.525,-0.316 -7.342,-0.369 10.113,-0.25 13.737,-0.405 13.929,-0.597 0.379,-0.379 9.892,-0.014 9.901,0.381 m -29.123,0.189 c 0.432,0.279 0.279,0.368 -0.639,0.372 -0.663,0.004 -1.311,-0.164 -1.44,-0.372 -0.299,-0.484 1.33,-0.484 2.079,0"
     id="path2" />
</svg>
