<?xml version="1.0" encoding="UTF-8" standalone="no"?>
<svg
   xmlns:dc="http://purl.org/dc/elements/1.1/"
   xmlns:cc="http://creativecommons.org/ns#"
   xmlns:rdf="http://www.w3.org/1999/02/22-rdf-syntax-ns#"
   xmlns:svg="http://www.w3.org/2000/svg"
   xmlns="http://www.w3.org/2000/svg"
   xmlns:sodipodi="http://sodipodi.sourceforge.net/DTD/sodipodi-0.dtd"
   xmlns:inkscape="http://www.inkscape.org/namespaces/inkscape"
   id="svg"
   version="1.1"
   width="400"
   height="377.93103448275866"
   viewBox="0, 0, 400,377.93103448275866"
   sodipodi:docname="C29-30.svg"
   inkscape:version="0.92.5 (2060ec1f9f, 2020-04-08)">
  <metadata
     id="metadata11">
    <rdf:RDF>
      <cc:Work
         rdf:about="">
        <dc:format>image/svg+xml</dc:format>
        <dc:type
           rdf:resource="http://purl.org/dc/dcmitype/StillImage" />
      </cc:Work>
    </rdf:RDF>
  </metadata>
  <defs
     id="defs9" />
  <sodipodi:namedview
     pagecolor="#ffffff"
     bordercolor="#666666"
     borderopacity="1"
     objecttolerance="10"
     gridtolerance="10"
     guidetolerance="10"
     inkscape:pageopacity="0"
     inkscape:pageshadow="2"
     inkscape:window-width="1366"
     inkscape:window-height="689"
     id="namedview7"
     showgrid="false"
     inkscape:zoom="0.62445256"
     inkscape:cx="200"
     inkscape:cy="188.96552"
     inkscape:window-x="0"
     inkscape:window-y="0"
     inkscape:window-maximized="1"
     inkscape:current-layer="svg" />
  <g
     id="g823"
     transform="translate(-2.0609155,-19.429803)"
     style="fill:#ffffff">
    <path
       id="path1"
       d="m 277.796,61.987 c -0.262,0.931 -0.105,1.469 0.306,1.057 0.121,-0.12 0.16,-0.617 0.087,-1.102 l -0.133,-0.883 -0.26,0.928 m -1.338,3.041 c 0,0.728 0.078,1.026 0.173,0.662 0.095,-0.364 0.095,-0.959 0,-1.323 -0.095,-0.364 -0.173,-0.066 -0.173,0.661 m 63.546,8.129 c 0.002,1.248 0.072,1.712 0.157,1.033 0.084,-0.68 0.082,-1.7 -0.004,-2.269 -0.087,-0.568 -0.155,-0.012 -0.153,1.236 m -5.788,6.018 c 0,0.329 0.269,0.598 0.598,0.598 0.668,0 0.551,-0.814 -0.15,-1.047 -0.246,-0.083 -0.448,0.119 -0.448,0.449 m -22.443,3.056 c -0.12,0.312 -0.456,0.567 -0.746,0.567 -0.29,0 -1.015,0.383 -1.609,0.85 -0.9,0.708 -1.59,0.86 -4.116,0.903 -1.668,0.029 -2.988,0.199 -2.932,0.378 0.318,1.018 5.964,0.742 7.05,-0.344 0.359,-0.359 0.915,-0.653 1.234,-0.653 0.597,0 2.371,-1.478 2.383,-1.985 0.012,-0.526 -1.045,-0.289 -1.264,0.284 m -15.365,1.04 c -0.829,0.374 -0.575,0.456 2.08,0.677 3.339,0.277 4.056,0.124 3.009,-0.641 -0.834,-0.61 -3.768,-0.63 -5.089,-0.036 m -38.185,1.323 c -3.678,1.047 -4.259,2.58 -1.564,4.131 2.685,1.546 6.765,2.142 15.364,2.245 4.366,0.052 8.493,0.211 9.171,0.352 1.336,0.28 5.384,-2.276 5.384,-3.4 0,-1.548 -7.363,-2.669 -7.919,-1.206 -0.587,1.543 -3.235,1.742 -12.915,0.972 -7.083,-0.564 -8.538,-1.074 -6.533,-2.29 1.046,-0.634 0.365,-1.188 -0.988,-0.804 m 35.917,0.45 c 0,0.634 0.67,0.791 0.894,0.209 0.131,-0.343 -0.002,-0.565 -0.339,-0.565 -0.305,0 -0.555,0.16 -0.555,0.356 m 1.625,2.102 c -0.347,0.727 -0.744,1.323 -0.881,1.323 -2.412,0 -3.323,6.707 -0.997,7.331 1.683,0.451 1.828,-0.083 0.631,-2.318 -1.016,-1.894 -1.023,-3.879 -0.015,-3.879 0.408,0 0.961,-0.271 1.229,-0.603 1.306,-1.614 2.388,-2.425 3.284,-2.459 L 300,86.503 299.055,86.2 c -1.969,-0.63 -2.629,-0.441 -3.29,0.946 m 31.529,0.43 c -0.428,0.429 0.135,0.893 1.084,0.893 0.568,0 0.923,-0.218 0.923,-0.567 0,-0.566 -1.52,-0.813 -2.007,-0.326 m 4.787,4.485 c -1.137,0.897 -1.332,2.897 -0.376,3.853 0.396,0.396 1.752,-2.364 1.753,-3.57 0.002,-1.465 0.097,-1.445 -1.377,-0.283 m -7.485,0.165 c -0.805,0.89 -0.28,1.914 0.982,1.914 0.729,0 0.948,-0.323 1.153,-1.701 0.156,-1.054 -1.248,-1.194 -2.135,-0.213 m 6.8,13.23 c -0.279,0.452 0.432,0.901 0.935,0.589 0.423,-0.261 0.146,-0.941 -0.384,-0.941 -0.183,0 -0.431,0.158 -0.551,0.352 m -51.108,2.484 c -0.12,0.313 -0.102,1.032 0.04,1.598 l 0.258,1.029 0.634,-0.824 c 0.348,-0.454 1.058,-0.992 1.578,-1.196 l 0.945,-0.371 -1.017,-0.023 c -0.56,-0.014 -1.123,-0.195 -1.252,-0.403 -0.343,-0.555 -0.937,-0.46 -1.186,0.19 m 46.768,2.812 c -0.404,0.256 -0.436,0.472 -0.125,0.846 0.23,0.277 0.482,1.098 0.561,1.825 0.123,1.126 0.193,1.21 0.474,0.566 0.181,-0.416 0.64,-1.162 1.021,-1.658 1.262,-1.646 -0.084,-2.747 -1.931,-1.579 m -50.118,3.828 c -0.624,0.145 -2.24,0.287 -3.592,0.315 -2.155,0.044 -4.874,0.772 -2.949,0.789 0.354,0.003 0.779,0.238 0.945,0.522 0.767,1.309 2.624,1.785 3.077,0.79 0.356,-0.78 0.687,-0.928 2.086,-0.928 1.795,0 2.897,-0.751 2.044,-1.393 -0.262,-0.198 -0.988,-0.241 -1.611,-0.095 m -14.934,0.234 c -3.078,0.242 -3.074,0.744 0.008,0.964 2.004,0.144 3,0.415 3.862,1.053 l 1.163,0.859 0.728,-1 c 0.401,-0.55 1.004,-1 1.34,-1 0.416,0 0.488,-0.123 0.225,-0.386 -0.457,-0.457 -4.393,-0.72 -7.326,-0.49 m 63.799,1.08 c -0.222,1.16 0.457,1.062 0.897,-0.129 0.221,-0.598 0.164,-0.831 -0.203,-0.831 -0.281,0 -0.594,0.432 -0.694,0.96 m -70.012,0.513 c -0.532,0.209 -0.603,0.366 -0.259,0.578 0.63,0.39 3.151,-0.101 2.868,-0.558 -0.259,-0.419 -1.564,-0.429 -2.609,-0.02 m -3.05,1.551 c -0.128,0.208 0.117,0.378 0.545,0.378 0.428,0 0.778,-0.17 0.778,-0.378 0,-0.208 -0.245,-0.378 -0.545,-0.378 -0.299,0 -0.649,0.17 -0.778,0.378 m -8.841,4.745 c -1.27,1.338 -0.778,1.524 0.942,0.356 1.92,-1.302 1.932,-1.321 0.873,-1.313 -0.502,0.003 -1.319,0.434 -1.815,0.957 m 73.967,0.766 c -0.12,0.12 -0.063,0.756 0.126,1.415 0.189,0.659 0.343,1.657 0.343,2.218 0,1.365 0.398,1.533 2.131,0.897 0.804,-0.294 1.262,-0.548 1.019,-0.562 -0.609,-0.037 -2.015,-2.395 -2.015,-3.38 0,-0.761 -1.047,-1.145 -1.604,-0.588 m -48.142,10.557 c 10e-4,4.367 0.056,6.102 0.123,3.855 0.067,-2.246 0.066,-5.819 -0.001,-7.939 -0.067,-2.12 -0.122,-0.282 -0.122,4.084 m 56.551,-5.274 c 0,0.322 0.269,1.106 0.597,1.741 l 0.598,1.155 0.865,-1.263 c 0.786,-1.147 0.81,-1.305 0.253,-1.729 -0.881,-0.671 -2.313,-0.612 -2.313,0.096 m -0.126,4.581 c -0.392,0.393 -0.296,1.639 0.126,1.639 0.208,0 0.378,-0.426 0.378,-0.946 0,-0.989 -0.087,-1.109 -0.504,-0.693 m -91.228,2.576 c -0.319,0.832 0.032,1.091 0.581,0.429 0.309,-0.373 0.326,-0.62 0.051,-0.79 -0.219,-0.135 -0.504,0.027 -0.632,0.361 m 81.612,0.575 c 0,0.728 0.078,1.025 0.173,0.662 0.095,-0.364 0.095,-0.96 0,-1.324 -0.095,-0.364 -0.173,-0.066 -0.173,0.662 m -2.156,1.647 c -0.862,0.63 -0.53,1.756 0.518,1.756 0.768,0 1.401,-1.214 0.985,-1.887 -0.316,-0.512 -0.667,-0.481 -1.503,0.131 m 10.246,0.716 c -0.35,1.306 -0.281,2.859 0.14,3.119 0.234,0.145 0.378,-0.563 0.378,-1.868 0,-2.249 -0.152,-2.616 -0.518,-1.251 m -1.259,8.601 c 0,1.144 0.071,1.612 0.157,1.04 0.087,-0.572 0.087,-1.508 0,-2.08 -0.086,-0.572 -0.157,-0.104 -0.157,1.04 m -101.268,1.613 c -1.425,1.551 -2.493,3.3 -2.37,3.883 0.125,0.592 2.964,-2.768 3.446,-4.078 0.334,-0.906 -0.143,-0.82 -1.076,0.195 m 124.698,1.412 c 0,0.935 0.074,1.318 0.164,0.85 0.09,-0.468 0.09,-1.233 0,-1.701 -0.09,-0.468 -0.164,-0.085 -0.164,0.851 m -128.379,4.158 c -0.109,0.416 -0.043,0.851 0.145,0.967 0.188,0.117 0.343,-0.223 0.343,-0.755 0,-1.159 -0.216,-1.252 -0.488,-0.212 m 129.27,0.851 c -0.573,2.139 -0.164,7.845 0.562,7.845 0.184,0 0.334,-1.956 0.334,-4.348 0,-4.058 -0.364,-5.48 -0.896,-3.497 m -25.663,0.501 c -0.156,0.158 -0.284,1.398 -0.284,2.757 0,1.727 0.12,2.35 0.398,2.072 0.22,-0.22 0.346,-1.449 0.283,-2.756 -0.062,-1.297 -0.241,-2.23 -0.397,-2.073 m -105.01,1.484 c 0,0.52 0.065,0.945 0.145,0.945 0.08,0 0.226,-0.425 0.326,-0.945 0.099,-0.52 0.034,-0.945 -0.145,-0.945 -0.179,0 -0.326,0.425 -0.326,0.945 m 38.471,1.134 c -0.199,1.041 0.255,1.296 0.619,0.347 0.322,-0.839 0.286,-1.292 -0.104,-1.292 -0.184,0 -0.416,0.425 -0.515,0.945 m -1.168,1.954 c -0.395,0.395 -0.294,2.016 0.126,2.016 0.208,0 0.378,-0.511 0.378,-1.134 0,-1.175 -0.077,-1.31 -0.504,-0.882 m -1.513,3.594 c -0.266,1.018 0.106,1.709 0.547,1.014 0.426,-0.672 0.427,-1.836 0.002,-1.836 -0.183,0 -0.43,0.37 -0.549,0.822 m -1.992,3.263 c -2.372,3.036 -2.34,3.846 0.137,3.439 0.986,-0.163 2.048,-0.311 2.36,-0.33 0.463,-0.027 0.449,-0.102 -0.072,-0.407 -0.37,-0.215 -0.747,-1.087 -0.894,-2.067 -0.293,-1.958 -0.448,-2.022 -1.531,-0.635 m 95.76,4.121 c -0.13,1.835 -0.114,5.121 0.035,7.301 l 0.271,3.964 0.243,-3.592 c 0.359,-5.296 0.36,-9.951 0.002,-10.514 -0.188,-0.297 -0.409,0.841 -0.551,2.841 m -137.119,1.458 c -2.047,1.118 -2.291,1.403 -1.741,2.038 0.28,0.322 0.665,1.075 0.857,1.673 l 0.349,1.088 1.023,-1.974 c 1.555,-2.995 1.405,-3.859 -0.488,-2.825 m 32.427,5.378 c -1.919,1.396 -2.024,1.99 -0.744,4.231 1.283,2.246 1.522,2.109 2.466,-1.403 1.111,-4.136 0.794,-4.657 -1.722,-2.828 m 86.923,0.705 c -0.142,0.142 -0.258,0.586 -0.258,0.986 0,0.4 -0.34,1.161 -0.756,1.689 -0.416,0.529 -0.756,1.258 -0.756,1.621 0,0.362 -0.255,0.87 -0.567,1.129 -0.636,0.528 -0.772,1.89 -0.189,1.89 0.208,0 0.378,-0.158 0.378,-0.351 0,-0.193 0.222,-0.576 0.492,-0.85 0.525,-0.533 1.943,-3.404 2.3,-4.659 0.235,-0.824 -0.228,-1.87 -0.644,-1.455 m -122.753,4.269 c 0,0.636 0.065,1.156 0.145,1.156 0.321,0 0.487,-1.922 0.183,-2.111 -0.181,-0.111 -0.328,0.318 -0.328,0.955 m -1.343,1.945 c -0.14,0.226 -0.065,0.6 0.166,0.832 0.309,0.309 0.421,0.2 0.421,-0.411 0,-0.913 -0.196,-1.054 -0.587,-0.421 m 116.882,2.731 c -0.129,0.689 -0.072,2.108 0.126,3.154 0.199,1.046 0.259,2.891 0.134,4.1 -0.166,1.614 -0.111,2.126 0.21,1.928 0.252,-0.155 0.437,-1.225 0.437,-2.516 0,-2.702 0.817,-3.082 1.777,-0.829 l 0.605,1.418 0.331,-1.134 c 0.614,-2.102 -0.033,-7.52 -0.814,-6.813 -0.645,0.584 -1.899,0.437 -1.899,-0.222 0,-0.894 -0.7,-0.188 -0.907,0.914 m -115.451,1.017 c 0,0.728 0.078,1.025 0.173,0.662 0.095,-0.364 0.095,-0.96 0,-1.324 -0.095,-0.364 -0.173,-0.066 -0.173,0.662 m 38.475,0.211 c 0,0.532 0.155,0.872 0.343,0.756 0.188,-0.116 0.254,-0.552 0.145,-0.967 -0.272,-1.041 -0.488,-0.947 -0.488,0.211 m -19.162,4.231 c 0.889,4.521 1.634,5.762 3.462,5.769 0.564,0.002 1.653,1.342 4.121,5.071 3.683,5.567 4.414,6.135 5.826,4.531 l 0.863,-0.98 -2.375,-2.526 c -3.768,-4.007 -5.967,-6.702 -5.967,-7.312 0,-2.098 -1.417,-3.533 -5.052,-5.12 -1.06,-0.462 -1.079,-0.45 -0.878,0.567 m 123.888,1.939 c 0,0.39 0.246,1.298 0.546,2.016 0.3,0.718 0.662,2.185 0.805,3.26 0.142,1.074 0.397,1.954 0.565,1.954 0.169,0 0.424,0.808 0.568,1.795 0.144,0.988 0.48,2.392 0.747,3.119 0.267,0.728 0.59,2.065 0.718,2.97 0.127,0.906 0.482,2.131 0.788,2.722 0.306,0.592 0.577,1.893 0.601,2.891 0.025,0.998 0.167,2.325 0.315,2.949 l 0.271,1.134 0.31,-1.503 c 0.184,-0.893 0.141,-2.504 -0.106,-3.97 -0.799,-4.74 -1.469,-7.766 -1.887,-8.516 -0.232,-0.416 -0.525,-1.564 -0.653,-2.552 -0.127,-0.988 -0.378,-1.796 -0.556,-1.796 -0.179,0 -0.424,-0.51 -0.544,-1.134 -0.121,-0.624 -0.318,-1.644 -0.438,-2.268 -0.121,-0.625 -0.46,-1.135 -0.756,-1.135 -0.362,0 -0.537,-0.431 -0.537,-1.323 0,-0.728 -0.171,-1.323 -0.379,-1.323 -0.207,0 -0.378,0.319 -0.378,0.71 m -100.54,1.842 c -0.015,0.676 0.143,1.229 0.351,1.229 0.449,0 0.449,-0.657 0,-1.702 -0.272,-0.633 -0.329,-0.557 -0.351,0.473 m 77.1,1.017 c 0,0.948 0.17,1.724 0.378,1.724 0.208,0 0.378,-0.67 0.378,-1.49 0,-0.819 -0.17,-1.595 -0.378,-1.724 -0.231,-0.142 -0.378,0.438 -0.378,1.49 m 1.626,5.883 c 0,1.143 0.07,1.611 0.157,1.039 0.087,-0.571 0.087,-1.507 0,-2.079 -0.087,-0.572 -0.157,-0.104 -0.157,1.04 m 1.026,4.82 c 0.003,0.572 0.171,1.295 0.372,1.607 0.269,0.415 0.369,0.137 0.373,-1.04 0.003,-0.883 -0.165,-1.606 -0.373,-1.606 -0.207,0 -0.375,0.467 -0.372,1.039 m -106.018,3.816 c -0.131,0.212 -0.054,0.499 0.171,0.638 0.582,0.36 0.957,-0.133 0.471,-0.618 -0.271,-0.271 -0.483,-0.278 -0.642,-0.02 m 107.551,0.888 c -0.014,0.767 0.144,1.5 0.352,1.629 0.456,0.282 0.456,-1.207 0,-2.269 -0.262,-0.609 -0.33,-0.485 -0.352,0.64 m -157.203,1.44 c -0.441,1.066 -0.291,1.475 0.319,0.865 0.224,-0.223 0.332,-0.723 0.24,-1.109 -0.145,-0.607 -0.219,-0.575 -0.559,0.244 m -1.504,2.268 c -0.109,0.416 -0.318,0.756 -0.464,0.756 -0.394,0 -2.292,3.004 -2.292,3.626 0,0.293 0.17,0.533 0.378,0.533 0.208,0 0.378,-0.139 0.378,-0.31 0,-0.17 0.681,-1.221 1.512,-2.336 0.832,-1.115 1.513,-2.252 1.513,-2.526 0,-0.784 -0.805,-0.582 -1.025,0.257 m 160.301,2.08 c 0.003,1.039 0.076,1.42 0.163,0.845 0.087,-0.575 0.085,-1.425 -0.005,-1.89 -0.09,-0.465 -0.161,0.005 -0.158,1.045 m -96.674,5.55 c -0.733,2.383 -0.633,2.492 1.488,1.606 1.2,-0.502 1.341,-0.673 0.897,-1.094 -0.833,-0.791 -2.208,-1.086 -2.385,-0.512 m 121.379,1.16 c -0.31,1.156 -0.217,6.256 0.14,7.656 0.182,0.716 0.305,-0.645 0.333,-3.686 0.045,-4.818 -0.045,-5.568 -0.473,-3.97 m -148.348,5.612 c -0.582,0.218 -0.851,0.629 -0.851,1.302 0,0.89 0.99,1.081 1.825,0.352 0.606,-0.53 -0.221,-1.935 -0.974,-1.654 m 41.115,2.233 c 0.733,0.474 1.135,0.474 1.135,0 0,-0.207 -0.383,-0.375 -0.851,-0.372 -0.688,0.005 -0.742,0.076 -0.284,0.372 m -31.243,2.836 c -0.17,0.444 -0.933,0.567 -3.517,0.567 -3.77,0 -3.878,0.05 -3.357,1.545 0.442,1.269 0.621,1.338 1.248,0.48 0.282,-0.385 1.37,-0.746 2.858,-0.95 1.322,-0.181 2.498,-0.47 2.612,-0.643 0.115,-0.173 0.874,-0.42 1.688,-0.549 2.296,-0.363 2.602,-1.017 0.475,-1.017 -1.242,0 -1.856,0.173 -2.007,0.567 m 139.831,4.348 0.012,3.592 0.34,-2.372 c 0.207,-1.44 0.202,-2.851 -0.012,-3.592 -0.278,-0.96 -0.35,-0.455 -0.34,2.372 m -61.707,-0.87 c -2.235,0.242 -2.463,0.405 -1.715,1.233 0.569,0.628 0.677,1.802 0.811,8.766 0.163,8.528 0.546,10.403 1.249,6.124 0.412,-2.507 0.447,-3.38 0.39,-9.715 -0.018,-1.992 0.144,-3.173 0.492,-3.592 1.229,-1.48 1.372,-4.173 0.16,-3.02 -0.035,0.033 -0.659,0.125 -1.387,0.204 m -98.677,2.013 c 0,0.213 -0.425,0.55 -0.945,0.747 -0.52,0.198 -0.945,0.531 -0.945,0.74 0,0.209 -0.425,0.487 -0.945,0.617 -0.52,0.131 -0.945,0.393 -0.945,0.583 0,0.189 -0.42,0.536 -0.934,0.77 -0.513,0.234 -0.839,0.578 -0.724,0.763 0.258,0.417 1.63,0.012 2.329,-0.687 0.284,-0.285 0.637,-0.517 0.784,-0.517 0.147,0 0.815,-0.501 1.485,-1.113 0.669,-0.612 1.596,-1.377 2.058,-1.701 l 0.841,-0.589 h -1.029 c -0.566,0 -1.03,0.174 -1.03,0.387 m -7.183,5.284 c -0.458,0.296 -0.404,0.368 0.284,0.372 0.468,0.004 0.85,-0.164 0.85,-0.372 0,-0.474 -0.401,-0.474 -1.134,0 m 169.119,2.647 c 0,1.351 0.069,1.904 0.153,1.228 0.084,-0.676 0.084,-1.781 0,-2.457 -0.084,-0.676 -0.153,-0.123 -0.153,1.229 m -217.826,5.198 c -2.068,1.901 -3.594,3.108 -3.939,3.114 -0.156,0.003 -0.284,0.175 -0.284,0.383 0,0.622 1.057,0.429 1.781,-0.326 0.372,-0.387 0.871,-0.77 1.108,-0.851 0.489,-0.166 3.916,-3.278 3.916,-3.556 0,-0.588 -1.25,0.011 -2.582,1.236 m 37.451,-1.101 c -0.369,0.235 -0.309,0.463 0.259,0.977 0.848,0.767 1.545,0.515 1.545,-0.56 0,-0.765 -0.921,-0.977 -1.804,-0.417 m 181.394,1.668 c 0.003,0.468 0.171,1.106 0.373,1.418 0.272,0.422 0.368,0.204 0.372,-0.851 0.003,-0.78 -0.165,-1.418 -0.372,-1.418 -0.208,0 -0.376,0.383 -0.373,0.851 M 294,260.964 c -0.125,0.468 -0.23,1.471 -0.233,2.228 -0.003,0.864 -0.214,1.457 -0.565,1.592 -0.395,0.152 -0.538,0.711 -0.486,1.903 0.09,2.055 0.478,1.951 0.825,-0.221 0.141,-0.882 0.431,-1.712 0.644,-1.844 0.518,-0.32 1.063,-2.825 0.818,-3.762 -0.26,-0.994 -0.721,-0.946 -1.003,0.104 m 67.821,0.39 c -0.004,0.926 0.193,1.506 0.561,1.647 0.312,0.12 0.567,0.396 0.567,0.614 0,0.62 3.081,3.342 4.442,3.923 0.676,0.289 1.229,0.693 1.229,0.898 0,0.205 0.51,0.373 1.134,0.373 0.624,0 1.134,-0.17 1.134,-0.378 0,-0.208 -0.203,-0.378 -0.452,-0.378 -0.557,0 -3.406,-1.902 -3.82,-2.551 -0.166,-0.26 -0.456,-0.474 -0.645,-0.474 -0.563,0 -3.4,-2.863 -3.406,-3.438 -0.003,-0.292 -0.171,-0.787 -0.372,-1.099 -0.272,-0.421 -0.368,-0.199 -0.372,0.863 m -210.498,4.313 c 0.364,0.095 0.96,0.095 1.324,0 0.363,-0.095 0.066,-0.173 -0.662,-0.173 -0.728,0 -1.026,0.078 -0.662,0.173 m 199.415,1.756 c -0.303,0.79 0.088,2.898 0.538,2.898 0.397,0 0.392,-1.787 -0.008,-2.808 -0.256,-0.655 -0.31,-0.664 -0.53,-0.09 m -228.722,1.386 c -0.356,0.416 -0.904,0.756 -1.218,0.756 -0.314,0 -0.571,0.17 -0.571,0.378 0,0.649 1.111,0.414 1.789,-0.378 0.356,-0.416 0.94,-0.756 1.297,-0.756 0.358,0 0.755,-0.17 0.884,-0.378 0.444,-0.72 -1.535,-0.377 -2.181,0.378 m 20.933,-0.235 c -0.238,0.287 -0.939,0.623 -1.559,0.747 -0.619,0.124 -1.125,0.422 -1.125,0.662 0,0.538 2.767,0.166 2.954,-0.397 0.069,-0.206 0.71,-0.485 1.425,-0.619 0.715,-0.134 1.393,-0.394 1.507,-0.579 0.344,-0.555 -2.735,-0.376 -3.202,0.186 m 148.418,0.487 c -0.368,0.368 -0.308,1.937 0.083,2.179 0.319,0.197 0.783,-0.948 0.794,-1.958 0.006,-0.51 -0.468,-0.629 -0.877,-0.221 m 80.084,0.512 c -0.097,0.156 0.252,0.366 0.774,0.465 0.523,0.1 1.029,0.054 1.126,-0.102 0.096,-0.156 -0.252,-0.366 -0.775,-0.466 -0.522,-0.1 -1.028,-0.054 -1.125,0.103 m -253.697,1.53 c -0.137,0.221 -0.182,0.47 -0.1,0.552 0.259,0.259 1.817,-0.273 1.817,-0.622 0,-0.473 -1.417,-0.416 -1.717,0.07 m 19.864,-0.025 c -0.43,0.278 -0.271,0.367 0.662,0.372 0.676,0.003 1.229,-0.165 1.229,-0.372 0,-0.481 -1.148,-0.481 -1.891,0 M 351.985,272 c 0,0.716 0.17,1.406 0.378,1.535 0.228,0.141 0.378,-0.374 0.378,-1.301 0,-0.844 -0.17,-1.535 -0.378,-1.535 -0.208,0 -0.378,0.586 -0.378,1.301 m 22.306,-0.922 c 0,0.207 0.553,0.375 1.229,0.372 0.932,-0.005 1.092,-0.094 0.661,-0.372 -0.743,-0.481 -1.89,-0.481 -1.89,0 m 7.832,2.567 c -0.594,0.123 -0.565,0.225 0.24,0.858 0.624,0.491 0.997,1.276 1.177,2.476 0.388,2.585 0.286,2.454 5.153,6.605 3.822,3.259 4.502,4.003 4.502,4.929 0,1.465 1.923,1.59 2.844,0.185 1.637,-2.499 0.944,-4.952 -1.997,-7.064 -0.905,-0.65 -1.968,-1.527 -2.36,-1.948 -0.434,-0.466 -0.957,-0.672 -1.337,-0.527 -0.426,0.163 -0.686,-10e-4 -0.821,-0.518 -0.109,-0.417 -0.326,-0.758 -0.483,-0.758 -0.157,0 -1.2,-0.913 -2.319,-2.029 -1.948,-1.942 -3.133,-2.512 -4.599,-2.209 m -188.504,4.975 c -0.032,1.95 0.075,2.696 0.347,2.424 0.263,-0.264 0.279,-1.192 0.047,-2.817 l -0.347,-2.424 -0.047,2.817 m 180.408,3.279 c -0.419,0.178 1.414,3.751 2.211,4.312 0.156,0.11 0.452,0.62 0.657,1.134 l 0.373,0.935 0.024,-1.04 c 0.013,-0.572 -0.17,-1.04 -0.407,-1.04 -0.297,0 -0.364,-0.649 -0.217,-2.079 0.151,-1.464 0.083,-2.081 -0.23,-2.085 -0.245,-0.002 -0.786,-0.078 -1.202,-0.168 -0.416,-0.089 -0.96,-0.076 -1.209,0.031 m -93.454,1.913 c -0.024,0.246 -0.384,0.555 -0.8,0.687 -0.416,0.132 -0.756,0.41 -0.756,0.618 0,0.218 0.361,0.267 0.851,0.117 1.115,-0.343 1.136,-0.37 0.928,-1.178 -0.099,-0.38 -0.199,-0.49 -0.223,-0.244 m 88.614,1.254 c 1.033,0.444 1.323,0.444 1.323,0 0,-0.208 -0.467,-0.366 -1.039,-0.351 -0.922,0.023 -0.954,0.063 -0.284,0.351 m -174.148,4.348 c -0.274,3.974 -1.292,6.238 -2.805,6.238 -0.487,0 -0.99,0.17 -1.119,0.378 -0.359,0.582 0.746,0.455 3.817,-0.437 l 2.805,-0.815 -1.123,-0.683 c -1.108,-0.674 -1.125,-0.733 -1.232,-4.383 l -0.108,-3.701 -0.235,3.403 m 175.849,-3.065 c 0,0.367 1.066,0.505 1.547,0.2 0.388,-0.245 0.25,-0.339 -0.507,-0.343 -0.572,-0.003 -1.04,0.061 -1.04,0.143 m -288.302,2.302 c -0.635,0.484 -0.657,0.611 -0.166,0.939 0.976,0.653 2.137,0.066 1.768,-0.894 -0.289,-0.752 -0.662,-0.762 -1.602,-0.045 m 188.302,1.708 c -0.297,0.482 0.579,0.482 1.324,0 0.461,-0.298 0.412,-0.367 -0.262,-0.372 -0.455,-0.003 -0.933,0.164 -1.062,0.372 m -183.553,1.005 c -0.312,0.104 -0.813,0.268 -1.113,0.365 -0.598,0.192 1.511,1.665 2.35,1.642 0.739,-0.02 2.247,-1.44 1.983,-1.867 -0.245,-0.397 -2.197,-0.481 -3.22,-0.14 m -70.322,0.803 c -0.935,0.288 -1.929,0.595 -2.207,0.682 -0.278,0.087 -0.698,0.668 -0.933,1.292 -0.236,0.623 -0.561,1.133 -0.723,1.133 -0.163,0 -0.296,0.184 -0.296,0.408 0,0.224 -0.68,1.081 -1.512,1.905 -0.832,0.823 -1.512,1.736 -1.512,2.028 0,0.292 -0.518,0.837 -1.151,1.211 l -1.15,0.679 1.188,0.97 c 0.983,0.802 1.208,1.28 1.301,2.769 0.143,2.259 0.061,2.246 2.045,0.335 l 1.665,-1.605 -1.206,-0.241 c -1.837,-0.367 -2.578,-2.521 -1.415,-4.112 0.694,-0.949 2.376,0.049 2.718,1.613 0.453,2.067 0.467,2.075 1.861,1.012 0.946,-0.722 1.616,-0.956 2.342,-0.817 1.429,0.273 2.01,-0.042 2.01,-1.091 0,-0.655 -0.211,-0.905 -0.76,-0.905 -0.418,0 -1.042,-0.33 -1.388,-0.733 -0.621,-0.726 -0.637,-0.726 -1.559,0 -1.313,1.033 -2.207,0.927 -2.599,-0.307 -0.773,-2.433 0.254,-3.922 1.764,-2.557 0.563,0.51 0.706,0.372 1.542,-1.494 0.719,-1.607 1.127,-2.082 1.866,-2.169 0.622,-0.074 0.751,-0.184 0.378,-0.321 -0.312,-0.115 -1.333,0.026 -2.269,0.315 m 64.031,0.65 c -0.39,1.015 0.201,2.457 1.005,2.457 0.412,0 0.749,-0.143 0.749,-0.317 0,-0.175 0.425,-0.511 0.945,-0.748 1.301,-0.593 1.185,-1.439 -0.236,-1.723 -1.77,-0.354 -2.224,-0.293 -2.463,0.331 m -58.136,1.139 c 0.138,0.549 0.039,1.191 -0.235,1.521 -0.756,0.91 -0.094,1.122 1.352,0.432 0.732,-0.349 2.081,-0.635 2.998,-0.635 1.915,0 2.632,-0.634 1.064,-0.94 -0.58,-0.114 -1.843,-0.459 -2.807,-0.768 -2.409,-0.77 -2.653,-0.73 -2.372,0.39 m 226.138,0.835 c 0.672,0.083 1.862,0.085 2.647,0.003 0.784,-0.082 0.235,-0.15 -1.22,-0.152 -1.456,-0.002 -2.098,0.065 -1.427,0.149 m 11.545,-0.002 c 0.575,0.087 1.426,0.085 1.891,-0.005 0.465,-0.09 -0.006,-0.161 -1.045,-0.158 -1.04,0.003 -1.42,0.076 -0.846,0.163 M 81.537,296.66 c -0.402,0.403 -0.291,2.017 0.14,2.017 1.162,0 2.346,-1.267 1.656,-1.772 -0.746,-0.545 -1.405,-0.635 -1.796,-0.245 m 105.14,0.772 c 0.471,0.09 1.151,0.087 1.513,-0.008 0.361,-0.094 -0.024,-0.168 -0.855,-0.164 -0.832,0.004 -1.128,0.081 -0.658,0.172 M 5.95,302.741 c -0.079,0.156 -0.024,0.794 0.122,1.418 0.146,0.624 0.288,0.879 0.316,0.567 0.027,-0.312 0.152,-0.95 0.278,-1.418 0.209,-0.783 -0.373,-1.244 -0.716,-0.567 m 27.698,1.44 c 0,0.532 0.155,0.872 0.343,0.756 0.188,-0.117 0.254,-0.552 0.145,-0.968 -0.272,-1.04 -0.488,-0.946 -0.488,0.212 m 1.135,2.013 c 0,0.415 0.17,0.861 0.378,0.989 0.208,0.129 0.378,-0.106 0.378,-0.522 0,-0.416 -0.17,-0.861 -0.378,-0.99 -0.208,-0.128 -0.378,0.107 -0.378,0.523 m -28.659,3.258 c 0.029,2.079 0.12,3.1 0.203,2.268 0.106,-1.062 0.453,-1.763 1.165,-2.356 l 1.015,-0.844 -0.802,-0.668 c -0.441,-0.368 -0.988,-1.009 -1.217,-1.425 -0.323,-0.587 -0.404,0.09 -0.364,3.025 m 30.011,0.227 c -0.118,0.707 -0.087,1.851 0.069,2.543 l 0.284,1.257 0.807,-1.091 0.807,-1.092 -0.876,-1.451 -0.876,-1.451 -0.215,1.285 m -28.946,6.484 c 0.003,0.675 0.171,1.484 0.372,1.795 0.266,0.411 0.369,0.071 0.373,-1.228 0.003,-0.988 -0.165,-1.796 -0.373,-1.796 -0.208,0 -0.375,0.553 -0.372,1.229 M 62.6,339.538 c -8.283,4.193 -22.998,16.53 -18.01,15.1 1.719,-0.493 10.295,-6.356 14.578,-9.966 1.04,-0.876 2.65,-2.184 3.578,-2.906 4.541,-3.531 4.473,-4.566 -0.146,-2.228 m -29.897,28.326 c 0.129,0.208 0.554,0.378 0.945,0.378 0.392,0 0.817,-0.17 0.946,-0.378 0.136,-0.221 -0.256,-0.378 -0.946,-0.378 -0.689,0 -1.081,0.157 -0.945,0.378"
       inkscape:connector-curvature="0"
       style="fill:#ffffff;fill-rule:evenodd;stroke:none" />
    <path
       id="path2"
       d="m 304.159,47.516 c -7.04,0.89 -11.468,2.06 -12.68,3.35 -1.336,1.422 -0.551,1.947 1.783,1.192 3.682,-1.191 6.593,-1.774 8.852,-1.774 1.272,0 3.325,-0.263 4.562,-0.583 4.487,-1.163 12.229,1.217 19.891,6.114 1.096,0.701 2.141,1.274 2.322,1.274 0.182,0 0.429,0.255 0.548,0.567 0.12,0.312 0.465,0.567 0.767,0.567 1.083,0 4.784,4.676 6.558,8.287 2.051,4.176 2.454,6.689 1.421,8.867 -0.936,1.973 -3.58,2.443 -3.085,0.55 0.261,-0.997 -0.642,-1.28 -1.705,-0.535 -0.954,0.668 -3.891,0.802 -5.358,0.244 -0.515,-0.196 -2.658,-1.982 -4.76,-3.97 -3.683,-3.48 -6.829,-4.985 -6.829,-3.266 0,0.191 -0.094,0.594 -0.21,0.895 -0.153,0.398 0.261,0.667 1.51,0.981 1.449,0.365 2.015,0.809 3.602,2.829 2.299,2.925 4.357,4.344 6.727,4.637 2.407,0.297 5.279,1.589 5.512,2.479 0.365,1.394 -0.22,7.854 -0.75,8.294 -0.282,0.233 -0.512,0.829 -0.512,1.323 0,0.495 -0.172,0.899 -0.383,0.899 -1.77,0 -2.005,3.096 -0.487,6.427 2.896,6.36 2.91,7.059 0.138,6.859 -1.463,-0.106 -1.586,-0.048 -1.365,0.648 0.134,0.42 0.067,1.072 -0.147,1.449 -0.215,0.377 -0.528,1.267 -0.696,1.977 -0.413,1.747 -1.22,2.21 -2.836,1.626 -3.713,-1.343 -5.081,-0.202 -1.855,1.549 2.292,1.243 2.322,1.365 0.813,3.243 -0.738,0.918 -1.253,2.101 -1.445,3.314 -0.547,3.459 -2.273,4.478 -6.962,4.112 l -3.39,-0.266 1.533,1.595 c 2.265,2.358 2.53,6.177 0.746,10.756 -1.199,3.078 -1.288,3.124 -5.534,2.92 -2.654,-0.128 -3.972,-0.037 -4.626,0.32 -0.503,0.275 -1.558,0.594 -2.346,0.71 -2.925,0.428 -1.15,0.966 3.369,1.021 2.589,0.032 4.934,0.243 5.388,0.486 l 0.803,0.43 -0.913,1.801 c -1.033,2.04 -5.543,6.482 -7.695,7.58 -8.914,4.548 -19.592,-2.07 -22.627,-14.024 -0.332,-1.308 -0.723,-2.548 -0.869,-2.756 -0.146,-0.208 -0.663,-1.824 -1.15,-3.592 -0.744,-2.703 -2.748,-7.605 -4.227,-10.339 -0.482,-0.891 -0.39,-0.967 1.598,-1.306 1.868,-0.319 2.84,-1.429 3.73,-4.262 0.672,-2.135 2.133,-3.751 3.396,-3.755 2.348,-0.006 7.158,-4.953 5.695,-5.857 -0.789,-0.488 -0.394,-2.052 0.662,-2.621 0.572,-0.309 1.615,-1.079 2.319,-1.711 1.736,-1.56 2.029,-1.49 4.703,1.118 2.465,2.405 3.709,2.831 4.414,1.512 0.464,-0.866 -0.083,-2.268 -0.885,-2.268 -2.632,0 -7.075,-7.434 -5.241,-8.769 0.373,-0.272 1.068,-1.132 1.543,-1.912 0.724,-1.186 1.072,-1.417 2.138,-1.417 0.804,0 1.406,-0.237 1.632,-0.641 0.323,-0.576 0.515,-0.588 1.936,-0.12 1.395,0.461 1.825,0.444 3.724,-0.149 6.734,-2.102 8.921,-4.441 8.942,-9.563 0.017,-4.166 -1.533,-4.624 -1.984,-0.586 -0.619,5.552 -7.201,9.194 -11.862,6.563 -2.012,-1.135 -4.214,-1.533 -4.643,-0.839 -0.114,0.185 -0.677,0.452 -1.251,0.595 -2.885,0.716 -5.31,7.116 -4.994,13.179 0.119,2.273 0.111,2.298 -1.342,4.037 -0.728,0.871 -1.323,1.913 -1.323,2.316 0,1.517 -1.104,3.327 -2.61,4.277 -3.362,2.123 -4.282,1.315 -7.722,-6.782 -1.208,-2.844 -2.596,-4.059 -3.547,-3.107 -0.625,0.625 0.141,2.739 2.154,5.942 1.173,1.866 1.956,4.457 1.984,6.565 0.067,5.011 -0.37,5.21 -11.135,5.086 -9.643,-0.111 -9.568,-0.13 -20.152,5.018 -4.656,2.264 -6.608,4.165 -9.089,8.851 -3.352,6.331 -3.682,6.747 -11.873,14.973 -3.231,3.244 -6.076,6.221 -6.323,6.616 -1.143,1.83 -3.801,6.521 -4.368,7.712 -2.747,5.763 -4.824,10.342 -4.824,10.637 0,1.2 -1.982,4.113 -2.933,4.312 -0.57,0.119 -1.717,0.387 -2.549,0.596 -0.832,0.209 -2.163,0.543 -2.959,0.743 -5.924,1.489 -14.965,11.942 -20.575,23.787 -0.837,1.768 -2.392,4.716 -3.455,6.552 -1.063,1.836 -1.933,3.396 -1.933,3.468 0,0.071 -0.724,1.235 -1.607,2.586 -0.884,1.352 -2.274,3.534 -3.09,4.85 -0.816,1.317 -1.942,2.989 -2.503,3.717 -0.562,0.727 -1.472,2.173 -2.024,3.213 -0.551,1.04 -1.502,2.571 -2.111,3.403 -0.61,0.832 -2.257,3.213 -3.66,5.293 -1.404,2.079 -3.283,4.746 -4.176,5.926 -0.893,1.18 -1.623,2.24 -1.623,2.357 0,1.629 -10.388,12.686 -15.483,16.48 -1.971,1.468 -3.963,3.062 -4.174,3.341 -0.106,0.139 -0.958,0.763 -1.893,1.385 -0.936,0.623 -1.787,1.222 -1.891,1.331 -0.104,0.109 -1.38,0.946 -2.835,1.859 -1.456,0.913 -3.072,1.929 -3.592,2.256 -1.603,1.008 -2.413,1.48 -3.592,2.092 -0.624,0.324 -1.644,0.93 -2.268,1.347 -0.624,0.417 -1.645,1.015 -2.269,1.33 -0.623,0.314 -1.389,0.731 -1.701,0.926 -1.612,1.009 -8.034,4.55 -8.253,4.551 -0.139,0.001 -1.114,0.654 -2.166,1.452 -5.579,4.23 -12.898,7.542 -21.704,9.823 -3.573,0.925 -4.172,1.941 -4.172,7.074 0,4.395 0.052,4.291 -3.522,7.009 -11.273,8.574 -20.686,12.189 -28.397,10.904 -7.451,-1.241 -10.425,-2.278 -10.425,-3.634 0,-0.289 -0.716,-1.836 -1.591,-3.439 -0.876,-1.603 -2.25,-4.268 -3.054,-5.922 -2.255,-4.637 -2.543,-4.935 -5.657,-5.871 -1.508,-0.453 -3.139,-1.079 -3.626,-1.391 -3.121,-2.003 -8.67,-0.562 -11.006,2.857 -0.797,1.166 -1.892,2.63 -2.434,3.254 -0.543,0.623 -0.987,1.259 -0.987,1.413 0,0.153 -0.705,0.723 -1.567,1.267 -3.345,2.112 -4.079,3.984 -2.781,7.091 0.321,0.77 0.567,2.508 0.567,4.015 0,2.711 1.085,6.781 2.128,7.982 0.285,0.329 0.519,0.785 0.519,1.015 0,0.633 4.371,6.075 6.6,8.218 1.848,1.778 6.014,6.974 7.55,9.418 0.38,0.606 1.258,2.732 1.951,4.726 0.693,1.994 1.526,4.391 1.851,5.327 3.851,11.081 12.053,12.759 23.482,4.805 2.154,-1.499 4.651,-3.236 5.549,-3.86 0.898,-0.623 4.413,-3.325 7.812,-6.003 3.399,-2.679 7.304,-5.507 8.679,-6.285 2.416,-1.368 3.397,-1.714 9.493,-3.349 4.92,-1.319 11.627,-2.504 17.392,-3.07 10.831,-1.066 16.168,-2.156 21.355,-4.365 3.037,-1.293 9.506,-4.635 11.214,-5.793 0.966,-0.655 1.916,-1.191 2.111,-1.191 0.195,0 1.326,-0.681 2.514,-1.513 1.187,-0.831 2.261,-1.512 2.387,-1.512 0.249,0 3.222,-2.385 4.218,-3.385 2.861,-2.871 8.808,-5.696 15.094,-7.169 5.962,-1.397 14.994,-3.38 16.343,-3.588 0.728,-0.112 2.769,-0.55 4.537,-0.974 1.767,-0.424 4.404,-1.014 5.86,-1.31 3.078,-0.627 6.526,-1.604 7.45,-2.11 0.355,-0.194 1.376,-0.465 2.269,-0.602 0.893,-0.137 2.105,-0.492 2.694,-0.789 0.59,-0.298 2.376,-0.961 3.97,-1.475 1.594,-0.514 3.435,-1.183 4.09,-1.486 0.655,-0.304 1.431,-0.552 1.724,-0.552 0.292,0 0.862,-0.25 1.266,-0.555 0.403,-0.306 1.074,-0.567 1.49,-0.58 0.416,-0.014 1.436,-0.354 2.268,-0.756 0.832,-0.402 1.64,-0.736 1.795,-0.743 0.155,-0.007 1.516,-0.586 3.024,-1.286 6.534,-3.032 6.364,-3.011 10.201,-1.235 1.512,0.701 3.928,1.739 5.369,2.308 2.53,0.999 3.065,1.236 4.803,2.125 0.443,0.227 1.591,0.636 2.552,0.91 1.852,0.528 4.649,1.502 5.905,2.056 2.132,0.942 11.438,1.917 14.021,1.469 17.247,-2.99 31.758,-15.38 36.895,-31.502 1.648,-5.174 2.914,-14.921 2.397,-18.454 -0.322,-2.199 0.368,-4.012 2.449,-6.435 1.041,-1.212 1.893,-2.334 1.893,-2.494 0,-0.159 0.338,-0.698 0.75,-1.198 0.412,-0.499 0.885,-1.078 1.051,-1.286 0.849,-1.064 5.486,-9.355 7.923,-14.168 1.524,-3.01 2.937,-5.638 3.14,-5.841 0.203,-0.203 0.369,-0.587 0.369,-0.852 0,-0.43 2.555,-5.949 6.27,-13.544 0.77,-1.574 1.308,-3.259 1.327,-4.159 l 0.033,-1.512 0.376,1.323 c 0.207,0.728 0.609,1.583 0.893,1.901 0.284,0.317 0.634,1.338 0.776,2.268 0.143,0.93 0.492,2.151 0.775,2.712 0.283,0.562 0.514,1.498 0.514,2.08 0,1.034 1.127,4.845 2.102,7.107 0.269,0.624 0.603,1.983 0.742,3.02 0.14,1.037 0.469,2.313 0.733,2.835 0.263,0.523 0.592,1.833 0.729,2.911 0.138,1.078 0.5,2.44 0.805,3.025 0.306,0.585 0.557,1.749 0.558,2.586 0.001,0.838 0.254,1.882 0.561,2.321 0.307,0.439 0.671,1.795 0.809,3.014 0.137,1.219 0.481,2.676 0.764,3.237 0.283,0.562 0.515,1.678 0.515,2.48 0,0.802 0.249,1.789 0.555,2.193 0.305,0.403 0.56,1.104 0.567,1.557 0.006,0.453 0.226,1.049 0.487,1.324 0.262,0.274 0.968,1.69 1.57,3.146 2.6,6.285 3.209,7.704 4.377,10.208 0.679,1.455 1.698,3.242 2.265,3.969 2.384,3.065 3.764,5.307 4.152,6.75 0.228,0.845 0.579,1.638 0.782,1.763 0.202,0.125 0.368,0.502 0.368,0.837 0,0.88 1.819,5.298 2.862,6.95 1.237,1.959 2.858,3.096 6.72,4.713 3.402,1.424 7.407,3.854 11.356,6.888 4.175,3.21 7.154,2.727 6.997,-1.133 -0.05,-1.216 0.069,-2.372 0.265,-2.567 0.504,-0.504 5.892,2.221 8.662,4.381 4.23,3.3 10.684,2.618 10.815,-1.143 0.034,-0.978 0.096,-0.892 0.39,0.539 0.193,0.935 0.433,2.084 0.534,2.552 0.101,0.468 0.436,0.85 0.744,0.85 0.462,0 0.56,-0.76 0.56,-4.347 0,-2.392 -0.128,-4.346 -0.284,-4.342 -0.519,0.01 -1.091,0.553 -1.388,1.317 -0.283,0.727 -0.307,0.722 -0.635,-0.129 -0.653,-1.698 -1.836,-2.74 -10.946,-9.655 -0.946,-0.719 -2.392,-1.428 -3.213,-1.576 -0.821,-0.149 -1.663,-0.398 -1.87,-0.555 -0.208,-0.157 -0.972,-0.412 -1.696,-0.567 -0.725,-0.156 -1.661,-0.499 -2.08,-0.763 -0.419,-0.264 -1.303,-0.593 -1.964,-0.731 -0.661,-0.138 -1.405,-0.495 -1.653,-0.793 -0.248,-0.299 -0.642,-0.544 -0.877,-0.545 -1.134,-0.007 -7.7,-4.784 -9.101,-6.621 -1.036,-1.358 -3.248,-9.086 -4.219,-14.738 -1.135,-6.608 -1.269,-7.645 -1.276,-9.856 -0.004,-1.262 -0.245,-3.133 -0.536,-4.159 -0.29,-1.025 -0.633,-3.821 -0.761,-6.212 -0.128,-2.391 -0.483,-5.964 -0.788,-7.939 -0.306,-1.976 -0.56,-4.358 -0.565,-5.293 -0.005,-0.936 -0.236,-2.136 -0.513,-2.668 -0.277,-0.531 -0.618,-1.931 -0.756,-3.111 -0.139,-1.18 -0.487,-2.702 -0.774,-3.382 -0.286,-0.68 -0.71,-1.959 -0.942,-2.843 -0.232,-0.884 -0.61,-2.33 -0.841,-3.214 -0.23,-0.883 -0.645,-2.117 -0.922,-2.741 -3.16,-7.109 -3.347,-8.125 -3.233,-17.509 0.057,-4.639 0.266,-8.977 0.465,-9.64 0.559,-1.859 0.856,-13.392 0.402,-15.573 -0.955,-4.58 -2.38,-8.924 -3.712,-11.314 -0.472,-0.847 -1.407,-2.615 -2.077,-3.929 -1.963,-3.847 -9.742,-9.899 -12.724,-9.899 -0.371,0 -1.013,-0.237 -1.427,-0.527 -0.415,-0.291 -1.941,-0.813 -3.393,-1.16 -1.451,-0.348 -3.114,-0.815 -3.695,-1.038 l -1.056,-0.405 0.839,-0.892 c 0.461,-0.491 1.032,-0.893 1.269,-0.893 0.71,0 2.388,-2 2.686,-3.202 0.299,-1.21 1.319,-3.111 2.642,-4.926 0.455,-0.624 1.375,-2.24 2.045,-3.592 0.67,-1.351 1.491,-3.006 1.826,-3.677 0.335,-0.671 1.069,-1.381 1.632,-1.577 2.035,-0.71 2.325,-4.406 0.606,-7.705 -0.796,-1.526 -0.678,-6.688 0.177,-7.733 0.403,-0.493 0.932,-3.594 1.307,-7.658 0.232,-2.516 0.964,-4.164 1.848,-4.164 0.919,0 3.133,-2.763 3.554,-4.435 0.703,-2.789 -1.234,-8.177 -4.273,-11.891 -0.967,-1.182 -1.758,-2.261 -1.758,-2.399 0,-1.194 -6.937,-6.527 -12.39,-9.526 -4.673,-2.569 -12.917,-3.994 -18.801,-3.25 m -19.534,6.162 c -3.553,1.073 -8.859,7.841 -10.159,12.958 -0.171,0.675 -0.849,3.014 -1.505,5.198 -1.437,4.778 -2.447,11.608 -1.827,12.355 1.128,1.359 2.59,0.088 2.59,-2.251 0,-0.709 0.339,-2.974 0.754,-5.035 2.212,-10.987 6.377,-18.792 11.392,-21.351 1.567,-0.799 1.724,-1.077 1.011,-1.79 -0.509,-0.509 -0.811,-0.521 -2.256,-0.084 m -6.523,9.366 c -0.411,0.412 -0.568,-0.126 -0.306,-1.057 l 0.26,-0.928 0.133,0.883 c 0.073,0.485 0.034,0.982 -0.087,1.102 m -1.471,2.646 c -0.095,0.364 -0.173,0.066 -0.173,-0.662 0,-0.727 0.078,-1.025 0.173,-0.661 0.095,0.364 0.095,0.959 0,1.323 m 27.497,-0.612 c -0.295,0.478 -0.276,0.491 4.804,3.241 3.755,2.033 4.111,2.089 4.111,0.65 0,-2.305 -7.793,-5.706 -8.915,-3.891 m 36.033,9.112 c -0.085,0.679 -0.155,0.215 -0.157,-1.033 -0.002,-1.248 0.066,-1.804 0.153,-1.236 0.086,0.569 0.088,1.589 0.004,2.269 m -4.898,5.134 c 0.082,0.247 -0.12,0.449 -0.449,0.449 -0.329,0 -0.598,-0.269 -0.598,-0.598 0,-0.668 0.813,-0.552 1.047,0.149 m -22.226,2.623 c -0.012,0.507 -1.786,1.985 -2.383,1.985 -0.319,0 -0.875,0.294 -1.234,0.653 -1.086,1.086 -6.732,1.362 -7.05,0.344 -0.056,-0.179 1.264,-0.349 2.932,-0.378 2.526,-0.043 3.216,-0.195 4.116,-0.903 0.594,-0.467 1.319,-0.85 1.609,-0.85 0.29,0 0.626,-0.255 0.746,-0.567 0.219,-0.573 1.276,-0.81 1.264,-0.284 m -54.436,1.554 c -10.799,3.933 0.51,9.802 16.091,8.352 4.218,-0.392 4.448,-0.376 5.232,0.36 1.136,1.068 5.679,-0.922 7.688,-3.366 2.131,-2.594 -7.442,-4.91 -10.157,-2.458 -1.602,1.448 -4.647,1.839 -7.015,0.902 -0.585,-0.231 -3.276,-0.538 -5.979,-0.681 -4.204,-0.222 -4.778,-0.324 -3.97,-0.712 0.52,-0.248 1.201,-0.623 1.513,-0.831 0.312,-0.209 1.049,-0.55 1.637,-0.76 0.589,-0.209 1.001,-0.591 0.916,-0.85 -0.233,-0.705 -3.975,-0.677 -5.956,0.044 m 42.896,-0.194 c 1.047,0.765 0.33,0.918 -3.009,0.641 -2.655,-0.221 -2.909,-0.303 -2.08,-0.677 1.321,-0.594 4.255,-0.574 5.089,0.036 m -42.286,2.091 c -2.005,1.216 -0.55,1.726 6.533,2.29 9.68,0.77 12.328,0.571 12.915,-0.972 0.556,-1.463 7.919,-0.342 7.919,1.206 0,1.124 -4.048,3.68 -5.384,3.4 -0.678,-0.141 -4.805,-0.3 -9.171,-0.352 -8.599,-0.103 -12.679,-0.699 -15.364,-2.245 -2.227,-1.282 -2.304,-2.49 -0.216,-3.426 2.515,-1.127 4.662,-1.05 2.768,0.099 m 35.823,-0.145 c -0.12,0.311 -0.37,0.471 -0.556,0.356 -0.533,-0.33 -0.394,-0.921 0.217,-0.921 0.337,0 0.47,0.222 0.339,0.565 m 5.387,-0.293 c -0.272,0.272 -2.926,0.174 -3.225,-0.118 -0.087,-0.085 0.665,-0.154 1.67,-0.154 1.005,0 1.705,0.123 1.555,0.272 m -1.366,1.24 0.945,0.303 -0.984,0.038 c -0.896,0.034 -1.978,0.845 -3.284,2.459 -0.268,0.332 -0.821,0.603 -1.229,0.603 -1.008,0 -1.001,1.985 0.015,3.879 1.197,2.235 1.052,2.769 -0.631,2.318 -2.326,-0.624 -1.415,-7.331 0.997,-7.331 0.137,0 0.534,-0.596 0.881,-1.323 0.661,-1.387 1.321,-1.576 3.29,-0.946 m 25.295,1.607 c -2.539,1.288 -3.605,2.93 -1.903,2.93 1.101,0 1.359,0.691 0.58,1.551 -0.655,0.724 -0.641,0.783 0.436,1.844 2.362,2.33 3.771,1.672 4.037,-1.882 l 0.099,-1.324 -2.079,-0.189 c -2.486,-0.226 -1.687,-0.756 1.14,-0.756 2.601,0 3.775,-0.522 3.775,-1.679 0,-2.044 -2.613,-2.257 -6.085,-0.495 m 4.951,0.095 c 0,0.61 -1.695,0.811 -2.047,0.241 -0.299,-0.483 0.169,-0.808 1.164,-0.808 0.533,0 0.883,0.225 0.883,0.567 m -28.939,2.867 c -0.867,1.676 -0.813,3.277 0.143,4.233 1.342,1.342 1.969,-0.57 1.613,-4.926 -0.073,-0.897 -1.155,-0.47 -1.756,0.693 m 33.096,1.575 c -0.001,1.206 -1.357,3.966 -1.753,3.57 -0.956,-0.956 -0.761,-2.956 0.376,-3.853 1.474,-1.162 1.379,-1.182 1.377,0.283 m -6.727,0.095 c -0.205,1.378 -0.424,1.701 -1.153,1.701 -1.262,0 -1.787,-1.024 -0.982,-1.914 0.887,-0.981 2.291,-0.841 2.135,0.213 m 0.377,9.716 c -0.623,0.623 -0.571,2.381 0.087,2.927 0.776,0.644 1.568,-1.01 1.393,-2.908 -0.055,-0.6 -0.888,-0.611 -1.48,-0.019 m 5.39,3.301 c 0.28,0.452 -0.432,0.901 -0.935,0.589 -0.423,-0.261 -0.145,-0.941 0.384,-0.941 0.183,0 0.431,0.158 0.551,0.352 m -51.024,2.294 c 0.129,0.208 0.692,0.389 1.252,0.403 l 1.017,0.023 -0.945,0.371 c -0.52,0.204 -1.23,0.742 -1.578,1.196 l -0.634,0.824 -0.258,-1.029 c -0.403,-1.608 0.442,-2.927 1.146,-1.788 m 48.205,3.163 c 0,0.284 -0.312,0.922 -0.692,1.418 -0.381,0.496 -0.84,1.242 -1.021,1.658 -0.281,0.644 -0.351,0.56 -0.474,-0.566 -0.079,-0.727 -0.331,-1.548 -0.561,-1.825 -0.311,-0.374 -0.279,-0.59 0.125,-0.846 0.849,-0.537 2.623,-0.428 2.623,0.161 m -51.082,4.638 c -0.244,0.294 -1.146,0.517 -2.092,0.517 -1.399,0 -1.73,0.148 -2.086,0.928 -0.453,0.995 -2.31,0.519 -3.077,-0.79 -0.166,-0.284 -0.591,-0.519 -0.945,-0.522 -1.925,-0.017 0.794,-0.745 2.949,-0.789 1.352,-0.028 2.968,-0.17 3.592,-0.315 1.387,-0.324 2.294,0.206 1.659,0.971 m -9.267,-0.247 c 0.263,0.263 0.191,0.386 -0.225,0.386 -0.336,0 -0.939,0.45 -1.34,1 l -0.728,1 -1.163,-0.859 c -0.862,-0.638 -1.858,-0.909 -3.862,-1.053 -1.486,-0.106 -2.563,-0.33 -2.394,-0.497 0.739,-0.733 8.976,-0.714 9.712,0.023 m 57.37,0.461 c -0.44,1.191 -1.119,1.289 -0.897,0.129 0.1,-0.528 0.413,-0.96 0.694,-0.96 0.367,0 0.424,0.233 0.203,0.831 m -19.941,0.477 c -0.38,0.99 4.179,4.741 5.763,4.741 0.762,0 0.568,-0.314 -1.477,-2.389 -2.388,-2.424 -3.933,-3.272 -4.286,-2.352 m -48.359,0.185 c 0.283,0.457 -2.238,0.948 -2.868,0.558 -0.344,-0.212 -0.273,-0.369 0.259,-0.578 1.045,-0.409 2.35,-0.399 2.609,0.02 m 6.192,0.934 c 0.86,0.445 1.28,1.25 2.439,4.678 l 1.4,4.141 v 8.325 c 0,9.418 -0.947,15.36 -3.478,21.828 -2.215,5.662 -12.011,15.117 -11.065,10.68 0.764,-3.58 4.685,-10.384 7.171,-12.444 3.892,-3.224 2.808,-5.656 -1.291,-2.894 -2.523,1.701 -4.674,4.519 -6.495,8.51 -0.836,1.832 -1.792,3.924 -2.126,4.649 -0.333,0.726 -1.174,2.127 -1.869,3.116 -0.695,0.988 -1.263,1.888 -1.263,2.001 0,0.737 -5.46,6.616 -7.656,8.243 -1.58,1.171 -1.765,2.068 -0.794,3.848 0.341,0.623 3.462,6.748 6.935,13.61 8.965,17.708 10.75,20.468 16.875,26.09 4.756,4.365 6.935,6.539 9.963,9.939 2.315,2.601 3.302,3.383 6.435,5.106 8.213,4.515 9.308,5.484 10.271,9.085 0.535,2.001 0.234,2.504 -1.505,2.515 -0.758,0.005 -0.859,0.17 -0.756,1.235 0.103,1.064 -0.008,1.246 -0.826,1.355 -1.437,0.192 -1.491,0.411 -0.869,3.465 1.003,4.918 1.079,8.696 0.177,8.696 -0.882,0 -1.955,-2.694 -1.955,-4.91 0,-1.693 -0.722,-2.786 -1.615,-2.443 -0.357,0.137 -0.573,0.372 -0.48,0.523 0.835,1.351 1.327,10.529 0.588,10.985 -0.858,0.531 -3.763,0.75 -4.785,0.361 l -1.008,-0.383 1.003,-1.047 c 1.913,-1.996 1.515,-2.867 -3.106,-6.795 -4.017,-3.414 -9.452,-10.602 -12.313,-16.283 -1.264,-2.51 -1.492,-2.736 -4.834,-4.793 -1.929,-1.187 -4.357,-2.955 -5.397,-3.929 -1.04,-0.974 -2.401,-2.094 -3.025,-2.488 -0.623,-0.395 -1.814,-1.261 -2.646,-1.925 -0.832,-0.664 -3.214,-2.182 -5.293,-3.373 -6.057,-3.469 -7.876,-4.954 -16.068,-13.117 -10.379,-10.341 -12.525,-13.036 -14.531,-18.247 -0.56,-1.455 -1.59,-3.837 -2.288,-5.293 -2.013,-4.197 -2.12,-3.679 3.071,-14.828 0.699,-1.502 1.271,-2.985 1.271,-3.296 0,-0.311 0.236,-1.124 0.524,-1.806 0.288,-0.683 0.901,-2.263 1.362,-3.51 3.765,-10.193 9.949,-18.776 20.01,-27.769 2.172,-1.942 4.872,-5.837 5.516,-7.959 2.011,-6.619 19.18,-16.113 24.326,-13.452 m 8.158,1.867 c 0.951,1.114 1.73,2.164 1.73,2.333 0,0.169 0.23,0.576 0.511,0.905 0.556,0.65 2.518,6.628 2.515,7.663 -10e-4,0.352 0.169,0.744 0.377,0.873 0.208,0.128 0.378,0.492 0.378,0.808 0,1.521 2.791,7.807 5.515,12.424 3.738,6.334 8.465,9.269 14.901,9.253 7.787,-0.02 18.72,-10.902 20.501,-20.406 0.732,-3.905 0.909,-4.159 2.901,-4.159 3.466,0 4.24,1.816 2.698,6.332 -0.408,1.196 -1.093,4.047 -1.522,6.334 -0.428,2.287 -0.94,5.009 -1.137,6.049 -0.198,1.04 -0.463,2.826 -0.591,3.97 -0.128,1.143 -0.464,3.44 -0.746,5.104 -0.772,4.548 -1.048,18.849 -0.548,28.355 0.563,10.705 0.447,12.551 -0.966,15.312 -0.266,0.52 -0.858,1.881 -1.317,3.025 -0.458,1.143 -1.164,2.845 -1.569,3.78 -0.957,2.211 -7.725,15.62 -8.874,17.581 -0.487,0.831 -1.147,2.022 -1.466,2.646 -0.319,0.624 -1.255,2.155 -2.079,3.403 -0.825,1.247 -1.614,2.523 -1.755,2.835 -0.733,1.631 -4.791,6.042 -5.574,6.059 -0.228,0.005 -1.664,0.087 -3.191,0.182 -3.231,0.202 -6.065,-0.937 -11.51,-4.624 -1.619,-1.097 -3.099,-1.995 -3.288,-1.995 -0.488,0 -1.981,-1.498 -2.826,-2.835 -0.394,-0.624 -3.909,-4.367 -7.811,-8.318 -8.527,-8.632 -8.804,-8.933 -10.083,-10.914 -3.022,-4.686 -13.69,-26.326 -13.69,-27.772 0,-5.406 4.44,-11.375 8.643,-11.622 4.553,-0.267 10.562,-6.315 14.156,-14.248 0.353,-0.779 0.893,-1.97 1.199,-2.646 0.307,-0.676 0.832,-2.505 1.167,-4.064 0.335,-1.56 0.948,-4.367 1.361,-6.239 0.586,-2.651 0.762,-4.947 0.8,-10.396 0.051,-7.325 0.046,-7.36 -2.05,-13.886 -1.248,-3.884 0.387,-4.441 3.24,-1.102 m -18.686,-1.27 c 0,0.208 -0.35,0.378 -0.778,0.378 -0.428,0 -0.673,-0.17 -0.545,-0.378 0.129,-0.208 0.479,-0.378 0.778,-0.378 0.3,0 0.545,0.17 0.545,0.378 m -7.603,3.949 c -0.627,0.627 -3.108,2.102 -3.267,1.942 -0.398,-0.398 1.638,-2.097 2.521,-2.103 0.503,-0.004 0.839,0.068 0.746,0.161 m 73.01,2.15 c 0,0.985 1.406,3.343 2.015,3.38 0.243,0.014 -0.215,0.268 -1.019,0.562 -1.733,0.636 -2.131,0.468 -2.131,-0.897 0,-0.561 -0.154,-1.559 -0.343,-2.218 -0.382,-1.33 -0.236,-1.633 0.785,-1.633 0.455,0 0.693,0.277 0.693,0.806 m -49.623,13.824 c -0.067,2.247 -0.122,0.512 -0.123,-3.855 0,-4.366 0.055,-6.204 0.122,-4.084 0.067,2.12 0.068,5.693 0.001,7.939 m 58.741,-9.225 c 0.557,0.424 0.533,0.582 -0.253,1.729 l -0.865,1.263 -0.598,-1.155 c -1.091,-2.109 -0.073,-3.199 1.716,-1.837 m 4.461,3.541 c 1.541,0.773 4.896,3.373 5.616,4.352 0.265,0.36 0.694,0.875 0.954,1.145 5.589,5.809 7.629,16.602 6.139,32.485 -0.834,8.896 -0.594,13.066 1.119,19.424 0.79,2.932 1.34,5.104 1.873,7.399 0.268,1.159 0.659,2.435 0.868,2.836 0.208,0.401 0.496,1.533 0.638,2.516 0.143,0.983 0.41,1.88 0.594,1.994 0.184,0.113 0.45,1.011 0.591,1.994 0.142,0.982 0.481,2.333 0.753,3.001 0.272,0.668 0.614,2.029 0.758,3.024 0.145,0.996 0.407,2.09 0.584,2.432 0.177,0.342 0.505,2.213 0.73,4.159 1.274,11.055 1.485,13.174 1.491,15.011 0.004,1.113 0.25,2.559 0.546,3.214 0.33,0.728 0.604,2.954 0.706,5.728 0.112,3.057 0.368,4.996 0.784,5.943 0.34,0.773 0.619,2.049 0.62,2.835 0.002,0.787 0.257,1.917 0.568,2.513 0.31,0.596 0.564,1.578 0.564,2.183 0,0.606 0.341,2.069 0.756,3.252 0.416,1.183 0.757,2.459 0.757,2.835 0,1.482 4.19,5.122 8.506,7.388 3.211,1.685 7.291,3.486 7.901,3.486 1.396,0 4.371,1.684 4.379,2.48 0.004,0.428 0.257,1.108 0.563,1.512 0.305,0.404 0.56,1.139 0.567,1.634 0.007,0.579 0.753,1.635 2.091,2.962 1.144,1.135 2.08,2.219 2.08,2.409 0,0.19 0.245,0.345 0.544,0.345 0.3,0 0.65,0.17 0.779,0.378 0.362,0.586 -0.824,0.446 -1.44,-0.17 -0.301,-0.302 -1.032,-0.67 -1.624,-0.819 -0.592,-0.148 -1.837,-0.752 -2.767,-1.342 -0.929,-0.589 -2.079,-1.071 -2.555,-1.071 -0.961,0 -3.909,-0.658 -5.496,-1.227 -0.565,-0.202 -1.64,-1.115 -2.389,-2.028 -1.49,-1.818 -1.867,-1.958 -2.86,-1.059 -0.822,0.745 -0.372,1.62 2.404,4.67 2.841,3.122 2.246,4.08 -1.069,1.723 -1.024,-0.728 -1.997,-1.323 -2.162,-1.323 -0.165,0 -0.761,-0.341 -1.324,-0.757 -0.563,-0.416 -2.726,-1.406 -4.805,-2.2 -6.396,-2.442 -8.447,-4.358 -9.043,-8.449 -0.141,-0.971 -0.504,-1.97 -0.806,-2.22 -0.301,-0.251 -0.548,-0.848 -0.548,-1.327 0,-0.48 -0.222,-1.097 -0.494,-1.372 -0.271,-0.275 -0.6,-0.78 -0.729,-1.122 -0.13,-0.343 -1.066,-1.789 -2.08,-3.214 -2.532,-3.557 -4.643,-7.686 -5.771,-11.286 -0.261,-0.832 -1.113,-2.874 -1.895,-4.537 -1.926,-4.102 -2.756,-6.019 -3.765,-8.696 -0.469,-1.248 -1.09,-2.827 -1.378,-3.51 -0.288,-0.683 -0.524,-1.874 -0.526,-2.646 -10e-4,-0.773 -0.242,-1.865 -0.535,-2.426 -0.293,-0.562 -0.654,-2.178 -0.803,-3.592 -0.15,-1.414 -0.436,-2.996 -0.637,-3.516 -0.201,-0.52 -0.51,-2.056 -0.685,-3.414 -0.176,-1.357 -0.584,-2.974 -0.906,-3.591 -0.322,-0.618 -0.586,-1.586 -0.588,-2.15 -10e-4,-0.565 -0.233,-1.586 -0.516,-2.269 -1.069,-2.581 -2.133,-6.198 -2.146,-7.29 -0.007,-0.624 -0.257,-1.56 -0.554,-2.08 -0.297,-0.52 -0.55,-1.54 -0.562,-2.268 -0.013,-0.728 -0.359,-2.588 -0.77,-4.134 -1.051,-3.953 -0.982,-5.475 0.325,-7.154 1.455,-1.869 4.221,-7.801 4.221,-9.052 0,-0.36 0.347,-1.301 0.77,-2.092 1.016,-1.895 1.166,-4.145 0.288,-4.326 -0.619,-0.129 -1.75,1.932 -5.243,9.555 -2.104,4.593 -3.548,5.887 -3.903,3.498 -1.151,-7.752 -1.366,-12.331 -0.778,-16.567 0.33,-2.377 0.743,-6.619 0.918,-9.426 0.175,-2.807 0.488,-5.699 0.696,-6.427 0.208,-0.728 0.493,-2.599 0.634,-4.159 0.14,-1.559 0.409,-3.021 0.597,-3.247 0.188,-0.226 0.504,-1.673 0.702,-3.214 0.47,-3.647 1.422,-7.327 2.4,-9.269 0.872,-1.735 1.767,-1.787 4.778,-0.277 m -48.512,0.821 c -0.131,0.213 0.146,0.504 0.617,0.648 0.471,0.143 1.112,0.474 1.423,0.735 0.312,0.261 1.248,0.689 2.08,0.951 0.832,0.262 2.199,0.934 3.038,1.493 1.787,1.19 2.444,1.104 2.444,-0.321 0,-1.456 -1.724,-2.608 -4.621,-3.087 -1.306,-0.217 -2.906,-0.486 -3.558,-0.6 -0.651,-0.113 -1.291,-0.032 -1.423,0.181 m 42.116,1.008 c 0,0.52 -0.17,0.946 -0.378,0.946 -0.422,0 -0.518,-1.246 -0.126,-1.639 0.417,-0.416 0.504,-0.296 0.504,0.693 m -91.151,2.312 c -0.549,0.662 -0.9,0.403 -0.581,-0.429 0.128,-0.334 0.413,-0.496 0.632,-0.361 0.275,0.17 0.258,0.417 -0.051,0.79 m 81.204,0.808 c -0.095,0.363 -0.173,0.066 -0.173,-0.662 0,-0.728 0.078,-1.026 0.173,-0.662 0.095,0.364 0.095,0.96 0,1.324 M 315.881,138 c 0.416,0.673 -0.217,1.887 -0.985,1.887 -1.048,0 -1.38,-1.126 -0.518,-1.756 0.836,-0.612 1.187,-0.643 1.503,-0.131 m 9.261,2.098 c 0,1.305 -0.144,2.013 -0.378,1.868 -0.421,-0.26 -0.49,-1.813 -0.14,-3.119 0.366,-1.365 0.518,-0.998 0.518,1.251 m -1.62,8.39 c -0.086,0.572 -0.157,0.104 -0.157,-1.04 0,-1.144 0.071,-1.612 0.157,-1.04 0.087,0.572 0.087,1.508 0,2.08 m -100.349,0.378 c -0.482,1.31 -3.321,4.67 -3.446,4.078 -0.067,-0.317 0.264,-1.131 0.736,-1.808 1.726,-2.475 3.258,-3.758 2.71,-2.27 m 123.786,2.457 c -0.09,0.468 -0.164,0.085 -0.164,-0.85 0,-0.936 0.074,-1.319 0.164,-0.851 0.09,0.468 0.09,1.233 0,1.701 m -128.055,3.52 c 0,0.532 -0.155,0.872 -0.343,0.755 -0.188,-0.116 -0.254,-0.551 -0.145,-0.967 0.272,-1.04 0.488,-0.947 0.488,0.212 m 129.678,4.136 c 0,4.058 -0.364,5.481 -0.896,3.497 -0.573,-2.139 -0.164,-7.845 0.562,-7.845 0.184,0 0.334,1.957 0.334,4.348 m -26.445,1.833 c -0.278,0.278 -0.398,-0.345 -0.398,-2.072 0,-3.211 0.533,-3.746 0.681,-0.684 0.063,1.307 -0.063,2.536 -0.283,2.756 m -104.653,-3.345 c -0.1,0.52 -0.246,0.945 -0.326,0.945 -0.08,0 -0.145,-0.425 -0.145,-0.945 0,-0.52 0.147,-0.945 0.326,-0.945 0.179,0 0.244,0.425 0.145,0.945 m 38.849,0.536 c 0,0.611 -0.45,1.543 -0.744,1.543 -0.157,0 -0.204,-0.425 -0.105,-0.945 0.169,-0.884 0.849,-1.363 0.849,-0.598 m -1.513,3.434 c 0,0.623 -0.17,1.134 -0.378,1.134 -0.42,0 -0.521,-1.621 -0.126,-2.016 0.427,-0.428 0.504,-0.293 0.504,0.882 m -1.14,2.552 c -0.007,0.878 -0.598,1.78 -0.873,1.334 -0.292,-0.472 0.124,-1.996 0.545,-1.996 0.184,0 0.332,0.298 0.328,0.662 m -1.338,4.058 c 0.147,0.98 0.524,1.852 0.894,2.067 0.521,0.305 0.535,0.38 0.072,0.407 -0.312,0.019 -1.374,0.167 -2.36,0.33 -2.477,0.407 -2.509,-0.403 -0.137,-3.439 1.083,-1.387 1.238,-1.323 1.531,0.635 m 95.058,4.354 c -0.02,1.767 -0.146,4.83 -0.28,6.805 l -0.243,3.592 -0.271,-3.964 c -0.305,-4.453 0.024,-10.918 0.516,-10.142 0.173,0.272 0.298,1.941 0.278,3.709 m -136.436,0.721 c 0,0.397 -0.461,1.609 -1.024,2.694 l -1.023,1.974 -0.349,-1.088 c -0.192,-0.598 -0.577,-1.351 -0.857,-1.673 -0.55,-0.635 -0.306,-0.92 1.741,-2.038 1.308,-0.714 1.512,-0.697 1.512,0.131 m -5.009,2.542 c 1.329,0.356 1.104,2.268 -0.662,5.621 -2.226,4.227 -2.152,4.813 1.559,12.316 3.291,6.654 5.85,10.745 8.615,13.771 2.615,2.862 12.427,12.516 14.742,14.504 4.208,3.613 4.225,3.465 -0.882,7.723 -5.367,4.476 -14.208,7.894 -16.922,6.543 -1.705,-0.849 -2.81,-4.829 -1.823,-6.563 1.246,-2.19 2.022,-5.154 2.301,-8.785 0.167,-2.183 0.493,-5.424 0.725,-7.201 0.476,-3.657 0.139,-5.275 -1.1,-5.275 -1.108,0 -1.181,0.303 -1.388,5.754 -0.116,3.037 -0.408,5.584 -0.741,6.446 -0.302,0.784 -0.549,1.928 -0.549,2.542 0,1.72 -2.126,6.689 -4.19,9.794 -1.023,1.538 -1.859,2.934 -1.859,3.101 0,0.451 -5.783,5.247 -6.333,5.251 -0.26,0.002 -0.473,0.147 -0.473,0.321 0,0.174 -1.063,1.009 -2.363,1.855 -1.299,0.845 -3.468,2.297 -4.82,3.227 -6.485,4.459 -9.087,5.986 -16.446,9.653 -5.066,2.525 -7.152,3.473 -7.638,3.473 -0.222,0 -0.891,0.255 -1.487,0.565 -0.596,0.311 -1.626,0.566 -2.289,0.567 -0.664,0.002 -1.3,0.154 -1.415,0.339 -0.114,0.185 -0.677,0.448 -1.251,0.585 -0.573,0.136 -1.933,0.587 -3.022,1.001 -1.088,0.414 -2.96,1.112 -4.159,1.551 -1.199,0.439 -2.716,1.028 -3.371,1.309 -0.655,0.281 -1.384,0.511 -1.62,0.511 -0.236,0 -0.806,0.236 -1.266,0.524 -0.461,0.289 -1.458,0.634 -2.217,0.766 -0.759,0.133 -1.588,0.493 -1.842,0.799 -0.255,0.306 -0.713,0.557 -1.02,0.557 -0.306,0 -1.008,0.24 -1.56,0.534 -0.552,0.293 -1.939,0.994 -3.083,1.556 -1.144,0.562 -3.015,1.788 -4.159,2.724 -3.202,2.622 -11.898,5.958 -22.048,8.459 -2.533,0.625 -5.765,1.551 -7.181,2.06 -2.429,0.872 -5.817,1.364 -3.81,0.554 0.439,-0.178 0.899,-0.586 1.022,-0.908 0.2,-0.519 5.595,-4.253 7.064,-4.888 0.312,-0.135 1.248,-0.671 2.08,-1.192 0.831,-0.521 2.618,-1.489 3.969,-2.151 1.352,-0.661 2.543,-1.302 2.647,-1.423 0.104,-0.122 1.802,-1.049 3.774,-2.061 3.303,-1.696 5.14,-2.809 11.043,-6.697 1.183,-0.779 2.502,-1.528 2.93,-1.664 0.428,-0.136 0.779,-0.406 0.779,-0.599 0,-0.194 0.173,-0.353 0.386,-0.353 0.35,0 3.32,-1.791 3.772,-2.275 0.104,-0.111 0.955,-0.793 1.891,-1.516 5.154,-3.979 9.372,-8.382 12.236,-12.772 0.637,-0.975 1.26,-1.859 1.386,-1.963 0.26,-0.214 2.82,-3.489 3.958,-5.062 0.416,-0.575 1.096,-1.425 1.512,-1.89 0.416,-0.465 1.097,-1.324 1.513,-1.909 2.356,-3.313 4.183,-5.71 4.437,-5.82 0.158,-0.07 0.288,-0.254 0.288,-0.411 0,-0.346 4.852,-7.692 5.262,-7.965 0.337,-0.225 4.568,-7.377 4.568,-7.722 0,-0.127 0.553,-1.044 1.229,-2.039 1.326,-1.952 1.694,-2.565 3.448,-5.745 3.647,-6.61 5.555,-9.868 7.418,-12.665 0.969,-1.456 1.856,-2.902 1.97,-3.214 1.269,-3.464 8.388,-10.992 12.177,-12.878 3.275,-1.631 3.08,-1.574 4.288,-1.25 m 38.279,2.414 c 0,1.048 -1.184,5.367 -1.634,5.96 -0.482,0.635 -2.658,-3.075 -2.347,-4.001 0.541,-1.612 3.981,-3.305 3.981,-1.959 m 85.212,2.451 c -0.357,1.255 -1.775,4.126 -2.3,4.659 -0.27,0.274 -0.492,0.657 -0.492,0.85 0,0.193 -0.17,0.351 -0.378,0.351 -0.583,0 -0.447,-1.362 0.189,-1.89 0.312,-0.259 0.567,-0.767 0.567,-1.129 0,-0.363 0.34,-1.092 0.756,-1.621 0.416,-0.528 0.756,-1.289 0.756,-1.689 0,-0.4 0.116,-0.844 0.258,-0.986 0.416,-0.415 0.879,0.631 0.644,1.455 m -122.925,3.016 c -0.248,1.297 -0.472,1.201 -0.472,-0.202 0,-0.637 0.147,-1.066 0.328,-0.955 0.18,0.112 0.245,0.632 0.144,1.157 m -1.228,2.164 c 0,0.611 -0.112,0.72 -0.421,0.411 -0.231,-0.232 -0.306,-0.606 -0.166,-0.832 0.391,-0.633 0.587,-0.492 0.587,0.421 m 117.202,1.396 c 0,0.659 1.254,0.806 1.899,0.222 0.781,-0.707 1.428,4.711 0.814,6.813 l -0.331,1.134 -0.605,-1.418 c -0.96,-2.253 -1.777,-1.873 -1.777,0.829 0,1.291 -0.185,2.361 -0.437,2.516 -0.321,0.198 -0.376,-0.314 -0.21,-1.928 0.125,-1.209 0.065,-3.054 -0.134,-4.1 -0.377,-1.986 -0.132,-4.406 0.445,-4.406 0.185,0 0.336,0.152 0.336,0.338 m -116.185,2.593 c -0.095,0.363 -0.173,0.066 -0.173,-0.662 0,-0.728 0.078,-1.026 0.173,-0.662 0.095,0.364 0.095,0.96 0,1.324 m 38.79,-0.662 c 0.109,0.415 0.043,0.851 -0.145,0.967 -0.188,0.116 -0.343,-0.224 -0.343,-0.756 0,-1.158 0.216,-1.252 0.488,-0.211 m -20.132,2.629 c -1.558,0.985 0.642,7.439 2.908,8.533 1.043,0.503 2.01,1.411 2.822,2.647 0.679,1.034 1.377,2.051 1.551,2.259 0.175,0.208 1.115,1.569 2.091,3.025 2.025,3.021 3.046,3.449 4.92,2.063 2.053,-1.518 2.13,-2.38 0.355,-3.983 -0.855,-0.773 -2.35,-2.358 -3.322,-3.523 -0.972,-1.166 -2.175,-2.573 -2.672,-3.129 -0.498,-0.556 -1.078,-1.832 -1.291,-2.836 -0.491,-2.322 -5.857,-6.008 -7.362,-5.056 m 4.033,2.63 c 1.501,0.86 2.379,2.239 2.379,3.736 0,0.61 2.199,3.305 5.967,7.312 l 2.375,2.526 -0.863,0.98 c -1.412,1.604 -2.143,1.036 -5.826,-4.531 -2.468,-3.729 -3.557,-5.069 -4.121,-5.071 -1.828,-0.007 -2.573,-1.248 -3.462,-5.769 -0.233,-1.183 0.256,-1.071 3.551,0.817 m 121.094,1.735 c 0,0.892 0.175,1.323 0.537,1.323 0.296,0 0.635,0.51 0.756,1.135 0.12,0.624 0.317,1.644 0.438,2.268 0.12,0.624 0.365,1.134 0.544,1.134 0.178,0 0.429,0.808 0.556,1.796 0.128,0.988 0.421,2.136 0.653,2.552 0.418,0.75 1.088,3.776 1.887,8.516 0.247,1.466 0.29,3.077 0.106,3.97 l -0.31,1.503 -0.271,-1.134 c -0.148,-0.624 -0.29,-1.951 -0.315,-2.949 -0.024,-0.998 -0.295,-2.299 -0.601,-2.891 -0.306,-0.591 -0.661,-1.816 -0.788,-2.722 -0.128,-0.905 -0.451,-2.242 -0.718,-2.97 -0.267,-0.727 -0.603,-2.131 -0.747,-3.119 -0.144,-0.987 -0.399,-1.795 -0.568,-1.795 -0.168,0 -0.423,-0.88 -0.565,-1.954 -0.143,-1.075 -0.505,-2.542 -0.805,-3.26 -0.634,-1.518 -0.708,-2.726 -0.168,-2.726 0.208,0 0.379,0.595 0.379,1.323 m -100.594,1.985 c 0.014,0.26 -0.144,0.473 -0.352,0.473 -0.208,0 -0.366,-0.553 -0.351,-1.229 0.026,-1.21 0.629,-0.562 0.703,0.756 m 77.153,0.495 c 0,0.82 -0.17,1.49 -0.378,1.49 -0.208,0 -0.378,-0.776 -0.378,-1.724 0,-1.052 0.147,-1.632 0.378,-1.49 0.208,0.129 0.378,0.905 0.378,1.724 m 1.027,6.688 c -0.087,0.572 -0.157,0.104 -0.157,-1.039 0,-1.144 0.07,-1.612 0.157,-1.04 0.087,0.572 0.087,1.508 0,2.079 m 1.614,4.348 c -0.004,1.177 -0.104,1.455 -0.373,1.04 -0.482,-0.746 -0.482,-2.646 0,-2.646 0.208,0 0.376,0.723 0.373,1.606 m -105.949,3.907 c -0.36,0.36 -1.083,-0.223 -0.814,-0.658 0.159,-0.258 0.371,-0.251 0.642,0.02 0.223,0.223 0.3,0.51 0.172,0.638 m 107.44,1.22 c 0.015,0.49 -0.139,0.77 -0.351,0.639 -0.208,-0.129 -0.366,-0.862 -0.352,-1.629 0.03,-1.561 0.652,-0.685 0.703,0.99 m -157.587,1.315 c -0.61,0.61 -0.76,0.201 -0.319,-0.865 0.34,-0.819 0.414,-0.851 0.559,-0.244 0.092,0.386 -0.016,0.886 -0.24,1.109 m -0.798,1.146 c 0,0.274 -0.681,1.411 -1.513,2.526 -0.831,1.115 -1.512,2.166 -1.512,2.336 0,0.171 -0.17,0.31 -0.378,0.31 -0.208,0 -0.378,-0.24 -0.378,-0.533 0,-0.622 1.898,-3.626 2.292,-3.626 0.146,0 0.355,-0.34 0.464,-0.756 0.22,-0.839 1.025,-1.041 1.025,-0.257 m 159.439,3.182 c -0.087,0.575 -0.16,0.194 -0.163,-0.845 -0.003,-1.04 0.068,-1.51 0.158,-1.045 0.09,0.465 0.092,1.315 0.005,1.89 m -135.069,0.124 c -1.73,0.503 -13.387,12.856 -13.412,14.213 -0.003,0.175 -0.78,1.169 -1.726,2.209 -3.306,3.634 -6.154,8.129 -5.15,8.129 0.758,0 1.958,-1.255 5.062,-5.293 3.039,-3.953 2.913,-3.797 5.222,-6.458 4.149,-4.779 5.843,-6.632 8.329,-9.11 1.861,-1.855 3.804,-4.589 2.884,-4.058 -0.033,0.019 -0.577,0.184 -1.209,0.368 m 40.617,5.093 c 0.444,0.421 0.303,0.592 -0.897,1.094 -2.121,0.886 -2.221,0.777 -1.488,-1.606 0.177,-0.574 1.552,-0.279 2.385,0.512 m 119.467,4.618 c -0.028,3.041 -0.151,4.402 -0.333,3.686 -0.551,-2.163 -0.377,-8.506 0.233,-8.506 0.08,0 0.125,2.169 0.1,4.82 m -114.813,0.38 c 5.933,3.74 6.739,4.488 6.274,5.823 -0.206,0.591 -0.505,1.075 -0.664,1.075 -1.107,0 -2.429,4.828 -2.381,8.696 0.051,4.135 1.665,10.677 3.243,13.139 0.167,0.26 1.073,1.961 2.013,3.78 2.479,4.792 7.792,12.564 12.894,18.859 2.444,3.015 4.738,5.853 5.1,6.307 1.204,1.515 -1.362,4.04 -4.106,4.04 -0.402,0 -1.151,0.297 -1.665,0.661 -1.329,0.94 -13.924,0.905 -15.68,-0.044 -0.624,-0.337 -1.581,-0.614 -2.126,-0.615 -0.909,-0.002 -2.478,-0.56 -6.003,-2.134 -0.727,-0.324 -1.833,-0.805 -2.457,-1.068 -0.624,-0.263 -2.41,-1.094 -3.97,-1.846 -7.931,-3.824 -12.647,-4.094 -17.769,-1.018 -0.934,0.561 -7.206,3.417 -7.503,3.417 -0.152,0 -1.709,0.595 -3.461,1.323 -1.752,0.728 -3.707,1.324 -4.344,1.324 -0.638,0 -1.539,0.265 -2.002,0.59 -1.115,0.781 -1.113,0.789 -1.361,-6.262 -0.134,-3.792 -0.406,-6.393 -0.77,-7.372 -0.31,-0.832 -0.572,-2.108 -0.583,-2.835 -0.01,-0.728 -0.27,-1.806 -0.577,-2.395 -0.308,-0.589 -0.738,-1.737 -0.958,-2.552 -0.219,-0.814 -0.562,-1.481 -0.762,-1.481 -0.2,0 -0.364,-0.438 -0.364,-0.973 0,-2.069 -3.383,-7.002 -7.655,-11.163 -2.9,-2.823 -2.846,-3.124 0.937,-5.244 3.052,-1.71 7.09,-4.273 7.489,-4.754 0.251,-0.303 0.613,-0.55 0.804,-0.55 0.937,0 5.789,-4.089 11.389,-9.597 l 2.646,-2.603 0.7,0.901 c 0.384,0.496 0.873,1.526 1.086,2.288 0.212,0.763 0.637,1.869 0.945,2.458 0.307,0.589 0.559,1.3 0.561,1.58 0.001,0.28 0.244,0.96 0.54,1.512 0.296,0.552 0.9,1.854 1.342,2.894 0.442,1.04 1.068,2.401 1.391,3.024 1.866,3.603 3.63,7.169 4.865,9.83 0.771,1.664 1.554,3.28 1.738,3.592 0.185,0.312 0.502,0.992 0.705,1.512 0.204,0.52 0.629,1.427 0.945,2.016 0.316,0.588 0.574,1.285 0.574,1.548 0,0.263 0.341,0.786 0.757,1.162 0.415,0.377 0.756,0.978 0.756,1.336 0,0.358 0.255,0.863 0.567,1.122 0.312,0.259 0.567,0.6 0.567,0.758 0,1.796 8.388,12.023 9.53,11.619 0.93,-0.33 0.301,-1.787 -2.277,-5.279 -5.861,-7.939 -8.321,-12.45 -12.893,-23.643 -0.447,-1.094 -1.284,-2.796 -1.861,-3.781 -1.987,-3.393 -4.088,-8.398 -4.434,-10.563 l -0.241,-1.509 2.489,-0.232 c 2.982,-0.279 7.061,-2.122 11.01,-4.974 1.456,-1.052 3.403,-2.403 4.328,-3.003 0.925,-0.6 1.86,-1.236 2.079,-1.414 3.083,-2.505 3.551,-2.466 8.603,0.718 m -33.034,2.916 c -0.835,0.729 -1.825,0.538 -1.825,-0.352 0,-1.418 1.646,-2.038 1.825,-0.688 0.067,0.513 0.067,0.981 0,1.04 m 41.276,0.579 c 0,0.474 -0.402,0.474 -1.135,0 -0.458,-0.296 -0.404,-0.367 0.284,-0.372 0.468,-0.003 0.851,0.165 0.851,0.372 m -28.974,2.661 c -0.216,0.215 -1.058,0.497 -1.872,0.625 -0.814,0.129 -1.573,0.376 -1.688,0.549 -0.114,0.173 -1.29,0.462 -2.612,0.643 -1.488,0.204 -2.576,0.565 -2.858,0.95 -0.627,0.858 -0.806,0.789 -1.248,-0.48 -0.521,-1.495 -0.413,-1.545 3.357,-1.545 2.584,0 3.347,-0.123 3.517,-0.567 0.151,-0.394 0.765,-0.567 2.007,-0.567 1.234,0 1.667,0.121 1.397,0.392 m 136.779,5.743 -0.34,2.372 -0.012,-3.592 c -0.01,-2.827 0.062,-3.332 0.34,-2.372 0.214,0.741 0.219,2.152 0.012,3.592 m -60.033,-2.134 c 0.629,0.242 0.25,1.598 -0.799,2.86 -0.348,0.419 -0.51,1.6 -0.492,3.592 0.057,6.335 0.022,7.208 -0.39,9.715 -0.703,4.279 -1.086,2.404 -1.249,-6.124 -0.134,-6.964 -0.242,-8.138 -0.811,-8.766 -0.748,-0.828 -0.52,-0.991 1.715,-1.233 0.728,-0.079 1.352,-0.171 1.387,-0.204 0.035,-0.033 0.323,0.039 0.639,0.16 m -99.485,2.259 c -0.462,0.324 -1.389,1.089 -2.058,1.701 -0.67,0.612 -1.338,1.113 -1.485,1.113 -0.147,0 -0.5,0.232 -0.784,0.517 -0.699,0.699 -2.071,1.104 -2.329,0.687 -0.115,-0.185 0.211,-0.529 0.724,-0.763 0.514,-0.234 0.934,-0.581 0.934,-0.77 0,-0.19 0.425,-0.452 0.945,-0.583 0.52,-0.13 0.945,-0.408 0.945,-0.617 0,-0.209 0.425,-0.542 0.945,-0.74 0.52,-0.197 0.945,-0.534 0.945,-0.747 0,-0.213 0.464,-0.387 1.03,-0.387 h 1.029 l -0.841,0.589 m -7.267,5.082 c 0,0.208 -0.382,0.376 -0.85,0.372 -0.688,-0.004 -0.742,-0.076 -0.284,-0.372 0.733,-0.474 1.134,-0.474 1.134,0 m 168.138,3.875 c -0.084,0.676 -0.153,0.123 -0.153,-1.228 0,-1.352 0.069,-1.905 0.153,-1.229 0.084,0.676 0.084,1.781 0,2.457 m -215.397,2.734 c 0,0.278 -3.427,3.39 -3.916,3.556 -0.237,0.081 -0.736,0.464 -1.108,0.851 -0.724,0.755 -1.781,0.948 -1.781,0.326 0,-0.208 0.128,-0.38 0.284,-0.383 0.345,-0.006 1.871,-1.213 3.939,-3.114 1.332,-1.225 2.582,-1.824 2.582,-1.236 m 36.673,0.552 c 0,1.075 -0.697,1.327 -1.545,0.56 -0.568,-0.514 -0.628,-0.742 -0.259,-0.977 0.883,-0.56 1.804,-0.348 1.804,0.417 m 180.335,1.818 c -0.004,1.055 -0.1,1.273 -0.372,0.851 -0.482,-0.745 -0.482,-2.269 0,-2.269 0.207,0 0.375,0.638 0.372,1.418 m -181.249,0.485 c 2.244,0.853 9.232,9.372 9.232,11.255 0,0.198 0.255,0.572 0.567,0.831 0.312,0.259 0.567,0.837 0.567,1.286 0,0.448 0.233,1.15 0.518,1.56 0.286,0.41 0.716,1.67 0.956,2.799 0.241,1.13 0.58,2.236 0.754,2.458 0.173,0.222 0.421,1.935 0.55,3.806 0.129,1.872 0.408,3.997 0.619,4.724 1.134,3.902 -0.071,8.499 -2.382,9.079 -0.87,0.218 -2.034,0.647 -2.585,0.953 -0.552,0.306 -1.457,0.556 -2.01,0.556 -0.554,0 -1.343,0.18 -1.754,0.4 -0.411,0.22 -1.889,0.626 -3.283,0.902 -1.395,0.276 -3.302,0.681 -4.237,0.9 -2.116,0.495 -5.641,1.189 -8.129,1.599 -1.04,0.172 -2.911,0.572 -4.159,0.89 -1.247,0.318 -3.878,0.937 -5.846,1.376 -8.122,1.813 -12.728,3.713 -17.052,7.033 -2.17,1.666 -5.221,3.859 -6.78,4.874 -1.56,1.014 -2.921,1.951 -3.025,2.081 -0.224,0.28 -5.534,3.386 -5.789,3.386 -0.097,0 -1.33,0.674 -2.74,1.498 -5.174,3.023 -14.587,5.723 -21.205,6.081 -3.149,0.17 -6.435,0.501 -7.302,0.734 -0.866,0.234 -2.798,0.581 -4.292,0.772 -10.153,1.299 -24.44,6.497 -32.32,11.758 -0.894,0.597 -1.702,1.085 -1.795,1.085 -0.832,0 -9.186,6.67 -12.547,10.019 -2.34,2.331 -5.431,3.982 -7.412,3.961 -2.223,-0.024 -7.394,-4.483 -7.444,-6.419 -0.008,-0.312 -0.344,-1.247 -0.746,-2.079 -0.401,-0.832 -0.736,-1.789 -0.743,-2.128 -0.012,-0.561 -0.52,-1.815 -2.73,-6.73 -0.789,-1.756 -2.917,-4.406 -8.022,-9.992 -3.767,-4.123 -4.447,-4.904 -5.038,-5.786 -1.97,-2.94 -2.37,-3.62 -2.37,-4.03 0,-0.257 -0.256,-0.832 -0.57,-1.28 -0.666,-0.951 -1.197,-6.169 -0.71,-6.981 0.184,-0.306 2.157,-2.217 4.385,-4.246 4.32,-3.934 5.254,-4.29 5.767,-2.197 1.122,4.585 5.454,8.97 7.931,8.028 0.531,-0.202 0.966,-0.468 0.966,-0.59 0,-0.684 -0.956,-1.759 -2.644,-2.972 -4.577,-3.288 -4.951,-8.733 -0.78,-11.366 2.725,-1.72 6.071,-0.007 6.071,3.108 0,0.175 0.861,1.925 1.914,3.891 2.12,3.958 2.813,5.766 3.179,8.299 0.52,3.597 2.846,5.779 2.846,2.669 0,-1.9 1.825,-2.127 6.163,-0.767 4.604,1.444 11.548,0.891 16.711,-1.331 9.205,-3.961 14.355,-7.244 24.763,-15.788 6.151,-5.049 5.392,-4.518 11.342,-7.918 3.774,-2.155 7.805,-3.59 12.477,-4.44 0.936,-0.17 2.977,-0.657 4.537,-1.082 7.435,-2.026 10.187,-3.089 13.421,-5.186 3.059,-1.984 6.874,-4.075 9.263,-5.078 0.52,-0.218 1.2,-0.538 1.512,-0.711 2.347,-1.301 3.851,-1.956 4.495,-1.956 0.415,0 0.851,-0.157 0.97,-0.35 0.119,-0.193 0.853,-0.555 1.629,-0.804 0.777,-0.249 1.668,-0.655 1.98,-0.902 0.312,-0.246 2.063,-0.932 3.891,-1.525 1.828,-0.593 3.402,-1.205 3.499,-1.362 0.096,-0.156 0.898,-0.405 1.78,-0.553 0.883,-0.148 1.941,-0.503 2.351,-0.789 0.41,-0.286 1.005,-0.519 1.323,-0.519 0.318,0.001 1.258,-0.323 2.09,-0.72 3.229,-1.539 4.962,-2.241 6.139,-2.486 0.674,-0.141 1.322,-0.413 1.44,-0.605 0.119,-0.192 0.597,-0.349 1.063,-0.349 0.466,0 1.009,-0.16 1.207,-0.355 0.446,-0.442 5.488,-2.637 6.1,-2.656 0.246,-0.007 0.909,0.162 1.473,0.377 m 115.199,3.759 c 0.245,0.937 -0.3,3.442 -0.818,3.762 -0.213,0.132 -0.503,0.962 -0.644,1.844 -0.347,2.172 -0.735,2.276 -0.825,0.221 -0.052,-1.192 0.091,-1.751 0.486,-1.903 0.351,-0.135 0.562,-0.728 0.565,-1.592 0.01,-2.582 0.787,-4.048 1.236,-2.332 m 67.562,0.73 c 0.006,0.575 2.843,3.438 3.406,3.438 0.189,0 0.479,0.214 0.645,0.474 0.414,0.649 3.263,2.551 3.82,2.551 0.249,0 0.452,0.17 0.452,0.378 0,0.208 -0.51,0.378 -1.134,0.378 -0.624,0 -1.134,-0.168 -1.134,-0.373 0,-0.205 -0.553,-0.609 -1.229,-0.898 -1.361,-0.581 -4.442,-3.303 -4.442,-3.923 0,-0.218 -0.255,-0.494 -0.567,-0.614 -0.368,-0.141 -0.565,-0.721 -0.561,-1.647 0.004,-1.062 0.1,-1.284 0.372,-0.863 0.201,0.312 0.369,0.807 0.372,1.099 m -209.918,4.077 c -0.364,0.095 -0.96,0.095 -1.324,0 -0.364,-0.095 -0.066,-0.173 0.662,-0.173 0.728,0 1.025,0.078 0.662,0.173 m 198.933,3.615 c 0.036,1.392 -0.577,1.328 -0.861,-0.091 -0.296,-1.482 0.124,-2.764 0.549,-1.678 0.157,0.401 0.298,1.197 0.312,1.769 m -227.383,-0.851 c -0.129,0.208 -0.526,0.378 -0.884,0.378 -0.357,0 -0.941,0.34 -1.297,0.756 -0.678,0.792 -1.789,1.027 -1.789,0.378 0,-0.208 0.257,-0.378 0.571,-0.378 0.314,0 0.862,-0.34 1.218,-0.756 0.646,-0.755 2.625,-1.098 2.181,-0.378 m 21.954,-0.043 c -0.114,0.185 -0.792,0.445 -1.507,0.579 -0.715,0.134 -1.356,0.413 -1.425,0.619 -0.187,0.563 -2.954,0.935 -2.954,0.397 0,-0.24 0.506,-0.538 1.125,-0.662 0.62,-0.124 1.321,-0.46 1.559,-0.747 0.467,-0.562 3.546,-0.741 3.202,-0.186 m 146.093,0.894 c -0.011,1.01 -0.475,2.155 -0.794,1.958 -0.391,-0.242 -0.451,-1.811 -0.083,-2.179 0.409,-0.408 0.883,-0.289 0.877,0.221 m 81.107,0.654 c -0.097,0.156 -0.603,0.202 -1.126,0.102 -0.522,-0.099 -0.871,-0.309 -0.774,-0.465 0.097,-0.157 0.603,-0.203 1.125,-0.103 0.523,0.1 0.871,0.31 0.775,0.466 m -253.88,1.097 c 0,0.349 -1.558,0.881 -1.817,0.622 -0.082,-0.082 -0.037,-0.331 0.1,-0.552 0.3,-0.486 1.717,-0.543 1.717,-0.07 m 20.038,0.045 c 0,0.207 -0.553,0.375 -1.229,0.372 -0.933,-0.005 -1.092,-0.094 -0.662,-0.372 0.743,-0.481 1.891,-0.481 1.891,0 m 213.232,1.156 c 0,0.927 -0.15,1.442 -0.378,1.301 -0.208,-0.129 -0.378,-0.819 -0.378,-1.535 0,-0.715 0.17,-1.301 0.378,-1.301 0.208,0 0.378,0.691 0.378,1.535 m 23.44,-1.156 c 0.431,0.278 0.271,0.367 -0.661,0.372 -0.676,0.003 -1.229,-0.165 -1.229,-0.372 0,-0.481 1.147,-0.481 1.89,0 m 10.541,4.776 c 1.119,1.116 2.162,2.029 2.319,2.029 0.157,0 0.374,0.341 0.483,0.758 0.135,0.517 0.395,0.681 0.821,0.518 0.38,-0.145 0.903,0.061 1.337,0.527 0.392,0.421 1.455,1.298 2.36,1.948 2.941,2.112 3.634,4.565 1.997,7.064 -0.921,1.405 -2.844,1.28 -2.844,-0.185 0,-0.926 -0.68,-1.67 -4.502,-4.929 -4.867,-4.151 -4.765,-4.02 -5.153,-6.605 -0.18,-1.2 -0.553,-1.985 -1.177,-2.476 -0.805,-0.633 -0.834,-0.735 -0.24,-0.858 1.466,-0.303 2.651,0.267 4.599,2.209 m -192.756,5.19 c -0.272,0.272 -0.379,-0.474 -0.347,-2.424 l 0.047,-2.817 0.347,2.424 c 0.232,1.625 0.216,2.553 -0.047,2.817 M 154.341,277.6 c -0.44,0.468 -1.293,1.787 -1.897,2.93 -1.68,3.183 -3.66,3.924 -8.002,2.993 -1.632,-0.35 -2.114,-0.309 -3.326,0.283 -2.676,1.307 -1.923,1.796 3.266,2.119 5.45,0.339 7.052,-0.144 9.115,-2.749 2.771,-3.498 3.516,-8.42 0.844,-5.576 m 222.097,4.436 c 0.313,0.004 0.381,0.621 0.23,2.085 -0.147,1.43 -0.08,2.079 0.217,2.079 0.237,0 0.42,0.468 0.407,1.04 l -0.024,1.04 -0.373,-0.935 c -0.205,-0.514 -0.501,-1.024 -0.657,-1.134 -0.156,-0.11 -0.819,-1.082 -1.474,-2.159 -1.222,-2.012 -1.111,-2.525 0.472,-2.184 0.416,0.09 0.957,0.166 1.202,0.168 m -95.592,2.824 c -0.431,0.379 -1.829,0.576 -1.829,0.257 0,-0.208 0.34,-0.486 0.756,-0.618 0.416,-0.132 0.776,-0.441 0.8,-0.687 0.024,-0.246 0.124,-0.136 0.223,0.244 0.098,0.38 0.121,0.742 0.05,0.804 m 89.664,0.206 c 0,0.444 -0.29,0.444 -1.323,0 -0.67,-0.288 -0.638,-0.328 0.284,-0.351 0.572,-0.015 1.039,0.143 1.039,0.351 m -173.896,9.029 1.123,0.683 -2.805,0.815 c -3.071,0.892 -4.176,1.019 -3.817,0.437 0.129,-0.208 0.632,-0.378 1.119,-0.378 1.513,0 2.531,-2.264 2.805,-6.238 l 0.235,-3.403 0.108,3.701 c 0.107,3.65 0.124,3.709 1.232,4.383 m 175.821,-7.546 c -0.293,0.186 -0.761,0.25 -1.04,0.143 -0.799,-0.307 -0.596,-0.492 0.533,-0.486 0.757,0.004 0.895,0.098 0.507,0.343 M 93.936,287.31 c 0.419,0.678 -4.108,2.802 -5.433,2.549 -0.534,-0.102 -1.271,-0.025 -1.637,0.171 -0.534,0.285 -0.666,0.204 -0.666,-0.414 0,-0.439 0.249,-0.769 0.58,-0.769 0.318,0 1.211,-0.291 1.985,-0.645 1.213,-0.558 2.879,-0.998 4.502,-1.192 0.248,-0.029 0.549,0.106 0.669,0.3 m -9.748,1.386 c 0.369,0.96 -0.792,1.547 -1.768,0.894 -0.491,-0.328 -0.469,-0.455 0.166,-0.939 0.94,-0.717 1.313,-0.707 1.602,0.045 m 188.024,1.663 c -0.745,0.482 -1.621,0.482 -1.324,0 0.129,-0.208 0.607,-0.375 1.062,-0.372 0.674,0.005 0.723,0.074 0.262,0.372 m -181.657,1.145 c 0.264,0.427 -1.244,1.847 -1.983,1.867 -0.839,0.023 -2.948,-1.45 -2.35,-1.642 0.3,-0.097 0.801,-0.261 1.113,-0.365 1.023,-0.341 2.975,-0.257 3.22,0.14 m -71.651,0.669 c -0.739,0.087 -1.147,0.562 -1.866,2.169 -0.836,1.866 -0.979,2.004 -1.542,1.494 -1.51,-1.365 -2.537,0.124 -1.764,2.557 0.392,1.234 1.286,1.34 2.599,0.307 0.922,-0.726 0.938,-0.726 1.559,0 0.346,0.403 0.97,0.733 1.388,0.733 0.549,0 0.76,0.25 0.76,0.905 0,1.049 -0.581,1.364 -2.01,1.091 -0.726,-0.139 -1.396,0.095 -2.342,0.817 -1.394,1.063 -1.408,1.055 -1.861,-1.012 -0.342,-1.564 -2.024,-2.562 -2.718,-1.613 -1.163,1.591 -0.422,3.745 1.415,4.112 l 1.206,0.241 -1.665,1.605 c -1.984,1.911 -1.902,1.924 -2.045,-0.335 -0.093,-1.489 -0.318,-1.967 -1.301,-2.769 l -1.188,-0.97 1.15,-0.679 c 0.633,-0.374 1.151,-0.919 1.151,-1.211 0,-0.292 0.68,-1.205 1.512,-2.028 0.832,-0.824 1.512,-1.681 1.512,-1.905 0,-0.224 0.133,-0.408 0.296,-0.408 0.162,0 0.487,-0.51 0.723,-1.133 0.235,-0.624 0.655,-1.205 0.933,-1.292 3.171,-0.994 3.99,-1.176 4.476,-0.997 0.373,0.137 0.244,0.247 -0.378,0.321 m 64.603,0.313 c 1.421,0.284 1.537,1.13 0.236,1.723 -0.52,0.237 -0.945,0.573 -0.945,0.748 0,0.801 -1.514,0.254 -1.735,-0.627 -0.474,-1.888 0.092,-2.315 2.444,-1.844 m -62.317,1.294 0.774,0.773 -1.18,1.49 c -1.545,1.95 -1.894,2.131 -2.505,1.296 -1.629,-2.228 1.012,-5.458 2.911,-3.559 m 4.09,-0.214 c 0.964,0.309 2.227,0.654 2.807,0.768 1.568,0.306 0.851,0.94 -1.064,0.94 -0.917,0 -2.266,0.286 -2.998,0.635 -1.446,0.69 -2.108,0.478 -1.352,-0.432 0.274,-0.33 0.373,-0.972 0.235,-1.521 -0.281,-1.12 -0.037,-1.16 2.372,-0.39 m 373.618,1.425 c -0.336,0.89 0.099,2.173 0.737,2.173 0.201,0 0.365,-0.68 0.365,-1.512 0,-1.653 -0.593,-2.009 -1.102,-0.661 m -147.205,-0.197 c -0.785,0.082 -1.975,0.08 -2.647,-0.003 -0.671,-0.084 -0.029,-0.151 1.427,-0.149 1.455,0.002 2.004,0.07 1.22,0.152 m 10.789,-0.01 c -0.465,0.09 -1.316,0.092 -1.891,0.005 -0.574,-0.087 -0.194,-0.16 0.846,-0.163 1.039,-0.003 1.51,0.068 1.045,0.158 m -179.149,2.121 c 0.64,0.468 0.622,0.535 -0.292,1.135 -1.317,0.862 -1.756,0.801 -1.756,-0.245 0,-1.455 0.8,-1.802 2.048,-0.89 m 104.857,0.519 c -0.362,0.095 -1.042,0.098 -1.513,0.008 -0.47,-0.091 -0.174,-0.168 0.658,-0.172 0.831,-0.004 1.216,0.07 0.855,0.164 m -175.477,4.58 c -0.643,0.644 -1.371,0.304 -1.371,-0.64 0,-1.041 0.439,-1.237 1.21,-0.539 0.612,0.553 0.633,0.708 0.161,1.179 m -6.047,1.304 c -0.126,0.468 -0.251,1.106 -0.278,1.418 -0.028,0.312 -0.17,0.057 -0.316,-0.567 -0.294,-1.252 -0.182,-1.702 0.422,-1.702 0.23,0 0.303,0.361 0.172,0.851 m 27.47,0.661 c 0.109,0.416 0.043,0.851 -0.145,0.968 -0.188,0.116 -0.343,-0.224 -0.343,-0.756 0,-1.158 0.216,-1.252 0.488,-0.212 m -24.964,0.976 c 0.199,1.041 -0.417,1.542 -1.422,1.156 -0.575,-0.22 -0.776,-1.418 -0.315,-1.879 0.602,-0.602 1.56,-0.203 1.737,0.723 m 26.367,1.716 c 0,0.416 -0.17,0.651 -0.378,0.522 -0.208,-0.128 -0.378,-0.574 -0.378,-0.989 0,-0.416 0.17,-0.651 0.378,-0.523 0.208,0.129 0.378,0.574 0.378,0.99 m -27.834,1.191 0.802,0.668 -1.015,0.844 c -0.712,0.593 -1.059,1.294 -1.165,2.356 -0.083,0.832 -0.174,-0.189 -0.203,-2.268 -0.04,-2.935 0.041,-3.612 0.364,-3.025 0.229,0.416 0.776,1.057 1.217,1.425 m 29.59,4.536 -0.807,1.091 -0.284,-1.257 c -0.156,-0.692 -0.187,-1.836 -0.069,-2.543 l 0.215,-1.285 0.876,1.451 0.876,1.451 -0.807,1.092 M 7.934,316.73 c -0.004,1.299 -0.107,1.639 -0.373,1.228 -0.483,-0.747 -0.483,-3.024 0,-3.024 0.208,0 0.376,0.808 0.373,1.796 m 12.855,7.851 c -1.307,1.574 5.091,6.232 8.56,6.232 1.108,0 1.275,-0.124 1.275,-0.945 0,-0.813 -0.173,-0.947 -1.229,-0.954 -1.77,-0.012 -4.158,-1.211 -5.627,-2.826 -1.686,-1.853 -2.395,-2.212 -2.979,-1.507 m 40.742,7.018 c -0.781,0.455 -0.89,1.86 -0.145,1.86 0.746,0 2.554,-1.509 2.3,-1.92 -0.28,-0.454 -1.321,-0.425 -2.155,0.06 m 4.632,7.015 c 0,0.309 -1.285,1.495 -3.417,3.152 -0.928,0.722 -2.538,2.03 -3.578,2.906 -9.817,8.275 -20.132,13.606 -12.949,6.693 6.525,-6.279 19.944,-14.858 19.944,-12.751 m -30.535,27.383 c -2.422,0.946 -5.665,1.179 -8.02,0.576 -2.867,-0.735 -4.168,-0.763 -4.168,-0.091 0,2.182 7.582,3.866 11.223,2.493 1.895,-0.715 4.362,-2.313 4.032,-2.613 -0.569,-0.516 -2.187,-0.709 -3.067,-0.365 m -1.034,1.867 c -0.129,0.208 -0.554,0.378 -0.946,0.378 -0.391,0 -0.816,-0.17 -0.945,-0.378 -0.136,-0.221 0.256,-0.378 0.945,-0.378 0.69,0 1.082,0.157 0.946,0.378"
       inkscape:connector-curvature="0"
       style="fill:#ffffff;fill-rule:evenodd;stroke:none" />
  </g>
</svg>
