<?xml version="1.0" encoding="UTF-8" standalone="no"?>
<svg
   xmlns:dc="http://purl.org/dc/elements/1.1/"
   xmlns:cc="http://creativecommons.org/ns#"
   xmlns:rdf="http://www.w3.org/1999/02/22-rdf-syntax-ns#"
   xmlns:svg="http://www.w3.org/2000/svg"
   xmlns="http://www.w3.org/2000/svg"
   xmlns:sodipodi="http://sodipodi.sourceforge.net/DTD/sodipodi-0.dtd"
   xmlns:inkscape="http://www.inkscape.org/namespaces/inkscape"
   id="svg"
   version="1.1"
   width="400"
   height="377.93103448275866"
   viewBox="0, 0, 400,377.93103448275866"
   sodipodi:docname="C31.svg"
   inkscape:version="0.92.5 (2060ec1f9f, 2020-04-08)">
  <metadata
     id="metadata11">
    <rdf:RDF>
      <cc:Work
         rdf:about="">
        <dc:format>image/svg+xml</dc:format>
        <dc:type
           rdf:resource="http://purl.org/dc/dcmitype/StillImage" />
      </cc:Work>
    </rdf:RDF>
  </metadata>
  <defs
     id="defs9" />
  <sodipodi:namedview
     pagecolor="#ffffff"
     bordercolor="#666666"
     borderopacity="1"
     objecttolerance="10"
     gridtolerance="10"
     guidetolerance="10"
     inkscape:pageopacity="0"
     inkscape:pageshadow="2"
     inkscape:window-width="1366"
     inkscape:window-height="689"
     id="namedview7"
     showgrid="false"
     inkscape:zoom="0.62445256"
     inkscape:cx="200"
     inkscape:cy="188.96552"
     inkscape:window-x="0"
     inkscape:window-y="0"
     inkscape:window-maximized="1"
     inkscape:current-layer="svg" />
  <g
     id="g823"
     style="fill:#ffffff"
     transform="translate(-3.5370389,0.05162052)">
    <path
       id="path1"
       d="m 256.682,7.048 c -0.277,0.517 -1.277,1.509 -2.222,2.205 -0.945,0.695 -2.07,1.662 -2.499,2.149 -0.429,0.487 -1.36,1.311 -2.068,1.831 -4.37,3.205 -5.52,5.419 -2.591,4.989 1.531,-0.225 3.738,0.25 3.738,0.804 0,0.256 0.283,0.869 0.628,1.363 0.545,0.778 0.633,2.212 0.662,10.765 l 0.033,9.867 h 5.455 5.455 l 0.324,-1.134 c 0.178,-0.624 0.28,-5.091 0.227,-9.926 -0.095,-8.704 -0.088,-8.796 0.743,-9.378 0.462,-0.324 0.839,-0.828 0.839,-1.122 0,-0.388 0.374,-0.281 1.364,0.391 3.97,2.694 3.421,-2.146 -0.697,-6.142 -7.539,-7.316 -8.628,-8.088 -9.391,-6.662 m 3.62,40.589 c 0.129,0.208 0.734,0.378 1.346,0.378 0.612,0 1.112,-0.17 1.112,-0.378 0,-0.208 -0.606,-0.378 -1.346,-0.378 -0.8,0 -1.251,0.153 -1.112,0.378 m -50.295,9.471 c -0.359,0.581 0.133,0.956 0.618,0.471 0.272,-0.272 0.278,-0.483 0.02,-0.643 -0.212,-0.131 -0.499,-0.053 -0.638,0.172 m -2.646,2.646 c -0.36,0.582 0.133,0.957 0.618,0.471 0.271,-0.271 0.278,-0.483 0.02,-0.642 -0.212,-0.131 -0.499,-0.054 -0.638,0.171 m 67.497,2.758 c 0,0.488 0.34,1.195 0.756,1.571 0.416,0.377 0.768,0.956 0.782,1.288 0.018,0.421 0.148,0.349 0.432,-0.24 0.333,-0.689 0.241,-1.086 -0.498,-2.171 -1.057,-1.553 -1.472,-1.679 -1.472,-0.448 m 2.653,4.501 c 0.013,1.079 0.738,1.632 0.744,0.567 0.003,-0.571 -0.164,-1.039 -0.372,-1.039 -0.208,0 -0.376,0.212 -0.372,0.472 m -58.324,0.922 c -0.92,0.241 -0.826,0.742 0.189,1.014 1.558,0.417 2.174,0.271 2.174,-0.518 0,-0.759 -0.752,-0.917 -2.363,-0.496 m -18.935,1.126 c -0.537,0.537 -0.272,6.444 0.31,6.927 1.276,1.059 1.672,0.213 1.672,-3.569 0,-3.608 -0.643,-4.697 -1.982,-3.358 m 13.727,1.839 c -0.732,0.883 0.165,1.696 0.977,0.885 0.501,-0.501 0.508,-0.646 0.047,-1.028 -0.418,-0.347 -0.643,-0.316 -1.024,0.143 m -4.131,2.412 c -0.264,0.494 -0.271,0.823 -0.019,0.978 0.506,0.313 1.135,-0.106 1.135,-0.755 0,-0.874 -0.693,-1.013 -1.116,-0.223 m -4.069,2.702 c -0.405,1.072 -0.535,1.138 -1.785,0.903 -1.808,-0.339 -1.968,1.229 -0.249,2.452 l 1.098,0.782 0.959,-1.637 c 1.167,-1.991 2.186,-2.933 2.42,-2.238 0.087,0.26 0.404,0.473 0.703,0.473 0.454,0 0.441,-0.158 -0.075,-0.946 -0.917,-1.4 -2.505,-1.291 -3.071,0.211 m 73.326,0.735 c 0,0.727 0.078,1.025 0.173,0.661 0.095,-0.364 0.095,-0.959 0,-1.323 -0.095,-0.364 -0.173,-0.066 -0.173,0.662 m -71.823,7.514 c -0.838,1.395 0.531,3.501 2.613,4.021 0.556,0.139 1.491,0.743 2.079,1.342 2.228,2.272 2.596,0.73 0.472,-1.976 l -1.088,-1.385 1.14,-0.722 1.139,-0.721 -1.053,-0.481 c -2.012,-0.919 -4.771,-0.96 -5.302,-0.078 m 32.794,0.772 c 0,0.191 -0.104,0.617 -0.23,0.945 -0.356,0.928 0.678,0.711 1.687,-0.353 l 0.89,-0.939 h -1.173 c -0.646,0 -1.174,0.156 -1.174,0.347 m -24.871,1.224 c 0.197,0.588 1.042,0.692 1.072,0.13 0.011,-0.208 -0.264,-0.436 -0.611,-0.508 -0.394,-0.082 -0.567,0.06 -0.461,0.378 m -9.061,5.045 c 0.005,0.832 0.082,1.128 0.173,0.658 0.09,-0.471 0.087,-1.151 -0.008,-1.513 -0.095,-0.361 -0.169,0.024 -0.165,0.855 m 28.807,0.222 c -0.139,0.226 -0.064,0.601 0.167,0.832 0.309,0.309 0.421,0.2 0.421,-0.411 0,-0.913 -0.197,-1.053 -0.588,-0.421 m 44.121,6.395 c -0.021,1.34 0.084,1.878 0.295,1.512 0.18,-0.312 0.194,-1.248 0.032,-2.08 -0.293,-1.501 -0.295,-1.497 -0.327,0.568 m -38.057,-0.367 c -0.339,0.656 -0.562,1.239 -0.495,1.296 1.542,1.294 2.371,0.847 2.136,-1.152 -0.174,-1.477 -0.918,-1.543 -1.641,-0.144 m -41.013,2.723 c -0.645,1.061 -0.672,1.294 -0.203,1.764 0.799,0.799 1.713,-0.113 1.713,-1.709 0,-1.609 -0.553,-1.629 -1.51,-0.055 m 47.73,1.967 c -1.448,1.898 -1.53,2.547 -0.387,3.054 0.516,0.228 1,0.937 1.247,1.827 0.502,1.807 1.473,2.453 2.41,1.605 0.365,-0.331 1.013,-0.601 1.439,-0.601 1.284,0 1.797,-0.936 1.245,-2.269 -0.54,-1.305 -0.61,-1.334 -1.381,-0.564 -0.724,0.725 -1.265,0.4 -1.265,-0.759 0,-0.495 -0.172,-1.007 -0.382,-1.137 -0.21,-0.129 -0.678,-0.805 -1.04,-1.501 l -0.658,-1.265 -1.228,1.61 m 29.873,0.403 c -0.257,0.623 -0.609,1.389 -0.783,1.701 -1.692,3.043 -2.343,4.744 -2.354,6.144 -0.006,0.883 -0.262,1.937 -0.567,2.34 -0.305,0.404 -0.555,1.024 -0.555,1.378 0,0.353 -0.232,0.732 -0.515,0.84 -0.631,0.243 -1.056,1.693 -0.581,1.987 0.19,0.117 0.454,-0.095 0.588,-0.472 0.266,-0.752 1.949,-2.387 2.457,-2.387 0.176,0 0.319,-0.869 0.319,-1.93 0,-1.48 0.314,-2.527 1.346,-4.491 1.107,-2.106 1.325,-2.888 1.229,-4.403 l -0.117,-1.842 -0.467,1.135 m -76.282,3.41 c 0.624,0.3 1.424,0.755 1.778,1.011 0.807,0.585 1.203,0.224 0.878,-0.801 -0.207,-0.65 -0.553,-0.782 -2.02,-0.77 l -1.77,0.015 1.134,0.545 m 4.777,6.211 c -0.031,1.973 0.084,3.058 0.301,2.836 0.208,-0.213 0.229,-1.515 0.051,-3.195 l -0.3,-2.835 -0.052,3.194 m 45.148,-1.148 c 0.578,0.556 2.164,0.642 2.34,0.128 0.11,-0.324 -0.291,-0.473 -1.269,-0.473 -0.874,0 -1.291,0.135 -1.071,0.345 m 13.616,10.958 c -0.115,0.186 0.039,0.434 0.343,0.55 0.591,0.227 1.096,-0.245 0.693,-0.647 -0.342,-0.342 -0.791,-0.3 -1.036,0.097 m -57.681,2.119 c 0,0.727 0.17,1.323 0.378,1.323 0.208,0 0.379,-0.596 0.379,-1.323 0,-0.728 -0.171,-1.324 -0.379,-1.324 -0.208,0 -0.378,0.596 -0.378,1.324 m 59.61,-1.072 c -0.568,0.568 -0.248,2.017 0.445,2.017 0.759,0 1.949,-1.115 1.949,-1.826 0,-0.466 -1.962,-0.623 -2.394,-0.191 m -53.56,10.334 c 0.739,0.478 1.512,0.478 1.512,0 0,-0.208 -0.468,-0.375 -1.04,-0.372 -0.81,0.005 -0.914,0.087 -0.472,0.372 m -33.824,3.002 c -0.366,0.593 0.09,2.321 0.829,3.141 0.785,0.871 -0.303,3.486 -1.764,4.242 -0.535,0.276 -1.714,1.158 -2.62,1.959 -1.545,1.365 -3.351,2.713 -6.478,4.836 -0.728,0.494 -2.41,2.029 -3.739,3.412 l -2.416,2.515 1.117,1.206 c 0.614,0.664 1.326,1.633 1.583,2.152 2.513,5.084 3.185,5.453 5.848,3.21 3.617,-3.045 6.556,-5.215 7.532,-5.561 0.571,-0.203 1.039,-0.518 1.039,-0.7 0,-0.183 0.48,-0.58 1.067,-0.883 1.182,-0.612 3.079,-2.133 4.642,-3.722 1.126,-1.145 3.461,-1.453 4.008,-0.528 2.761,4.67 3.399,3.493 4.269,-7.873 0.451,-5.886 0.564,-5.7 -3.778,-6.246 -1.767,-0.222 -4.149,-0.557 -5.293,-0.745 -4.992,-0.819 -5.571,-0.86 -5.846,-0.415 m 39.258,0.2 c -0.28,0.729 -0.188,0.845 0.804,1.016 0.546,0.094 0.756,-0.078 0.756,-0.621 0,-0.924 -1.237,-1.237 -1.56,-0.395 m 46.608,4.534 c -0.125,0.326 -0.699,0.773 -1.277,0.992 -1.272,0.484 -0.75,0.879 1.692,1.282 1.423,0.234 1.607,0.182 1.607,-0.459 0,-1.067 -1.717,-2.609 -2.022,-1.815 m -9.988,1.228 c -1.637,0.314 -0.407,0.866 1.919,0.86 2.602,-0.006 3.944,-0.486 2.467,-0.881 -0.951,-0.255 -3.003,-0.245 -4.386,0.021 m -5.971,1.566 c -0.607,0.191 -0.728,0.454 -0.55,1.191 0.183,0.753 0.278,0.818 0.47,0.319 0.132,-0.344 0.805,-0.751 1.495,-0.904 1.091,-0.242 1.155,-0.317 0.498,-0.577 -0.886,-0.349 -0.901,-0.349 -1.913,-0.029 m -16.424,7.24 c 0,0.208 0.245,0.378 0.545,0.378 0.3,0 0.65,-0.17 0.779,-0.378 0.128,-0.208 -0.117,-0.378 -0.545,-0.378 -0.428,0 -0.779,0.17 -0.779,0.378 m -2.741,1.016 c -0.364,0.096 -0.661,0.416 -0.661,0.713 0,0.377 -0.455,0.539 -1.513,0.539 -1.228,0 -1.512,0.134 -1.512,0.712 0,0.76 1.845,0.409 3.075,-0.585 0.284,-0.23 1.07,-0.536 1.745,-0.68 0.676,-0.145 1.229,-0.42 1.229,-0.611 0,-0.355 -1.172,-0.399 -2.363,-0.088 m 17.108,1.085 c 0,0.549 0.164,0.867 0.378,0.734 0.208,-0.128 0.378,-0.564 0.378,-0.967 0,-0.404 -0.17,-0.734 -0.378,-0.734 -0.208,0 -0.378,0.435 -0.378,0.967 m 26.314,0.041 c 0.348,1.449 0.529,1.586 0.529,0.401 0,-0.543 -0.177,-1.096 -0.393,-1.229 -0.258,-0.16 -0.305,0.125 -0.136,0.828 m 1.285,2.939 c 0,0.533 0.17,0.968 0.378,0.968 0.208,0 0.378,-0.33 0.378,-0.734 0,-0.404 -0.17,-0.839 -0.378,-0.967 -0.214,-0.133 -0.378,0.185 -0.378,0.733 m -65.217,10.952 c -2.521,2.636 -2.949,3.286 -2.467,3.74 0.375,0.353 0.521,0.348 0.656,-0.022 0.096,-0.261 0.84,-1.128 1.654,-1.926 0.814,-0.797 1.48,-1.637 1.48,-1.865 0,-0.758 -0.558,-0.727 -1.323,0.073 m 72.333,4.953 c -0.562,0.884 -0.712,3.096 -0.281,4.159 l 0.457,1.131 0.378,-1.227 c 0.391,-1.27 -0.089,-4.794 -0.554,-4.063 m -81.805,4.756 c -0.14,0.226 -0.058,0.607 0.182,0.847 0.474,0.474 1.289,-0.368 0.925,-0.957 -0.264,-0.427 -0.809,-0.373 -1.107,0.11 m 41.419,3.136 c 0,0.321 1.922,0.487 2.111,0.183 0.111,-0.18 -0.318,-0.328 -0.955,-0.328 -0.636,0 -1.156,0.065 -1.156,0.145 m -5.484,0.992 c -0.296,0.48 0.762,0.912 1.347,0.551 0.319,-0.197 0.298,-0.358 -0.076,-0.595 -0.676,-0.428 -0.985,-0.418 -1.271,0.044 m -42.531,5.079 c 0,1.158 0.215,1.252 0.487,0.212 0.109,-0.416 0.044,-0.851 -0.145,-0.968 -0.188,-0.116 -0.342,0.224 -0.342,0.756 m 13.721,12.507 c -0.404,0.783 -0.265,1.693 0.258,1.693 0.483,0 0.686,-0.874 0.395,-1.693 -0.266,-0.745 -0.268,-0.745 -0.653,0 m -25.231,8.329 c -0.751,1.146 -1.357,4.988 -0.623,3.95 0.221,-0.312 0.404,-0.88 0.407,-1.263 0.003,-0.382 0.381,-0.999 0.84,-1.371 0.682,-0.552 0.765,-0.831 0.454,-1.528 l -0.38,-0.853 -0.698,1.065 m 102.789,9.621 c 0,5.095 0.053,7.179 0.119,4.632 0.065,-2.548 0.065,-6.716 0,-9.263 -0.066,-2.547 -0.119,-0.463 -0.119,4.631 m -105.016,-1.638 c -0.4,0.4 -0.292,2.772 0.126,2.772 0.208,0 0.378,-0.68 0.378,-1.512 0,-1.545 -0.062,-1.702 -0.504,-1.26 m 88.035,1.733 c -0.108,0.468 -0.177,1.191 -0.154,1.606 0.023,0.416 -0.073,1.267 -0.213,1.891 -0.319,1.425 0.601,2.918 1.345,2.184 0.428,-0.422 0.478,-1.032 0.323,-3.885 -0.09,-1.66 -0.367,-2.647 -0.741,-2.647 -0.2,0 -0.452,0.383 -0.56,0.851 m -63.332,3.138 c 0.001,1.029 0.257,2.358 0.567,2.954 0.311,0.596 0.565,1.534 0.565,2.086 0,0.876 1.614,3.825 2.093,3.825 0.097,0 0.176,-1.513 0.176,-3.363 v -3.364 l -1.229,0.055 c -1.197,0.055 -1.232,0.011 -1.347,-1.645 -0.169,-2.429 -0.828,-2.867 -0.825,-0.548 m -26.025,21.957 c 0.051,15.831 0.131,18.771 0.384,14.13 0.608,-11.171 0.655,-33.204 0.071,-33.688 -0.439,-0.365 -0.509,2.645 -0.455,19.558 m 89.367,-16.926 c -0.272,0.858 0.123,2.019 0.59,1.731 0.449,-0.278 0.437,-2.433 -0.015,-2.433 -0.193,0 -0.453,0.316 -0.575,0.702 m -59.042,17.445 c 0,2.391 0.061,3.37 0.136,2.174 0.075,-1.196 0.075,-3.152 0,-4.348 -0.075,-1.196 -0.136,-0.217 -0.136,2.174 m 54.948,17.949 c -0.138,0.827 -0.091,1.664 0.105,1.86 0.543,0.543 0.774,-0.528 0.439,-2.04 l -0.293,-1.323 -0.251,1.503 m -1.165,4.668 c -0.172,0.691 -0.211,1.357 -0.087,1.481 0.427,0.427 0.656,-0.211 0.527,-1.472 l -0.128,-1.265 -0.312,1.256 m -84.53,0.03 c -0.291,0.543 -0.248,0.77 0.176,0.933 0.401,0.154 0.56,-0.049 0.56,-0.718 0,-1.119 -0.218,-1.183 -0.736,-0.215 m 83.018,4.225 c -0.138,0.686 -0.099,1.398 0.085,1.582 0.47,0.47 0.908,-1.5 0.497,-2.235 -0.26,-0.465 -0.387,-0.322 -0.582,0.653 m 18.415,1.313 c -0.37,0.964 0.926,1.647 2.208,1.163 l 1.082,-0.409 -0.859,-0.661 c -1.069,-0.823 -2.135,-0.864 -2.431,-0.093 m -101.566,0.409 c -0.131,0.131 -0.071,0.552 0.134,0.935 0.798,1.492 0.269,16.378 -0.588,16.537 -1.618,0.3 -1.858,0.913 -0.715,1.824 1.002,0.799 1.039,0.927 0.607,2.122 -0.578,1.599 -0.631,3.013 -0.081,2.162 0.201,-0.312 0.369,-0.95 0.372,-1.418 0.003,-0.501 0.239,-0.85 0.573,-0.85 0.491,0 0.567,-1.45 0.567,-10.776 0,-9.791 -0.123,-11.282 -0.869,-10.536 m 75.186,0.99 c 0.587,1.881 1.845,1.788 2.55,-0.189 0.2,-0.56 0.001,-0.661 -1.29,-0.661 -1.409,0 -1.506,0.065 -1.26,0.85 m 24.138,1.361 c -0.433,0.355 -0.906,1.112 -1.049,1.684 -0.143,0.571 -0.597,1.375 -1.007,1.785 -0.884,0.884 -0.979,1.881 -0.18,1.881 0.312,0 0.567,-0.217 0.567,-0.481 0,-0.265 0.603,-1.397 1.34,-2.516 1.482,-2.251 1.647,-3.429 0.329,-2.353 m -60.381,3.745 c -0.221,1.159 -0.012,1.726 0.515,1.4 0.448,-0.277 0.461,-1.952 0.018,-2.226 -0.185,-0.114 -0.424,0.258 -0.533,0.826 m -2.724,2.361 c -0.129,0.208 0.126,0.378 0.567,0.378 0.44,0 0.695,-0.17 0.567,-0.378 -0.129,-0.208 -0.384,-0.378 -0.567,-0.378 -0.184,0 -0.439,0.17 -0.567,0.378 m 56.512,4.821 c -0.203,0.571 -0.53,1.32 -0.726,1.662 -0.272,0.476 -0.182,0.669 0.383,0.817 0.894,0.233 1.487,-0.708 1.487,-2.36 0,-1.441 -0.651,-1.509 -1.144,-0.119 m -73.431,4.414 c -0.364,0.269 -0.662,0.598 -0.662,0.731 0,0.41 1.452,0.267 1.722,-0.169 0.42,-0.679 -0.35,-1.086 -1.06,-0.562 m 50.209,1.824 c -0.079,0.26 -0.24,1.151 -0.357,1.982 -0.117,0.83 -0.386,1.567 -0.599,1.638 -0.213,0.071 -0.374,0.668 -0.357,1.326 l 0.029,1.197 0.409,-1.127 c 0.225,-0.62 0.637,-1.355 0.916,-1.634 0.278,-0.278 0.506,-1.26 0.506,-2.181 0,-1.621 -0.25,-2.17 -0.547,-1.201 m 17.655,0.876 c -0.26,0.28 -0.473,0.673 -0.473,0.872 0,0.199 -0.189,0.426 -0.421,0.503 -0.232,0.077 -0.335,0.474 -0.229,0.882 0.18,0.696 0.209,0.689 0.465,-0.109 0.151,-0.468 0.491,-0.85 0.756,-0.85 0.585,0 0.966,-0.863 0.623,-1.411 -0.165,-0.263 -0.407,-0.225 -0.721,0.113 m 20.699,0.541 c 0,0.208 0.341,0.379 0.756,0.379 0.416,0 0.757,-0.171 0.757,-0.379 0,-0.207 -0.341,-0.378 -0.757,-0.378 -0.415,0 -0.756,0.171 -0.756,0.378 m -119.008,0.589 c -1.484,1.039 -1.101,2.058 0.775,2.058 3.472,0 7.951,6.656 5.498,8.171 -0.66,0.408 0.804,0.876 1.96,0.627 0.52,-0.112 1.204,-0.427 1.52,-0.7 0.317,-0.273 0.99,-0.65 1.497,-0.838 0.885,-0.327 0.867,-0.351 -0.442,-0.597 -1.856,-0.348 -2.271,-0.928 -1.811,-2.531 0.59,-2.057 0.501,-2.242 -1.083,-2.242 -1.74,0 -2.468,-0.697 -3.063,-2.93 -0.482,-1.809 -2.975,-2.332 -4.851,-1.018 m 118.91,4.285 c -0.239,0.911 0.077,1.378 1.105,1.637 1.17,0.296 1.458,-1.037 0.387,-1.787 -1.048,-0.734 -1.267,-0.712 -1.492,0.15 m -24.616,0.239 c -0.35,0.911 0.165,1.553 0.609,0.76 0.235,-0.42 0.234,-0.783 -0.002,-1.019 -0.237,-0.238 -0.452,-0.146 -0.607,0.259 m 8.296,0.293 c -0.169,0.581 -0.202,1.162 -0.073,1.291 0.423,0.424 0.672,-0.18 0.525,-1.274 l -0.144,-1.075 -0.308,1.058 m -117.419,4.402 c 0,0.659 0.64,0.758 1.362,0.211 0.68,-0.514 0.663,-0.543 -0.322,-0.555 -0.572,-0.006 -1.04,0.148 -1.04,0.344 m 17.202,2.182 c -1.298,0.313 -1.484,0.81 -0.405,1.081 1.304,0.327 3.288,-0.472 2.465,-0.992 -0.58,-0.368 -0.852,-0.379 -2.06,-0.089 m -22.577,1.347 -1.027,0.463 0.72,0.942 0.719,0.943 1.064,-0.794 c 1.936,-1.446 0.841,-2.598 -1.476,-1.554 m 18.675,0.841 c -0.409,0.52 -1.03,0.945 -1.38,0.945 -0.795,0 -3.603,2.789 -3.603,3.577 0,0.32 0.102,0.582 0.227,0.582 0.437,0 2.994,-1.267 3.611,-1.789 0.946,-0.801 3.15,-0.264 3.678,0.895 0.518,1.137 0.555,2.784 0.063,2.784 -0.441,0 -0.941,2.447 -0.61,2.984 0.389,0.629 1.349,0.027 1.355,-0.85 0.003,-0.446 0.251,-1.491 0.55,-2.323 1.036,-2.874 0.48,-6.95 -0.776,-5.694 -0.76,0.761 -1.136,0.519 -1.423,-0.914 -0.278,-1.39 -0.714,-1.44 -1.692,-0.197 m 119.998,1.76 c -0.494,0.99 -0.581,2.572 -0.514,9.357 0.045,4.515 0.135,6.263 0.201,3.912 0.098,-3.432 0.228,-4.254 0.676,-4.254 0.816,0 0.804,-5.494 -0.013,-5.808 -0.811,-0.311 -0.7,-1.85 0.189,-2.611 0.776,-0.664 1.031,-1.789 0.406,-1.789 -0.193,0 -0.618,0.537 -0.945,1.193 m -53.05,1.732 c -2.2,0.154 -3.237,1.129 -2.345,2.203 0.694,0.837 1.389,0.653 2.327,-0.616 0.746,-1.009 1.019,-1.129 2.107,-0.925 1.422,0.267 2.847,-0.066 2.523,-0.589 -0.213,-0.345 -0.629,-0.351 -4.612,-0.073 m -75.711,3.07 c -2.015,0.946 -4.537,4.26 -4.537,5.962 0,0.701 0.998,0.663 1.271,-0.047 0.365,-0.952 0.915,-0.638 1.387,0.79 0.5,1.516 0.981,1.333 1.351,-0.513 0.184,-0.921 0.095,-1.267 -0.371,-1.446 -0.378,-0.145 -0.614,-0.673 -0.614,-1.372 0,-1.174 0.327,-1.252 2.647,-0.635 0.419,0.112 0.598,-0.232 0.687,-1.317 0.156,-1.9 -0.204,-2.181 -1.821,-1.422 m 69.943,1.537 c 0,0.191 -0.509,0.46 -1.132,0.596 -0.623,0.137 -1.261,0.465 -1.418,0.729 -0.157,0.264 -0.945,0.584 -1.75,0.711 -1.702,0.267 -2.117,0.557 -1.416,0.99 0.615,0.38 3.195,-0.161 3.378,-0.708 0.073,-0.219 0.363,-0.398 0.645,-0.398 0.282,0 1.071,-0.51 1.754,-1.134 0.925,-0.845 1.076,-1.134 0.59,-1.134 -0.358,0 -0.651,0.156 -0.651,0.348 m -59.482,3.954 c -0.357,0.545 -0.896,0.991 -1.198,0.991 -1.255,0 -0.12,2.414 2.137,4.545 1.215,1.148 2.21,2.296 2.21,2.552 0,0.277 0.496,0.454 1.229,0.438 1.159,-0.024 1.18,-0.048 0.378,-0.435 -0.468,-0.226 -0.851,-0.631 -0.851,-0.901 0,-0.27 -0.234,-0.627 -0.521,-0.793 -0.861,-0.499 -2.123,-3.224 -2.152,-4.645 -0.046,-2.334 -0.462,-2.926 -1.232,-1.752 m 40.815,3.822 -1.086,0.458 1.218,0.244 c 0.67,0.134 1.484,0.095 1.808,-0.087 1.084,-0.607 -0.653,-1.157 -1.94,-0.615 m -69.571,2.335 c -0.138,1.168 -0.161,2.213 -0.051,2.322 0.397,0.398 0.689,-0.327 0.863,-2.138 0.253,-2.624 -0.505,-2.795 -0.812,-0.184 m 17.917,-1.597 c 0,0.3 0.17,0.65 0.378,0.778 0.208,0.129 0.378,-0.116 0.378,-0.544 0,-0.428 -0.17,-0.779 -0.378,-0.779 -0.208,0 -0.378,0.245 -0.378,0.545 m 41.588,0.967 c 0,0.208 0.425,0.379 0.945,0.379 0.52,0 0.945,-0.171 0.945,-0.379 0,-0.207 -0.425,-0.378 -0.945,-0.378 -0.52,0 -0.945,0.171 -0.945,0.378 m -12.31,0.934 c -0.566,0.428 -0.603,0.557 -0.161,0.567 0.315,0.006 1.19,0.343 1.945,0.747 1.35,0.724 1.383,0.724 2.025,0.014 1.463,-1.616 -1.885,-2.784 -3.809,-1.328 m -21.113,2.647 c -0.355,1.413 -1.438,1.827 -3.346,1.282 -1.978,-0.564 -2.577,-0.478 -3.324,0.479 -0.368,0.471 -1.277,0.847 -2.457,1.016 -1.287,0.184 -1.874,0.444 -1.874,0.831 0,0.69 2.168,0.575 4.469,-0.237 0.839,-0.296 2.729,-0.719 4.2,-0.94 3.624,-0.544 7.253,-2.231 4.799,-2.231 -0.39,0 -0.922,-0.255 -1.181,-0.567 -0.668,-0.805 -1.017,-0.706 -1.286,0.367 m 27.765,1.618 c 0.018,0.365 3.164,2.363 3.722,2.363 0.233,0 0.423,0.17 0.423,0.378 0,0.208 0.174,0.378 0.387,0.378 0.213,0 0.108,-0.425 -0.232,-0.945 -0.341,-0.52 -0.849,-0.945 -1.13,-0.945 -0.281,0 -0.693,-0.341 -0.915,-0.756 -0.382,-0.713 -2.286,-1.112 -2.255,-0.473 m -50.203,1.183 c -1.781,2.408 -1.197,2.737 4.177,2.353 4.116,-0.293 6.707,-1.215 5.514,-1.961 -0.354,-0.221 -0.719,-0.069 -1.132,0.474 -0.551,0.724 -0.876,0.782 -3.374,0.603 -2.744,-0.196 -2.938,-0.294 -3.957,-1.988 -0.333,-0.555 -0.481,-0.492 -1.228,0.519 m -4.988,1.518 c -0.514,0.962 0.242,1.58 1.397,1.143 0.956,-0.362 1.062,-0.74 0.397,-1.405 -0.659,-0.659 -1.355,-0.557 -1.794,0.262 m 137.872,3.913 c -0.093,0.261 0.148,1.289 0.534,2.285 0.401,1.031 0.703,2.766 0.703,4.033 0,2.605 0.311,3.756 0.803,2.979 0.176,-0.278 0.323,-0.966 0.326,-1.531 0.008,-1.456 0.956,-1.812 4.117,-1.547 2.417,0.202 2.687,0.159 2.474,-0.396 -0.131,-0.342 -0.646,-0.622 -1.144,-0.622 -0.497,0 -1.261,-0.356 -1.696,-0.792 -0.622,-0.622 -1.067,-0.74 -2.079,-0.55 -0.724,0.136 -1.288,0.086 -1.288,-0.114 0,-0.195 -0.423,-0.756 -0.939,-1.246 -0.516,-0.489 -0.942,-1.263 -0.945,-1.718 -0.008,-0.947 -0.614,-1.494 -0.866,-0.781 m -60.707,8.566 c -0.393,0.244 -0.361,0.364 0.152,0.561 0.779,0.299 1.207,-0.013 0.705,-0.514 -0.195,-0.196 -0.581,-0.217 -0.857,-0.047 m 75.57,1.721 c -0.588,0.709 -0.357,1.908 0.368,1.908 0.358,0 0.605,-0.447 0.681,-1.229 0.126,-1.306 -0.3,-1.582 -1.049,-0.679 m -15.436,6.349 c -0.321,0.387 -0.203,0.773 0.497,1.625 0.774,0.943 0.979,1.029 1.308,0.55 1.055,-1.532 -0.642,-3.577 -1.805,-2.175 m -17.686,0.624 c 0.683,0.268 2.483,0.127 2.483,-0.194 0,-0.08 -0.723,-0.133 -1.607,-0.118 -1.136,0.018 -1.393,0.11 -0.876,0.312 m -16.704,1.449 c 0.78,0.081 2.056,0.081 2.836,0 0.779,-0.082 0.141,-0.149 -1.418,-0.149 -1.56,0 -2.198,0.067 -1.418,0.149 m 35.35,3.344 c -0.156,0.158 -0.284,1.228 -0.284,2.379 0,1.47 0.119,1.973 0.4,1.692 0.22,-0.22 0.347,-1.29 0.283,-2.379 -0.063,-1.088 -0.243,-1.85 -0.399,-1.692 m 6.253,7.269 c -0.332,0.211 -0.264,0.411 0.25,0.732 0.556,0.348 0.749,0.333 0.904,-0.07 0.326,-0.85 -0.297,-1.207 -1.154,-0.662"
       inkscape:connector-curvature="0"
       style="fill:#ffffff;fill-rule:evenodd;stroke:none" />
    <path
       id="path2"
       d="m 253.402,8.436 c -1.924,1.91 -4.816,4.685 -6.427,6.166 -2.84,2.611 -2.909,2.716 -2.268,3.433 0.364,0.406 0.662,1.003 0.662,1.325 0,0.981 0.866,1.386 3.226,1.507 l 2.256,0.116 0.1,10.503 0.101,10.503 0.963,0.367 c 1.037,0.394 10.017,0.5 11.38,0.135 1.338,-0.359 1.43,-1.028 1.493,-10.829 0.072,-11.07 -0.062,-10.49 2.422,-10.49 5.673,0 4.776,-2.844 -3.489,-11.059 -6.337,-6.299 -5.845,-6.219 -10.419,-1.677 m 8.274,1.129 c 4.882,4.551 5.562,5.243 6.563,6.688 2.204,3.18 1.273,5.459 -1.469,3.599 -0.99,-0.672 -1.364,-0.779 -1.364,-0.391 0,0.294 -0.377,0.798 -0.839,1.122 -0.831,0.582 -0.838,0.674 -0.743,9.378 0.053,4.835 -0.049,9.302 -0.227,9.926 l -0.324,1.134 h -5.455 -5.455 l -0.033,-9.867 c -0.029,-8.553 -0.117,-9.987 -0.662,-10.765 -0.345,-0.494 -0.628,-1.107 -0.628,-1.363 0,-0.554 -2.207,-1.029 -3.738,-0.804 -2.929,0.43 -1.779,-1.784 2.591,-4.989 0.708,-0.52 1.639,-1.344 2.068,-1.831 0.429,-0.487 1.554,-1.454 2.499,-2.149 0.945,-0.696 1.945,-1.688 2.222,-2.205 0.684,-1.278 1.206,-1.015 4.994,2.517 m -22.924,34.549 c -2.079,0.073 -4.036,0.234 -4.347,0.358 -0.312,0.124 -1.078,0.277 -1.702,0.339 -3.891,0.387 -7.912,1.582 -10.033,2.982 -0.736,0.486 -1.911,1.009 -2.611,1.163 -0.7,0.153 -2.067,0.85 -3.038,1.547 -0.97,0.697 -2.113,1.401 -2.539,1.564 -1.686,0.644 -8.633,7.24 -10.802,10.255 -0.672,0.935 -1.782,2.261 -2.466,2.948 -3.322,3.333 -3.16,11.193 0.289,14.058 l 1.533,1.274 -0.243,2.913 c -0.201,2.409 -0.136,3.02 0.373,3.528 0.338,0.339 0.615,0.777 0.615,0.974 0,0.198 0.255,0.571 0.567,0.83 1.717,1.425 -0.513,7.04 -3.495,8.8 -1.858,1.097 -3.255,4.045 -3.029,6.396 0.228,2.37 0.837,2.983 4.273,4.294 l 2.846,1.086 -0.018,1.716 c -0.042,3.802 0.315,6.022 1.149,7.151 1.046,1.414 1.067,3.321 0.068,6.134 -0.786,2.213 -0.774,2.337 0.581,5.674 0.223,0.548 1.104,1.352 1.987,1.812 0.872,0.455 2.411,1.538 3.421,2.408 1.009,0.869 2.986,2.203 4.393,2.964 1.408,0.762 2.646,1.702 2.753,2.089 0.293,1.065 1.869,2.695 2.84,2.939 1.74,0.437 3.808,9.995 2.546,11.766 -0.483,0.679 -3.619,2.824 -4.129,2.824 -0.807,0 -5.498,3.171 -7.115,4.81 -2.599,2.635 -6.683,7.285 -7.652,8.713 -1.596,2.351 -3.25,3.92 -4.892,4.64 -2.001,0.876 -4.969,4.805 -10.516,13.919 -0.208,0.341 -0.969,1.472 -1.692,2.511 -1.436,2.065 -3.381,5.784 -3.4,6.5 -0.016,0.611 -2.987,6.862 -3.86,8.123 -0.676,0.977 -0.936,1.872 -1.845,6.36 -0.232,1.144 -0.685,3.045 -1.007,4.225 -0.322,1.181 -0.478,2.426 -0.347,2.769 0.132,0.342 0.058,0.961 -0.163,1.374 -0.258,0.482 -0.438,5.792 -0.503,14.812 -0.056,7.733 -0.331,17.123 -0.612,20.866 -0.53,7.065 -0.554,10.55 -0.158,22.738 0.148,4.566 0.096,7.499 -0.143,7.944 -0.589,1.102 -4.901,3.027 -7.397,3.305 -2.685,0.298 -2.965,0.441 -4.084,2.084 -0.482,0.708 -1.131,1.419 -1.443,1.581 -0.312,0.161 -2.145,1.198 -4.073,2.303 -1.928,1.106 -3.969,2.251 -4.536,2.544 -0.568,0.294 -1.287,0.677 -1.599,0.852 -0.312,0.175 -0.95,0.483 -1.418,0.686 -0.467,0.202 -0.85,0.517 -0.85,0.7 0,0.848 -1.914,2.333 -3.008,2.333 -0.635,0 -1.789,0.34 -2.565,0.756 -1.169,0.627 -2.154,0.759 -5.764,0.773 -2.802,0.01 -4.892,0.21 -5.866,0.562 -0.831,0.299 -2.945,0.726 -4.698,0.947 -2.986,0.377 -4.131,0.921 -4.174,1.983 -0.026,0.63 1.254,0.735 2.204,0.182 0.724,-0.422 2.594,-0.643 6.818,-0.804 4.446,-0.17 5.97,-0.358 6.457,-0.799 0.63,-0.57 2.833,-0.774 3.907,-0.362 0.897,0.344 0.307,1.68 -1.734,3.929 -1.03,1.135 -2.044,2.496 -2.254,3.025 -0.21,0.528 -0.526,1.301 -0.702,1.717 -0.754,1.777 -1.566,4.301 -2.006,6.238 -0.26,1.144 -0.68,2.465 -0.934,2.937 -0.253,0.472 -0.516,2.057 -0.585,3.523 -0.159,3.395 -0.41,3.577 -5.733,4.137 -2.27,0.238 -4.467,0.649 -4.883,0.913 -0.416,0.264 -1.692,0.584 -2.836,0.711 -5.085,0.564 -6.049,0.763 -6.592,1.363 -1.111,1.228 0.256,2.442 2.391,2.123 0.959,-0.143 2.599,-0.321 3.645,-0.395 1.045,-0.074 2.661,-0.4 3.591,-0.723 0.93,-0.324 2.338,-0.592 3.128,-0.595 0.79,-0.003 1.945,-0.268 2.567,-0.59 1.128,-0.583 7.745,-1.368 17.546,-2.082 2.704,-0.197 5.766,-0.614 6.806,-0.927 1.039,-0.314 3.847,-1.008 6.238,-1.543 2.391,-0.536 4.858,-1.201 5.482,-1.479 0.624,-0.278 1.815,-0.631 2.646,-0.785 0.832,-0.153 2.06,-0.508 2.729,-0.787 0.669,-0.279 1.576,-0.508 2.015,-0.508 0.439,0 1.891,-0.437 3.227,-0.971 2.404,-0.962 2.451,-0.966 4.602,-0.347 2.806,0.807 9.319,4.063 10.51,5.254 0.685,0.686 2.586,1.829 6.469,3.892 2.828,1.502 7.41,4.965 11.034,8.338 1.175,1.094 2.437,2.084 2.805,2.202 0.368,0.117 1.218,0.717 1.89,1.333 0.672,0.617 1.648,1.227 2.167,1.357 0.52,0.13 2.392,0.994 4.159,1.921 5.856,3.071 6.598,3.393 9.833,4.27 3.346,0.908 9.657,1.137 16.065,0.584 1.456,-0.126 4.518,-0.325 6.805,-0.444 2.288,-0.118 4.755,-0.417 5.482,-0.665 2.179,-0.741 12.607,-0.265 13.642,0.623 1.027,0.882 0.773,4.731 -0.498,7.556 -1.126,2.499 -0.738,3.031 2.408,3.306 1.653,0.145 3.201,0.598 4.842,1.418 3.569,1.783 3.803,1.574 3.803,-3.404 0,-1.235 0.163,-2.552 0.363,-2.925 0.2,-0.373 0.438,-5.284 0.529,-10.912 0.09,-5.629 0.277,-10.415 0.413,-10.637 0.137,-0.221 0.321,-2.062 0.41,-4.091 0.088,-2.028 0.34,-5.219 0.561,-7.091 0.221,-1.871 0.57,-7.06 0.776,-11.531 0.377,-8.203 0.868,-15.015 1.308,-18.153 0.217,-1.554 0.132,-1.819 -0.941,-2.943 -1.41,-1.475 -1.227,-1.966 0.731,-1.966 1.903,0 2.655,-0.312 2.655,-1.099 0,-1.011 -0.793,-1.548 -2.285,-1.548 -2.547,0 -2.63,-0.306 -2.63,-9.74 0,-9.376 -0.106,-9.904 -2.248,-11.127 -1.797,-1.027 -1.958,-2.01 -0.82,-5.031 1.251,-3.321 2.44,-11.999 2.199,-16.047 -0.132,-2.205 -0.06,-3.856 0.187,-4.317 0.22,-0.411 0.435,-3.228 0.478,-6.259 0.043,-3.032 0.289,-7.299 0.547,-9.483 0.789,-6.693 0.159,-26.675 -0.895,-28.343 -0.192,-0.305 -0.316,-2.262 -0.274,-4.348 0.07,-3.449 -0.134,-6.208 -1.075,-14.568 -0.176,-1.559 -0.482,-4.451 -0.681,-6.427 -0.199,-1.975 -0.612,-4.102 -0.919,-4.726 -1.626,-3.31 -2.172,-4.591 -2.173,-5.104 -0.001,-0.312 -0.34,-1.077 -0.753,-1.701 -0.413,-0.624 -0.752,-1.5 -0.753,-1.947 -0.002,-0.447 -0.598,-1.697 -1.326,-2.779 -0.728,-1.081 -1.323,-2.058 -1.323,-2.17 0,-0.253 -1.478,-3.484 -1.946,-4.257 -0.19,-0.312 -0.637,-1.048 -0.995,-1.635 -0.358,-0.587 -1.017,-1.504 -1.464,-2.037 -3.803,-4.534 -4.88,-9.043 -4.334,-18.138 l 0.232,-3.851 1.291,-0.875 c 0.906,-0.614 1.482,-1.437 1.934,-2.765 0.354,-1.039 1.174,-2.741 1.822,-3.78 0.647,-1.04 1.359,-2.306 1.58,-2.813 0.222,-0.507 0.735,-1.155 1.141,-1.439 0.538,-0.376 0.739,-0.959 0.739,-2.14 0,-1.128 0.403,-2.384 1.323,-4.117 0.728,-1.371 1.329,-2.715 1.336,-2.987 0.007,-0.271 0.341,-1.174 0.743,-2.005 0.537,-1.112 0.737,-2.363 0.755,-4.726 0.018,-2.208 0.199,-3.444 0.58,-3.948 0.805,-1.063 0.793,-11.655 -0.014,-13.203 -0.422,-0.809 -0.565,-2.412 -0.565,-6.334 0,-4.529 -0.104,-5.446 -0.756,-6.662 -0.416,-0.776 -0.757,-1.669 -0.758,-1.984 -0.002,-0.315 -0.341,-1.083 -0.754,-1.707 -0.413,-0.623 -0.752,-1.372 -0.754,-1.662 -0.001,-0.291 -0.64,-1.3 -1.42,-2.244 -0.78,-0.943 -1.843,-2.435 -2.363,-3.314 -5.291,-8.953 -9.458,-11.952 -17.013,-12.244 -2.807,-0.109 -5.444,-0.39 -5.86,-0.626 -0.899,-0.51 -6.82,-0.82 -12.099,-0.635 m 9.051,2.811 c 1.26,0.232 2.887,0.647 3.615,0.922 0.728,0.275 3.024,0.573 5.104,0.662 2.079,0.09 4.291,0.394 4.915,0.677 3.706,1.678 7.3,4.844 8.348,7.352 0.289,0.69 0.681,1.352 0.873,1.47 0.191,0.118 0.917,1.171 1.612,2.339 0.696,1.169 1.646,2.742 2.112,3.497 1.689,2.739 3.195,6.317 3.202,7.612 0.004,0.727 -0.03,2.362 -0.074,3.631 -0.054,1.538 0.126,2.71 0.539,3.509 2.09,4.039 -0.302,23.712 -3.427,28.199 -0.286,0.41 -0.52,1.123 -0.52,1.584 0,0.462 -0.17,0.944 -0.378,1.073 -0.208,0.128 -0.378,0.628 -0.378,1.11 0,1.025 -1.017,3.613 -1.423,3.622 -0.153,0.003 -0.679,0.896 -1.168,1.984 -1.757,3.911 -2.146,4.56 -2.891,4.823 -1.273,0.449 -4.4,-0.866 -6.144,-2.584 -1.172,-1.154 -1.917,-1.583 -2.749,-1.583 -2.42,0 -4.151,-1.637 -4.151,-3.928 0,-2.077 -0.333,-2.658 -1.701,-2.966 -0.678,-0.152 -0.651,-0.214 0.261,-0.59 2.946,-1.215 1.828,-7.125 -1.486,-7.851 -0.574,-0.126 -1.256,-0.294 -1.516,-0.374 -0.642,-0.198 -0.599,-2.05 0.065,-2.787 0.681,-0.755 1.572,-3.183 2.543,-6.932 1.913,-7.385 -3.086,-10.556 -12.048,-7.642 -3.35,1.09 -3.665,1.399 -5.803,5.714 -2.467,4.976 -3.459,5.134 -4.874,0.773 -0.372,-1.147 -4.285,-6.604 -5.336,-7.443 -0.131,-0.104 -0.677,-0.892 -1.215,-1.751 -0.538,-0.859 -1.414,-2.032 -1.947,-2.607 -1.291,-1.393 -1.413,-5.739 -0.213,-7.552 2.222,-3.354 -0.042,-5.771 -3.328,-3.553 -0.956,0.644 -2.129,1.321 -2.607,1.503 -0.479,0.182 -0.87,0.505 -0.87,0.718 0,0.213 -0.188,0.387 -0.418,0.387 -0.23,0 -0.924,0.426 -1.542,0.945 -0.774,0.652 -1.577,0.946 -2.584,0.946 -0.803,0 -1.577,0.187 -1.718,0.416 -0.142,0.229 -0.838,0.66 -1.548,0.956 -0.745,0.311 -1.448,0.952 -1.662,1.515 -0.987,2.596 -1.942,-0.75 -1.454,-5.096 0.412,-3.673 1.252,-5.01 6.265,-9.967 5.128,-5.07 10.39,-8.426 15.044,-9.594 0.51,-0.128 1.119,-0.463 1.352,-0.744 0.234,-0.282 1.216,-0.63 2.184,-0.775 0.967,-0.145 2.347,-0.51 3.067,-0.811 2.308,-0.964 12.458,-1.475 16.072,-0.809 m 14.957,0.712 c 0,0.208 -0.5,0.378 -1.112,0.378 -0.612,0 -1.217,-0.17 -1.346,-0.378 -0.139,-0.225 0.312,-0.378 1.112,-0.378 0.74,0 1.346,0.17 1.346,0.378 m -52.135,9.942 c -0.485,0.485 -0.977,0.11 -0.618,-0.471 0.139,-0.225 0.426,-0.303 0.638,-0.172 0.258,0.16 0.252,0.371 -0.02,0.643 m -2.646,2.646 c -0.485,0.486 -0.978,0.111 -0.618,-0.471 0.139,-0.225 0.426,-0.302 0.638,-0.171 0.258,0.159 0.251,0.371 -0.02,0.642 m 68.351,2.735 c 0.739,1.085 0.831,1.482 0.498,2.171 -0.284,0.589 -0.414,0.661 -0.432,0.24 -0.014,-0.332 -0.366,-0.911 -0.782,-1.288 -0.721,-0.652 -1.069,-2.46 -0.472,-2.455 0.156,0.002 0.691,0.601 1.188,1.332 m 1.925,4.62 c -0.004,0.811 -0.087,0.915 -0.372,0.473 -0.478,-0.74 -0.478,-1.512 0,-1.512 0.208,0 0.375,0.468 0.372,1.039 m -56.705,0.851 c 0,0.789 -0.616,0.935 -2.174,0.518 -1.571,-0.421 -0.82,-1.12 1.323,-1.23 0.614,-0.032 0.851,0.167 0.851,0.712 m -19.316,3.988 c 0,3.782 -0.396,4.628 -1.672,3.569 -0.582,-0.483 -0.847,-6.39 -0.31,-6.927 1.339,-1.339 1.982,-0.25 1.982,3.358 m 12.722,-0.634 c -0.812,0.811 -1.709,-0.002 -0.977,-0.885 0.381,-0.459 0.606,-0.49 1.024,-0.143 0.461,0.382 0.454,0.527 -0.047,1.028 m 4.26,-0.4 c 0.068,0.477 -0.173,1.81 -0.536,2.962 l -0.659,2.096 1.232,2.498 c 1.255,2.545 1.574,2.972 4.566,6.103 1.914,2.004 3.673,4.737 4.242,6.589 1.2,3.91 7.47,4.569 8.352,0.877 0.609,-2.547 1.352,-3.853 2.213,-3.893 1.66,-0.077 1.828,-0.15 3.244,-1.413 3.878,-3.456 4.297,-1.199 0.581,3.127 -1.065,1.24 -1.207,1.657 -1.135,3.347 0.068,1.576 -0.072,2.075 -0.763,2.719 -1.787,1.665 -1.364,3.658 0.921,4.339 1.809,0.539 2.425,-0.865 2.323,-5.288 l -0.091,-3.953 1.284,-1.324 c 1.612,-1.664 2.272,-1.662 3.742,0.012 1.408,1.604 1.616,3.817 0.457,4.866 -0.395,0.358 -0.836,1.442 -0.982,2.417 -0.299,1.991 -0.78,3.045 -2.904,6.355 -2.192,3.415 -3.18,3.755 -5.69,1.956 -1.126,-0.808 -1.649,0.123 -1.099,1.957 0.876,2.925 0.88,6.369 0.009,7.24 -0.425,0.425 -0.874,1.398 -0.997,2.162 -0.124,0.764 -0.517,1.871 -0.874,2.458 -0.597,0.984 -0.609,2.523 -0.019,2.523 1.138,0 2.577,-3.759 3.042,-7.944 0.371,-3.345 1.031,-4.597 2.642,-5.011 0.713,-0.184 1.884,-0.818 2.601,-1.409 1.687,-1.391 3.053,-0.976 3.107,0.943 0.03,1.072 1.883,3.104 3.111,3.413 0.927,0.232 1.038,0.431 1.038,1.855 0,2.171 3.021,4.759 6.335,5.427 1.082,0.217 1.549,0.567 1.982,1.484 0.345,0.727 1.121,1.451 1.974,1.84 2.454,1.119 2.43,1.008 2.202,9.799 l -0.206,7.94 -4.537,0.303 c -2.879,0.193 -5.267,0.573 -6.536,1.04 -1.099,0.405 -2.55,0.736 -3.224,0.736 -0.673,0 -1.56,0.231 -1.97,0.514 -0.41,0.282 -1.396,0.632 -2.191,0.778 -1.995,0.366 -6.936,2.381 -8.769,3.577 -2.532,1.653 -2.981,1.924 -3.964,2.397 -0.52,0.25 -1.351,0.759 -1.847,1.131 -0.495,0.372 -1.198,0.677 -1.56,0.677 -0.362,0 -0.871,0.255 -1.13,0.567 -1.501,1.809 -2.268,0.755 -2.268,-3.122 0,-2.028 -0.161,-4.251 -0.359,-4.939 -0.412,-1.436 0.101,-2.959 1.104,-3.278 0.347,-0.11 0.999,-0.698 1.449,-1.307 1.027,-1.389 0.042,-1.968 -1.715,-1.007 -2.8,1.532 -2.684,1.504 -4.259,1.033 -2.138,-0.641 -1.886,-1.325 0.787,-2.134 4.293,-1.3 6.745,-3.464 3.466,-3.059 -8.689,1.075 -11.854,0.633 -9.169,-1.28 2.117,-1.507 1.545,-1.963 -2.097,-1.667 -4.335,0.351 -6.746,-0.67 -7.137,-3.024 -0.303,-1.824 0.09,-4.697 0.78,-5.695 0.67,-0.971 0.66,-3.19 -0.017,-3.951 -1.865,-2.092 -0.451,-3.123 3.112,-2.269 1.712,0.411 2.069,0.403 2.359,-0.056 1.07,-1.69 -0.362,-2.858 -2.86,-2.332 -1.036,0.218 -1.809,0.17 -2.457,-0.154 -0.52,-0.26 -1.243,-0.561 -1.607,-0.669 -0.548,-0.163 -0.662,-0.649 -0.662,-2.833 0,-2.679 0.225,-3.243 1.083,-2.713 0.83,0.514 2.305,-0.018 3.084,-1.113 1.216,-1.707 0.051,-3.187 -1.638,-2.08 -0.561,0.367 -1.019,0.43 -1.398,0.191 -0.31,-0.196 -1.584,-0.365 -2.832,-0.374 -3.92,-0.031 -4.317,-0.951 -1.917,-4.44 2.379,-3.459 3.414,-6.1 3.499,-8.923 0.095,-3.211 0.17,-3.284 1.917,-1.875 1.154,0.932 1.437,1.428 1.531,2.682 0.175,2.343 0.869,2.662 2.662,1.221 0.91,-0.731 2.096,-1.278 3.048,-1.406 1.697,-0.227 1.744,-0.31 2.044,-3.59 0.194,-2.115 -0.086,-2.445 -3.465,-4.081 -3.229,-1.564 -7.392,-1.662 -8.063,-0.19 -0.616,1.35 -1.565,0.521 -1.255,-1.097 0.624,-3.259 1.694,-4.716 3.552,-4.836 1.649,-0.107 1.746,-0.176 1.856,-1.31 0.143,-1.474 1.627,-3.149 2.796,-3.156 1.65,-0.01 2.578,-0.463 2.805,-1.368 0.431,-1.718 2.5,-2.164 2.724,-0.588 m -8.252,2.15 c 0,0.649 -0.629,1.068 -1.135,0.755 -0.252,-0.155 -0.245,-0.484 0.019,-0.978 0.423,-0.79 1.116,-0.651 1.116,0.223 m -2.114,2.268 c 0.516,0.788 0.529,0.946 0.075,0.946 -0.299,0 -0.616,-0.213 -0.703,-0.473 -0.234,-0.695 -1.253,0.247 -2.42,2.238 l -0.959,1.637 -1.098,-0.782 c -1.719,-1.223 -1.559,-2.791 0.249,-2.452 1.25,0.235 1.38,0.169 1.785,-0.903 0.566,-1.502 2.154,-1.611 3.071,-0.211 m 70.428,1.607 c -0.095,0.364 -0.173,0.066 -0.173,-0.661 0,-0.728 0.078,-1.026 0.173,-0.662 0.095,0.364 0.095,0.959 0,1.323 m -66.694,6.931 1.053,0.481 -1.139,0.721 -1.14,0.722 1.088,1.385 c 2.124,2.706 1.756,4.248 -0.472,1.976 -0.588,-0.599 -1.523,-1.203 -2.079,-1.342 -2.082,-0.52 -3.451,-2.626 -2.613,-4.021 0.531,-0.882 3.29,-0.841 5.302,0.078 m 28.949,1.286 c -1.009,1.064 -2.043,1.281 -1.687,0.353 0.126,-0.328 0.23,-0.754 0.23,-0.945 0,-0.191 0.528,-0.347 1.174,-0.347 h 1.173 l -0.89,0.939 M 206.31,87.24 c -0.095,0.364 -0.173,0.066 -0.173,-0.662 0,-0.727 0.078,-1.025 0.173,-0.661 0.095,0.364 0.095,0.959 0,1.323 m 9.967,-0.851 c -0.03,0.562 -0.875,0.458 -1.072,-0.13 -0.106,-0.318 0.067,-0.46 0.461,-0.378 0.347,0.072 0.622,0.3 0.611,0.508 m -9.96,5.573 c -0.091,0.47 -0.168,0.174 -0.173,-0.658 -0.004,-0.831 0.07,-1.216 0.165,-0.855 0.095,0.362 0.098,1.042 0.008,1.513 m 29.222,-0.015 c 0,0.611 -0.112,0.72 -0.421,0.411 -0.231,-0.231 -0.306,-0.606 -0.167,-0.832 0.391,-0.632 0.588,-0.492 0.588,0.421 m 43.828,7.486 c -0.211,0.366 -0.316,-0.172 -0.295,-1.512 0.032,-2.065 0.034,-2.069 0.327,-0.568 0.162,0.832 0.148,1.768 -0.032,2.08 m -36.711,-1.735 c 0.235,1.999 -0.594,2.446 -2.136,1.152 -0.067,-0.057 0.156,-0.64 0.495,-1.296 0.723,-1.399 1.467,-1.333 1.641,0.144 m -41.144,2.634 c 0,1.596 -0.914,2.508 -1.713,1.709 -0.469,-0.47 -0.442,-0.703 0.203,-1.764 0.957,-1.574 1.51,-1.554 1.51,0.055 m 49.146,3.068 c 0.21,0.13 0.382,0.642 0.382,1.137 0,1.159 0.541,1.484 1.265,0.759 0.771,-0.77 0.841,-0.741 1.381,0.564 0.552,1.333 0.039,2.269 -1.245,2.269 -0.426,0 -1.074,0.27 -1.439,0.601 -0.937,0.848 -1.908,0.202 -2.41,-1.605 -0.247,-0.89 -0.731,-1.599 -1.247,-1.827 -1.143,-0.507 -1.061,-1.156 0.387,-3.054 l 1.228,-1.61 0.658,1.265 c 0.362,0.696 0.83,1.372 1.04,1.501 m 26.302,4.357 c -1.032,1.964 -1.346,3.011 -1.346,4.491 0,1.061 -0.143,1.93 -0.319,1.93 -0.508,0 -2.191,1.635 -2.457,2.387 -0.134,0.377 -0.398,0.589 -0.588,0.472 -0.475,-0.294 -0.05,-1.744 0.581,-1.987 0.283,-0.108 0.515,-0.487 0.515,-0.84 0,-0.354 0.25,-0.974 0.555,-1.378 0.305,-0.403 0.561,-1.457 0.567,-2.34 0.011,-1.4 0.662,-3.101 2.354,-6.144 0.174,-0.312 0.526,-1.078 0.783,-1.701 l 0.467,-1.135 0.117,1.842 c 0.096,1.515 -0.122,2.297 -1.229,4.403 m -72.981,-1.49 c 0.325,1.025 -0.071,1.386 -0.878,0.801 -0.354,-0.256 -1.154,-0.711 -1.778,-1.011 l -1.134,-0.545 1.77,-0.015 c 1.467,-0.012 1.813,0.12 2.02,0.77 m 2.422,8.837 c -0.217,0.222 -0.332,-0.863 -0.301,-2.836 l 0.052,-3.194 0.3,2.835 c 0.178,1.68 0.157,2.982 -0.051,3.195 m 47.187,-3.856 c -0.176,0.514 -1.762,0.428 -2.34,-0.128 -0.22,-0.21 0.197,-0.345 1.071,-0.345 0.978,0 1.379,0.149 1.269,0.473 m 12.312,10.733 c 0.403,0.402 -0.102,0.874 -0.693,0.647 -0.304,-0.116 -0.458,-0.364 -0.343,-0.55 0.245,-0.397 0.694,-0.439 1.036,-0.097 m -57.96,2.216 c 0,0.727 -0.171,1.323 -0.379,1.323 -0.208,0 -0.378,-0.596 -0.378,-1.323 0,-0.728 0.17,-1.324 0.378,-1.324 0.208,0 0.379,0.596 0.379,1.324 m 61.247,-0.881 c 0,0.711 -1.19,1.826 -1.949,1.826 -0.693,0 -1.013,-1.449 -0.445,-2.017 0.432,-0.432 2.394,-0.275 2.394,0.191 m -54.442,10.143 c 0,0.478 -0.773,0.478 -1.512,0 -0.442,-0.285 -0.338,-0.367 0.472,-0.372 0.572,-0.003 1.04,0.164 1.04,0.372 m -36.683,2.091 c -0.397,0.479 -0.299,0.937 0.567,2.648 1.16,2.294 0.918,4.056 -0.625,4.546 -0.568,0.18 -5.609,4.259 -6.737,5.452 -0.104,0.109 -0.949,0.709 -1.878,1.332 -5.673,3.808 -7.834,7.206 -5.715,8.989 0.607,0.511 1.624,2.042 2.26,3.402 1.878,4.017 3.759,4.795 6.165,2.551 0.478,-0.445 2.655,-2.19 4.839,-3.878 2.183,-1.688 4.14,-3.269 4.349,-3.514 0.209,-0.246 0.719,-0.56 1.134,-0.699 0.415,-0.14 1.753,-1.185 2.972,-2.324 3.001,-2.801 3.238,-2.781 5.58,0.482 2.782,3.876 3.534,1.788 4.672,-12.968 0.325,-4.212 -1.512,-5.411 -8.357,-5.45 -1.274,-0.007 -3.039,-0.268 -3.923,-0.58 -2.104,-0.742 -4.682,-0.737 -5.303,0.011 m 7.193,1.326 c 1.144,0.188 3.526,0.523 5.293,0.745 4.342,0.546 4.229,0.36 3.778,6.246 -0.87,11.366 -1.508,12.543 -4.269,7.873 -0.547,-0.925 -2.882,-0.617 -4.008,0.528 -1.563,1.589 -3.46,3.11 -4.642,3.722 -0.587,0.303 -1.067,0.7 -1.067,0.883 0,0.182 -0.468,0.497 -1.039,0.7 -0.976,0.346 -3.915,2.516 -7.532,5.561 -2.663,2.243 -3.335,1.874 -5.848,-3.21 -0.257,-0.519 -0.969,-1.488 -1.583,-2.152 l -1.117,-1.206 2.416,-2.515 c 1.329,-1.383 3.011,-2.918 3.739,-3.412 3.127,-2.123 4.933,-3.471 6.478,-4.836 0.906,-0.801 2.085,-1.683 2.62,-1.959 1.461,-0.756 2.549,-3.371 1.764,-4.242 -0.739,-0.82 -1.195,-2.548 -0.829,-3.141 0.275,-0.445 0.854,-0.404 5.846,0.415 m 34.972,0.18 c 0,0.543 -0.21,0.715 -0.756,0.621 -0.992,-0.171 -1.084,-0.287 -0.804,-1.016 0.323,-0.842 1.56,-0.529 1.56,0.395 m 47.07,5.954 c 0,0.641 -0.184,0.693 -1.607,0.459 -2.442,-0.403 -2.964,-0.798 -1.692,-1.282 0.578,-0.219 1.152,-0.666 1.277,-0.992 0.305,-0.794 2.022,0.748 2.022,1.815 m -7.624,-0.608 c 1.477,0.395 0.135,0.875 -2.467,0.881 -2.326,0.006 -3.556,-0.546 -1.919,-0.86 1.383,-0.266 3.435,-0.276 4.386,-0.021 m -8.444,1.616 c 0.657,0.26 0.593,0.335 -0.498,0.577 -0.69,0.153 -1.363,0.56 -1.495,0.904 -0.192,0.499 -0.287,0.434 -0.47,-0.319 -0.178,-0.737 -0.057,-1 0.55,-1.191 1.012,-0.32 1.027,-0.32 1.913,0.029 m 12.669,0.1 c 2.14,0.494 3.903,2.146 5.366,5.031 0.422,0.832 1.03,1.812 1.351,2.177 0.663,0.754 1.306,1.835 2.093,3.521 0.298,0.638 1.024,1.914 1.612,2.835 1.386,2.171 3.158,5.699 3.173,6.32 0.006,0.267 0.248,0.863 0.536,1.323 0.289,0.461 0.642,1.5 0.784,2.311 0.142,0.81 0.544,1.908 0.893,2.44 0.428,0.652 0.706,2.141 0.853,4.576 0.121,1.985 0.449,4.034 0.73,4.554 0.281,0.52 0.547,1.796 0.591,2.836 0.043,1.039 0.27,3.251 0.503,4.915 1.757,12.529 1.816,53.637 0.1,69.376 -0.49,4.489 -3.412,12.167 -6.691,17.58 -0.504,0.832 -1.091,1.908 -1.304,2.391 -0.214,0.484 -0.635,1.126 -0.936,1.427 -0.86,0.86 -4.743,6.806 -4.743,7.262 0,0.226 -1.073,1.653 -2.384,3.172 -2.944,3.409 -4.799,5.967 -4.799,6.616 0,0.271 -0.15,0.493 -0.332,0.493 -0.183,0 -0.539,0.498 -0.791,1.107 -0.252,0.609 -0.677,1.191 -0.944,1.293 -0.792,0.304 -0.942,2.497 -0.198,2.895 0.898,0.481 6.613,-5.938 7.347,-8.251 0.144,-0.454 0.425,-0.825 0.624,-0.825 0.199,0 0.523,-0.425 0.721,-0.945 0.376,-0.988 1.89,-1.355 1.89,-0.458 0,0.877 -2.335,7.221 -3.353,9.11 -0.547,1.016 -1.229,2.292 -1.516,2.836 -0.287,0.544 -0.829,1.329 -1.206,1.745 -1.115,1.232 -4.889,8.805 -4.889,9.81 0,0.51 -0.219,1.063 -0.486,1.23 -0.949,0.59 -2.123,2.451 -2.765,4.385 -0.359,1.079 -1.383,3.199 -2.277,4.71 -1.653,2.797 -3.167,5.949 -3.167,6.593 0,0.842 1.664,0.064 1.919,-0.898 0.148,-0.557 0.633,-1.403 1.078,-1.881 1.163,-1.248 3.052,-5.181 3.052,-6.355 0,-0.644 0.465,-1.451 1.308,-2.267 1.203,-1.167 3.229,-4.669 3.229,-5.583 0,-0.214 0.25,-0.597 0.556,-0.851 0.599,-0.497 2.468,-4.347 2.468,-5.084 0,-0.246 0.596,-1.024 1.323,-1.73 0.747,-0.723 1.324,-1.656 1.324,-2.14 0,-0.961 1.255,-1.82 2.154,-1.475 0.483,0.185 0.533,0.623 0.29,2.581 -0.461,3.715 -0.376,13.35 0.153,17.291 0.265,1.976 0.567,4.272 0.671,5.104 0.104,0.832 1.169,3.554 2.367,6.049 2.576,5.368 3.418,8.955 2.736,11.663 -0.237,0.944 -0.432,2.491 -0.432,3.439 0,1.127 -0.163,1.722 -0.472,1.72 -3.131,-0.015 -12.917,0.441 -15.407,0.717 -9.835,1.091 -13.079,1.346 -17.013,1.334 -5.395,-0.017 -8.432,-0.405 -10.422,-1.332 -0.845,-0.394 -1.786,-0.716 -2.09,-0.716 -2.574,0 -13.718,-6.292 -17.41,-9.83 -5.925,-5.678 -9.865,-8.696 -11.352,-8.696 -0.803,0 -2.582,-0.781 -2.582,-1.134 0,-0.141 -0.438,-0.456 -0.974,-0.7 -0.535,-0.244 -1.598,-0.941 -2.362,-1.549 -0.765,-0.609 -1.858,-1.221 -2.43,-1.36 -2.943,-0.719 -0.898,-1.264 6.496,-1.731 3.46,-0.219 6.902,-0.636 7.689,-0.931 0.784,-0.294 1.92,-0.535 2.524,-0.535 1.156,0 5.347,-1.537 9.472,-3.475 3.306,-1.552 4.493,-2.054 5.996,-2.535 0.698,-0.223 2.27,-1.089 3.493,-1.923 1.223,-0.835 2.367,-1.518 2.543,-1.518 0.177,0 1.072,-0.574 1.99,-1.276 0.992,-0.758 2.312,-1.372 3.256,-1.514 4.667,-0.7 11.456,-8.118 11.456,-12.517 0,-0.633 0.318,-1.744 0.707,-2.47 0.389,-0.726 0.832,-2.056 0.984,-2.956 0.152,-0.899 0.513,-2.089 0.802,-2.644 0.29,-0.555 0.529,-1.349 0.531,-1.765 0.003,-0.416 0.259,-1.244 0.57,-1.839 0.311,-0.596 0.57,-1.361 0.577,-1.701 0.006,-0.341 0.43,-1.47 0.941,-2.509 0.512,-1.04 0.932,-2.303 0.934,-2.806 0.002,-0.503 0.275,-1.216 0.608,-1.584 0.333,-0.367 0.605,-1.273 0.605,-2.013 0,-1.876 1.461,-3.048 4.202,-3.37 3.412,-0.401 4.679,-1.796 5.365,-5.909 0.156,-0.931 0.512,-2.043 0.792,-2.47 0.28,-0.427 0.622,-2.047 0.76,-3.6 0.138,-1.553 0.419,-3.036 0.625,-3.297 0.205,-0.261 0.463,-2.047 0.571,-3.97 0.114,-2.016 0.419,-3.836 0.721,-4.299 0.288,-0.442 0.509,-1.463 0.491,-2.268 -0.049,-2.128 0.623,-7.676 1.115,-9.216 0.232,-0.728 0.391,-3.194 0.352,-5.482 -0.061,-3.561 0.046,-4.414 0.747,-5.934 0.502,-1.087 0.818,-2.524 0.818,-3.711 0,-1.065 0.209,-2.307 0.464,-2.761 0.255,-0.455 0.481,-1.932 0.504,-3.284 0.022,-1.351 0.091,-4 0.154,-5.886 0.106,-3.195 0.044,-3.535 -0.913,-4.981 -0.691,-1.044 -0.998,-1.964 -0.939,-2.809 0.142,-2.013 -0.438,-4.914 -1.317,-6.583 -0.777,-1.475 -5.814,-6.206 -6.608,-6.206 -0.702,0 -3.995,-1.917 -6.089,-3.546 -1.144,-0.889 -2.335,-1.732 -2.647,-1.874 -0.312,-0.141 -1.503,-0.948 -2.646,-1.793 -1.144,-0.845 -3.143,-2.22 -4.443,-3.056 -1.299,-0.835 -2.363,-1.588 -2.363,-1.672 0,-0.146 0.761,-2.558 2.137,-6.773 0.339,-1.04 0.696,-3.082 0.793,-4.537 0.107,-1.597 0.382,-2.811 0.694,-3.06 0.385,-0.307 0.568,-2.044 0.718,-6.805 0.335,-10.668 1.948,-12.943 9.243,-13.035 1.158,-0.015 2.446,-0.173 2.861,-0.352 1.044,-0.448 1.368,-0.442 3.596,0.073 m -16.921,4.086 c -0.169,1.715 -0.38,2.826 -0.668,3.522 -0.156,0.377 -0.198,1.755 -0.093,3.062 0.12,1.495 0.012,2.802 -0.292,3.524 -0.349,0.831 -0.384,1.61 -0.124,2.827 0.241,1.13 0.221,2.225 -0.062,3.351 -0.97,3.869 -1.182,4.793 -1.521,6.635 -0.196,1.065 -0.611,2.426 -0.923,3.024 -0.312,0.598 -0.568,1.895 -0.57,2.883 -10e-4,0.988 -0.044,1.811 -0.096,1.829 -0.052,0.018 -1.541,0.164 -3.309,0.325 -1.767,0.161 -4.149,0.55 -5.293,0.866 -1.143,0.315 -3.198,0.669 -4.565,0.788 -1.367,0.119 -2.983,0.473 -3.591,0.788 -0.609,0.315 -1.532,0.658 -2.051,0.762 -0.52,0.103 -1.966,0.814 -3.214,1.578 -1.248,0.764 -2.616,1.579 -3.041,1.811 -2.563,1.397 -6.099,4.765 -7.772,7.402 -0.995,1.567 -2.074,3.147 -2.398,3.511 -0.324,0.364 -0.59,0.789 -0.591,0.945 -0.001,0.156 -0.238,0.735 -0.526,1.287 -0.288,0.551 -0.734,1.657 -0.992,2.457 -0.258,0.8 -0.599,1.625 -0.759,1.833 -0.159,0.208 -0.413,2.079 -0.564,4.158 -0.151,2.08 -0.508,4.241 -0.795,4.802 -0.678,1.33 -0.65,5.512 0.047,6.73 0.297,0.519 0.546,1.63 0.553,2.467 0.008,0.838 0.247,1.859 0.533,2.269 0.285,0.41 0.646,1.341 0.801,2.069 0.156,0.728 0.559,1.834 0.896,2.457 0.679,1.255 0.945,4.179 1.546,17.014 0.482,10.272 1.102,16.457 1.724,17.202 0.26,0.312 0.587,0.939 0.725,1.394 0.139,0.455 0.882,1.353 1.652,1.995 2.551,2.128 3.097,2.818 3.293,4.163 0.107,0.733 0.39,2.098 0.63,3.034 0.893,3.493 0.785,3.772 -2.039,5.284 -1.397,0.747 -3.354,1.943 -4.348,2.657 -0.994,0.714 -2.148,1.49 -2.564,1.724 -3.758,2.112 -5.246,2.811 -5.984,2.811 -0.806,0 -2.372,0.949 -3.744,2.269 -0.324,0.312 -1.138,0.992 -1.807,1.512 -0.67,0.52 -1.496,1.213 -1.836,1.541 -0.339,0.327 -1.468,1.178 -2.508,1.89 -1.039,0.712 -2.559,1.848 -3.376,2.523 -0.817,0.676 -1.686,1.229 -1.93,1.229 -0.245,0 -1.196,0.574 -2.114,1.274 -0.918,0.701 -2.216,1.395 -2.885,1.542 -0.67,0.147 -1.314,0.424 -1.433,0.616 -0.119,0.192 -0.613,0.349 -1.099,0.349 -1.068,0 -0.922,-1.023 0.686,-4.809 l 0.998,-2.352 v -19.39 c 0,-13.523 0.131,-19.789 0.432,-20.71 0.268,-0.818 0.479,-5.278 0.554,-11.718 0.238,-20.233 0.413,-24.653 1.051,-26.465 0.329,-0.936 0.601,-2.128 0.604,-2.65 0.003,-0.521 0.422,-1.729 0.93,-2.685 0.531,-0.997 0.838,-2.068 0.721,-2.516 -0.142,-0.54 0.04,-0.911 0.587,-1.204 0.436,-0.233 0.792,-0.724 0.792,-1.091 0,-0.367 0.16,-0.829 0.356,-1.026 0.195,-0.198 1.687,-2.996 3.314,-6.22 1.628,-3.223 3.816,-7.051 4.863,-8.506 1.046,-1.456 2.461,-3.628 3.143,-4.827 1.278,-2.244 2.936,-4.113 4.707,-5.305 0.912,-0.614 7.026,-7.329 11.714,-12.866 1.923,-2.272 6.709,-6.035 8.771,-6.897 0.674,-0.281 1.726,-0.932 2.337,-1.447 0.611,-0.514 1.56,-1.047 2.109,-1.185 0.55,-0.138 1.188,-0.478 1.419,-0.756 0.231,-0.278 0.907,-0.613 1.502,-0.744 0.595,-0.13 1.284,-0.481 1.532,-0.78 0.248,-0.299 0.71,-0.543 1.027,-0.543 0.317,0 1.526,-0.631 2.688,-1.402 6.143,-4.077 12.456,-6.084 12.24,-3.891 m -12.761,3.025 c -0.129,0.208 -0.479,0.378 -0.779,0.378 -0.3,0 -0.545,-0.17 -0.545,-0.378 0,-0.208 0.351,-0.378 0.779,-0.378 0.428,0 0.673,0.17 0.545,0.378 m -1.702,1.104 c 0,0.191 -0.553,0.466 -1.229,0.611 -0.675,0.144 -1.461,0.45 -1.745,0.68 -1.23,0.994 -3.075,1.345 -3.075,0.585 0,-0.578 0.284,-0.712 1.512,-0.712 1.058,0 1.513,-0.162 1.513,-0.539 0,-0.297 0.297,-0.617 0.661,-0.713 1.191,-0.311 2.363,-0.267 2.363,0.088 m 15.501,0.764 c 0,0.403 -0.17,0.839 -0.378,0.967 -0.214,0.133 -0.378,-0.185 -0.378,-0.734 0,-0.532 0.17,-0.967 0.378,-0.967 0.208,0 0.378,0.33 0.378,0.734 m 26.087,0.675 c 0,1.185 -0.181,1.048 -0.529,-0.401 -0.169,-0.703 -0.122,-0.988 0.136,-0.828 0.216,0.133 0.393,0.686 0.393,1.229 m 1.512,2.772 c 0,0.404 -0.17,0.734 -0.378,0.734 -0.208,0 -0.378,-0.435 -0.378,-0.968 0,-0.548 0.164,-0.866 0.378,-0.733 0.208,0.128 0.378,0.563 0.378,0.967 m -64.65,10.645 c 0,0.228 -0.666,1.068 -1.48,1.865 -0.814,0.798 -1.558,1.665 -1.654,1.926 -0.135,0.37 -0.281,0.375 -0.656,0.022 -0.482,-0.454 -0.054,-1.104 2.467,-3.74 0.765,-0.8 1.323,-0.831 1.323,-0.073 m 71.564,9.089 -0.378,1.227 -0.457,-1.131 c -0.431,-1.063 -0.281,-3.275 0.281,-4.159 0.465,-0.731 0.945,2.793 0.554,4.063 m -81.252,0.583 c 0.364,0.589 -0.451,1.431 -0.925,0.957 -0.24,-0.24 -0.322,-0.621 -0.182,-0.847 0.298,-0.483 0.843,-0.537 1.107,-0.11 m 42.423,3.429 c -0.189,0.304 -2.111,0.138 -2.111,-0.183 0,-0.08 0.52,-0.145 1.156,-0.145 0.637,0 1.066,0.148 0.955,0.328 m -6.324,0.765 c 0.374,0.237 0.395,0.398 0.076,0.595 -0.585,0.361 -1.643,-0.071 -1.347,-0.551 0.286,-0.462 0.595,-0.472 1.271,-0.044 m 9.461,2.688 c 1.052,0.832 2.046,1.512 2.208,1.512 0.163,0 1.629,0.723 3.259,1.607 1.63,0.884 3.374,1.829 3.875,2.1 0.501,0.271 0.911,0.654 0.911,0.851 0,0.196 0.419,0.357 0.932,0.357 0.545,0 1.1,0.314 1.336,0.756 0.223,0.416 0.65,0.756 0.95,0.756 0.299,0 1.101,0.613 1.782,1.362 0.681,0.749 1.718,1.61 2.304,1.914 0.716,0.371 1.412,1.319 2.122,2.891 0.581,1.287 1.417,2.661 1.857,3.054 1.035,0.922 1.41,2.953 0.812,4.397 -0.309,0.746 -0.342,1.288 -0.097,1.6 1.321,1.689 0.7,3.308 -1.269,3.308 -1.058,0 -1.286,0.146 -1.327,0.851 -0.028,0.467 -0.112,5.104 -0.188,10.302 -0.256,17.633 -2.044,35.883 -3.862,39.424 -0.184,0.358 -0.431,1.642 -0.55,2.852 -0.119,1.21 -0.381,2.401 -0.582,2.646 -0.201,0.246 -0.559,1.17 -0.795,2.053 l -0.43,1.607 -2.915,-0.027 c -1.604,-0.014 -4.277,-0.171 -5.94,-0.347 -1.664,-0.176 -5.832,-0.515 -9.263,-0.753 -3.564,-0.247 -7.292,-0.729 -8.696,-1.124 -1.751,-0.492 -4.385,-0.754 -9.169,-0.912 -7.469,-0.246 -7.903,-0.367 -10.765,-3.005 -2.336,-2.154 -2.454,-2.576 -2.807,-10.089 -0.46,-9.791 -0.93,-17.53 -1.09,-17.958 -0.078,-0.208 -0.014,-1.289 0.143,-2.402 0.213,-1.517 0.147,-2.233 -0.266,-2.863 -0.354,-0.54 -0.626,-2.313 -0.762,-4.971 -0.382,-7.415 -0.505,-7.961 -1.989,-8.837 l -1.303,-0.769 0.253,-4.446 c 0.166,-2.9 0.434,-4.653 0.772,-5.043 0.285,-0.328 0.518,-1.091 0.518,-1.695 0,-0.605 0.411,-1.953 0.912,-2.995 0.502,-1.043 1.282,-2.703 1.734,-3.69 0.452,-0.986 0.977,-1.889 1.166,-2.006 0.19,-0.117 0.711,-1.066 1.16,-2.108 0.93,-2.163 3.96,-4.892 6.274,-5.651 1.546,-0.508 4.047,-1.976 4.435,-2.603 0.134,-0.217 0.567,-0.394 0.964,-0.394 0.396,0 1.28,-0.234 1.963,-0.521 3.36,-1.409 9.524,-2.351 16.046,-2.45 l 3.464,-0.053 1.913,1.512 m -52.776,2.647 c -0.272,1.04 -0.487,0.946 -0.487,-0.212 0,-0.532 0.154,-0.872 0.342,-0.756 0.189,0.117 0.254,0.552 0.145,0.968 m 13.976,13.515 c -0.098,0.26 -0.315,0.473 -0.484,0.473 -0.523,0 -0.662,-0.91 -0.258,-1.693 0.445,-0.861 1.111,0.235 0.742,1.22 m -25.349,8.425 c -0.459,0.372 -0.837,0.989 -0.84,1.371 -0.003,0.383 -0.186,0.951 -0.407,1.263 -0.734,1.038 -0.128,-2.804 0.623,-3.95 l 0.698,-1.065 0.38,0.853 c 0.311,0.697 0.228,0.976 -0.454,1.528 m 102.284,12.937 c -0.066,2.547 -0.119,0.463 -0.119,-4.632 0,-5.094 0.053,-7.178 0.119,-4.631 0.065,2.547 0.065,6.715 0,9.263 m -104.631,-5.01 c 0,0.832 -0.17,1.512 -0.378,1.512 -0.418,0 -0.526,-2.372 -0.126,-2.772 0.442,-0.442 0.504,-0.285 0.504,1.26 m 88.618,0.473 c 0.161,0.846 0.222,1.613 0.313,3.979 0.026,0.682 -0.164,1.447 -0.422,1.702 -0.744,0.734 -1.664,-0.759 -1.345,-2.184 0.14,-0.624 0.236,-1.475 0.213,-1.891 -0.065,-1.166 0.31,-2.457 0.714,-2.457 0.2,0 0.437,0.383 0.527,0.851 m -63.594,3.686 c 0.115,1.656 0.15,1.7 1.347,1.645 l 1.229,-0.055 v 3.364 c 0,1.85 -0.079,3.363 -0.176,3.363 -0.479,0 -2.093,-2.949 -2.093,-3.825 0,-0.552 -0.254,-1.49 -0.565,-2.086 -0.619,-1.188 -0.806,-5.066 -0.215,-4.467 0.195,0.198 0.408,1.125 0.473,2.061 m -26.011,15.98 c -0.075,7.534 -0.279,16.336 -0.455,19.559 -0.253,4.641 -0.333,1.701 -0.384,-14.13 -0.054,-16.913 0.016,-19.923 0.455,-19.558 0.428,0.354 0.496,2.851 0.384,14.129 m 89.456,-11.087 c 0,0.611 -0.152,1.206 -0.338,1.321 -0.467,0.288 -0.862,-0.873 -0.59,-1.731 0.345,-1.087 0.928,-0.83 0.928,0.41 m -59.834,19.209 c -0.075,1.196 -0.136,0.217 -0.136,-2.174 0,-2.391 0.061,-3.37 0.136,-2.174 0.075,1.196 0.075,3.152 0,4.348 m 55.461,17.454 c -0.388,1.102 -0.894,-0.209 -0.649,-1.679 l 0.251,-1.503 0.293,1.323 c 0.161,0.728 0.209,1.565 0.105,1.859 m -1.46,4.479 c -0.468,0.468 -0.65,-0.298 -0.354,-1.49 l 0.312,-1.256 0.128,1.265 c 0.071,0.696 0.032,1.362 -0.086,1.481 m -84.148,-1.245 c 0,0.669 -0.159,0.872 -0.56,0.718 -0.424,-0.163 -0.467,-0.39 -0.176,-0.933 0.518,-0.968 0.736,-0.904 0.736,0.215 m 82.95,4.94 c -0.358,1.425 -0.969,0.574 -0.668,-0.93 0.195,-0.975 0.322,-1.118 0.582,-0.653 0.183,0.328 0.222,1.04 0.086,1.583 m -30.587,-0.228 c 3.743,0.182 7.911,0.597 9.263,0.922 1.351,0.325 4.15,0.779 6.219,1.009 5.594,0.621 6.187,1.487 3.961,5.785 -0.414,0.799 -0.856,2.245 -0.983,3.213 -0.126,0.969 -0.443,2.187 -0.703,2.707 -1.267,2.529 -5.092,14.884 -5.092,16.446 0,0.936 -0.159,1.701 -0.354,1.701 -0.194,0 -1.065,1.015 -1.935,2.255 -2.727,3.887 -3.548,4.176 -12.834,4.519 -7.613,0.281 -9.657,0.817 -12.212,3.202 -1.396,1.303 0.945,1.577 3.895,0.456 3.525,-1.339 4.972,-1.602 6.207,-1.128 1.207,0.463 0.61,1.496 -1.475,2.552 -1.14,0.577 -2.168,1.204 -2.284,1.392 -0.116,0.188 -0.927,0.534 -1.802,0.768 -0.875,0.234 -1.811,0.605 -2.079,0.825 -0.79,0.647 -4.029,2.067 -5.409,2.37 -0.702,0.154 -1.618,0.499 -2.037,0.768 -0.419,0.268 -1.613,0.611 -2.652,0.762 -1.04,0.15 -2.826,0.597 -3.97,0.994 -1.811,0.628 -3.593,0.747 -13.8,0.924 -9.986,0.174 -11.999,0.305 -13.61,0.885 -4.799,1.727 -5.23,1.787 -6.214,0.857 -2.043,-1.932 -2.768,-4.768 -1.728,-6.762 0.311,-0.596 0.566,-1.371 0.567,-1.722 0.001,-0.352 0.172,-0.745 0.38,-0.873 0.487,-0.301 0.491,-4.529 0.005,-6.222 -0.521,-1.816 2.489,-4.553 5.006,-4.553 0.283,0 1.696,-0.598 3.14,-1.328 1.443,-0.73 3.305,-1.512 4.137,-1.736 1.761,-0.475 2.9,-1.138 6.418,-3.735 1.413,-1.043 2.744,-1.897 2.957,-1.897 0.212,0 1.422,-0.953 2.689,-2.117 4.479,-4.118 5.155,-4.688 5.557,-4.688 0.223,0 1.376,-0.681 2.562,-1.512 1.186,-0.832 2.468,-1.513 2.85,-1.513 0.69,0 4.425,-1.944 5.517,-2.873 0.315,-0.267 1.961,-1.016 3.657,-1.664 3.946,-1.507 4.564,-2.302 3.765,-4.842 -1.807,-5.747 -1.271,-7.051 2.763,-6.716 1.569,0.131 5.915,0.387 9.658,0.569 m 50.765,0.704 0.859,0.661 -1.082,0.409 c -1.282,0.484 -2.578,-0.199 -2.208,-1.163 0.296,-0.771 1.362,-0.73 2.431,0.093 m -103.128,10.852 c 0,9.326 -0.076,10.776 -0.567,10.776 -0.334,0 -0.57,0.349 -0.573,0.85 -0.003,0.468 -0.171,1.106 -0.372,1.418 -0.55,0.851 -0.497,-0.563 0.081,-2.162 0.432,-1.195 0.395,-1.323 -0.607,-2.122 -1.143,-0.911 -0.903,-1.524 0.715,-1.824 0.857,-0.159 1.386,-15.045 0.588,-16.537 -0.368,-0.687 -0.194,-1.174 0.42,-1.174 0.173,0 0.315,4.849 0.315,10.775 m 76.867,-9.735 c -0.705,1.977 -1.963,2.07 -2.55,0.189 -0.246,-0.785 -0.149,-0.85 1.26,-0.85 1.291,0 1.49,0.101 1.29,0.661 m 21.259,3.903 c -0.737,1.119 -1.34,2.251 -1.34,2.516 0,0.264 -0.255,0.481 -0.567,0.481 -0.799,0 -0.704,-0.997 0.18,-1.881 0.41,-0.41 0.864,-1.214 1.007,-1.785 0.143,-0.572 0.616,-1.329 1.049,-1.684 1.318,-1.076 1.153,0.102 -0.329,2.353 m 7.115,29.944 c -0.084,17.514 -0.248,32.151 -0.366,32.527 -0.436,1.394 -1.767,0.596 -2.264,-1.358 -0.253,-0.994 -0.646,-2.033 -0.874,-2.307 -0.287,-0.346 -0.443,-7.365 -0.508,-22.939 l -0.095,-22.439 0.851,-0.851 c 0.89,-0.889 1.204,-4.995 0.908,-11.874 -0.098,-2.28 -0.035,-2.516 0.769,-2.884 1.776,-0.813 1.74,-1.545 1.579,32.125 m -3.741,-30.422 c 0.162,0.96 0.021,2.057 -0.426,3.306 -0.855,2.391 -0.889,3.505 -1.05,33.883 -0.073,13.865 -0.249,25.396 -0.391,25.625 -0.322,0.521 -1.477,-1.195 -3.173,-4.715 -2.184,-4.535 -3.405,-7.994 -3.867,-10.957 -0.42,-2.695 -0.664,-20.974 -0.283,-21.209 0.175,-0.108 0.324,-1.76 0.331,-3.671 0.009,-2.298 0.196,-3.795 0.554,-4.42 0.297,-0.52 0.546,-1.711 0.553,-2.647 0.03,-3.759 1.522,-9.315 2.696,-10.041 0.231,-0.142 0.663,-0.791 0.96,-1.442 0.297,-0.65 0.87,-1.693 1.273,-2.316 0.403,-0.624 1,-1.608 1.328,-2.187 0.737,-1.305 1.181,-1.07 1.495,0.791 m -62.559,2.152 c 0,0.916 -0.556,1.573 -0.884,1.043 -0.099,-0.16 -0.091,-0.756 0.017,-1.325 0.234,-1.22 0.867,-1.014 0.867,0.282 m -2.457,2.079 c 0.128,0.208 -0.127,0.378 -0.567,0.378 -0.441,0 -0.696,-0.17 -0.567,-0.378 0.128,-0.208 0.383,-0.378 0.567,-0.378 0.183,0 0.438,0.17 0.567,0.378 m 56.522,4.94 c 0,1.652 -0.593,2.593 -1.487,2.36 -0.565,-0.148 -0.655,-0.341 -0.383,-0.817 0.196,-0.342 0.523,-1.091 0.726,-1.662 0.493,-1.39 1.144,-1.322 1.144,0.119 m -73.515,4.857 c -0.27,0.436 -1.722,0.579 -1.722,0.169 0,-0.133 0.298,-0.462 0.662,-0.731 0.71,-0.524 1.48,-0.117 1.06,0.562 m 49.696,2.463 c 0,0.921 -0.228,1.903 -0.506,2.181 -0.279,0.279 -0.691,1.014 -0.916,1.634 l -0.409,1.127 -0.029,-1.197 c -0.017,-0.658 0.144,-1.255 0.357,-1.326 0.213,-0.071 0.482,-0.808 0.599,-1.638 0.417,-2.965 0.904,-3.385 0.904,-0.781 m 17.883,0.466 c -0.107,0.279 -0.412,0.507 -0.677,0.507 -0.265,0 -0.605,0.382 -0.756,0.85 -0.256,0.798 -0.285,0.805 -0.465,0.109 -0.106,-0.408 -0.003,-0.805 0.229,-0.882 0.232,-0.077 0.421,-0.304 0.421,-0.503 0,-0.199 0.213,-0.592 0.473,-0.872 0.543,-0.585 1.089,-0.028 0.775,0.791 m -89.717,0.246 c 0,0.978 -1.358,2.643 -1.986,2.434 -1.126,-0.375 -1.493,-1.719 -0.688,-2.524 1.108,-1.108 2.674,-1.055 2.674,0.09 m 111.154,-0.496 c 0,0.208 -0.341,0.379 -0.757,0.379 -0.415,0 -0.756,-0.171 -0.756,-0.379 0,-0.207 0.341,-0.378 0.756,-0.378 0.416,0 0.757,0.171 0.757,0.378 m -115.67,1.607 c 0.595,2.233 1.323,2.93 3.063,2.93 1.584,0 1.673,0.185 1.083,2.242 -0.46,1.603 -0.045,2.183 1.811,2.531 1.309,0.246 1.327,0.27 0.442,0.597 -0.507,0.188 -1.18,0.565 -1.497,0.838 -0.316,0.273 -1,0.588 -1.52,0.7 -1.156,0.249 -2.62,-0.219 -1.96,-0.627 2.453,-1.515 -2.026,-8.171 -5.498,-8.171 -1.876,0 -2.259,-1.019 -0.775,-2.058 1.876,-1.314 4.369,-0.791 4.851,1.018 m -1.415,3.503 c 2.52,2.448 2.678,4.898 0.342,5.326 -0.773,0.142 -1.74,0.489 -2.151,0.771 -0.41,0.283 -1.106,0.514 -1.548,0.514 -0.441,0 -1.11,0.34 -1.487,0.756 -0.376,0.416 -0.894,0.756 -1.15,0.756 -0.257,0 -2.144,1.443 -4.195,3.206 -2.051,1.763 -3.994,3.209 -4.319,3.213 -0.771,0.011 -2.46,1.827 -2.82,3.033 -0.156,0.52 -0.402,1.03 -0.548,1.134 -0.146,0.104 -0.885,1.304 -1.642,2.667 -1.679,3.024 -4.861,5.845 -5.94,5.267 -1.605,-0.858 -1.358,-3.509 0.532,-5.723 0.648,-0.76 1.519,-1.899 1.935,-2.531 0.416,-0.633 1.607,-2.176 2.646,-3.429 4.116,-4.96 4.646,-6.167 3.033,-6.902 -1.567,-0.714 0.017,-2.148 5.537,-5.012 1.733,-0.899 4.257,-2.238 5.608,-2.975 3.229,-1.762 4.412,-1.776 6.167,-0.071 m 116.966,-0.386 c 1.071,0.75 0.783,2.083 -0.387,1.787 -1.028,-0.259 -1.344,-0.726 -1.105,-1.637 0.225,-0.862 0.444,-0.884 1.492,-0.15 m -25.499,1.149 c -0.444,0.793 -0.959,0.151 -0.609,-0.76 0.155,-0.405 0.37,-0.497 0.607,-0.259 0.236,0.236 0.237,0.599 0.002,1.019 m 8.066,0.841 c -0.456,0.456 -0.674,-0.295 -0.379,-1.308 l 0.308,-1.058 0.144,1.075 c 0.079,0.59 0.046,1.172 -0.073,1.291 m -116.436,3.305 c -0.722,0.547 -1.362,0.448 -1.362,-0.211 0,-0.196 0.468,-0.35 1.04,-0.344 0.985,0.012 1.002,0.041 0.322,0.555 m 17.9,2.06 c 0.823,0.52 -1.161,1.319 -2.465,0.992 -1.079,-0.271 -0.893,-0.768 0.405,-1.081 1.208,-0.29 1.48,-0.279 2.06,0.089 m -22.098,1.491 c 0,0.29 -0.478,0.884 -1.063,1.321 l -1.064,0.794 -0.719,-0.943 -0.72,-0.942 1.027,-0.463 c 1.282,-0.577 2.539,-0.462 2.539,0.233 m 17.828,0.805 c 0.287,1.433 0.663,1.675 1.423,0.914 1.256,-1.256 1.812,2.82 0.776,5.694 -0.299,0.832 -0.547,1.877 -0.55,2.323 -0.006,0.877 -0.966,1.479 -1.355,0.85 -0.331,-0.537 0.169,-2.984 0.61,-2.984 0.492,0 0.455,-1.647 -0.063,-2.784 -0.528,-1.159 -2.732,-1.696 -3.678,-0.895 -0.617,0.522 -3.174,1.789 -3.611,1.789 -0.125,0 -0.227,-0.262 -0.227,-0.582 0,-0.788 2.808,-3.577 3.603,-3.577 0.35,0 0.971,-0.425 1.38,-0.945 0.978,-1.243 1.414,-1.193 1.692,0.197 m 119.601,0.941 c 0,0.314 -0.34,0.862 -0.756,1.218 -0.889,0.761 -1,2.3 -0.189,2.611 0.817,0.314 0.829,5.808 0.013,5.808 -0.448,0 -0.578,0.822 -0.676,4.254 -0.066,2.351 -0.156,0.603 -0.201,-3.912 -0.067,-6.785 0.02,-8.367 0.514,-9.357 0.628,-1.26 1.295,-1.58 1.295,-0.622 m -137.065,2.105 c -0.319,0.616 -1.807,2.35 -3.307,3.853 -1.5,1.504 -2.93,3.074 -3.178,3.49 -0.417,0.7 -0.452,0.671 -0.473,-0.388 -0.023,-1.216 1.26,-2.918 3.119,-4.136 0.56,-0.367 1.018,-0.834 1.018,-1.039 0,-0.991 1.277,-2.912 2.017,-3.035 1.268,-0.211 1.43,0.043 0.804,1.255 m 87.332,0.322 c 0.324,0.523 -1.101,0.856 -2.523,0.589 -1.088,-0.204 -1.361,-0.084 -2.107,0.925 -0.938,1.269 -1.633,1.453 -2.327,0.616 -0.892,-1.074 0.145,-2.049 2.345,-2.203 3.983,-0.278 4.399,-0.272 4.612,0.073 m -70.255,0.863 c 0.422,0.682 0.176,3.021 -0.411,3.917 -0.282,0.431 -0.572,1.184 -0.643,1.672 -0.085,0.58 -0.502,1.011 -1.202,1.244 -1.347,0.446 -2.136,-0.149 -1.389,-1.048 0.383,-0.462 0.396,-0.807 0.06,-1.546 -1.037,-2.275 2.335,-6.261 3.585,-4.239 m -8.247,3.556 c -0.089,1.085 -0.268,1.429 -0.687,1.317 -2.32,-0.617 -2.647,-0.539 -2.647,0.635 0,0.699 0.236,1.227 0.614,1.372 0.466,0.179 0.555,0.525 0.371,1.446 -0.37,1.846 -0.851,2.029 -1.351,0.513 -0.472,-1.428 -1.022,-1.742 -1.387,-0.79 -0.273,0.71 -1.271,0.748 -1.271,0.047 0,-1.702 2.522,-5.016 4.537,-5.962 1.617,-0.759 1.977,-0.478 1.821,1.422 m 68.183,0.901 c -0.683,0.624 -1.472,1.134 -1.754,1.134 -0.282,0 -0.572,0.179 -0.645,0.398 -0.183,0.547 -2.763,1.088 -3.378,0.708 -0.701,-0.433 -0.286,-0.723 1.416,-0.99 0.805,-0.127 1.593,-0.447 1.75,-0.711 0.157,-0.264 0.795,-0.592 1.418,-0.729 0.623,-0.136 1.132,-0.405 1.132,-0.596 0,-0.192 0.293,-0.348 0.651,-0.348 0.486,0 0.335,0.289 -0.59,1.134 m -58.311,4.92 c 0.029,1.421 1.291,4.146 2.152,4.645 0.287,0.166 0.521,0.523 0.521,0.793 0,0.27 0.383,0.675 0.851,0.901 0.802,0.387 0.781,0.411 -0.378,0.435 -0.733,0.016 -1.229,-0.161 -1.229,-0.438 0,-0.256 -0.995,-1.404 -2.21,-2.552 -2.257,-2.131 -3.392,-4.545 -2.137,-4.545 0.302,0 0.841,-0.446 1.198,-0.991 0.77,-1.174 1.186,-0.582 1.232,1.752 m -26.597,-0.099 c -0.436,0.436 -0.66,-0.247 -0.362,-1.106 l 0.304,-0.88 0.139,0.884 c 0.077,0.485 0.04,0.981 -0.081,1.102 m 17.456,-0.725 c 0.364,0.382 0.873,1.02 1.131,1.418 0.259,0.398 0.969,1.49 1.578,2.425 1.39,2.136 1.691,3.396 1.019,4.266 -1.104,1.427 -4.009,-1.282 -4.014,-3.743 -0.001,-0.599 -0.257,-1.577 -0.567,-2.173 -1.127,-2.16 -0.544,-3.657 0.853,-2.193 m -5.953,2.615 c 0.002,0.571 0.275,1.55 0.607,2.174 0.591,1.11 2.063,5.205 1.921,5.346 -0.04,0.039 -1.263,0.163 -2.719,0.275 -1.456,0.113 -3.444,0.318 -4.419,0.457 -5.139,0.733 -5.659,-1.286 -1.077,-4.179 0.795,-0.502 1.831,-1.475 2.304,-2.162 2.108,-3.068 3.379,-3.786 3.383,-1.911 m 56.617,0.894 c -0.324,0.182 -1.138,0.221 -1.808,0.087 l -1.218,-0.244 1.086,-0.458 c 1.287,-0.542 3.024,0.008 1.94,0.615 m -42.252,3.075 c 0,1.113 -1.257,0.721 -2.363,-0.736 -1.007,-1.327 -1.298,-2.377 -0.798,-2.877 0.359,-0.359 3.161,2.844 3.161,3.613 m -28.447,-1.171 c -0.174,1.811 -0.466,2.536 -0.863,2.138 -0.11,-0.109 -0.087,-1.154 0.051,-2.322 0.307,-2.611 1.065,-2.44 0.812,0.184 m 17.861,-1.547 c 0,0.428 -0.17,0.673 -0.378,0.544 -0.208,-0.128 -0.378,-0.478 -0.378,-0.778 0,-0.3 0.17,-0.545 0.378,-0.545 0.208,0 0.378,0.351 0.378,0.779 m -14.748,1.482 c 0.645,1.558 -1.076,6.435 -2.271,6.435 -0.548,0 -0.774,-2.034 -0.378,-3.4 0.211,-0.727 0.384,-1.96 0.384,-2.741 0,-1.889 1.522,-2.087 2.265,-0.294 m 57.47,-0.749 c 0,0.208 -0.425,0.379 -0.945,0.379 -0.52,0 -0.945,-0.171 -0.945,-0.379 0,-0.207 0.425,-0.378 0.945,-0.378 0.52,0 0.945,0.171 0.945,0.378 m -9.961,0.96 c 0.514,1.341 -0.937,2.102 -2.455,1.288 -0.755,-0.404 -1.63,-0.741 -1.945,-0.747 -0.442,-0.01 -0.405,-0.139 0.161,-0.567 1.001,-0.757 3.945,-0.739 4.239,0.026 m 100.564,0.843 c -0.162,0.261 -0.462,2.642 -0.667,5.291 -0.204,2.649 -0.56,6.942 -0.791,9.542 -0.23,2.599 -0.48,9.149 -0.555,14.555 -0.107,7.666 -0.26,10.093 -0.696,11.022 -1.05,2.235 -0.58,6.18 0.799,6.709 1.04,0.399 1.295,-0.454 1.23,-4.128 -0.036,-1.98 0.123,-3.754 0.377,-4.229 0.24,-0.449 0.437,-2.233 0.437,-3.964 0,-1.73 0.173,-3.74 0.384,-4.467 0.857,-2.944 0.364,-31.759 -0.518,-30.331 m -124.63,1.411 c 0.259,0.312 0.791,0.567 1.181,0.567 2.454,0 -1.175,1.687 -4.799,2.231 -1.471,0.221 -3.361,0.644 -4.2,0.94 -2.301,0.812 -4.469,0.927 -4.469,0.237 0,-0.387 0.587,-0.647 1.874,-0.831 1.18,-0.169 2.089,-0.545 2.457,-1.016 0.747,-0.957 1.346,-1.043 3.324,-0.479 1.908,0.545 2.991,0.131 3.346,-1.282 0.269,-1.073 0.618,-1.172 1.286,-0.367 m 28.734,2.458 c 0.222,0.415 0.634,0.756 0.915,0.756 0.281,0 0.789,0.425 1.13,0.945 0.34,0.52 0.445,0.945 0.232,0.945 -0.213,0 -0.387,-0.17 -0.387,-0.378 0,-0.208 -0.19,-0.378 -0.423,-0.378 -0.558,0 -3.704,-1.998 -3.722,-2.363 -0.031,-0.639 1.873,-0.24 2.255,0.473 m -50.444,1.401 c 0.725,1.036 5.786,1.171 6.545,0.175 0.413,-0.543 0.778,-0.695 1.132,-0.474 1.193,0.746 -1.398,1.668 -5.514,1.961 -5.374,0.384 -5.958,0.055 -4.177,-2.353 0.747,-1.011 0.895,-1.074 1.228,-0.519 0.209,0.347 0.562,0.891 0.786,1.21 m -5.208,0.565 c 0.665,0.665 0.559,1.043 -0.397,1.405 -1.155,0.437 -1.911,-0.181 -1.397,-1.143 0.439,-0.819 1.135,-0.921 1.794,-0.262 m 136.944,4.956 c 0.003,0.455 0.429,1.229 0.945,1.718 0.516,0.49 0.939,1.051 0.939,1.246 0,0.2 0.564,0.25 1.288,0.114 1.012,-0.19 1.457,-0.072 2.079,0.55 0.435,0.436 1.199,0.792 1.696,0.792 0.498,0 1.013,0.28 1.144,0.622 0.213,0.555 -0.057,0.598 -2.474,0.396 -3.161,-0.265 -4.109,0.091 -4.117,1.547 -0.003,0.565 -0.15,1.253 -0.326,1.531 -0.492,0.777 -0.803,-0.374 -0.803,-2.979 0,-1.267 -0.302,-3.002 -0.703,-4.033 -0.691,-1.78 -0.701,-2.967 -0.02,-2.546 0.19,0.117 0.348,0.586 0.352,1.042 m 6.043,6.992 1.323,0.645 0.189,3.289 c 0.104,1.809 0.382,3.481 0.618,3.716 0.439,0.438 0.268,1.876 -0.224,1.876 -0.665,0 -1.15,2.177 -1.15,5.158 0,3.427 -0.624,5.215 -1.968,5.641 -0.988,0.314 -4.074,-0.23 -4.13,-0.728 -0.167,-1.466 0.212,-4.316 0.657,-4.952 0.391,-0.558 0.526,-2.171 0.526,-6.285 0,-9.494 0.358,-10.214 4.159,-8.36 m -66.607,1.4 c -0.112,0.112 -0.498,0.092 -0.857,-0.046 -0.513,-0.197 -0.545,-0.317 -0.152,-0.561 0.503,-0.31 1.392,0.224 1.009,0.607 m 75.61,1.793 c -0.076,0.782 -0.323,1.229 -0.681,1.229 -0.725,0 -0.956,-1.199 -0.368,-1.908 0.749,-0.903 1.175,-0.627 1.049,0.679 m -14.388,6.333 c 0.185,1.779 -0.561,2.227 -1.6,0.962 -0.7,-0.852 -0.818,-1.238 -0.497,-1.625 0.685,-0.826 1.986,-0.415 2.097,0.663 m -17.3,-0.233 c 0,0.321 -1.8,0.462 -2.483,0.194 -0.517,-0.202 -0.26,-0.294 0.876,-0.312 0.884,-0.015 1.607,0.038 1.607,0.118 m -16.351,1.643 c -0.78,0.081 -2.056,0.081 -2.836,0 -0.78,-0.082 -0.142,-0.149 1.418,-0.149 1.559,0 2.197,0.067 1.418,0.149 m 32.63,7.415 c -0.281,0.281 -0.4,-0.222 -0.4,-1.692 0,-2.72 0.533,-3.255 0.683,-0.687 0.064,1.089 -0.063,2.159 -0.283,2.379 m 7.262,3.121 c 0.567,0.568 -0.17,1.249 -0.875,0.809 -0.514,-0.321 -0.582,-0.521 -0.25,-0.732 0.557,-0.355 0.828,-0.373 1.125,-0.077"
       inkscape:connector-curvature="0"
       style="fill:#ffffff;fill-rule:evenodd;stroke:none" />
  </g>
</svg>
