<?xml version="1.0" encoding="UTF-8" standalone="no"?>
<svg
   xmlns:dc="http://purl.org/dc/elements/1.1/"
   xmlns:cc="http://creativecommons.org/ns#"
   xmlns:rdf="http://www.w3.org/1999/02/22-rdf-syntax-ns#"
   xmlns:svg="http://www.w3.org/2000/svg"
   xmlns="http://www.w3.org/2000/svg"
   xmlns:sodipodi="http://sodipodi.sourceforge.net/DTD/sodipodi-0.dtd"
   xmlns:inkscape="http://www.inkscape.org/namespaces/inkscape"
   id="svg"
   version="1.1"
   width="400"
   height="377.93103448275866"
   viewBox="0, 0, 400,377.93103448275866"
   sodipodi:docname="A1.svg"
   inkscape:version="0.92.5 (2060ec1f9f, 2020-04-08)">
  <metadata
     id="metadata11">
    <rdf:RDF>
      <cc:Work
         rdf:about="">
        <dc:format>image/svg+xml</dc:format>
        <dc:type
           rdf:resource="http://purl.org/dc/dcmitype/StillImage" />
      </cc:Work>
    </rdf:RDF>
  </metadata>
  <defs
     id="defs9" />
  <sodipodi:namedview
     pagecolor="#ffffff"
     bordercolor="#666666"
     borderopacity="1"
     objecttolerance="10"
     gridtolerance="10"
     guidetolerance="10"
     inkscape:pageopacity="0"
     inkscape:pageshadow="2"
     inkscape:window-width="1366"
     inkscape:window-height="693"
     id="namedview7"
     showgrid="false"
     inkscape:zoom="0.88310926"
     inkscape:cx="72.867303"
     inkscape:cy="166.22765"
     inkscape:window-x="0"
     inkscape:window-y="0"
     inkscape:window-maximized="1"
     inkscape:current-layer="svg" />
  <path
     style="fill:#ffffff;stroke-width:0.79012811"
     d="m 173.13366,371.28343 c -4.8486,-0.58074 -7.81279,-1.25235 -16.19763,-3.67113 -8.6198,-2.48644 -18.64688,-10.2845 -24.01535,-18.6769 -6.71693,-10.50006 -18.82389,-47.31213 -28.12563,-85.51779 -5.793537,-23.79594 -14.21729,-70.68831 -14.225711,-79.18985 -0.005,-3.75113 0.203706,-4.23533 2.27157,-5.30472 1.251612,-0.64717 3.581947,-2.99508 5.178524,-5.21732 1.596578,-2.22248 4.008937,-4.63533 5.360797,-5.36225 8.02385,-4.31385 20.8401,-17.05615 27.76298,-27.60263 2.77789,-4.23188 7.02179,-9.89709 9.43087,-12.5897 3.67069,-4.1025 4.52551,-5.63831 5.27739,-9.48154 1.25754,-6.42794 3.96361,-14.21762 6.41056,-18.45369 1.75154,-3.032111 2.13705,-4.82817 2.45895,-11.456856 0.44106,-9.082273 1.43877,-11.600559 6.7792,-17.109975 3.1238,-3.222735 5.11857,-4.314099 14.96821,-8.188936 13.80305,-5.429909 14.06641,-5.714849 13.28643,-14.367245 -0.43383,-4.812621 -0.89739,-6.391149 -2.16868,-7.385476 -3.03767,-2.375817 -3.78731,-6.498557 -3.0199,-16.608493 1.13105,-14.900582 3.81064,-18.280108 14.86915,-18.7527033 8.80326,-0.3762984 11.29123,0.2098775 14.49712,3.4158231 4.40193,4.4020012 5.58169,8.9314102 5.26013,20.1946872 -0.252,8.827212 -0.42218,9.753638 -2.03107,11.056361 -1.43779,1.164451 -1.75606,2.227174 -1.75606,5.863985 0,6.16053 1.55978,9.476599 5.37252,11.421549 4.37786,2.233346 11.35321,4.820769 12.99796,4.821263 0.7605,2.46e-4 1.38273,0.301977 1.38273,0.670374 0,0.368645 1.48084,1.338032 3.29078,2.154087 4.60343,2.076061 9.89413,6.637816 11.93042,10.286727 1.48963,2.669398 1.7389,4.424223 1.8438,12.979334 0.11013,8.984498 0.37816,10.689198 2.91879,18.568014 1.5386,4.77163 3.05745,10.09758 3.37518,11.83587 0.39407,2.15606 1.73838,4.43583 4.22925,7.17263 2.00834,2.20643 4.86478,6.29535 6.34767,9.08647 2.65212,4.99164 5.31544,9.04599 11.16379,16.99467 3.95707,5.37806 9.66522,10.29487 14.73861,12.69489 2.28915,1.08297 4.16217,2.20989 4.1623,2.50422 1.2e-4,0.29432 2.31125,3.01063 5.13583,6.03657 3.61496,3.87237 5.13561,6.11436 5.13561,7.5719 0,1.13901 -0.16791,2.23853 -0.37291,2.44372 -0.20519,0.20494 -0.5312,5.33114 -0.72465,11.39093 -0.78779,24.68014 -8.31682,56.39638 -23.43454,98.71836 -1.69642,4.74891 -8.92963,19.70925 -12.03571,24.89298 -4.09005,6.82598 -13.22058,18.29863 -19.05031,23.93719 -13.41406,12.9739 -30.08861,21.89 -49.60652,26.52559 -7.65789,1.81877 -23.04757,2.66026 -31.07245,1.69901 z m 30.95398,-4.41508 c 7.40308,-1.92347 22.00667,-7.03437 23.56485,-8.24697 0.43458,-0.33827 2.92348,-1.76149 5.5309,-3.16298 8.87795,-4.77163 19.17948,-13.71811 28.19343,-24.48484 3.09873,-3.70125 13.28829,-19.17714 13.28829,-20.18233 0,-0.18272 1.59782,-3.66249 3.5507,-7.73091 3.35421,-6.98795 12.25374,-32.42118 16.49821,-47.14892 7.4297,-25.7799 12.98611,-59.64209 11.15476,-67.97991 -0.46734,-2.12791 -0.80776,-2.40743 -2.43402,-1.99927 -1.86613,0.46839 -8.66735,-0.82051 -10.20163,-1.93335 -0.43458,-0.31531 -2.09117,-0.80741 -3.68137,-1.09358 -3.80011,-0.68396 -8.20365,-5.47633 -8.91814,-9.70549 -0.47321,-2.80076 -1.2715,-3.64743 -8.46859,-8.9808 -15.90783,-11.78822 -22.02947,-18.24011 -27.80285,-29.30215 -4.25435,-8.1514 -5.68155,-12.02401 -6.49032,-17.61121 l -0.56293,-3.88891 -1.83952,5.0741 c -2.06064,5.68399 -4.72196,29.97747 -3.53229,32.24415 1.84361,3.5126 4.21738,14.94823 4.85698,23.39815 2.43315,32.14538 3.12119,46.9267 2.43137,52.2334 -0.89188,6.86128 -1.90722,9.00524 -4.00479,8.45659 -2.86095,-0.74815 -3.63829,4.5546 -3.43421,23.42705 0.18593,17.18825 -0.15976,20.27617 -2.96261,26.47523 -1.79347,3.96669 -4.35985,15.20725 -5.54954,24.30656 -0.79022,6.04399 -0.7462,7.05361 0.35543,8.1551 1.60239,1.60248 1.5956,4.6109 -0.0197,9.35586 -0.91219,2.67706 -1.13204,5.03756 -0.76742,8.23956 1.51621,13.31416 1.51576,13.55737 -0.0282,15.2633 -4.70307,5.19682 -12.64555,4.98965 -17.67484,-0.46124 -2.1205,-2.29829 -2.38632,-5.30151 -1.19821,-13.5386 0.46134,-3.19829 0.27406,-4.60841 -0.92154,-6.93905 l -1.50055,-2.92471 -1.79875,2.43285 c -1.76635,2.38915 -1.77512,2.50422 -0.48629,6.38448 1.42178,4.28052 1.09824,7.16597 -1.0446,9.31611 -4.10321,4.11731 -11.10797,6.30448 -15.52323,4.84744 -1.5551,-0.51334 -3.20988,-1.64766 -3.67733,-2.52125 -1.23653,-2.31039 -1.04277,-7.65165 0.50923,-14.03737 1.24483,-5.12151 1.2574,-6.0067 0.14939,-10.525 -0.76677,-3.12669 -0.95102,-5.42028 -0.50317,-6.26374 2.1395,-4.02941 0.0104,-17.16751 -5.60284,-34.58514 -3.37461,-10.47018 -3.76205,-14.30725 -2.39703,-23.73891 0.40882,-2.8247 0.52707,-8.924 0.26277,-13.55415 -0.4801,-8.41117 -0.4824,-8.41881 -2.66167,-8.85462 -1.88843,-0.37754 -2.29913,-0.98643 -3.06036,-4.53583 -2.43789,-11.36747 -2.73237,-19.53716 -1.26653,-35.13774 0.78188,-8.32153 1.24017,-16.33515 1.01842,-17.808 -0.62366,-4.14225 0.68828,-11.56798 3.63166,-20.55617 2.06573,-6.30869 2.82823,-10.28846 3.31106,-17.28258 0.7624,-11.04426 0.67375,-12.59439 -1.05012,-18.36356 -1.28168,-4.28941 -2.54067,-5.96053 -2.54067,-3.37212 0,0.64766 -2.51941,6.12399 -5.59865,12.16945 -7.06829,13.87713 -11.13476,18.25714 -26.79661,28.86264 -13.93213,9.43438 -15.51725,10.86353 -16.14911,14.5591 -0.88879,5.19855 -2.83115,8.63018 -5.4763,9.67512 -1.36043,0.53729 -3.08404,1.4963 -3.83025,2.13088 -0.7462,0.63482 -2.02905,0.97828 -2.85075,0.76346 -0.82171,-0.21481 -2.07315,-0.0667 -2.78096,0.32939 -0.81269,0.45481 -1.89739,0.39358 -2.94347,-0.16544 -1.23122,-0.65877 -2.652858,-0.64741 -5.536924,0.0445 -3.374168,0.80939 -3.829973,1.1526 -3.49397,2.63089 0.212593,0.93506 1.470674,8.4556 2.795892,16.71244 2.657398,16.55713 6.815592,37.95578 9.979882,51.35832 7.86007,33.29206 20.55921,74.38514 26.6151,86.12397 7.53474,14.60552 20.64766,22.81766 41.00417,25.67892 7.94538,1.11704 21.81748,0.19012 30.36163,-2.03113 z m 16.05864,-17.72184 c 1.90105,-1.901 1.98697,-4.6057 0.34938,-10.99784 -1.12974,-4.40966 -1.12139,-5.2104 0.10148,-9.74302 2.59111,-9.60401 2.65128,-9.28351 -1.74386,-9.28697 -4.00632,-0.002 -8.63116,-2.12273 -9.48474,-4.34718 -0.71053,-1.85162 -1.58579,-1.40001 -2.68866,1.38717 -0.55886,1.41234 -1.54601,3.19013 -2.19365,3.95064 -1.06521,1.25086 -1.02138,1.38272 0.45974,1.38272 1.31425,0 1.79492,0.7405 2.43661,3.75311 1.43511,6.73806 1.84551,13.16971 1.05909,16.59738 -0.42433,1.8494 -0.52253,3.51657 -0.21827,3.70472 0.30429,0.18765 1.87551,0.0444 3.49159,-0.32075 3.85302,-0.86913 6.06091,-0.2395 6.06091,1.72644 0,1.17605 -0.34872,1.43679 -1.38273,1.03456 -1.88095,-0.7321 -1.74564,-0.73111 -5.54149,-0.0395 -3.02666,0.55136 -3.22718,0.721 -1.97532,1.67112 2.24896,1.70668 9.39008,1.40717 11.26992,-0.4726 z m -7.57812,-19.13615 c 0.58462,-7.7445 0.80521,-8.49611 2.11039,-7.19091 0.53681,0.53679 0.63266,3.22101 0.27322,7.65115 -0.43053,5.30596 -0.81842,6.82399 -1.74361,6.82399 -1.01351,0 -1.10838,-1.07976 -0.64,-7.28423 z m -17.91936,13.91538 c 1.42107,-1.08396 2.58377,-2.18545 2.58377,-2.44791 0,-0.26272 -0.62223,0.0642 -1.38273,0.7279 -0.7605,0.66297 -3.31091,1.44964 -5.66756,1.74816 -2.35668,0.29852 -5.01542,0.93359 -5.90836,1.41162 -1.59117,0.85136 -1.59275,0.87951 -0.079,1.41062 2.30255,0.80766 7.52491,-0.6163 10.45394,-2.85039 z m -5.69547,-2.32174 c 5.39969,-0.67457 6.21384,-1.64742 5.71593,-6.82918 -0.37501,-3.90299 1.75688,-14.03465 3.37768,-16.05194 0.95551,-1.18939 -4.76657,-8.60696 -5.82391,-7.54967 -0.46057,0.46049 -2.69429,0.83729 -4.96383,0.83729 -3.99889,0 -4.15403,0.0839 -5.02043,2.70915 -0.67543,2.04642 -0.65783,3.85261 0.0719,7.38572 0.77873,3.77039 0.76241,5.58126 -0.0842,9.34055 -0.57758,2.56495 -1.20511,6.76077 -1.39453,9.324 l -0.3444,4.66053 2.09216,-1.64569 c 1.19893,-0.94323 3.92006,-1.87409 6.37348,-2.18076 z m -0.69724,-10.4329 c 0.33101,-2.06421 0.56388,-6.68646 0.51743,-10.27167 -0.0633,-4.8857 0.17458,-6.51855 0.94922,-6.51855 1.30776,0 2.32855,8.09338 1.61584,12.81118 -1.00537,6.65461 -1.35567,7.73215 -2.51357,7.73215 -0.95448,0 -1.05962,-0.69334 -0.56892,-3.75311 z m 16.15469,-6.60127 c -0.41638,-1.041 -0.77956,-1.47705 -0.80712,-0.96939 -0.0669,1.23309 0.85354,3.57236 1.24969,3.17631 0.17284,-0.17284 -0.0262,-1.16618 -0.44257,-2.20692 z m -4.86337,-0.95162 c -0.0536,-1.66889 -0.08,-1.67432 -0.73459,-0.15061 -0.93455,2.17483 -0.93455,2.94816 0,2.37038 0.43457,-0.26839 0.76514,-1.26717 0.73459,-2.21927 z m 9.25834,-15.15045 c 1.18728,-0.86816 1.39531,-2.38323 1.42692,-10.39118 0.0197,-5.15608 -0.27858,-13.46378 -0.66431,-18.46134 -0.56869,-7.36844 -0.46366,-10.13216 0.55554,-14.61737 1.29594,-5.70275 1.22161,-6.60301 -1.27213,-15.4075 -0.67696,-2.39013 -1.4629,-7.01238 -1.74648,-10.27167 -0.28361,-3.25927 -1.32453,-8.94819 -2.31317,-12.64204 l -1.79755,-6.71609 -0.96664,6.76819 c -1.12623,7.88547 -1.43826,8.52918 -4.93485,10.17882 -2.34068,1.1042 -2.64754,1.62445 -2.82468,4.78744 -0.10939,1.95161 -0.78798,5.50423 -1.50821,7.89485 -1.45695,4.83559 -1.42947,6.91289 0.18296,13.82774 1.44381,6.19165 1.41705,13.50502 -0.078,21.31815 -0.66363,3.46793 -1.42726,9.41413 -1.69695,13.21367 l -0.49037,6.90818 3.07982,3.00742 c 1.69389,1.65409 4.32266,4.82374 5.84172,7.04325 l 2.76188,4.03583 2.52726,-4.7299 c 1.38998,-2.60174 3.15273,-5.18768 3.91717,-5.74645 z m 12.17712,-1.19804 c 1.34053,-9.17067 4.30458,-21.8505 5.44868,-23.30878 2.23757,-2.85186 2.78713,-7.7472 2.79404,-24.88903 0.005,-9.77783 0.31583,-19.26728 0.69306,-21.08778 l 0.68593,-3.31014 -9.476,-0.24445 c -5.21181,-0.1358 -9.96631,-0.14815 -10.56555,-0.0272 -1.57198,0.31456 -0.57918,11.77316 1.58167,18.25542 2.01636,6.04843 2.05937,7.50942 0.40639,13.80773 -1.31736,5.01954 -1.21163,10.91463 0.43628,24.32508 0.47961,3.90299 0.46119,7.81461 -0.0521,11.06179 -1.90596,12.05811 -1.8973,12.2549 0.59901,13.62774 1.24646,0.68543 3.13343,1.16322 4.19332,1.06174 1.83292,-0.17531 1.99188,-0.62791 3.25525,-9.27068 z m -8.30884,-26.01916 c -0.71619,-1.15878 1.16901,-12.69712 2.07454,-12.69712 1.3584,0 1.60922,2.40866 0.75553,7.25486 -0.89212,5.06472 -1.88426,6.97264 -2.83007,5.44226 z m 5.69446,-24.61224 c -0.7605,-0.44297 -1.38272,-1.31211 -1.38272,-1.93162 0,-0.88272 0.43861,-0.95976 2.02675,-0.35581 1.11472,0.42371 3.42585,0.77038 5.13583,0.77038 2.23688,0 3.10908,0.3326 3.10908,1.1852 0,0.89061 -0.93309,1.17926 -3.75311,1.16123 -2.06421,-0.0247 -4.37533,-0.38641 -5.13583,-0.82938 z m -5.2069,-6.4472 c -1.28415,-1.2842 -1.14405,-7.10153 0.21531,-8.94351 0.88636,-1.20099 1.34204,-1.32667 2.09987,-0.57951 0.76356,0.75284 0.75363,1.21235 -0.0472,2.17705 -0.6643,0.80049 -0.84322,2.29705 -0.51788,4.33163 0.52388,3.27607 -0.21531,4.54916 -1.75026,3.01434 z m 7.92523,-9.09463 c 0.16791,-0.8721 0.98752,-1.38272 2.21997,-1.38272 1.23245,0 2.05199,0.51062 2.21996,1.38272 0.20816,1.08051 -0.2774,1.38273 -2.21996,1.38273 -1.94255,0 -2.42804,-0.30222 -2.21997,-1.38273 z m -32.40241,61.50506 c -0.15456,-4.32077 0.26948,-9.89389 1.0971,-14.42157 2.2429,-12.27044 2.30134,-17.00503 0.312,-25.27471 -0.97756,-4.06398 -1.74831,-8.01882 -1.7127,-8.78869 0.038,-0.82397 -0.2918,-1.17952 -0.80206,-0.86396 -0.58356,0.36049 -0.70054,-0.0864 -0.35805,-1.36569 0.27981,-1.04568 0.51361,-3.41262 0.51954,-5.25954 0.007,-2.45334 0.33007,-3.35804 1.19597,-3.35804 0.79901,0 1.20329,0.8368 1.24073,2.56792 0.0877,4.05779 1.40083,0.25357 1.46919,-4.25632 l 0.0556,-3.66398 -5.66717,-0.32025 c -4.96647,-0.28074 -5.89453,-0.10864 -7.50621,1.38421 -1.0115,0.93728 -1.83905,2.10791 -1.83905,2.60124 0,1.11187 -1.31341,1.17804 -1.97969,0.10128 -0.82904,-1.34125 0.44222,-4.01016 2.22413,-4.66942 1.52152,-0.56296 1.44759,-0.65852 -0.75894,-0.98247 l -2.44468,-0.35877 -0.12395,13.87317 c -0.0681,7.63017 -0.16371,16.00651 -0.21235,18.61393 -0.0654,3.50694 0.6437,6.92647 2.72431,13.1386 2.33115,6.96029 4.89924,17.30257 6.59644,26.56534 0.26884,1.46742 0.84053,1.77804 3.27365,1.77952 l 2.94791,0.002 -0.25178,-7.04226 z m -0.39531,-21.20852 c -0.18987,-0.32593 -0.26538,-3.61483 -0.16765,-7.30868 0.13629,-5.15288 0.4356,-6.71609 1.28633,-6.71609 1.35657,0 1.84495,4.58644 1.11481,10.46919 -0.46725,3.76521 -1.32015,5.123 -2.23339,3.55558 z m -10.35823,-26.72312 c -0.68292,-0.68297 -1.24163,-1.55087 -1.24163,-1.92865 0,-1.17261 1.86356,-1.9057 2.20907,-0.86915 0.17976,0.53951 1.17864,1.3047 2.21949,1.7005 1.04085,0.39582 1.89245,1.08397 1.89245,1.52915 0,1.26445 -3.69757,0.94988 -5.07938,-0.43185 z m 18.49746,-20.44333 c 1.63674,-0.90593 2.11817,-2.0452 2.90995,-6.88572 0.52181,-3.1899 1.49976,-8.28894 2.17322,-11.33094 0.67349,-3.04198 1.2307,-8.98227 1.23823,-13.20056 l 0.0148,-7.66993 -3.6333,3.88423 c -3.95104,4.22372 -10.3424,8.68992 -12.43607,8.68992 -2.36352,0 -1.37851,-2.0368 1.64944,-3.41064 7.2455,-3.28742 22.72927,-21.34531 28.04762,-32.71032 2.48959,-5.32003 3.32748,-6.29657 4.19635,-4.89088 0.87413,1.41457 -5.67206,13.4823 -10.83128,19.96752 l -4.71279,5.92399 -0.0197,12.24699 c -0.0173,10.01018 0.29711,13.51982 1.71396,19.21468 0.95341,3.83211 1.83984,7.08423 1.96986,7.22671 0.57979,0.63555 27.24451,1.06296 27.27567,0.43727 0.0197,-0.38296 0.34815,-3.36322 0.73126,-6.6225 0.41408,-3.52249 0.396,-9.29042 -0.0447,-14.22231 -0.4076,-4.56299 -1.08682,-15.4075 -1.50934,-24.0989 -0.80953,-16.65171 -1.4425,-21.87026 -3.50365,-28.88586 -1.94386,-6.61657 -2.15517,-6.80966 -5.72253,-5.23163 -13.69714,6.0583 -36.33639,5.87065 -48.72947,-0.40445 -1.67174,-0.84642 -3.13602,-1.42544 -3.25394,-1.28643 -0.11803,0.13828 -1.38502,3.6304 -2.81579,7.75881 -2.78254,8.0292 -2.89954,9.26574 -4.40956,46.61757 -0.47717,11.80328 0.43677,23.44458 2.04484,26.04658 0.79021,1.27852 14.36622,3.7815 20.95554,3.86347 2.65345,0.0321 5.60428,-0.41901 6.70199,-1.02667 z m -23.12956,-14.46355 c -0.68285,-1.25185 -0.0418,-7.61312 0.79549,-7.89214 1.27995,-0.42667 1.97065,2.45187 1.36413,5.68497 -0.49176,2.62125 -1.4177,3.56768 -2.15962,2.20717 z m 55.08566,-6.74719 c -3.40514,-3.55681 -7.44802,-9.28697 -7.44802,-10.55661 0,-1.67186 2.20638,-1.2479 2.77147,0.5326 0.27916,0.87975 2.43646,3.68273 4.794,6.22917 2.35754,2.54643 4.28645,5.0267 4.28645,5.51189 0,1.61037 -1.94384,0.85235 -4.4039,-1.71705 z m -12.77376,-3.19583 c -3.33269,-3.61557 -5.4218,-8.41783 -4.59699,-10.56747 0.64709,-1.68617 1.44482,-0.69234 3.13819,3.90966 0.84431,2.29433 2.57785,4.77164 4.4763,6.39682 3.46318,2.96422 3.77997,3.68546 1.61873,3.68546 -0.81378,0 -2.9001,-1.541 -4.63623,-3.42447 z m -45.47338,-25.61274 c 0.2803,-0.7605 1.37709,-2.53705 2.43733,-3.94793 1.79442,-2.38791 1.91874,-3.16619 1.79855,-11.25933 -0.10815,-7.27978 0.0647,-8.69412 1.06272,-8.69412 0.95413,0 1.23734,1.37878 1.42011,6.91362 l 0.2284,6.91362 1.48936,-2.73482 c 0.81914,-1.50421 1.70803,-4.49732 1.97532,-6.65141 0.66568,-5.36521 2.46128,-5.85188 2.46128,-0.66741 0,3.97657 -3.07508,11.09736 -6.27624,14.53343 -0.77857,0.83556 -2.07692,2.74742 -2.8852,4.24841 -1.52569,2.83286 -4.68138,3.97756 -3.71151,1.34594 z m 35.6931,-0.7242 c -0.13407,-0.94322 -0.1437,-0.90816 1.93288,-6.94276 1.90858,-5.54621 3.7318,-7.67264 3.64463,-4.25064 -0.11209,4.39706 -5.11618,14.43983 -5.57751,11.1934 z m -100.22926,-1.09729 c 0.47805,-0.89335 0.72566,-2.04891 0.55025,-2.56792 -0.17531,-0.51901 -0.91875,0.21235 -1.65181,1.62396 -0.73307,1.41236 -0.98067,2.56792 -0.55023,2.56792 0.43045,0 1.17376,-0.73063 1.65179,-1.62396 z m 193.55796,-1.58297 c 0,-1.41014 -0.32917,-2.2136 -0.79013,-1.9289 -0.43458,0.26863 -0.79013,1.3563 -0.79013,2.41705 0,1.06074 0.35555,1.92865 0.79013,1.92865 0.43456,0 0.79013,-1.08767 0.79013,-2.4168 z m -4.18317,-3.31163 c -0.18839,-0.97779 -0.34239,-0.17778 -0.34239,1.77778 0,1.95557 0.15407,2.75558 0.34239,1.77779 0.1884,-0.97778 0.1884,-2.57779 0,-3.55557 z m -185.14862,1.58026 c 0.30946,-1.28989 0.19408,-2.17286 -0.2839,-2.17286 -0.44287,0 -0.80519,1.12594 -0.80519,2.50224 0,2.87706 0.34492,2.77286 1.08909,-0.32938 z m 2.61116,0.83951 c -0.25223,-0.63012 -0.43944,-0.44296 -0.47737,0.47753 -0.0343,0.83285 0.15235,1.29952 0.41499,1.03704 0.26257,-0.26271 0.29062,-0.9442 0.0625,-1.51457 z m 179.60947,-1.82717 c 0,-1.521 -0.28444,-2.76545 -0.6321,-2.76545 -0.34765,0 -0.63211,1.24445 -0.63211,2.76545 0,1.52099 0.28446,2.76545 0.63211,2.76545 0.34766,0 0.6321,-1.24446 0.6321,-2.76545 z m -187.4434,-3.24743 c 1.1871,-0.27778 2.99034,-1.3684 4.00721,-2.42396 1.86488,-1.93557 3.8784,-2.08298 3.45086,-0.25235 -0.15728,0.67309 0.34852,0.83457 1.58026,0.50469 0.99628,-0.26691 2.47169,-0.49013 3.27871,-0.49605 0.9547,0 1.31373,-0.41086 1.02778,-1.15606 -0.56516,-1.47284 4.16482,-5.37879 16.86309,-13.92551 13.97204,-9.40425 19.82817,-15.51071 25.2841,-26.36534 5.34897,-10.64179 5.10354,-10.01661 3.82719,-9.74944 -1.21213,0.25383 -1.169,-0.34939 0.49249,-6.88893 0.66248,-2.60743 1.39868,-5.75065 1.63601,-6.98547 0.27257,-1.41779 0.81144,-2.09878 1.46304,-1.84866 0.81495,0.31259 1.14375,-2.72915 1.56587,-14.48699 0.29388,-8.185729 0.30388,-16.324048 0.0222,-18.085787 l -0.51216,-3.202734 -2.46951,1.724454 c -6.44607,4.500767 -8.42418,8.587705 -8.88107,18.348749 -0.29578,6.31979 -0.69112,7.890662 -3.39093,13.474638 -1.68088,3.47657 -3.67983,8.98772 -4.44215,12.24699 -2.03942,8.71981 -2.64449,10.03759 -6.46868,14.09045 -1.91369,2.02817 -6.12461,7.59856 -9.35759,12.37884 -6.08572,8.99833 -9.65888,13.14453 -16.8547,19.5579 l -4.21343,3.75532 2.47468,0.49508 c 5.45611,1.09111 3.78368,3.57039 -1.81672,2.6931 -5.02119,-0.78643 -8.76371,1.23457 -13.13514,7.09361 -1.732333,2.32199 -3.149674,4.37189 -3.149674,4.55584 0,0.18271 1.25097,-0.76421 2.779941,-2.10668 1.528943,-1.34248 3.751183,-2.66792 4.938303,-2.9457 z m 44.7862,-36.06144 c 0.30442,-1.41236 0.64661,-3.082 0.76039,-3.71015 0.30428,-1.68002 1.96404,-1.961 2.55089,-0.43186 0.60197,1.56865 -1.66841,6.70992 -2.96311,6.70992 -0.60407,0 -0.71899,-0.84741 -0.34817,-2.56791 z m 0.59218,-11.81242 c -1.31836,-1.31828 -1.18542,-3.00249 0.23704,-3.00249 0.65185,0 1.18518,0.35556 1.18518,0.79013 0,0.43457 1.42224,0.79013 3.16051,0.79013 2.28259,0 3.16052,0.32938 3.16052,1.18519 0,1.47853 -6.30875,1.67161 -7.74325,0.23704 z m 7.74325,-30.612031 c 0,-1.06099 3.25812,-3.205447 4.86995,-3.205447 2.39841,0 2.36377,1.4763 -0.0642,2.731867 -2.65891,1.375069 -4.80588,1.586432 -4.80588,0.47358 z m 5.77247,-14.607246 c -1.83141,-1.586429 -2.0366,-2.10174 -1.18002,-2.962981 0.85815,-0.862968 1.17556,-0.796794 1.84156,0.383954 0.44257,0.784449 1.68628,1.761738 2.76377,2.17137 1.07751,0.409632 1.73895,1.100994 1.46986,1.536306 -0.8071,1.305933 -2.54797,0.904696 -4.89517,-1.128649 z m 136.45058,91.747697 c 0,-1.43977 -3.8918,-5.01163 -6.55796,-6.01905 -1.89354,-0.71531 -2.49992,-0.56889 -4.20865,1.01531 l -1.99635,1.85137 3.81355,0.97014 c 2.09747,0.53358 4.70247,1.46692 5.7889,2.07383 2.48819,1.39038 3.16051,1.41335 3.16051,0.10865 z m -11.09214,-7.65412 c 0.51796,0 -0.2279,-0.97778 -1.65724,-2.17285 -6.44985,-5.39238 -13.07375,-13.99564 -19.84444,-25.77448 -2.77527,-4.82818 -6.06522,-9.4561 -7.5131,-10.56895 l -2.57584,-1.97976 -2.07515,2.07507 c -2.3732,2.37335 -6.58498,2.81262 -8.20847,0.85656 -1.39712,-1.68348 0.2168,-3.42447 1.88834,-2.03706 0.88348,0.7331 1.85406,0.72026 4.34834,-0.0593 2.57226,-0.80297 3.14846,-1.31951 2.89654,-2.59729 -0.17284,-0.8773 -0.52169,-3.12373 -0.77495,-4.99238 -0.25323,-1.86865 -1.58631,-6.84647 -2.96234,-11.0618 -2.24139,-6.86645 -2.50863,-8.692636 -2.56678,-17.54108 -0.0644,-9.820061 -0.0798,-9.89784 -2.64812,-13.617861 -1.42077,-2.057543 -3.36982,-4.155334 -4.33121,-4.661509 -0.96141,-0.506176 -1.92576,-1.172847 -2.14304,-1.481738 -0.21728,-0.30889 -1.51929,-1.137537 -2.89337,-1.841245 l -2.49829,-1.27976 -0.58613,6.897818 c -0.45353,5.337563 -0.2805,8.23832 0.76492,12.823782 0.74307,3.259272 1.518,7.348186 1.72209,9.086474 1.9865,16.919599 4.43385,28.891519 6.54171,32.000179 0.73662,1.08643 2.65858,4.68348 4.27099,7.99338 2.70384,5.55015 9.82166,14.02625 15.23579,18.14307 0.89065,0.67728 4.09067,3.10348 7.11116,5.3914 3.02051,2.28816 6.70549,5.10817 8.18884,6.26694 1.48336,1.15877 3.22657,2.4973 3.87381,2.97459 0.72331,0.53333 0.93441,1.29458 0.54776,1.97531 -0.34597,0.60914 0.62544,-0.22469 2.1587,-1.85556 1.53327,-1.62963 3.21156,-2.96298 3.72948,-2.96298 z m -35.16363,-34.51922 c 0.49771,-1.98297 2.43216,-4.11434 3.78639,-4.17187 1.04274,-0.0445 0.63425,2.1173 -0.5926,3.13532 -0.65185,0.541 -1.18518,1.47359 -1.18518,2.07212 0,0.59877 -0.57189,1.0884 -1.27085,1.0884 -0.98477,0 -1.15085,-0.47803 -0.73776,-2.12397 z M 241.34827,114.676 c -0.48535,-1.19508 -1.05588,-4.26225 -1.26783,-6.81585 -0.30815,-3.71286 -0.16691,-4.57064 0.7045,-4.28101 0.63322,0.20988 1.29475,2.01359 1.57892,4.30397 0.26897,2.16816 0.8912,4.69336 1.38273,5.61189 1.22075,2.281 1.12122,3.35385 -0.31109,3.35385 -0.66262,0 -1.60186,-0.97779 -2.08723,-2.17285 z m -1.40508,-32.790317 c -2.42219,-2.584213 -3.11103,-4.543237 -1.59764,-4.543237 1.31778,0 6.41788,5.482502 5.89188,6.333618 -0.80363,1.300255 -1.77847,0.893832 -4.29424,-1.790381 z M 211.74321,154.0071 c 6.16427,-1.00964 15.28392,-3.92843 16.37272,-5.24028 0.48029,-0.57877 1.34302,-6.48597 1.9172,-13.127 0.80874,-9.35462 1.53252,-13.40971 3.2129,-18.00085 1.89522,-5.1778 2.15555,-6.97781 2.06229,-14.25958 -0.0733,-5.72522 -0.52808,-9.435117 -1.45288,-11.851918 -1.00907,-2.637305 -1.37491,-6.281522 -1.46104,-14.554163 l -0.11482,-11.035868 -4.68387,-1.856801 c -2.57614,-1.020994 -6.2039,-2.579768 -8.06169,-3.463724 l -3.37776,-1.607417 -4.29208,3.240513 c -4.1197,3.110389 -4.52514,3.240513 -10.09678,3.240513 -4.64612,0 -6.61594,-0.4042 -9.86902,-2.025197 -3.44975,-1.719022 -4.33518,-1.880258 -5.85586,-1.066427 -0.98536,0.527164 -3.58182,1.631615 -5.76991,2.453842 l -3.97834,1.495318 3.7531,-0.47704 c 3.00353,-0.381978 3.75312,-0.244446 3.75312,0.693584 0,1.156798 -1.08297,1.509638 -7.70375,2.508657 -2.20341,0.332594 -3.35805,0.212347 -3.35805,-0.352595 0,-0.472842 -0.26667,-0.85877 -0.5926,-0.857782 -0.32593,7.4e-4 -0.68911,9.914132 -0.80706,22.029264 -0.21358,21.929511 -0.20519,22.056661 1.88211,28.640171 2.28394,7.20398 2.64735,12.30723 1.62976,22.88482 l -0.65326,6.79017 3.81378,1.60791 c 10.83122,4.5662 22.55158,6.02274 33.7319,4.19188 z m -21.25417,-10.23686 c -2.19241,-0.91407 -3.78024,-2.96051 -3.12266,-4.02447 0.37077,-0.59975 1.01593,-0.44692 2.04592,0.48519 0.82743,0.7489 2.7631,1.57211 4.3015,1.82939 1.53843,0.25729 2.87061,0.82322 2.96041,1.25779 0.20939,1.01384 -4.08486,1.32767 -6.18517,0.4521 z m 12.63654,-1.88224 c -0.65121,-2.59458 -0.19012,-5.48373 0.93408,-5.8536 1.28959,-0.4242 1.78226,5.97336 0.53942,7.00473 -0.72482,0.60148 -1.10893,0.30148 -1.4735,-1.15113 z m 6.74903,0.72471 c 0,-1.12989 1.63441,-2.06001 3.6202,-2.06001 1.81151,0 1.28262,2.14272 -0.65721,2.66248 -2.59096,0.69457 -2.96299,0.61877 -2.96299,-0.60247 z m -23.67656,-15.24182 c -1.72927,-2.19829 -1.86655,-4.24719 -0.31911,-4.76251 0.49134,-0.16296 1.12036,0.60692 1.39779,1.71237 0.2774,1.10543 0.85319,2.00963 1.27946,2.00963 0.4263,0 0.77509,0.71112 0.77509,1.58026 0,2.17656 -1.15272,1.97804 -3.13323,-0.53975 z m 31.57785,-1.83063 c 0,-2.28249 0.32921,-3.16051 1.18518,-3.16051 0.85597,0 1.1852,0.87802 1.1852,3.16051 0,2.28273 -0.32923,3.16051 -1.1852,3.16051 -0.85597,0 -1.18518,-0.87778 -1.18518,-3.16051 z m -15.6577,-0.50914 c 0.13753,-1.67557 0.60575,-2.95755 1.04033,-2.84891 1.17548,0.29408 0.95666,5.14621 -0.2502,5.54868 -0.76673,0.25556 -0.97453,-0.45457 -0.79013,-2.69977 z m -1.19018,-7.19461 c -0.19161,-0.32593 -0.3947,-2.99261 -0.45121,-5.92596 -0.08,-4.14991 0.14839,-5.33337 1.02906,-5.33337 0.8084,0 1.28705,1.44964 1.67509,5.07336 0.29882,2.79014 0.30614,5.45683 0.0172,5.92597 -0.60988,0.98667 -1.76413,1.11902 -2.2692,0.26 z m 9.30691,-1.04372 c -0.75239,-1.21753 0.51608,-1.90519 5.62048,-3.04767 l 4.27284,-0.95605 -0.18864,-3.69854 c -0.14494,-2.84446 0.0852,-3.69853 0.99668,-3.69853 1.74844,0 1.99003,5.35632 0.35417,7.85288 -0.81057,1.23704 -2.574,2.33384 -4.58847,2.85359 -1.79954,0.46445 -3.86423,1.01557 -4.58815,1.2247 -0.72394,0.20988 -1.56949,-0.0296 -1.87902,-0.53038 z m -21.46083,-0.81876 c -1.39288,-0.40272 -3.08177,-1.5163 -3.75311,-2.47483 -1.61196,-2.30149 -1.63561,-6.92202 -0.0353,-6.92202 0.76324,0 1.18949,0.77359 1.1973,2.17286 0.007,1.19506 0.29832,2.62396 0.64815,3.17507 0.79114,1.24643 5.2026,2.55335 8.61855,2.55335 1.76047,0 2.57312,0.37432 2.57312,1.1852 0,1.36791 -5.00991,1.53605 -9.2486,0.31037 z m -2.20547,-17.713686 c -5.76325,-1.606183 -9.87939,-3.622735 -9.87939,-4.840276 0,-1.384199 1.11511,-1.346173 3.98053,0.135808 1.277,0.660253 5.02058,1.815816 8.31901,2.56792 3.29847,0.752094 6.05824,1.722718 6.13283,2.157298 0.2084,1.21383 -4.16212,1.20345 -8.55298,-0.0247 z m 23.88974,-38.070591 c 3.42417,-2.358286 4.16024,-3.245451 3.76975,-4.543237 -0.26687,-0.886918 -0.69079,-2.942239 -0.94201,-4.567187 l -0.45679,-2.954585 -2.67703,2.350631 c -1.47238,1.292599 -3.58464,2.57804 -4.6939,2.85656 -2.83355,0.711115 -8.65941,-0.212347 -10.99725,-1.745195 l -1.96935,-1.290378 v 2.804954 c 0,1.542726 -0.33629,3.689404 -0.74731,4.770398 -1.23166,3.239526 2.3355,5.056573 10.17103,5.180525 3.71316,0.05926 4.8582,-0.324693 8.54286,-2.862486 z m -14.26746,-0.998771 c -2.40602,-2.700263 -2.72849,-4.20768 -0.81989,-3.832369 1.9293,0.379262 4.72643,4.422743 3.74121,5.407933 -0.54324,0.543214 -1.48703,0.03457 -2.92132,-1.575564 z m 10.59736,-9.146227 c 2.78197,-1.438527 5.44456,-5.461267 5.46586,-8.258073 0.0197,-2.724954 1.05172,-4.100271 2.62194,-3.497798 0.74293,0.285186 1.31957,0.123457 1.31957,-0.368151 0,-0.481237 -0.44445,-0.785931 -0.98766,-0.677288 -0.60398,0.120989 -1.01299,-0.723214 -1.05285,-2.172853 -0.15876,-5.777071 -0.36721,-6.716088 -1.49028,-6.716088 -0.65887,0 -0.98054,0.468645 -0.7443,1.084451 0.4462,1.162723 -2.14192,1.966925 -4.65872,1.447416 -1.51578,-0.312842 -3.2339,-3.751874 -2.48208,-4.968424 0.60501,-0.979019 6.45813,-0.923957 7.07019,0.06666 1.19081,1.926924 1.68843,0.468397 1.10323,-3.2336 -0.93812,-5.934356 -1.45613,-6.298062 -8.16513,-5.730898 -3.68846,0.311854 -6.76352,0.135803 -8.68156,-0.497534 -3.81461,-1.258773 -4.56316,-0.516052 -5.01904,4.981265 l -0.35377,4.26595 4.0355,-0.387656 c 5.44956,-0.523707 6.57035,0.49136 6.32766,5.730651 -0.10345,2.233099 0.0916,4.512865 0.43339,5.065955 0.9758,1.578775 -0.89228,2.994338 -2.54162,1.925938 -1.379,-0.893586 -1.42001,-1.317539 -0.50361,-5.206451 0.50208,-2.130383 0.44104,-2.172853 -3.13565,-2.172853 -3.15577,0 -3.64768,-0.219753 -3.64768,-1.626675 0,-0.894821 -0.35555,-1.40717 -0.79012,-1.138772 -0.43458,0.268643 -0.79013,1.335316 -0.79013,2.370384 0,1.035315 -0.33847,2.091371 -0.75213,2.346928 -0.44116,0.27284 -0.11456,1.952603 0.79013,4.062739 0.84823,1.979024 1.54225,4.434347 1.54225,5.456329 0,3.388908 1.47834,5.821515 4.51003,7.421525 3.63148,1.916308 7.40242,2.0689 10.57658,0.42741 z m -6.88843,-4.375334 c -3.2718,-0.948647 -4.98867,-2.929647 -3.40661,-3.930641 1.57665,-0.997784 10.80396,-0.926179 11.4311,0.08889 0.5879,0.951116 -3.18091,4.736324 -4.60899,4.628915 -0.52082,-0.0395 -2.05779,-0.393335 -3.4155,-0.786918 z m 3.25869,-7.83338 c -0.2686,-0.434571 -0.27818,-1.13013 -0.0222,-1.545688 0.64993,-1.051611 2.78678,-0.103702 2.78678,1.235316 0,1.263217 -2.03534,1.49186 -2.76544,0.310372 z"
     id="path1366"
     inkscape:connector-curvature="0" />
</svg>
