<?xml version="1.0" encoding="UTF-8" standalone="no"?>
<svg
   id="svg"
   version="1.1"
   width="400"
   height="377.93103"
   viewBox="0 0 400 377.93103"
   sodipodi:docname="A11-12.svg"
   inkscape:version="0.92.5 (2060ec1f9f, 2020-04-08)"
   xmlns:inkscape="http://www.inkscape.org/namespaces/inkscape"
   xmlns:sodipodi="http://sodipodi.sourceforge.net/DTD/sodipodi-0.dtd"
   xmlns="http://www.w3.org/2000/svg"
   xmlns:svg="http://www.w3.org/2000/svg"
   xmlns:rdf="http://www.w3.org/1999/02/22-rdf-syntax-ns#"
   xmlns:cc="http://creativecommons.org/ns#"
   xmlns:dc="http://purl.org/dc/elements/1.1/">
  <metadata
     id="metadata11">
    <rdf:RDF>
      <cc:Work
         rdf:about="">
        <dc:format>image/svg+xml</dc:format>
        <dc:type
           rdf:resource="http://purl.org/dc/dcmitype/StillImage" />
      </cc:Work>
    </rdf:RDF>
  </metadata>
  <defs
     id="defs9" />
  <sodipodi:namedview
     pagecolor="#ffffff"
     bordercolor="#666666"
     borderopacity="1"
     objecttolerance="10"
     gridtolerance="10"
     guidetolerance="10"
     inkscape:pageopacity="0"
     inkscape:pageshadow="2"
     inkscape:window-width="1366"
     inkscape:window-height="736"
     id="namedview7"
     showgrid="false"
     inkscape:zoom="0.44155464"
     inkscape:cx="34.833116"
     inkscape:cy="323.85587"
     inkscape:window-x="0"
     inkscape:window-y="0"
     inkscape:window-maximized="1"
     inkscape:current-layer="svg"
     inkscape:showpageshadow="0"
     inkscape:pagecheckerboard="0"
     inkscape:deskcolor="#d1d1d1" />
  <path
     style="fill:#ffffff;stroke-width:1.45148"
     d="m 133.80087,333.62823 c 1.91294,-0.75688 -0.27336,-1.18326 -6.41072,-1.25039 -5.12251,-0.0574 -9.04152,0.13608 -8.70889,0.42396 1.45718,1.26733 12.48188,1.87 15.11961,0.82643 z m 125.55325,-3.83372 c 1.19748,-0.44028 3.15816,-1.64956 4.35708,-2.68737 1.19889,-1.0378 5.1179,-2.09558 8.70891,-2.35079 7.16608,-0.50892 7.00071,-0.0755 4.60288,-12.03128 -0.82939,-4.13491 -2.70558,-8.23233 -4.3966,-9.60155 -2.65963,-2.15364 -2.9935,-4.33601 -3.39371,-22.182 -0.24978,-11.14193 0.12912,-19.79217 0.86699,-19.79096 0.72102,0.001 5.30432,-1.88421 10.18515,-4.19024 4.88078,-2.30605 11.25703,-4.85098 14.1694,-5.65504 5.2833,-1.45874 5.30532,-1.44574 9.7916,5.77115 2.473,3.97828 5.63094,11.19335 7.01762,16.03374 2.34744,8.19424 2.96858,9.00041 9.00814,11.69382 3.56781,1.59118 7.59199,4.2979 8.94262,6.01488 1.35066,1.71728 4.80099,4.38499 7.6674,5.9287 5.18421,2.79199 5.24405,2.79047 11.37812,-0.24795 3.39157,-1.6798 9.85633,-4.72882 14.36614,-6.77541 8.13463,-3.69161 8.20585,-3.69735 8.9842,-0.72091 0.43149,1.64986 -0.2277,4.54466 -1.46469,6.4328 -1.2371,1.88813 -1.90451,4.33116 -1.48316,5.42915 1.84124,4.79806 17.04534,3.31119 19.85678,-1.94197 0.80772,-1.50924 1.46856,-4.76963 1.46856,-7.24501 0,-2.47538 1.08405,-6.1555 2.40904,-8.17759 1.88279,-2.87363 2.12059,-4.84403 1.08861,-9.02066 -1.22453,-4.95591 -1.83422,-5.44337 -8.39486,-6.70949 -6.1639,-1.18991 -7.32745,-1.01966 -9.04029,1.32297 -1.56563,2.14093 -3.81858,2.67104 -11.06582,2.6027 -9.27148,-0.0878 -16.68818,2.43576 -19.05226,6.48116 -1.73035,2.96133 -10.06515,6.19904 -15.95705,6.19904 -7.42436,0 -15.46445,-3.80742 -15.46445,-7.32333 0,-1.61176 -0.99197,-5.3587 -2.20438,-8.32668 l -2.20439,-5.39648 3.76107,4.71731 c 2.06858,2.59452 4.45627,4.71733 5.30596,4.71733 0.84969,0 -1.395,-3.14307 -4.98823,-6.98436 -3.59324,-3.84159 -7.36368,-8.57705 -8.37878,-10.52325 l -1.84562,-3.5389 3.46281,3.04993 c 1.90456,1.67737 4.4426,3.53527 5.64008,4.12856 1.19747,0.59359 -1.08862,-1.85668 -5.08019,-5.44457 -3.99158,-3.58819 -7.6499,-6.28401 -8.12958,-5.9913 -0.47971,0.29332 -1.70954,-2.00455 -2.73295,-5.10559 -1.23519,-3.7427 -2.52797,-5.38227 -3.84517,-4.87698 -1.09139,0.41881 -1.98435,0.0393 -1.98435,-0.84095 0,-0.88147 -2.44938,-4.38045 -5.44306,-7.77572 -2.99368,-3.39496 -4.30002,-5.27644 -2.90296,-4.18087 1.39704,1.09556 2.54008,1.33416 2.54008,0.52979 0,-0.80436 -1.734,-2.59845 -3.85331,-3.98704 -3.6711,-2.40553 -3.80679,-2.40371 -2.86974,0.0393 0.81791,2.13125 0.62196,2.26309 -1.1633,0.78138 -1.18078,-0.98006 -2.90167,-1.31511 -3.82421,-0.7451 -0.92253,0.57031 -2.2475,0.13608 -2.94433,-0.96373 -1.97792,-3.1225 -1.58509,-21.22521 0.50294,-23.17504 1.11685,-1.04295 1.60903,-4.25496 1.2803,-8.35509 l -0.53409,-6.6611 3.89458,4.62841 c 2.14202,2.54584 4.05617,6.14401 4.25366,7.99647 0.19746,1.85246 0.81289,4.10255 1.3675,4.99975 0.55465,0.89751 0.30472,4.91297 -0.55533,8.92329 -1.25215,5.83859 -2.33901,7.59881 -5.45378,8.83258 -3.69481,1.46327 -3.63509,1.50621 1.19022,0.85546 4.47728,-0.60417 5.51082,-0.0938 8.70889,4.31212 4.00341,5.51382 5.3581,6.16366 6.06237,2.9084 0.40877,-1.88903 0.9733,-1.90597 4.37628,-0.13002 2.4146,1.26037 7.12729,1.87544 12.3376,1.60994 7.38499,-0.37588 7.71055,-0.2903 2.6247,0.70094 -5.73705,1.11703 -5.71558,1.12883 1.80852,1.00787 5.72371,-0.0938 8.69716,0.67796 11.97473,3.10104 4.1255,3.05023 6.04219,8.94294 2.9088,8.94294 -0.79832,0 -1.45148,-0.52828 -1.45148,-1.17419 0,-0.6456 -0.97077,-2.44182 -2.1573,-3.99158 -1.97365,-2.57759 -2.02333,-2.41581 -0.58374,1.89994 0.86545,2.59452 2.0761,4.71732 2.69039,4.71732 0.61425,0 -1.05381,4.31423 -3.70679,9.58704 -4.56531,9.07389 -4.67159,9.62695 -1.98457,10.32971 1.56147,0.40853 2.83904,1.97252 2.83904,3.47631 0,2.05627 1.0556,2.73363 4.25995,2.73363 2.34297,0 6.09868,0.65679 8.34602,1.45995 3.68254,1.3157 3.82413,1.25582 1.4335,-0.60509 -2.51917,-1.96132 -2.52755,-2.25616 -0.16631,-5.85976 1.36747,-2.08711 2.73051,-3.55039 3.02897,-3.25193 0.29845,0.29937 0.65379,4.5764 0.78966,9.50662 0.13577,4.93049 0.70391,8.22506 1.26228,7.32182 0.71872,-1.16301 1.2664,-1.06503 1.87537,0.33596 1.70525,3.92232 -0.76847,-12.71318 -3.00545,-20.2116 -2.11604,-7.09322 -2.09426,-8.63481 0.28697,-20.32076 3.91292,-19.20402 5.07819,-26.76777 4.31417,-28.00393 -0.38183,-0.61809 -1.68412,-8.19242 -2.89395,-16.83206 -3.56511,-25.45902 -6.81973,-33.76754 -14.6815,-37.48001 -3.06645,-1.44786 -8.44521,-4.8165 -11.95287,-7.48542 -3.50764,-2.66922 -7.19346,-4.85278 -8.19072,-4.85278 -2.99181,0 -3.38053,-3.31544 -1.73119,-14.764 1.21819,-8.45579 1.14525,-12.40171 -0.32632,-17.65759 -1.04226,-3.72275 -2.30002,-6.78659 -2.79501,-6.80867 -6.40523,-0.28728 -22.81104,-1.90658 -23.2506,-2.29667 -0.31811,-0.28122 -1.79303,0.88722 -3.27757,2.59877 -2.34042,2.69854 -2.42699,3.41853 -0.65134,5.41674 1.24137,1.39675 2.35281,7.03123 2.82229,14.30709 0.42591,6.60122 1.73747,13.93303 2.91454,16.29259 2.07877,4.16696 1.99672,4.41583 -2.86106,8.68107 -2.75065,2.4149 -5.52677,4.39104 -6.16917,4.39104 -3.56303,0 -6.33248,17.58804 -3.08542,19.59501 2.23141,1.37892 1.72036,18.59683 -0.72575,24.45114 -1.19747,2.86607 -2.17722,9.09535 -2.17722,13.84291 v 8.63208 l -7.21962,5.56645 c -3.97076,3.06172 -8.65818,6.59698 -10.41644,7.85615 -2.89435,2.0729 -3.16932,3.41007 -2.90559,14.12867 0.27215,11.06029 5.55129,36.05393 8.96103,42.42533 1.68632,3.15093 2.12206,10.90275 0.89421,15.90794 -0.48965,1.99578 -4.16398,6.73851 -8.16526,10.53959 -4.00126,3.80106 -7.27501,8.10532 -7.27501,9.56466 0,4.59394 11.60347,7.66413 18.86926,4.99249 z m -13.81974,-3.8933 c -2.34732,-1.71638 -2.47145,-2.37136 -0.82544,-4.35445 1.06551,-1.28396 3.06369,-2.33447 4.44044,-2.33447 1.37674,0 4.00936,-1.30633 5.85029,-2.90296 1.84094,-1.59663 4.26549,-2.90297 5.38795,-2.90297 1.12244,0 1.67158,-0.59722 1.22036,-1.3275 -0.45127,-0.72998 6e-5,-1.66587 1.00294,-2.07956 1.11301,-0.45902 0.55105,-1.1388 -1.44244,-1.7448 -1.87937,-0.57122 -3.26584,-2.15303 -3.26584,-3.72637 0,-3.98432 2.60899,-3.35535 7.41354,1.78803 3.48786,3.73365 4.60096,4.20871 6.38828,2.72517 1.80534,-1.49835 2.1645,-1.27307 2.1645,1.35653 0,1.73392 0.9707,5.03 2.15714,7.32424 2.11757,4.09499 2.07831,4.18874 -2.14181,5.11558 -2.36444,0.5192 -4.84913,0.60417 -5.52153,0.18748 -0.67243,-0.41549 -3.13775,0.4681 -5.47848,1.96373 -5.1015,3.25919 -13.53292,3.70219 -17.3499,0.91111 z m 17.72859,-24.68428 c -1.91426,-1.91414 -4.19923,-5.99643 -5.07765,-9.07177 -0.87845,-3.07502 -3.17521,-10.81656 -5.1039,-17.20309 -1.94746,-6.44852 -3.94525,-17.7979 -4.49294,-25.52463 l -0.98625,-13.91277 5.84482,-3.86789 c 9.65901,-6.39196 15.76198,-4.41402 21.65518,7.01822 1.91318,3.71157 3.01601,4.82043 3.05701,3.07443 0.0974,-4.15094 -4.99906,-11.464 -10.06952,-14.44891 -3.61779,-2.12945 -4.19037,-3.0726 -2.84762,-4.69071 1.43421,-1.72787 2.13077,-1.70972 4.75094,0.12695 1.68871,1.18296 4.48194,2.15062 6.20721,2.15062 2.78237,0 5.68053,2.72698 15.44649,14.53478 0.99947,1.20837 2.6197,3.98432 3.60047,6.1688 1.57816,3.51501 1.48366,3.97162 -0.82154,3.97162 -1.78039,0 -3.62557,-2.46298 -5.83033,-7.78237 -1.77408,-4.28005 -4.93882,-9.3421 -7.03281,-11.24899 -4.01658,-3.65713 -3.26214,-1.13638 1.13455,3.7908 1.4247,1.59663 3.28855,4.86246 4.14193,7.25741 l 1.55155,4.35444 -3.32375,-3.99158 c -1.82805,-2.19535 -3.86663,-3.99157 -4.5301,-3.99157 -1.22911,0 5.89601,10.14888 8.27308,11.78392 0.71789,0.4938 -0.55392,1.57002 -2.82622,2.39162 -2.27229,0.82161 -5.36697,1.99277 -6.87703,2.60209 -2.50066,1.00968 -2.65769,0.60207 -1.7605,-4.56885 0.5418,-3.1222 0.47095,-4.94501 -0.15724,-4.05023 -1.28139,1.82463 -12.22708,3.49715 -11.11536,1.69853 0.39026,-0.6314 0.0583,-1.14818 -0.73735,-1.14818 -1.89383,0 -1.6697,4.92536 0.60009,13.18702 1.23367,4.49052 1.51036,10.74671 0.85054,19.23214 -0.53786,6.91722 -0.60349,12.57681 -0.14575,12.57681 0.45763,0 0.81105,2.93924 0.78534,6.53166 -0.0242,3.59243 -0.18991,6.53167 -0.36466,6.53167 -0.17478,0 -1.88414,-1.56609 -3.79841,-3.48053 z m -3.42789,-40.42682 c -1.25913,-6.61483 -1.93244,-6.8256 -1.93244,-0.60478 0,2.92716 0.63685,5.3221 1.4152,5.3221 0.81317,0 1.03321,-2.00667 0.51724,-4.71732 z M 254.6505,239.4004 c 2.3248,-3.72245 2.26868,-4.3741 -0.37656,-4.3741 -1.35472,0 -2.17723,1.37104 -2.17723,3.6287 0,4.37985 0.24041,4.45001 2.55379,0.7454 z m 4.70362,-0.10587 c 0,-0.84518 -0.65317,-1.13336 -1.45148,-0.63985 -0.79832,0.4932 -1.45148,1.18507 -1.45148,1.53705 0,0.35198 0.65316,0.64016 1.45148,0.64016 0.79831,0 1.45148,-0.69186 1.45148,-1.53736 z m 113.43113,58.61118 c 0.79653,-0.95979 2.48738,-1.34624 3.75743,-0.8588 1.4477,0.55549 1.94626,0.29937 1.33633,-0.68824 -0.53508,-0.86575 -0.30178,-1.79772 0.51876,-2.07138 0.82039,-0.27216 1.64093,-2.45181 1.82339,-4.84131 0.19444,-2.54432 1.38396,-4.77537 2.87185,-5.38591 2.88715,-1.18417 3.37539,-7.02275 0.96403,-11.5284 -1.42276,-2.65833 -1.24625,-2.84188 1.81435,-1.88602 5.97046,1.86425 7.07504,6.15399 3.39937,13.20185 -1.19257,2.28668 -2.17232,6.63842 -2.17722,9.67049 -0.009,4.79021 -0.60061,5.76209 -4.51992,7.41013 -5.33145,2.24163 -12.35683,0.0726 -9.78837,-3.02241 z m -41.90509,-8.08627 c -2.14241,-2.36108 -2.02823,-2.5401 1.62095,-2.5401 2.15917,0 5.91177,-1.02691 8.33913,-2.28215 2.42735,-1.25553 5.17087,-2.00274 6.09671,-1.66104 0.92582,0.34171 2.98969,-0.66858 4.58632,-2.24497 2.90096,-2.86456 2.90073,-2.86576 -0.36288,-1.86998 -4.62094,1.40975 -4.05148,-0.16934 1.00358,-2.78413 2.47738,-1.28093 7.19903,-2.06564 11.24899,-1.86908 3.83878,0.18747 9.25284,-0.22982 12.03128,-0.9211 4.63797,-1.15664 4.88533,-1.05957 3.02014,1.18781 -1.11737,1.34655 -1.43113,2.24798 -0.69725,2.00335 0.73387,-0.24495 1.59155,0.20865 1.90598,1.00665 0.69383,1.76174 -19.02102,11.92182 -25.60976,13.19821 -2.59452,0.50258 -4.71731,1.44 -4.71731,2.08288 0,0.64289 -1.79621,1.78986 -3.99158,2.54886 -4.2694,1.47628 -9.8821,-0.79438 -14.4743,-5.85521 z m 27.90052,-3.99158 c 0.49338,-0.79832 -0.12129,-1.45148 -1.36582,-1.45148 -1.24459,0 -2.26289,0.65316 -2.26289,1.45148 0,0.79832 0.61462,1.45148 1.36582,1.45148 0.7512,0 1.76951,-0.65316 2.26289,-1.45148 z m 23.54395,-5.86368 c 0.4258,-1.62809 1.0985,-2.63596 1.49491,-2.23983 0.78525,0.78531 -0.60179,5.20055 -1.63371,5.20055 -0.34947,0 -0.28697,-1.33234 0.1388,-2.96072 z m -52.53371,-17.54177 c 0.69266,-3.15365 0.50663,-4.2332 -0.61041,-3.54284 -0.88368,0.54612 -1.6067,2.26069 -1.6067,3.81015 0,1.54945 -0.52202,2.81738 -1.16004,2.81738 -0.63802,0 -0.88047,-2.44937 -0.53883,-5.44306 l 0.6212,-5.44306 -3.08201,3.62871 -3.08204,3.62871 2.28203,-5.66622 c 2.34578,-5.82409 6.29006,-12.63032 8.08253,-13.94695 0.55694,-0.40882 1.4089,-9.06329 1.89321,-19.23154 0.48431,-10.16824 1.29085,-19.5569 1.79228,-20.86354 0.62647,-1.63262 0.27185,-2.16453 -1.13397,-1.70005 -1.46216,0.48292 -2.25266,4.16213 -2.7714,12.89854 -0.58703,9.88671 -0.93379,11.28648 -1.81435,7.32394 -1.61555,-7.27012 -1.36647,-20.84542 0.36287,-19.77646 2.40895,1.48868 1.63441,-2.03963 -1.36708,-6.22777 -1.55022,-2.16301 -3.9307,-7.52503 -5.29,-11.91576 -2.94889,-9.52566 -4.95477,-12.2874 -4.95477,-6.82196 0,5.14731 -2.27815,4.98311 -5.04294,-0.36349 -2.73716,-5.29306 -3.03294,-20.38274 -0.40013,-20.4151 1.3348,-0.0302 1.29372,-0.35199 -0.15542,-1.27005 -1.22603,-0.77683 -1.60434,-2.39917 -1.00207,-4.29699 0.93799,-2.95528 1.19843,-2.8951 8.50136,1.96131 14.31579,9.51992 14.06538,9.25866 14.06538,14.66754 0,3.02907 -0.58906,4.73395 -1.45148,4.20114 -2.20375,-1.36198 -1.73419,0.65044 0.72573,3.1104 1.93532,1.93532 2.18295,1.88331 2.22867,-0.46658 0.0415,-2.12553 0.46178,-1.9323 2.14405,0.98489 1.23888,2.14819 1.74677,5.33117 1.24492,7.80141 -0.50481,2.48506 -0.16269,4.59636 0.84583,5.21959 1.02437,0.63321 1.80255,5.69466 1.96947,12.80994 0.1518,6.46999 0.71994,10.65268 1.26258,9.29523 0.797,-1.99366 1.00616,-1.84035 1.0886,0.79802 0.0563,1.79621 -0.55116,3.26583 -1.34948,3.26583 -0.79831,0 -1.45148,0.69157 -1.45148,1.53707 0,0.84548 0.75607,1.06985 1.68016,0.49894 1.17795,-0.72816 1.40078,0 0.74555,2.45422 -0.51402,1.9211 -0.94351,4.34779 -0.95439,5.39286 -0.0116,1.07924 -0.7535,1.44664 -1.71797,0.85063 -1.16241,-0.71848 -1.38693,-0.23888 -0.71165,1.52104 0.54258,1.41398 0.24825,5.27704 -0.65399,8.5843 -0.90225,3.30727 -1.53612,10.50178 -1.40857,15.98809 0.20139,8.66595 -0.0777,9.85587 -2.12745,9.06904 -1.69951,-0.65196 -2.81933,0.31328 -4.00394,3.45181 -2.13456,5.65504 -2.95631,5.56824 -1.69398,-0.17841 z m -5.12007,-104.32503 c 0,-0.79831 -0.65317,-1.45148 -1.45149,-1.45148 -0.79831,0 -1.45148,0.65317 -1.45148,1.45148 0,0.79832 0.65317,1.45149 1.45148,1.45149 0.79832,0 1.45149,-0.65317 1.45149,-1.45149 z m -58.05931,96.43772 c 0,-2.96888 0.70542,-3.54282 4.35445,-3.54282 5.17508,0 5.38415,0.89387 1.2405,5.30457 -3.62441,3.85821 -5.59495,3.2377 -5.59495,-1.76175 z m 58.75499,-25.82853 c -1.01945,0.3913 -2.28472,0 -2.81177,-0.83913 -0.52701,-0.85274 0.006,-1.55037 1.18596,-1.55037 3.44806,0 6.73605,1.63444 6.73605,3.34839 0,1.12279 -0.47593,1.11069 -1.62835,-0.0423 -0.89559,-0.89538 -2.46244,-1.30815 -3.48189,-0.91685 z m -32.12841,-8.99496 c -2.75973,-2.10494 -4.85433,-5.00428 -4.85433,-6.71915 0,-4.84765 -7.18234,-23.40486 -10.37889,-26.81584 -1.61206,-1.72031 -3.53809,-5.82981 -4.28013,-9.13255 -1.21695,-5.41614 -0.85017,-6.95895 3.74268,-15.74163 l 5.09183,-9.73673 0.0306,6.53167 c 0.092,19.56901 12.05103,19.0876 21.13721,-0.85062 2.69725,-5.91872 5.17839,-10.76123 5.51362,-10.76123 0.33523,0 0.0409,2.44937 -0.65447,5.44306 -0.6952,2.99367 -1.26524,8.05572 -1.26676,11.24899 -0.003,6.54951 4.54783,17.77733 7.69519,18.98509 1.31852,0.5059 1.77931,1.95647 1.26086,3.96949 -0.75274,2.92233 -0.60714,3.00064 1.84949,0.99488 2.49365,-2.036 2.55587,-1.96949 0.95967,1.02632 -0.93881,1.76204 -2.84198,3.93412 -4.22923,4.82709 -2.295,1.47688 -2.27114,1.5434 0.2646,0.73874 1.56654,-0.49743 3.34095,-0.0695 4.05211,0.97885 0.97682,1.43877 1.21217,1.36741 1.03267,-0.31358 -0.58594,-5.48722 0.3786,-6.26557 2.69779,-2.17723 1.80248,3.17753 2.47333,7.78689 2.48198,17.05371 0.006,6.98466 -0.47799,12.69986 -1.07673,12.70047 -0.59874,6.1e-4 -1.08861,-0.79196 -1.08861,-1.76143 0,-1.1001 -0.93515,-0.82735 -2.48827,0.72574 -1.87205,1.87211 -4.9833,2.48839 -12.56345,2.48839 -8.56417,0 -10.80323,-0.5555 -14.92953,-3.7025 z m 3.85456,-3.5549 c 0,-0.79831 -0.69172,-1.45148 -1.53715,-1.45148 -0.84542,0 -1.13346,0.65317 -0.64008,1.45148 0.49338,0.79832 1.18511,1.45148 1.53716,1.45148 0.35205,0 0.64007,-0.65316 0.64007,-1.45148 z m 13.06333,-2.98884 c 0,-0.84519 -0.65316,-1.13337 -1.45148,-0.63986 -0.79832,0.49321 -1.45148,1.18507 -1.45148,1.53706 0,0.35198 0.65316,0.64016 1.45148,0.64016 0.79832,0 1.45148,-0.69186 1.45148,-1.53736 z m -14.71248,-3.78474 c 0.10882,-1.72968 0.68754,-3.41885 1.28628,-3.7539 0.59873,-0.33474 0.31585,-0.42636 -0.62861,-0.20259 -0.94447,0.22377 -2.1394,-1.51712 -2.65544,-3.8664 -1.22577,-5.58095 -3.5811,-5.52197 -3.1892,0.0786 0.16752,2.39345 1.07548,4.35295 2.01783,4.35446 0.94237,0.001 1.99649,1.47235 2.34245,3.26856 0.61885,3.21321 0.63221,3.21503 0.82669,0.1209 z m 13.89343,-3.81226 c -0.5451,-1.43152 -1.35669,-2.2371 -1.8036,-1.79016 -0.44689,0.44693 -9e-4,1.6181 0.99107,2.60269 1.43348,1.42275 1.60023,1.25613 0.81253,-0.81253 z m -2.08391,-6.83194 c 0,-0.79832 -0.69173,-1.45148 -1.53714,-1.45148 -0.84544,0 -1.13346,0.65316 -0.64008,1.45148 0.49338,0.79832 1.18511,1.45148 1.53715,1.45148 0.35204,0 0.64007,-0.65316 0.64007,-1.45148 z m -10.16037,-8.19303 c 0,-0.69791 -1.30633,-2.08499 -2.90296,-3.08198 -1.85204,-1.15664 -2.90297,-3.38497 -2.90297,-6.15519 0,-2.38799 -0.65316,-4.34204 -1.45148,-4.34204 -0.79831,0 -1.45148,1.57939 -1.45148,3.50986 0,1.93047 -0.43759,4.65049 -0.97241,6.04422 -0.6519,1.69884 -0.42623,2.19627 0.68474,1.50984 0.91144,-0.56336 3.30851,0.0574 5.32685,1.38012 2.01835,1.32266 3.66971,1.8334 3.66971,1.13517 z m -14.41349,20.90288 c 0.74257,-2.58909 1.42741,-5.03846 1.52187,-5.44306 0.0943,-0.40431 0.60418,1.22438 1.13274,3.61933 0.89323,4.04752 0.46115,4.78959 -3.74323,6.42945 -0.14394,0.0574 0.346,-2.01634 1.08862,-4.60572 z m 4.56074,-43.55386 c -0.82466,-0.9979 -1.95856,-4.2719 -2.51984,-7.27526 -0.87128,-4.66228 -0.67805,-5.32935 1.32161,-4.56188 1.28815,0.49411 2.34209,0.17538 2.34209,-0.7082 0,-0.88359 -0.97976,-1.60662 -2.17723,-1.60662 -2.39122,0 -2.54763,-0.64833 -1.28864,-5.34266 0.52627,-1.96222 1.62832,-2.86638 2.89961,-2.37862 1.42175,0.54582 1.77539,0.0695 1.15317,-1.55188 -0.59589,-1.55277 -0.11371,-2.33869 1.43499,-2.33869 1.28291,0 2.33255,-0.63685 2.33255,-1.4152 0,-0.79831 -1.89809,-1.03569 -4.35445,-0.54431 -2.77394,0.55459 -4.35446,0.27821 -4.35446,-0.76202 0,-0.89811 1.01831,-1.63293 2.2629,-1.63293 1.24459,0 1.89367,-0.59752 1.44244,-1.32749 -0.45126,-0.73028 6e-5,-1.65832 1.00294,-2.06262 1.00285,-0.40431 -0.29937,-0.78683 -2.89392,-0.84973 -4.41702,-0.10587 -4.71732,-0.4436 -4.71732,-5.28037 0,-3.07443 0.58767,-4.8029 1.45148,-4.26887 0.79831,0.4932 1.45148,-0.0878 1.45148,-1.29363 0,-1.20503 -0.95773,-2.72698 -2.12829,-3.38195 -3.62148,-2.02664 -1.10159,-7.66203 3.4261,-7.66203 5.41585,0 9.84702,3.52802 13.23271,10.53566 3.17076,6.56251 2.64992,10.81476 -1.69967,13.87587 -2.67594,1.8833 -2.43677,4.61813 0.40381,4.61813 0.79832,0 1.11981,-0.53675 0.71445,-1.19263 -0.40538,-0.65589 0.53581,-2.28246 2.09155,-3.6145 2.71592,-2.3254 2.82861,-2.24345 2.82861,2.05416 0,3.15304 0.80298,4.68616 2.71637,5.18662 2.61418,0.68341 2.60051,0.92381 -0.36288,6.38381 -1.69358,3.12038 -3.89568,5.67862 -4.89358,5.68528 -2.27468,0.0302 -2.38983,2.48112 -0.15059,3.22773 2.04471,0.68159 -6.99448,11.29919 -9.61942,11.29919 -1.01705,0 -2.52383,-0.81647 -3.34846,-1.81436 z m 4.04682,-6.89455 c 0,-0.79831 -0.69172,-1.45148 -1.53715,-1.45148 -0.84543,0 -1.13346,0.65317 -0.64008,1.45148 0.49339,0.79832 1.18511,1.45149 1.53716,1.45149 0.35204,0 0.64007,-0.65317 0.64007,-1.45149 z m 1.94692,-39.83896 c 0.66548,-1.73421 -0.15663,-2.25402 -3.56493,-2.25402 -2.89489,0 -4.22279,0.62866 -3.83231,1.81435 0.89376,2.71366 6.39898,3.04085 7.39724,0.43967 z m -22.23993,38.32035 c 0.94453,-2.28034 3.34577,-5.21293 5.33612,-6.51685 3.5412,-2.32055 3.59583,-2.29848 2.54698,1.01785 -1.43252,4.52923 -5.03353,9.92058 -6.62632,9.92058 -0.70648,0 -1.20718,0.48987 -1.11266,1.08861 0.48036,3.04206 -0.65966,4.95681 -1.21431,2.03934 -0.35589,-1.87211 0.12579,-5.26919 1.07019,-7.54953 z M 123.3388,328.54441 c 2.22899,-1.2274 5.24526,-1.85335 6.70282,-1.39069 3.54087,1.12369 10.29093,-1.55461 10.29093,-4.08351 0,-3.98069 -6.23213,-16.92156 -8.14902,-16.92156 -2.1733,0 -2.52084,-1.19718 -5.48153,-18.88077 -1.13717,-6.79204 -1.73225,-14.10327 -1.32242,-16.24692 0.50875,-2.66137 -0.68498,-6.53864 -3.76278,-12.22119 -5.40133,-9.97259 -5.70796,-16.16408 -1.50238,-30.33689 1.65306,-5.57098 3.68263,-12.7416 4.51009,-15.93487 2.55291,-9.85163 5.46713,-14.57379 10.06543,-16.30952 2.67072,-1.00818 4.99603,-3.2985 5.971,-5.88153 0.87827,-2.32691 3.41831,-5.45456 5.64455,-6.95079 6.86334,-4.613 8.84319,-11.26834 8.6023,-28.91747 -0.0726,-5.31273 1.0714,-9.59097 4.26924,-15.9663 2.40257,-4.78989 4.37078,-10.0872 4.37377,-11.77152 0.006,-2.85247 0.37024,-2.75268 5.31603,1.45148 2.92079,2.48264 6.83007,6.14703 8.68724,8.14281 1.85717,1.9958 8.93835,9.42798 15.73594,16.51575 9.35037,9.74974 12.35925,13.85229 12.35925,16.85232 0,7.28403 1.82286,17.37546 3.00649,16.64397 0.64324,-0.39734 1.76708,0.34504 2.49738,1.64985 2.08331,3.72276 7,0.24797 7.95235,-5.62177 0.78262,-4.82255 -2.67955,-17.79366 -5.77485,-21.63556 -0.84482,-1.04869 -3.57708,-5.82558 -6.07169,-10.61548 -2.49462,-4.78989 -8.61278,-13.32975 -13.59593,-18.97752 -4.98314,-5.64748 -10.21327,-12.17916 -11.62253,-14.51483 -9.24362,-15.31888 -17.38296,-23.807949 -22.85076,-23.831835 -1.20415,0 -6.34754,-2.726361 -11.42979,-6.047235 l -9.24047,-6.037561 0.98593,-12.150721 c 0.87213,-10.749139 0.62276,-12.877979 -2.16135,-18.452581 l -3.14721,-6.301854 -11.71108,-0.03023 c -7.78481,0 -12.35248,0.61688 -13.6242,1.888742 -2.15121,2.151218 -2.58469,6.474822 -0.6491,6.474822 0.69519,0 1.70706,3.915979 2.24855,8.702244 0.54152,4.786561 1.93223,10.970479 3.09045,13.742504 2.78086,6.655663 2.69165,7.303382 -1.25287,9.100797 -2.26021,1.02964 -4.20624,1.055954 -5.94985,0.08172 -1.42507,-0.797403 -4.46079,-1.076216 -6.746023,-0.619002 -3.09684,0.619311 -6.47942,-0.478979 -13.28232,-4.312405 -5.02003,-2.828584 -10.43367,-6.269502 -12.0303,-7.645692 -1.59663,-1.376485 -8.78148,-3.652597 -15.96632,-5.058119 -9.64701,-1.887226 -13.89495,-3.44061 -16.24326,-5.939878 -1.74895,-1.861224 -2.7287,-3.866992 -2.17723,-4.456657 0.55151,-0.589665 -0.40424,-0.214698 -2.12382,0.831881 -2.54527,1.550063 -4.63253,1.567299 -11.22709,0.09072 -4.45534,-0.996987 -8.86452,-1.340807 -9.79822,-0.76354 -1.05964,0.65468 -1.30841,0.419418 -0.66199,-0.626557 0.61576,-0.996382 0.10703,-1.675858 -1.25487,-1.675858 -1.71843,0 -2.06307,0.90627 -1.37978,3.628707 0.50091,1.995788 0.29846,3.628707 -0.44997,3.628707 -0.74838,0 -2.81672,3.108595 -4.5962605,6.908152 -2.8414,6.06629 -3.04769,7.746077 -1.69346,13.789086 1.05151,4.691911 1.08033,8.941423 0.0907,13.357863 -1.03571,4.621464 -0.97072,7.53198 0.22679,10.16038 1.53933,3.37832 2.50053,3.70461 11.6057205,3.93745 19.88087,0.50862 22.43666,1.32327 38.36513,12.22843 7.99484,5.47331 11.57724,6.97861 18.66883,7.84377 4.82654,0.58905 9.23688,0.80768 9.80074,0.48623 1.70906,-0.97461 -0.46209,-4.84613 -2.71763,-4.84613 -1.15919,0 -1.70392,0.65317 -1.21054,1.45148 0.49339,0.79832 -0.48636,1.45149 -2.17721,1.45149 -1.69087,0 -2.74367,-0.53494 -2.33956,-1.18871 0.40412,-0.65408 -1.20588,-0.90415 -3.57775,-0.55609 -3.33337,0.48927 -6.56309,-0.87695 -14.22495,-6.01761 -5.45186,-3.65774 -13.96484,-8.40802 -18.91775,-10.55592 -4.95292,-2.14788 -8.47796,-4.29366 -7.8335,-4.76842 0.64449,-0.47444 1.36113,-2.16906 1.59252,-3.76569 0.23132,-1.596629 1.15765,-4.371377 2.05838,-6.166377 1.45235,-2.894188 0.9763,-3.879694 -4.20728,-8.708892 -3.32517,-3.098004 -6.63463,-7.948376 -7.67676,-11.251404 -2.00413,-6.351757 -4.39304,-9.882781 -4.36997,-6.459106 0.0242,3.801986 6.781,16.547503 10.66725,20.126619 l 3.80824,3.506843 -4.49277,2.732413 c -4.44549,2.703389 -4.66271,3.799867 -2.02312,10.211484 1.15807,2.81315 -2.20523,3.33086 -10.65603,1.64078 -4.24078,-0.84821 -4.37498,-1.07289 -2.35865,-3.95166 2.40909,-3.439412 2.76353,-9.330307 0.75262,-12.50936 -0.97657,-1.544017 -1.30564,-0.881471 -1.21124,2.438799 0.15483,5.4482 -3.02005,13.758541 -4.8293305,12.640281 -0.70565,-0.43603 -1.20572,-3.20383 -1.11129,-6.150337 0.16935,-5.281286 0.18568,-5.295496 1.15218,-1.003044 l 0.9804505,4.354441 1.1092,-4.216847 c 0.62466,-2.374389 0.51434,-4.593941 -0.2525,-5.080193 -0.74896,-0.474752 -1.7433705,-5.762089 -2.2098505,-11.749437 -0.46646,-5.987375 -0.3634,-9.301593 0.22891,-7.365068 1.3797205,4.510478 4.6257605,5.6892 4.6257605,1.680083 0,-1.663148 0.78676,-2.860628 1.74837,-2.661053 1.69249,0.351381 1.90486,-1.100705 1.16766,-7.983144 -0.27366,-2.556132 -0.49408,-2.713667 -1.01362,-0.725747 -0.36508,1.397055 -1.22119,2.540096 -1.90241,2.540096 -0.68123,0 -1.53733,1.143041 -1.90242,2.540097 -0.53505,2.047498 -0.69646,1.950428 -0.83217,-0.50077 -0.19626,-3.546147 4.734,-8.574931 7.02124,-7.161252 0.86166,0.532519 1.19085,1.576074 0.73155,2.319359 -0.4593,0.742978 -0.14333,1.351084 0.70206,1.351084 0.84543,0 1.54677,-1.143041 1.55856,-2.540096 0.0152,-1.853665 0.51231,-1.559437 1.83819,1.088614 3.14977,6.291267 23.54495,11.161593 22.42326,5.354766 -0.69054,-3.574889 23.37513,0.360747 28.93149,4.731228 2.08173,1.637747 3.207,2.977948 2.5006,2.978552 -0.70638,6.16e-4 2.96124,2.078951 8.15029,4.618739 6.50666,3.184488 11.23647,4.531049 15.240573,4.339323 3.2574,-0.157239 6.98592,0.641989 8.4941,1.818294 2.57732,2.010302 2.58612,2.40371 0.2138,9.546524 -1.79102,5.392258 -3.06094,7.225058 -4.59745,6.635388 -1.5803,-0.6063 -1.88818,-0.0755 -1.20446,2.07924 1.05299,3.31785 -1.02777,3.8543 -3.481483,0.89751 -0.91122,-1.09799 -4.63379,-2.82979 -8.27241,-3.84855 -4.84775,-1.35713 -8.04037,-3.566713 -11.94716,-8.268608 -4.57795,-5.509282 -17.4868,-13.464609 -21.84881,-13.464609 -0.65485,0 -3.96209,-2.007591 -7.34939,-4.461204 -3.38732,-2.453909 -6.45817,-4.162117 -6.82415,-3.795922 -1.4683,1.468108 10.49044,9.628163 18.26516,12.463082 7.41815,2.704596 10.31023,4.918109 19.32785,14.791821 1.40122,1.53434 5.57287,3.59877 9.27035,4.58759 4.01023,1.07258 7.60032,3.13763 8.89789,5.11799 3.020863,4.61057 1.251963,5.61633 -3.4175,1.94317 -2.32748,-1.83068 -6.00492,-3.06837 -9.11739,-3.06837 -2.8691,0 -9.47598,-1.53374 -14.68196,-3.40796 -5.20599,-1.87454 -14.36417,-4.5767 -20.35154,-6.004901 -5.98736,-1.4282 -11.86587,-2.930177 -13.06334,-3.337205 -1.52433,-0.518603 -1.73807,-0.260053 -0.71277,0.865141 0.80545,0.882988 5.70421,2.650478 10.88612,3.927775 15.3193,3.77598 29.01668,8.12497 29.01668,9.21299 0,0.55761 1.7962,1.16209 3.99158,1.34322 2.19537,0.18143 4.20929,0.97643 4.4754,1.76778 0.2661,0.79166 1.4477,1.43909 2.62577,1.43909 1.17805,0 1.73823,-0.65317 1.24485,-1.45149 -1.33288,-2.15666 -0.0116,-1.78834 5.72295,1.59482 5.890463,3.47539 6.674953,4.87729 1.89734,3.39043 -3.15162,-0.98096 -3.177,-0.91686 -0.72575,1.83068 3.579613,4.01244 3.165693,5.80139 -0.57406,2.48082 -3.09257,-2.74572 -3.10257,-2.743 -1.44368,0.42003 0.91876,1.75175 2.27203,3.55674 3.00723,4.01093 1.37845,0.85214 0.0326,7.27918 -2.45542,11.72495 -1.17319,2.09618 -1.82633,1.69975 -4.60483,-2.79591 -1.78076,-2.88149 -3.83767,-5.23895 -4.57088,-5.23895 -2.07504,0 -1.62009,1.26884 2.29562,6.40255 4.13319,5.41917 4.55263,8.44157 1.52067,10.95779 -1.76808,1.4675 -0.70917,2.91355 6.56666,8.96865 4.771053,3.97071 8.440553,7.6723 8.154403,8.22567 -8.886763,17.19372 -13.275173,37.2263 -11.826323,53.98577 0.58664,6.78569 0.95843,14.81421 0.8262,17.84085 -0.13215,3.02694 0.72081,7.59912 1.89563,10.16037 1.17486,2.56157 3.22994,8.57616 4.566883,13.36605 2.33628,8.37021 7.0321,20.59532 11.95076,31.11252 2.84499,6.08354 3.19507,16.86895 0.71775,22.11516 -1.00697,2.13217 -3.83642,5.30517 -6.28766,7.05058 -3.0337,2.16029 -4.3153,4.16666 -4.01352,6.2831 0.38468,2.69825 1.50018,3.15486 8.42656,3.44909 5.03813,0.2147 9.47821,-0.48413 12.03587,-1.89267 z m -16.14544,-1.15211 c -3.32892,-1.8467 -3.25314,-1.95617 4.66829,-6.75726 8.54658,-5.17967 10.92099,-8.26528 7.39994,-9.61636 -2.75937,-1.05899 -2.82041,-6.32152 -0.0732,-6.32152 1.14369,0 2.49631,1.31329 3.00585,2.91869 1.21781,3.83705 9.39002,8.20269 10.8706,5.80714 0.65428,-1.05868 1.90346,0.40703 3.28501,3.8546 1.22611,3.0596 1.93211,6.05298 1.5689,6.65172 -0.36321,0.59874 -3.75701,1.08861 -7.54178,1.08861 -3.78481,0 -7.50196,0.59783 -8.26037,1.32841 -1.20101,1.15725 -5.35143,2.29969 -10.0878,2.77687 -0.79832,0.0816 -2.97421,-0.69853 -4.83531,-1.7309 z m 13.66987,-24.14662 c -1.07736,0 -2.91672,-2.77597 -4.08746,-6.16881 -1.1708,-3.39283 -4.48696,-12.0473 -7.36933,-19.23214 -5.10405,-12.72285 -10.497333,-28.38163 -12.197543,-35.41435 -0.58038,-2.4004 -0.32567,-3.16243 0.82019,-2.45422 0.91406,0.56486 1.66194,0.37375 1.66194,-0.42457 0,-0.79831 -0.65317,-1.85517 -1.45148,-2.34837 -1.84867,-1.14274 -1.88796,-10.26138 -0.059,-13.67902 0.7659,-1.43122 3.113943,-3.73 5.217873,-5.10831 3.69432,-2.42064 3.94488,-2.39434 7.31634,0.77322 1.92008,1.80376 3.49107,4.83706 3.49107,6.74093 0,1.93803 0.6388,3.06655 1.45148,2.56428 0.79831,-0.4935 1.45148,0.44784 1.45148,2.09135 0,1.64379 -0.48987,2.99217 -1.08861,2.99639 -0.59874,0.003 -1.23596,2.77991 -1.41605,6.16881 -0.18023,3.38861 -0.64403,7.79416 -1.03103,9.78995 -0.38694,1.99579 -0.35053,2.8183 0.0811,1.82796 0.4362,-1.00091 2.5713,1.57697 4.8087,5.80593 3.79614,7.17547 4.99945,14.10418 6.42574,36.9992 0.11191,1.79621 0.76415,3.26584 1.44943,3.26584 0.68528,0 0.83611,1.63292 0.3352,3.6287 -0.50091,1.9958 -0.30629,3.62871 0.43252,3.62871 0.7388,0 0.97868,1.39403 0.53314,3.09771 -0.7819,2.99005 -0.87975,2.96465 -2.81343,-0.72574 -1.10191,-2.10284 -2.88488,-3.82345 -3.9622,-3.82345 z m -7.52639,-40.13592 c -0.5798,-3.0723 -1.05692,-6.40225 -1.06025,-7.40014 -0.009,-2.51409 -1.93715,-2.27672 -2.95008,0.36287 -0.45951,1.19748 -0.2029,2.17723 0.57044,2.17723 0.77327,0 1.40595,1.92079 1.40595,4.26856 0,2.34808 0.69483,4.69827 1.54406,5.22322 1.05439,0.65166 1.20975,-0.81706 0.48988,-4.63174 z m -3.48543,-29.44967 c 0,-1.64381 -0.65316,-2.98854 -1.45148,-2.98854 -0.79831,0 -1.45148,0.94105 -1.45148,2.09135 0,1.15059 0.65317,2.49533 1.45148,2.98884 0.79832,0.4932 1.45148,-0.44785 1.45148,-2.09165 z m 6.63648,-13.31857 c 0.93766,-1.5171 -9.22986,-7.45064 -10.94784,-6.38863 -0.86255,0.53311 -1.14228,-0.16935 -0.68271,-1.71245 0.73436,-2.46662 0.67152,-2.4642 -1.10521,0.0453 -1.03615,1.46389 -3.43261,4.72972 -5.325523,7.25741 l -3.44165,4.59607 0.79992,-4.35445 c 0.43994,-2.39495 1.2832,-5.60484 1.87395,-7.13283 0.75102,-1.94256 0.56333,-2.46238 -0.6241,-1.72847 -3.95485,2.44423 -0.82233,-17.77401 5.096753,-32.89634 l 3.84565,-9.82503 3.38864,3.18359 c 1.86374,1.75085 3.38861,2.69038 3.38861,2.08771 0,-2.49564 -10.5548,-16.75766 -12.968493,-17.52394 -1.43824,-0.4563 -3.64337,-1.96615 -4.90026,-3.35503 -2.09359,-2.31361 -1.94076,-3.23802 1.82187,-11.0231 2.25896,-4.67378 4.519353,-11.60491 5.023113,-15.40265 l 0.91594,-6.90453 5.82204,2.00608 c 7.64936,2.63534 16.0091,8.07568 27.19051,17.69508 6.89358,5.93051 8.74065,8.29401 7.5772,9.6956 -2.08327,2.51045 -0.22529,13.39356 2.46262,14.42502 2.11411,0.81101 1.93326,-2.63565 -0.60391,-11.50966 -0.7268,-2.54191 -0.53822,-2.65198 1.55983,-0.9108 3.29351,2.73332 2.99852,-0.10883 -0.46882,-4.51622 -1.57048,-1.99671 -2.44137,-4.04421 -1.93532,-4.5504 0.50606,-0.50591 0.12973,-0.91989 -0.83663,-0.91989 -0.9662,0 -3.52444,-1.66315 -5.68497,-3.69583 -6.37637,-5.99855 -22.77282,-16.34824 -28.05954,-17.71111 -5.967,-1.53828 -7.08348,-5.82257 -3.02599,-11.61186 1.53963,-2.19689 3.92351,-7.42313 5.29746,-11.614284 1.37398,-4.191154 2.64349,-7.62029 2.82114,-7.62029 0.1778,0 0.28848,3.429136 0.24614,7.62029 -0.0507,5.032714 0.80486,8.918154 2.51972,11.443124 2.4214,3.5649 2.98657,3.72396 8.37883,2.35503 6.29935,-1.59875 9.7735,-5.48358 14.53918,-16.256907 l 2.90976,-6.578238 8.1273,4.336908 c 4.47,2.385568 8.98865,4.337216 10.04143,4.337216 2.45394,0 9.37061,7.402561 8.39365,8.983151 -0.40705,0.65862 0.28123,1.58939 1.52916,2.06837 1.24807,0.47899 2.26922,1.49261 2.26922,2.25252 0,0.76022 -0.6457,0.98278 -1.43489,0.49532 -0.83859,-0.51829 -1.05622,0.0998 -0.52371,1.48747 0.58985,1.53706 1.25729,1.81404 1.89298,0.78561 0.62839,-1.01694 2.21439,-0.27517 4.40545,2.05536 1.88298,2.00425 2.81988,3.65441 2.08197,3.66651 -0.73789,0 -0.68473,0.50228 0.11821,1.08861 0.80285,0.58665 3.20535,3.41068 5.33885,6.27615 2.13353,2.86517 6.59322,8.09051 9.91043,11.61186 3.31721,3.52105 8.00957,10.32125 10.42753,15.11114 2.41796,4.7899 5.19,9.68865 6.16012,10.88612 1.98137,2.44575 5.16762,12.75641 5.16762,16.7223 0,2.42367 -0.1769,2.43667 -2.6544,0.19352 -3.66953,-3.32086 -4.60301,-3.02301 -4.60301,1.46872 0,2.12854 -0.39191,3.47843 -0.8709,2.99943 -0.47898,-0.47899 -0.87088,-4.84795 -0.87088,-9.7086 v -8.83802 l -12.77511,-12.92183 c -7.5553,-7.64235 -12.68532,-14.00438 -12.55532,-15.57137 0.1209,-1.45693 -0.59669,-2.48597 -1.59458,-2.28639 -0.99789,0.19957 -1.81435,-0.22075 -1.81435,-0.93107 0,-0.71183 -1.46962,-1.71546 -3.26584,-2.23014 -4.46427,-1.27942 -14.90805,-13.98081 -12.64558,-15.37907 1.2972,-0.80164 1.28225,-1.31692 -0.0623,-2.14759 -0.97278,-0.60145 -2.2672,-0.28727 -2.87647,0.69914 -0.78837,1.27548 -1.39406,1.32931 -2.10062,0.18747 -0.54604,-0.88358 -1.64599,-1.6063 -2.4443,-1.6063 -0.79832,0 -1.02236,0.69429 -0.49789,1.5428 0.97044,1.57032 -3.17249,7.1661 -5.30544,7.1661 -2.03507,0 -5.63629,-14.71472 -5.65942,-23.124546 -0.0152,-5.753917 -0.42761,-7.455174 -1.42925,-5.905105 -2.79493,4.324804 -1.70798,13.416531 3.15204,26.364961 1.59167,4.24075 8.31417,7.77512 12.63763,6.64477 2.50182,-0.65437 2.61918,-0.24796 1.31732,4.54526 -0.78607,2.8951 -2.32281,6.27131 -3.41495,7.50296 -1.09218,1.23164 -2.82795,5.53014 -3.85729,9.55226 -1.04488,4.08291 -2.58442,7.07537 -3.48564,6.7748 -1.0125,-0.33747 -1.35321,0.82704 -0.91407,3.12402 0.38503,2.01423 0.29271,4.72366 -0.20503,6.02092 -0.83502,2.17602 -1.18495,2.17511 -4.51903,0 -1.98766,-1.3024 -3.61392,-1.85698 -3.61392,-1.23225 0,2.04448 5.50414,4.62842 8.59184,4.03392 2.55969,-0.4929 3.02001,0.13909 3.02001,4.14367 0,5.45879 -5.05781,11.0987 -13.06334,14.56624 -2.79411,1.21018 -3.93715,2.22592 -2.54009,2.25736 3.17282,0.0726 3.20819,1.26702 0.13789,4.65955 -3.57043,3.94532 -6.9357,3.24891 -11.96227,-2.47627 -5.01905,-5.71613 -6.20573,-4.68044 -1.49648,1.30633 1.65456,2.10284 2.55433,3.82405 1.99951,3.82405 -0.55487,0 -0.11217,1.14304 0.98325,2.54009 1.84268,2.34959 1.77438,2.38014 -0.91089,0.41065 -1.59663,-1.17116 -3.12653,-2.26552 -3.39974,-2.43214 -0.27336,-0.16631 -1.4438,-2.80075 -2.60129,-5.85371 l -2.10454,-5.55102 0.6682,6.31305 c 0.64495,6.09381 5.2668,12.79149 7.37329,10.68472 0.53387,-0.53371 0.37061,0.64863 -0.36284,2.62779 -0.73343,1.97886 -1.01595,4.50535 -0.62785,5.61452 0.44227,1.2637 0.0719,1.62476 -0.99234,0.96706 -1.21918,-0.75357 -1.42611,0.10882 -0.73382,3.06353 0.85323,3.6402 0.71722,3.86305 -1.18265,1.93622 -3.90884,-3.96437 -6.92254,-14.40356 -6.92254,-23.9791 0,-5.24409 -0.63623,-9.405 -1.43812,-9.405 -2.08805,0 -0.57863,18.35338 2.14405,26.07044 1.25042,3.54404 3.28065,7.55648 4.5116,8.91664 1.86528,2.0611 1.92766,2.9704 0.37455,5.45727 -1.27314,2.03873 -2.19399,2.44968 -2.90632,1.29696 -0.57349,-0.92774 -0.75517,-2.15243 -0.40373,-2.72092 z M 104.24685,182.1627 c 2.06403,-5.25287 3.26556,-9.55046 2.67002,-9.55046 -1.48417,0 -7.642513,15.44196 -6.966783,17.46919 0.299063,0.89751 2.232693,-2.66588 4.296763,-7.91873 z m 25.80107,-21.16233 c 0.0438,-1.19746 -0.55335,-3.15696 -1.32724,-4.35444 -1.71465,-2.65319 -1.71465,-0.36166 0,3.62871 0.82255,1.91414 1.27462,2.16119 1.32724,0.72573 z m -5.85005,-9.11742 c 0.0925,-1.42215 -0.81139,-2.96163 -2.00885,-3.42096 -1.19748,-0.45964 -2.17723,-1.81314 -2.17723,-3.0079 0,-1.48868 1.61428,-0.75507 5.13071,2.33266 2.82187,2.4775 5.59784,4.48266 6.16881,4.45605 1.81205,-0.0847 -10.05869,-9.24141 -16.87294,-13.01467 -4.75766,-2.63473 -7.01027,-5.0064 -8.22219,-8.65748 -1.49755,-4.51139 -1.75576,-4.69796 -2.50983,-1.81435 -0.46233,1.76779 -0.24857,3.21442 0.47502,3.21442 0.72357,0 1.31559,0.69157 1.31559,1.53707 0,0.84548 -0.81646,1.06744 -1.81435,0.4932 -1.00431,-0.57818 -1.29747,-0.47749 -0.65668,0.22679 0.63672,0.69792 4.19475,2.92564 7.90675,4.94986 5.2338,2.85428 7.03557,4.80017 8.02521,8.66655 0.89072,3.48024 1.63658,4.40284 2.46952,3.05538 0.91519,-1.48082 1.35752,-1.2897 1.89772,0.81978 0.62949,2.45846 0.72227,2.476 0.87274,0.16633 z m -19.28266,-1.97734 c -0.40447,-2.50956 -1.73696,-6.75514 -2.96111,-9.43464 l -2.225703,-4.87153 0.871893,4.94259 c 0.47953,2.71851 1.81202,6.96409 2.96109,9.43464 l 2.08923,4.49203 z m -3.81714,3.11161 c 0,-0.79832 -0.63315,-2.43123 -1.407043,-3.6287 -0.77388,-1.19748 -1.40703,-1.52407 -1.40703,-0.72575 0,0.79832 0.63315,2.43123 1.40703,3.62871 0.773893,1.19747 1.407043,1.52405 1.407043,0.72574 z m 10.20483,-10.16038 c 0,-1.19746 -0.63268,-2.17722 -1.40595,-2.17722 -0.77325,0 -1.02995,0.97976 -0.57044,2.17722 0.45952,1.19748 1.09219,2.17723 1.40595,2.17723 0.31374,0 0.57044,-0.97975 0.57044,-2.17723 z m 42.52953,-11.57981 c 1.35653,-0.99214 2.46642,-2.352 2.46642,-3.0224 0,-0.67041 -0.7838,-0.43514 -1.74177,0.52283 -0.95798,0.95799 -3.35293,1.74178 -5.3221,1.74178 -1.96919,0 -3.12599,0.4542 -2.57068,1.00969 1.728,1.72786 4.59839,1.62688 7.16813,-0.25098 z m 27.02703,-3.05597 c -0.0695,-1.69098 -0.41359,-2.03479 -0.87691,-0.87694 -0.4193,1.0478 -0.36774,2.2997 0.11461,2.78201 0.48231,0.48232 0.82535,-0.37496 0.76233,-1.90507 z m -55.40065,-8.22507 c -1.64266,-4.66984 -1.66848,-4.68072 -2.56589,-1.0886 -0.49894,1.99699 -0.20835,4.108 0.64627,4.69493 3.01906,2.0735 3.56007,1.05717 1.91962,-3.60633 z m 30.84004,-22.860845 c 1.87632,-1.21259 1.838,-1.410059 -0.27728,-1.429409 -1.34994,0 -2.85813,0.631093 -3.35151,1.429409 -1.13533,1.837027 0.78616,1.837027 3.6287,0 z m -4.77553,62.411625 c -0.41781,-1.59753 -0.16752,-2.53887 0.55644,-2.09164 0.72386,0.44754 1.31613,1.75478 1.31613,2.90508 0,3.00427 -0.98628,2.57578 -1.87257,-0.81344 z m 3.32405,-36.05996 c 0,-0.67464 1.24151,-2.3502 2.75885,-3.72335 3.25187,-2.94289 5.79295,-0.53615 2.99432,2.83614 -1.8979,2.28699 -5.75317,2.88118 -5.75317,0.88721 z m -36.89484,-20.67425 c -2.58171,-6.452141 -2.93121,-10.031861 -0.9796,-10.031861 0.7236,0 0.95374,-1.469637 0.51143,-3.265844 -0.44227,-1.796207 -0.31155,-2.815273 0.29061,-2.264612 0.60209,0.550956 1.84156,0.365283 2.75439,-0.412167 0.91284,-0.777746 2.96602,-2.359858 4.56265,-3.515902 2.71185,-1.963739 2.59241,-2.04417 -1.81435,-1.220453 -5.48598,1.025105 -5.97947,-0.223769 -1.59225,-4.028467 l 3.12503,-2.710352 h -4.42124 c -4.52351,0 -6.18331,-2.003042 -6.18331,-7.461829 0,-1.578489 0.65316,-2.466308 1.45148,-1.972797 2.29622,1.419117 1.68713,-1.626273 -0.72574,-3.628711 -3.67518,-3.050232 -2.63441,-6.926295 2.14133,-7.975294 5.1132,-1.123085 9.28523,1.354717 13.24508,7.866133 1.49297,2.454821 3.34325,4.463607 4.11175,4.463607 1.824,0 -1.00597,8.498125 -4.10026,12.31251 -2.23483,2.75509 -2.21055,2.785939 0.5684,0.725734 1.59664,-1.183565 3.34798,-2.771421 3.89185,-3.528005 0.54389,-0.756583 1.46093,0.549749 2.03783,2.902964 0.57693,2.353215 1.67138,4.687081 2.43211,5.186027 0.76856,0.504085 0.92826,2.978551 0.35943,5.568539 -0.74396,3.387095 -2.17484,5.062359 -5.23535,6.129196 -2.31639,0.807386 -4.2116,2.080454 -4.2116,2.828571 0,0.782293 1.2343,0.700037 2.90296,-0.193524 3.5419,-1.895398 3.66851,-0.304818 0.29665,3.726377 -3.06961,3.67013 -6.63013,5.74667 -10.33139,6.02547 -1.9855,0.1512 -3.45606,-1.44756 -5.08786,-5.52593 z m 6.4137,-5.414034 c 0,-1.75418 -2.75372,-3.799558 -3.76033,-2.792891 -0.36536,0.365283 0.33128,1.49049 1.54804,2.500472 1.37948,1.144865 2.21229,1.254939 2.21229,0.293331 z m -4.35444,-24.938588 c 0,-0.798315 -1.01831,-1.451482 -2.26289,-1.451482 -1.24459,0 -1.85921,0.653167 -1.36582,1.451482 0.49338,0.798316 1.51169,1.451482 2.2629,1.451482 0.7512,0 1.36581,-0.653166 1.36581,-1.451482 z m 6.46968,-10.060284 c 0.45931,-0.742977 0.28455,-1.691278 -0.38818,-2.107068 -1.71269,-1.058372 -7.53298,0.622928 -7.53298,2.176322 0,1.710328 6.85841,1.650454 7.92116,-0.06951 z M 28.084217,100.86998 c -0.7477,-1.948611 0.39834,-3.447864 4.35345,-5.696159 1.28301,-0.72937 1.29382,0.09379 0.0447,3.402527 -1.8025,4.775372 -3.17172,5.489622 -4.39811,2.293632 z m 8.94364,-32.742105 c -0.29242,0.877231 -1.62103,1.177205 -2.95247,0.666169 -1.3314,-0.510741 -2.09088,-1.788344 -1.68771,-2.839159 0.40318,-1.050519 0.0353,-2.341433 -0.8174,-2.868491 -0.85271,-0.527071 -1.55041,-1.572746 -1.55041,-2.32389 0,-2.152428 3.91846,-1.594515 6.42797,0.915039 2.07357,2.073504 2.28092,2.073504 2.28092,0 0,-1.866365 0.52783,-1.753271 2.90296,0.622022 1.59663,1.596631 2.90297,3.501704 2.90297,4.23349 0,1.98278 -3.3873,2.824035 -5.30191,1.316919 -1.03784,-0.817061 -1.8751,-0.711537 -2.20492,0.278196 z m -11.36245,-4.376828 c 0,-0.798316 0.69172,-1.451482 1.53715,-1.451482 0.84544,0 1.13346,0.653166 0.64008,1.451482 -0.49338,0.798315 -1.18511,1.451482 -1.53716,1.451482 -0.35203,0 -0.64007,-0.653167 -0.64007,-1.451482 z M 323.21936,275.66751 c 0,-0.79831 -0.69172,-1.45148 -1.53715,-1.45148 -0.84542,0 -1.13346,0.65317 -0.64008,1.45148 0.49339,0.79832 1.18511,1.45148 1.53716,1.45148 0.35205,0 0.64007,-0.65316 0.64007,-1.45148 z M 313.05899,251.2826 c 0,-0.63866 -0.78381,-1.94499 -1.74178,-2.90297 -2.10892,-2.10888 -1.77665,-2.13186 4.55641,-0.31569 3.72764,1.06896 4.55762,1.01119 3.31494,-0.23284 -0.91177,-0.91172 -3.80696,-1.73574 -6.43378,-1.8313 -2.62679,-0.0967 -5.75573,-0.74539 -6.95321,-1.44451 -1.19747,-0.69883 -0.25885,0.78983 2.0859,3.30816 4.50876,4.84281 5.17152,5.28098 5.17152,3.41793 z m 1.50343,-10.21208 c -0.95625,-1.86457 -2.13671,-2.99218 -2.62325,-2.50563 -0.48655,0.48655 0.29573,2.01211 1.73863,3.39012 2.50779,2.39525 2.54675,2.35624 0.88462,-0.88449 z m -8.86134,-0.96434 c 0.006,-1.84399 -5.56744,-8.60517 -6.40324,-7.76937 -0.34387,0.34412 0.95532,2.55946 2.88705,4.92296 1.93175,2.3638 3.51404,3.64473 3.51619,2.84641 z m 10.14626,-5.92689 c -0.0695,-1.69097 -0.41358,-2.03479 -0.87693,-0.87694 -0.41927,1.0478 -0.36771,2.2997 0.11461,2.78201 0.48232,0.48232 0.82539,-0.37496 0.76236,-1.90507 z m -18.98384,-2.05626 c 0,-1.99579 -0.32946,-2.81226 -0.73213,-1.81435 -0.40263,0.99789 -0.40263,2.63081 0,3.6287 0.40267,0.9979 0.73213,0.18143 0.73213,-1.81435 z M 95.336577,133.59336 c 0,-0.79831 -0.65316,-1.85517 -1.45148,-2.34837 -0.79832,-0.49351 -1.45148,-0.24494 -1.45148,0.55428 0,0.79832 0.65316,1.85517 1.45148,2.34868 0.79832,0.49321 1.45148,0.24493 1.45148,-0.55459 z m -4.31117,-7.34782 c -1.78845,-3.34174 -4.39772,-5.21385 -4.39772,-3.15517 0,0.79831 0.6638,1.86184 1.47516,2.3632 0.81132,0.50136 1.09937,1.51982 0.64008,2.2628 -0.45931,0.74328 0.20623,1.35139 1.47887,1.35139 1.84208,0 2.00595,-0.57546 0.80361,-2.82222 z m -2.94624,-8.63452 c 0,-0.71273 -0.94648,-1.65922 -2.10328,-2.10313 -1.4058,-0.53947 -1.83568,-0.10882 -1.29621,1.29606 0.88098,2.29606 3.39949,2.89389 3.39949,0.80707 z m -49.35041,-13.21847 c 0,-0.79831 -0.65317,-1.45148 -1.45148,-1.45148 -0.79832,0 -1.45148,0.65317 -1.45148,1.45148 0,0.79832 0.65316,1.45149 1.45148,1.45149 0.79831,0 1.45148,-0.65317 1.45148,-1.45149 z M 102.59399,94.232181 c 0,-1.596632 -0.65316,-2.902964 -1.45148,-2.902964 -0.79832,0 -1.451483,1.306332 -1.451483,2.902964 0,1.596631 0.653163,2.902964 1.451483,2.902964 0.79832,0 1.45148,-1.306333 1.45148,-2.902964 z M 99.691027,88.42624 c 0,-0.798316 -0.69173,-1.451482 -1.53715,-1.451482 -0.84543,0 -1.13345,0.653166 -0.64007,1.451482 0.49338,0.798316 1.18511,1.451482 1.53714,1.451482 0.35205,0 0.64008,-0.653166 0.64008,-1.451482 z m -18.23153,-1.451482 c -1.18974,-4.478421 -3.54071,-7.264656 -3.54071,-4.196589 0,1.204726 1.01356,3.458147 2.25236,5.007612 2.16465,2.707924 2.21485,2.676175 1.28835,-0.811023 z m -65.41783,-3.265831 c 0.48136,-1.796207 0.86426,-4.572164 0.85089,-6.168795 -0.0181,-2.32721 -0.26459,-2.471152 -1.23578,-0.725748 -2.0368,3.66046 -3.1884,10.160374 -1.80018,10.160374 0.72043,0 1.70371,-1.469624 2.18507,-3.265831 z m 58.24842,-6.894543 c -0.49339,-0.798315 -1.18511,-1.451482 -1.53716,-1.451482 -0.35205,0 -0.64007,0.653167 -0.64007,1.451482 0,0.798316 0.69172,1.451495 1.53715,1.451495 0.84543,0 1.13346,-0.653179 0.64008,-1.451495 z"
     id="path817"
     inkscape:connector-curvature="0" />
</svg>
