<?xml version="1.0" encoding="UTF-8" standalone="no"?>
<svg
   xmlns:dc="http://purl.org/dc/elements/1.1/"
   xmlns:cc="http://creativecommons.org/ns#"
   xmlns:rdf="http://www.w3.org/1999/02/22-rdf-syntax-ns#"
   xmlns:svg="http://www.w3.org/2000/svg"
   xmlns="http://www.w3.org/2000/svg"
   xmlns:sodipodi="http://sodipodi.sourceforge.net/DTD/sodipodi-0.dtd"
   xmlns:inkscape="http://www.inkscape.org/namespaces/inkscape"
   id="svg"
   version="1.1"
   width="400"
   height="377.93103448275866"
   viewBox="0, 0, 400,377.93103448275866"
   sodipodi:docname="A2.svg"
   inkscape:version="0.92.5 (2060ec1f9f, 2020-04-08)">
  <metadata
     id="metadata11">
    <rdf:RDF>
      <cc:Work
         rdf:about="">
        <dc:format>image/svg+xml</dc:format>
        <dc:type
           rdf:resource="http://purl.org/dc/dcmitype/StillImage" />
      </cc:Work>
    </rdf:RDF>
  </metadata>
  <defs
     id="defs9" />
  <sodipodi:namedview
     pagecolor="#ffffff"
     bordercolor="#666666"
     borderopacity="1"
     objecttolerance="10"
     gridtolerance="10"
     guidetolerance="10"
     inkscape:pageopacity="0"
     inkscape:pageshadow="2"
     inkscape:window-width="1366"
     inkscape:window-height="693"
     id="namedview7"
     showgrid="false"
     inkscape:zoom="0.62445256"
     inkscape:cx="90.150242"
     inkscape:cy="62.397674"
     inkscape:window-x="0"
     inkscape:window-y="0"
     inkscape:window-maximized="1"
     inkscape:current-layer="svg" />
  <path
     style="fill:#ffffff;stroke-width:0.74361759"
     d="m 172.98057,374.00164 c -1.15851,-0.46613 -3.14473,-4.17897 -3.14473,-5.87844 0,-0.68457 1.14835,-3.79649 2.55188,-6.91539 1.61447,-3.58767 2.73022,-7.44626 3.0374,-10.50425 0.58544,-5.82768 1.63898,-9.58569 3.18262,-11.35237 1.58335,-1.8121 0.49404,-7.3781 -4.41214,-22.5446 -4.63441,-14.32637 -5.26493,-20.86528 -3.26455,-33.85531 0.86429,-5.61257 1.28966,-13.06808 1.32589,-23.23851 0.0514,-14.39767 -0.0253,-15.2147 -1.98913,-21.20217 -1.16546,-3.55359 -2.79122,-6.92141 -3.78638,-7.8437 -1.65021,-1.52934 -1.70856,-1.89427 -1.08541,-6.78587 0.41357,-3.24647 0.35352,-9.30586 -0.1615,-16.28827 -0.87859,-11.91315 -0.11921,-24.68113 1.99248,-33.49839 0.58771,-2.45394 1.10592,-5.80022 1.1516,-7.43618 0.0455,-1.63596 0.4894,-4.09715 0.98606,-5.46933 0.65994,-1.82333 0.70774,-3.80133 0.17754,-7.3488 -0.51916,-3.47381 -0.45209,-6.99312 0.23587,-12.3775 1.71659,-13.43512 1.72029,-14.1522 0.11108,-21.57945 -0.85935,-3.96639 -1.87385,-10.95944 -2.25442,-15.5401 -0.38059,-4.580657 -1.01729,-9.332377 -1.4149,-10.559346 -0.3976,-1.22697 -0.91841,-3.127796 -1.15737,-4.224051 l -0.43446,-1.993197 -7.99272,0.416356 c -6.33184,0.329841 -9.76972,0.08714 -16.54431,-1.168386 -4.70338,-0.871613 -9.43288,-1.735371 -10.51001,-1.919463 -1.80123,-0.307834 -2.08645,0.01627 -3.55414,4.041794 -2.09591,5.748281 -5.78347,11.021416 -9.58544,13.707013 -3.91717,2.76697 -10.25716,3.52063 -13.23007,1.5727 -2.82956,-1.854 -1.29429,-3.1446 2.46349,-2.07093 1.54684,0.44197 3.89521,0.6282 5.21861,0.41382 3.49907,-0.56679 8.66142,-5.487821 11.3035,-10.775082 3.70489,-7.414123 4.02065,-7.155553 -8.69026,-7.116211 -8.64948,0.02672 -12.10389,-0.274116 -16.339418,-1.423191 l -5.371034,-1.457142 0.460508,1.908099 c 1.106759,4.585704 1.630266,5.30771 3.507017,4.836675 1.34869,-0.338485 1.899269,-0.109451 2.192905,0.912373 0.627521,2.183679 0.910955,9.856535 0.372413,10.08206 -0.849211,0.355662 -9.531179,-4.957884 -9.539615,-5.838444 -0.0046,-0.461345 0.725004,-1.325545 1.620947,-1.920462 1.441457,-0.957059 1.531086,-1.331424 0.778405,-3.251073 -0.467828,-1.193181 -1.191415,-3.507947 -1.607933,-5.143905 -0.711759,-2.795561 -1.038137,-3.072977 -5.426016,-4.61201 -6.922081,-2.427888 -9.476872,-2.707047 -12.638688,-1.380991 -3.528698,1.479892 -6.742706,1.472503 -9.633078,-0.02324 -2.088079,-1.079802 -2.551771,-1.079802 -5.379168,0 -1.701745,0.649899 -3.768886,1.181632 -4.593651,1.181632 -1.892391,0 -3.288324,-1.354941 -2.774763,-2.693267 0.307161,-0.800528 -0.582903,-1.024891 -4.065613,-1.024891 -5.025159,0 -8.229222,-1.744481 -7.360769,-4.007658 0.884533,-2.305028 5.574878,-3.571711 13.864263,-3.744161 4.309311,-0.0897 14.402061,-0.611881 22.428298,-1.160555 l 14.593217,-0.99754 0.457046,-4.372727 c 0.94135,-9.006395 7.821068,-20.891751 13.917947,-24.044574 3.54898,-1.835248 8.83283,-1.391007 12.71144,1.068741 3.97833,2.523002 6.15692,5.242667 5.07017,6.329418 -0.48463,0.484629 -1.55965,-0.06251 -3.15349,-1.605168 -3.69325,-3.574478 -7.3851,-4.868302 -11.06438,-3.877571 -4.37433,1.17789 -8.933941,5.751371 -11.639362,11.67475 -2.116405,4.633784 -4.425454,14.030856 -3.640519,14.815768 0.184277,0.184278 3.969802,-0.05995 8.412406,-0.542562 7.896425,-0.857879 23.112075,-0.58683 25.776175,0.459137 1.13355,0.445079 1.27623,0.226107 0.92952,-1.427327 -0.22517,-1.074202 -0.58927,-2.813524 -0.80889,-3.865185 -0.35131,-1.682319 -0.66405,-1.853932 -2.60266,-1.428141 -1.78612,0.392305 -2.20336,0.237865 -2.20336,-0.815563 0,-2.511266 1.6456,-10.716552 2.14924,-10.716552 0.85832,0 7.51779,7.059464 7.51779,7.969327 0,0.469617 -0.69345,1.073946 -1.54101,1.34295 -0.84756,0.269027 -1.37644,0.918042 -1.17527,1.442293 0.20124,0.52425 0.59843,2.50455 0.88277,4.400682 l 0.517,3.447528 11.6565,-0.288524 c 11.49396,-0.284503 11.72353,-0.323009 16.46014,-2.761377 4.38077,-2.25516 5.43429,-2.483544 11.96841,-2.594366 6.37615,-0.108057 7.74422,-0.388587 12.42878,-2.547843 7.06125,-3.254745 7.81554,-4.212362 8.16311,-10.363497 0.24542,-4.343308 0.0732,-5.246432 -1.23169,-6.462223 -2.65136,-2.470112 -3.34009,-5.508604 -3.51831,-15.521671 -0.19636,-11.032729 0.0669,-11.873807 5.1994,-16.6046324 4.24206,-3.9101972 6.00172,-4.5884694 11.90418,-4.5884694 8.67305,0 13.83563,2.9956869 16.72087,9.7025838 1.29573,3.012023 1.52263,4.970782 1.43267,12.368173 -0.12107,9.954228 -0.6923,12.728178 -2.97595,14.450745 -1.14025,0.860063 -1.77569,2.45761 -2.21949,5.579851 -1.22047,8.586204 0.47963,10.462723 8.80775,9.721801 6.46229,-0.574909 15.2111,0.954689 19.97954,3.493144 3.29737,1.75531 4.43643,1.942283 11.83424,1.942376 4.50214,9.3e-5 10.83063,0.506241 14.0633,1.124838 3.23266,0.618574 5.94754,1.036812 6.03308,0.929382 0.0855,-0.107359 0.69038,-2.60538 1.34409,-5.551059 2.13402,-9.615975 8.32364,-18.820219 14.1216,-20.99946 4.72581,-1.776247 13.89443,0.413359 13.89443,3.318185 0,1.447661 -0.60345,1.390588 -4.0899,-0.386914 -1.60442,-0.817979 -3.76659,-1.479892 -4.80484,-1.470899 -4.8198,0.04183 -10.39157,4.478368 -13.66699,10.882752 -1.39324,2.724196 -4.48825,13.608435 -4.00659,14.09009 0.1794,0.179398 2.65546,-0.07343 5.50247,-0.561594 4.80112,-0.823301 5.73887,-0.744129 12.93523,1.092118 7.32093,1.868038 17.05403,3.356737 17.05403,2.608472 0,-1.124606 -1.68508,-9.546076 -2.30224,-11.50588 -0.69782,-2.215934 -0.85193,-2.296547 -2.90703,-1.520837 -1.19358,0.450539 -2.37368,0.615622 -2.62244,0.366859 -0.79072,-0.790721 0.53199,-11.008516 1.42114,-10.978051 0.45837,0.01627 2.50658,1.527089 4.55153,3.358596 3.47034,3.108136 3.62811,3.398983 2.36772,4.365059 -1.25678,0.963333 -1.27405,1.291966 -0.24916,4.743165 0.60566,2.039441 1.3314,5.550617 1.61277,7.802571 l 0.51156,4.094474 10.89186,0.485118 c 5.99052,0.266819 13.97397,0.801829 17.74102,1.188905 3.76703,0.387076 8.35241,0.703788 10.18975,0.703788 4.72831,0 7.12867,1.252508 7.12867,3.719738 0,1.670305 -0.46644,2.133532 -2.87485,2.85512 -1.58117,0.473731 -4.09088,0.861318 -5.57714,0.861318 -1.90628,0 -2.70228,0.328563 -2.70228,1.115427 0,1.487003 -3.97122,1.487003 -5.20532,0 -1.22033,-1.470411 -3.28647,-1.416964 -4.55657,0.117817 -1.25864,1.520953 -6.43403,3.933621 -8.48542,3.95572 -0.83375,0.0093 -2.8286,-0.652919 -4.43303,-1.470899 -2.95325,-1.505663 -6.52443,-1.855489 -10.60668,-1.039043 -1.92839,0.385682 -2.30696,0.860807 -2.714,3.406303 -0.70629,4.416926 -3.73612,11.36429 -6.7417,15.458742 -2.88157,3.925468 -8.76158,7.456998 -12.41595,7.456998 -2.86137,0 -8.04883,-2.18043 -8.04883,-3.38314 0,-1.29468 1.25641,-2.053637 1.83906,-1.11091 0.25002,0.40455 1.82898,1.10564 3.50878,1.55794 5.47349,1.47388 11.24829,-1.96872 15.3162,-9.130597 1.53337,-2.699634 4.86842,-12.471095 4.41217,-12.927351 -0.12549,-0.125485 -2.22184,0.343644 -4.65837,1.042691 -3.40498,0.976928 -7.29287,1.264917 -16.80209,1.244584 l -12.37205,-0.02649 1.02382,3.372724 c 0.5631,1.855 1.02744,3.459216 1.03188,3.564926 0.005,0.105733 0.66208,-0.216346 1.46147,-0.715476 0.79936,-0.4992 1.64304,-0.718033 1.8748,-0.48628 0.54539,0.545397 1.78923,10.565924 1.36895,11.028547 -0.45574,0.501685 -9.90032,-4.685442 -9.9015,-5.438099 -5.6e-4,-0.343435 0.71134,-1.201221 1.58195,-1.906217 l 1.58296,-1.281811 -1.39835,-4.41451 -1.39838,-4.414532 -4.11204,0.140358 c -2.26162,0.07715 -6.77852,1.030328 -10.03754,2.118078 -8.46251,2.824469 -14.63372,3.179756 -20.04768,1.154118 -2.36059,-0.883209 -4.36089,-1.510404 -4.44509,-1.393795 -0.52016,0.720472 -2.59689,6.646385 -2.48777,7.098737 0.073,0.302234 -0.28295,1.888022 -0.79084,3.52398 -1.14763,3.696826 -2.46021,27.220725 -2.59327,46.476105 -0.0858,12.42571 0.0816,14.82085 1.16946,16.73913 3.68602,6.49894 7.28194,29.7039 7.28194,46.99113 0,5.8139 0.37627,13.10068 0.83618,16.19281 0.92947,6.24931 0.82095,6.87749 -3.59937,20.83712 -4.34333,13.71645 -5.17674,27.9854 -2.52391,43.21244 2.83907,16.29608 2.14185,24.09333 -3.94893,44.16264 -2.93167,9.65994 -3.15645,10.91207 -2.15912,12.02755 0.70753,0.79132 1.33565,3.8412 1.72357,8.36865 0.4688,5.47181 1.03646,7.85567 2.44815,10.28098 2.61247,4.48824 3.09712,7.41621 1.68088,10.15491 -1.93615,3.74411 -4.42767,4.52858 -14.38294,4.52858 -7.62459,0 -9.0149,-0.18753 -10.07576,-1.35989 -1.45036,-1.60261 -1.58105,-4.41142 -0.34104,-7.32921 0.54065,-1.27224 0.90528,-6.17698 0.92952,-12.504 0.0332,-8.67537 0.25678,-10.71711 1.34121,-12.24926 1.6156,-2.28261 1.6901,-8.39956 0.2357,-19.35449 -1.91744,-14.44268 -2.10409,-19.40737 -1.06238,-28.25872 0.55344,-4.70269 0.97765,-10.72543 0.94266,-13.38387 -0.0864,-6.56398 -2.17004,-23.67392 -3.2007,-26.2824 -1.04499,-2.64474 -3.04314,-14.78955 -3.04713,-18.52056 -0.002,-1.93099 -0.33256,-2.78857 -1.07467,-2.78857 -0.65401,0 -1.34748,-1.23166 -1.77941,-3.16037 l -0.70773,-3.16038 -0.0797,3.45262 c -0.0472,2.0483 -0.46534,3.60064 -1.02791,3.81653 -0.85814,0.32928 -2.57766,11.8395 -3.8508,25.77643 -0.2031,2.22449 -1.10904,6.5358 -2.01298,9.5807 -1.55625,5.24227 -1.59187,5.91576 -0.67086,12.68689 1.69694,12.47572 1.82284,20.05511 0.44076,26.53376 -0.69224,3.24498 -1.44487,10.94645 -1.67249,17.11438 l -0.41385,11.21443 2.34837,6.08951 c 2.04639,5.30648 2.35994,7.06774 2.43835,13.69676 0.0495,4.18399 0.12641,9.55856 0.1708,11.94348 0.11665,6.25078 -0.32912,6.45966 -13.63221,6.38751 -5.95443,-0.0323 -11.25156,-0.22982 -11.7714,-0.43899 z m 21.7709,-2.01627 c 1.00358,-0.73384 1.37076,-1.84752 1.28715,-3.904 -0.0644,-1.58248 -0.12595,-6.39086 -0.1371,-10.68525 -0.0163,-6.06794 -0.3687,-8.74696 -1.58419,-12.02146 -1.81916,-4.90077 -3.67893,-6.04498 -9.23968,-5.68463 -4.90955,0.31815 -6.12954,2.12121 -6.94878,10.26992 -0.39809,3.95957 -1.24284,7.51079 -2.26141,9.50645 -3.00672,5.89099 -3.1752,6.73762 -1.51733,7.62489 1.21651,0.65106 1.91063,0.44717 3.7516,-1.10188 1.24237,-1.04541 2.91154,-1.90073 3.70923,-1.90073 1.74439,0 11.82067,5.16786 11.82067,6.06253 0,1.15856 -2.57155,0.62991 -5.73513,-1.17901 -5.10003,-2.91616 -5.96488,-2.99206 -9.12668,-0.80094 -2.36603,1.63965 -3.13167,1.8402 -4.41121,1.15542 -1.73416,-0.92811 -2.02559,-0.17522 -0.61876,1.59871 1.40686,1.77385 2.47651,1.9644 11.38395,2.028 5.89817,0.0421 8.62062,-0.23168 9.62769,-0.96802 z m -6.76644,-15.14696 c 0.27333,-1.53371 0.70005,-5.21462 0.94826,-8.1798 0.34346,-4.10311 0.71852,-5.39122 1.56982,-5.39122 0.94037,0 1.04948,0.97867 0.68492,6.14439 -0.46678,6.61432 -1.46811,10.2152 -2.84064,10.2152 -0.5856,0 -0.70103,-0.88826 -0.36236,-2.78857 z m 39.48117,15.35201 c 6.00007,-1.64072 6.98083,-4.6375 3.66149,-11.18789 -1.37433,-2.71211 -2.1222,-5.79943 -2.64666,-10.92567 -0.40206,-3.92993 -0.79488,-7.19834 -0.87291,-7.2631 -0.0781,-0.0648 -1.44348,-0.99308 -3.03426,-2.06291 -4.13772,-2.78271 -6.49646,-2.56418 -9.10318,0.8434 -2.08734,2.72859 -2.13444,2.99647 -2.19052,12.45559 -0.0316,5.31687 -0.44979,10.83602 -0.92952,12.26479 -1.14157,3.39994 -1.10243,4.13017 0.29633,5.52891 1.404,1.40402 10.20039,1.60991 14.81923,0.34688 z m -14.70884,-1.12173 c -0.91691,-0.9169 -0.58909,-1.77469 0.67824,-1.77469 0.66747,0 2.35328,-0.70439 3.74628,-1.56529 1.94584,-1.20259 3.17232,-1.45003 5.29309,-1.06786 1.51822,0.27361 3.84792,0.49983 5.17714,0.50276 1.5813,0.005 2.41676,0.3677 2.41676,1.05366 0,1.57261 -3.42683,2.1224 -6.14928,0.98657 -2.67356,-1.11543 -4.09271,-0.99912 -5.74861,0.47115 -1.40827,1.2504 -4.70754,2.09977 -5.41362,1.3937 z m 3.2104,-13.22807 c -0.42419,-1.11571 -0.77125,-4.85111 -0.77125,-8.30089 0,-4.89391 0.22983,-6.27234 1.04574,-6.27234 0.81147,0 1.11152,1.70753 1.3393,7.62208 0.30454,7.90716 -0.28494,10.44627 -1.61379,6.95115 z m -22.70525,-51.59033 c 1.26364,-7.5276 1.30914,-9.12909 0.44383,-15.61597 -1.83925,-13.78767 -1.86583,-17.20174 -0.17824,-22.86852 0.85569,-2.87334 1.90631,-9.0627 2.33463,-13.75419 0.42835,-4.69148 1.09449,-10.87234 1.48034,-13.73527 0.38584,-2.86292 0.71248,-5.40489 0.72586,-5.64877 0.0139,-0.24391 -4.5768,-0.66563 -10.20041,-0.93717 -5.62361,-0.27156 -11.73057,-0.79586 -13.57102,-1.16515 -1.84046,-0.3693 -3.4001,-0.61683 -3.46586,-0.55007 -0.0658,0.0667 0.7593,2.63108 1.8335,5.6985 1.83511,5.24025 1.9605,6.47547 2.076,20.44949 0.0936,11.33471 -0.23099,17.43713 -1.36473,25.65481 -0.92878,6.73173 -1.32204,12.45861 -1.0468,15.24416 0.24244,2.45394 2.27451,10.36968 4.51568,17.59055 2.24117,7.22085 4.30532,14.86599 4.58696,16.98918 0.48712,3.6721 0.60668,3.84143 2.45171,3.47248 1.06679,-0.21332 3.11081,-0.14733 4.54227,0.14664 l 2.60266,0.53447 0.41276,-11.55865 c 0.22703,-6.35726 1.04638,-15.33317 1.82082,-19.94648 z m -11.13681,26.42055 c -2.17088,-9.55946 -2.47337,-13.5212 -0.99471,-13.02832 0.89813,0.29937 3.68891,13.12085 3.07858,14.14374 -0.65359,1.09542 -1.71023,0.52983 -2.08387,-1.11542 z m -2.45789,-56.50237 c -1.98241,-0.95518 -1.76639,-2.56381 0.2869,-2.13644 0.77396,0.16104 2.82937,0.28685 4.56758,0.27946 2.06251,-0.009 3.16037,0.3139 3.16037,0.92887 0,1.88428 -4.86198,2.44729 -8.01485,0.92811 z m -0.91569,-19.05344 c -2.09096,-2.09098 -3.03306,-5.31261 -1.55356,-5.31261 0.3686,0 1.3466,1.14647 2.17336,2.54772 0.99029,1.6784 2.16502,2.6299 3.44286,2.78857 2.48556,0.30863 2.52012,1.65557 0.0504,1.96406 -1.30999,0.16359 -2.57112,-0.44585 -4.11301,-1.98774 z m 8.93054,-0.0163 c 0,-0.35891 0.50194,-1.06913 1.11543,-1.57828 0.61348,-0.50914 1.11542,-1.554 1.11542,-2.3219 0,-0.7679 0.50195,-1.39619 1.11543,-1.39619 1.44899,0 1.4274,2.19816 -0.0421,4.29626 -1.13771,1.62431 -3.30413,2.28007 -3.30413,1.00014 z m 41.50328,70.36675 c 5.86823,-19.87076 6.36911,-25.03672 3.91131,-40.34125 -0.78817,-4.90788 -1.64925,-10.76387 -1.91349,-13.01331 -0.66305,-5.64415 1.45456,-24.64442 3.35655,-30.11652 0.85293,-2.45394 2.18224,-6.72044 2.954,-9.48112 1.36986,-4.90005 1.37014,-5.01942 0.0116,-5.01942 -0.7653,0 -2.33348,0.38798 -3.48481,0.8622 -1.15135,0.47422 -7.2801,1.05982 -13.61945,1.30133 l -11.52607,0.43913 0.21821,5.94894 c 0.21867,5.96103 1.87614,14.8164 3.05262,16.30805 0.34492,0.43734 0.84853,4.14144 1.11912,8.23133 0.27058,4.0899 0.87266,9.20943 1.33795,11.3767 0.65873,3.06838 0.61223,6.03086 -0.21007,13.38512 -1.28544,11.49633 -1.18279,20.61355 0.36974,32.84633 0.64732,5.10018 1.17692,10.96502 1.17692,13.03297 v 3.75994 l 2.91163,-0.27767 c 1.6014,-0.15267 3.52551,0.0792 4.2758,0.51547 0.75029,0.4362 1.71625,0.80329 2.14657,0.81572 0.43035,0.0116 2.19065,-4.74583 3.9118,-10.57394 z m -1.06231,-22.20135 c 0.49451,-8.75024 1.32608,-12.06708 2.35385,-9.38873 0.25156,0.65552 0.17894,4.95128 -0.1615,9.54612 -0.45238,6.10642 -0.90057,8.44742 -1.6657,8.70056 -0.88066,0.29133 -0.96424,-1.11462 -0.52662,-8.85795 z m -10.13855,-26.00745 c -1.32508,-0.77178 -1.83697,-3.65853 -0.64876,-3.65853 0.35891,0 1.06914,0.50194 1.57828,1.11543 1.06967,1.28885 3.20813,1.44066 5.20909,0.36981 1.94326,-1.04002 2.87722,0.662 1.08315,1.97384 -1.60828,1.17601 -5.3669,1.27981 -7.22176,0.19938 z m 3.18271,-19.48285 c -2.38025,-1.20357 -5.49264,-5.77305 -4.56444,-6.70125 0.84825,-0.84826 2.31125,-0.05 2.31125,1.26111 0,1.26684 2.23053,3.19583 4.0899,3.53697 1.52883,0.28048 2.07125,2.17385 0.74362,2.59566 -0.40899,0.1299 -1.57015,-0.18172 -2.58033,-0.69249 z m 5.18299,-4.16254 c 0,-1.40297 2.2912,-6.03976 2.98444,-6.03976 1.07362,0 0.89624,1.99025 -0.40088,4.49864 -1.07011,2.06939 -2.58356,2.97217 -2.58356,1.54112 z m -14.79242,-9.94375 c -1.08182,-2.88747 -1.76853,-11.71198 -0.91139,-11.71198 0.89201,0 1.96708,3.85522 2.64388,9.48113 0.49165,4.08685 -0.53961,5.41474 -1.73249,2.23085 z m -11.72192,-16.73186 c 0.2453,-1.53394 0.81877,-8.47748 1.2744,-15.43007 0.45563,-6.95257 0.97253,-12.78605 1.14868,-12.96328 1.10302,-1.10976 1.74541,2.34044 2.13683,11.4765 0.2453,5.72586 0.614,12.08379 0.81928,14.12874 l 0.37325,3.7181 10.93866,-0.24623 c 6.76072,-0.15221 13.21081,-0.74355 16.88761,-1.54828 5.54069,-1.21269 5.93639,-1.42544 5.76587,-3.10006 -0.10062,-0.9889 -0.50199,-9.66176 -0.89181,-19.27302 -0.785,-19.35557 -1.39345,-24.63296 -4.2867,-37.18088 -1.43279,-6.21406 -2.09496,-8.05045 -2.42247,-6.71819 -0.24846,1.01079 -1.60612,2.5122 -3.02588,3.34628 -2.25165,1.32278 -4.11678,1.54361 -14.84488,1.7575 -12.75191,0.25424 -37.7873,-1.9256 -40.83246,-3.55531 -1.33719,-0.71564 -1.50028,-0.48056 -1.90845,2.75132 -0.24549,1.9436 -1.01901,6.54548 -1.71897,10.22639 -1.04085,5.47372 -1.25808,10.82303 -1.19285,29.37289 l 0.0797,22.68035 2.66327,0.89541 c 3.83219,1.28839 12.38177,2.24424 21.06385,2.35492 l 7.52704,0.096 z m 18.06645,-7.39396 c -0.84803,-0.84805 -0.50353,-5.41375 0.60953,-8.07766 1.12656,-2.69622 8.63173,-10.74045 10.02071,-10.74045 1.66654,0 0.68088,2.13918 -1.88874,4.09913 -3.78927,2.89021 -6.98617,8.20693 -6.98617,11.61853 0,2.69797 -0.78003,4.07573 -1.75533,3.10045 z m -10.7612,-24.49502 c 0.1973,-1.02485 1.22583,-1.50785 4.08737,-1.91967 5.69818,-0.82005 11.50362,-3.2359 15.03037,-6.25467 3.10079,-2.65418 4.86733,-2.88033 3.34096,-0.42771 -2.46477,3.96043 -10.76891,7.97906 -19.49266,9.43309 -2.88612,0.48107 -3.20169,0.39263 -2.96604,-0.83104 z m -26.13005,-0.93417 c -1.93366,-1.31555 -0.22819,-1.76791 7.20594,-1.9114 8.10208,-0.15639 13.32846,-1.7288 18.71448,-5.63042 3.41088,-2.47083 4.54637,-2.73928 4.54637,-1.07487 0,1.4161 -5.67592,5.06282 -11.11795,7.14316 -4.62818,1.76921 -17.47606,2.74765 -19.34884,1.47353 z m 42.43606,-32.07058 c 2.19585,-0.41643 4.48366,-1.24835 5.08402,-1.8487 0.88908,-0.88907 1.12033,-4.36929 1.24669,-18.7628 0.17104,-19.48232 1.34091,-46.773873 2.08118,-48.552955 0.26022,-0.625336 -0.21449,-3.135045 -1.05501,-5.577132 -2.82628,-8.212165 -3.61653,-26.009816 -1.34632,-30.321683 0.65062,-1.235777 0.32036,-1.329682 -4.16595,-1.184444 -4.24569,0.137337 -5.02465,0.389772 -6.05426,1.961152 -4.75587,7.258406 -11.53523,11.579637 -18.17027,11.581961 -5.44665,0.0022 -9.31653,-2.065165 -14.15318,-7.559872 l -3.85341,-4.377701 -4.30271,1.469157 -4.30268,1.469156 -0.32629,10.889257 c -0.26259,8.762977 -0.72635,12.413884 -2.37514,18.697243 -2.37135,9.037071 -2.27438,12.772651 0.72838,28.062221 1.73488,8.83364 1.75277,9.27979 0.61164,15.24416 -1.49404,7.80887 -1.17886,23.78675 0.50236,25.46798 0.74272,0.74271 4.76132,1.45925 12.60748,2.24805 6.33451,0.63681 12.01921,1.27523 12.6327,1.4187 2.6137,0.61133 20.95231,0.37007 24.61077,-0.32375 z m -1.55863,-5.78939 c 0,-1.71213 3.44516,-8.6608 4.88755,-9.85786 2.18621,-1.8144 2.06342,0.19915 -0.27112,4.44577 -1.31207,2.38664 -2.38557,4.88247 -2.38557,5.54634 0,0.66384 -0.50195,1.20698 -1.11543,1.20698 -0.61349,0 -1.11543,-0.60356 -1.11543,-1.34123 z m -32.64786,-7.79272 c -2.53766,-0.90714 -4.51664,-3.02817 -3.64172,-3.90311 0.2568,-0.2568 1.36621,0.12224 2.46534,0.84255 1.27714,0.8368 3.51474,1.32796 6.19938,1.36075 3.21559,0.0393 4.20091,0.31292 4.20091,1.16673 0,1.45673 -5.71603,1.78708 -9.22391,0.53308 z m 11.82657,-4.31314 c 0,-3.87444 1.75833,-3.61752 2.08984,0.30537 0.17545,2.07743 -0.0469,2.73107 -0.92952,2.73107 -0.8619,0 -1.16032,-0.78091 -1.16032,-3.03644 z m -10.12933,-6.95548 c -1.27674,-0.55566 -2.86623,-1.78823 -3.53218,-2.73902 -1.55344,-2.21784 -1.61275,-5.8595 -0.0955,-5.8595 0.69405,0 1.11543,0.7023 1.11543,1.85905 0,2.50573 2.4857,4.83351 5.16142,4.83351 2.47283,0 3.72887,1.32418 2.18412,2.30261 -1.36007,0.86144 -2.07806,0.80253 -4.83337,-0.39665 z m 16.07827,-0.67244 c 0,-0.7678 1.29773,-1.39749 4.06354,-1.97167 2.96211,-0.61493 4.56161,-1.43547 5.90094,-3.02718 1.01057,-1.20099 2.19362,-2.18361 2.62901,-2.18361 1.04218,0 1.00091,0.41276 -0.29103,2.91112 -1.22883,2.37628 -4.51567,4.13268 -9.14209,4.88527 -2.55516,0.41568 -3.16037,0.2981 -3.16037,-0.61393 z m -7.13462,-1.52025 c -0.69135,-1.80162 0.0337,-7.39363 0.99977,-7.71134 0.67526,-0.22216 0.92953,0.9318 0.92953,4.21801 0,4.21691 -0.97451,5.98145 -1.9293,3.49333 z m -11.88236,-10.21245 c -0.71194,-1.15196 0.45315,-2.14232 2.52029,-2.14232 1.10327,0 3.16146,-0.3314 4.57373,-0.73643 2.48627,-0.71304 4.68396,0.0435 3.51678,1.21067 -0.88686,0.88686 -10.18975,2.34935 -10.6108,1.66808 z m 19.41612,-2.85575 c -1.6559,-1.82974 -0.9174,-2.94245 1.11182,-1.67518 0.79384,0.49576 2.81427,0.90138 4.48985,0.90138 4.23153,0 3.46272,1.79086 -0.89281,2.07969 -2.59378,0.17196 -3.63194,-0.11596 -4.70886,-1.30589 z m -24.02543,-7.47201 c -2.59253,-1.57661 -4.22916,-4.31958 -5.86593,-9.83125 -1.07783,-3.62941 -0.89314,-6.2628 0.38387,-5.47356 0.35577,0.21983 1.08001,1.99789 1.60939,3.95114 1.42921,5.27334 3.33127,8.67811 5.49485,9.83602 1.05954,0.56705 1.92643,1.28931 1.92643,1.60507 0,1.28398 -1.34815,1.25077 -3.54861,-0.0874 z m 40.42828,-14.00885 c -0.50068,-0.81017 5.28819,-9.781263 6.31169,-9.781263 1.22502,0 0.7224,1.666006 -1.5896,5.268973 -2.64602,4.12345 -4.10233,5.51506 -4.72209,4.51229 z m 2.01965,-16.287917 c -1.98525,-4.69088 -3.18757,-10.028033 -3.19684,-14.190711 -0.0139,-5.9907 1.72357,-4.604225 2.37993,1.89978 0.29133,2.887003 1.21137,7.04264 2.04457,9.234755 0.83318,2.192139 1.51503,4.403983 1.51524,4.91522 7.4e-4,1.917534 -1.60528,0.829017 -2.7429,-1.859044 z m -55.31605,0.39517 c 0.0365,-0.814355 -0.32884,-1.129881 -1.00681,-0.869708 -1.16594,0.447402 -2.64254,-3.649117 -2.64997,-7.351822 -0.002,-1.567011 -0.49609,-2.248212 -2.04911,-2.831766 -2.42076,-0.90963 -8.3657,-6.524478 -8.3657,-7.901216 0,-1.843544 1.91907,-0.936052 5.04496,2.385688 1.73191,1.840454 3.57336,3.34628 4.09206,3.34628 1.72335,0 3.33459,2.753964 3.86421,6.604765 0.28778,2.092308 0.77977,3.962785 1.09337,4.15659 0.7326,0.45277 1.52137,-7.097249 1.52137,-14.562357 0,-4.98677 -0.20449,-5.923193 -1.43834,-6.583479 -2.64465,-1.415384 -6.97325,-0.837105 -11.94678,1.596035 -4.64803,2.273867 -5.29623,2.382249 -16.89092,2.823563 -6.63158,0.252412 -12.1907,0.610231 -12.35358,0.79516 -0.1629,0.184975 -0.48479,3.387201 -0.71534,7.116211 l -0.41914,6.780004 8.68282,1.677764 c 11.4786,2.217979 20.39211,2.836251 19.83161,1.3756 -0.60765,-1.583511 3.68867,-5.403661 5.35235,-4.759107 1.20576,0.467155 1.13304,0.676994 -0.69923,2.017667 -3.0865,2.258367 -2.57733,3.072233 1.56557,2.502436 l 3.61052,-0.496574 0.9684,4.702615 0.96838,4.702592 0.94107,-2.974471 c 0.5176,-1.635959 0.96679,-3.549566 0.99823,-4.25247 z m -31.5466,-4.082345 c -4.12692,-0.762255 -4.91492,-1.087982 -4.63841,-1.917348 0.20775,-0.623059 1.84768,-0.822953 5.30178,-0.646227 4.37273,0.223782 5.36467,0.01394 7.89606,-1.660034 1.77622,-1.17545 3.07735,-1.62097 3.36668,-1.152816 1.54254,2.495883 -6.90458,6.303925 -11.92611,5.376425 z m 97.6609,-1.118192 c 0.28314,-0.291289 2.85308,0.326588 5.71101,1.373067 6.29198,2.303867 10.58679,2.084081 18.95319,-0.96991 5.26577,-1.922182 6.13761,-2.019154 15.61597,-1.736789 18.25872,0.543887 26.08174,0.241839 31.60375,-1.220253 l 5.20532,-1.378225 0.221,-4.208993 c 0.24844,-4.731151 0.65731,-4.439211 -7.6572,-5.467239 -2.04494,-0.25283 -6.57114,-1.200315 -10.05822,-2.10553 -5.65611,-1.468273 -7.08795,-1.568452 -13.27204,-0.928639 -5.60787,0.580184 -8.37392,0.474684 -14.48118,-0.552229 -4.15208,-0.698164 -10.80184,-1.262314 -14.77727,-1.253647 -6.57646,0.01394 -7.62377,-0.185439 -11.61807,-2.21512 -5.01775,-2.549842 -9.36554,-2.938336 -10.40282,-0.929522 -1.91976,3.717809 -1.47366,20.631624 0.70935,26.893768 l 0.88181,2.529625 1.42533,-3.650373 c 0.78391,-2.007721 1.65694,-3.888725 1.94005,-4.179991 z m -1.10427,-4.703776 c -1.13134,-2.948212 5.68019,-13.998742 7.8154,-12.679123 0.60326,0.372855 0.0792,1.4732 -1.68104,3.529651 -1.51027,1.764419 -2.91635,4.483573 -3.43377,6.640436 -0.88314,3.681326 -1.8913,4.617982 -2.70059,2.509036 z m 11.44179,0.0897 c -4.07695,-1.096626 -4.83944,-1.642512 -3.77755,-2.704397 0.51604,-0.516048 1.45186,-0.487326 2.92488,0.0897 3.2758,1.283438 12.83726,1.126883 16.09263,-0.263473 1.9345,-0.826229 2.92393,-0.938747 3.27398,-0.372343 0.73681,1.192159 -1.61674,2.620834 -5.79296,3.516475 -4.68891,1.00558 -8.27205,0.930661 -12.72098,-0.266029 z m 32.65132,0.289128 c -2.53689,-0.760233 -4.93952,-2.795444 -4.93952,-4.184174 0,-1.415243 1.29196,-1.240028 3.06991,0.41638 0.83626,0.779102 2.66273,1.630846 4.0588,1.892739 1.50717,0.282738 2.53832,0.915626 2.53832,1.557926 0,1.190578 -1.48124,1.289967 -4.72751,0.317129 z m 1.75304,-3.978703 c 0,-0.962822 1.90826,-1.978557 5.75081,-3.061055 2.78694,-0.785098 12.09601,0.417169 12.09601,1.562201 0,0.771573 -1.49853,0.978578 -6.51962,0.900637 -3.72506,-0.05786 -7.21028,0.2684 -8.1309,0.761093 -2.13567,1.142987 -3.1963,1.088935 -3.1963,-0.162899 z M 125.7774,80.956213 c 0.16987,-0.511237 -0.22099,-0.929522 -0.86845,-0.929522 -0.64757,0 -1.1774,-0.517512 -1.1774,-1.150005 0,-0.632516 -0.9856,-1.715665 -2.19019,-2.40702 -3.35432,-1.92511 -3.80541,-5.366387 -0.70346,-5.366387 1.79547,0 5.86812,-2.019456 5.86812,-2.909776 0,-0.352405 -3.26262,-1.052614 -7.25027,-1.55602 -5.55468,-0.701254 -8.81542,-0.717823 -13.94283,-0.07088 -3.68091,0.464459 -11.461005,1.058029 -17.289108,1.319062 -5.828103,0.261056 -10.596551,0.757165 -10.596551,1.102483 0,0.345317 -0.501942,0.627869 -1.115427,0.627869 -0.613484,0 -1.115426,0.501942 -1.115426,1.115426 0,0.613485 -0.540959,1.115427 -1.202128,1.115427 -0.881256,0 -1.107246,-0.496179 -0.846725,-1.859045 0.334768,-1.751266 0.168941,-1.859044 -2.861626,-1.859044 -2.390499,0 -3.409719,0.36012 -3.967154,1.401696 -0.647993,1.210749 -3.124286,2.398864 -5.622911,2.697799 -2.50806,0.300096 -5.612268,1.31855 -5.218616,1.712203 0.255689,0.255688 1.635448,0.364024 3.066145,0.240769 1.475709,-0.127112 3.37772,0.28462 4.395663,0.951598 2.340049,1.53327 4.487988,1.463138 8.308208,-0.271281 2.775994,-1.260316 3.54522,-1.313577 7.064367,-0.489091 2.172014,0.50889 6.793482,2.026544 10.269894,3.372585 3.476413,1.346041 8.328518,2.889721 10.782456,3.430378 5.862429,1.29164 25.766599,1.125163 26.213419,-0.219135 z m -21.3799,-2.198297 c -1.96583,-0.718613 -4.46171,-3.409231 -4.46171,-4.809788 0,-1.903359 1.73047,-1.694333 2.61224,0.315526 0.46397,1.057541 1.76005,1.926597 3.5226,2.362009 1.53372,0.378873 2.78857,1.131786 2.78857,1.673139 0,0.984759 -2.35952,1.227574 -4.4617,0.459114 z m 231.13998,-0.29259 c 0.77936,-0.04648 0.60222,-0.253899 -0.47652,-0.557713 -2.62752,-0.740039 -1.7306,-1.860834 2.42029,-3.024316 5.01896,-1.406809 7.54061,-1.303237 9.48533,0.389562 l 1.61702,1.407552 -1.47861,-2.602661 c -1.3578,-2.390034 -1.84006,-2.644072 -5.90279,-3.1096 -2.4333,-0.278834 -5.42808,-0.683431 -6.65505,-0.899127 -1.22697,-0.215649 -5.82811,-0.537124 -10.22475,-0.714291 l -7.99389,-0.322103 v 3.829259 3.829236 l 3.40143,-0.270537 3.40142,-0.270514 -1.54238,-1.436949 c -1.58495,-1.476592 -2.02761,-2.866227 -0.913,-2.866227 1.47601,0 5.37108,2.448128 5.11539,3.215147 -0.34067,1.022033 6.13129,4.319001 7.51526,3.828445 0.5447,-0.193108 1.54858,-0.384403 2.23085,-0.425163 z M 126.70602,74.890965 v -2.904872 l -2.50746,0.769574 -2.50745,0.769552 2.32155,2.113524 c 1.27684,1.162413 2.40521,2.123307 2.50746,2.135298 0.10224,0.01162 0.1859,-1.28539 0.1859,-2.883076 z m -73.215751,0.624546 c 0.800318,-1.294964 -0.111078,-1.569219 -1.131089,-0.340298 -0.586529,0.706716 -0.64295,1.13339 -0.149886,1.13339 0.434924,0 1.011344,-0.35689 1.280928,-0.793092 z M 357.9711,73.334179 c 1.31895,-0.422399 0.28,-0.616901 -3.57608,-0.669489 -3.45148,-0.04717 -5.26737,0.197291 -4.97552,0.669489 0.53494,0.86557 5.84888,0.86557 8.5516,0 z M 61.205697,69.88442 c 0.170335,-0.147562 -1.251741,-0.26833 -3.160375,-0.26833 -1.908611,0 -3.470208,0.338579 -3.470208,0.752402 0,0.674996 5.77942,0.253062 6.630583,-0.484072 z M 208.36592,66.942948 c 2.16953,-1.081128 5.06453,-3.384785 6.58406,-5.239158 l 2.71197,-3.30961 -2.41122,-2.012996 c -1.92992,-1.611164 -2.43574,-2.616373 -2.53406,-5.035825 l -0.12293,-3.022829 -2.90014,2.095189 c -4.16563,3.009397 -9.44368,2.957181 -13.71326,-0.13571 -1.69377,-1.22697 -3.20703,-2.230853 -3.3628,-2.230853 -0.15569,0 -0.49469,1.322547 -0.75317,2.939009 -0.43155,2.698774 -1.75877,4.216126 -6.31643,7.221364 -0.15151,0.09992 0.8369,1.586252 2.19656,3.302963 5.8185,7.346455 12.986,9.233245 20.6213,5.428409 z m -10.05006,-5.692556 c -3.03001,-3.326667 -4.20012,-7.250272 -2.16221,-7.250272 0.56915,0 1.23831,0.810776 1.48703,1.801739 0.24869,0.99094 1.27953,2.784964 2.29071,3.986697 1.64526,1.955249 1.79519,3.134976 0.39846,3.134976 -0.26953,0 -1.17584,-0.752913 -2.01399,-1.67314 z m 6.65498,-2.416757 c 0.0342,-2.253696 0.37169,-3.34628 1.03407,-3.34628 1.37944,0 2.04732,3.270454 1.04887,5.136051 -1.33679,2.497835 -2.13736,1.809942 -2.08294,-1.789771 z m 3.67294,-10.45308 c 2.95339,-2.227739 4.45764,-4.720462 4.83347,-8.009575 0.19496,-1.706231 0.54737,-3.604199 0.78312,-4.217683 0.23575,-0.613485 0.36377,-1.401627 0.28448,-1.751406 -0.0792,-0.349802 0.23968,-1.098462 0.70876,-1.663682 0.46911,-0.565219 0.61118,-1.617531 0.31574,-2.338491 -0.29543,-0.720937 -0.80725,-3.820498 -1.13737,-6.887921 -0.33012,-3.067423 -0.96545,-6.52715 -1.41185,-7.688262 l -0.81161,-2.111154 -6.24072,0.519858 c -4.23276,0.352591 -7.1263,0.227501 -8.9931,-0.388517 -4.16879,-1.375832 -5.00408,-0.1055 -5.56837,8.468039 -0.25423,3.862443 -0.88063,7.526781 -1.39203,8.142961 -0.64753,0.780241 -0.70758,1.533061 -0.19776,2.479919 1.25504,2.330985 1.84276,4.194724 2.65641,8.423979 0.72278,3.756803 1.08966,4.292626 4.50493,6.579227 3.11148,2.083198 4.21931,2.433349 6.79021,2.146243 1.68966,-0.188693 3.88373,-0.955293 4.87569,-1.703535 z m -9.62095,-5.272691 c -4.32149,-2.130348 -3.11432,-3.236479 3.53218,-3.236479 6.20652,0 6.85502,0.412034 4.66825,2.965965 -1.55288,1.81366 -4.84948,1.922391 -8.20043,0.270514 z m -0.1464,-7.278854 c -0.64525,-0.777453 -0.67,-1.472015 -0.0911,-2.553769 0.43736,-0.817236 0.7952,-2.158792 0.7952,-2.981256 0,-1.252299 -0.56456,-1.532224 -3.47318,-1.722033 -3.2088,-0.209375 -3.49498,-0.391189 -3.75917,-2.388221 -0.16546,-1.250811 0.12293,-2.420986 0.68464,-2.777179 1.64699,-1.04462 7.03546,-0.727258 8.0316,0.473033 0.96447,1.162112 1.17571,6.033342 0.37151,8.56715 -0.26747,0.842704 -0.12781,1.475709 0.32536,1.475709 1.23782,0 0.93175,2.018759 -0.38253,2.523094 -1.55039,0.594964 -1.48323,0.61151 -2.50239,-0.616528 z m 5.44621,-0.01859 c -0.25525,-0.665119 -0.3033,-1.370092 -0.1069,-1.56657 0.62971,-0.629728 2.87365,0.575142 2.59999,1.396049 -0.44668,1.340092 -2.00351,1.446569 -2.49316,0.170568 z m 1.90176,-9.081407 c -1.05859,-2.784267 -0.37344,-3.961762 2.30512,-3.961762 2.88272,0 5.17976,1.187999 5.17976,2.678929 0,0.821372 -0.46699,1.011715 -1.67314,0.681944 -1.44415,-0.394815 -1.49504,-0.345736 -0.37181,0.358656 2.14971,1.348085 1.48101,2.229412 -1.69154,2.229412 -2.55968,0 -3.10224,-0.287641 -3.74844,-1.987272 z m 11.48487,7.564404 0.47384,-2.230853 -1.09511,1.859044 c -0.60231,1.022474 -1.10699,2.344255 -1.12147,2.93729 -0.043,1.755123 1.21984,-0.103642 1.74274,-2.565481 z m -27.79576,2.274657 c 0,-0.180328 -0.33462,-0.534754 -0.74361,-0.787515 -0.40899,-0.25276 -0.74362,-0.105268 -0.74362,0.327912 0,0.433134 0.33463,0.787515 0.74362,0.787515 0.40899,0 0.74361,-0.147562 0.74361,-0.327912 z"
     id="path817"
     inkscape:connector-curvature="0" />
</svg>
