<?xml version="1.0" encoding="UTF-8" standalone="no"?>
<svg
   xmlns:dc="http://purl.org/dc/elements/1.1/"
   xmlns:cc="http://creativecommons.org/ns#"
   xmlns:rdf="http://www.w3.org/1999/02/22-rdf-syntax-ns#"
   xmlns:svg="http://www.w3.org/2000/svg"
   xmlns="http://www.w3.org/2000/svg"
   xmlns:sodipodi="http://sodipodi.sourceforge.net/DTD/sodipodi-0.dtd"
   xmlns:inkscape="http://www.inkscape.org/namespaces/inkscape"
   id="svg"
   version="1.1"
   width="400"
   height="377.93103448275866"
   viewBox="0, 0, 400,377.93103448275866"
   sodipodi:docname="A3.svg"
   inkscape:version="0.92.5 (2060ec1f9f, 2020-04-08)">
  <metadata
     id="metadata11">
    <rdf:RDF>
      <cc:Work
         rdf:about="">
        <dc:format>image/svg+xml</dc:format>
        <dc:type
           rdf:resource="http://purl.org/dc/dcmitype/StillImage" />
      </cc:Work>
    </rdf:RDF>
  </metadata>
  <defs
     id="defs9" />
  <sodipodi:namedview
     pagecolor="#ffffff"
     bordercolor="#666666"
     borderopacity="1"
     objecttolerance="10"
     gridtolerance="10"
     guidetolerance="10"
     inkscape:pageopacity="0"
     inkscape:pageshadow="2"
     inkscape:window-width="1366"
     inkscape:window-height="693"
     id="namedview7"
     showgrid="false"
     inkscape:zoom="0.94316065"
     inkscape:cx="-24.027335"
     inkscape:cy="138.74757"
     inkscape:window-x="0"
     inkscape:window-y="0"
     inkscape:window-maximized="1"
     inkscape:current-layer="svg" />
  <path
     style="fill:#ffffff;stroke-width:0.83301109"
     d="m 190.7615,373.35602 c -1.10273,-2.8737 -0.4389,-5.57336 1.91001,-7.76759 3.32557,-3.10651 4.23935,-7.1647 4.23797,-18.82064 -0.002,-11.34592 -1.3917,-18.35295 -6.28093,-31.65442 -2.82994,-7.699 -3.0705,-9.06623 -3.17507,-18.0464 -0.0846,-7.27066 -0.35656,-9.51445 -1.08023,-8.91442 -1.44877,1.20123 -1.89297,-0.0265 -3.22881,-8.9254 -0.93682,-6.24056 -1.91277,-9.34568 -4.40944,-14.02905 -5.08626,-9.54105 -5.29003,-10.51565 -6.02272,-28.80426 -1.13284,-28.27625 -2.21443,-40.71487 -4.20116,-48.31467 -1.56887,-6.00135 -1.88029,-9.61995 -2.04317,-23.74079 -0.27354,-23.71616 -1.12219,-30.35956 -4.47457,-35.02765 -5.38208,-7.49441 -7.43423,-13.53169 -8.82099,-25.95071 -0.7059,-6.321489 -1.67201,-13.367878 -2.14693,-15.658659 -0.47492,-2.29078 -1.06469,-5.560375 -1.31061,-7.265757 -0.76197,-5.284284 3.24562,-17.260458 10.6419,-31.801968 4.99905,-9.828412 6.91696,-14.520737 7.43603,-18.193014 0.45321,-3.206416 1.70395,-6.634882 3.55256,-9.738134 1.56918,-2.634216 3.30978,-6.693323 3.86803,-9.020235 0.5582,-2.3269381 1.49294,-4.8844908 2.07719,-5.6835046 1.39147,-1.9029279 3.8022,-0.9723843 3.8022,1.4676614 0,1.7350061 0.16426,1.6753931 2.29078,-0.8315793 1.90177,-2.2419531 2.78588,-2.6578677 5.20632,-2.449149 4.24573,0.3661162 4.30339,2.279475 0.38303,12.7097375 -0.34442,0.916312 0.7697,0.07289 2.47584,-1.874275 3.27527,-3.738033 4.96725,-4.389188 5.79562,-2.23044 0.64918,1.691716 -0.4789,3.775597 -5.4426,10.053898 -5.34794,6.76431 -5.29801,7.7955 0.37743,7.7955 4.56872,0 7.92802,1.544559 6.91703,3.180384 -0.6676,1.080207 -9.85433,3.922311 -15.88166,4.913308 -3.40829,0.560382 -4.39354,1.136774 -5.66529,3.314291 -2.7014,4.62545 -4.76878,11.674624 -6.49332,22.140393 -0.92303,5.601583 -2.22861,11.844611 -2.9013,13.873383 -1.76481,5.322472 -1.55106,6.902148 1.55917,11.523954 2.66308,3.957323 4.27155,7.976836 6.37112,15.921495 0.5449,2.06181 1.93199,4.46424 3.19379,5.53164 1.2268,1.0378 3.28069,2.86506 4.56423,4.06059 1.28354,1.19555 2.68925,2.17371 3.12379,2.17371 1.37973,0 0.91223,-7.19177 -0.54619,-8.40214 -2.37258,-1.96905 -3.0677,-5.15618 -3.21092,-14.72193 -0.16062,-10.71989 0.19393,-11.626831 6.62142,-16.93811 3.63992,-3.007846 4.32822,-3.254392 9.08563,-3.254392 7.38916,0 11.93274,2.452073 14.66351,7.913606 2.14326,4.286545 2.13418,4.171693 1.72759,21.834076 -0.0338,1.47115 -0.73693,3.34543 -1.56239,4.16506 -2.29919,2.28297 -4.57755,8.14539 -3.94283,10.14524 0.78894,2.48576 4.08686,2.32025 5.26443,-0.26419 0.50665,-1.112 2.61388,-3.26741 4.68277,-4.78982 3.26363,-2.40159 3.76588,-3.17583 3.79408,-5.8488 0.0458,-4.34028 3.87772,-15.979915 6.17355,-18.752384 2.55354,-3.083599 2.98202,-5.141761 2.07427,-9.963567 -0.4165,-2.212504 -1.12545,-8.497494 -1.57538,-13.966681 -0.81552,-9.912806 -4.52624,-26.292016 -5.95647,-26.292016 -0.40992,0 -3.41415,-1.874275 -6.67612,-4.165056 -3.26194,-2.29078 -6.5996,-4.165055 -7.41702,-4.165055 -2.25291,0 -2.87183,-1.769029 -1.08706,-3.107132 1.09877,-0.82377 2.73093,-1.037255 5.32019,-0.69585 l 3.73517,0.492466 -5.09884,-5.217097 c -5.54637,-5.675018 -7.33141,-8.444155 -6.62684,-10.280242 0.83229,-2.1689011 3.52872,-1.2233811 6.28208,2.202846 3.42802,4.265694 4.0652,3.799259 1.33485,-0.977148 -2.19582,-3.8412751 -2.7385,-7.7557163 -1.20646,-8.702561 0.49808,-0.3078288 1.29587,-0.1693876 1.7729,0.3076414 0.60113,0.6010982 1.36375,0.5660337 2.48456,-0.1142266 1.3878,-0.8423252 1.9038,-0.6270647 3.63753,1.5174755 1.52993,1.892471 2.0213,2.1451857 2.02442,1.0412638 0.005,-1.7045828 1.90513,-1.9325909 3.19124,-0.3829248 0.49062,0.5911776 2.83162,4.9957237 5.20221,9.7878807 3.24601,6.561837 4.49113,10.152687 5.04307,14.544113 0.4031,3.207093 1.85358,9.204773 3.22331,13.328178 4.33088,13.037717 8.29677,27.983966 8.82045,33.241541 0.3168,3.180723 0.0104,7.877136 -0.82041,12.574069 -0.72936,4.123404 -1.32946,9.933656 -1.33358,12.911676 -0.013,9.31046 -1.3696,14.91555 -5.74655,23.74081 -3.9952,8.05553 -6.00125,14.24051 -7.15981,22.0748 -0.30491,2.0617 -1.62309,8.43423 -2.92936,14.16118 -1.30624,5.72695 -2.49201,12.94929 -2.635,16.04965 -0.25433,5.51404 -0.20591,5.66505 2.21508,6.92113 3.09982,1.60821 3.73387,2.60264 3.74988,5.88114 0.008,1.43663 0.57272,3.68576 1.25715,4.99806 1.8415,3.53093 1.54297,6.90494 -1.29107,14.59128 -2.36551,6.41562 -2.49276,7.31478 -1.79756,12.70246 0.57746,4.47517 0.37251,8.56713 -0.8983,17.93455 -2.29913,16.94751 -2.2801,33.42489 0.0484,41.8655 3.8735,14.04121 3.30669,21.04707 -1.77176,21.89898 -6.03639,1.01258 -15.81321,1.93881 -16.73428,1.58535 -2.22568,-0.85407 -4.1113,25.69399 -2.18486,30.76094 0.43533,1.14502 1.7165,2.26818 2.93655,2.57439 2.95195,0.74091 8.78636,6.15254 8.78636,8.14971 0,2.15802 -1.19958,4.37586 -5.23149,9.6721 -1.84613,2.42505 -3.98877,6.36102 -4.76136,8.74661 -2.07277,6.39995 -4.9465,8.08596 -13.78206,8.08596 -5.49454,0 -6.96941,-0.26354 -7.37392,-1.31764 z m 8.51352,-2.0144 c 5.45779,0 7.29588,-1.51488 7.96583,-6.56504 0.43855,-3.30606 1.28557,-4.94848 4.25562,-8.25186 2.03944,-2.26837 4.10622,-5.17151 4.59285,-6.45149 0.61688,-1.62244 1.14917,-2.06285 1.75776,-1.45428 0.60859,0.60859 0.46087,1.72181 -0.48778,3.67595 -1.20362,2.47933 -1.20763,2.61063 -0.0346,1.13698 2.57577,-3.23625 2.50538,-5.38031 -0.26766,-8.15336 l -2.57582,-2.57582 -2.08459,2.24928 c -2.61714,2.82396 -5.40515,3.89834 -10.11619,3.89834 h -3.69432 v 5.3977 c 0,5.2492 -1.92634,12.09553 -3.40329,12.09553 -0.39787,0 -1.32092,0.91199 -2.05129,2.02667 -1.07573,1.64178 -1.13938,2.37897 -0.33511,3.88175 0.88417,1.65209 1.07748,1.70377 1.76661,0.47237 0.55078,-0.9842 1.9089,-1.38272 4.71211,-1.38272 z m 13.59932,-12.43779 c 0.50254,-0.71879 -0.0703,-0.25511 -1.27273,1.03033 -1.20258,1.28549 -2.17182,3.15976 -2.15388,4.16505 0.026,1.4465 0.29134,1.23153 1.27276,-1.03033 0.68208,-1.57202 1.65131,-3.4463 2.15385,-4.16505 z m -3.40613,-14.09406 1.90369,-1.54151 -2.01963,-2.8318 c -1.76757,-2.47831 -2.05582,-3.92184 -2.30932,-11.56414 -0.2335,-7.03853 -0.60778,-9.17911 -1.92977,-11.03568 -0.98579,-1.38441 -1.51384,-3.21792 -1.32358,-4.59583 0.31134,-2.2547 0.34224,-2.23754 1.87399,1.03955 l 1.55745,3.33204 0.58198,-2.49903 c 1.03338,-4.43737 0.84595,-10.15316 -0.3659,-11.15891 -0.62975,-0.52264 -1.36228,-2.72395 -1.62788,-4.89181 -0.26558,-2.16786 -0.89351,-5.81582 -1.3954,-8.1066 -0.82955,-3.78638 -0.58818,-13.38251 0.50291,-19.99227 l 0.41249,-2.49903 -2.74688,3.30849 c -1.51077,1.81966 -5.13129,5.74959 -8.04561,8.73318 l -5.29873,5.42472 0.39469,10.42605 c 0.36629,9.67571 0.67027,11.23542 4.22358,21.67172 3.76542,11.05931 6.19786,22.45569 5.15358,24.14537 -0.29228,0.47292 -0.29452,1.60623 -0.005,2.51843 0.72318,2.27857 7.69767,2.35659 10.46337,0.11714 z m -3.31332,-2.30494 c -0.94331,-1.19925 -1.4862,-2.55086 -1.20641,-3.00358 0.5526,-0.89413 4.46666,2.88675 4.46666,4.31466 0,1.53371 -1.49562,0.93227 -3.26025,-1.31108 z M 190.87486,295.0459 c -1.24204,-1.24202 -0.56415,-2.00732 1.77807,-2.00732 1.31834,0 2.86368,-0.56229 3.43403,-1.24952 0.57035,-0.68723 1.36596,-1.24952 1.76802,-1.24952 1.12826,0 0.86435,2.18437 -0.38964,3.22511 -1.47628,1.2252 -5.805,2.06675 -6.59048,1.28125 z m 4.65789,-7.10212 c 0.29231,-1.09219 0.53659,-2.82922 0.54284,-3.86007 0.008,-1.03085 0.40776,-1.87428 0.89228,-1.87428 1.33909,0 0.58996,6.87823 -0.79899,7.33563 -0.8706,0.28671 -1.03238,-0.12053 -0.63613,-1.60128 z m 32.5316,14.96213 3.23849,-0.8302 -0.4409,-6.43288 c -0.67856,-9.90003 -2.84223,-16.61974 -5.96436,-18.52362 -4.60522,-2.80823 -8.81836,-1.6977 -8.81836,2.32442 0,2.38928 -2.16117,7.88895 -5.01704,12.76735 -2.85278,4.87306 -3.75724,8.3247 -2.18142,8.3247 0.63986,0 1.65701,-0.5948 2.26032,-1.32176 0.80464,-0.96949 1.88628,-1.18121 4.05882,-0.7944 8.15273,1.45147 10.12926,1.46279 11.67171,0.0669 1.07943,-0.97689 1.71093,-1.11051 2.12001,-0.44861 0.32043,0.51848 0.45137,1.04205 0.29093,1.16349 -4.39119,3.32426 -7.83933,3.83265 -11.84078,1.74575 -3.06014,-1.59597 -3.20694,-1.58261 -5.90199,0.53735 -1.7575,1.38243 -2.01601,1.94841 -1.15361,2.52569 1.27541,0.8537 12.86426,0.12989 17.67818,-1.10418 z m -9.01383,-11.3251 c 0.35778,-0.80178 0.86646,-3.7069 1.13037,-6.45584 0.55533,-5.7838 2.16888,-6.1036 2.10151,-0.4165 -0.0625,5.26538 -1.00409,8.33011 -2.55961,8.33011 -0.95226,0 -1.14058,-0.40834 -0.67227,-1.45777 z m -8.30939,-3.69217 c 3.00298,-5.96316 3.01173,-6.01207 2.64101,-14.78595 -0.41393,-9.79712 -3.31905,-23.77174 -3.7952,-18.25627 -0.14447,1.67305 0.32009,4.43654 1.03231,6.14109 1.77489,4.24792 1.65553,4.89334 -1.0972,5.93237 -2.39106,0.90254 -2.39238,0.90717 -2.9953,10.55657 -0.53055,8.49106 -0.11168,16.39514 0.86859,16.39514 0.18301,0 1.68865,-2.69232 3.34579,-5.98295 z M 194.68597,277.0822 c 3.12379,-3.36513 6.81054,-7.35812 8.19279,-8.87329 1.38225,-1.51517 3.44096,-3.1076 4.57489,-3.53873 1.37557,-0.52301 1.83713,-1.1309 1.38684,-1.82667 -0.37119,-0.57355 -0.90879,-4.9788 -1.1947,-9.78944 -0.2859,-4.81065 -0.94065,-12.6826 -1.45501,-17.49324 -0.51435,-4.81064 -1.25696,-13.04587 -1.65027,-18.30053 l -0.71506,-9.5539 3.12236,-5.10131 c 1.71728,-2.80574 3.75183,-6.3186 4.52117,-7.80638 1.39789,-2.7032 1.39753,-2.70463 -0.53576,-2.11655 -4.41441,1.34278 -7.1741,4.57911 -12.2462,14.36142 -5.92114,11.41983 -9.13727,14.98571 -14.83858,16.45236 l -4.00519,1.03033 8.33011,2.56713 c 4.58156,1.41193 9.29424,2.79403 10.47264,3.07134 3.58072,0.84267 4.97573,4.41233 5.52671,14.14198 0.37043,6.54122 0.77884,8.74735 1.61937,8.74735 2.25601,0 0.74065,10.39364 -1.8259,12.52367 -1.90984,1.58501 -2.3246,0.42333 -0.86006,-2.40875 0.72102,-1.39431 1.26685,-4.14684 1.21297,-6.11675 l -0.0979,-3.58166 -0.6515,3.85543 c -0.89363,5.28861 -3.62732,9.88922 -5.87613,9.88922 -1.3727,0 -0.82174,-2.06816 0.82489,-3.09651 2.50574,-1.56484 3.67568,-8.68435 3.20391,-19.49718 -0.22751,-5.21249 -0.6701,-10.07776 -0.98373,-10.8118 -0.32756,-0.76658 -2.4749,-1.76081 -5.04562,-2.33613 -4.0248,-0.90069 -16.42401,-4.83368 -19.59823,-6.21648 -1.08268,-0.47164 -1.23377,1.15318 -1.13154,12.16852 0.13432,14.46205 0.82892,17.86914 5.30961,26.04106 3.19684,5.83043 4.45476,9.84879 5.4115,17.2868 0.63686,4.95124 1.21729,4.71453 9.0017,-3.67131 z m -8.94927,-17.9888 c -0.68206,-3.21157 0.0716,-19.73893 0.9116,-19.99467 0.3806,-0.11584 0.79633,4.85099 0.92381,11.03741 0.13796,6.70126 -0.0877,11.24804 -0.55859,11.24804 -0.43468,0 -1.00925,-1.03085 -1.27682,-2.29078 z m 10.91281,-34.07685 c -0.27659,-0.27656 0.60747,-2.60923 1.96452,-5.18367 1.35708,-2.57445 2.46821,-5.33682 2.4692,-6.13859 8.3e-4,-0.80177 0.56408,-1.45777 1.25131,-1.45777 1.79316,0 1.56307,1.41695 -1.16736,7.18849 -2.41497,5.10477 -3.57218,6.53706 -4.51767,5.59154 z m 29.72581,45.32247 c -0.25875,-2.86347 -0.0469,-8.76741 0.47065,-13.11989 2.9006,-24.393 2.98692,-26.3658 1.41297,-32.29632 -1.83455,-6.91251 -4.88046,-12.64875 -9.32616,-17.5636 -3.33405,-3.68589 -3.42935,-3.72744 -5.3932,-2.3519 -3.5271,2.47048 -7.47281,8.11327 -7.02095,10.04073 0.22829,0.97353 0.77037,7.39286 1.20479,14.26521 0.57858,9.1532 1.25522,13.72055 2.52985,17.07672 2.10862,5.55203 5.82595,21.43245 5.82595,24.88835 0,2.36724 0.14448,2.47282 2.79549,2.04262 1.74458,-0.28312 3.70174,0.0372 5.20631,0.85202 1.32595,0.71813 2.49045,1.32068 2.58775,1.33904 0.0974,0.0182 -0.0349,-2.3095 -0.29345,-5.17298 z m -3.95938,1.38965 c -0.76286,-1.98796 -0.60638,-7.01247 0.2184,-7.01247 0.39821,0 0.9286,1.21828 1.17866,2.70729 0.24991,1.489 0.71405,3.36328 1.03111,4.16505 0.39418,0.99667 0.18118,1.45777 -0.67302,1.45777 -0.68723,0 -1.47703,-0.59295 -1.75512,-1.31764 z m -8.00274,-26.17171 c 0,-4.73569 1.10137,-6.60575 2.20173,-3.73832 0.67128,1.74935 -0.4642,8.7364 -1.41977,8.7364 -0.43009,0 -0.78196,-2.24914 -0.78196,-4.99808 z m -1.91978,-32.66197 c -1.23371,-2.54738 -1.19021,-3.99052 0.12027,-3.99052 0.33065,0 1.12298,1.21828 1.7607,2.70729 0.63772,1.48901 1.31342,2.98843 1.50155,3.33205 0.18821,0.34361 -0.20461,0.62475 -0.87281,0.62475 -0.66818,0 -1.79756,-1.2031 -2.50973,-2.67357 z m -26.73671,7.75041 c 4.0457,-1.83733 5.36548,-3.59957 11.09464,-14.81409 5.57592,-10.91447 8.46743,-13.57797 17.84591,-16.43858 8.79985,-2.68412 10.54509,-4.51006 10.54509,-11.03264 0,-2.47297 1.15856,-9.36978 2.5746,-15.32623 l 2.57458,-10.82993 -3.23974,-5.17841 c -3.8943,-6.22467 -5.68689,-10.57156 -6.42949,-15.59108 -0.30501,-2.0617 -1.35117,-5.52919 -2.32481,-7.70553 -1.61002,-3.59892 -1.89517,-3.8439 -3.15109,-2.70729 -0.7595,0.68734 -1.99832,1.2497 -2.75295,1.2497 -0.7546,0 -2.59939,0.74831 -4.09946,1.6629 -1.65951,1.0118 -4.19514,1.66272 -6.47595,1.66238 -3.65905,-5e-4 -15.30226,-3.48938 -14.82023,-4.44086 0.13328,-0.26331 -0.50481,-1.0252 -1.41823,-1.6931 -1.89945,-1.38891 -2.88693,-0.50538 -2.90804,2.60199 -0.013,1.85381 -3.5979,12.71456 -6.17732,18.71268 -0.73209,1.70242 -2.67564,4.43985 -4.31896,6.08317 l -2.98788,2.98788 -0.46188,11.01577 c -0.55759,13.2992 0.20747,22.31725 1.84044,21.69067 0.61231,-0.23507 2.32738,0.2007 3.81123,0.9679 1.48383,0.76731 4.04794,1.46452 5.69801,1.54933 1.65006,0.0849 3.10163,0.51498 3.22575,0.95593 0.43876,1.55888 -5.61223,1.30856 -9.45462,-0.39113 l -3.85942,-1.7072 0.60497,2.28302 c 0.33277,1.25569 1.08516,5.28187 1.67199,8.94712 0.58683,3.66524 1.10405,5.82069 1.1494,4.78981 0.0471,-1.07404 0.61588,-1.87428 1.33193,-1.87428 1.54945,0 1.5501,0.41034 0.0104,5.49046 -1.55427,5.12349 -1.70291,17.51575 -0.21736,18.1152 2.33235,0.94112 7.91128,0.42159 11.11978,-1.03556 z m -7.98178,-6.43048 c 0.008,-0.40089 2.08664,-1.62617 4.61959,-2.72288 2.57971,-1.11694 5.646,-3.25645 6.97124,-4.86421 2.63307,-3.19434 4.43617,-2.36091 2.21761,1.02502 -2.30734,3.52145 -13.85618,9.00969 -13.80844,6.56207 z m 14.6244,-18.54004 c -0.59493,-0.96262 0.40312,-1.53654 7.43618,-4.27632 8.45735,-3.29461 13.06091,-7.14791 18.17898,-15.21632 1.90411,-3.00173 3.47118,-2.13824 1.8409,1.01437 -1.95494,3.78049 -9.59709,11.67655 -12.96295,13.39367 -1.70525,0.86995 -4.92781,2.29976 -7.16124,3.17734 -2.2334,0.87758 -4.67884,1.85652 -5.43427,2.17544 -0.75542,0.31888 -1.60936,0.1981 -1.8976,-0.26818 z m 9.4207,-29.15599 c -3.04499,-3.04499 -4.07715,-5.09605 -2.56445,-5.09605 0.36829,0 1.94125,1.312 3.49547,2.91554 1.55421,1.60355 3.3146,2.91554 3.91195,2.91554 0.59737,0 1.08611,0.56228 1.08611,1.24952 0,2.21005 -2.60711,1.33742 -5.92908,-1.98455 z m -25.18205,-2.77569 c -0.82075,-6.83372 -0.6371,-19.6573 0.28973,-20.2301 0.45815,-0.28317 0.83577,-0.21163 0.83915,0.15906 0.0234,2.49052 0.8244,19.45138 1.01232,21.41786 0.42981,4.49753 -1.59204,3.22573 -2.1412,-1.34688 z m 30.9583,-0.25173 c -1.39149,-1.39149 2.8988,-7.8996 5.20762,-7.8996 2.0982,0 2.04231,0.25355 -0.68148,3.09195 -1.25993,1.31293 -2.66652,3.05898 -3.12577,3.88009 -0.45922,0.82112 -1.08939,1.23853 -1.40037,0.92756 z m -7.45212,-23.57156 c -0.74656,-0.77262 -1.7774,-3.39121 -2.29077,-5.81908 -1.15422,-5.45854 -1.16773,-5.16532 0.23793,-5.16532 0.78032,0 1.37475,1.45988 1.78071,4.37331 0.62098,4.45669 1.26584,4.173 2.3669,-1.04126 0.54369,-2.57481 2.68107,-5.6058 3.42703,-4.85987 0.30366,0.30366 0.0885,1.41839 -0.47815,2.47714 -0.56663,1.05879 -1.253,3.96574 -1.52527,6.45993 -0.53476,4.89907 -1.39477,5.77297 -3.51838,3.57515 z m 31.21194,70.34071 c 1.91241,-4.45914 1.74422,-5.94885 -0.90743,-8.03801 -1.25993,-0.99267 -2.30068,-2.23817 -2.31281,-2.76776 -0.013,-0.52961 -0.29936,-1.4056 -0.63834,-1.94662 -1.14113,-1.82132 0.86193,-1.9242 3.10536,-0.15957 2.75383,2.16617 3.27279,1.77254 1.68869,-1.28086 -0.66997,-1.29138 -1.21815,-3.62513 -1.21815,-5.18614 0,-2.24182 -0.45118,-3.04372 -2.14721,-3.8165 -1.65184,-0.75265 -2.4686,-0.74825 -3.5403,0.0182 -0.76619,0.54854 -3.28253,1.8786 -5.59185,2.95568 -3.78999,1.76771 -4.64151,2.71828 -8.74661,9.76412 -5.89017,10.10968 -5.89574,10.13407 -1.3638,5.97672 2.12262,-1.94716 4.67543,-3.54027 5.67291,-3.54027 2.34253,0 7.00612,4.96092 10.7188,11.40228 l 2.91554,5.05836 0.49093,-2.60751 c 0.27,-1.43413 1.11342,-4.05898 1.87427,-5.833 z m 7.16759,-85.63008 4.4222,-8.88654 0.64727,-11.10573 c 0.35601,-6.10815 1.10023,-13.354857 1.65379,-16.103793 0.57957,-2.878054 0.80711,-7.64811 0.53641,-11.24565 -0.47773,-6.349393 -4.44495,-21.58894 -8.49705,-32.640498 -1.22903,-3.351985 -2.53728,-8.952605 -2.90721,-12.445811 -1.17452,-11.090475 -5.93187,-17.628129 -10.43282,-14.336954 -2.44988,1.791417 -3.17733,1.332063 -5.18661,-3.275061 -1.04561,-2.397484 -2.67599,-5.2962061 -3.62305,-6.4415971 -0.96736,-1.1699377 -0.40805,0.394041 1.27636,3.5689581 5.20595,9.812741 3.71796,12.05643 -3.30222,4.979376 -2.61867,-2.63989 -4.28641,-3.892036 -3.70609,-2.782517 0.58032,1.109492 3.25663,4.246274 5.94736,6.970611 3.33207,3.373695 4.89225,5.614937 4.89225,7.027906 0,2.145889 -0.75796,2.217684 -5.54546,0.52537 -2.07651,-0.734013 -0.87326,0.370559 4.50612,4.136603 2.67753,1.874483 5.34418,3.063059 6.87234,3.063059 2.33137,0 3.45958,1.182173 1.72246,1.804849 -0.42606,0.152806 0.16791,3.463947 1.3198,7.358273 1.84892,6.250525 2.99999,14.519384 4.98896,35.839027 0.47729,5.11612 0.36775,5.599579 -1.87209,8.261439 -2.59652,3.085812 -5.8002,11.92271 -6.653,18.35129 -0.45357,3.41917 -1.05688,4.48553 -3.77252,6.66789 -1.77796,1.42879 -3.23263,3.09476 -3.23263,3.70218 0,0.6074 0.77058,2.84643 1.71241,4.97558 0.94185,2.12918 2.04569,5.91875 2.45298,8.4213 0.80297,4.93371 2.47011,9.00264 5.76228,14.06385 l 2.10543,3.2368 1.74506,-7.40185 c 1.06336,-4.51034 3.47256,-10.87332 6.16727,-16.28836 z m -14.07406,6.17925 c -1.97918,-6.6491 -2.49573,-12.00937 -1.19977,-12.44977 0.5609,-0.19055 1.12847,1.43429 1.44671,4.14184 0.75254,6.40307 2.13685,10.0319 3.4205,8.96655 0.56491,-0.46882 1.25881,-0.62072 1.542,-0.33755 0.67334,0.67334 -1.72576,5.30175 -2.74812,5.30175 -0.4332,0 -1.54079,-2.53027 -2.46132,-5.62282 z m 15.50924,-42.414166 c -0.82036,-0.82036 -0.67469,-3.609697 0.18847,-3.609697 0.74403,0 1.75515,1.958799 1.75515,3.400169 0,0.890853 -1.13953,1.013696 -1.9437,0.209554 z m -0.0479,-10.126603 c -0.57915,-0.937164 1.09793,-4.312238 2.14282,-4.312238 1.33346,0 1.29114,1.419867 -0.0971,3.260379 -0.93938,1.245351 -1.68807,1.630333 -2.04559,1.051859 z m -13.0026,-47.612962 c 0,-0.449409 -0.93714,-1.052327 -2.08253,-1.33982 -1.14539,-0.287467 -2.08253,-1.069586 -2.08253,-1.738026 0,-0.874245 0.52602,-1.055034 1.87428,-0.644178 2.44197,0.744166 4.87199,2.89927 4.3045,3.817482 -0.60656,0.981443 -2.01372,0.91475 -2.01372,-0.09554 z M 176.15543,136.14494 c 1.40867,-3.65278 3.317,-9.67433 4.24073,-13.38126 l 1.6795,-6.73984 -3.40253,-2.93444 c -2.93309,-2.52954 -3.74561,-4.03193 -5.88898,-10.88891 -1.36754,-4.374946 -3.42323,-9.239575 -4.56818,-10.810243 -3.87696,-5.318464 -4.19673,-6.374097 -3.08924,-10.197748 1.05641,-3.647209 2.27589,-9.405216 5.01574,-23.682375 1.08286,-5.642817 2.68399,-10.650958 4.72713,-14.785947 l 3.08961,-6.252893 3.44104,-0.0026 c 1.89257,-0.0017 5.87762,-0.722871 8.85563,-1.602375 5.57451,-1.646342 5.52982,-1.753514 -0.83301,-1.998575 -3.58681,-0.138228 -3.75984,-0.261384 -4.00993,-2.856343 -0.2145,-2.226743 0.46331,-3.568099 3.78913,-7.4971 6.05964,-7.158637 6.83457,-8.660895 1.91033,-3.703255 -4.02519,4.052469 -4.50091,4.308255 -5.80973,3.123792 -0.78407,-0.70944 -1.87638,-1.28997 -2.42739,-1.28997 -2.00165,0 -1.79501,-2.315901 0.70347,-7.884581 1.40248,-3.1258481 2.39249,-5.8408651 2.19999,-6.0333428 -0.54068,-0.5407063 -5.51899,10.3922778 -5.51899,12.1203858 0,1.621326 -3.05296,3.451269 -4.76865,2.858347 -0.73266,-0.253287 -0.57764,-0.98048 0.55008,-2.580954 0.86359,-1.22562 1.77621,-4.102684 2.02801,-6.393465 l 0.45779,-4.1650551 -1.11758,3.9087481 c -0.61466,2.149793 -2.47392,6.334113 -4.13169,9.298461 -3.38944,6.060884 -3.92064,10.133606 -1.42504,10.925669 1.59714,0.506913 2.98811,2.805529 2.1842,3.609437 -0.23715,0.237148 -1.18532,-0.251726 -2.10723,-1.08596 -0.92193,-0.834339 -1.76765,-1.363093 -1.8794,-1.175014 -0.11168,0.188208 -3.47204,6.901965 -7.4674,14.919697 -10.07613,20.220407 -11.47035,26.1957 -9.13542,39.151521 0.53669,2.978015 1.50775,10.140708 2.15786,15.917128 1.27315,11.31208 3.06267,16.7361 7.66565,23.23439 3.13358,4.42386 4.48262,8.8256 4.489,14.6471 0.002,2.32897 0.25979,4.48964 0.57165,4.80147 1.27151,1.27152 5.416,-4.32936 7.82385,-10.57312 z m -5.72521,-3.21097 c -1.29406,-1.29406 -1.27544,-2.33243 0.0419,-2.33243 0.57277,0 1.76669,-2.26988 2.65314,-5.04417 1.55385,-4.86307 2.57702,-6.45514 3.53366,-5.49853 0.24938,0.24939 -0.33792,2.79621 -1.30494,5.65974 -0.96702,2.86356 -1.75822,5.88338 -1.75822,6.71071 0,1.71681 -1.68472,1.98541 -3.16545,0.50468 z M 156.23818,86.786455 c -2.02874,-1.420961 -2.36843,-2.833539 -0.68137,-2.833539 1.48721,0 4.19382,3.038303 3.23466,3.631095 -0.41333,0.25537 -1.56231,-0.103346 -2.55329,-0.797556 z m 2.78515,-2.625287 c 0.33008,-0.801773 0.78878,-2.113765 1.01929,-2.915538 0.23064,-0.801774 0.93774,-1.45777 1.57153,-1.45777 1.45545,0 1.44301,0.353639 -0.11844,3.373409 -1.35859,2.627213 -3.49849,3.492685 -2.47227,0.999899 z m 18.11263,-53.275849 c -1.03085,-0.198621 -1.87427,-0.732399 -1.87427,-1.186364 0,-1.193184 6.0537,-0.506392 6.46086,0.732998 0.34137,1.039182 -0.90536,1.162415 -4.58659,0.453366 z m 5.24188,-7.684657 c -0.569,-0.920685 0.74505,-1.914806 1.51426,-1.145598 0.79203,0.792011 0.64441,1.921053 -0.25121,1.921053 -0.43111,0 -0.99951,-0.348953 -1.2631,-0.775455 z m 25.12168,98.932228 c 1.26024,-1.04593 1.3158,-1.53579 0.34737,-3.06382 -0.58373,-0.92102 -1.19704,-0.86781 -3.45486,0.29975 -3.39616,1.75623 -8.42877,1.2413 -11.73127,-1.20034 -2.88992,-2.13662 -3.23789,-2.14646 -3.23789,-0.0914 0,4.15462 14.13599,7.32631 18.07665,4.05583 z m -1.01107,-7.45597 c 2.1126,-2.33837 2.92669,-4.01116 2.92669,-6.01375 0,-3.29567 0.68765,-4.20962 2.21411,-2.94276 0.7354,0.61031 1.11793,0.63116 1.11793,0.0609 0,-0.47677 0.2158,-1.55351 0.4794,-2.39277 0.45219,-1.43934 0.42567,-1.4422 -0.46771,-0.0508 -1.19753,1.86537 -2.74883,1.00367 -2.06603,-1.14761 0.74034,-2.33256 -0.37868,-6.575187 -1.73427,-6.575187 -0.68638,0 -0.9621,0.508371 -0.67771,1.249516 0.36332,0.946743 -0.15254,1.249521 -2.12928,1.249521 -2.05978,0 -2.78653,-0.467531 -3.45346,-2.221671 -1.32901,-3.495627 2.05122,-4.867414 5.69863,-2.312673 1.78158,1.247851 1.85121,1.208595 1.84674,-1.041264 -0.002,-1.285908 -0.40623,-3.784291 -0.89705,-5.551992 l -0.89244,-3.213965 -5.34663,0.572565 c -3.4558,0.370091 -6.42811,0.215541 -8.40477,-0.436707 -4.0962,-1.351872 -4.9017,-0.15723 -5.64586,8.373792 -0.31837,3.649682 -0.91418,6.843035 -1.32405,7.096345 -0.43371,0.26805 -0.41031,1.34141 0.056,2.56783 1.03322,2.7176 1.04866,2.64497 -0.65659,3.0906 -1.15484,0.30182 -1.08849,0.40105 0.31935,0.47761 1.79319,0.0976 2.77034,2.06615 2.79306,5.62717 0.0156,2.60727 2.48162,5.20874 6.1134,6.4519 4.41867,1.51252 6.73033,0.84697 10.13057,-2.91673 z m -10.19323,-2.94116 c -1.48901,-0.73404 -2.70729,-1.62007 -2.70729,-1.96898 0,-0.93526 6.97987,-1.81809 9.45756,-1.19625 2.0466,0.51365 2.0811,0.61978 0.82494,2.53693 -1.51991,2.31968 -3.76625,2.50599 -7.57521,0.6283 z m -0.71507,-7.30899 c -0.2499,-0.65144 -0.0508,-1.93879 0.44267,-2.86077 1.66602,-3.11302 1.13745,-3.935355 -2.31777,-3.60585 -2.79304,0.26636 -3.28327,0.0505 -3.73556,-1.643996 -1.00803,-3.776768 4.63976,-5.510837 7.76613,-2.384468 1.55466,1.554659 1.67274,3.891229 0.40857,8.085384 -0.16374,0.5431 0.12261,1.12751 0.63608,1.29869 1.26058,0.42018 0.0182,2.29544 -1.5191,2.29544 -0.67458,0 -1.43104,-0.53299 -1.68102,-1.18443 z m 5.05411,0.296 c -0.76666,-1.24048 0.12235,-1.91493 1.71715,-1.30291 0.73602,0.28245 1.10491,0.89104 0.81976,1.35245 -0.67521,1.09252 -1.8452,1.06966 -2.53691,-0.0495 z M 187.65915,14.275547 c 0.98973,-2.58637 1.69497,-4.8070471 1.56716,-4.9348621 -0.12782,-0.127815 -1.46256,1.9883191 -2.96612,4.7024781 -1.93029,3.484563 -2.39087,4.934888 -1.56715,4.934888 0.6498,0 1.96372,-2.083127 2.96611,-4.702504 z m 34.53781,-2.378091 c -1.15231,-2.0617021 -2.24561,-3.7485501 -2.42958,-3.7485501 -0.18404,0 0.48507,1.686848 1.48672,3.7485501 1.00167,2.061703 2.09497,3.74855 2.42958,3.74855 0.33461,0 -0.33443,-1.686847 -1.48672,-3.74855 z m 4.75532,0.11558 c -1.16665,-3.0685521 -1.82052,-2.7639041 -0.73729,0.343487 0.48731,1.397845 1.04059,2.386994 1.2295,2.198056 0.18899,-0.188989 -0.0325,-1.332635 -0.49221,-2.541543 z m 24.96438,158.781334 c 0.0104,-0.80588 2.10364,-2.94784 4.68189,-4.78981 2.56515,-1.83262 7.41958,-6.25701 10.7876,-9.83195 35.87125,-38.07499 34.35822,-95.962307 -3.45302,-132.110094 l -8.07044,-7.715401 -2.72215,2.638407 -2.72215,2.638432 -2.26139,-6.790342 c -1.24377,-3.734675 -2.06431,-6.9874012 -1.82341,-7.2282976 0.46268,-0.4627116 13.08254,1.9523175 13.76426,2.6340076 0.21918,0.219186 -0.22414,1.086246 -0.98483,1.92691 -0.76077,0.840665 -1.35409,1.873807 -1.31842,2.295883 0.0357,0.422076 2.65142,2.932694 5.81285,5.579118 14.09265,11.796999 25.08072,30.179784 30.09997,50.356666 1.50507,6.050263 1.82097,9.743835 1.83614,21.468674 0.0156,12.642197 -0.21814,15.077947 -2.18637,22.707937 -5.60832,21.74146 -18.91963,41.89803 -35.80011,54.21004 -5.38187,3.92536 -5.66528,4.02636 -5.64042,2.00982 z m -112.49778,-4.4211 c -11.31114,-9.16968 -19.06114,-18.74527 -25.33712,-31.30557 -7.50811,-15.02617 -9.62602,-24.77492 -9.62602,-44.308719 0,-12.130048 0.2782,-15.186209 2.00043,-21.975458 4.04682,-15.953047 13.86161,-33.116251 25.77206,-45.067904 l 6.5307,-6.553298 -1.74089,-1.853085 c -0.95749,-1.01919 -1.74089,-2.0793 -1.74089,-2.355756 0,-0.582067 13.2965,-5.123539 13.70874,-4.6822771 0.61603,0.659354 -2.42722,14.0389441 -3.19322,14.0389441 -0.45568,0 -1.65048,-0.772201 -2.65507,-1.715977 l -1.82656,-1.71595 -5.11768,4.738089 c -18.58713,17.208395 -29.23858,42.210546 -29.23858,68.631705 0,22.028766 7.03905,41.431706 21.59849,59.535506 4.38601,5.45378 16.1519,16.30357 17.68014,16.30357 0.38823,0 0.7059,0.74971 0.7059,1.66602 0,0.91631 -0.29166,1.66602 -0.64808,1.66602 -0.35646,0 -3.44901,-2.27066 -6.87235,-5.04586 z"
     id="path1367"
     inkscape:connector-curvature="0" />
</svg>
