<?xml version="1.0" encoding="UTF-8" standalone="no"?>
<svg
   xmlns:dc="http://purl.org/dc/elements/1.1/"
   xmlns:cc="http://creativecommons.org/ns#"
   xmlns:rdf="http://www.w3.org/1999/02/22-rdf-syntax-ns#"
   xmlns:svg="http://www.w3.org/2000/svg"
   xmlns="http://www.w3.org/2000/svg"
   xmlns:sodipodi="http://sodipodi.sourceforge.net/DTD/sodipodi-0.dtd"
   xmlns:inkscape="http://www.inkscape.org/namespaces/inkscape"
   id="svg"
   width="400"
   height="377.93103448275866"
   viewBox="0, 0, 400,377.93103448275866"
   version="1.1"
   sodipodi:docname="A5.svg"
   inkscape:version="0.92.5 (2060ec1f9f, 2020-04-08)">
  <metadata
     id="metadata10">
    <rdf:RDF>
      <cc:Work
         rdf:about="">
        <dc:format>image/svg+xml</dc:format>
        <dc:type
           rdf:resource="http://purl.org/dc/dcmitype/StillImage" />
      </cc:Work>
    </rdf:RDF>
  </metadata>
  <defs
     id="defs8" />
  <sodipodi:namedview
     pagecolor="#ffffff"
     bordercolor="#666666"
     borderopacity="1"
     objecttolerance="10"
     gridtolerance="10"
     guidetolerance="10"
     inkscape:pageopacity="0"
     inkscape:pageshadow="2"
     inkscape:window-width="1366"
     inkscape:window-height="689"
     id="namedview6"
     showgrid="false"
     inkscape:zoom="0.44155464"
     inkscape:cx="-216.79566"
     inkscape:cy="5.0064105"
     inkscape:window-x="0"
     inkscape:window-y="0"
     inkscape:window-maximized="1"
     inkscape:current-layer="svg" />
  <path
     style="fill:#ffffff;fill-rule:evenodd;stroke:none;stroke-width:0.75158203"
     inkscape:connector-curvature="0"
     d="m 213.51139,12.250584 c -11.6886,2.833464 -18.18753,22.354305 -11.00917,33.068858 4.12769,6.161469 3.1852,8.804783 -3.86539,10.840819 -5.22876,1.509177 -5.59778,1.915783 -1.87219,2.060838 2.55237,0.09996 6.3892,-0.754588 8.52519,-1.897745 3.11682,-1.66776 4.96646,-1.07401 9.36772,3.006329 6.01867,5.581248 12.81373,6.578597 16.28829,2.392285 3.65194,-4.400513 16.68888,-1.278441 19.72527,4.723693 3.40767,6.734927 3.19347,22.86464 -0.46448,34.921519 -1.65047,5.44296 -3.48809,17.61859 -4.08259,27.05695 -0.5945,9.43912 -1.4731,19.86732 -1.95261,23.17428 -0.57571,3.96911 -0.29312,4.99126 0.8305,3.00633 0.93647,-1.65348 2.25249,-12.02531 2.9244,-23.04877 1.51519,-24.85857 4.16677,-34.727589 9.95997,-37.061256 3.07021,-1.237104 3.40316,-1.804548 1.11084,-1.893987 -3.09051,-0.119501 -6.88675,-25.151704 -4.27425,-28.182834 1.49715,-1.736906 6.6778,6.783028 5.69023,9.357196 -0.55693,1.450554 0.18338,2.027772 1.80304,1.406962 5.64739,-2.167563 11.94114,3.152139 7.73603,6.538016 -3.33026,2.682396 -3.20549,2.722981 1.33782,0.432911 5.78869,-2.917642 9.87654,-2.587697 17.55696,1.418987 3.02061,1.575316 7.74655,2.841739 10.50185,2.814682 2.75605,-0.02781 -3.8729,-3.095774 -14.73176,-6.81836 -14.61451,-5.010049 -21.12171,-8.365863 -25.05248,-12.921953 -3.98789,-4.621478 -7.80593,-6.559057 -15.33152,-7.781129 -9.03252,-1.466337 -9.98176,-2.113449 -9.62326,-6.556802 3.08299,-38.230723 -0.50807,-45.0490754 -21.09841,-40.057819 m 16.52804,11.29252 c 4.09537,1.570807 4.23517,10.808501 0.16385,10.808501 -2.1112,0 -2.92516,1.93833 -2.73351,6.513962 0.19767,4.710164 0.51408,5.264832 1.14166,2.003718 1.14766,-5.956288 4.59817,-5.804468 4.59817,0.202175 0,10.089237 -4.07808,17.338998 -9.7157,17.271355 -4.91309,-0.05787 -16.33864,-7.895369 -16.33864,-11.206839 0,-0.79292 -1.57832,-3.243829 -3.50763,-5.446715 -3.34003,-3.814279 -3.34003,-3.943551 0,-2.725988 2.53584,0.925197 3.50763,0.254034 3.50763,-2.420846 0,-2.035284 1.35285,-4.822902 3.00633,-6.195291 1.65348,-1.372389 3.00633,-3.677491 3.00633,-5.122783 0,-1.445292 2.48022,-3.003322 5.51135,-3.462538 3.03113,-0.459217 6.11412,-0.970293 6.85067,-1.134889 0.73655,-0.165348 2.76582,0.246519 4.50949,0.916178 m -14.86779,12.812971 c 0,1.101819 1.30023,2.003717 2.88833,2.003717 1.58809,0 3.44525,-0.901898 4.12693,-2.003717 0.68094,-1.102571 -0.61855,-2.00447 -2.88833,-2.00447 -2.26978,0 -4.12693,0.901899 -4.12693,2.00447 m 6.70711,16.301814 c 2.65234,1.541495 4.32686,1.52496 5.9127,-0.06088 1.61289,-1.612895 0.61104,-2.195371 -3.70079,-2.151028 -5.18291,0.05411 -5.45573,0.326938 -2.21191,2.211906 m -44.53199,7.902133 c -2.61551,1.046954 -8.15692,4.597428 -12.31392,7.889357 -4.157,3.292681 -8.90775,5.986351 -10.55823,5.986351 -1.64972,0 -6.93184,1.784259 -11.7367,3.964599 -4.80561,2.180339 -11.69837,3.984136 -15.31724,4.008187 -3.61887,0.0248 -11.21436,2.393037 -16.87903,5.263336 -12.748335,6.459848 -20.10031,6.724405 -31.531873,1.134138 -10.944537,-5.351272 -10.824284,-5.353527 -9.484965,0.160838 0.936471,3.855616 -0.338964,5.144579 -8.801777,8.891215 -10.900194,4.825159 -11.56835,6.105099 -6.341849,12.131289 l 3.554983,4.09913 4.962696,-4.08936 4.962696,-4.09011 -5.302411,1.2852 c -3.545213,0.85906 -5.64363,0.39684 -6.330576,-1.39418 -0.734295,-1.91278 0.352492,-2.41483 3.799247,-1.75645 2.701938,0.51634 4.827412,-0.0346 4.827412,-1.25213 0,-1.19577 -1.352848,-1.65574 -3.006328,-1.0214 -1.653481,0.63508 -3.006328,0.59901 -3.006328,-0.0789 0,-0.67793 3.666968,-2.699679 8.1479,-4.492959 5.764635,-2.306604 7.523337,-3.884174 6.012657,-5.394854 -4.683108,-4.68386 -1.651226,-4.752253 7.385045,-0.167603 11.768271,5.970567 12.72278,5.956287 27.558261,-0.405103 6.61392,-2.83647 16.85873,-5.999887 22.76692,-7.029554 5.90819,-1.030419 13.3045,-3.19723 16.43559,-4.816889 3.1311,-1.618908 7.40158,-2.943947 9.49023,-2.943947 2.08865,0 5.51361,-1.896245 7.61052,-4.213373 3.40392,-3.761668 13.04746,-9.816413 15.63366,-9.816413 0.54264,0 1.3318,3.833069 1.75344,8.518431 l 0.76736,8.517683 0.35024,-9.380499 c 0.29838,-7.998336 1.01464,-9.509016 4.85974,-10.249324 4.19007,-0.807199 4.15399,-0.8786 -0.50131,-1.014636 -2.75606,-0.08042 -7.15056,0.710997 -9.76606,1.75795 m 62.7774,5.681961 c -1.04695,1.004865 -5.9623,2.77935 -10.92274,3.944302 l -9.01899,2.116455 10.02085,-1.019897 c 7.21518,-0.735047 9.17982,-0.444936 7.01526,1.03568 -3.70379,2.532832 -0.10898,2.759058 3.86689,0.242761 3.00783,-1.903005 4.8229,-8.146397 2.36899,-8.146397 -0.78465,0 -2.28256,0.82223 -3.33026,1.827096 m -46.99868,3.285916 c 0,2.11871 13.9441,6.910801 19.4765,6.692842 4.07282,-0.160839 3.1837,-0.689201 -3.2987,-1.960881 -4.88152,-0.957516 -9.79687,-2.662855 -10.92349,-3.788725 -2.20063,-2.200633 -5.25431,-2.749287 -5.25431,-0.943236 M 308.6722,79.64647 c -2.03754,2.796637 -3.23782,5.551185 -2.66737,6.121635 0.5697,0.569707 2.04731,-0.853045 3.28367,-3.161905 2.22393,-4.156249 2.29533,-4.14272 7.11372,1.331803 2.67638,3.040909 4.89505,4.374215 4.92963,2.961241 0.0353,-1.41223 -1.28897,-3.086755 -2.94245,-3.721842 -1.65348,-0.634335 -3.00633,-2.860521 -3.00633,-4.947664 0,-5.151347 -2.27579,-4.671086 -6.71087,1.416732 M 171.07932,77.326318 c 0,0.757595 2.70569,3.65344 6.01265,6.436549 3.31974,2.792886 5.99237,6.998739 5.96756,9.390273 l -0.0443,4.331371 -3.46254,-4.250952 -3.46329,-4.250948 -10.02084,4.711668 c -7.06713,3.322742 -8.24861,4.346402 -4.00819,3.472312 3.30696,-0.680936 7.60902,-2.057835 9.56088,-3.05819 9.0513,-4.641019 12.37705,9.114439 10.50711,43.460229 -0.78014,14.33042 -0.79893,25.44782 -0.0413,24.70601 0.75759,-0.74257 1.7339,-19.68243 2.16906,-42.0886 0.52761,-27.167433 0.13378,-39.73765 -1.18224,-37.733181 -1.23785,1.885719 -2.53433,2.259256 -3.47681,1.001859 -2.43588,-3.247586 -8.51768,-7.623297 -8.51768,-6.1284 m 91.58704,12.801704 c 6.6748,6.531248 19.98907,9.416569 32.2579,6.990469 6.20055,-1.225834 10.9746,-1.301744 12.08394,-0.19241 1.11008,1.11009 4.90783,0.50431 9.61423,-1.532475 4.27876,-1.851898 6.67555,-3.784967 5.32571,-4.295291 -1.34984,-0.510324 -4.48168,0.492286 -6.95965,2.227689 -6.12163,4.288527 -8.30122,3.965347 -6.99347,-1.036432 1.05147,-4.020212 0.93723,-4.048772 -2.76356,-0.699723 -5.8398,5.285122 -29.8799,4.435838 -39.65422,-1.4017 l -7.3144,-4.368202 4.40352,4.308075 m -104.82842,0.354747 c -3.93002,3.930023 -38.04357,14.534841 -51.88396,16.128201 l -14.041804,1.6174 13.027924,-0.46523 c 18.38896,-0.65613 72.49459,-18.925584 57.01952,-19.253274 -1.15744,-0.02405 -3.01234,0.863568 -4.12168,1.972903 M 78.70688,103.30776 c 4.924365,5.24154 1.062737,8.95586 -6.35162,6.11112 -1.697072,-0.65162 -3.681249,-0.22097 -4.40878,0.95676 -1.715862,2.77559 7.893866,2.83798 13.039196,0.0849 3.012341,-1.61214 5.530141,-0.93873 11.660796,3.11831 10.371078,6.86345 32.574318,14.52207 46.866398,16.16728 7.77963,0.89514 11.52401,2.21868 11.52401,4.07283 0,3.53168 1.51519,3.3746 9.73975,-1.00863 l 6.73342,-3.5888 -6.72215,-4.25546 c -6.32907,-4.00743 -6.79881,-4.04651 -8.04794,-0.67191 -1.16946,3.1619 -2.83045,3.40316 -14.07938,2.04956 -20.96388,-2.52381 -51.684043,-15.09703 -48.696505,-19.93045 0.635087,-1.02741 -0.07666,-1.39569 -1.581328,-0.81847 -1.504667,0.57796 -4.396755,-0.78541 -6.42753,-3.02888 -2.030023,-2.24347 -4.610956,-4.079579 -5.734571,-4.079579 -1.123615,0 -0.0045,2.169809 2.486234,4.821389 m 265.63465,-2.65083 c -8.60111,13.9163 -69.87458,33.81218 -72.55623,23.55909 -1.2108,-4.62974 -1.4032,-4.61321 -8.65146,0.74482 l -5.98935,4.42832 6.57183,3.50463 c 8.1697,4.35692 9.7638,4.48544 8.29822,0.66665 -0.88311,-2.30134 0.42464,-3.01309 5.57448,-3.03564 11.00692,-0.0488 31.70774,-5.69624 45.16707,-12.32218 12.68746,-6.24565 29.74762,-19.477249 25.31329,-19.632829 -1.31227,-0.0459 -2.99055,0.89363 -3.72785,2.087139 m -143.85881,19.87634 c 0.66139,6.06226 1.53172,11.3985 1.93307,11.85771 1.55276,1.77524 0.35324,-15.07899 -1.34308,-18.87297 -1.17097,-2.61776 -1.3754,-0.18414 -0.58999,7.01526 m 36.30817,18.03797 c 0.48552,3.30696 1.23109,6.01266 1.65724,6.01266 0.42615,0 0.77413,-2.7057 0.77413,-6.01266 0,-3.30696 -0.74557,-6.01266 -1.65649,-6.01266 -0.91167,0 -1.2604,2.7057 -0.77488,6.01266 m -39.11082,4.00819 c 0,4.96044 0.39082,6.98971 0.86807,4.50949 0.47801,-2.48022 0.47801,-6.53876 0,-9.01898 -0.47725,-2.48022 -0.86807,-0.45095 -0.86807,4.50949 m 3.69477,5.57448 c -0.12776,2.5148 -1.58508,5.09122 -3.23856,5.72631 -1.65348,0.63433 -2.93568,3.08599 -2.8485,5.44821 0.10748,2.92291 0.51183,3.33477 1.26341,1.28897 0.60803,-1.65348 2.42009,-4.51776 4.02623,-6.3644 1.60613,-1.84739 2.49525,-5.00403 1.97515,-7.01527 -0.74932,-2.89735 -0.99359,-2.70719 -1.17773,0.91618 m 38.35324,5.44897 c 0.0218,4.40878 0.43291,5.97658 0.91166,3.48358 0.47951,-2.49299 0.46148,-6.10059 -0.0398,-8.01637 -0.50206,-1.91653 -0.89438,0.12326 -0.87183,4.53279 m 3.77594,11.48568 c -0.43516,8.73188 -32.41573,10.55747 -53.70053,3.06645 -11.44134,-4.02697 -12.66567,-0.76811 -14.86405,39.56178 -0.96202,17.63662 -2.31262,34.03314 -3.00182,36.43669 -0.9019,3.14538 -0.0744,5.1055 2.95297,6.99573 4.85597,3.03263 5.25882,8.43726 1.97516,26.48425 -1.55728,8.5545 -1.63845,17.70351 -0.26907,30.29402 1.10783,10.18017 1.20629,18.86771 0.22623,19.94172 -0.95451,1.04771 -1.73541,4.85672 -1.73541,8.46432 0,3.60834 -1.93682,10.5477 -4.30431,15.42021 -2.36748,4.87325 -3.74889,10.3087 -3.06946,12.07942 2.71096,7.06487 23.40728,1.64897 23.40728,-6.12539 0,-1.7076 2.30285,-5.8413 5.11752,-9.18584 3.12734,-3.71732 4.61847,-7.33694 3.83382,-9.30834 -4.1322,-10.39212 -5.58425,-27.05319 -3.31447,-38.04057 1.30925,-6.33885 2.40882,-16.43109 2.44414,-22.42721 0.0376,-6.39145 1.28145,-12.51234 3.00633,-14.79339 1.61815,-2.13975 2.94244,-5.3693 2.94244,-7.17686 0,-1.80755 2.27279,-4.50348 5.05138,-5.99011 7.57069,-4.05177 9.60071,-0.48477 11.1362,19.5697 0.73805,9.64204 2.79212,22.49034 4.56511,28.55335 2.35545,8.05846 2.90787,15.33603 2.05257,27.05695 -1.74067,23.84695 10.61083,42.74097 24.96304,38.18563 6.25767,-1.98568 6.54628,-6.16823 1.24988,-18.14319 -2.7087,-6.12614 -4.92511,-13.70735 -4.92511,-16.84821 0,-3.14011 -1.23185,-6.73192 -2.73727,-7.98105 -2.60122,-2.1593 -3.69628,-69.23875 -1.15518,-70.82158 0.48703,-0.30364 2.59747,-1.49414 4.68912,-2.64481 5.63837,-3.10329 3.83382,-50.79117 -2.72749,-72.06319 -1.0199,-3.30696 -2.23295,-8.2674 -2.69517,-11.02346 -0.82449,-4.91234 -0.84628,-4.90332 -1.11385,0.46298 m -46.99567,6.74319 c 9.05506,2.12097 19.53061,2.92666 31.10723,2.39304 l 17.45399,-0.80419 2.25925,10.13283 c 1.24162,5.57373 2.75606,21.50276 3.36484,35.39801 1.26566,28.8878 1.65799,28.12495 -15.47959,30.03697 l -11.02345,1.22959 9.13548,0.29462 9.13548,0.29462 -0.35024,34.28943 c -0.26681,26.14077 -0.98607,34.6825 -3.02662,35.94366 -5.21523,3.22278 -10.59731,-11.82389 -10.42444,-29.14635 0.0564,-5.69624 -0.35174,-6.85669 -1.40997,-4.00894 -2.11871,5.7 -3.76543,-3.29193 -4.49596,-24.54517 l -0.56745,-16.52879 -5.64663,-0.006 c -4.43133,-0.005 -5.42643,-0.76136 -4.62148,-3.51365 2.89133,-9.89007 5.21598,-28.65482 4.88678,-39.45054 l -0.37128,-12.15834 -0.6208,11.02345 c -1.60538,28.48721 -6.62219,48.08923 -12.35075,48.25983 -2.92967,0.0864 -4.19909,0.61254 -2.82144,1.16871 3.37535,1.36187 3.16416,7.05586 -0.43742,11.81788 -1.89324,2.50352 -2.96499,8.71384 -3.00633,17.41942 -0.0353,7.44066 -0.86883,13.52847 -1.8534,13.52847 -0.98457,0 -2.3269,1.39945 -2.98303,3.11005 -0.65688,1.7106 -0.41487,2.62903 0.53738,2.04055 0.9515,-0.58849 1.27469,2.9725 0.71776,7.9134 -0.55617,4.9409 0.0842,14.55739 1.425,21.37049 2.24573,11.41502 2.13825,12.63409 -1.37163,15.53219 -2.09466,1.72939 -5.28137,5.52112 -7.08142,8.42523 -2.29458,3.70079 -5.40162,5.52789 -10.39287,6.11112 -8.37263,0.97706 -8.16895,1.52646 -3.11231,-8.3854 2.20515,-4.32085 4.00894,-10.07421 4.00894,-12.78366 0,-8.80103 1.90075,-11.46313 6.44632,-9.03026 3.20325,1.71436 4.72145,1.41748 7.31591,-1.43026 2.97852,-3.26938 2.98077,-3.3746 0.0203,-1.1627 -10.84308,8.09905 -15.85989,-19.55316 -10.89344,-60.04614 l 1.63169,-13.303 7.25954,0.53362 c 3.9924,0.29387 5.45573,0.13303 3.25134,-0.35775 -17.7644,-3.95633 -19.46072,-4.82065 -18.19656,-9.27528 0.68394,-2.40806 2.0676,-18.80909 3.07472,-36.44571 1.62567,-28.47143 3.03489,-39.08227 5.19043,-39.08227 0.36527,0 6.80708,1.43853 14.31614,3.19723 m 40.09916,13.86368 c -1.83311,3.84435 -2.9199,6.98972 -2.41484,6.98972 1.37164,0 7.4557,-12.27183 6.53877,-13.18876 -0.43442,-0.43517 -2.29007,2.3547 -4.12393,6.19904 m -36.46752,19.33295 c -7.55339,4.22164 -8.91,5.61206 -5.51135,5.64739 2.48022,0.0263 4.5095,-0.85455 4.5095,-1.95712 0,-1.10257 1.12737,-2.03303 2.50502,-2.06761 2.84549,-0.0729 10.68148,-5.56095 9.37373,-6.56582 -0.47049,-0.36151 -5.36479,1.86318 -10.8769,4.94316 m 25.49818,-7.5e-4 c 3.23556,2.05332 9.0513,2.15704 10.26059,0.18338 0.50657,-0.82674 -2.17056,-1.57155 -5.95027,-1.65573 -4.23441,-0.094 -5.88865,0.47124 -4.31032,1.47235 m -1.56555,4.54481 c 2.13976,1.73466 6.64925,3.05068 10.0216,2.92441 6.09758,-0.22923 6.09232,-0.23825 -0.95226,-1.61891 -3.89545,-0.76285 -8.40494,-2.07887 -10.02159,-2.9244 -1.6159,-0.84478 -1.1875,-0.1165 0.95225,1.6189 m 5.1288,33.21768 c -6.9356,1.46032 -6.94688,1.47911 -1.00186,1.70984 3.30696,0.12852 7.3655,-0.6411 9.01898,-1.70984 3.33703,-2.15629 2.22844,-2.15629 -8.01712,0 m -31.06514,4.00893 c -2.52682,1.08529 -2.89735,1.72188 -1.00261,1.72188 1.65348,0 4.81012,-0.77488 7.01526,-1.72188 2.52607,-1.08603 2.8966,-1.72262 1.00186,-1.72262 -1.65348,0 -4.81012,0.77488 -7.01451,1.72262 m 29.91672,13.07002 c 2.12397,1.60688 4.35316,2.43136 4.95217,1.8316 1.25815,-1.25815 -3.83156,-4.83568 -6.81008,-4.78607 -1.10257,0.018 -0.26606,1.34758 1.85791,2.95447 m 19.18639,70.29321 c 0,2.5892 2.26075,9.82017 5.02357,16.06807 5.45047,12.32369 4.43283,16.85423 -3.76618,16.76855 -4.10063,-0.0428 -4.07207,-0.19466 0.74708,-3.96385 5.62408,-4.39976 4.19683,-5.33548 -2.29383,-1.50316 -3.39791,2.00672 -4.42457,2.00372 -5.15435,-0.0128 -0.50131,-1.38441 -1.67378,-2.04656 -2.60574,-1.47009 -0.93196,0.57571 -2.34719,-0.009 -3.14462,-1.29949 -0.9064,-1.46558 -0.58172,-1.80981 0.86357,-0.91618 3.48734,2.15554 2.79213,-0.52235 -1.81808,-6.99647 -6.23211,-8.75293 -7.56918,-19.86958 -2.38852,-19.86958 2.21416,0 5.15735,-1.36337 6.54101,-3.03113 3.30997,-3.98864 7.99609,-0.34046 7.99609,6.22611 m -58.1221,27.72736 c 0,0.47275 -1.41748,2.27654 -3.14989,4.00894 -3.43473,3.43473 -17.95228,4.48093 -15.89069,1.14466 0.68168,-1.10182 4.28927,-2.00372 8.01712,-2.00372 3.72785,0 7.33544,-0.9019 8.01713,-2.00447 1.25966,-2.03904 3.00633,-2.70419 3.00633,-1.14541"
     id="path0" />
</svg>
