<?xml version="1.0" encoding="UTF-8" standalone="no"?>
<svg
   xmlns:dc="http://purl.org/dc/elements/1.1/"
   xmlns:cc="http://creativecommons.org/ns#"
   xmlns:rdf="http://www.w3.org/1999/02/22-rdf-syntax-ns#"
   xmlns:svg="http://www.w3.org/2000/svg"
   xmlns="http://www.w3.org/2000/svg"
   xmlns:sodipodi="http://sodipodi.sourceforge.net/DTD/sodipodi-0.dtd"
   xmlns:inkscape="http://www.inkscape.org/namespaces/inkscape"
   id="svg"
   version="1.1"
   width="400"
   height="377.93103448275866"
   viewBox="0, 0, 400,377.93103448275866"
   sodipodi:docname="A6.svg"
   inkscape:version="0.92.5 (2060ec1f9f, 2020-04-08)">
  <metadata
     id="metadata11">
    <rdf:RDF>
      <cc:Work
         rdf:about="">
        <dc:format>image/svg+xml</dc:format>
        <dc:type
           rdf:resource="http://purl.org/dc/dcmitype/StillImage" />
      </cc:Work>
    </rdf:RDF>
  </metadata>
  <defs
     id="defs9" />
  <sodipodi:namedview
     pagecolor="#ffffff"
     bordercolor="#666666"
     borderopacity="1"
     objecttolerance="10"
     gridtolerance="10"
     guidetolerance="10"
     inkscape:pageopacity="0"
     inkscape:pageshadow="2"
     inkscape:window-width="1366"
     inkscape:window-height="693"
     id="namedview7"
     showgrid="false"
     inkscape:zoom="0.31222628"
     inkscape:cx="126.79389"
     inkscape:cy="194.66737"
     inkscape:window-x="0"
     inkscape:window-y="0"
     inkscape:window-maximized="1"
     inkscape:current-layer="svg" />
  <path
     style="fill:#ffffff;stroke-width:0.73190677"
     d="m 349.37489,323.50909 c -0.40676,-0.50319 -0.96225,-2.72635 -1.23443,-4.94037 -0.27218,-2.21402 -0.78923,-5.83696 -1.14898,-8.05098 -0.35978,-2.21401 -1.18285,-7.64842 -1.8291,-12.07646 -0.64623,-4.42803 -1.46807,-9.69777 -1.82629,-11.71051 -0.35825,-2.01274 -1.16943,-6.78841 -1.80264,-10.61263 -2.92834,-17.68529 -6.14818,-28.94986 -11.11625,-38.89012 -2.77489,-5.55213 -4.55941,-7.97687 -9.39457,-12.76509 -4.98594,-4.93754 -7.24369,-6.53977 -13.7089,-9.72876 -4.25696,-2.09975 -8.67719,-4.10847 -9.82274,-4.46381 -1.14555,-0.35534 -3.88965,-1.32948 -6.09797,-2.16473 -2.20835,-0.83526 -4.20069,-1.51863 -4.42747,-1.51863 -0.22666,0 -0.2832,1.10579 -0.12534,2.4573 0.36943,3.16452 -0.76605,3.60545 -5.8203,2.26016 -4.9799,-1.32551 -9.48025,-1.31874 -22.20699,0.0334 -12.22722,1.29908 -19.85199,1.41022 -20.53854,0.29937 -0.27365,-0.44274 0.1521,-1.67783 0.94583,-2.74465 1.27747,-1.71678 2.06564,-1.98173 6.85849,-2.30565 5.38821,-0.36412 5.40426,-0.37144 3.22837,-1.46937 -2.60664,-1.3153 -3.19077,-3.27057 -1.28223,-4.29199 1.35435,-0.72482 2.86946,-0.52627 11.15403,1.46178 4.624,1.10961 15.40236,1.63839 17.438,0.8555 1.59736,-0.61432 1.4623,-0.78266 -2.1957,-2.73726 -2.14375,-1.14548 -4.39178,-2.48523 -4.9956,-2.97726 -0.65762,-0.53587 -4.87622,-1.08674 -10.5203,-1.37374 -9.12436,-0.46396 -9.51991,-0.42201 -12.50353,1.32651 -6.11158,3.58161 -16.49914,17.03815 -16.49914,21.37374 0,0.65588 -1.2065,3.66735 -2.68111,6.69217 -3.4966,7.17248 -9.64667,13.59427 -14.19085,14.81791 -5.68738,1.53144 -12.60728,-0.68239 -21.46791,-6.86806 -2.74577,-1.91684 -4.9338,-2.92394 -6.03823,-2.77921 -1.40885,0.18458 -1.73212,-0.10521 -1.73212,-1.55258 0,-1.11503 -1.77312,-3.91231 -4.74838,-7.491 -2.61163,-3.14132 -5.71773,-7.68319 -6.90248,-10.0931 l -2.15409,-4.38163 -8.65052,-2.45898 c -4.75781,-1.35243 -9.30929,-2.73534 -10.11438,-3.07314 -3.438,-1.44254 -9.65797,-4.52902 -11.41082,-5.66233 -1.8179,-1.17535 -2.4061,-1.09914 -14.27218,1.84923 -12.32051,3.06127 -18.37153,4.74054 -21.15904,5.87198 -0.8051,0.32679 -3.65885,1.48112 -6.341677,2.56519 -10.92757,4.4156 -21.45166,14.10748 -26.7537,24.63814 -4.90152,9.73513 -7.56143,20.28898 -10.12294,40.16533 -2.21267,17.16948 -7.65069,44.48379 -9.87221,49.58667 -1.46374,3.36219 -1.92846,3.61667 -3.93091,2.15244 -1.25543,-0.91799 -1.24802,-1.17105 0.1768,-6.03823 0.81795,-2.79403 2.03482,-8.04429 2.70417,-11.66723 0.66933,-3.62294 1.9772,-10.53946 2.90638,-15.37005 0.92915,-4.83059 2.22858,-12.73516 2.8876,-17.56574 4.59461,-33.67822 9.44054,-46.38807 22.34495,-58.60596 10.45165,-9.89563 20.86955,-14.4039 49.056597,-21.22893 3.01912,-0.73104 5.58793,-1.39035 5.70847,-1.46514 0.12053,-0.0748 -0.62055,-1.37331 -1.64679,-2.88559 -2.14383,-3.15909 -2.5015,-7.99642 -0.82679,-11.18159 3.97828,-7.56641 16.95481,-14.40274 37.38594,-19.69582 l 5.12335,-1.32729 -0.23737,-4.38288 c -0.1306,-2.41058 -0.54218,-6.5237 -0.91472,-9.14026 -0.37256,-2.61657 -1.22094,-8.54501 -1.8853,-13.17432 -1.65324,-11.51965 -1.71003,-29.727977 -0.11024,-35.372076 2.66681,-9.409296 10.20717,-17.988736 22.26282,-25.330716 3.57591,-2.17775 8.14847,-5.16896 10.16122,-6.64709 4.67551,-3.43369 6.94275,-4.58915 12.80837,-6.5276 8.99852,-2.97378 16.85533,-1.82794 27.4465,4.00287 1.6102,0.88647 6.55057,3.51075 10.9786,5.83176 9.34218,4.8968 15.30795,8.99751 20.61425,14.1696 9.5563,9.31459 13.29017,19.363324 8.67124,23.336342 -2.29706,1.97585 -2.28343,2.12834 0.99732,11.16686 2.664,7.33931 2.82008,9.71364 0.77314,11.76058 -1.65234,1.65235 -3.58897,7.21036 -3.60155,10.33626 -0.005,1.08318 1.30952,4.80797 2.91971,8.27729 2.9927,6.44804 3.58847,9.65902 2.07334,11.17419 -0.99661,0.99658 -0.97923,1.00429 6.08937,2.69668 27.10355,6.4893 41.47161,19.36614 33.65265,30.15992 -4.61474,6.37044 -11.08118,10.43854 -23.21635,14.60561 l -5.91989,2.0328 7.83292,3.3807 c 8.34623,3.60222 15.74227,8.4267 20.55051,13.40519 5.22435,5.40932 10.89004,14.71392 13.44741,22.08424 0.6984,2.01274 1.54396,4.31825 1.87904,5.12335 2.4264,5.83 6.11963,25.35359 10.24552,54.16109 0.46124,3.22039 1.30167,8.11881 1.86762,10.8854 1.36325,6.66396 1.32512,9.70371 -0.12877,10.26158 -1.67405,0.64241 -2.23169,0.55671 -3.06216,-0.47062 z M 216.24016,232.07933 c 4.44085,-3.91437 8.03101,-9.95919 9.00547,-15.16261 0.58514,-3.12451 6.90717,-13.17005 10.80466,-17.16832 1.50821,-1.5472 2.62757,-2.92772 2.48746,-3.06783 -0.58219,-0.58219 -13.18892,2.69957 -17.4211,4.53501 -4.37952,1.89934 -4.61668,1.92706 -5.55121,0.64904 -1.54273,-2.10981 -0.14524,-3.60736 5.32549,-5.70693 5.39328,-2.06981 13.29058,-4.18648 15.84086,-4.24572 0.87321,-0.0206 -2.04934,-1.26668 -6.4946,-2.76977 -13.71007,-4.63585 -16.10156,-7.28167 -19.44184,-21.50943 -1.42658,-6.07645 -1.45364,-6.67026 -0.35383,-7.77006 2.05121,-2.05124 3.44417,-0.20928 5.19347,6.86718 0.89123,3.60544 2.00943,7.51824 2.48485,8.6951 1.48025,3.66411 5.50307,6.69843 11.05078,8.33534 7.65746,2.25938 13.56999,3.78677 20.12744,5.19958 4.02549,0.86729 8.41741,1.92602 9.75982,2.35272 3.2353,1.02842 7.13078,0.22735 8.51681,-1.75157 0.78359,-1.11872 1.1189,-3.4001 1.1189,-7.61261 0,-3.30833 0.32936,-6.21871 0.73191,-6.46749 1.65866,-1.02513 0.58234,-2.20094 -2.10522,-2.29981 -3.35545,-0.12351 -6.67767,-2.09177 -6.67767,-3.95626 0,-1.66959 2.40908,-2.4899 4.31569,-1.46951 1.73487,0.92847 5.90857,0.99611 7.29423,0.11825 0.76059,-0.48189 3.58966,-7.11722 3.7362,-8.76293 0.0137,-0.14753 -0.67015,-0.0869 -1.51843,0.13494 -1.77393,0.46391 -4.83669,-0.5493 -6.66671,-2.20542 -0.95077,-0.86045 -1.07906,-1.47456 -0.5245,-2.51074 0.84512,-1.57915 2.29684,-1.74724 4.29782,-0.4976 1.0849,0.67754 1.8311,0.67754 3.3181,0 1.05512,-0.48075 2.90133,-0.87408 4.10266,-0.87408 3.07104,0 3.31337,-1.48371 1.03048,-6.30936 -5.59104,-11.81849 -7.56574,-20.98896 -5.10514,-23.70792 0.81392,-0.89938 2.25112,-1.45471 3.76474,-1.45471 3.10546,0 3.09997,-0.45433 -0.10818,-8.95905 -1.40604,-3.72732 -2.55879,-7.30859 -2.56167,-7.95836 -0.0114,-2.71162 -17.20915,-7.235517 -27.50509,-7.235517 -7.41259,0 -8.24083,0.80265 -9.06276,8.782887 -1.01884,9.89181 -1.90504,12.44241 -4.32312,12.44241 -2.3333,0 -7.43899,2.58983 -7.93596,4.02549 -0.27869,0.80509 -0.42734,3.76932 -0.33031,6.58716 0.24358,7.07456 -0.41504,10.2104 -2.60436,12.39971 -2.35914,2.35914 -4.67588,2.37133 -8.10278,0.0428 -1.48101,-1.00637 -3.28813,-1.82976 -4.01581,-1.82976 -2.06139,0 -6.5513,-2.5442 -10.62223,-6.01907 -3.50005,-2.9876 -9.23383,-5.70311 -12.02507,-5.69506 -1.25474,0.005 -2.7704,2.04344 -2.7704,3.7285 0,0.62463 0.38537,0.56247 1.28083,-0.20654 3.3127,-2.8451 7.61824,-2.02928 12.67718,2.4021 1.78299,1.56179 3.45359,2.84478 3.71243,2.85107 0.96495,0.0233 1.35449,2.42874 0.55026,3.39779 -1.31414,1.58343 -2.40473,1.23127 -7.08703,-2.28849 -4.71689,-3.54575 -6.62417,-4.25666 -5.16909,-1.92672 1.09969,1.76089 0.32862,3.75648 -1.45146,3.75648 -0.76345,0 -2.29558,-0.71383 -3.40474,-1.58631 l -2.01668,-1.58632 0.53761,1.76929 c 0.88487,2.91222 3.03126,5.99935 6.1673,8.87046 1.62787,1.49035 4.12861,4.53691 5.55718,6.77014 2.41598,3.77673 2.79492,4.06041 5.42425,4.06041 3.31918,0 4.42925,1.65757 2.5217,3.76539 -2.87075,3.17215 -8.60366,0.72912 -12.15368,-5.17918 -1.31375,-2.18652 -2.78468,-4.10254 -3.2687,-4.25784 -1.10268,-0.35381 -6.57215,7.004 -9.14215,12.29852 -1.0641,2.19216 -2.30245,6.03721 -2.75186,8.54454 -0.9931,5.54039 -2.95727,11.82189 -5.16577,16.52025 -1.30152,2.76888 -1.54778,4.21972 -1.17629,6.93004 0.25843,1.88541 0.87764,3.794 1.37605,4.24133 1.13016,1.01431 8.4866,2.66622 9.3892,2.1084 0.3662,-0.22644 0.66583,-3.56217 0.66583,-7.41294 v -7.0014 l 2.15809,0.43162 2.15808,0.4316 -2.52215,-4.18262 c -2.90938,-4.82482 -3.05116,-5.6798 -1.11381,-6.71664 1.18361,-0.63347 1.77566,-0.31472 3.65887,1.96995 1.23571,1.49913 3.298,4.91549 4.58286,7.59191 1.64197,3.42027 3.00141,5.20907 4.57511,6.02005 3.95796,2.03971 27.06724,13.0646 28.75661,13.71911 2.73599,1.06003 1.15914,2.75304 -5.42297,5.82246 -15.58314,7.26685 -28.04779,13.46241 -28.04779,13.94117 0,0.83545 6.94477,5.06446 10.7744,6.56102 5.9402,2.32138 8.02296,1.94193 12.89048,-2.34855 z m -14.48997,-78.33596 c -4.7038,-5.45794 -5.64661,-8.59977 -2.89723,-9.65481 1.56418,-0.60023 8.39744,8.20243 8.17165,10.52679 -0.28174,2.90018 -2.31285,2.56439 -5.27442,-0.87198 z m 57.06266,-12.72322 c -2.81784,-0.93505 -5.68813,-1.71549 -6.37843,-1.73434 -2.00282,-0.0547 -3.00633,-2.62139 -1.58181,-4.04591 1.09299,-1.09299 1.07858,-1.26529 -0.18435,-2.20368 -2.13921,-1.58941 -0.49402,-3.36815 5.28892,-5.71825 5.92652,-2.40848 13.58284,-3.39623 15.29712,-1.9735 2.29144,1.90172 -0.71573,6.58803 -4.22751,6.58803 -1.86627,0 -2.04115,0.15759 -1.24276,1.11952 0.67004,0.80736 0.72278,1.57269 0.18915,2.74465 -0.40701,0.89382 -0.58962,2.64859 -0.40579,3.89951 0.45911,3.12447 -0.66462,3.34475 -6.75445,1.32397 z m -0.16903,-8.10392 c -0.49552,-0.20059 -1.48359,-0.21271 -2.19572,-0.0272 -0.71212,0.18549 -0.30669,0.3496 0.90096,0.36451 1.20764,0.016 1.79029,-0.137 1.29476,-0.33741 z m 3.64559,-0.73655 c -0.50319,-0.2031 -1.32659,-0.2031 -1.82977,0 -0.50319,0.20311 -0.0915,0.36916 0.91488,0.36916 1.00637,0 1.41807,-0.16605 0.91489,-0.36916 z m -78.64508,82.27531 -0.21797,-4.57441 -3.62006,-0.89336 c -1.99104,-0.49137 -3.75729,-0.75616 -3.92499,-0.58846 -0.47487,0.47487 6.47061,10.63065 7.27024,10.63065 0.40701,0 0.61752,-1.95446 0.49271,-4.57442 z m 108.61753,-14.74236 c 12.22561,-3.21259 20.11392,-6.82983 24.85062,-11.3954 3.01216,-2.90334 3.54648,-3.8351 3.54648,-6.18457 0,-1.59658 -0.62134,-3.63879 -1.46949,-4.82992 -1.89015,-2.65446 -9.21446,-7.23172 -15.65282,-9.78207 -5.94509,-2.35496 -22.17414,-6.53831 -23.11327,-5.95788 -0.3585,0.22163 -1.07105,2.27623 -1.58348,4.56591 -0.5124,2.28968 -1.52282,4.75424 -2.2454,5.47681 -0.72257,0.72258 -1.31377,2.11773 -1.31377,3.10033 0,0.98261 -0.32934,1.99013 -0.73189,2.23893 -0.40254,0.24878 -0.74636,2.65607 -0.76402,5.34951 -0.0183,2.69346 -0.50675,6.21462 -1.08685,7.82481 -0.58009,1.6102 -1.05967,2.99384 -1.06573,3.07479 -0.0242,0.32465 10.01537,5.76299 12.06542,6.53565 3.05164,1.15015 4.13108,1.14802 8.5642,-0.016 z m -124.93389,-3.3469 c -0.41851,-3.04306 -0.19166,-4.28556 1.39516,-7.63971 1.04221,-2.20308 1.89493,-4.32367 1.89493,-4.71243 0,-0.38875 -1.81205,0.27463 -4.02675,1.47416 -4.0463,2.19155 -12.77397,5.24473 -17.55783,6.14218 -1.4126,0.26502 -2.56835,0.71114 -2.56835,0.99144 0,0.69213 4.18388,2.4689 12.07646,5.12856 9.23081,3.11063 9.40091,3.08382 8.78638,-1.3842 z m -19.03307,-9.54516 c 1.20764,-0.37357 4.17187,-1.23889 6.58716,-1.92295 6.38172,-1.80739 13.44062,-5.36968 16.62227,-8.38845 2.73541,-2.59541 2.77326,-2.70723 2.77326,-8.19077 0,-3.0577 -0.32851,-5.76248 -0.73005,-6.01062 -0.75943,-0.46936 -12.56765,2.48585 -18.29953,4.57977 -5.19301,1.89708 -12.61389,5.92719 -14.88646,8.0845 -4.48018,4.25302 -5.04821,8.15011 -1.71014,11.73304 1.34094,1.43932 2.05501,1.63709 4.52014,1.25202 1.6102,-0.25153 3.9157,-0.76297 5.12335,-1.13654 z m 149.72007,133.63228 c -0.67205,-0.80978 -0.61016,-1.90508 0.27631,-4.89023 0.83863,-2.82395 1.15127,-7.26566 1.17583,-16.70525 0.0233,-8.94555 0.46559,-15.64257 1.45346,-22.00732 0.78099,-5.03186 1.94433,-12.73545 2.58518,-17.11909 0.64088,-4.38364 1.4608,-8.74764 1.82204,-9.69777 0.73977,-1.94573 3.42109,-2.36726 4.08319,-0.64188 0.3924,1.02259 -0.46522,7.71226 -3.05109,23.79921 -1.84683,11.48931 -2.55666,20.34081 -2.43587,30.37411 0.14089,11.69946 -1.2926,17.93172 -4.12441,17.93172 -0.50525,0 -1.30833,-0.46957 -1.78464,-1.0435 z m -195.82965,-2.61544 c -2.687447,-2.9696 -4.026037,-10.55552 -4.026037,-22.81612 0,-6.32645 -0.47382,-16.87302 -1.05294,-23.43683 -1.79381,-20.33118 -1.95288,-25.8225 -0.79327,-27.38349 0.82003,-1.10386 1.29698,-1.22055 2.35228,-0.5756 1.07625,0.65773 1.423827,2.23126 1.859287,8.41693 0.29457,4.18436 1.03577,14.1951 1.64709,22.24608 0.61133,8.05095 1.11154,18.91977 1.11159,24.1529 4e-5,7.74216 0.2727,10.23213 1.46349,13.36515 1.81284,4.7696 1.8267,5.78446 0.0917,6.71298 -1.0547,0.56448 -1.66784,0.40685 -2.65326,-0.682 z m 70.62846,-28.49083 c -1.00638,-0.3283 -3.64124,-1.01469 -5.85526,-1.52531 -4.41886,-1.01914 -11.97216,-3.29354 -14.27218,-4.29756 -0.8051,-0.35142 -4.3473,-1.87537 -7.87154,-3.38655 -13.57395,-5.82042 -24.51296,-13.25552 -34.78214,-23.64096 -4.96425,-5.02047 -6.05712,-6.52602 -5.8754,-8.094 0.31122,-2.6855 2.90457,-2.96971 4.52545,-0.49595 1.73686,2.65078 8.77238,9.47048 14.3614,13.92084 7.07491,5.63351 14.10872,9.71911 25.98269,15.09208 3.64055,1.64734 14.52437,5.04279 20.85935,6.5075 10.54769,2.43878 10.61265,2.46611 10.61265,4.46296 0,1.55187 -0.359,1.78624 -2.92763,1.91131 -1.61019,0.0784 -3.75102,-0.12603 -4.75739,-0.45436 z m 142.15767,-3.83869 c -1.29815,-1.29815 -1.1708,-2.13049 1.58714,-10.37382 3.1343,-9.36822 3.2582,-9.93861 4.11711,-18.95302 0.76946,-8.07586 1.85911,-10.37327 4.20545,-8.86676 1.01586,0.65225 1.22031,1.66571 1.03107,5.11096 -0.44781,8.15271 -2.29809,17.49634 -5.05228,25.51315 -2.74605,7.99306 -3.93567,9.52231 -5.88849,7.56949 z m 6.93822,-1.06394 c -0.9117,-0.91173 -0.56372,-2.42828 1.19999,-5.22975 0.94532,-1.50155 2.17008,-4.4972 2.72166,-6.65699 1.08917,-4.26477 2.34503,-5.33731 4.1436,-3.53872 0.98359,0.98359 1.03075,1.75255 0.32353,5.27412 -1.32119,6.5787 -6.13553,12.40458 -8.38878,10.15134 z m -115.42816,-9.10613 c -20.62536,-1.0983 -31.44427,-2.37161 -59.23923,-6.97215 -11.9455,-1.97717 -23.86476,-9.49008 -22.3963,-14.11679 0.71267,-2.24539 2.67207,-1.90698 4.86395,0.8401 3.90241,4.89083 10.77513,7.169 32.12524,10.6489 17.47032,2.8475 24.72743,3.60711 43.91443,4.5966 17.31418,0.8929 19.53062,1.51852 16.41562,4.63352 -0.63257,0.6326 -2.03234,1.10172 -3.1106,1.04253 -1.07826,-0.0592 -6.73615,-0.3619 -12.57311,-0.67271 z m 39.50995,-28.87757 c -0.64311,-0.77493 -0.77936,-2.38851 -0.44804,-5.30635 1.82835,-16.10181 2.53874,-18.68752 5.03667,-18.33273 1.50873,0.21431 1.62824,0.56851 1.43693,4.25922 -0.11481,2.21401 -0.68943,7.28325 -1.27701,11.26496 -1.28315,8.69487 -2.5171,10.8036 -4.74855,8.1149 z M 114.70312,220.79312 c -0.63399,-1.65216 -0.0567,-2.29562 3.81838,-4.25619 4.07787,-2.06316 11.11483,-4.20373 20.62456,-6.27382 3.82422,-0.83245 10.02635,-2.37341 13.78249,-3.42434 6.35005,-1.7767 6.91424,-1.82595 8.03856,-0.70162 2.91473,2.91473 -0.76139,4.4566 -21.08914,8.84539 -8.64217,1.86586 -13.97935,3.4403 -17.8857,5.2762 -4.22299,1.98473 -6.66394,2.16365 -7.28915,0.53438 z"
     id="path1367"
     inkscape:connector-curvature="0" />
</svg>
