<?xml version="1.0" encoding="UTF-8" standalone="no"?>
<svg
   id="svg"
   version="1.1"
   width="400"
   height="377.93103"
   viewBox="0 0 400 377.93103"
   sodipodi:docname="A7-8.svg"
   inkscape:version="0.92.5 (2060ec1f9f, 2020-04-08)"
   inkscape:export-filename="A8.png"
   inkscape:export-xdpi="96"
   inkscape:export-ydpi="96"
   xmlns:inkscape="http://www.inkscape.org/namespaces/inkscape"
   xmlns:sodipodi="http://sodipodi.sourceforge.net/DTD/sodipodi-0.dtd"
   xmlns="http://www.w3.org/2000/svg"
   xmlns:svg="http://www.w3.org/2000/svg"
   xmlns:rdf="http://www.w3.org/1999/02/22-rdf-syntax-ns#"
   xmlns:cc="http://creativecommons.org/ns#"
   xmlns:dc="http://purl.org/dc/elements/1.1/">
  <metadata
     id="metadata11">
    <rdf:RDF>
      <cc:Work
         rdf:about="">
        <dc:format>image/svg+xml</dc:format>
        <dc:type
           rdf:resource="http://purl.org/dc/dcmitype/StillImage" />
      </cc:Work>
    </rdf:RDF>
  </metadata>
  <defs
     id="defs9" />
  <sodipodi:namedview
     pagecolor="#ffffff"
     bordercolor="#666666"
     borderopacity="1"
     objecttolerance="10"
     gridtolerance="10"
     guidetolerance="10"
     inkscape:pageopacity="0"
     inkscape:pageshadow="2"
     inkscape:window-width="1366"
     inkscape:window-height="693"
     id="namedview7"
     showgrid="false"
     inkscape:zoom="0.22077732"
     inkscape:cx="-686.97831"
     inkscape:cy="-72.030515"
     inkscape:window-x="0"
     inkscape:window-y="0"
     inkscape:window-maximized="1"
     inkscape:current-layer="svg"
     inkscape:showpageshadow="0"
     inkscape:pagecheckerboard="0"
     inkscape:deskcolor="#d1d1d1" />
  <path
     style="fill:#ffffff;stroke-width:0.81263"
     d="m 326.6462,359.18584 c 2.23473,-1.18502 4.76485,-2.79311 5.62248,-3.57351 1.38271,-1.25823 1.43739,-1.67374 0.48262,-3.66857 -0.5922,-1.2373 -1.23115,-3.89521 -1.41989,-5.90647 -0.18868,-2.01126 -0.68019,-3.77873 -1.0921,-3.92772 -0.4119,-0.14906 -0.74891,-1.34241 -0.74891,-2.65206 0,-2.59143 -1.0759,-4.89345 -3.7612,-8.04755 -2.87285,-3.37439 -3.87571,-9.68873 -3.08772,-19.44092 1.38155,-17.09721 0.45835,-31.76134 -2.17564,-34.55831 -0.39983,-0.4246 -0.72699,-1.3043 -0.72699,-1.95488 0,-0.65056 -0.91421,-2.38144 -2.03158,-3.84638 -1.11736,-1.46497 -2.03157,-3.39773 -2.03157,-4.29505 0,-0.89735 -0.36569,-1.85755 -0.81263,-2.13376 -1.02287,-0.63215 -1.06587,-7.26768 -0.0594,-9.15311 0.41432,-0.77611 0.96688,-1.95961 1.22789,-2.63003 0.26103,-0.67041 1.17521,-2.31599 2.0315,-3.65683 0.8563,-1.34084 1.58366,-3.19973 1.61632,-4.13087 0.0327,-0.93112 0.31062,-1.94419 0.61767,-2.25124 0.99542,-0.99545 3.40984,-11.3998 3.45802,-14.90144 0.0259,-1.87316 0.41254,-3.63175 0.85948,-3.90795 0.44695,-0.27622 0.81263,-1.23306 0.81263,-2.1263 0,-0.89325 0.91421,-3.26159 2.03157,-5.26297 1.11737,-2.0014 2.03158,-4.17445 2.03158,-4.829 0,-0.65457 0.28251,-1.19012 0.62783,-1.19012 0.6163,0 2.20195,-2.89187 4.23301,-7.71998 0.56405,-1.34084 1.52953,-3.40852 2.1455,-4.59483 0.61597,-1.18634 1.11995,-3.26744 1.11995,-4.62468 0,-1.35724 0.36569,-2.69371 0.81263,-2.96993 1.09738,-0.67824 1.09738,-26.41046 0,-26.41046 -0.44694,0 -0.81263,-0.94923 -0.81263,-2.10936 0,-2.07129 -2.25578,-6.97437 -3.45367,-7.50677 -0.33521,-0.14906 -0.60947,-12.8349 -0.60947,-28.19093 0,-16.18537 -0.31528,-28.114888 -0.75011,-28.383628 -0.41256,-0.25496 -0.99014,-1.55645 -1.28352,-2.89214 -0.29336,-1.33575 -0.87003,-2.42856 -1.28147,-2.42856 -0.41142,0 -0.74805,-0.54855 -0.74805,-1.21897 0,-0.6704 -0.32604,-1.21894 -0.72454,-1.21894 -0.39849,0 -0.95397,-0.9142 -1.23443,-2.03157 -0.28044,-1.11737 -0.8686,-2.03157 -1.30704,-2.03157 -0.43841,0 -0.79714,-0.46175 -0.79714,-1.02607 0,-0.56434 -0.97813,-1.75281 -2.17363,-2.64105 -1.19551,-0.88824 -2.74966,-2.17737 -3.45368,-2.86471 -0.70401,-0.68734 -2.74277,-2.31425 -4.53056,-3.61532 -7.14802,-5.20199 -7.09766,-5.06363 -6.50942,-17.88857 0.62725,-13.67518 -0.18614,-18.35007 -3.8528,-22.14416 -1.40379,-1.45258 -2.8616,-2.64105 -3.23957,-2.64105 -0.37795,0 -1.48742,-0.74553 -2.46544,-1.65672 -0.97806,-0.91117 -2.60834,-1.86503 -3.62286,-2.11967 -1.01454,-0.25463 -1.84459,-0.78898 -1.84459,-1.1875 0,-0.39847 -2.00014,-0.72451 -4.44476,-0.72451 -4.31478,0 -8.57903,1.63502 -11.87183,4.55192 -0.70561,0.62508 -1.55651,1.13648 -1.89091,1.13648 -1.16866,0 -5.11253,4.5176 -6.50429,7.45048 -1.16642,2.45806 -1.22913,3.23701 -0.37117,4.61082 0.84369,1.35096 0.82383,2.04276 -0.10843,3.78497 -0.92708,1.73228 -0.94948,2.43845 -0.11961,3.76739 0.85849,1.37468 0.75506,2.08696 -0.64848,4.46579 -1.98452,3.36352 -2.10065,4.8534 -0.45024,5.777 1.71462,0.95955 4.46877,6.63623 4.46877,9.21076 0,1.25344 0.91025,3.06551 2.17536,4.33064 1.73227,1.73225 2.65451,2.07014 4.52759,1.65873 1.89094,-0.41531 2.81444,-0.0632 4.70939,1.79544 1.29648,1.27162 2.36737,2.76919 2.37979,3.32785 0.0127,0.55869 0.38826,1.0158 0.8352,1.0158 0.44695,0 0.81263,1.27988 0.81263,2.8442 0,1.56432 -0.27426,2.84652 -0.60947,2.84934 -0.8175,0.008 -3.45367,4.70529 -3.45367,6.15545 0,0.63419 -0.36569,1.15309 -0.81263,1.15309 -0.44695,0 -0.81263,0.65821 -0.81263,1.46272 0,0.804498 -0.31284,1.810128 -0.69518,2.234738 -2.07015,2.29893 -3.43687,9.90296 -3.51257,19.54272 -0.0698,8.87636 -0.26162,10.23782 -1.53937,10.92164 -1.91146,1.023 -6.20918,1.0033 -6.84864,-0.0315 -0.27625,-0.44694 -1.92182,-0.81262 -3.65683,-0.81262 -1.73504,0 -3.38062,0.36568 -3.65684,0.81262 -0.67085,1.08545 -3.65683,1.04342 -3.65683,-0.0516 0,-0.48536 -1.15754,-0.75249 -2.64105,-0.60947 -2.3758,0.22906 -2.66395,0.54032 -2.86906,3.09886 -0.2735,3.41162 -1.71579,6.50104 -3.03497,6.50104 -3.37262,0 -10.95803,6.03195 -10.95803,8.71388 0,0.83888 -0.41236,1.93761 -0.91634,2.44159 -1.01957,1.01957 -2.31922,19.69672 -2.87089,41.25725 -0.19427,7.59705 -0.70166,14.16107 -1.1273,14.58671 -0.42564,0.42564 -0.77388,1.58531 -0.77388,2.57707 0,0.99177 -0.5147,2.83847 -1.14377,4.10378 -0.62908,1.26532 -1.60507,3.30621 -2.16891,4.53531 -0.56379,1.2291 -1.66863,2.23473 -2.45518,2.23473 -0.78655,0 -2.70525,1.18848 -4.26382,2.64105 -4.78806,4.46249 -5.50254,4.67261 -15.88919,4.67261 h -9.69036 l -2.10382,2.50026 c -4.65819,5.53593 -1.25942,12.52625 8.82889,18.15848 2.06378,1.15218 4.25823,2.09488 4.87656,2.09488 0.61834,0 2.34236,0.61042 3.83117,1.35646 1.48879,0.74605 3.34187,1.66025 4.11798,2.03158 0.77609,0.37132 2.93567,0.67511 4.79906,0.67511 2.36183,0 4.19474,0.61534 6.05152,2.03158 1.46495,1.11736 3.23645,2.03157 3.93671,2.03157 0.70023,0 1.27316,0.36568 1.27316,0.81263 0,0.44695 1.12108,0.81263 2.49132,0.81263 1.37022,0 3.1416,0.34803 3.93638,0.77339 2.0269,1.08476 8.19963,-2.00839 8.19963,-4.10883 0,-0.84719 0.36569,-1.54034 0.81263,-1.54034 0.44695,0 0.81263,-0.89031 0.81263,-1.97844 0,-1.08814 0.55097,-4.59764 1.22436,-7.79884 1.12374,-5.34207 1.10964,-6.14337 -0.17167,-9.75064 -1.21717,-3.42698 -1.26306,-4.4835 -0.35837,-8.2506 0.57064,-2.37621 1.23499,-5.69393 1.47632,-7.3728 0.24125,-1.67884 0.76585,-3.25458 1.16559,-3.50162 0.39974,-0.24709 0.7268,-1.52464 0.7268,-2.83912 0,-1.31446 0.34105,-2.38992 0.75785,-2.38992 0.41683,0 0.98833,-0.82279 1.27004,-1.82842 0.61465,-2.19435 1.83332,-5.12088 3.34775,-8.03932 0.613,-1.18128 1.89597,-3.74106 2.85103,-5.6884 0.9551,-1.94737 2.23743,-4.51129 2.84964,-5.6976 0.61222,-1.18634 1.11313,-3.51663 1.11313,-5.17846 0,-2.59363 0.17268,-2.87823 1.21894,-2.00984 0.67042,0.5564 1.21895,1.88107 1.21895,2.94371 0,1.06264 0.36568,1.93207 0.81263,1.93207 0.44694,0 0.81263,0.5224 0.81263,1.1609 0,0.63849 0.4571,1.65827 1.01578,2.26617 1.72044,1.87196 3.04736,4.60019 3.04736,6.2655 0,0.87357 0.34253,1.80002 0.76118,2.05877 2.34454,1.44899 4.32906,9.45898 2.60717,10.52314 -0.38216,0.23617 -0.90765,3.27467 -1.1678,6.75217 -0.26016,3.47749 -0.91753,7.44669 -1.46085,8.82044 -1.27489,3.2236 -0.56181,5.80985 2.49208,9.0382 1.35115,1.42832 2.46826,3.07389 2.48246,3.65683 0.0152,0.58291 0.56274,1.76968 1.21894,2.63726 0.65622,0.86758 1.19312,3.15808 1.19312,5.08996 0,1.9319 0.3086,4.14753 0.68576,4.92362 0.37716,0.77611 1.10164,2.21789 1.60997,3.20402 0.50832,0.9861 1.16198,3.27972 1.45255,5.09694 0.29059,1.81719 0.846,3.50032 1.23423,3.74028 0.38823,0.23998 0.7059,1.15101 0.7059,2.02459 0,1.59285 0.19401,2.10321 2.70669,7.11736 0.74604,1.48882 1.35645,3.77434 1.35645,5.07894 0,1.30462 0.36569,2.37204 0.81263,2.37204 0.44695,0 0.81263,1.41674 0.81263,3.14835 0,1.73159 0.54853,4.70302 1.21895,6.6032 0.67042,1.90018 1.21894,4.48435 1.21894,5.74263 0,1.25825 0.36569,2.51376 0.81263,2.78998 0.44695,0.27622 0.81263,1.27748 0.81263,2.22501 0,1.90772 1.24112,6.22319 2.86577,9.96444 0.58227,1.34083 1.30711,3.90062 1.61078,5.6884 0.30364,1.78779 0.74206,4.25615 0.97421,5.48525 0.34685,1.83624 0.13104,2.23473 -1.21008,2.23473 -0.89772,0 -2.49337,0.95002 -3.54591,2.11114 -1.05256,1.16112 -2.55366,2.70511 -3.33581,3.43112 -0.78216,0.72599 -1.42211,1.81105 -1.42211,2.41123 0,0.60018 -2.05199,3.07869 -4.55999,5.50782 -4.48396,4.3429 -4.64078,4.41654 -9.40329,4.41654 -6.04566,0 -7.44151,1.18078 -7.36517,6.23033 0.0462,3.06493 0.48303,4.03519 2.7119,6.02512 1.46118,1.30455 3.43189,2.37188 4.37936,2.37188 0.94747,0 2.1798,0.45711 2.73849,1.01579 0.73393,0.73391 5.23272,1.03862 16.21195,1.09809 9.38087,0.0508 16.07161,0.43951 17.48381,1.01579 3.50225,1.42911 7.06208,1.00977 11.52707,-1.35793 z m -6.79252,-4.73689 c 1.9481,-0.60401 4.54763,-1.43208 5.77673,-1.84015 1.38421,-0.45957 2.23473,-0.44982 2.23473,0.0257 0,0.42216 -0.63994,0.97205 -1.4221,1.22204 -0.78216,0.24988 -2.15347,0.76816 -3.04736,1.15155 -2.30731,0.98958 -4.69461,1.35539 -5.97989,0.91634 -0.60726,-0.20748 0.48979,-0.87137 2.43789,-1.47541 z m -30.99476,-1.19957 c 4.69294,-0.3391 10.31024,-0.86068 12.48288,-1.15911 2.32285,-0.31906 4.66632,-0.18513 5.68841,0.32525 0.95598,0.47729 2.65235,1.01609 3.76971,1.19728 1.11737,0.18132 -5.28209,0.31228 -14.22102,0.29128 -14.54289,-0.034 -15.35499,-0.1031 -7.71998,-0.6547 z m -9.15305,-5.42981 c 3.53273,-0.18945 5.33202,-0.76862 7.48272,-2.40902 4.1666,-3.17804 8.98049,-8.16301 9.00782,-9.32797 0.03,-1.27273 4.54052,-6.29788 5.65313,-6.29788 0.45325,0 0.82408,0.5884 0.82408,1.30757 0,2.56641 8.37707,10.88187 10.9625,10.88187 1.95486,0 6.36945,-2.04081 8.3659,-3.86745 1.48036,-1.35445 2.6126,-0.55884 2.6126,1.83588 0,1.06462 0.36569,2.16167 0.81263,2.43789 0.44695,0.27622 0.81263,1.76054 0.81263,3.29849 0,2.5527 -0.20823,2.79623 -2.38994,2.79623 -1.31446,0 -2.61593,0.36568 -2.89215,0.81263 -0.27624,0.44695 -2.10466,0.81263 -4.06315,0.81263 -1.95851,0 -3.78693,-0.36568 -4.06314,-0.81263 -0.27625,-0.44695 -1.55614,-0.81263 -2.84421,-0.81263 -1.28809,0 -2.56798,-0.36568 -2.8442,-0.81263 -0.27625,-0.44694 -2.30909,-0.81263 -4.51743,-0.81263 -2.20835,0 -4.01518,-0.22906 -4.01518,-0.50896 0,-0.2799 1.11983,-2.71261 2.4885,-5.40599 1.95224,-3.84173 2.2587,-5.0428 1.4221,-5.57332 -0.58651,-0.37195 -1.44224,-0.6819 -1.90158,-0.68873 -1.14393,-0.0178 -3.63428,2.99706 -3.63428,4.39859 0,0.62806 -0.27427,1.26384 -0.60947,1.41281 -1.05878,0.47056 -3.48118,5.66367 -3.0029,6.43754 0.25166,0.40739 1.44181,0.79072 2.64453,0.85187 1.20274,0.0612 -0.19021,0.41056 -3.09531,0.77642 -2.90515,0.36588 -7.12968,0.46558 -9.38785,0.22144 -3.15593,-0.34105 -4.35389,-0.14475 -5.17843,0.84884 -0.714,0.8603 -0.76768,1.29251 -0.1605,1.29251 0.50168,0 0.899,0.45711 0.88292,1.01579 -0.0152,0.55868 -0.92792,-0.0813 -2.02634,-1.4221 l -1.99708,-2.43789 z m 31.44231,-12.69472 c -0.6385,-0.6385 -1.16089,-1.55271 -1.16089,-2.03158 0,-1.09999 3.79503,-1.14928 4.46946,-0.0581 0.85936,1.39048 2.55618,0.89486 3.47765,-1.01579 l 0.88181,-1.82841 0.0551,1.94198 c 0.0998,3.52366 -5.15537,5.55947 -7.72303,2.99184 z m -4.2501,-8.06743 c 0.534,-1.00579 0.50515,-2.6826 -0.0866,-5.03249 -0.48809,-1.93825 -0.8874,-4.52467 -0.8874,-5.7476 0,-2.16647 -1.20736,-6.76563 -2.4343,-9.27292 -0.33527,-0.6851 -0.88112,-2.51351 -1.21303,-4.06315 -0.33191,-1.54966 -0.88582,-3.18322 -1.23088,-3.63016 -0.34507,-0.44695 -0.8302,-2.27537 -1.07808,-4.06315 -1.05977,-7.64314 -2.06022,-12.49746 -2.89845,-14.0637 -0.49324,-0.92165 -0.89681,-2.59239 -0.89681,-3.71278 0,-1.12036 -0.36568,-2.26304 -0.81263,-2.53926 -0.44695,-0.27622 -0.82426,-1.30343 -0.83848,-2.2827 -0.0152,-0.97925 -0.56275,-2.49028 -1.21895,-3.35787 -0.6562,-0.86758 -1.19309,-2.40015 -1.19309,-3.40572 0,-1.00556 -0.36568,-2.05431 -0.81263,-2.33053 -0.44695,-0.27621 -0.81263,-2.03853 -0.81263,-3.91626 0,-2.5156 -0.53461,-3.99057 -2.03157,-5.60496 -2.98141,-3.21532 -2.89317,-9.98549 0.19808,-15.19109 0.10894,-0.18335 0.88315,0.45654 1.72056,1.4221 0.83742,0.96553 2.07485,1.75553 2.74986,1.75553 0.67499,0 1.68253,0.54853 2.23892,1.21895 0.5564,0.67042 1.34039,1.21894 1.74218,1.21894 0.76227,0 6.96462,3.86697 8.46981,5.28067 0.47671,0.44773 1.51868,1.81097 2.31549,3.02941 1.43675,2.19699 1.43099,2.22345 -0.69516,3.19218 -2.07629,0.94603 -2.1365,1.1709 -1.90919,7.12989 0.23058,6.04193 0.2751,6.1577 2.46948,6.41017 2.01953,0.23236 2.24725,-0.002 2.36477,-2.43789 l 0.13002,-2.69501 0.32777,2.64105 c 0.1803,1.45258 0.67027,2.64105 1.08887,2.64105 0.41864,0 0.76116,0.45184 0.76116,1.00413 0,0.55225 0.86456,2.83778 1.92126,5.07893 3.6839,7.81318 3.80897,8.92791 3.57973,31.90422 -0.17116,17.14595 -0.4408,21.85359 -1.23469,21.54966 -0.55868,-0.21382 -1.01578,-0.67631 -1.01578,-1.02762 0,-2.34824 -6.13835,-1.47469 -6.77616,0.96431 -0.36437,1.39334 -0.60679,1.47447 -1.61549,0.54066 -0.86169,-0.79767 -0.96741,-1.51187 -0.38597,-2.60699 z m 7.40285,-22.2209 c 1.81971,-0.4715 1.60233,-4.65589 -0.25039,-4.82222 -0.67042,-0.0602 -1.85889,-0.15161 -2.64105,-0.20316 -0.94039,-0.062 -1.4221,-0.76565 -1.4221,-2.07733 0,-1.09101 -0.36568,-2.20965 -0.81263,-2.48586 -0.44694,-0.27622 -0.81263,-1.50781 -0.81263,-2.73684 0,-1.22905 -0.48128,-2.89281 -1.06949,-3.69726 -1.32802,-1.81617 -4.09144,-1.39305 -4.49219,0.68784 -0.5035,2.61454 2.57644,10.36088 5.25134,13.20757 2.47811,2.63726 3.25734,2.90251 6.24924,2.12726 z m -12.38341,-42.16186 c 0.76817,-0.92559 0.83138,-1.66244 0.225,-2.6236 -0.87822,-1.39229 -5.62926,-2.79459 -7.39213,-2.18184 -1.86235,0.64731 -1.03646,3.23069 1.49308,4.67039 3.08811,1.75761 4.30332,1.78654 5.67395,0.1351 z m -63.70515,-10.84637 -2.87595,-1.12842 1.90107,-1.49539 c 1.04558,-0.82243 2.30048,-1.49536 2.78867,-1.49536 0.48819,0 0.88762,-0.36568 0.88762,-0.81263 0,-0.44695 0.48674,-0.81263 1.08161,-0.81263 1.37444,0 3.35243,-3.61823 2.62312,-4.7983 -0.30258,-0.48956 -0.12596,-0.89011 0.39229,-0.89011 0.63614,0 0.79907,1.12235 0.50132,3.45368 -0.24252,1.89952 -0.68977,5.54889 -0.99372,8.10971 -0.54972,4.63158 -0.56016,4.64644 -1.99135,2.82696 -0.79132,-1.00601 -2.73292,-2.33687 -4.31468,-2.95751 z m -4.01825,4.28672 c 0.55018,-0.22271 1.64723,-0.23617 2.43789,-0.0302 0.79066,0.20595 0.34052,0.38816 -1.00032,0.40471 -1.34084,0.0178 -1.98775,-0.15211 -1.43757,-0.37462 z m 73.48505,-10.58577 c -1.26105,-1.25927 -4.39851,-3.38663 -6.97218,-4.72747 -3.2233,-1.6793 -4.2143,-2.52565 -3.18478,-2.71993 0.82201,-0.15516 1.80272,-0.57295 2.17932,-0.92855 0.87274,-0.82396 -0.82682,-4.06945 -2.13543,-4.07785 -0.99918,-0.008 -3.01877,-3.57778 -3.01877,-5.33824 0,-0.52659 -0.54852,-1.41268 -1.21894,-1.96908 -0.67042,-0.5564 -1.21895,-1.6982 -1.21895,-2.53737 0,-0.83917 -0.36568,-1.52576 -0.81263,-1.52576 -0.44694,0 -0.81263,-0.89263 -0.81263,-1.98361 0,-1.091 -0.36568,-2.20964 -0.81263,-2.48586 -0.44694,-0.27621 -0.81263,-1.35434 -0.81263,-2.39581 0,-2.63007 -2.64958,-5.72865 -4.34289,-5.07886 -2.61667,1.00411 -1.61035,5.28987 3.61292,15.38678 0.40147,0.77608 0.72997,1.91978 0.72997,2.54155 0,0.62174 0.54853,1.58569 1.21895,2.14209 0.67042,0.55639 1.21894,1.69928 1.21894,2.53974 0,1.17773 -0.67377,0.78231 -2.93877,-1.72478 -2.49442,-2.76103 -3.42907,-3.25285 -6.18165,-3.25285 -2.79897,0 -3.15227,-0.19478 -2.58078,-1.4221 0.36418,-0.78216 0.7983,-4.30289 0.96471,-7.82388 0.2316,-4.89988 0.66859,-6.79463 1.8627,-8.07635 0.85806,-0.92104 1.56013,-1.94299 1.56013,-2.27104 0,-0.32803 4.8453,-0.77071 10.76734,-0.98372 11.63127,-0.41835 19.81173,-1.55062 21.19467,-2.93357 0.47752,-0.47752 1.71424,-0.86821 2.74829,-0.86821 1.03404,0 2.51506,-0.31347 3.29115,-0.69661 4.56939,-2.25573 7.23885,-3.81956 8.28214,-4.85188 0.88277,-0.87347 1.26659,-0.91852 1.51352,-0.17776 0.18208,0.54594 -0.0759,1.3994 -0.57318,1.89663 -0.49723,0.49723 -0.90405,1.74512 -0.90405,2.7731 0,1.02797 -0.34105,1.86904 -0.75788,1.86904 -0.41683,0 -1.01464,0.82279 -1.32847,1.82842 -0.31383,1.00563 -0.80146,2.01126 -1.08364,2.23473 -1.20219,0.95213 -6.58156,12.51089 -6.58156,14.14196 0,0.98207 -0.40993,2.1955 -0.91094,2.69648 -0.50098,0.50101 -1.216,3.22535 -1.58892,6.05409 -1.30335,9.88673 -2.00922,12.64804 -4.11896,16.11368 -0.40812,0.67042 -0.96081,1.87379 -1.22821,2.67418 -0.45645,1.36631 -0.5548,1.35722 -1.60932,-0.1483 -0.61775,-0.88193 -2.15494,-2.63384 -3.41596,-3.89311 z m -0.12977,-9.52201 c 0,-2.28705 -1.70081,-5.61177 -5.91576,-11.56401 -1.54121,-2.17645 -3.0417,-4.96281 -3.33448,-6.19191 -0.29275,-1.2291 -0.89099,-2.23473 -1.32943,-2.23473 -0.43844,0 -0.79714,-0.89262 -0.79714,-1.9836 0,-2.49457 -1.12156,-3.21893 -3.23373,-2.08854 -1.66808,0.89273 -2.31564,4.07214 -0.82942,4.07214 0.44695,0 0.81263,0.72491 0.81263,1.61094 0,1.39683 5.8164,11.88913 7.21562,13.01638 0.27738,0.22347 1.25173,1.86905 2.16517,3.65683 2.02977,3.97259 5.24654,5.01888 5.24654,1.7065 z m -90.56037,13.70761 c -0.86756,-0.6562 -2.40013,-1.19309 -3.40571,-1.19309 -1.00555,0 -2.0543,-0.36569 -2.33052,-0.81263 -0.27624,-0.44695 -1.00382,-0.81263 -1.61685,-0.81263 -1.94775,0 -10.96065,-6.04228 -10.96997,-7.3543 -0.005,-0.69277 -0.44776,-1.69839 -0.98409,-2.23473 -0.75847,-0.75846 -0.68073,-0.97516 0.34978,-0.97516 0.75534,0 1.43661,0.78607 1.58463,1.82842 0.16684,1.17504 0.91307,1.92121 2.0881,2.0881 1.00563,0.14272 1.82842,0.59993 1.82842,1.01579 0,0.41586 0.82279,0.76773 1.82842,0.78195 1.00563,0.0152 2.53824,0.56275 3.40583,1.21895 0.86758,0.6562 2.23889,1.19309 3.04736,1.19309 0.80846,0 1.46994,0.36568 1.46994,0.81263 0,0.44695 0.45711,0.81847 1.01579,0.82561 0.55868,0.008 2.2538,1.10418 3.76695,2.43788 2.76383,2.43606 1.87247,3.4118 -1.07808,1.18012 z m 8.48479,-2.00572 c 0,-0.44695 -0.566,-0.81263 -1.25775,-0.81263 -0.69175,0 -2.06306,-0.84049 -3.04736,-1.86775 -0.9843,-1.0273 -3.0661,-2.46976 -4.62625,-3.20552 l -2.83664,-1.33774 4.28269,0.0333 c 3.39054,0.0262 4.85887,-0.40632 7.04872,-2.0766 1.52132,-1.16034 2.98923,-2.10974 3.26202,-2.10974 0.27282,0 1.48293,-0.91512 2.68917,-2.03361 2.53292,-2.34865 3.44903,-2.25872 4.81354,0.47252 1.83735,3.67766 3.71008,5.62419 5.4288,5.64275 1.31476,0.0152 1.05131,0.33993 -1.12961,1.39686 -1.56431,0.75811 -2.9661,1.66399 -3.11509,2.01306 -0.14906,0.3491 -0.79135,0.63472 -1.42748,0.63472 -0.63611,0 -1.95148,0.9142 -2.92303,2.03157 -1.221,1.40427 -2.59938,2.03157 -4.46408,2.03157 -1.48371,0 -2.69765,-0.36568 -2.69765,-0.81263 z m -16.65891,-9.75156 c -0.27624,-0.44694 -1.23814,-0.81262 -2.1376,-0.81262 -1.39134,0 -3.95712,-1.69203 -3.95712,-2.60956 0,-0.15821 2.57898,-0.14196 5.73107,0.0361 6.99291,0.39514 11.80106,-1.2142 15.57201,-5.21211 2.15279,-2.28237 3.20562,-2.77467 5.89566,-2.75672 l 3.27487,0.0229 -2.84421,2.4044 c -1.56431,1.32237 -3.84983,2.86454 -5.07893,3.42701 -1.2291,0.56246 -2.23473,1.29906 -2.23473,1.63691 0,0.33785 -0.52242,0.61428 -1.16089,0.61428 -0.6385,0 -1.71224,0.55131 -2.38609,1.22516 -0.75955,0.75956 -1.41753,0.91396 -1.73125,0.40632 -0.93709,-1.51624 -4.59588,-0.93204 -5.0505,0.8064 -0.44206,1.69045 -3.01747,2.22813 -3.89229,0.81263 z m 83.50317,-2.43788 c -0.21382,-0.78401 -0.0929,-0.89997 0.33897,-0.32501 0.36924,0.49167 1.21986,1.12517 1.89028,1.40776 0.85646,0.36103 0.75567,0.45769 -0.33897,0.32502 -0.85686,-0.10386 -1.70749,-0.73736 -1.89028,-1.40777 z m -11.83699,-1.82842 c -1.60258,-1.40473 -1.59605,-1.4221 0.53352,-1.4221 1.90371,0 2.14839,0.30895 2.09173,2.64104 -0.0353,1.45258 -0.27535,2.09252 -0.53349,1.4221 -0.25813,-0.67041 -1.19944,-1.85889 -2.09176,-2.64104 z m -37.70987,-0.37729 c 1.31567,-1.3157 1.39308,-1.23829 1.39308,1.39308 0,2.63137 -0.0775,2.70877 -1.39308,1.39307 -1.3157,-1.31567 -1.3157,-1.47048 0,-2.78615 z m -3.20826,-4.49849 c 0.2255,-0.55868 0.40987,-0.10158 0.40987,1.01579 0,1.11736 -0.18437,1.57447 -0.40987,1.01578 -0.2255,-0.55868 -0.2255,-1.47289 0,-2.03157 z m 4.02417,-3.85999 c -0.5241,-2.00408 -3.10415,-2.12717 -4.25823,-0.20316 -0.81238,1.35438 -0.89364,1.35438 -1.70602,0 -0.46916,-0.78214 -1.56621,-1.42208 -2.43789,-1.42208 -1.89538,0 -2.06052,-2.14702 -0.34011,-4.42162 0.65623,-0.86759 1.19312,-2.2389 1.19312,-3.04736 0,-0.80847 0.32726,-1.46995 0.72728,-1.46995 1.11686,0 1.76683,-5.58487 2.45899,-21.12837 0.34829,-7.82156 1.05375,-15.49849 1.56769,-17.05986 0.51394,-1.56137 0.93445,-4.57825 0.93445,-6.70419 0,-3.07017 0.27939,-3.86535 1.35811,-3.86535 2.03375,0 4.3303,-2.43716 4.3303,-4.59542 0,-1.565 -0.42514,-1.90562 -2.37832,-1.90562 -1.5817,0 -2.50277,0.4763 -2.74993,1.4221 -0.20443,0.78216 -0.41407,-0.44156 -0.4659,-2.71936 -0.11884,-5.22584 1.60919,-8.73323 5.12495,-10.40156 3.60061,-1.70863 4.84924,-1.67292 4.15607,0.11885 -0.3026,0.78216 -0.75313,2.42773 -1.00116,3.65683 -0.24811,1.2291 -0.79526,2.23473 -1.21602,2.23473 -1.1193,0 -0.42907,4.28558 0.75275,4.67356 0.5519,0.18107 2.10605,-0.87774 3.45367,-2.35317 3.25903,-3.56818 3.26479,-7.80363 0.0127,-9.04175 -0.67042,-0.25521 0.50363,-0.49288 2.609,-0.52815 2.50858,-0.0419 4.1891,0.36568 4.87577,1.18298 0.57631,0.68594 1.50494,1.75686 2.06363,2.37986 0.55868,0.62296 1.01578,2.05144 1.01578,3.17434 0,1.12292 0.31165,2.23427 0.69257,2.4697 0.38092,0.23541 0.90659,2.98098 1.16818,6.10128 0.26159,3.12027 0.86415,6.3992 1.33901,7.28647 0.47485,0.88729 0.86339,3.07844 0.86339,4.86922 0,1.79081 0.36568,3.48199 0.81263,3.75823 0.44695,0.27622 0.81263,1.09292 0.81263,1.81486 0,1.04951 -0.40723,0.93006 -2.03157,-0.59591 -1.78395,-1.67595 -2.03158,-2.58779 -2.03158,-7.48084 0,-4.20348 -0.29943,-5.68716 -1.21894,-6.03999 -0.75212,-0.28862 -1.21895,-1.52376 -1.21895,-3.22503 0,-1.51649 -0.32304,-2.75725 -0.71785,-2.75725 -0.39481,0 -0.90911,-0.73137 -1.14286,-1.62526 -0.24938,-0.95347 -1.10846,-1.62526 -2.07841,-1.62526 -3.08901,0 -3.09477,1.4796 -0.0292,7.50578 0.39494,0.77611 0.71796,7.25587 0.71796,14.39946 0,11.6635 -0.1737,13.30176 -1.70185,16.06048 -2.78011,5.0185 -3.42935,5.16579 -2.79573,0.63418 0.31248,-2.23472 0.90372,-4.41054 1.3139,-4.83514 0.41017,-0.4246 0.74579,-1.79591 0.74579,-3.04736 0,-1.98645 -0.30959,-2.27536 -2.43789,-2.27536 -2.00486,0 -2.43789,0.33328 -2.43789,1.87623 0,1.03196 -0.53689,2.58612 -1.19312,3.45368 -0.71122,0.94034 -1.20352,3.42457 -1.21894,6.15094 -0.0203,3.76791 0.27609,4.77397 1.68821,5.71157 l 1.71402,1.13809 -1.78045,4.03996 c -0.97922,2.22201 -2.11622,4.67495 -2.52664,5.45107 -0.41043,0.77608 -0.74623,2.1056 -0.74623,2.95446 0,0.84887 -0.54629,2.59082 -1.21394,3.87102 -0.66767,1.28019 -1.2162,3.51609 -1.21894,4.96867 -0.005,2.89904 -1.53133,3.6012 -2.20743,1.01577 z m 38.77076,-24.3309 c 0,-1.76143 -0.36569,-3.42859 -0.81263,-3.70481 -0.44695,-0.27621 -0.81263,-1.3611 -0.81263,-2.41084 0,-1.04974 -0.95784,-3.86222 -2.12851,-6.24993 -1.17069,-2.38771 -2.48906,-5.25551 -2.92976,-6.37287 -0.4407,-1.11737 -1.28431,-3.12863 -1.87473,-4.46947 -1.36758,-3.10581 -2.0555,-6.7726 -2.51545,-13.40838 -0.20138,-2.90515 -0.68921,-6.01346 -1.08404,-6.90735 -0.39484,-0.8939 -0.9535,-2.70002 -1.24145,-4.01361 -0.28797,-1.31356 -1.26595,-3.43089 -2.17333,-4.70517 l -1.64973,-2.31686 6.37639,0.11428 c 5.88337,0.10538 10.36926,0.59037 22.22268,2.40198 2.4582,0.37571 6.29788,0.94493 8.53261,1.26493 2.23473,0.32002 4.24599,0.83193 4.46946,1.13755 0.80527,1.10135 5.97824,3.27262 7.79688,3.27262 1.02231,0 2.08475,-0.36569 2.36099,-0.81263 0.70638,-1.14294 5.42019,-0.96495 7.03826,0.26575 1.21676,0.92546 1.13664,1.11618 -0.81263,1.93414 -3.80079,1.59491 -11.27274,3.48851 -13.76536,3.48851 -1.32758,0 -3.9685,-0.54852 -5.86866,-1.21894 -4.64445,-1.63867 -17.68335,-1.6217 -19.86158,0.0259 -0.86758,0.6562 -2.18272,1.19309 -2.92252,1.19309 -0.73979,0 -2.49832,0.57532 -3.90783,1.27847 -3.30189,1.6472 -3.69835,5.22257 -0.57913,5.22257 1.09098,0 2.20962,-0.36568 2.48586,-0.81263 0.27622,-0.44695 1.37327,-0.81263 2.43789,-0.81263 1.0646,0 2.1312,-0.31639 2.37019,-0.7031 0.86304,-1.39643 6.75579,-1.68232 16.32029,-0.79181 11.2214,1.04477 10.77354,1.03864 16.65891,0.22754 4.81501,-0.66369 10.44559,-3.16636 11.12868,-4.94645 0.64617,-1.68395 2.31531,-1.30958 3.24869,0.72865 3.41398,7.45506 3.50048,7.94396 3.50048,19.78725 0,12.64919 -0.62778,15.37878 -3.33902,14.51826 -0.8881,-0.28188 -2.0543,-0.15491 -2.59155,0.28229 -2.28504,1.85924 -8.73041,5.02789 -10.2273,5.02789 -0.89323,0 -1.82009,0.31718 -2.05969,0.70485 -0.23947,0.38765 -2.18099,0.96 -4.31425,1.27187 -2.13328,0.31185 -5.88991,0.87802 -8.34812,1.25815 -2.4582,0.38011 -7.6476,0.722 -11.53202,0.75971 -3.88439,0.0376 -7.28855,0.43425 -7.56477,0.8812 -1.08938,1.76264 -2.03157,0.65424 -2.03157,-2.38992 z m 27.6294,-3.7303 c 0,-1.21224 -0.58408,-2.27826 -1.4221,-2.59559 -0.78216,-0.29615 -1.90534,-1.01607 -2.49594,-1.59976 -0.5906,-0.58368 -1.58511,-1.06125 -2.21,-1.06125 -0.62491,0 -2.43832,-0.73136 -4.02983,-1.62526 -1.59151,-0.89389 -3.24821,-1.62526 -3.68157,-1.62526 -0.43333,0 -1.45531,-0.63994 -2.27109,-1.4221 -2.74941,-2.63619 -6.17685,-5.07893 -7.12631,-5.07893 -0.51868,0 -1.38456,0.53197 -1.92418,1.18219 -0.80427,0.96907 -0.29602,1.84805 2.81927,4.87578 2.09024,2.03145 4.31539,3.69358 4.9448,3.69358 0.62938,0 1.14436,0.36569 1.14436,0.81263 0,0.44695 0.4745,0.81263 1.05446,0.81263 0.57997,0 3.55373,1.27989 6.60838,2.84421 6.75374,3.45865 8.58975,3.62689 8.58975,0.78713 z m 10.83504,-8.23626 c 0.29799,-0.29795 0.54177,-1.395 0.54177,-2.43788 0,-1.73057 -0.35054,-1.89612 -4.0152,-1.89612 -2.20834,0 -4.24119,-0.36569 -4.5174,-0.81263 -0.27625,-0.44695 -1.69066,-0.81263 -3.14318,-0.81263 -1.4525,0 -3.35075,-0.53692 -4.21834,-1.19312 -0.86758,-0.6562 -2.21459,-1.20472 -2.99334,-1.21894 -1.9673,-0.0358 -5.75614,-3.26033 -11.36993,-9.67619 -2.38012,-2.72017 -4.45745,-3.26677 -5.1873,-1.36483 -0.82492,2.14973 7.509,12.64045 10.04172,12.64045 0.56325,0 1.02409,0.36568 1.02409,0.81263 0,0.44694 0.54852,0.81263 1.21894,0.81263 0.67042,0 1.21895,0.33663 1.21895,0.74805 0,0.41142 1.09286,0.98811 2.42857,1.28146 1.33571,0.29339 2.63718,0.87096 2.89214,1.28353 0.25499,0.41253 2.24885,0.75011 4.43084,0.75011 2.18196,0 4.19322,0.36568 4.46946,0.81262 0.55864,0.90388 6.32754,1.12156 7.17821,0.27086 z m 6.48768,-39.42944 c 0.25941,-0.64828 0.45198,-0.45571 0.49096,0.49095 0.0353,0.85664 -0.15669,1.3366 -0.42681,1.06658 -0.27002,-0.27002 -0.29889,-0.97094 -0.064,-1.55753 z m -15.92451,-0.99634 c -1.29915,-0.98559 -1.31303,-1.14799 -0.13663,-1.5994 0.7201,-0.27632 1.87093,-0.50241 2.55737,-0.50241 2.73178,0 9.9958,-9.4617 9.9958,-13.01998 0,-0.83129 0.36569,-1.73745 0.81263,-2.01367 0.44695,-0.27624 0.81263,-1.35021 0.81263,-2.38662 0,-1.0364 0.54853,-3.19716 1.21895,-4.80172 0.85745,-2.05217 1.21894,-5.85716 1.21894,-12.83043 0,-5.4522 0.18818,-9.72501 0.41792,-9.49517 0.5131,0.51309 0.23262,32.0622 -0.37685,42.39978 -0.0229,0.38303 -0.56186,0.49657 -1.19835,0.25243 -0.63652,-0.2443 -2.08178,0.48036 -3.21169,1.61027 -1.12991,1.12991 -2.35071,1.87126 -2.71289,1.6474 -0.36218,-0.22372 -1.56815,0.0965 -2.6799,0.71187 -2.56146,1.41781 -4.87304,1.42736 -6.71788,0.0277 z m -14.0346,-3.62841 c -1.51743,-1.40336 -13.16917,-2.83199 -25.52385,-3.12952 -14.39759,-0.34671 -17.08592,-1.24111 -10.84957,-3.6096 4.813,-1.8279 5.82076,-1.84606 7.7071,-0.1389 1.24434,1.1261 1.98749,1.20033 4.53346,0.45276 1.6748,-0.49179 5.33065,-1.14512 8.12406,-1.45187 2.79341,-0.30674 5.07893,-0.87616 5.07893,-1.26539 0,-0.38919 0.50673,-0.70765 1.12605,-0.70765 1.32368,0 4.03298,-1.36151 7.41799,-3.72776 1.33454,-0.93289 3.06641,-1.92704 3.84857,-2.20923 1.25581,-0.45307 1.4221,-1.7568 1.4221,-11.1507 0,-7.18245 0.2755,-10.46736 0.8482,-10.1134 0.46655,0.28833 1.3138,0.13789 1.88277,-0.33435 1.40653,-1.16732 1.03203,-7.569858 -0.49929,-8.535768 -1.71589,-1.0824 -3.85694,-0.0203 -3.85694,1.915238 0,0.92559 -0.53548,1.65079 -1.21895,1.65079 -0.76748,0 -1.21894,-0.77396 -1.21894,-2.08963 0,-1.149268 0.54852,-2.638148 1.21894,-3.308578 0.67042,-0.67042 1.21895,-2.21672 1.21895,-3.43625 0,-1.21953 0.33018,-2.5647 0.73375,-2.98931 0.40355,-0.42458 0.90966,-1.50335 1.12468,-2.39725 0.30382,-1.26312 0.41193,-1.14239 0.48519,0.54174 0.0518,1.19186 -0.33721,2.31084 -0.86456,2.48662 -1.52693,0.50898 -0.0792,3.06638 1.73575,3.06638 1.02889,0 2.40186,-1.20595 3.68235,-3.23442 2.46674,-3.90756 2.56972,-5.42744 0.41402,-6.11162 -1.41235,-0.44828 -1.47381,-0.6706 -0.46437,-1.68003 1.31069,-1.31071 4.65395,-1.52779 6.77575,-0.43994 0.77609,0.39788 2.96105,1.40351 4.85544,2.23474 2.15227,0.94433 3.44783,2.04474 3.45368,2.93339 0.005,0.78215 0.29973,1.42208 0.65472,1.42208 0.35494,0 1.27441,2.04276 2.04321,4.53946 1.15886,3.76342 1.23491,5.0832 0.44491,7.719968 -1.00504,3.35456 -1.83989,3.98085 -2.61476,1.96159 -0.25728,-0.67042 -1.39343,-1.21894 -2.52484,-1.21894 -2.69542,0 -2.7042,2.07014 -0.0254,6.0174 1.11737,1.64654 2.03158,4.05294 2.03158,5.34753 0,1.29462 0.36568,2.57985 0.81263,2.85609 0.44694,0.27622 0.81263,2.28747 0.81263,4.46946 0,2.18196 -0.36569,4.19322 -0.81263,4.46946 -0.44695,0.27622 -0.81263,1.34039 -0.81263,2.36481 0,1.02442 -0.91421,3.58197 -2.03158,5.68345 -1.11736,2.10146 -2.03157,4.19332 -2.03157,4.64852 0,1.47655 -2.27427,3.1508 -4.20825,3.09797 l -1.88647,-0.0516 1.89647,-0.76011 c 2.88138,-1.15485 1.65838,-2.76243 -2.32138,-3.05132 -2.92627,-0.21255 -3.7964,0.0703 -4.95854,1.61093 -1.03432,1.37124 -1.1763,2.14951 -0.53346,2.92407 1.79459,2.16236 -4.94683,4.74381 -7.1258,2.72864 z m -16.01713,-17.77336 c 0.43029,-10.31998 1.25917,-16.95292 2.33207,-18.66191 0.62146,-0.98988 1.12994,-2.52247 1.12994,-3.4057 0,-0.88324 0.36568,-1.83189 0.81262,-2.10812 0.44695,-0.27623 0.81263,-1.18157 0.81263,-2.0118 0,-0.830278 0.27427,-1.631498 0.60948,-1.780478 0.33521,-0.14906 1.4206,-1.93321 2.41201,-3.96491 0.99138,-2.03172 2.73777,-4.57263 3.88084,-5.64649 l 2.0783,-1.95244 -1.35938,4.02121 c -0.74764,2.21168 -1.73103,4.84025 -2.18526,5.84128 -0.87942,1.93799 0.36766,7.230518 2.43806,10.347068 0.58568,0.8816 1.0597,2.34433 1.05335,3.25051 -0.0127,1.65797 -7.2416,9.80966 -10.1888,11.48772 -2.07835,1.18334 -2.05158,3.86529 0.0424,4.25406 1.73999,0.32302 3.65683,1.61856 3.65683,2.47154 0,0.83576 -3.47909,2.3228 -5.6884,2.43131 -1.9641,0.0965 -2.0251,-0.0554 -1.83675,-4.57285 z m 13.47106,-2.79341 c 0.25941,-0.64827 0.45198,-0.45571 0.49096,0.49096 0.0353,0.85664 -0.15669,1.33659 -0.42681,1.06657 -0.27002,-0.27004 -0.2989,-0.97094 -0.064,-1.55753 z m 7.76795,-39.070568 c 0.80258,-0.79658 0.8959,-0.70326 0.45492,0.45492 -0.30516,0.80144 -0.75958,1.25244 -1.00977,1.00222 -0.25013,-0.25012 -5e-4,-0.9059 0.55485,-1.45714 z m -14.44588,-5.23457 c -1.676,-1.76301 -2.38103,-5.92553 -1.00365,-5.92553 0.97939,0 3.36093,-6.49733 3.36093,-9.16926 0,-2.77692 1.55636,-2.84435 4.06315,-0.17596 1.10507,1.17627 2.81564,2.03157 4.06315,2.03157 2.64836,0 5.94619,3.25841 5.21812,5.15575 -0.28394,0.73989 -1.13674,1.34527 -1.89513,1.34527 -1.46885,0 -4.853,3.29461 -8.63635,8.40782 -2.01054,2.71728 -2.38801,2.92967 -2.88856,1.62528 -0.3167,-0.82526 -1.34346,-2.30798 -2.28166,-3.29492 z m 15.00088,-2.24287 c 1.76016,-1.33132 5.23425,-1.65771 5.23425,-0.49173 0,0.84126 -1.84396,1.44878 -4.82793,1.59058 -1.91573,0.0912 -1.92967,0.0534 -0.40632,-1.09885 z m -26.4583,-6.88523 c 0,-2.20834 -0.36568,-4.24119 -0.81263,-4.5174 -0.44695,-0.27626 -0.81263,-1.19917 -0.81263,-2.05095 0,-0.85179 -0.71776,-1.93285 -1.59499,-2.40235 -1.76008,-0.94194 -1.4043,-3.26669 0.49992,-3.26669 0.64292,0 2.06177,-0.89285 3.15303,-1.98408 1.7712,-1.77121 2.11599,-1.85217 3.21357,-0.75459 0.67623,0.67623 1.22951,2.11757 1.22951,3.20302 0,1.5862 0.41683,1.97354 2.12383,1.97354 2.07132,0 2.10986,0.0955 1.55842,3.85999 -0.31101,2.12301 -0.90103,4.20739 -1.31123,4.63199 -0.41017,0.42461 -0.74576,1.43024 -0.74576,2.23474 0,1.00905 -0.61522,1.46272 -1.98363,1.46272 -1.09098,0 -2.20962,0.36568 -2.48584,0.81263 -1.17181,1.89601 -2.03157,0.5407 -2.03157,-3.20257 z m -3.25052,-20.6705 c 0,-1.19084 2.23506,-3.4174 2.83161,-2.82086 0.19503,0.19502 0.14348,1.16126 -0.11453,2.14736 -0.50952,1.94836 -2.71721,2.49556 -2.71721,0.6735 z M 142.44908,346.31491 c 5.16792,-1.86456 6.52369,-4.53323 5.5913,-11.00588 -0.40548,-2.81492 -1.06731,-5.75298 -1.47076,-6.52909 -0.40342,-0.77609 -0.74566,-2.42166 -0.76054,-3.65684 -0.0312,-2.59287 -2.48129,-5.90258 -4.36951,-5.90258 -0.80771,0 -1.29186,-0.70318 -1.29186,-1.87626 0,-1.03194 -0.53689,-2.58609 -1.19309,-3.45368 -0.6562,-0.86758 -1.20472,-2.97278 -1.21894,-4.6782 -0.0152,-1.70543 -0.43836,-3.87152 -0.9425,-4.81356 -0.56313,-1.05218 -0.98176,-7.37843 -1.08542,-16.40232 -0.16735,-14.56987 -1.28129,-24.18117 -2.86363,-24.70861 -0.45248,-0.15085 -0.817,-0.88371 -0.81001,-1.62864 0.0152,-1.54605 -4.08606,-10.00883 -5.25723,-10.84992 -1.17108,-0.841 1.20952,-4.72547 2.89601,-4.72547 0.79198,0 1.67729,-0.38399 1.96735,-0.85331 0.98208,-1.58905 15.0085,10.39 15.0085,12.81778 0,0.57067 0.27426,1.04179 0.60947,1.04692 1.42401,0.0229 3.76484,6.74904 3.55211,10.20836 -0.13281,2.16177 0.12748,3.59702 0.65282,3.59702 0.48069,0 0.87401,0.65823 0.87401,1.46274 0,0.8045 0.4571,1.92077 1.01579,2.48063 0.70147,0.70292 1.01578,4.08491 1.01578,10.92986 0,9.80359 0.0259,9.94085 2.36907,12.55302 1.30298,1.45258 3.04175,2.64105 3.86395,2.64105 2.13671,0 8.90883,-3.40764 13.56558,-6.82602 2.19197,-1.60905 4.50794,-2.92554 5.14659,-2.92554 1.30846,0 5.52842,-4.11282 5.52842,-5.38806 0,-0.45632 0.91421,-1.68852 2.03157,-2.73823 3.46681,-3.2569 2.8179,-6.61727 -2.16012,-11.18633 -2.30543,-2.11601 -4.95663,-4.73532 -5.89156,-5.82064 -4.24795,-4.93126 -7.25008,-7.37192 -9.06783,-7.37192 -1.39836,0 -2.08988,-0.57196 -2.45622,-2.03157 -0.28044,-1.11737 -0.83592,-2.03158 -1.23441,-2.03158 -0.3985,0 -0.72454,-0.5535 -0.72454,-1.22996 0,-1.23967 -0.23515,-1.82662 -2.70671,-6.75902 -0.74605,-1.48882 -1.35644,-3.38707 -1.35644,-4.21836 0,-0.8313 -0.36568,-1.73746 -0.81263,-2.01367 -0.44694,-0.27622 -0.81263,-1.19962 -0.81263,-2.05197 0,-1.39996 -1.46278,-5.37846 -3.34973,-9.11067 -0.39238,-0.77609 -0.71341,-1.90838 -0.71341,-2.51618 0,-0.60782 -0.503,-2.16695 -1.11775,-3.46472 -0.61478,-1.29776 -1.61825,-3.54803 -2.22996,-5.00061 -0.6117,-1.45257 -1.3886,-2.64104 -1.72645,-2.64104 -0.33783,0 -0.61425,-0.54746 -0.61425,-1.21661 0,-0.66912 -1.3225,-2.68046 -2.9389,-4.46961 -2.41803,-2.67645 -2.84139,-3.64909 -2.38865,-5.48759 0.30263,-1.22903 0.74168,-3.33163 0.97561,-4.67247 0.73533,-4.21437 2.64552,-7.82747 6.38494,-12.07697 5.46859,-6.21456 7.63516,-14.82201 6.185,-24.57214 -0.49738,-3.3442 -0.90434,-7.8938 -0.90434,-10.1103 0,-2.21648 -0.36568,-4.02993 -0.81262,-4.02993 -0.44695,0 -0.81263,-1.28487 -0.81263,-2.85526 0,-1.57035 -0.31188,-3.49019 -0.69307,-4.2663 -6.74943,-13.74187 -7.85092,-19.65068 -8.74636,-46.918308 -0.24963,-7.59809 -0.73708,-14.18038 -1.08347,-14.62733 -0.34641,-0.44695 -0.87004,-1.81826 -1.16366,-3.04737 -0.29361,-1.2291 -0.89257,-2.23474 -1.33101,-2.23474 -0.43841,0 -0.79714,-0.4016 -0.79714,-0.89249 0,-1.29591 -5.7784,-6.34147 -7.92313,-6.91827 -1.00563,-0.27045 -1.82842,-0.81775 -1.82842,-1.21627 0,-0.39846 -0.52242,-0.7245 -1.16089,-0.7245 -0.6385,0 -1.64413,-0.45712 -2.23473,-1.0158 -0.59063,-0.55869 -2.44554,-2.04033 -4.12207,-3.29255 -5.02197,-3.75093 -5.82757,-6.13972 -4.64158,-13.76352 1.14849,-7.3829 0.65043,-16.20502 -1.10531,-19.57802 -1.13715,-2.18463 -4.08806,-5.41948 -4.94373,-5.41948 -0.21916,0 -1.38487,-0.91422 -2.59054,-2.03157 -1.20566,-1.11737 -2.68724,-2.03159 -3.29239,-2.03159 -0.60513,0 -1.10025,-0.28684 -1.10025,-0.63736 0,-0.35055 -1.66444,-1.25422 -3.69878,-2.00821 -3.448403,-1.27804 -3.929733,-1.27995 -7.110513,-0.0282 -1.87644,0.73852 -3.59457,1.55079 -3.81804,1.80504 -0.22347,0.25424 -1.68621,1.16895 -3.25052,2.03266 -1.56431,0.86373 -4.21554,3.05766 -5.8916,4.87544 l -3.04736,3.305 v 8.73613 c 0,4.80486 -0.32604,8.73612 -0.72454,8.73612 -1.4362,0 -1.8342,4.20794 -0.53387,5.6448 0.69216,0.76479 1.25841,1.83169 1.25841,2.37094 0,0.53919 0.59909,1.89469 1.33129,3.01216 0.73222,1.1175 1.39801,2.65876 1.47956,3.4251 0.22905,2.15306 1.42839,4.5428 2.82723,5.63375 1.54337,1.20368 5.45265,1.34938 6.14508,0.22908 0.8493,-1.37422 2.03158,-0.90129 2.03158,0.81262 0,0.8939 0.36568,1.62526 0.81263,1.62526 0.44694,0 0.81263,0.75538 0.81263,1.67865 0,0.9233 0.37678,2.38271 0.83728,3.24318 0.86109,1.60895 -0.35166,4.98335 -2.65729,7.39377 -2.73539,2.85972 -7.19599,10.97013 -8.19888,14.90749 -0.91984,3.611178 -0.96312,16.532208 -0.0759,22.634468 0.62887,4.32512 -0.42846,5.91529 -3.01333,4.53191 -0.77686,-0.41576 -3.92315,-0.75592 -6.99177,-0.75592 -3.06861,0 -5.97887,-0.39959 -6.46721,-0.88793 -1.32943,-1.32941 -4.3073,0.55455 -4.33877,2.74492 -0.0152,0.98991 -0.56276,2.50967 -1.21894,3.37726 -0.65621,0.86758 -1.19311,3.15805 -1.19311,5.08996 0,1.93189 -0.42743,4.19697 -0.94986,5.0335 -1.27196,2.03673 0.35301,5.99212 3.26679,7.9517 4.3943,2.95529 6.11198,3.50797 10.9812,3.53319 3.08989,0.0152 5.58591,0.47958 6.56347,1.21895 0.90069,0.68126 3.34106,1.19583 5.68842,1.19944 3.66686,0.005 4.22072,0.24277 5.12678,2.19359 0.55868,1.203 1.01579,3.13825 1.01579,4.30059 0,1.16234 0.40712,2.52047 0.90471,3.01805 1.22381,1.22382 -0.11098,10.80729 -2.12633,15.26664 -2.22066,4.91359 -2.98964,15.82622 -2.57682,36.56833 0.22246,11.17365 0.65592,22.14415 0.96342,24.37888 0.60031,4.36263 2.95506,7.71998 5.41456,7.71998 1.18542,0 1.4836,0.64368 1.4836,3.20255 0,1.76142 0.36569,3.42858 0.81263,3.7048 0.44695,0.27622 0.81263,1.04857 0.81263,1.71632 0,0.66776 0.914213,2.55948 2.031583,4.20384 1.73278,2.54998 2.03157,3.91111 2.03157,9.25417 0,3.44543 0.36568,6.49045 0.81263,6.76667 0.44694,0.27622 0.81263,1.54806 0.81263,2.8263 0,1.27824 0.5147,3.35933 1.14378,4.62467 0.62907,1.26532 1.49594,3.21479 1.92641,4.33216 1.59887,4.15012 5.432,11.79214 6.04611,12.05401 0.34936,0.14907 0.64686,0.88033 0.66108,1.62526 0.0152,0.7449 0.56275,2.0642 1.21894,2.93179 0.6562,0.86758 1.1931,2.40015 1.1931,3.40573 0,1.00555 0.36568,2.0543 0.81263,2.33052 0.44694,0.27621 0.81262,1.56408 0.81262,2.86192 0,1.8369 -1.30525,3.6863 -5.89156,8.34759 -6.49425,6.60048 -9.94107,8.69372 -14.345833,8.71215 -6.22761,0.0262 -11.45513,3.09358 -11.45513,6.7219 0,6.5425 12.734643,13.6457 20.103893,11.21362 2.06124,-0.68027 5.17526,-0.8578 9.18224,-0.52348 14.74409,1.23014 22.2666,1.20642 25.83613,-0.0815 z m -5.61148,-4.12044 c 2.10661,-0.39631 5.76773,-2.48865 6.75135,-3.85839 0.34432,-0.4795 0.60231,-0.22957 0.60947,0.5907 0.008,0.78216 -0.49131,1.42211 -1.10701,1.42211 -0.61569,0 -1.57467,0.54852 -2.13106,1.21894 -0.5564,0.67042 -2.15533,1.16915 -3.55318,1.10827 -2.14214,-0.0932 -2.23166,-0.16887 -0.56957,-0.48163 z m -14.34764,0.10132 c 0.27002,-0.27004 0.97091,-0.29889 1.55753,-0.064 0.64825,0.25941 0.45571,0.45197 -0.49095,0.49095 -0.85667,0.0353 -1.33663,-0.15668 -1.06658,-0.4268 z m -21.75475,-0.0792 c 1.34084,-0.17954 3.59019,-0.85623 4.99858,-1.50351 1.40839,-0.64726 4.51668,-1.13385 6.90733,-1.08128 l 4.34665,0.0955 -3.97104,0.66557 c -2.18407,0.36604 -4.35988,1.05441 -4.83514,1.52967 -0.47527,0.47526 -2.89363,0.80933 -5.37418,0.74234 -2.53385,-0.0683 -3.441843,-0.26487 -2.0722,-0.44837 z m -6.754123,-3.52468 c -0.97818,-0.91128 -1.77849,-1.9352 -1.77849,-2.27536 0,-1.54074 2.25167,-2.56974 5.64777,-2.58099 2.03361,-0.008 4.977363,-0.46545 6.541673,-1.01942 3.1897,-1.12955 10.56416,-6.0149 10.56416,-6.99846 0,-1.08077 6.1899,-7.40984 7.24688,-7.40984 0.66618,0 0.57305,0.42247 -0.28148,1.277 -0.70236,0.70234 -1.277,1.79939 -1.277,2.43789 0,0.63847 -0.28683,1.16089 -0.6374,1.16089 -0.3506,0 -1.26961,1.07021 -2.04229,2.37823 -0.77266,1.30801 -2.67993,3.16624 -4.23835,4.12941 -1.64306,1.01545 -2.83351,2.4062 -2.83351,3.31019 0,1.1835 -0.57562,1.55898 -2.38992,1.55898 -1.31445,0 -2.61593,0.36569 -2.89214,0.81263 -0.27622,0.44695 -2.50339,0.81263 -4.94925,0.81263 -3.327843,0 -4.572643,0.32742 -4.946223,1.30095 -0.27457,0.71554 0.0102,1.62414 0.63497,2.01915 0.62382,0.39499 0.74604,0.72377 0.27164,0.73061 -0.47439,0.008 -1.66287,-0.73317 -2.64104,-1.64449 z m 30.918803,-0.80557 c -0.77611,-0.46045 -3.42234,-1.54432 -5.88054,-2.40855 -2.45821,-0.86424 -3.93834,-1.58456 -3.28922,-1.60066 1.78225,-0.0442 6.53974,-5.00254 6.53974,-6.81572 0,-1.49064 0.0945,-1.50634 1.48609,-0.24684 0.81735,0.7397 1.9144,1.3449 2.43789,1.3449 0.52348,0 0.95179,0.36568 0.95179,0.81263 0,0.44695 1.46274,0.81263 3.25052,0.81263 1.78779,0 3.25052,-0.36568 3.25052,-0.81263 0,-0.44695 0.63994,-0.82426 1.4221,-0.83848 0.78216,-0.0152 2.13193,-0.56274 2.99952,-1.21894 2.00996,-1.52026 2.89205,-1.51236 2.89205,0.0259 0,0.67042 0.36568,1.21894 0.81262,1.21894 0.44695,0 0.80728,1.37132 0.80072,3.04736 -0.0102,2.85571 -0.27949,3.18254 -4.2663,5.19692 -4.51119,2.27933 -10.87817,2.98342 -13.4075,1.48267 z m 4.59278,-13.56568 c 1.06739,-0.20189 2.89207,-1.24904 4.05484,-2.32722 2.42075,-2.24466 3.34969,-2.46255 3.34969,-0.78573 0,1.56807 -3.8765,3.53471 -6.90735,3.50431 -2.00463,-0.0203 -2.09298,-0.0896 -0.49718,-0.39136 z m -2.95858,-4.62427 c 0.035,-2.31538 -0.4232,-4.06464 -1.29236,-4.93383 -0.74064,-0.74061 -1.34661,-2.21309 -1.34661,-3.27215 0,-1.05906 -0.36568,-2.15159 -0.81263,-2.42781 -0.44694,-0.27622 -0.81262,-1.3611 -0.81262,-2.41084 0,-1.04974 -0.95784,-3.86223 -2.12851,-6.24994 -1.17067,-2.3877 -2.5337,-5.2555 -3.02893,-6.37286 -0.49522,-1.11737 -1.7315,-3.39563 -2.74727,-5.06279 -1.01576,-1.66716 -1.84685,-3.59197 -1.84685,-4.27732 0,-0.68538 -0.32152,-1.88111 -0.7145,-2.6572 -1.99107,-3.93219 -3.35649,-10.12923 -3.35477,-15.22581 0.002,-5.06225 -0.31103,-6.20743 -2.84123,-10.40354 -2.38715,-3.95883 -2.86632,-5.55397 -2.9873,-9.94496 -0.0792,-2.8764 0.0127,-5.38001 0.20417,-5.56354 0.50904,-0.48766 6.0288,-0.74572 12.53776,-0.58616 6.94511,0.17014 8.76357,1.25391 7.75645,4.62239 -0.39017,1.30498 -0.74084,1.91559 -0.77927,1.35691 -0.11453,-1.66452 -3.16793,-1.15099 -3.73245,0.62773 -0.64543,2.03361 0.22347,6.27025 1.44013,7.02221 0.49664,0.30695 1.26651,-0.0178 1.71079,-0.7225 0.65472,-1.03796 1.24111,-0.41048 3.09457,3.31121 1.25774,2.52553 2.28816,5.04894 2.28986,5.60763 0.002,0.55868 0.33031,1.01578 0.73032,1.01578 0.72654,0 0.87962,0.7429 2.51189,12.18945 0.78236,5.48641 0.31962,18.13093 -0.57247,15.64312 -0.20036,-0.55869 -0.85552,-1.01579 -1.45595,-1.01579 -1.44608,0 -3.56998,-4.37258 -4.12138,-8.48487 -0.88386,-6.59208 -1.09814,-7.0765 -3.00965,-6.80468 -1.59151,0.22627 -1.82829,0.81011 -2.04694,5.04696 -0.13611,2.63508 0.1384,5.17658 0.60947,5.64778 0.4712,0.4712 0.85672,1.48891 0.85672,2.2616 0,1.79103 5.06705,7.20899 6.74211,7.20899 2.20027,0 3.82207,2.418 3.82207,5.69848 0,1.72948 0.36569,3.37054 0.81263,3.64676 0.44695,0.27621 0.81263,2.28747 0.81263,4.46946 0,2.18198 0.36569,4.19324 0.81263,4.46946 1.16653,0.72095 1.00413,3.65439 -0.20315,3.66981 -1.33594,0.0178 -6.29788,4.41286 -6.29788,5.57929 0,0.49981 -0.14983,0.90877 -0.33288,0.90877 -0.18309,0 -0.30849,-1.61424 -0.27868,-3.58723 z m -17.65384,-70.17137 c 1.51062,-1.08479 3.63806,-4.98122 3.63806,-6.66316 0,-1.29586 -0.5277,-1.65385 -2.43789,-1.65385 -1.73628,0 -2.43789,0.39084 -2.43789,1.3581 0,0.74696 -0.58146,2.00065 -1.29215,2.78598 -2.23738,2.47225 -0.0731,6.04213 2.52987,4.17293 z m 50.77057,46.53556 c 0,-0.93024 1.01046,-1.2161 4.26631,-1.20696 4.07508,0.0127 4.17524,0.0625 2.23473,1.13925 -2.8281,1.56929 -6.50104,1.60754 -6.50104,0.0678 z m 9.99662,-5.36209 c -0.51188,-0.51188 -2.83481,-0.77184 -5.44574,-0.60947 l -4.55308,0.28315 8.1e-4,-6.23983 c 7.9e-4,-4.4642 -0.34578,-6.58671 -1.21785,-7.45877 -0.67042,-0.67042 -1.21895,-1.61571 -1.21895,-2.10065 0,-0.48493 -0.43064,-1.57129 -0.95697,-2.41409 -0.81192,-1.30006 -0.57496,-1.9144 1.56274,-4.05213 1.38616,-1.38586 2.70844,-2.51973 2.93872,-2.51973 0.23033,0 1.56533,1.04733 2.96683,2.32739 2.49335,2.27735 2.5093,2.33753 0.74196,2.79972 -1.71582,0.4487 -1.77986,0.7559 -1.27974,6.13703 0.60556,6.51553 1.12511,8.23897 2.4838,8.23897 2.22219,0 2.77658,-1.86171 2.32648,-7.81282 l -0.45393,-6.00188 h 2.50722 c 1.37898,0 2.71515,-0.33638 2.96925,-0.74752 0.57079,-0.92361 11.01072,8.98687 11.01072,10.45234 0,0.83071 -0.25268,0.84875 -1.17422,0.0838 -2.36425,-1.96214 -4.66076,-0.67423 -5.93301,3.32737 -0.74861,2.35454 -1.92814,4.16106 -3.14056,4.80992 -1.0679,0.57154 -1.94165,1.34303 -1.94165,1.71445 0,0.95154 -1.13662,0.83891 -2.19283,-0.21738 z m -15.74526,-29.45675 c -1.58346,-3.58555 -4.21272,-7.49377 -6.23393,-9.26632 -1.1467,-1.00562 -1.66237,-1.82841 -1.14589,-1.82841 0.51645,0 0.93902,-0.9424 0.93902,-2.09423 0,-1.55981 -1.99239,-4.10017 -7.80736,-9.95471 -4.29407,-4.32326 -8.94815,-9.44397 -10.34241,-11.3793 -2.13062,-2.95743 -2.89457,-3.46606 -4.7884,-3.18811 -1.23933,0.18182 -2.25334,0.0102 -2.25334,-0.38003 0,-0.8635 -8.26569,-8.75931 -9.16961,-8.75931 -1.34204,0 -10.33348,-9.88409 -10.33348,-11.35932 0,-0.85077 -0.36568,-1.77285 -0.81263,-2.04907 -2.483553,-1.53493 1.76011,-7.00685 8.03531,-10.36102 3.32777,-1.77875 8.67446,-1.89523 9.32376,-0.20316 0.25727,0.67042 1.04757,1.21894 1.75626,1.21894 0.70869,0 2.45717,1.09535 3.88549,2.43413 1.42835,1.33878 2.87125,2.43583 3.20646,2.43789 0.33521,0.002 0.60947,0.36944 0.60947,0.81639 0,0.44695 -0.73136,0.81263 -1.62526,0.81263 -1.23261,0 -1.62391,0.53989 -1.6197,2.23473 0.005,1.65987 0.77294,2.75733 2.98873,4.26631 1.64075,1.11736 3.38082,2.39725 3.86685,2.8442 0.486,0.44695 2.312,1.54389 4.05781,2.43766 3.99443,2.04498 10.20942,8.20784 10.20942,10.12379 0,0.46581 0.36568,0.84694 0.81263,0.84694 0.44695,0 0.81263,0.70173 0.81263,1.55941 0,0.85765 0.61039,2.77748 1.35643,4.26629 2.51263,5.01415 2.70672,5.52451 2.70672,7.11736 0,0.87358 0.36568,1.81435 0.81263,2.09057 0.44694,0.27622 0.81263,1.32497 0.81263,2.33052 0,1.00558 0.53689,2.53815 1.19309,3.40573 0.6562,0.86758 1.20472,2.37862 1.21894,3.35786 0.0152,0.97927 0.39154,2.00649 0.83848,2.2827 1.37419,0.8493 0.90129,2.03158 -0.81262,2.03158 -1.19185,0 -1.62526,0.54174 -1.62526,2.03157 0,1.11737 0.36568,2.03157 0.81263,2.03157 0.44694,0 0.81263,0.66763 0.81263,1.48361 0,0.81598 0.84363,2.27615 1.87473,3.24483 1.45202,1.3641 2.09334,1.54263 2.84421,0.79176 0.75087,-0.75087 0.96946,-0.65798 0.96946,0.412 0,0.83973 -0.63735,1.38147 -1.62526,1.38147 -0.89389,0 -1.62526,0.36569 -1.62526,0.81263 0,0.44695 -0.54852,0.81263 -1.21894,0.81263 -0.67042,0 -1.21894,0.38727 -1.21894,0.8606 0,1.29886 -1.62148,0.0297 -2.49813,-1.95531 z m -37.04036,-53.21229 c 1.97448,-2.18176 1.8291,-9.20065 -0.22906,-11.06332 -2.52347,-2.28372 -3.30172,-0.84679 -3.30172,6.09635 0,6.86486 0.79775,7.98705 3.53088,4.96697 z m 17.81758,32.68768 c 0.27002,-0.27005 0.97092,-0.2989 1.55753,-0.064 0.64826,0.2594 0.45571,0.45197 -0.49095,0.49095 -0.85666,0.0353 -1.33662,-0.15669 -1.06658,-0.42681 z m -3.86382,-3.91459 c -1.66945,-1.52917 -2.90388,-3.08497 -2.74319,-3.45736 0.16075,-0.37236 1.71102,0.87876 3.44515,2.78031 3.79945,4.16623 3.46233,4.49138 -0.70196,0.67705 z m -9.12779,-0.56473 c -0.4989,-0.4989 -4.94637,-1.09855 -9.8833,-1.33256 -7.45019,-0.35311 -9.3219,-0.19884 -11.00991,0.90712 -5.281363,3.46046 -6.199683,1.31504 -6.038603,-14.10738 0.0851,-8.14164 0.18259,-8.7696 0.7576,-4.87578 0.36299,2.4582 1.03768,5.93219 1.49933,7.71998 0.46162,1.78777 0.84805,4.45045 0.85869,5.91705 0.0229,3.13985 1.94605,4.28768 3.903823,2.32993 1.15374,-1.15375 1.19708,-1.91793 0.34329,-6.0516 -0.53745,-2.6021 -0.97945,-6.35467 -0.98219,-8.33901 -0.002,-1.98437 -0.55129,-4.65535 -1.218943,-5.93555 -0.66768,-1.2802 -1.21395,-3.05142 -1.21395,-3.93607 0,-0.92503 -0.69055,-1.78903 -1.62525,-2.03346 -0.8939,-0.23388 -1.64665,-0.65663 -1.67278,-0.9397 -1.09004,-11.80553 -0.40761,-21.2205 1.58631,-21.88513 0.89894,-0.29966 0.99948,0.6129 0.53021,4.81191 -1.02559,9.17705 -0.44085,16.96483 1.27375,16.96483 0.3962,0 0.72039,0.54762 0.72039,1.21692 0,1.369 8.809193,10.40562 13.553953,13.90384 3.45251,2.54545 5.94914,4.88864 5.94914,5.58346 0,0.25115 0.9142,1.90465 2.03157,3.67466 1.11737,1.77001 2.03157,3.774 2.03157,4.45331 0,0.67931 0.36569,1.2351 0.81263,1.2351 0.44695,0 0.81263,0.36568 0.81263,0.81262 0,1.09203 -1.89266,1.03281 -3.01996,-0.0945 z m 11.6119,-33.64706 c -0.86127,-0.65161 -1.37701,-1.37365 -1.14606,-1.60457 0.23083,-0.23083 1.26579,0.3138 2.29974,1.21054 2.14932,1.8641 1.21241,2.1841 -1.15368,0.39403 z m 0.75732,-6.90794 c -3.12642,-3.11872 -6.1433,-5.67038 -6.7042,-5.67038 -0.56089,0 -1.0198,-0.31377 -1.0198,-0.69726 0,-1.28367 -8.24209,-4.99114 -11.09582,-4.99114 -2.99583,0 -11.65778,3.66663 -11.65778,4.93477 0,0.41449 -0.27426,0.75412 -0.60947,0.75473 -0.80831,0.002 -0.32899,-8.89906 0.59086,-10.9716 0.39674,-0.89389 1.36707,-3.08799 2.15634,-4.87577 0.78923,-1.78779 2.17647,-4.27492 3.08275,-5.52695 1.41586,-1.95597 1.47897,-2.38321 0.4484,-3.03492 -0.6597,-0.41718 -1.65426,-0.7641 -2.2101,-0.77095 -1.38711,-0.0178 -5.88054,6.33835 -5.9665,8.43895 -0.0533,1.30313 -0.2377,1.14505 -0.77995,-0.66879 -0.610003,-2.04049 -0.342423,-2.80398 1.89825,-5.41649 1.4346,-1.67264 3.06547,-3.07212 3.62415,-3.10995 0.55869,-0.0378 1.01579,-0.40982 1.01579,-0.82665 0,-0.41683 0.68875,-0.97648 1.53056,-1.24365 0.84183,-0.26721 2.58462,-1.48031 3.87284,-2.69583 3.43382,-3.23998 8.96023,-6.67946 10.73225,-6.67946 0.84874,0 1.99841,-0.54852 2.5548,-1.21894 0.74968,-0.90331 2.74809,-1.21894 7.71732,-1.21894 3.88335,0 8.15976,0.51302 10.16053,1.21894 1.90019,0.67042 4.6488,1.21894 6.10808,1.21894 h 2.65321 l 0.56491,6.29788 c 0.78256,8.72452 0.79592,17.21429 0.0317,20.11258 -0.52895,2.0058 -5.21688,9.44644 -6.91193,10.9705 -1.32471,1.19109 -3.25856,5.03229 -3.25856,6.47245 0,0.90961 -0.36569,1.65385 -0.81263,1.65385 -0.44695,0 -0.81263,0.73137 -0.81263,1.62526 0,0.89389 -0.27426,1.61713 -0.60948,1.60723 -0.3352,-0.0102 -3.16745,-2.56971 -6.29386,-5.68841 z m 6.71709,-11.49759 c 0.54939,-0.54939 0.99887,-1.31755 0.99887,-1.70703 0,-0.38948 0.54853,-1.25668 1.21895,-1.9271 1.67064,-1.67064 1.66716,-12.81999 -0.005,-16.02622 -0.66768,-1.2802 -1.21395,-2.94406 -1.21395,-3.69747 0,-0.75343 -0.33472,-1.71724 -0.7438,-2.14184 -0.40911,-0.42459 -0.86622,-1.6862 -1.01579,-2.80357 -0.20468,-1.52927 -0.82566,-2.09526 -2.51133,-2.28915 -2.83862,-0.32653 -3.69008,1.58646 -1.91314,4.29841 0.71956,1.09819 1.30829,2.66781 1.30829,3.48803 0,0.82022 0.38955,1.88085 0.86565,2.35698 1.34536,1.34533 1.41395,15.61734 0.079,16.4427 -1.41994,0.87794 -0.89516,4.46687 0.69747,4.76995 0.67973,0.12926 1.68537,-0.21433 2.23473,-0.76369 z M 98.703627,159.52778 c 0,-1.57036 -0.33294,-3.49019 -0.73987,-4.26631 -0.76634,-1.46154 -2.77188,-12.40522 -2.34558,-12.79924 0.13256,-0.12266 3.5324,0.0886 7.554923,0.4698 4.02251,0.38105 9.32489,0.476 11.7831,0.21103 4.31397,-0.465 8.93892,-2.37362 8.93892,-3.68891 0,-0.35057 0.55579,-0.6374 1.2351,-0.6374 1.53264,0 6.84836,-3.32546 8.59968,-5.37986 0.71618,-0.84014 1.84114,-2.62455 2.4999,-3.96538 0.65879,-1.34084 1.8098,-3.656 2.55785,-5.14481 0.74803,-1.48879 1.36006,-3.70118 1.36006,-4.91641 0,-1.21521 0.3426,-2.55689 0.76134,-2.98149 0.41873,-0.4246 0.90336,-2.41757 1.07696,-4.42883 0.1737,-2.01126 0.37952,0.43552 0.45761,5.43728 0.0785,5.02299 0.50576,9.31896 0.95461,9.59637 0.44695,0.27622 0.81263,1.50781 0.81263,2.73683 0,1.22903 0.5369,2.94447 1.19309,3.81202 0.6562,0.86759 1.20473,2.22234 1.21895,3.01057 0.0259,1.43782 0.28246,2.07296 2.75403,6.81854 0.73423,1.40979 1.33497,2.7811 1.33497,3.04736 0,0.83579 -8.81723,0.5258 -9.34524,-0.32853 -0.76184,-1.23268 -13.35244,-0.95006 -17.18602,0.38577 -4.48107,1.56142 -9.0335,4.16168 -12.30009,7.02554 -1.46812,1.28713 -2.93085,2.35061 -3.25052,2.3633 -0.31964,0.0127 -2.21348,1.47541 -4.20853,3.25052 -4.521023,4.02254 -5.717873,4.10046 -5.717873,0.37221 z m -15.73384,-13.80366 c 0.53135,-1.38472 2.38506,-1.62475 3.13809,-0.40631 0.71605,1.15858 4.25558,1.007 4.7439,-0.20316 0.2448,-0.60683 0.43569,-0.44326 0.47404,0.40632 0.0536,1.18882 -0.66478,1.4221 -4.37982,1.4221 -3.61634,0 -4.35687,-0.22703 -3.97621,-1.21895 z m -6.56566,-1.59943 c 2.06375,-1.56094 3.27082,-1.57665 1.98373,-0.0259 -0.55639,0.67042 -1.58528,1.21894 -2.28638,1.21894 -1.02051,0 -0.96013,-0.23795 0.30265,-1.19309 z m 10.71953,-3.40822 c 0.55869,-0.2255 1.47289,-0.2255 2.03158,0 0.55868,0.22551 0.10158,0.40987 -1.01579,0.40987 -1.11737,0 -1.57447,-0.18436 -1.01579,-0.40987 z m 19.096803,-1.64725 c 0.78215,-0.20443 2.06202,-0.20443 2.84417,0 0.78216,0.20443 0.14222,0.37165 -1.4221,0.37165 -1.56428,0 -2.20423,-0.16735 -1.42207,-0.37165 z m 5.91695,-2.20878 c 1.83541,-2.80118 0.65366,-3.24198 -9.25661,-3.45294 -7.310673,-0.15567 -8.465563,0.002 -8.775533,1.19294 -0.2991,1.14995 -1.22344,1.3272 -5.7086,1.09479 -3.48836,-0.18081 -5.5566,0.0541 -5.94012,0.67471 -0.32361,0.52362 -2.74277,1.03304 -5.37591,1.13202 -3.64954,0.13713 -5.11345,-0.15592 -6.1588,-1.23342 -0.94923,-0.97833 -1.07429,-1.51494 -0.40632,-1.74344 0.72606,-0.24836 0.74364,-0.93163 0.0709,-2.75959 -0.87619,-2.38085 -0.82916,-2.44683 2.34946,-3.29527 2.17701,-0.58108 3.99897,-0.60241 5.54087,-0.065 3.60725,1.25752 23.477353,-1.0765 23.477353,-2.75773 0,-0.35504 0.38163,-0.64553 0.84808,-0.64553 0.46648,0 1.83406,-0.91421 3.03908,-2.03158 1.20503,-1.11736 2.76147,-2.03157 3.45881,-2.03157 0.69734,0 1.61528,-0.30403 2.03988,-0.67563 0.4246,-0.3716 2.28831,-1.10631 4.14159,-1.6327 3.97983,-1.13036 4.79926,-2.59178 2.71045,-4.8339 -1.27865,-1.37245 -1.5841,-3.35798 -1.92009,-12.48174 -0.21967,-5.967278 -0.64228,-12.999428 -0.93894,-15.626948 -0.37663,-3.33586 -0.21002,-5.42004 0.55215,-6.90737 1.35176,-2.63769 3.83668,-4.9742 5.29019,-4.9742 0.60204,0 1.09462,-0.36568 1.09462,-0.81263 0,-0.44695 1.82841,-0.81263 4.06314,-0.81263 2.23473,0 4.06315,0.32604 4.06315,0.72451 0,0.39851 0.82279,0.93758 1.82842,1.19797 3.0031,0.77752 5.93849,3.92802 7.50072,8.05034 0.80834,2.13294 1.23406,4.11373 0.94605,4.40174 -0.288,0.288 -0.52363,-0.0729 -0.52363,-0.80216 0,-1.5074 -2.87709,-3.33491 -4.07994,-2.59153 -1.01109,0.62487 -1.03605,3.8895 -0.0376,4.90604 0.41708,0.4246 0.87419,2.23474 1.01579,4.0225 0.20366,2.57031 0.55505,3.20056 1.67957,3.01176 1.0369,-0.17421 1.42211,0.30815 1.42211,1.78042 0,1.1106 -0.36569,2.24527 -0.81263,2.5215 -0.44695,0.27621 -0.81263,2.104638 -0.81263,4.063138 0,1.95851 -0.36568,3.78691 -0.81263,4.06316 -0.44695,0.27621 -0.82561,2.21764 -0.84143,4.31425 -0.0152,2.09661 -0.55142,4.72625 -1.19015,5.84362 -0.63875,1.11736 -1.17432,3.0372 -1.19014,4.2663 -0.0152,1.2291 -0.39448,2.23473 -0.84143,2.23473 -0.44695,0 -0.81263,0.8045 -0.81263,1.78779 0,1.39048 -0.21661,1.57106 -0.97516,0.81263 -0.53633,-0.53634 -2.20735,-0.97516 -3.71336,-0.97516 -2.36652,0 -2.70295,0.24531 -2.47852,1.80808 0.14272,0.99443 1.12585,2.23823 2.18448,2.764 1.90379,0.94552 1.90658,0.96571 0.25659,1.84876 -0.91754,0.49106 -2.60646,0.89283 -3.75323,0.89283 -1.14675,0 -2.89324,0.82279 -3.8811,1.82841 -1.87641,1.91017 -5.7136,3.69244 -8.17734,3.79816 -1.33598,0.0574 -1.34756,-0.0805 -0.15897,-1.8945 z m 2.98817,-9.71572 c 3.68675,-1.14685 5.07812,-2.43972 4.43348,-4.1196 -0.65668,-1.71132 -4.94025,-1.64619 -7.93116,0.12062 -2.49874,1.47604 -2.64892,1.78345 -1.86684,3.82147 0.56168,1.46373 1.16559,1.48371 5.36452,0.17751 z m 13.66919,-15.60343 c 1.07818,-2.36678 1.60022,-4.94015 1.44239,-7.11052 -0.21839,-3.00245 -0.48123,-3.40128 -2.24224,-3.40128 -2.16497,0 -3.0578,1.86695 -3.20616,6.7042 -0.0444,1.45258 -0.44669,2.64105 -0.89364,2.64105 -0.44694,0 -0.81263,1.09705 -0.81263,2.43789 0,2.05209 0.31828,2.43788 2.01126,2.43788 1.59939,0 2.35731,-0.7596 3.70102,-3.70922 z m -7.01644,-18.093888 c 0.22931,-0.37108 0.34234,-3.44043 0.25115,-6.8208 -0.13231,-4.90493 0.12519,-6.46805 1.27583,-7.74037 1.69677,-1.87637 1.0857,-4.2672 -1.09068,-4.2672 -2.3295,0 -4.80515,3.22386 -4.95389,6.45109 -0.30151,6.54161 0.28595,11.03835 1.57236,12.03624 1.52681,1.18427 2.3642,1.28125 2.94528,0.34104 z M 93.151997,118.50428 c -0.1483,-1.5625 -0.56401,-3.20808 -0.92391,-3.65683 -0.35991,-0.44875 -0.91037,-2.36813 -1.22326,-4.26531 -0.31291,-1.89719 -0.90278,-3.65577 -1.31082,-3.90794 -0.97003,-0.59952 -0.96322,-6.63098 0.008,-7.231338 0.41256,-0.25496 1.00479,-1.62312 1.31605,-3.04034 1.24142,-5.65227 10.400043,-18.53298 13.177553,-18.53298 0.61872,0 1.59956,-0.45709 2.17968,-1.01577 9.93991,-9.573 10.95559,-10.36102 13.35419,-10.36102 1.87873,0 2.37446,0.29891 2.02142,1.21894 -0.25727,0.67042 -1.06858,1.22478 -1.80292,1.23191 -1.53191,0.0152 -6.61724,4.25052 -6.61724,5.51157 0,0.46256 -0.40408,0.97572 -0.89796,1.14037 -1.07828,0.35944 -3.13581,5.98807 -3.15295,8.62531 -0.008,1.035 0.4153,2.68056 0.93785,3.65682 0.58263,1.08843 0.97554,6.10842 1.01579,12.978428 0.0528,9.01511 0.30301,11.35008 1.28068,11.95419 1.04047,0.64294 0.98208,0.92678 -0.40632,1.97596 -0.89171,0.67387 -2.5355,1.19441 -3.65287,1.15678 -1.65642,-0.0559 -1.73146,-0.14069 -0.40632,-0.45937 3.28808,-0.79086 3.06959,-1.81904 -1.29418,-6.09012 -2.41681,-2.36549 -5.19964,-5.39795 -6.18406,-6.73879 -1.258463,-1.71414 -1.988593,-2.14907 -2.459303,-1.46501 -0.44093,0.64071 -1.07839,0.71431 -1.86699,0.2156 -2.59059,-1.638248 -4.04174,-0.91512 -4.04174,2.01407 0,1.53792 0.36571,3.02225 0.81263,3.29847 0.44694,0.27624 0.81263,1.23583 0.81263,2.13244 0,0.91464 2.0138,3.58067 4.58785,6.07375 4.362933,4.2257 4.512353,4.50181 3.047363,5.6319 -0.89724,0.69213 -2.897733,1.105 -4.791013,0.98879 -3.07563,-0.18893 -3.26502,-0.3524 -3.52006,-3.04048 z m 5.55163,-51.777078 c 0,-0.57588 -0.36568,-1.04708 -0.81263,-1.04708 -0.44694,0 -0.81262,-0.73138 -0.81262,-1.62528 0,-0.89387 0.28683,-1.62526 0.6374,-1.62526 1.17323,0 3.425743,-4.69236 3.425743,-7.13639 0,-1.32889 0.50744,-2.83729 1.12765,-3.35203 0.8896,-0.73829 1.61868,-0.41276 3.45368,1.5421 1.46073,1.55614 3.46183,2.66202 5.37925,2.97275 2.21475,0.3589 3.3393,1.07969 4.09484,2.6247 1.00385,2.05269 0.82276,2.33616 -4.99396,7.81835 -3.31952,3.12861 -6.60445,5.90089 -7.29975,6.16062 -0.87333,0.32622 -1.71803,-0.41793 -2.73191,-2.40655 -0.807223,-1.58335 -1.467693,-3.34999 -1.467693,-3.92593 z m -11.16604,-6.85993 c -0.0739,-1.85622 -0.51741,-3.75778 -0.98531,-4.22567 -0.4679,-0.46792 -0.85072,-1.64701 -0.85072,-2.62027 0,-0.97325 -0.56074,-2.23489 -1.24604,-2.80366 -1.64977,-1.36918 -1.12367,-2.67099 1.30628,-3.23217 1.08425,-0.25041 2.3329,-1.26748 2.77482,-2.26022 1.34688,-3.02561 2.48571,-1.79332 4.15769,4.49908 0.14831,0.55869 1.19559,1.0158 2.32699,1.0158 1.49448,0 2.05708,0.43136 2.05708,1.57729 0,0.8675 -0.36569,1.80328 -0.81264,2.07954 -0.44694,0.27621 -0.81262,1.73004 -0.81262,3.23066 0,2.99958 -3.05976,6.04117 -6.1252,6.08883 -1.38317,0.0229 -1.6779,-0.52987 -1.79033,-3.34921 z m -2.64868,-21.76861 c 0,-1.88368 1.45879,-2.97739 2.53535,-1.90083 1.0201,1.02011 0.0284,3.47814 -1.40334,3.47814 -0.62257,0 -1.13201,-0.70981 -1.13201,-1.57731 z"
     id="path1374"
     inkscape:connector-curvature="0" />
</svg>
