<?xml version="1.0" encoding="UTF-8" standalone="no"?>
<svg
   xmlns:dc="http://purl.org/dc/elements/1.1/"
   xmlns:cc="http://creativecommons.org/ns#"
   xmlns:rdf="http://www.w3.org/1999/02/22-rdf-syntax-ns#"
   xmlns:svg="http://www.w3.org/2000/svg"
   xmlns="http://www.w3.org/2000/svg"
   xmlns:sodipodi="http://sodipodi.sourceforge.net/DTD/sodipodi-0.dtd"
   xmlns:inkscape="http://www.inkscape.org/namespaces/inkscape"
   id="svg"
   version="1.1"
   width="400"
   height="377.93103448275866"
   viewBox="0, 0, 400,377.93103448275866"
   sodipodi:docname="A1.svg"
   inkscape:version="0.92.5 (2060ec1f9f, 2020-04-08)">
  <metadata
     id="metadata11">
    <rdf:RDF>
      <cc:Work
         rdf:about="">
        <dc:format>image/svg+xml</dc:format>
        <dc:type
           rdf:resource="http://purl.org/dc/dcmitype/StillImage" />
      </cc:Work>
    </rdf:RDF>
  </metadata>
  <defs
     id="defs9" />
  <sodipodi:namedview
     pagecolor="#ffffff"
     bordercolor="#666666"
     borderopacity="1"
     objecttolerance="10"
     gridtolerance="10"
     guidetolerance="10"
     inkscape:pageopacity="0"
     inkscape:pageshadow="2"
     inkscape:window-width="1366"
     inkscape:window-height="693"
     id="namedview7"
     showgrid="false"
     inkscape:zoom="0.62445256"
     inkscape:cx="-188.47339"
     inkscape:cy="235.69805"
     inkscape:window-x="0"
     inkscape:window-y="0"
     inkscape:window-maximized="1"
     inkscape:current-layer="svg" />
  <path
     style="fill:#ffffff;stroke-width:2.02142406"
     d="m 220.94457,372.84799 c -5.55892,-1.40869 -12.60865,-3.1497 -15.66604,-3.86894 -4.77359,-1.12291 -5.55892,-2.32053 -5.55892,-8.47704 0,-7.20511 2.94515,-14.88923 6.62724,-17.29088 1.11804,-0.72929 1.9868,-12.46176 1.99666,-26.96554 l 0.0189,-25.67455 -5.83673,-3.84923 c -3.21053,-2.11707 -10.55221,-5.2269 -16.3151,-6.91075 -5.76295,-1.68385 -13.10736,-5.27389 -16.32092,-7.97793 -5.75177,-4.83993 -10.59731,-16.42148 -10.59731,-25.32946 0,-7.84912 8.03465,-18.79084 23.54757,-32.0673 9.67125,-8.27698 16.75179,-16.3134 19.9721,-22.66844 2.74397,-5.41495 7.03697,-10.93205 9.53999,-12.26019 2.50296,-1.32814 5.72088,-4.06306 7.15079,-6.0776 1.42997,-2.01454 6.22978,-4.75035 10.6663,-6.07956 l 8.06642,-2.41673 -1.3498,-14.89601 c -1.23667,-13.64689 -0.97023,-15.30015 3.17793,-19.71564 7.37921,-7.85475 14.26147,-9.81502 22.44899,-6.39408 10.2418,4.27935 13.73381,9.18901 14.78824,20.79205 1.21866,13.41051 -2.83461,25.45851 -9.163,27.23635 -4.66766,1.31128 -4.65925,1.33534 0.53442,1.5337 2.90225,0.11051 8.36011,2.24819 12.12855,4.74971 10.81341,7.17801 46.97107,17.76553 55.25998,16.181 6.35093,-1.21406 16.78628,2.8562 19.28287,7.52115 2.05737,3.84418 0.53062,12.17813 -2.23065,12.17813 -3.94594,0 -4.79215,-0.49462 -4.22976,-2.47157 0.3468,-1.21841 -0.89846,-1.4788 -3.03214,-0.63404 -1.9911,0.78829 -10.44248,1.79591 -18.78085,2.23911 -8.33838,0.44345 -20.39295,1.91726 -26.78798,3.27572 -9.10576,1.93424 -13.60538,1.94089 -20.7486,0.0316 -14.74925,-3.94481 -20.64986,-3.11527 -29.37703,4.13008 -4.35232,3.61331 -7.92974,7.15061 -7.94977,7.86069 -0.0189,0.71015 3.11262,1.88189 6.96141,2.60391 9.81256,1.84089 28.51187,10.38974 33.38496,15.26283 6.04305,6.04305 5.1063,13.65465 -5.00789,40.69259 -5.00302,13.37444 -9.09287,25.84638 -9.08863,27.71543 0.0127,4.11574 17.33226,18.55895 22.25915,18.55895 4.33476,0 8.87211,5.12734 7.08958,8.01147 -3.34892,5.41874 -12.68943,7.55584 -31.19663,7.13797 -15.83413,-0.35754 -19.4787,-1.05374 -21.74553,-4.15384 -3.30371,-4.51801 -1.62511,-16.39489 3.07679,-21.77023 2.49614,-2.85369 3.26542,-8.44962 3.36416,-24.47224 0.0992,-16.13944 0.909,-21.96449 3.62946,-26.11643 2.5242,-3.85239 2.78136,-5.34369 0.9214,-5.34369 -5.55261,0 -19.74894,19.57174 -19.74894,27.22674 0,1.7438 -2.17114,9.38484 -4.82477,16.98016 -2.65368,7.59524 -5.46252,17.58424 -6.24197,22.1977 -1.28871,7.62778 -1.03161,8.38808 2.83607,8.38808 2.84996,0 5.33871,2.2762 7.54313,6.89894 2.14144,4.49066 6.04412,8.1409 11.17987,10.45683 18.67233,8.42005 -2.37031,19.92226 -25.65301,14.0223 z m 25.09932,-4.37323 c 2.02844,-1.74929 -7.20903,-0.45988 -9.93865,1.38746 -2.2144,1.49845 -1.39667,1.686 3.03214,0.69537 3.33535,-0.7461 6.44328,-1.68334 6.90651,-2.08283 z m -7.9399,-3.46187 c 4.9878,-2.09716 5.74021,-3.0293 3.22449,-3.99466 -1.80469,-0.69252 -5.17258,-4.46456 -7.48407,-8.38234 -4.49319,-7.61539 -8.13541,-8.60539 -17.31647,-4.70676 -3.12979,1.32903 -7.05496,2.46608 -8.72263,2.52679 -4.02043,0.14655 -5.37067,9.20677 -1.37205,9.20677 1.62359,0 6.91726,1.79931 11.76375,3.9985 10.55506,4.78944 11.5676,4.85824 19.90698,1.3517 z m -12.63529,-6.68372 c -4.15598,-2.95703 -7.55627,-6.14077 -7.55627,-7.07498 0,-2.92715 3.26965,-1.8606 7.02823,2.29267 1.98663,2.19514 5.31137,4.53052 7.38831,5.18975 2.07695,0.65918 3.77627,2.04688 3.77627,3.08375 0,3.06834 -2.63101,2.2048 -10.63654,-3.49119 z m -13.62055,6.62288 c 0,-0.42639 -1.81928,-1.25069 -4.04284,-1.83223 -2.22356,-0.58179 -4.04285,-0.23246 -4.04285,0.77496 0,1.00775 1.81929,1.83217 4.04285,1.83217 2.22356,0 4.04284,-0.3487 4.04284,-0.7749 z m 1.01071,-19.43933 c 0.6871,-1.11179 0.28617,-2.02137 -0.89138,-2.02137 -1.17742,0 -2.14074,0.90958 -2.14074,2.02137 0,1.11178 0.40112,2.02142 0.89138,2.02142 0.49019,0 1.45366,-0.90964 2.14074,-2.02142 z m 8.11817,-11.62313 c 0.71003,-5.28098 3.49467,-15.29663 6.18815,-22.25696 2.69343,-6.96033 4.89722,-14.44472 4.89722,-16.63196 0,-2.18724 2.45545,-8.98346 5.45664,-15.10275 6.28594,-12.81677 5.28881,-19.41819 -3.75384,-24.85215 -4.92855,-2.9617 -5.78627,-2.9569 -10.3883,0.0569 -2.79569,1.83185 -6.40323,7.35766 -8.14974,12.48342 -3.00883,8.83034 -2.9775,9.19666 0.78652,9.19666 4.85565,0 4.85281,0.10744 -0.2571,9.91117 -2.29748,4.40778 -4.15876,11.03067 -4.13628,14.71755 0.16551,27.1361 0.89802,36.92358 2.93669,39.24955 3.91512,4.46665 5.07314,3.24495 6.42004,-6.77304 z m -3.02563,-25.87423 c 0.11371,-5.60326 5.4365,-21.69051 6.56988,-19.85664 1.50199,2.43026 -1.98643,16.93567 -4.77529,19.85664 -1.15809,1.21285 -1.81922,1.21285 -1.79459,0 z m 6.40254,-35.62356 c 0.34807,-3.5277 1.58966,-6.72692 2.75837,-7.10947 1.31392,-0.43019 1.8081,2.01789 1.29491,6.41397 -1.03276,8.84588 -4.92413,9.51365 -4.05328,0.6955 z m 70.3726,66.93453 c 0,-0.76669 -2.65445,-1.92484 -5.8987,-2.57365 -3.24419,-0.64887 -9.19824,-4.0769 -13.23117,-7.6178 l -7.33252,-6.43805 -5.57762,5.34371 c -5.86839,5.62227 -12.38881,7.09247 -12.49285,2.81691 -0.0316,-1.38973 -1.07066,-0.78835 -2.3041,1.33641 -3.96635,6.83235 2.35382,8.97501 25.77625,8.73881 11.58333,-0.1169 21.06071,-0.83971 21.06071,-1.60634 z m -25.10167,-4.15111 c -2.98797,-2.35036 -4.95184,-4.75408 -4.36432,-5.34168 0.58748,-0.58748 2.32294,-0.0253 3.85639,1.24557 1.53343,1.27267 6.33103,3.61229 10.66129,5.19923 l 7.87333,2.88527 -6.29705,0.14276 c -3.53408,0.0796 -8.68063,-1.73255 -11.72964,-4.13085 z M 254.9695,324.79318 c -0.91622,-4.2894 -0.80145,-4.34 2.01661,-0.88981 3.76807,4.61346 5.5094,2.25894 8.6853,-11.74409 1.2608,-5.55892 5.63042,-19.1403 9.71036,-30.18075 9.45913,-25.5971 9.10436,-30.83822 -2.52034,-37.23204 l -8.72573,-4.79937 -5.11091,4.77398 c -8.88404,8.29845 -14.1928,21.67263 -7.59823,19.14206 4.3697,-1.67684 19.23196,0.87269 17.87609,3.0665 -0.60137,0.97294 -2.64004,1.76899 -4.53052,1.76899 -6.48971,0 -9.30581,8.10648 -9.4801,27.28923 -0.091,10.00605 -0.9078,21.60397 -1.8153,25.77316 -1.06106,4.8746 -0.91577,7.58034 0.40682,7.58034 1.13143,0 1.61991,-2.04669 1.08563,-4.5482 z m 3.68461,-28.8053 c 6.02623,-13.4774 10.32416,-21.36847 11.175,-20.5177 1.91896,1.91896 -3.50288,14.92929 -7.81679,18.75717 -2.34416,2.08005 -3.85536,2.87231 -3.35821,1.76053 z m 7.7725,-34.21619 c 0,-0.47442 2.72892,-2.22402 6.06427,-3.88791 6.21708,-3.10149 7.95468,-1.99129 3.63856,2.32489 -2.26917,2.26912 -9.70283,3.46662 -9.70283,1.56302 z m -58.6213,19.13132 c 0,-8.65561 8.36093,-26.36942 13.79521,-29.22695 l 5.40832,-2.84389 -6.06427,-1.50799 c -3.33536,-0.82941 -9.45736,-3.63654 -13.60444,-6.23817 -4.14708,-2.60158 -10.51456,-4.73525 -14.14997,-4.74145 -3.63541,-0.006 -10.20883,-1.01045 -14.6077,-2.2317 -7.25274,-2.0136 -8.33559,-1.80338 -11.62319,2.25665 -4.60524,5.68722 -4.64239,17.17131 -0.0846,26.16102 2.6813,5.28856 5.97394,7.87952 13.64152,10.73433 5.55892,2.06969 13.29087,5.42891 17.18211,7.46487 9.27733,4.85414 10.10712,4.86842 10.10712,0.17308 z m -24.76245,-13.65219 c -10.86137,-1.64538 -5.33017,-3.77053 9.60088,-3.68873 8.33787,0.0442 15.16018,0.64616 15.16069,1.33459 8.8e-4,1.26793 -13.4644,3.99281 -17.18123,3.47685 -1.11178,-0.15414 -4.52294,-0.65962 -7.58034,-1.12271 z m -11.62319,-25.11981 c 0,-3.43729 14.52128,-4.95336 23.75174,-2.47965 8.45878,2.26685 4.61591,3.7795 -9.60176,3.7795 -7.78249,0 -14.14998,-0.58495 -14.14998,-1.29985 z m 75.66191,12.92304 c 0.6279,-1.94563 3.87033,-6.44177 7.20542,-9.9914 6.78258,-7.21882 6.13206,-8.2289 -6.39097,-9.92317 -7.10475,-0.96125 -10.47635,-0.19962 -17.85506,4.0342 -5.00302,2.87055 -8.08279,5.23011 -6.84397,5.24351 1.23888,0.0127 6.24191,3.16131 11.11783,6.99532 10.31305,8.10932 11.23956,8.37363 12.76675,3.64154 z M 226.00666,237.3621 c 5.00997,-2.59071 26.26998,-22.10775 26.26998,-24.11622 0,-0.37523 -4.61466,-2.19116 -10.25481,-4.03597 -11.44285,-3.74273 -15.82915,-3.01463 -23.24531,3.85834 -4.26558,3.95327 -25.13856,15.20193 -28.20859,15.20193 -0.52557,0 -0.95544,-0.81091 -0.95544,-1.80198 0,-0.99106 3.81354,-3.32777 8.47451,-5.19272 12.96358,-5.18704 20.32377,-11.07437 18.70847,-14.96466 -0.75551,-1.81966 -1.21507,-8.23945 -1.0212,-14.26627 0.30953,-9.61617 -0.0253,-10.64425 -2.73322,-8.39693 -6.01014,4.98798 -12.48059,19.25949 -12.21389,26.93958 0.14466,4.16673 -0.43902,7.57586 -1.29674,7.57586 -2.41081,0 -4.29945,-7.74213 -2.58446,-10.59441 0.84161,-1.39966 -3.99054,2.45818 -10.73805,8.57298 -6.74752,6.11481 -11.57594,11.87675 -10.72991,12.80434 0.84609,0.92764 7.3288,2.19855 14.40605,2.8243 7.0772,0.62601 13.32252,1.76376 13.87841,2.52899 1.8621,2.56343 9.05914,5.97584 12.73428,6.03793 2.00082,0.0316 6.2803,-1.30495 9.50992,-2.97509 z m 83.41627,-27.63761 c 7.52715,-2.44983 13.36755,-5.41937 12.97875,-6.59893 -0.3885,-1.17956 -7.00216,-2.69823 -14.69639,-3.3749 -7.69418,-0.67661 -16.55022,-2.26848 -19.68002,-3.5375 -6.19952,-2.51363 -17.55582,-3.12833 -17.55582,-0.95031 0,0.74629 1.5054,3.02038 3.3454,5.05356 3.88713,4.29527 1.35018,4.82981 -3.92649,0.82739 -1.98726,-1.50741 -3.35172,-3.90817 -3.03214,-5.33511 0.34932,-1.55972 -3.2483,-3.71259 -9.02067,-5.39821 -5.57546,-1.62807 -9.60176,-3.99617 -9.60176,-5.64728 0,-7.56191 -19.60414,-9.6602 -26.43486,-2.8295 -2.30948,2.30954 -3.67394,5.56764 -3.03214,7.2403 0.64187,1.67267 1.16707,3.72479 1.16707,4.56033 0,0.83562 1.36446,1.51923 3.03212,1.51923 1.66768,0 3.03214,-0.71571 3.03214,-1.59048 0,-1.25297 8.56314,2.33949 14.09141,5.91166 0.52368,0.33858 -0.2672,1.369 -1.75794,2.2902 -1.93211,1.19416 -0.75475,2.28257 4.1014,3.79169 10.52424,3.27047 25.60526,5.06979 22.03069,2.62855 -4.1407,-2.82798 -2.11094,-4.11524 4.4897,-2.84724 3.05741,0.58747 5.55892,2.25957 5.55892,3.71614 0,6.01935 17.30036,6.30198 34.91063,0.57041 z m -22.17168,-4.97428 c 2.14777,-2.14776 15.561,-2.69987 15.561,-0.64047 0,1.0586 -3.79018,1.92477 -8.42265,1.92477 -4.63242,0 -7.84471,-0.578 -7.13835,-1.2843 z m 51.71435,-1.53142 c 2.95469,-1.63779 3.96894,-3.19922 2.6197,-4.03305 -3.2015,-1.97866 -12.01951,0.67364 -13.2956,3.99906 -1.38953,3.62113 4.17235,3.63889 10.6759,0.0316 z m -110.94605,-1.22713 c 0,-1.11178 -0.8353,-2.02143 -1.85612,-2.02143 -1.02088,0 -3.29498,-0.5521 -5.05355,-1.22699 -2.09824,-0.80516 -3.19745,-0.1099 -3.19745,2.02142 0,2.11738 1.75959,3.24843 5.05355,3.24843 2.77946,0 5.05357,-0.90965 5.05357,-2.02143 z m 91.97479,-6.06427 c -2.22356,-0.9555 -5.86212,-1.71057 -8.08569,-1.67784 -3.25007,0.0505 -3.05185,0.37711 1.01071,1.67784 6.91156,2.21346 12.22602,2.21346 7.07498,0 z m -15.16068,-1.69698 c 0,-2.16918 -9.18585,-6.38872 -13.90821,-6.38872 -6.22865,0 -6.63374,2.6878 -0.79487,5.27402 6.59079,2.9192 14.70308,3.53421 14.70308,1.1147 z m -22.89326,-6.96009 c 1.98087,-3.20515 -7.12514,-9.53575 -13.71631,-9.53575 -5.03119,0 -5.8361,0.77017 -5.80944,5.55892 0.0189,3.56042 0.61211,4.64352 1.6474,3.01274 1.24071,-1.95439 2.52545,-1.67905 5.52796,1.18487 3.94802,3.76592 9.9528,3.65853 12.35039,-0.22109 z M 254.22484,165.2219 c -6.69911,-6.69919 -9.15237,-7.0616 -11.98426,-1.77021 -2.86625,5.35564 -2.76966,5.58893 2.9027,7.01258 2.74737,0.68955 6.04482,3.21495 7.32766,5.61198 l 2.33248,4.35819 2.55078,-4.7662 c 2.27828,-4.257 1.94392,-5.3732 -3.12936,-10.44634 z m -8.68631,3.07932 c -0.74116,-0.74117 -1.34758,-2.67182 -1.34758,-4.29034 0,-2.38654 0.57294,-2.46716 3.03212,-0.4264 1.66768,1.38404 3.03214,3.31469 3.03214,4.29035 0,2.09324 -2.79696,2.34604 -4.71668,0.42639 z m 2.69526,8.31948 c 0,-0.61274 -3.14028,-2.42596 -6.97834,-4.02958 -5.01363,-2.09483 -8.42826,-2.36443 -12.12854,-0.95758 -7.23121,2.74926 -6.41284,4.49886 1.41942,3.03428 3.6133,-0.67566 8.84373,-0.31964 11.62319,0.79101 6.352,2.53834 6.06427,2.4832 6.06427,1.16187 z m 21.3727,-12.36915 c -0.71248,-1.85674 -0.24762,-4.02345 1.03307,-4.81497 1.61191,-0.99618 1.01091,-2.75665 -1.95294,-5.72051 -5.33448,-5.33447 -5.46302,-8.32428 -0.35817,-8.32428 5.62619,0 6.98327,-3.47262 2.3302,-5.96289 -6.10615,-3.26789 -7.05793,-2.73113 -10.90565,6.15032 -2.57151,5.93547 -4.46741,7.93414 -6.71005,7.07359 -2.04113,-0.78325 -2.71692,-0.32217 -1.94752,1.32864 0.64805,1.39049 1.7402,4.12162 2.42704,6.0692 0.68678,1.94752 4.0985,4.36703 7.5816,5.3766 9.18972,2.66355 9.93586,2.5604 8.50218,-1.1757 z m 3.25494,-13.2335 c -1.4505,-1.4505 -2.39198,-1.56983 -2.39198,-0.30322 0,2.69816 2.39052,5.08874 3.73963,3.73963 0.57422,-0.5742 -0.0316,-2.12079 -1.34765,-3.43641 z M 74.391309,369.41182 c -2.77946,-1.16775 -9.601762,-3.19417 -15.160678,-4.50317 l -10.107122,-2.37997 0.244466,-11.69065 c 0.134552,-6.42984 1.387835,-13.82724 2.785397,-16.43867 2.0652,-3.8589 1.957497,-8.75991 -0.574842,-26.17011 -3.382791,-23.25478 -2.913251,-27.09144 5.699152,-46.56558 5.741603,-12.98286 6.189853,-17.749 1.996409,-21.22925 -2.493237,-2.06919 -2.800052,-7.55881 -1.849729,-33.09565 l 1.139261,-30.61491 -7.429175,-17.1821 -7.429176,-17.18211 1.41885,-25.26781 c 1.90254,-33.882849 5.302953,-42.909584 20.194595,-53.608037 6.159342,-4.424952 12.634082,-10.204087 14.388432,-12.842486 1.75428,-2.638399 2.28692,-4.239244 1.18367,-3.557327 -2.58243,1.595982 -7.34561,-23.190279 -5.54609,-28.860184 1.91138,-6.022075 13.90019,-14.5646138 20.71221,-14.7583551 6.299321,-0.1787695 22.617331,9.0586341 23.115611,13.0858791 2.36198,19.090453 -0.91248,37.86178 -6.87909,39.435966 -5.13897,1.355865 -4.36496,9.086865 1.45738,14.556653 7.56986,7.111498 9.75129,16.26602 8.15993,34.243171 -1.06214,11.99925 -0.62918,17.98954 1.82237,25.21033 1.76862,5.20927 3.21565,12.63478 3.21565,16.50126 0,3.86647 1.92944,13.61334 4.28776,21.65969 7.3828,25.18984 7.33499,27.11165 -0.77099,30.97712 l -7.01656,3.34596 -1.39042,18.41878 c -0.76472,10.13036 -3.08691,25.25661 -5.16032,33.61394 -2.07347,8.35732 -4.32509,24.29436 -5.0036,35.41567 -1.08563,17.79478 -0.80231,20.60474 2.36204,23.42344 1.97759,1.76154 5.62449,5.61109 8.10421,8.55448 2.90605,3.44949 7.4125,5.81601 12.67869,6.65812 9.18932,1.46946 10.91259,3.12266 9.12515,8.75435 -1.61442,5.08667 -13.74322,9.04228 -21.94515,7.15698 -3.51375,-0.80762 -12.16121,-1.72004 -19.21654,-2.02762 -7.055351,-0.30764 -13.681821,-1.41304 -14.725521,-2.45672 -1.18253,-1.18253 -1.04217,-7.41118 0.37271,-16.529 1.24855,-8.04728 1.66236,-19.79556 0.91961,-26.10726 -0.7428,-6.31177 -1.47595,-17.63484 -1.62925,-25.16237 l -0.27859,-13.68643 -3.66061,7.13525 c -2.01333,3.92434 -4.50878,13.26698 -5.54546,20.76141 -1.03661,7.49443 -2.9008,20.39112 -4.14252,28.65938 -2.10582,14.0216 -1.98985,15.24582 1.72433,18.19281 2.19016,1.73779 5.46347,6.10703 7.2741,9.70947 1.89931,3.77873 6.6952,8.28594 11.33608,10.65354 9.828541,5.01414 10.609321,10.6769 2.08017,15.08753 -6.817,3.52518 -15.00755,3.78354 -22.33611,0.70459 z m 20.34715,-3.75594 c 5.726951,-3.06497 4.85919,-5.20099 -4.17576,-10.27894 -4.44713,-2.49942 -8.08911,-5.05911 -8.09327,-5.68822 -0.004,-0.62916 -1.7985,-4.08119 -3.98745,-7.6713 -2.60391,-4.27058 -5.03518,-6.12245 -7.03209,-5.35614 -2.40373,0.92234 -1.44911,3.04678 4.4928,9.99859 4.1498,4.85508 8.68208,8.85725 10.07181,8.89369 3.58752,0.0942 3.15286,4.10913 -0.44471,4.10913 -1.63439,0 -4.99993,-2.7434 -7.47896,-6.09644 -6.57512,-8.89337 -13.030538,-12.65392 -17.560296,-10.2296 -2.544595,1.3618 -4.445933,1.25354 -6.04368,-0.34427 -1.76047,-1.76053 -2.33108,-0.80788 -2.33108,3.89219 0,6.69937 1.466985,7.61818 20.214236,12.66018 11.05676,2.97364 14.11927,3.17091 18.69818,1.20451 5.24401,-2.25205 4.30253,1.96944 -1.01071,4.5319 -2.50151,1.20648 -3.35134,2.2551 -1.88852,2.33033 1.46282,0.0752 4.41914,-0.80478 6.56962,-1.95573 z m -20.34715,-1.95035 c -1.66768,-1.07774 -3.94177,-1.95946 -5.05356,-1.95946 -1.11178,0 -0.65696,0.88172 1.01071,1.95946 1.66768,1.0778 3.94178,1.95951 5.05357,1.95951 1.11178,0 0.65695,-0.88171 -1.01072,-1.95951 z m -16.17139,-4.04284 c -1.667676,-1.07775 -3.941778,-1.95947 -5.053561,-1.95947 -1.111783,0 -0.656963,0.88172 1.010712,1.95947 1.667675,1.07779 3.941778,1.95951 5.053561,1.95951 1.111783,0 0.656962,-0.88172 -1.010712,-1.95951 z m 7.513064,-25.26775 c 3.047996,0 3.809246,-2.49779 4.928866,-16.17139 2.3446,-28.63379 5.60181,-44.17526 11.81598,-56.37846 5.49347,-10.78785 7.82146,-17.81393 4.95154,-14.94402 -1.08493,1.08494 -9.63429,-0.41882 -18.42945,-3.24123 -3.630602,-1.1651 -4.20633,-0.73914 -3.362449,2.48781 0.559679,2.14152 -1.713472,10.13826 -5.052233,17.77054 -10.632122,24.3049 -10.781897,40.80162 -0.172453,19.00896 4.755148,-9.76746 7.914385,-12.81034 7.914385,-7.6228 0,1.40964 -2.27411,5.90958 -5.053564,9.99986 -2.779459,4.09035 -5.053561,8.31911 -5.053561,9.39722 0,1.07813 -0.963272,2.28131 -2.140561,2.67372 -1.504445,0.50157 -1.508993,4.6062 -0.01264,13.81309 1.168888,7.20473 2.146121,16.73815 2.171514,21.18528 0.03158,5.90375 0.565368,7.26746 1.969437,5.05356 1.057772,-1.66768 3.545325,-3.03214 5.527963,-3.03214 z m 6.636906,-76.64879 c 0,-4.12669 2.20058,-9.26173 3.969,-9.26173 0.83327,0 1.41816,2.72684 1.29978,6.05966 -0.20973,5.89738 -5.26878,8.97215 -5.26878,3.20207 z m 65.639741,77.83884 c 3.50421,-1.36945 3.2684,-1.69516 -1.94953,-2.6926 -3.26479,-0.62412 -8.75068,-0.678 -12.1909,-0.11935 -5.27073,0.85531 -7.25483,-0.12381 -12.61021,-6.22327 -3.82889,-4.36091 -6.8892,-6.37431 -7.69846,-5.06493 -0.73877,1.19535 -3.43163,1.77405 -5.984111,1.28613 -3.70685,-0.70857 -4.84239,0.16614 -5.64143,4.34632 -1.4551,7.61173 0.18699,8.90158 9.675491,7.60099 4.67132,-0.64028 11.14626,-0.37081 14.38881,0.59885 7.3487,2.19742 16.77997,2.31239 22.01034,0.26846 z M 118.4425,322.88224 c -5.11142,-6.62807 -9.68698,-9.51435 -9.68698,-6.11052 0,3.49043 8.32365,12.56966 11.52363,12.56966 2.46185,0 2.06313,-1.40223 -1.83665,-6.45914 z m -9.86278,-37.59299 c 1.29952,-14.77852 3.19613,-29.06176 4.2146,-31.74066 1.56959,-4.12838 1.32593,-4.68206 -1.59881,-3.633 -2.65717,0.95297 -2.40481,0.0872 1.09751,-3.76459 6.43324,-7.07537 5.70799,-8.79143 -3.69144,-8.7349 -11.842581,0.0713 -15.366941,5.5943 -17.138141,26.85716 -0.95165,11.42489 -0.63979,18.55098 0.9663,22.0759 l 2.37164,5.20511 3.04881,-4.35282 c 4.059651,-5.79593 7.711681,-5.67376 4.592931,0.1535 -1.32649,2.47859 -3.632621,5.72733 -5.124681,7.21939 -4.00067,4.00065 -3.48002,18.59957 0.77419,21.71034 5.831811,4.26432 7.932511,-1.94466 10.487091,-30.99556 z M 93.686749,239.47986 c 2.72893,-2.72892 4.96165,-7.24346 4.96165,-10.03227 0,-2.78887 1.819281,-9.68616 4.042841,-15.32738 5.29797,-13.44114 5.12937,-15.32689 -1.01071,-11.30374 -7.608701,4.98539 -6.105391,1.92926 4.04285,-8.21898 5.00303,-5.00303 9.09641,-10.38905 9.09641,-11.96898 0,-1.57987 0.90964,-2.87251 2.02143,-2.87251 3.20149,0 2.27985,4.60821 -2.02143,10.10712 -2.1741,2.77946 -3.97317,6.98913 -3.99786,9.3549 -0.0253,2.36569 -1.45486,7.67566 -3.17807,11.79981 -3.12947,7.48988 -2.24769,11.0323 3.85423,15.4836 0.95253,0.69487 0.7874,1.84714 -0.36701,2.56057 -1.15437,0.71344 -3.58178,-0.76472 -5.39418,-3.28481 l -3.2953,-4.58199 0.63043,6.06426 c 0.53758,5.17049 1.57482,6.15581 7.03986,6.68574 6.35663,0.61653 6.41859,0.53252 7.49532,-10.10712 0.59696,-5.90072 1.57077,-19.86138 2.16369,-31.02368 1.39845,-26.32577 -0.25079,-29.21723 -16.68869,-29.25923 -6.329721,-0.0189 -15.490621,-1.41613 -20.357571,-3.1111 -4.86696,-1.6949 -9.28043,-2.65021 -9.80771,-2.12293 -1.62624,1.62623 5.55772,20.97321 8.78127,23.64851 1.67322,1.38865 4.70978,5.97628 6.74789,10.19467 3.14249,6.50413 3.27773,8.02506 0.88986,10.00681 -1.54878,1.28531 -2.81591,4.04487 -2.81591,6.13231 0,2.98993 -1.50141,3.79534 -7.07498,3.79534 -3.89124,0 -7.07499,0.95784 -7.07499,2.12862 0,3.44868 -9.332023,16.1654 -10.79168,14.70581 -0.735294,-0.73529 -1.336857,0.55904 -1.336857,2.87573 0,3.12057 2.226915,5.01849 8.591057,7.32177 7.65671,2.77101 13.38832,4.36231 18.28472,5.07637 0.88437,0.12887 3.84071,-1.9983 6.56963,-4.72722 z m -5.11786,-57.80351 c 0.0506,-5.53138 2.46645,-12.02747 4.47013,-12.02747 1.17229,0 1.4347,2.30846 0.63194,5.55891 -1.59048,6.43976 -5.14421,10.94532 -5.10207,6.46856 z m -21.75773,36.88745 5.08565,-7.68494 -4.81699,-4.29067 -4.817053,-4.29066 v 5.65865 c 0,3.11224 -0.568524,8.50129 -1.26339,11.97563 -1.654346,8.27179 -0.367014,7.96876 5.811783,-1.36801 z m 9.60158,-14.55071 c -1.19005,-2.22357 -2.61851,-4.04286 -3.17439,-4.04286 -0.5559,0 -0.0379,1.81929 1.15296,4.04286 1.18999,2.22356 2.6185,4.04285 3.1744,4.04285 0.55589,0 0.0379,-1.81929 -1.15297,-4.04285 z m 6.1354,0.13265 c -1.15089,-2.15048 -2.03489,-6.47127 -1.96445,-9.60176 0.12193,-5.42518 0.21352,-5.47876 1.9563,-1.14363 1.00547,2.50152 2.28977,4.54821 2.85399,4.54821 1.83761,0 -3.09215,-11.01214 -6.78692,-15.16068 -4.9468,-5.55431 -9.81838,-18.79431 -11.4551,-31.13289 -0.75197,-5.66839 -2.13197,-10.30624 -3.066626,-10.30624 -3.696363,0 -0.879762,-15.72782 4.554336,-25.43122 3.16339,-5.64881 5.75164,-12.58716 5.75164,-15.41854 0,-2.831316 1.42441,-6.330088 3.16542,-7.774964 7.75609,-6.436972 11.42093,-20.880118 6.53742,-25.763619 -4.02201,-4.022064 -13.59907,-2.743262 -20.844675,2.783182 -7.679074,5.857143 -14.975847,23.398048 -11.527992,27.712402 3.02026,3.779299 4.971819,11.550039 2.90068,11.550039 -1.016776,0 -2.669922,-1.83641 -3.673685,-4.08082 -1.32138,-2.95468 -1.962929,0.1453 -2.324891,11.23376 -0.319637,9.78697 0.227411,14.86486 1.516069,14.0686 1.172552,-0.72461 2.015991,1.34115 2.015991,4.93765 0,3.40098 -0.869275,6.18359 -1.931786,6.18359 -2.196784,0 1.124417,10.01628 8.605959,25.95459 4.285799,9.13013 5.273392,10.14281 6.407473,6.56962 0.737437,-2.32337 2.250417,-4.22426 3.362197,-4.22426 1.18266,0 1.41367,1.88725 0.55652,4.54819 -0.8056,2.50151 -1.4733,5.68526 -1.48385,7.07499 -0.0126,1.38973 -0.77724,2.52677 -1.70368,2.52677 -0.926507,0 -1.684541,3.18375 -1.684541,7.075 0,3.89124 0.842934,7.07498 1.873231,7.07498 1.03023,0 2.26412,1.13705 2.742,2.52678 0.47756,1.38973 0.6298,0.93491 0.33732,-1.01071 -0.29247,-1.94562 0.21857,-3.5375 1.13547,-3.5375 0.91678,0 3.10573,-0.55209 4.86437,-1.227 2.13033,-0.81747 3.19746,-0.0986 3.19746,2.15434 0,3.61524 3.51879,11.2012 5.19581,11.2012 0.55589,0 0.0689,-1.75951 -1.08184,-3.90999 z M 64.351466,108.59587 c -0.133919,-2.82374 4.664503,-11.718259 6.321433,-11.718259 0.93333,0 1.69699,0.808823 1.69699,1.797493 0,2.158116 -7.921963,11.959556 -8.018423,9.920766 z M 58.300839,81.589765 c -0.100443,-5.18047 9.88988,-15.045397 15.19037,-14.999473 3.05804,0.02529 2.45856,0.977682 -2.69645,4.278721 -3.64577,2.334566 -7.930113,6.640068 -9.520785,9.567725 -2.568787,4.727851 -2.901248,4.85672 -2.973135,1.153027 z m 70.479041,96.926665 c -2.93719,-3.53908 -4.81269,-2.15573 -3.10623,2.29122 0.68539,1.78605 2.20638,2.65393 3.38,1.92862 1.46541,-0.90565 1.37963,-2.22754 -0.27351,-4.21984 z m -2.91704,-14.42647 c -1.60249,-5.28097 -3.03107,-10.5114 -3.17465,-11.62319 -0.14339,-1.11178 -0.90029,0.7075 -1.68158,4.04285 -0.8802,3.7577 -0.38533,8.17862 1.3018,11.62319 4.40469,8.99421 6.71354,6.36812 3.55443,-4.04285 z m -8.84765,-5.05356 c 0.096,-1.38973 0.38534,-18.76809 0.64312,-38.61855 0.39481,-30.371455 -0.0631,-37.082397 -2.88286,-42.342202 -5.02551,-9.370634 -7.8816,-9.153835 -6.58681,0.499672 0.72418,5.39884 0.31837,8.194914 -1.18841,8.194914 -1.26674,0 -2.28756,-3.157152 -2.28756,-7.074979 0,-5.529232 -0.81482,-7.074992 -3.72953,-7.074992 -2.051301,0 -5.452281,-1.903547 -7.557721,-4.230083 -2.10551,-2.326524 -5.65765,-5.178947 -7.89366,-6.338618 -3.69213,-1.914917 -3.64778,-1.653705 0.48262,2.84427 7.11686,7.750021 4.83088,27.79983 -4.20918,36.917338 -7.77623,7.84288 -11.68825,18.4942 -9.13046,24.85998 1.23295,3.06852 2.35092,10.5169 2.4844,16.55199 0.22867,10.33036 0.59758,11.08605 6.30703,12.90691 3.33535,1.06378 11.97694,2.57777 19.203531,3.36447 7.22658,0.78666 13.82149,1.57337 14.65532,1.74836 0.83384,0.17497 1.59434,-0.819 1.69004,-2.20874 z M 80.900549,143.34744 c -2.53468,-4.43451 -3.77634,-8.06277 -2.75924,-8.06277 2.74452,0 8.72649,9.89936 7.99833,13.23622 -0.36007,1.64897 -2.60897,-0.57168 -5.23909,-5.17345 z m -2.4664,-27.38562 c 0,-5.62904 0.78672,-8.72946 2.02143,-7.96638 1.11178,0.6871 2.02143,4.83418 2.02143,9.21567 0,4.38157 -0.90965,7.96644 -2.02143,7.96644 -1.11178,0 -2.02143,-4.14708 -2.02143,-9.21573 z m 12.18711,-6.8767 c -1.63552,-1.03434 -2.54515,-2.25579 -2.02142,-2.71433 1.73956,-1.52321 16.112831,1.02492 16.112831,2.85652 0,2.36652 -10.288661,2.26273 -14.091411,-0.14213 z m -21.18168,21.90598 -3.14963,-6.82426 1.14103,6.06426 c 0.62727,3.33536 1.74638,8.7932 2.48629,12.12855 1.34381,6.05801 1.34588,6.05878 2.00859,0.76 0.36513,-2.91736 -0.75392,-8.37521 -2.48628,-12.12855 z m 52.837881,6.82035 c -0.50851,-1.94563 -0.92442,-0.35375 -0.92442,3.53749 0,3.89124 0.41566,5.48312 0.92442,3.53749 0.50852,-1.94561 0.50852,-5.12936 0,-7.07498 z M 81.466289,96.877611 c 0.6871,-1.111782 0.28617,-2.021426 -0.89144,-2.021426 -1.17736,0 -2.1407,0.909644 -2.1407,2.021426 0,1.111783 0.40114,2.021423 0.89139,2.021423 0.4902,0 1.45367,-0.90964 2.14075,-2.021423 z M 104.71267,61.502689 c 0,-5.038278 -0.90067,-7.074992 -3.12865,-7.074992 -1.720741,0 -5.414331,-2.466259 -8.207871,-5.480582 -4.17689,-4.506951 -5.40195,-4.958305 -6.89603,-2.540867 -1.29093,2.088826 -0.73037,3.341535 1.93678,4.328181 4.29495,1.588786 7.16487,5.412237 5.39271,7.184398 -0.66037,0.66038 -3.04703,-0.46998 -5.3037,-2.512441 -3.00188,-2.716666 -4.70404,-3.112112 -6.34267,-1.473486 -1.63861,1.638615 -0.40491,3.006489 4.59596,5.096948 3.7596,1.571473 8.08406,4.362611 9.60992,6.202553 4.711311,5.680902 8.343551,4.057194 8.343551,-3.729712 z m 7.07499,-13.139258 c -0.76474,-2.409543 -0.36322,-4.042853 0.99378,-4.042853 1.25233,0 1.65188,-1.011339 0.88797,-2.247447 -0.76397,-1.236095 -0.14276,-3.017478 1.37987,-3.958704 2.20513,-1.362815 2.25788,-2.222176 0.25901,-4.22111 -1.90539,-1.905381 -2.50991,-1.925659 -2.50991,-0.08401 0,2.989558 -5.33929,3.212742 -7.14044,0.29816 -0.73492,-1.189103 1.44115,-3.167508 4.9343,-4.485982 7.32848,-2.766255 7.80522,-4.540119 2.04814,-7.621211 -5.05652,-2.706182 -9.94914,-1.204769 -9.94914,3.053235 0,1.702544 -0.90963,3.095558 -2.02141,3.095558 -1.111791,0 -2.021431,1.819281 -2.021431,4.042847 0,2.695251 -1.3476,4.042852 -4.04285,4.042852 -2.22356,0 -4.04285,0.541997 -4.04285,1.20401 0,3.429096 8.75877,12.789612 12.675281,13.546198 9.13994,1.765641 9.87099,1.541463 8.54968,-2.621663 z"
     id="path817"
     inkscape:connector-curvature="0" />
</svg>
