<?xml version="1.0" encoding="UTF-8" standalone="no"?>
<svg
   xmlns:dc="http://purl.org/dc/elements/1.1/"
   xmlns:cc="http://creativecommons.org/ns#"
   xmlns:rdf="http://www.w3.org/1999/02/22-rdf-syntax-ns#"
   xmlns:svg="http://www.w3.org/2000/svg"
   xmlns="http://www.w3.org/2000/svg"
   xmlns:sodipodi="http://sodipodi.sourceforge.net/DTD/sodipodi-0.dtd"
   xmlns:inkscape="http://www.inkscape.org/namespaces/inkscape"
   id="svg"
   version="1.1"
   width="400"
   height="377.93103448275866"
   viewBox="0, 0, 400,377.93103448275866"
   sodipodi:docname="B10.svg"
   inkscape:version="0.92.5 (2060ec1f9f, 2020-04-08)">
  <metadata
     id="metadata11">
    <rdf:RDF>
      <cc:Work
         rdf:about="">
        <dc:format>image/svg+xml</dc:format>
        <dc:type
           rdf:resource="http://purl.org/dc/dcmitype/StillImage" />
      </cc:Work>
    </rdf:RDF>
  </metadata>
  <defs
     id="defs9" />
  <sodipodi:namedview
     pagecolor="#ffffff"
     bordercolor="#666666"
     borderopacity="1"
     objecttolerance="10"
     gridtolerance="10"
     guidetolerance="10"
     inkscape:pageopacity="0"
     inkscape:pageshadow="2"
     inkscape:window-width="1366"
     inkscape:window-height="693"
     id="namedview7"
     showgrid="false"
     inkscape:zoom="0.22077732"
     inkscape:cx="216.25733"
     inkscape:cy="-148.41159"
     inkscape:window-x="0"
     inkscape:window-y="0"
     inkscape:window-maximized="1"
     inkscape:current-layer="svg" />
  <path
     style="fill:#ffffff;stroke-width:0.85221636"
     d="m 326.8589,333.5051 c 0,-0.50031 -0.74963,-0.90964 -1.66581,-0.90964 -2.01797,0 -2.4122,-1.93138 -2.9573,-14.48767 -0.21359,-4.92155 -0.67131,-9.90702 -1.01699,-11.07882 -0.90441,-3.06577 -13.58182,-23.0781 -15.02614,-23.72003 -0.35154,-0.15633 -0.63916,-0.6651 -0.63916,-1.13081 0,-1.78856 -4.96664,-5.83094 -6.53797,-5.32129 -1.25689,0.40765 -1.3175,0.3351 -0.31364,-0.37524 1.0911,-0.77209 1.0911,-1.07076 0,-2.42397 -2.14982,-2.6663 -3.6469,-5.69872 -4.33824,-8.78726 -0.36719,-1.64052 -1.1185,-4.99612 -1.66957,-7.45689 -0.68995,-3.08111 -1.43108,-4.4951 -2.38034,-4.54141 -0.8825,-0.0431 -0.99518,-0.22184 -0.31319,-0.49714 1.84616,-0.74494 1.15414,-1.85429 -0.85222,-1.36615 -2.84092,0.69117 -4.90024,2.79037 -4.90024,4.9951 0,1.07151 -0.3835,2.18519 -0.85222,2.47487 -0.46872,0.28967 -0.85222,1.57785 -0.85222,2.86262 0,3.54751 -1.24849,4.3157 -5.3301,3.27967 -3.18037,-0.80723 -3.62003,-0.71535 -4.8366,1.01081 -4.41091,6.25855 -4.61294,6.38973 -7.52265,4.88507 -4.67547,-2.4178 -6.64074,-1.62806 -14.53034,5.83901 -2.48744,2.35425 -5.36367,4.63592 -6.39163,5.07039 -6.93997,2.93328 -9.07245,3.99472 -9.53752,4.74722 -0.29048,0.46995 -1.44158,0.85446 -2.55804,0.85446 -1.11648,0 -2.26697,0.38349 -2.55665,0.85221 -0.72806,1.178 -4.12851,1.07004 -5.36896,-0.17044 -0.79541,-0.79541 -1.02266,0.53026 -1.02266,5.96551 0,4.09064 -0.35338,6.98818 -0.85222,6.98818 -0.46871,0 -0.85221,1.28623 -0.85221,2.8583 0,3.39073 -3.21081,7.30845 -6.13788,7.48923 -6.68167,0.41269 -42.74802,-0.32696 -46.27343,-0.94897 -6.92391,-1.22163 -23.52591,-1.71343 -28.12314,-0.8331 -12.98179,2.48592 -16.40684,2.8312 -27.69703,2.79213 -22.110173,-0.0764 -37.473051,-1.98494 -39.38436,-4.89252 -0.340966,-0.51868 -3.338504,-0.94415 -6.817731,-0.96769 -4.492251,-0.0304 -7.269704,-0.54278 -10.044201,-1.85296 -2.109235,-0.99603 -5.136361,-2.07429 -6.726943,-2.39614 -4.108615,-0.83139 -7.894959,-2.54498 -9.998096,-4.52489 -1.519342,-1.43032 -2.343276,-1.58513 -5.112553,-0.96056 -2.011896,0.45375 -3.617818,0.42808 -4.111651,-0.0658 -0.445709,-0.44571 -1.441977,-0.81035 -2.213952,-0.81035 -2.446207,0 -4.988448,-3.00454 -5.558474,-6.56926 -0.698472,-4.36793 -0.01864,-4.93878 6.237691,-5.23197 2.191608,-0.1028 2.769703,-0.49825 2.769703,-1.89511 0,-3.27707 3.609722,-5.36287 5.68668,-3.28591 1.557825,1.5578 11.523777,1.27896 14.076857,-0.39388 1.765952,-1.1571 3.317332,-1.36352 7.221842,-0.96096 5.275778,0.54393 10.214804,-0.42621 9.891867,-1.94302 -0.122506,-0.57509 0.860685,-0.74082 2.661339,-0.44862 1.666376,0.27042 3.099058,0.0693 3.440291,-0.48275 0.321605,-0.52038 1.543497,-0.94615 2.715294,-0.94615 1.171798,0 1.915623,-0.34773 1.652954,-0.77274 -0.262589,-0.42499 0.263654,-0.57892 1.169347,-0.34206 1.740892,0.45527 5.953211,-2.09099 5.998592,-3.626 0.06898,-2.32873 4.995958,-5.55171 9.64352,-6.3081 2.635613,-0.42896 5.551584,-1.18642 6.479884,-1.68324 0.92833,-0.49684 2.97423,-0.90332 4.54647,-0.90332 1.5722,0 4.35655,-0.76372 6.18743,-1.69713 3.22122,-1.64228 3.38546,-1.6471 5.08044,-0.14914 1.55508,1.37425 3.64863,2.17371 10.48681,4.00448 1.05462,0.28235 1.91749,0.87102 1.91749,1.30815 0,1.71368 2.15867,0.61949 6.4181,-3.25322 15.06308,-13.69549 15.77441,-14.1522 24.23551,-15.55966 5.27852,-0.87805 13.20382,-2.7672 15.79218,-3.76438 6.1411,-2.36596 8.31891,-3.04672 9.7467,-3.04672 0.88891,0 1.744,-0.32965 1.90025,-0.73259 0.35066,-0.90428 12.60724,-4.85151 17.54226,-5.64948 2.91477,-0.47127 4.66554,-1.61196 8.95898,-5.83707 2.93493,-2.88821 6.48191,-5.77541 7.88218,-6.41599 1.40027,-0.6406 3.21187,-1.50347 4.02576,-1.91748 0.81392,-0.41405 4.16143,-0.7528 7.43897,-0.7528 4.02723,0 7.96799,-0.6683 12.15564,-2.06146 4.08105,-1.35769 10.12428,-2.40469 17.70145,-3.06678 6.32771,-0.55293 11.80043,-1.18677 12.16161,-1.40853 1.13691,-0.69807 15.98494,-1.56083 26.18813,-1.52169 8.3025,0.032 10.38665,0.32307 13.63546,1.90532 7.46262,3.63454 10.44303,7.64433 12.69733,17.0827 1.06594,4.4629 4.04478,11.86989 8.20764,20.40862 3.59399,7.37175 7.55117,15.49934 8.79381,18.06131 1.24264,2.56198 3.31816,5.8217 4.6123,7.24384 1.29415,1.42214 2.80931,3.83207 3.367,5.35541 0.55775,1.52333 1.32051,2.7697 1.69506,2.7697 0.37458,0 0.68295,0.47937 0.68532,1.06527 0.005,1.55045 6.22964,6.62785 11.79608,9.62389 6.63195,3.56951 10.5383,5.62855 12.12968,6.39349 0.74049,0.35594 3.98504,0.92974 7.21015,1.27513 3.2251,0.34539 6.35836,1.1225 6.96279,1.72694 1.38595,1.38591 1.3815,6.31777 -0.008,8.14202 -1.80555,2.37206 -7.55974,5.86192 -9.66501,5.86192 -1.63676,0 -2.0116,0.44624 -2.0116,2.39486 0,3.48447 -3.91817,7.02218 -12.56521,11.34513 l -7.46156,3.73044 -16.19211,0.0344 c -8.90566,0.0186 -17.05498,0.33231 -18.1096,0.69658 -1.20453,0.41604 -1.91749,0.32408 -1.91749,-0.24741 z m 15.3399,-4.46953 c 3.98411,0.0133 9.48788,0.28365 12.23064,0.59852 3.22654,0.37042 5.31721,0.24208 5.9229,-0.3636 0.51485,-0.51485 1.45569,-0.93611 2.09075,-0.93611 1.22999,0 8.73107,-3.23592 8.73107,-3.76653 0,-0.34528 -3.64155,0.53272 -8.94828,2.15747 -3.5376,1.08311 -6.03774,1.1176 -24.92732,0.34387 -6.21053,-0.25434 -11.29187,-0.15047 -11.29187,0.23089 0,1.89174 2.28362,2.83346 5.5394,2.28437 1.87488,-0.3162 6.6686,-0.56321 10.65271,-0.54888 z m 19.17487,-5.94179 3.40886,-0.97 -4.87782,-1.13092 c -2.68277,-0.62201 -6.48331,-2.14445 -8.44562,-3.38319 -4.30463,-2.7174 -8.51545,-7.16083 -7.83277,-8.26544 0.27241,-0.44075 -0.0333,-1.16714 -0.67917,-1.61415 -0.8116,-0.56166 -0.51623,-0.63482 0.95608,-0.23676 1.73192,0.46819 4.62874,2.63231 8.50446,6.35344 1.49164,1.43212 7.38837,3.40886 10.16886,3.40886 3.75292,0 6.38669,2.12879 4.28172,3.46077 -0.87536,0.55392 -0.91558,0.77792 -0.14142,0.78726 0.59522,0.008 2.65833,-0.98191 4.58471,-2.19799 2.34131,-1.47799 4.31347,-2.09201 5.94858,-1.85203 1.55133,0.2277 2.44607,-0.0213 2.44607,-0.67932 0,-1.38605 -2.83359,-1.91296 -8.52216,-1.58473 -2.57795,0.14888 -6.22118,-0.24874 -8.09606,-0.88343 -4.14126,-1.40178 -17.67491,-8.24836 -18.46297,-9.34029 -0.5875,-0.814 -4.0373,1.11936 -7.08165,3.96875 -2.67735,2.50589 -7.05441,4.29903 -9.39963,3.85071 -2.08694,-0.39894 -2.12716,-0.30459 -2.12716,4.98986 v 5.39648 l 11.29187,0.26472 c 6.21053,0.14567 13.4011,0.34637 15.97906,0.4461 2.57795,0.0999 6.22118,-0.25513 8.09605,-0.78867 z m 14.91379,-1.53553 c 0.70307,-0.47724 0.89482,-0.86505 0.4261,-0.8618 -0.46872,0.003 -1.81096,0.79008 -2.98275,1.74856 -2.08277,1.7036 -0.39935,1.1197 2.55665,-0.88676 z m 12.22821,-14.48557 c 0.49274,-0.49275 1.58621,-0.89592 2.42991,-0.89592 0.84369,0 1.53399,-0.34009 1.53399,-0.75573 0,-1.23865 -11.35467,-3.10388 -11.74613,-1.92953 -0.20107,0.60311 -2.42288,0.98082 -5.7694,0.98082 -5.62159,0 -8.62304,-1.1584 -14.38118,-5.55035 -2.61494,-1.9945 -2.65073,-1.99735 -4.75696,-0.37913 -1.16719,0.89677 -2.76134,1.63903 -3.54253,1.64944 -0.78122,0.0106 -1.58217,0.49833 -1.77993,1.08423 -0.27197,0.80567 -1.14568,0.69293 -3.58541,-0.46265 -1.77421,-0.84033 -3.41965,-1.33406 -3.65654,-1.09717 -0.23676,0.23702 0.67343,0.91666 2.023,1.51058 1.34954,0.59389 2.64546,1.27936 2.87982,1.52328 0.23436,0.24395 2.69541,1.57868 5.46897,2.9662 4.38806,2.19515 5.88197,2.50399 11.50492,2.37848 3.55414,-0.0794 8.1878,0.33367 10.29704,0.91778 3.05128,0.845 4.68809,0.84679 8.00974,0.008 2.29611,-0.57927 4.57792,-1.45638 5.07069,-1.94915 z m -264.29542,1.13922 c 3.41568,-0.41085 4.22073,-0.87863 5.32635,-3.09493 2.20974,-4.42953 2.00737,-4.52151 -3.58615,-1.62992 -2.3407,1.21002 -7.60308,1.29418 -8.32067,0.13316 -0.2897,-0.46872 -1.27108,-0.85221 -2.18085,-0.85221 -1.09936,0 -1.65413,-0.58585 -1.65413,-1.74675 0,-1.62289 0.34792,-1.70739 4.90717,-1.19156 3.80611,0.43061 5.73174,0.20107 8.58182,-1.02295 l 3.67465,-1.57826 -0.56214,-3.83497 c -0.30917,-2.10924 -0.91126,-3.96281 -1.33798,-4.11905 -0.42672,-0.15633 -0.78859,-0.73147 -0.8042,-1.27833 -0.0823,-2.88837 -7.64159,-7.28943 -7.64159,-4.44899 0,1.23222 -7.25561,6.4375 -8.97319,6.4375 -2.2281,0 -1.33426,-2.36412 1.94241,-5.13761 l 3.19581,-2.70504 -4.47347,0.38731 c -3.5396,0.30642 -4.94389,0.89488 -6.72692,2.81878 -1.7496,1.88787 -2.94065,2.40136 -5.32701,2.29665 -1.690484,-0.074 -10.360028,-0.14328 -19.265689,-0.1534 -16.561073,-0.0187 -23.139491,-0.73837 -28.047778,-3.0675 -2.12383,-1.0078 -3.331181,-1.11097 -5.105869,-0.43623 -1.278377,0.48603 -3.760031,0.88369 -5.514798,0.88369 -1.754794,0 -3.929836,0.54063 -4.833452,1.20136 -1.612234,1.17888 -1.61282,1.23468 -0.03089,2.98276 0.886678,0.97978 2.061085,1.7814 2.609833,1.7814 0.548721,0 1.898365,0.95874 2.999216,2.13054 1.10085,1.1718 2.521974,2.13054 3.158047,2.13054 0.6361,0 1.377262,0.57525 1.647068,1.27832 0.269807,0.70308 1.024764,1.27833 1.677695,1.27833 0.652931,0 1.187137,0.3835 1.187137,0.85222 0,0.46871 1.054618,0.83946 2.343595,0.82385 2.310865,-0.028 2.319786,-0.049 0.639162,-1.50302 -3.742481,-3.23799 -4.020357,-4.04515 -2.579632,-7.4933 1.477743,-3.53672 2.706,-3.17501 3.153227,0.92863 0.246344,2.26111 0.563369,2.52613 2.742007,2.29256 2.370919,-0.25406 2.445328,-0.15286 1.982601,2.69868 l -0.48081,2.96278 4.409048,0.6001 c 2.424955,0.33007 5.426973,1.32077 6.671129,2.20157 1.244156,0.88079 2.556303,1.60144 2.915885,1.60144 0.359582,0 3.1483,0.99798 6.197131,2.21768 5.989963,2.39636 10.583968,2.37122 12.367364,-0.0676 0.537562,-0.73514 2.374168,-1.56331 4.081371,-1.84034 2.924301,-0.47455 3.137248,-0.35228 3.678592,2.11241 0.561531,2.55668 0.703984,2.62365 6.2676,2.94712 5.80072,0.33727 11.88402,0.0895 19.09122,-0.77732 z m 209.39495,-0.8561 c 3.72985,-2.20327 4.50646,-4.06907 2.56232,-6.15585 -0.90676,-0.97332 -1.6512,-2.26506 -1.65429,-2.87056 -0.003,-0.6055 -0.77378,-2.2514 -1.71266,-3.65756 -0.93888,-1.40615 -2.50488,-4.28238 -3.48,-6.39162 -0.97512,-2.10923 -2.13232,-4.60197 -2.57153,-5.5394 -0.43924,-0.93744 -1.17172,-3.7178 -1.62771,-6.17857 -0.45599,-2.46078 -1.1791,-6.32614 -1.60693,-8.58968 -0.42782,-2.26354 -1.74108,-6.96138 -2.91839,-10.43965 -1.17729,-3.47827 -2.31723,-7.09111 -2.53319,-8.02854 -0.21598,-0.93744 -0.37378,-0.0735 -0.35069,1.91972 0.024,1.99331 -0.20346,3.86954 -0.50334,4.16947 -1.05158,1.05158 -3.14313,-1.63484 -3.14313,-4.03708 0,-1.33449 -0.767,-3.79194 -1.70443,-5.46098 -2.75069,-4.89737 -1.66318,-8.53061 1.59428,-5.32635 0.8736,0.85933 0.96346,0.57101 0.46472,-1.49138 -0.34006,-1.40616 -0.94244,-2.68448 -1.33864,-2.8407 -0.3962,-0.15633 -0.72036,-0.94583 -0.72036,-1.75461 0,-0.80881 -0.56305,-2.21496 -1.25122,-3.12481 -0.68816,-0.90982 -1.26341,-3.04542 -1.27832,-4.74573 -0.0266,-2.9811 -1.71836,-5.5859 -2.87652,-4.42777 -0.30912,0.30912 -1.42432,0.14887 -2.47822,-0.35622 -1.05393,-0.50502 -2.62712,-1.14799 -3.49601,-1.42883 -0.93278,-0.30144 -1.38719,-1.01251 -1.1095,-1.73612 0.34943,-0.91059 -0.51642,-1.37353 -3.36921,-1.80132 -5.82669,-0.87376 -28.9479,-0.024 -30.31976,1.11521 -1.30797,1.08551 -3.69958,10.73545 -2.95802,11.93529 1.26499,2.04678 3.11576,14.19622 3.1164,20.45748 8e-4,8.19291 0.29013,8.38176 7.50696,4.90024 2.42903,-1.1718 4.80179,-2.13054 5.2728,-2.13054 0.47101,0 0.85639,-0.59788 0.85639,-1.32863 0,-0.73072 0.31945,-1.13119 0.70985,-0.8899 0.39042,0.24128 2.09581,-0.50308 3.78978,-1.65413 1.69394,-1.15108 3.6755,-2.09285 4.40343,-2.09285 0.72795,0 1.32354,-0.57525 1.32354,-1.27833 0,-1.58984 -1.18631,-1.65114 -2.45151,-0.12677 -0.52565,0.63341 -3.48902,1.83736 -6.58529,2.67548 -4.75387,1.2868 -5.74617,1.33966 -6.37937,0.33975 -0.41242,-0.65123 -0.75573,-1.45367 -0.76289,-1.78319 -0.0133,-0.61823 5.51139,-2.37046 7.5007,-2.37888 0.61717,-0.003 2.39065,-0.97233 3.94108,-2.15488 2.34159,-1.78601 3.19613,-2.00671 5.04645,-1.3032 1.98111,0.7532 2.28596,0.61397 2.75599,-1.25875 0.31694,-1.26285 1.14189,-2.10567 2.061,-2.10567 1.32472,0 1.62313,1.12669 2.20096,8.30911 0.36762,4.57001 0.55673,8.69261 0.42025,9.16133 -0.13662,0.46872 -0.24635,2.57795 -0.24422,4.68719 0.005,4.79915 2.55263,10.72408 6.04587,14.06157 1.47175,1.40616 4.04464,4.37994 5.71754,6.6084 1.70212,2.26746 3.44751,3.80092 3.96331,3.48213 0.592,-0.36589 0.71946,-0.0426 0.35631,0.90378 -0.37764,0.9841 0.84782,3.61683 3.69015,7.92782 2.34053,3.54994 4.25554,6.77747 4.25554,7.17231 0,0.39484 0.95875,0.95853 2.13054,1.25265 1.1718,0.29409 2.13055,1.08189 2.13055,1.75064 0,1.89232 2.61215,5.41703 4.01455,5.41703 0.69402,0 2.31131,-0.61991 3.59395,-1.37761 z m -24.32961,-31.08446 c 0.4701,-4.092 0.68105,-4.39842 2.53755,-3.68602 2.51953,0.96684 1.09097,7.17273 -1.65111,7.17273 -1.00341,0 -1.19872,-0.76827 -0.88644,-3.48671 z m -4.1582,-36.56746 c -0.28968,-0.46872 -1.28309,-0.85222 -2.20759,-0.85222 -2.01272,0 -3.18276,-2.44759 -1.62906,-3.40783 1.10039,-0.68006 5.71227,0.46769 7.16679,1.78359 0.4557,0.41228 0.32531,1.23981 -0.31742,2.01424 -1.26078,1.51915 -2.26434,1.67311 -3.01272,0.46222 z m -24.13759,-2.2126 c 0.15153,-0.74819 1.79484,-1.8814 3.65177,-2.51824 1.85693,-0.63682 4.04134,-2.03802 4.85422,-3.11376 1.13414,-1.50086 1.71211,-1.72257 2.48427,-0.95302 1.35065,1.3461 0.28453,5.33927 -1.57881,5.91356 -0.80628,0.24847 -2.13187,0.80734 -2.94579,1.24184 -0.8139,0.43449 -2.66363,0.79 -4.11051,0.79 -1.95586,0 -2.56003,-0.34895 -2.35515,-1.36038 z m 22.64621,-6.91997 c -1.6157,-0.24474 -2.3436,-0.86111 -2.3436,-1.98441 0,-1.3877 0.56883,-1.60464 3.83498,-1.46248 3.37629,0.14701 3.83497,0.39955 3.83497,2.11211 0,1.99978 -0.3529,2.0882 -5.32635,1.33478 z m -160.25072,74.75773 c 3.37951,-0.54963 6.54172,-0.75392 7.02711,-0.45391 1.72898,1.06857 22.93724,2.42581 42.86158,2.74291 l 20.24014,0.32216 v -3.78583 c 0,-2.27039 -0.81453,-5.43773 -2.03485,-7.91251 -1.11915,-2.26967 -2.6717,-5.66066 -3.45015,-7.53554 -0.77842,-1.87488 -1.78022,-4.07477 -2.22625,-4.88869 -0.44601,-0.81389 -0.81091,-2.252 -0.81091,-3.19581 0,-0.94377 -0.36001,-1.71599 -0.80002,-1.71599 -0.43998,0 -1.06335,-1.75623 -1.38525,-3.90275 -0.3219,-2.14652 -1.11017,-4.10419 -1.75176,-4.35038 -0.64156,-0.24608 -0.94045,-0.81339 -0.66414,-1.26045 0.27627,-0.44704 -0.0842,-3.18721 -0.80087,-6.08928 -2.97597,-12.049 -3.47747,-17.29506 -2.07036,-21.65689 0.72266,-2.24 1.20291,-4.1952 1.06727,-4.34484 -0.13555,-0.14967 -1.05097,0.13795 -2.03405,0.63916 -0.98309,0.50119 -2.54922,1.29476 -3.48029,1.76348 -0.93108,0.46872 -2.11949,0.85221 -2.64092,0.85221 -0.52142,0 -2.15648,0.51578 -3.63347,1.14616 -1.477,0.63037 -4.98643,1.81908 -7.79874,2.64157 -2.81232,0.8225 -5.70386,1.79365 -6.42563,2.15814 -0.72181,0.36448 -3.40629,0.92803 -5.96552,1.25235 -9.89674,1.25417 -13.47237,2.88289 -19.27705,8.78084 -2.42184,2.46078 -4.82549,4.47414 -5.3414,4.47414 -0.51594,0 -2.0511,1.2457 -3.41148,2.76821 -1.80047,2.01507 -2.23251,3.05844 -1.58805,3.83497 1.22149,1.47181 -0.47849,3.36732 -3.64336,4.06247 -1.37375,0.30171 -2.49774,0.89432 -2.49774,1.31686 0,0.42254 -0.95874,1.00889 -2.13054,1.30301 -1.1718,0.29409 -2.13054,0.79394 -2.13054,1.11081 0,0.31684 -1.24637,1.31334 -2.7697,2.21448 l -2.76971,1.63842 2.98276,0.66803 c 1.64052,0.36741 5.66724,0.8671 8.94827,1.11038 3.28104,0.24342 8.74033,0.64582 12.13178,0.89448 6.98285,0.512 13.35247,3.20897 18.51672,7.84018 0.6533,0.5859 1.43439,1.06527 1.73572,1.06527 0.62758,0 2.98276,2.2351 2.98276,2.83072 0,0.21758 -0.59956,0.62584 -1.33233,0.90705 -1.35391,0.51956 -5.22917,-1.10698 -7.33516,-3.07874 -3.78744,-3.54604 -10.95732,-5.74072 -20.63988,-6.31777 -7.10003,-0.42318 -7.53663,-0.3533 -6.95137,1.11222 2.64464,6.62252 3.87646,16.70128 2.17009,17.75588 -0.46872,0.28967 -0.85222,1.26285 -0.85222,2.16257 0,1.35292 0.33162,1.50475 1.91749,0.87773 1.05461,-0.41697 4.68253,-1.20783 8.06202,-1.75748 z m 30.36713,-23.48138 c -0.27843,-0.72561 0.0482,-1.78023 0.72553,-2.3436 2.01869,-1.67871 3.80009,-5.08035 4.42583,-8.45132 0.63631,-3.4278 1.88361,-4.76131 3.21147,-3.43348 0.53838,0.53839 0.55338,2.39633 0.0421,5.2095 -0.43713,2.40495 -0.51652,4.37264 -0.1763,4.37264 0.71363,0 2.62973,-9.56938 2.58051,-12.88759 -0.0402,-2.70789 2.02114,-4.82378 3.06071,-3.14175 2.23776,3.6208 -0.83568,16.45132 -4.7073,19.65126 -2.10311,1.73825 -4.33029,1.95554 -4.3675,0.42611 -0.0133,-0.5912 -0.41247,-0.40158 -0.89456,0.42611 -1.07499,1.84563 -3.2218,1.94036 -3.90035,0.17204 z m -34.16807,-2.27753 c -1.05462,-0.50861 -1.91749,-1.45345 -1.91749,-2.09959 0,-1.59655 2.44466,-2.42645 3.6366,-1.23452 1.3486,1.34864 14.01211,1.19915 17.66881,-0.20852 7.61293,-2.93072 8.55247,-3.48336 8.06801,-4.74581 -0.2685,-0.6997 -0.21545,-0.99954 0.11772,-0.66635 0.33319,0.33319 1.10364,0.19255 1.71215,-0.31242 1.54459,-1.28189 2.81485,-0.25939 2.26932,1.82659 -0.63258,2.41907 -4.94522,5.41286 -10.19671,7.07849 -5.05232,1.60246 -18.32015,1.82744 -21.35833,0.36216 z m 10.01354,-16.46767 c 0,-1.27185 0.4403,-2.08598 1.06527,-1.96973 1.62169,0.30165 6.73571,-1.05079 8.09116,-2.13979 0.66158,-0.53151 2.3804,-2.02103 3.81955,-3.31 1.43918,-1.28898 3.13507,-2.3436 3.76861,-2.3436 0.63357,0 1.15196,-0.32195 1.15196,-0.71541 0,-1.15574 5.15633,-3.19203 17.68349,-6.98338 1.99205,-0.60292 3.62192,-1.59801 3.62192,-2.21134 0,-0.63836 0.54352,-0.90663 1.27113,-0.62742 0.72577,0.27852 1.49617,-0.0985 1.79559,-0.87895 0.67395,-1.75621 3.75101,-1.78934 3.75101,-0.0405 0,1.83208 -4.93404,6.17156 -8.06708,7.09502 -13.40864,3.95218 -15.16035,4.69611 -20.63293,8.7627 -6.35133,4.71971 -12.04696,7.53029 -15.25982,7.53029 -1.63852,0 -2.05986,-0.44345 -2.05986,-2.16791 z m -4.26108,0.46348 c 0,-0.46872 0.3835,-0.85222 0.85222,-0.85222 0.46872,0 0.85221,0.3835 0.85221,0.85222 0,0.46872 -0.38349,0.85221 -0.85221,0.85221 -0.46872,0 -0.85222,-0.38349 -0.85222,-0.85221 z m 73.18978,29.58778 c 0.0863,-6.40228 -0.11478,-7.56459 -1.39055,-8.04375 -1.58438,-0.59504 -5.10576,-4.12979 -6.72947,-6.75504 -0.78599,-1.27079 -1.19422,-1.37135 -2.08793,-0.51437 -0.87203,0.83619 -0.88018,1.06527 -0.0381,1.06527 0.59014,0 0.84559,0.36789 0.56769,0.81754 -0.27791,0.44965 -0.15367,1.50427 0.27638,2.3436 0.42989,0.83933 1.18304,2.4848 1.67362,3.65659 0.49061,1.1718 2.06934,4.67811 3.50831,7.79179 1.43897,3.11368 2.66168,7.1404 2.71713,8.94827 0.0991,3.22788 0.11265,3.24101 0.75139,0.73038 0.3578,-1.40616 0.69594,-5.92429 0.75139,-10.04028 z m 156.32051,6.8319 c -1.02657,-0.57898 -4.38217,-2.36453 -7.45689,-3.96787 -3.07474,-1.60334 -5.59043,-3.2332 -5.59043,-3.62192 0,-1.47553 -2.37814,-0.62925 -2.80358,0.99768 -0.35298,1.34975 -0.0266,1.70443 1.57055,1.70443 1.10895,0 2.91125,0.96522 4.00513,2.14493 1.18106,1.27369 3.53153,2.44727 5.78695,2.88936 5.55759,1.08937 6.61825,1.05472 4.48827,-0.14675 z m -21.45098,-4.36628 c 2.37513,-2.09251 3.95716,-6.82644 2.56818,-7.68486 -0.45207,-0.27942 -2.27997,-3.00039 -4.06195,-6.04666 -1.78199,-3.04625 -3.54378,-5.53864 -3.91511,-5.53864 -0.37133,0 -0.67514,-0.40909 -0.67514,-0.90907 0,-0.49999 -0.88466,-2.12985 -1.96588,-3.62192 -1.08122,-1.49207 -2.67162,-4.24684 -3.53425,-6.12171 -2.55811,-5.55997 -2.71641,-5.89137 -3.66418,-7.66995 -0.49953,-0.93744 -3.0998,-6.3064 -5.77837,-11.93103 -2.67855,-5.62463 -5.17064,-10.83596 -5.53795,-11.58077 -0.36733,-0.74478 -0.93972,-3.53022 -1.27204,-6.18983 -0.56978,-4.56061 -2.10939,-7.61266 -2.10939,-4.18164 0,3.55515 -5.3597,5.17652 -6.3892,1.9328 -0.66465,-2.09411 0.10227,-3.48634 1.60326,-2.91037 0.61871,0.23755 1.71386,-0.46707 2.43361,-1.56558 1.39644,-2.1312 0.98125,-3.21275 -2.19073,-5.70678 -1.46602,-1.15271 -1.52576,-1.04274 -0.98873,1.81988 0.37186,1.98217 0.22104,3.26332 -0.43146,3.6666 -1.57383,0.9727 -2.77061,-0.85946 -2.88249,-4.4128 -0.12544,-3.98294 -1.09821,-4.33304 -12.03356,-4.33088 -7.0444,0.002 -7.35719,0.0695 -3.83498,0.83442 9.47039,2.05685 14.48768,6.48534 14.48768,12.78751 0,1.77056 0.30645,3.21922 0.68103,3.21922 0.37455,0 1.16852,1.34821 1.76438,2.99602 0.59583,1.64779 1.43548,2.77836 1.86585,2.51236 0.43039,-0.26605 0.54419,0.13742 0.253,0.89648 -0.29127,0.75903 -0.15047,2.21707 0.31311,3.24007 0.46347,1.02301 2.13059,5.88672 3.70469,10.80826 1.57412,4.92155 3.1658,9.37401 3.53707,9.89434 0.37125,0.52033 1.63133,0.76324 2.80015,0.5398 1.55652,-0.29753 2.12513,-0.0375 2.12513,0.97142 0,0.75773 0.29628,1.37769 0.65842,1.37769 1.09038,0 3.83646,5.74996 3.2214,6.74519 -1.0307,1.66765 -3.04438,0.96977 -4.09381,-1.41884 -0.56629,-1.28897 -1.26197,-2.53534 -1.54594,-2.7697 -0.28395,-0.23436 -0.9862,-1.1931 -1.56054,-2.13054 -0.93411,-1.52456 -0.98903,-1.43465 -0.52055,0.85222 0.28805,1.40615 0.81246,4.09828 1.1653,5.98247 0.62784,3.35265 2.7913,6.57014 6.81467,10.13469 1.10463,0.97864 2.39672,2.73812 2.8713,3.90992 0.50396,1.24432 1.0274,1.68744 1.25841,1.06527 0.76151,-2.05091 3.82429,-1.03582 7.07124,2.3436 3.30327,3.43802 5.11329,4.27841 5.11329,2.37403 0,-0.66499 0.49852,-0.53634 1.39487,0.36001 2.02377,2.0238 0.86987,4.08369 -2.28762,4.08369 -2.00904,0 -3.58804,-0.93736 -6.52302,-3.87237 -2.1298,-2.12977 -4.04361,-3.70109 -4.25288,-3.49179 -0.80971,0.80971 3.25312,8.21637 4.50697,8.21637 0.72487,0 1.89318,0.57525 2.59625,1.27833 1.82843,1.82845 4.63952,1.53457 7.24059,-0.75693 z m -14.60619,0.80724 c 0,-0.20667 -0.38349,-0.61285 -0.85221,-0.90253 -0.46872,-0.28967 -0.85222,-0.12064 -0.85222,0.3758 0,0.49639 0.3835,0.90253 0.85222,0.90253 0.46872,0 0.85221,-0.16912 0.85221,-0.3758 z m -0.85221,-2.44746 c 0,-1.09316 -4.38356,-9.00071 -5.50588,-9.93219 -1.28626,-1.06748 -1.31481,-0.95504 -0.33521,1.32017 0.58893,1.36786 1.76062,3.50495 2.60373,4.74911 0.84311,1.24415 1.53293,2.68227 1.53293,3.19581 0,0.51354 0.38349,0.93371 0.85221,0.93371 0.46872,0 0.85222,-0.12011 0.85222,-0.26661 z M 35.473886,292.20315 c -0.543341,-0.65469 -1.740785,-0.99344 -2.660992,-0.7528 -2.607596,0.68188 -1.966356,1.94316 0.987905,1.94316 2.181301,0 2.482906,-0.21465 1.673087,-1.19036 z m -6.038512,-0.0376 c 0,-0.20666 -0.383497,-0.61285 -0.852216,-0.90252 -0.468719,-0.28968 -0.852217,-0.12065 -0.852217,0.3758 0,0.49639 0.383498,0.90252 0.852217,0.90252 0.468719,0 0.852216,-0.16911 0.852216,-0.3758 z m 204.199176,-9.76597 c 2.76097,-1.3595 6.37362,-3.06319 8.02812,-3.78592 1.6545,-0.72276 4.84455,-3.25366 7.08903,-5.62423 2.24447,-2.37057 4.59792,-4.31014 5.22992,-4.31014 0.63199,0 1.28948,-0.42121 1.46107,-0.93602 0.17151,-0.51482 2.10862,-1.13857 4.30444,-1.38605 3.52919,-0.3978 3.89676,-0.62878 3.16788,-1.9907 -0.45352,-0.84737 -0.82455,-6.31258 -0.82455,-12.14488 0,-6.75949 -0.50853,-12.85601 -1.40256,-16.81498 -1.15678,-5.12227 -1.23441,-7.11513 -0.44302,-11.37067 0.70052,-3.76672 0.70529,-5.39693 0.0186,-6.03785 -0.65173,-0.60749 -1.06218,-0.54978 -1.33247,0.18722 -0.21491,0.5859 -1.32317,1.06527 -2.46299,1.06527 -2.18383,0 -11.50739,2.24296 -14.40379,3.46506 -2.50295,1.05574 -10.78296,3.35268 -12.08661,3.35268 -2.07951,0 -1.16399,-3.0626 1.21995,-4.08108 2.13416,-0.91179 1.9777,-0.96546 -1.7508,-0.60057 -3.21347,0.31446 -4.77193,1.04644 -7.24384,3.40231 -2.44383,2.32913 -2.88824,3.16803 -1.98358,3.74435 1.20575,0.76811 4.37354,-1.63456 4.37354,-3.31723 0,-1.33122 0.99662,-1.01366 3.14087,1.00077 2.02878,1.90595 2.62984,4.11253 1.12022,4.11253 -0.46872,0 -0.85222,0.40909 -0.85222,0.90907 0,0.50001 -0.90415,2.12988 -2.00921,3.62192 -2.96619,4.00499 -4.80852,8.19649 -4.80852,10.93982 0,1.8576 -0.39921,2.42573 -1.70443,2.42573 -1.40238,0 -1.70353,-0.5664 -1.69919,-3.19581 0.003,-1.7577 0.49655,-4.15455 1.09707,-5.32635 0.93264,-1.81994 0.88124,-2.33646 -0.35258,-3.54312 -1.3449,-1.31531 -1.47838,-1.31531 -1.93794,0 -0.27146,0.7769 -1.50773,3.1128 -2.74728,5.19085 -2.06798,3.46692 -2.21028,4.29208 -1.72664,10.01354 0.43465,5.14185 0.30866,6.23527 -0.7185,6.23527 -1.67778,0 -3.84597,-4.38612 -3.84597,-7.78017 0,-3.97341 1.59361,-8.14 5.30206,-13.86234 1.79083,-2.76337 3.15184,-5.12853 3.02444,-5.25591 -0.43866,-0.43868 -5.76986,4.71805 -5.76986,5.581 0,0.47533 -0.37897,0.86423 -0.84214,0.86423 -0.46318,0 -1.08746,1.53399 -1.38725,3.40886 -0.2998,1.87488 -0.8796,3.40887 -1.28839,3.40887 -0.85171,0 -0.98434,9.93311 -0.19628,14.70073 0.64643,3.91104 2.88704,4.27142 6.61634,1.06423 1.36187,-1.17123 2.70411,-2.14116 2.98276,-2.15544 0.27862,-0.0133 2.99218,-2.30506 6.03015,-5.09066 4.33837,-3.97801 6.25833,-5.15676 8.94827,-5.4937 1.88359,-0.23596 7.06794,-0.8833 11.52077,-1.43855 4.45283,-0.55527 8.94209,-1.55596 9.9761,-2.22375 3.12595,-2.0189 4.96967,0.30083 2.33395,2.93653 -1.67476,1.67476 -11.93971,3.66381 -18.91473,3.66511 -2.98206,5.6e-4 -5.32635,0.3761 -5.32635,0.85323 0,0.46872 -0.50132,0.85222 -1.11404,0.85222 -1.22402,0 -5.37626,3.21714 -9.46591,7.33417 -1.44616,1.45583 -3.45353,3.07845 -4.46077,3.60581 -1.55172,0.81243 -1.72973,1.38424 -1.16577,3.74464 0.96313,4.03125 2.33126,7.22424 3.3707,7.86662 1.11089,0.68659 1.19366,3.58831 0.12117,4.2511 -0.43093,0.26634 -1.38967,-0.12198 -2.13054,-0.86279 -1.84174,-1.84172 -1.71333,-0.18536 0.14435,1.86212 5.16387,5.69144 10.44721,6.57205 17.77683,2.96294 z m -7.05462,-7.91166 c -1.66792,-0.80668 -6.24808,-8.24594 -6.24808,-10.14835 0,-1.85547 3.51009,-0.62873 4.49241,1.57002 1.36197,3.04864 3.3038,5.32635 4.5409,5.32635 0.54153,0 1.48624,0.60449 2.09941,1.34328 0.92391,1.11323 0.90529,1.47585 -0.10866,2.11749 -1.52347,0.96399 -2.43324,0.92423 -4.77595,-0.20879 z m -142.766754,5.48324 c 0.227169,-3.14029 0.03542,-3.62192 -1.441098,-3.62192 -0.936719,0 -1.94015,0.3835 -2.229824,0.85222 -0.2897,0.46871 -1.243676,0.85221 -2.119968,0.85221 -0.876291,0 -2.100047,0.49557 -2.719422,1.10125 -1.800734,1.76097 -6.326615,3.33028 -9.604426,3.33028 -1.66465,0 -3.026625,0.35694 -3.026625,0.79322 0,0.45935 4.394219,0.69251 10.439656,0.55394 l 10.439651,-0.23915 z m -26.254661,1.49138 c -0.703079,-0.45437 -1.661822,-0.82612 -2.130541,-0.82612 -0.468719,0 -0.276971,0.37175 0.426108,0.82612 0.703078,0.45436 1.661822,0.82611 2.130541,0.82611 0.468719,0 0.27697,-0.37175 -0.426108,-0.82611 z m 55.535645,-6.91459 c 2.03137,-1.92817 4.76751,-4.17933 6.08035,-5.00257 2.32003,-1.45484 2.33478,-1.51047 0.52659,-1.98332 -1.40661,-0.36786 -1.7435,-0.93339 -1.38123,-2.31874 0.41221,-1.57623 0.19974,-1.76207 -1.52131,-1.33013 -1.2228,0.30691 -2.13704,0.0924 -2.35174,-0.5517 -0.64894,-1.94681 -4.9031,0.71221 -4.9031,3.06465 0,1.12444 -0.58246,2.52783 -1.29433,3.11863 -1.05518,0.87571 -1.57929,0.81626 -2.83679,-0.32176 -0.84838,-0.76774 -1.99168,-1.39593 -2.54067,-1.39593 -0.54898,0 -0.99816,-0.57525 -0.99816,-1.27833 0,-1.5537 -0.33651,-1.57948 -2.781286,-0.21305 -2.91426,1.62885 -4.558878,4.52202 -2.015811,3.54615 1.516519,-0.58193 3.944887,1.86289 3.944887,3.97162 0,1.23318 0.59767,1.64355 2.39374,1.64355 1.31659,0 3.13821,0.56305 4.04803,1.25122 0.90985,0.68816 1.71799,1.26341 1.79586,1.27832 0.0778,0.016 1.80363,-1.55047 3.83497,-3.47861 z m 7.43487,1.31345 c 1.22322,-1.20575 3.5449,-3.12324 5.15932,-4.26108 1.61439,-1.13785 2.45822,-2.06881 1.87514,-2.06881 -1.83935,0 -6.06799,2.5408 -9.29603,5.58558 -2.4404,2.30184 -2.77282,2.93658 -1.53788,2.93658 0.86649,0 2.57625,-0.98652 3.79945,-2.19227 z m 90.84238,-2.90137 c 0.28301,-0.45791 0.0991,-2.3754 -0.40867,-4.26108 -1.12191,-4.16654 -3.41413,-4.71431 -3.41413,-0.81584 0,4.26436 2.37534,7.41897 3.8228,5.07692 z m -86.06169,-6.83739 c 0.28968,-0.46872 -0.26285,-0.85221 -1.22804,-0.85221 -0.96511,0 -1.75471,0.38349 -1.75471,0.85221 0,0.46872 0.55261,0.85222 1.22801,0.85222 0.67541,0 1.46504,-0.3835 1.75474,-0.85222 z m 145.3029,-4.70777 c 0,-0.22318 -1.00345,-0.40553 -2.22993,-0.40553 -1.89663,0 -2.15312,0.28662 -1.71607,1.91749 0.28262,1.05462 0.52055,2.49273 0.5287,3.19581 0.008,0.70308 0.78036,0.024 1.71607,-1.51196 0.93568,-1.53468 1.70123,-2.9728 1.70123,-3.19581 z m 8.99403,-4.4788 c -0.17817,-0.17817 -1.34815,0.34706 -2.59993,1.16724 l -2.27592,1.49125 1.98894,1.06865 c 1.81722,0.97635 2.0417,0.87557 2.59993,-1.16727 0.33603,-1.22975 0.46517,-2.38168 0.28698,-2.55987 z m -76.98862,-8.04072 c 0.20666,-6.30317 0.066,-7.24937 -0.92892,-6.25417 -0.93698,0.93728 -1.02998,2.85543 -0.46326,9.55734 0.75951,8.98207 1.00897,8.39018 1.39218,-3.30317 z m 168.39634,84.82243 c 0.61519,-0.24607 1.35023,-0.21598 1.6334,0.0671 0.2832,0.2832 -0.22024,0.48461 -1.11853,0.4476 -0.99278,-0.041 -1.1947,-0.24289 -0.51487,-0.51488 z M 23.008704,295.89357 c -0.917225,-1.48408 0.127566,-1.79839 1.296274,-0.39 0.672186,0.80993 0.736821,1.29891 0.171775,1.29891 -0.498467,0 -1.159068,-0.40901 -1.468023,-0.90891 z M 337.51161,166.71831 c -2.3436,-0.18749 -5.02808,-0.71541 -5.96552,-1.1731 -0.93743,-0.45767 -6.59346,-1.14919 -12.56896,-1.53671 -9.79756,-0.63538 -11.0835,-0.90758 -13.09412,-2.77175 -2.1788,-2.02013 -2.21552,-2.23214 -1.61205,-9.31105 0.33964,-3.98411 0.67714,-8.20259 0.75001,-9.37438 0.073,-1.1718 0.40706,-2.56161 0.7426,-3.08849 1.34799,-2.11664 -8.43007,-14.18708 -15.97653,-19.72204 -7.85573,-5.76183 -10.65225,-8.08319 -10.65225,-8.8423 0,-0.58819 -1.14786,-0.72452 -3.19581,-0.37956 -1.7577,0.29607 -4.15456,0.66161 -5.32636,0.81232 -1.17179,0.15074 -2.58016,0.33394 -3.12971,0.40715 -0.54954,0.0732 -1.4318,1.44397 -1.96055,3.04609 -0.52875,1.60214 -1.99661,3.58056 -3.26191,4.3965 -1.26527,0.81594 -7.57376,6.8438 -14.0188,13.39522 -11.68133,11.87411 -16.35979,15.29536 -22.4881,16.44505 -1.58614,0.29756 -3.09403,0.88104 -3.35087,1.29662 -0.64118,1.03742 -6.95893,0.95723 -7.61024,-0.0967 -0.2897,-0.46872 -1.21336,-0.85222 -2.05261,-0.85222 -0.83922,0 -3.17065,-1.10463 -5.18092,-2.45475 l -3.65502,-2.45476 -4.9476,2.45476 c -2.72115,1.35012 -5.90519,2.45475 -7.0756,2.45475 -1.17042,0 -2.36506,0.3835 -2.65474,0.85222 -0.68664,1.11097 -12.09662,1.11097 -12.78324,0 -0.2897,-0.46872 -1.58624,-0.85222 -2.88127,-0.85222 -2.44,0 -9.60645,-2.03842 -12.28789,-3.49517 -3.95817,-2.15033 -11.36127,-2.80409 -37.66826,-3.32639 -28.49492,-0.56574 -34.390686,-1.1791 -40.437508,-4.20686 -1.740865,-0.87169 -5.995768,-1.73431 -10.020786,-2.03158 -3.847384,-0.28416 -7.682358,-0.87086 -8.522169,-1.30378 -0.839806,-0.43293 -3.060895,-1.50078 -4.935771,-2.373 -1.874876,-0.87224 -3.651934,-1.91988 -3.949011,-2.32814 -0.297051,-0.40822 -4.447132,-0.58532 -9.222393,-0.39352 -4.775235,0.19175 -7.98367,0.0735 -7.129829,-0.26312 1.237179,-0.48757 1.086709,-0.62401 -0.740842,-0.67173 -1.261307,-0.033 -2.504131,-0.40102 -2.761794,-0.81794 -0.925773,-1.49793 -8.761663,-2.3253 -12.66263,-1.33702 -4.830123,1.22367 -17.6492415,-4.98544 -17.6492415,-8.54866 0,-0.6299 -0.4630731,-1.29963 -1.0290247,-1.48827 -0.6860874,-0.22876 -0.4194768,-0.99725 0.7999915,-2.3062 1.5025108,-1.61274 2.363995,-1.86284 4.8258347,-1.40099 2.702618,0.50701 3.122974,0.31825 4.281775,-1.92263 0.706727,-1.36666 1.837405,-2.69684 2.512627,-2.95594 1.688241,-0.64782 5.031113,0.24022 6.162643,1.63727 0.773173,0.95456 1.715139,0.77908 5.424916,-1.01057 3.488841,-1.68307 5.654296,-2.13267 9.717052,-2.01754 2.875298,0.0815 7.172918,0.19974 9.550256,0.26259 3.09477,0.082 4.745886,-0.30914 5.813341,-1.37692 0.819965,-0.82026 1.883638,-1.49138 2.363702,-1.49138 0.480064,0 1.890802,-0.71932 3.134958,-1.59846 1.244156,-0.87917 3.535526,-1.87435 5.091913,-2.21148 1.995443,-0.432231 2.68936,-0.979114 2.353374,-1.85466 -0.301099,-0.784598 -0.118778,-1.020582 0.495271,-0.641079 0.534446,0.330313 1.400591,0.06258 1.92473,-0.594901 1.393374,-1.747869 4.472379,-3.326014 6.489122,-3.326014 0.967079,0 2.870611,-0.575193 4.230083,-1.278191 1.359445,-0.702999 4.434801,-1.699187 6.834083,-2.213739 2.399282,-0.514552 4.568705,-1.473376 4.820935,-2.130674 0.600466,-1.564776 3.607485,-1.529569 5.367045,0.06285 0.764518,0.691866 3.479207,1.386103 6.032627,1.542751 5.52535,0.338969 8.27327,1.664272 9.35614,4.512406 0.76265,2.005931 0.91685,2.045186 3.58112,0.911046 5.21282,-2.218985 9.60088,-4.387876 10.03652,-4.960805 0.23916,-0.314361 1.48907,-0.83621 2.77778,-1.15968 1.28868,-0.323443 2.55385,-0.929075 2.81146,-1.345889 0.25753,-0.416787 1.57122,-0.757807 2.91921,-0.757807 1.34797,0 3.44029,-0.376147 4.64956,-0.835918 1.20927,-0.45977 7.65781,-0.900233 14.3301,-0.978797 12.23375,-0.144078 16.50986,0.655621 28.32355,5.296898 6.91155,2.715374 20.8793,4.347608 20.8793,2.439895 0,-1.70595 6.21415,-6.578924 9.70397,-7.6096 3.84667,-1.136057 7.83272,-3.839314 12.52356,-8.493215 5.16928,-5.128531 17.01685,-14.533485 18.30809,-14.533485 0.67263,0 1.22298,-0.383497 1.22298,-0.852216 0,-0.468719 0.57525,-0.852217 1.27832,-0.852217 0.70308,0 1.27833,-0.383497 1.27833,-0.852216 0,-0.468719 0.54784,-0.852216 1.21744,-0.852216 0.66961,0 1.74042,-0.479372 2.37958,-1.065271 3.42945,-3.143586 12.65608,-7.381046 17.5244,-8.048331 2.14673,-0.294255 6.40368,-1.815541 9.45989,-3.380636 4.50929,-2.30924 6.53826,-2.845657 10.7636,-2.845657 9.89876,0 15.74408,4.807246 19.23551,15.819399 1.10524,3.486018 2.30796,6.338227 2.67268,6.338227 0.36472,0 0.66313,0.337025 0.66313,0.748965 0,1.501712 6.0945,10.749245 6.93409,10.52149 0.50118,-0.135822 0.63418,0.490637 0.31654,1.491378 -0.31649,0.997174 -0.16378,1.725845 0.3619,1.725845 0.50031,0 0.90964,0.421421 0.90964,0.936479 0,1.02282 2.60626,6.899012 3.36447,7.585685 0.25886,0.23436 1.2375,1.948806 2.17493,3.809913 0.93744,1.861081 4.6106,7.703317 8.16259,12.982767 6.52446,9.69753 12.4304,15.35857 14.99591,14.3741 0.7792,-0.29902 1.13542,-0.078 0.91933,0.57008 -0.45228,1.35689 1.00426,2.80291 3.65894,3.63254 1.14996,0.35937 2.28256,0.88935 2.51692,1.17771 1.53364,1.88705 11.50153,5.21149 15.62597,5.21149 4.33301,0 9.60088,4.65944 8.81373,7.79576 -0.73898,2.9443 -3.03139,5.37311 -6.99758,7.41399 -4.23993,2.18175 -6.02599,2.36673 -14.3106,1.48213 -4.6746,-0.49913 -6.95558,-0.42547 -7.62734,0.24635 -0.70968,0.70968 0.57858,0.97453 4.96453,1.02066 11.62227,0.12224 14.497,5.20683 6.84969,12.11516 -5.76149,5.20478 -13.01092,6.96647 -24.78884,6.02403 z m -10.88352,-5.9331 c -0.28318,-0.28318 -1.01821,-0.31346 -1.63341,-0.0674 -0.67983,0.27204 -0.47791,0.47399 0.51487,0.51487 0.8984,0.037 1.40174,-0.16432 1.11854,-0.4476 z m -9.14357,-2.87429 c -1.17179,-0.92743 -2.77028,-1.69477 -3.55222,-1.70518 -2.61969,-0.0349 -4.11772,-1.0396 -4.11772,-2.76163 0,-1.47572 0.38808,-1.63527 2.85274,-1.17292 1.56904,0.29436 4.73289,1.43252 7.03078,2.52925 5.58045,2.66336 15.48078,4.7952 22.26916,4.7952 6.10494,0 15.16866,-2.03211 16.93298,-3.79643 2.48959,-2.48959 1.76076,-3.30554 -2.77034,-3.10148 -2.41534,0.10865 -5.09982,-0.18004 -5.96551,-0.64159 -0.86567,-0.46164 -2.91621,-1.42579 -4.55672,-2.14255 -1.64052,-0.71674 -5.33898,-3.7211 -8.21878,-6.67632 -2.87983,-2.95522 -6.3313,-6.22991 -7.66995,-7.27707 -2.64371,-2.06804 -2.351,-2.19259 -5.69901,2.42562 -2.86691,3.9546 -12.50092,7.82159 -12.50092,5.01771 0,-1.68778 -2.36948,-0.80883 -2.87173,1.06527 -0.64622,2.41138 -0.69429,12.02123 -0.0684,13.65254 0.32935,0.85831 2.04063,1.25955 5.75246,1.34876 l 5.28366,0.12704 z m 22.45434,0.24208 c -1.55463,-0.30381 -6.37424,-4.95984 -13.18659,-12.73901 -1.64459,-1.87799 -2.19025,-5.4193 -0.83504,-5.4193 0.85432,0 8.61162,8.52624 8.61162,9.46525 0,0.33042 1.82161,1.81245 4.04803,3.29342 2.99719,1.99365 4.66482,2.57143 6.42406,2.22564 1.68968,-0.33207 2.52562,-0.0772 2.89389,0.88253 0.91951,2.39621 -2.45154,3.36713 -7.95597,2.29147 z M 187.52152,135.94589 c 0,-12.0955 0.64872,-14.89506 5.73731,-24.75935 1.76603,-3.42344 3.21096,-6.74708 3.21096,-7.38587 0,-0.63879 0.33279,-1.28927 0.73957,-1.44552 0.40674,-0.15633 0.99339,-1.10138 1.30359,-2.10029 0.5189,-1.670848 0.10147,-1.89839 -5.2137,-2.842726 -6.60369,-1.173235 -17.99718,-4.556934 -22.39595,-6.651255 -2.4502,-1.166552 -5.43243,-1.392602 -16.70235,-1.266048 -7.54576,0.08469 -15.59899,0.575273 -17.89606,1.090065 -3.97714,0.891312 -14.77048,5.649582 -15.6909,6.917387 -0.23916,0.329275 -1.55573,0.880073 -2.92596,1.223969 -1.37023,0.343896 -3.47563,1.138934 -4.67866,1.766748 -1.20304,0.62779 -2.53713,1.14384 -2.96468,1.14671 -0.42754,0.003 -2.49545,1.01214 -4.59539,2.24277 l -3.81801,2.23752 5.02147,1.7235 c 2.76182,0.94793 5.21325,1.98237 5.44761,2.29878 0.23436,0.31641 1.05664,0.80734 1.82731,1.09094 0.77067,0.2836 2.49641,1.95152 3.83498,3.70645 2.10401,2.75844 2.47486,4.09461 2.73705,9.86182 l 0.30328,6.67104 4.38391,0.15633 c 2.41113,0.086 6.10964,0.19575 8.21888,0.24368 5.07535,0.11558 12.99337,1.3284 14.06157,2.15363 0.46872,0.36209 2.18186,0.94316 3.80698,1.29124 1.62513,0.34811 3.54261,0.93962 4.26109,1.31455 1.08966,0.56858 3.026,1.35361 5.14128,2.08438 0.23436,0.081 1.00136,0.34755 1.70444,0.5924 4.88826,1.70252 7.66454,2.39036 9.64794,2.39036 1.25569,0 2.28309,0.16032 2.28309,0.35639 0,0.19601 0.23276,0.96303 0.51727,1.70443 0.39186,1.02117 -0.0732,1.37907 -1.91749,1.47604 -3.52637,0.18536 4.02904,1.2877 9.92238,1.44765 l 4.68719,0.1273 z m -14.74334,-7.20045 c -0.56247,-0.56246 -1.03486,-1.61708 -1.04977,-2.34359 -0.0354,-1.72356 -2.10945,-4.4397 -2.83567,-3.71348 -1.17936,1.17933 -3.04716,-2.88108 -3.01562,-6.55573 0.0266,-2.99639 0.76643,-4.95306 3.3875,-8.94827 1.84505,-2.81232 3.94291,-6.38475 4.66195,-7.938799 1.56064,-3.373019 4.36497,-3.489613 3.98749,-0.165649 -0.2293,2.019888 -4.91074,10.126858 -6.48007,11.221928 -1.21755,0.84961 -1.85714,10.48567 -0.64632,9.73735 0.53231,-0.32898 0.96785,-1.20522 0.96785,-1.94716 0,-0.74196 1.46861,-3.69142 3.26356,-6.55439 1.79498,-2.86294 3.80608,-6.45176 4.46913,-7.9751 1.20932,-2.77841 2.76549,-3.54636 3.7987,-1.87463 0.66579,1.07731 -1.35803,5.54667 -5.36167,11.84053 -3.02779,4.75979 -3.55661,7.82809 -2.32151,13.47005 0.64734,2.95714 -0.75094,3.82169 -2.82555,1.74705 z m -24.78032,-5.53874 c -2.87482,-3.10817 -3.05991,-11.20055 -0.392,-17.1374 1.50787,-3.35542 3.36186,-3.14492 3.04785,0.34605 -0.12251,1.3604 -0.26312,5.83425 -0.31303,9.94185 -0.0498,4.1076 -0.33317,7.61468 -0.62971,7.79354 -0.29657,0.17897 -1.06745,-0.24607 -1.71311,-0.94404 z m -14.59208,-4.90221 c -4.99194,-2.83951 -9.39909,-4.7285 -11.03207,-4.7285 -0.96314,0 -1.75118,-0.30419 -1.75118,-0.67597 0,-0.3718 -1.24636,-1.04292 -2.7697,-1.49138 -1.97269,-0.58075 -2.85255,-1.40141 -3.05764,-2.85186 -0.31117,-2.20093 -0.26313,-2.20117 5.82734,-0.0285 4.37211,1.55977 12.29035,5.1366 12.78325,5.77449 0.23436,0.30331 1.1931,0.97608 2.13054,1.49502 1.98092,1.09665 2.78278,3.74952 1.12775,3.73109 -0.62025,-0.008 -2.08649,-0.55791 -3.25829,-1.22448 z m 91.6975,27.22961 c 1.59418,-0.70308 4.18643,-1.84577 5.76055,-2.53934 2.64257,-1.16431 22.89248,-20.77383 24.59635,-23.81851 0.41221,-0.73653 1.30565,-1.33918 1.98543,-1.33918 1.8242,0 1.5259,-0.71831 -1.27822,-3.0778 -2.82555,-2.37753 -5.14952,-6.51328 -5.16816,-9.1972 -0.0133,-2.09608 -2.39774,-9.240906 -3.2932,-9.873064 -0.33942,-0.239686 -1.93962,-2.353156 -3.55601,-4.696751 -1.61639,-2.343595 -3.22649,-4.388914 -3.57803,-4.545136 -0.35154,-0.156328 -0.63916,-0.76846 -0.63916,-1.360457 0,-0.591997 -0.5949,-2.268866 -1.32198,-3.726343 -0.7271,-1.457476 -1.38213,-4.15823 -1.45563,-6.001654 -0.17444,-4.373627 -1.05721,-4.014551 -8.97773,3.651694 -4.28428,4.146752 -8.51657,7.208153 -13.61922,9.851355 -6.02581,3.121429 -7.75112,4.469236 -9.27286,7.24384 -1.02828,1.874876 -2.28197,3.872071 -2.78597,4.438186 -0.50401,0.56611 -0.91635,1.34368 -0.91635,1.72792 0,0.38424 -1.19353,2.98904 -2.65228,5.78844 -2.51228,4.82112 -2.62358,5.43959 -2.10873,11.71691 0.35074,4.27631 1.29156,8.2624 2.65225,11.23724 1.15982,2.53559 2.10876,4.90006 2.10876,5.25439 0,0.35431 1.57373,2.11172 3.49718,3.90531 6.58856,6.14374 13.84297,8.08575 20.02301,5.36015 z m -2.21478,-10.82296 c -5.82679,-3.6061 -11.60143,-9.08425 -13.53138,-12.83669 -2.30597,-4.48357 -2.1775,-7.87235 0.29843,-7.87235 1.31367,0 1.81661,0.79522 2.30226,3.64019 0.62606,3.66727 4.16257,7.93192 9.22626,11.12584 4.6552,2.93626 8.5052,6.30344 8.04979,7.04032 -0.78896,1.27659 -3.17679,0.86367 -6.34536,-1.09731 z m -22.15763,-24.05863 c 0,-2.14183 0.3835,-3.89425 0.85222,-3.89425 0.46872,0 0.85222,-0.4214 0.85222,-0.93645 0,-1.34043 2.71891,-6.955235 4.00914,-8.279207 1.24392,-1.27646 2.80859,-0.641559 2.80859,1.139653 0,0.65879 -1.02378,3.031524 -2.27502,5.272744 -1.25127,2.2412 -2.32021,5.41866 -2.37547,7.06101 -0.0804,2.39356 -0.47458,3.04012 -1.98607,3.25842 -1.71066,0.24715 -1.88561,-0.0889 -1.88561,-3.62192 z m 16.65849,2.98865 c -0.47607,-0.77027 3.79252,-4.32625 5.19325,-4.32625 1.26711,0 12.56484,-8.01907 15.30831,-10.865761 2.8235,-2.929734 4.97516,-3.533875 5.71544,-1.60475 0.75493,1.967314 -9.32847,10.488521 -17.53006,14.814101 -5.3552,2.82438 -7.81917,3.38676 -8.68694,1.98266 z m -3.5609,-4.7363 c -1.41165,-3.67867 1.6423,-14.077631 4.13426,-14.077631 0.81818,0 0.75016,0.904441 -0.79611,10.584581 -0.68206,4.27003 -2.36444,6.0305 -3.33815,3.49305 z m -18.93876,33.80622 c -4.3357,-0.31127 -5.30233,0.26019 -3.12856,1.84974 1.31518,0.9617 1.97088,0.92705 4.19887,-0.22185 l 2.64032,-1.36149 z m 149.86575,-0.48643 c 0,-0.17976 -0.767,-0.52731 -1.70443,-0.77245 -0.93744,-0.24528 -1.70444,-0.098 -1.70444,0.32672 0,0.42485 0.767,0.77242 1.70444,0.77242 0.93743,0 1.70443,-0.147 1.70443,-0.32669 z m 24.93284,-1.59079 c 1.04492,-0.5859 2.78912,-1.71432 3.87596,-2.50757 l 1.9761,-1.44232 -2.56687,-1.32738 c -1.4118,-0.73009 -3.81948,-1.32741 -5.35043,-1.32741 -3.30005,0 -9.2629,-2.11315 -13.68934,-4.85129 -1.74837,-1.08154 -3.56998,-1.96644 -4.04802,-1.96644 -0.47805,0 -0.86916,-0.3835 -0.86916,-0.85221 0,-0.46872 -0.51559,-0.85222 -1.14578,-0.85222 -0.63016,0 -2.22178,-0.92458 -3.53691,-2.05464 -2.18306,-1.87584 -4.69169,-2.14583 -4.69169,-0.50491 0,0.3668 -1.31231,2.14167 -2.91626,3.94416 -2.52527,2.83783 -3.38138,3.26503 -6.38555,3.18625 -1.90808,-0.0501 -3.98667,-0.52036 -4.61904,-1.04519 -0.63237,-0.52483 -1.39167,-0.71232 -1.68733,-0.41665 -0.99057,0.99057 0.34685,2.00417 2.66219,2.01759 1.44733,0.008 3.70794,1.26099 6.12826,3.39555 2.63561,2.3245 4.63454,3.38572 6.39162,3.39334 3.05171,0.0133 13.95547,2.39044 15.76601,3.43728 1.96377,1.13542 12.56888,0.97251 14.70624,-0.22584 z m -17.66099,-3.7802 c -1.39076,-0.75261 -2.99772,-1.79189 -3.57102,-2.30948 -0.5733,-0.51761 -2.39697,-1.89985 -4.05258,-3.07165 -2.95256,-2.08974 -4.11653,-5.11329 -1.96841,-5.11329 1.03773,0 4.82746,2.27107 5.72902,3.43326 1.32555,1.70869 8.6532,5.0889 11.03181,5.0889 2.19036,0 2.6754,0.2882 2.26874,1.34804 -0.28454,0.7414 -0.5173,1.5084 -0.5173,1.70444 0,0.93834 -6.68636,0.12863 -8.92026,-1.08022 z m -35.81505,2.29859 c -0.28638,-0.46336 -0.008,-0.64523 0.62145,-0.40419 0.62816,0.24102 2.27795,-0.75211 3.66618,-2.20705 2.50062,-2.62075 2.50821,-2.65854 0.81885,-4.06994 -0.93787,-0.78354 -3.0372,-3.15038 -4.6652,-5.25962 -1.62797,-2.10923 -3.18726,-4.02672 -3.46505,-4.26108 -1.79975,-1.5182 -7.63498,-10.2075 -7.63498,-11.36929 0,-0.77767 -0.37897,-1.41396 -0.84215,-1.41396 -0.46318,0 -1.08743,-1.53399 -1.38725,-3.40886 -0.2998,-1.87488 -0.87957,-3.40887 -1.28839,-3.40887 -0.4088,0 -0.7433,-0.65828 -0.7433,-1.46288 0,-1.8687 -2.349,-8.636787 -5.4525,-15.710236 -0.75089,-1.711357 -1.36523,-3.519361 -1.36523,-4.017774 0,-0.49844 -0.95874,-2.623522 -2.13054,-4.722397 -1.1718,-2.098903 -2.13054,-4.413496 -2.13054,-5.143552 0,-0.730057 -0.3835,-1.327381 -0.85222,-1.327381 -0.46872,0 -0.86524,-0.67112 -0.88113,-1.491378 -0.016,-0.820259 -0.69334,-2.893967 -1.50539,-4.608227 -1.35511,-2.860704 -1.61128,-3.018311 -3.11672,-1.917487 -0.90215,0.659642 -3.29269,1.199361 -5.31234,1.199361 -3.10396,0 -3.67209,-0.263654 -3.67209,-1.704433 0,-1.396596 0.57719,-1.709306 3.19581,-1.731517 1.75769,-0.01598 3.85532,-0.528081 4.66138,-1.140372 1.35452,-1.028891 1.29207,-1.252838 -0.82415,-2.955646 -1.25936,-1.013312 -2.95082,-1.842412 -3.75888,-1.842412 -0.80801,0 -1.70617,-0.383497 -1.99584,-0.852216 -0.28967,-0.468719 -2.39891,-0.852217 -4.68719,-0.852217 -2.28828,0 -4.39752,0.383498 -4.68719,0.852217 -0.28967,0.468719 -1.17518,0.85384 -1.96779,0.855785 -0.79259,0.002 -3.17078,0.881271 -5.28489,1.954025 -6.22691,3.159726 -6.24859,3.180472 -4.59199,4.391791 1.33013,0.972618 1.17662,1.269563 -1.64893,3.189553 -1.71357,1.164394 -2.92587,2.370706 -2.69399,2.6807 0.23196,0.309993 0.1811,0.387172 -0.11265,0.171508 -0.2938,-0.215717 -1.64337,0.181363 -2.99903,0.882524 -2.33225,1.206046 -2.5024,1.173129 -3.16271,-0.611839 -0.66915,-1.808855 -0.7561,-1.769653 -2.11429,0.952858 -1.51106,3.029017 -1.91438,8.986835 -0.66082,9.76158 0.41559,0.25673 1.0082,1.813463 1.31694,3.459146 0.30874,1.64571 0.92745,2.992185 1.37492,2.992185 0.44749,0 0.81363,0.400222 0.81363,0.889394 0,0.489199 0.94343,1.906888 2.09653,3.150458 2.68443,2.895032 6.0885,9.449775 6.81754,13.127599 0.31178,1.57279 0.96586,3.89723 1.45354,5.16539 0.8662,2.25256 0.93869,2.27336 3.14253,0.90156 3.01769,-1.87842 7.46696,-6.85454 9.03328,-10.102945 0.88891,-1.843504 1.1131,-3.9623 0.74667,-7.056352 -0.47444,-4.005896 -0.61415,-4.23903 -1.48533,-2.478724 -1.23963,2.50477 -9.72414,8.274861 -12.21733,8.308657 -3.1703,0.04288 -2.40621,-2.863767 1.08461,-4.126059 3.49491,-1.263757 8.75639,-6.36864 9.46211,-9.180501 0.26866,-1.070464 1.21736,-2.177599 2.10819,-2.460349 1.02296,-0.324668 1.61972,-1.29971 1.61972,-2.646451 0,-1.723901 0.36731,-2.080234 1.91749,-1.860069 1.63655,0.232495 1.87674,0.709364 1.6394,3.255094 -0.95768,10.27243 0.1984,17.802773 3.45411,22.498569 2.86787,4.13642 7.78484,9.03184 9.0724,9.03267 0.92324,6.1e-4 0.95435,-0.2586 0.14754,-1.23066 -1.18229,-1.42458 -0.89259,-4.88618 0.44576,-5.32603 0.50095,-0.16459 1.45908,0.76406 2.12919,2.0638 0.6701,1.29971 1.54621,2.60198 1.94688,2.89391 0.40068,0.29191 0.30542,1.32134 -0.21172,2.28757 -1.27292,2.37845 -1.3486,2.22359 2.25561,4.61483 5.72926,3.80112 11.66162,10.21402 16.38031,17.70719 1.62342,2.57795 3.34775,4.96892 3.83186,5.3133 1.31894,0.93821 4.89463,0.77983 4.29509,-0.19015 z M 272.4875,74.203592 c -1.88987,-1.889843 -1.04943,-2.386205 4.04033,-2.386205 2.78467,0 5.30004,-0.383498 5.58971,-0.852217 0.28968,-0.468719 1.46281,-0.852216 2.60696,-0.852216 2.62741,0 2.72611,2.007609 0.18616,3.786664 -2.27292,1.591993 -10.9235,1.803662 -12.42319,0.303974 z M 111.27132,137.22499 c 4.10569,-2.77998 5.81777,-6.22837 5.81777,-11.71797 0,-5.8004 -1.8291,-9.1695 -6.32444,-11.64927 -3.94139,-2.17419 -5.48201,-2.41361 -5.48201,-0.85187 0,0.62388 -0.94567,1.64041 -2.10146,2.25899 -1.15582,0.61858 -1.86356,1.50962 -1.57276,1.9801 0.29079,0.4705 0.14221,0.61655 -0.33032,0.32456 -0.47245,-0.29199 -2.161568,-0.0636 -3.753588,0.50749 -3.258076,1.16879 -3.412381,1.26592 -7.694289,4.84371 -3.318184,2.77255 -5.407579,3.27187 -6.103413,1.45857 -0.555646,-1.44805 7.572848,-8.14919 10.690069,-8.81293 1.288977,-0.27444 2.343595,-0.83456 2.343595,-1.24469 0,-0.41013 0.744357,-0.74569 1.654125,-0.74569 0.909768,0 1.891151,-0.3835 2.180851,-0.85222 0.28967,-0.46872 1.27105,-0.85221 2.18082,-0.85221 2.8851,0 1.78345,-1.46044 -1.50405,-1.99392 -2.017921,-0.32747 -4.065265,-0.0599 -5.670361,0.74071 -1.381656,0.68928 -3.389318,1.25321 -4.461433,1.25321 -1.072141,0 -2.216907,0.43298 -2.543972,0.96215 -0.418865,0.67778 -3.015621,0.77964 -8.785499,0.34467 -4.504975,-0.33964 -14.326823,-0.94056 -21.826332,-1.33543 -7.499504,-0.39484 -15.473107,-0.97331 -17.719097,-1.28548 -4.112157,-0.57157 -5.705748,-0.19255 -13.212203,3.14185 -3.224574,1.43242 -3.510839,1.77549 -2.404476,2.88188 0.690748,0.69075 1.640943,1.25587 2.111553,1.25587 0.470636,0 1.124952,0.86287 1.454068,1.91749 0.921911,2.95413 1.922653,3.21171 10.259913,2.64072 8.339576,-0.57114 13.21175,0.56015 18.646015,4.32948 1.399552,0.97075 3.483674,2.25837 4.63137,2.86134 5.000757,2.62725 16.614709,4.42918 18.217435,2.82648 1.624085,-1.62408 4.012554,-1.03904 4.860243,1.19049 0.543421,1.42933 1.462084,2.13054 2.791222,2.13054 1.089639,0 2.345513,0.36022 2.790796,0.80047 0.730882,0.72263 10.211338,2.22077 15.810398,2.49844 1.21968,0.0605 3.49193,-0.75291 5.04946,-1.80753 z m -13.445576,-4.61243 c -0.585899,-0.23649 -1.06527,-1.16487 -1.06527,-2.06324 0,-1.35652 0.621239,-1.63344 3.664536,-1.63344 2.01549,0 4.0913,-0.42677 4.61291,-0.94838 1.2563,-1.2563 2.80137,-0.22371 2.80137,1.872 0,2.54893 -6.26755,4.28462 -10.013546,2.77306 z M 85.4632,131.82224 c -1.430045,-1.43005 -0.536044,-2.90636 1.759987,-2.90636 1.316594,0 3.138207,-0.56304 4.048028,-1.25121 0.909847,-0.68816 2.145668,-1.26341 2.746294,-1.27832 1.675164,-0.0415 2.205509,2.33653 0.828221,3.7138 -1.394892,1.39489 -8.420271,2.68434 -9.38253,1.72209 z m 27.48939,-11.42852 c 0,-0.46872 0.38349,-0.85222 0.85221,-0.85222 0.46872,0 0.85222,0.3835 0.85222,0.85222 0,0.46872 -0.3835,0.85222 -0.85222,0.85222 -0.46872,0 -0.85221,-0.3835 -0.85221,-0.85222 z m 34.12247,17.21333 c -1.65913,-0.61013 -8.00204,-1.33098 -14.09539,-1.60187 -6.09335,-0.2709 -11.73385,-0.83121 -12.53442,-1.24509 -1.07707,-0.55687 -1.69677,-0.30193 -2.38301,0.98031 -0.51005,0.95307 -0.75467,2.01257 -0.54356,2.35444 0.21119,0.34184 7.62641,0.62153 16.47841,0.62153 14.19337,0 15.73822,-0.13103 13.07797,-1.10932 z m 50.76981,-0.59511 c -1.76547,-2.73953 -3.93173,-9.86637 -3.93173,-12.93505 0,-1.55702 -0.34155,-2.83095 -0.75898,-2.83095 -0.88404,0 -1.73716,4.22513 -2.35328,11.65462 l -0.43645,5.26301 2.41351,0.27639 c 1.32743,0.15207 3.25768,0.27641 4.28942,0.27641 1.67388,0 1.75761,-0.18349 0.77751,-1.70443 z M 46.276581,125.77371 c -0.814798,-0.21332 -2.348788,-0.22104 -3.408865,-0.0186 -1.060104,0.20373 -0.393431,0.37836 1.481445,0.38781 1.874876,0.0106 2.742192,-0.15739 1.92742,-0.37061 z m 273.262369,-3.43619 c -1.69146,-3.30303 -6.8074,-8.76153 -8.21164,-8.76153 -0.44304,0 0.80671,2.01336 2.77722,4.47414 1.97051,2.46077 4.20824,5.29945 4.97273,6.30815 2.06423,2.72361 2.31939,1.60683 0.46169,-2.02076 z m 14.56379,2.31728 c 0.29753,-0.93744 0.83707,-1.70443 1.19897,-1.70443 0.3619,0 1.09483,-0.95874 1.62874,-2.13054 0.53389,-1.1718 0.66606,-2.13054 0.2937,-2.13054 -0.37234,0 -1.49064,-1.44765 -2.48507,-3.21701 -0.99443,-1.76936 -2.59904,-4.12902 -3.5658,-5.24369 -0.96676,-1.11467 -1.75773,-2.54325 -1.75773,-3.17461 0,-0.63136 -0.38349,-1.14794 -0.85221,-1.14794 -0.46872,0 -0.85222,-0.57524 -0.85222,-1.27832 0,-0.70308 -0.35766,-1.27833 -0.7948,-1.27833 -0.43713,0 -1.06404,-0.86287 -1.39316,-1.91748 -0.32914,-1.05462 -0.83434,-2.10924 -1.12271,-2.343599 -0.792,-0.643663 -2.29358,-3.254881 -5.3907,-9.37438 -1.54195,-3.046674 -3.03948,-5.731155 -3.32785,-5.965515 -0.28837,-0.23436 -0.81467,-1.384852 -1.16959,-2.556649 -0.87586,-2.89189 -2.15184,-4.355012 -3.22153,-3.693905 -0.51717,0.319634 -0.63216,0.135555 -0.27567,-0.441315 0.33644,-0.544327 -0.13476,-2.041698 -1.04684,-3.327479 -2.53074,-3.567165 -6.02506,-11.195833 -6.6471,-14.511674 -0.44353,-2.364128 -0.71427,-2.683443 -1.33492,-1.574417 -0.97334,1.739268 -5.15191,3.947813 -7.46925,3.947813 -1.17862,0 -1.74675,-0.554367 -1.74675,-1.704433 0,-1.077148 0.56813,-1.704433 1.54374,-1.704433 0.84904,0 2.38801,-0.786542 3.41989,-1.747895 1.0319,-0.961354 2.2547,-1.513963 2.71734,-1.228044 0.46268,0.285945 0.84119,-0.07563 0.84119,-0.803374 0,-2.09837 -6.34283,-6.150499 -10.52458,-6.723668 -4.01404,-0.550212 -10.92464,0.964416 -10.98187,2.406926 -0.0186,0.468719 0.78337,1.269776 1.78217,1.780093 0.9988,0.510345 2.51417,1.559716 3.36751,2.331957 1.14442,1.03571 1.80172,1.153875 2.50522,0.450343 0.52457,-0.524539 1.59631,-0.707153 2.38168,-0.405788 1.3286,0.509839 1.32458,0.705689 -0.0581,2.815697 -1.35883,2.073815 -1.37377,2.49212 -0.1747,4.891562 0.72116,1.443095 1.52712,3.292724 1.79101,4.11024 0.30232,0.936559 1.19976,1.409432 2.42597,1.278324 1.76534,-0.188819 1.92175,0.09827 1.68366,3.088272 -0.26499,3.328971 1.59886,9.85045 4.18941,14.657829 0.77483,1.437876 1.69147,3.930609 2.03696,5.539407 0.34549,1.608798 0.8707,3.308597 1.16711,3.777316 0.29641,0.468719 0.92612,2.163724 1.39931,3.76669 1.10027,3.727169 3.5069,4.875719 2.60832,1.244795 -1.65895,-6.703721 -1.61487,-7.994243 0.27316,-7.994243 1.33779,0 1.79767,0.532183 1.79767,2.080261 0,1.144127 0.3835,2.317256 0.85222,2.60693 0.46872,0.2897 0.85221,2.274538 0.85221,4.410776 0,3.50048 -0.1731,3.83881 -1.75314,3.42562 -1.53268,-0.40081 -1.61306,-0.27934 -0.63916,0.96588 0.61269,0.78337 2.62262,2.76656 4.46649,4.40708 5.4642,4.86155 9.00463,8.78038 9.00463,9.96704 0,1.36696 1.04122,1.43412 2.32535,0.14994 0.71424,-0.71427 1.47098,-0.42374 2.94015,1.12876 1.08809,1.14983 2.68924,2.35286 3.55813,2.6734 0.95297,0.35159 1.38627,1.08722 1.09201,1.854 -0.28933,0.754 -0.002,1.27113 0.70638,1.27113 0.65677,0 1.43758,-0.76699 1.73511,-1.70443 z M 21.970118,119.64297 c 0.971287,-0.15633 -2.155441,-3.51044 -3.272511,-3.51044 -0.541503,0 -1.461977,0.57525 -2.045479,1.27833 -0.583502,0.70308 -2.260344,1.28421 -3.726289,1.29137 -1.465946,0.008 -2.222527,0.29481 -1.68129,0.63916 0.798314,0.50795 8.158587,0.71491 10.725569,0.30158 z M 261.76028,110.405 c -0.26445,-0.26445 -1.10253,0.0352 -1.86239,0.66571 -1.26397,1.049 -1.24759,1.19449 0.19255,1.70952 1.51958,0.54348 2.78656,-1.25861 1.66992,-2.37523 z M 66.162577,105.69288 c 0.601771,-2.26404 -0.283096,-3.23421 -1.360223,-1.49138 -0.2897,0.46872 -1.271081,0.85222 -2.180848,0.85222 -0.909768,0 -1.654126,0.30949 -1.654126,0.68771 0,0.37825 -1.054618,1.11678 -2.343595,1.64118 -2.112298,0.85936 -1.886647,0.93869 2.286151,0.80367 4.278872,-0.13848 4.676968,-0.32741 5.252641,-2.4934 z m 30.37901,-0.0999 c 1.520141,-0.99973 2.766508,-2.10529 2.769704,-2.45683 0.0027,-0.35154 0.406057,-0.63916 0.895229,-0.63916 1.51497,0 4.93907,-3.724776 5.48396,-5.965519 0.45929,-1.888671 0.22983,-2.150355 -2.02119,-2.305032 -2.03491,-0.139817 -2.59239,0.198673 -2.80659,1.704432 -0.34997,2.460429 -2.745551,2.430575 -3.096238,-0.03862 -0.171509,-1.208416 -0.862097,-1.917486 -1.86718,-1.917486 -0.877197,0 -1.831892,-0.383498 -2.121566,-0.852217 -1.026574,-1.661023 -2.014826,-0.80111 -3.917479,3.408866 -2.029766,4.491206 -2.421466,4.825086 -3.911966,3.334616 -0.667152,-0.667179 -1.086735,-0.667179 -1.499048,0 -1.010383,1.63482 -2.980015,0.99089 -3.51731,-1.149906 -0.463207,-1.845502 -0.749285,-1.972429 -2.572895,-1.141544 -2.573693,1.172676 -2.658595,3.01221 -0.155529,3.37169 1.634178,0.23462 2.753111,1.59892 4.417277,5.38563 0.209325,0.47639 0.778979,0.28848 1.29164,-0.42611 0.576684,-0.80382 1.154354,-0.96199 1.556254,-0.4261 2.377151,3.16952 6.363793,3.2103 11.073007,0.11318 z m 176.627683,1.16509 c 1.1718,-0.37527 1.73525,-0.72055 1.25212,-0.76726 -0.48315,-0.0466 -1.3127,-1.23545 -1.84348,-2.64161 -1.16436,-3.08478 -2.58344,-3.28327 -3.63824,-0.50888 -0.42821,1.12626 -1.1857,2.29939 -1.68334,2.60696 -2.98076,1.8422 1.29436,2.78992 5.91294,1.31079 z m 21.14562,23.27991 c 0.6152,-0.24607 1.35023,-0.21598 1.63341,0.0671 0.2832,0.28318 -0.22025,0.48459 -1.11854,0.4476 -0.99278,-0.041 -1.1947,-0.24288 -0.51487,-0.51487 z"
     id="path817"
     inkscape:connector-curvature="0" />
</svg>
