<?xml version="1.0" encoding="UTF-8" standalone="no"?>
<svg
   xmlns:dc="http://purl.org/dc/elements/1.1/"
   xmlns:cc="http://creativecommons.org/ns#"
   xmlns:rdf="http://www.w3.org/1999/02/22-rdf-syntax-ns#"
   xmlns:svg="http://www.w3.org/2000/svg"
   xmlns="http://www.w3.org/2000/svg"
   xmlns:sodipodi="http://sodipodi.sourceforge.net/DTD/sodipodi-0.dtd"
   xmlns:inkscape="http://www.inkscape.org/namespaces/inkscape"
   id="svg"
   version="1.1"
   width="400"
   height="377.93103448275866"
   viewBox="0, 0, 400,377.93103448275866"
   sodipodi:docname="B11.svg"
   inkscape:version="0.92.5 (2060ec1f9f, 2020-04-08)">
  <metadata
     id="metadata11">
    <rdf:RDF>
      <cc:Work
         rdf:about="">
        <dc:format>image/svg+xml</dc:format>
        <dc:type
           rdf:resource="http://purl.org/dc/dcmitype/StillImage" />
      </cc:Work>
    </rdf:RDF>
  </metadata>
  <defs
     id="defs9" />
  <sodipodi:namedview
     pagecolor="#ffffff"
     bordercolor="#666666"
     borderopacity="1"
     objecttolerance="10"
     gridtolerance="10"
     guidetolerance="10"
     inkscape:pageopacity="0"
     inkscape:pageshadow="2"
     inkscape:window-width="1366"
     inkscape:window-height="693"
     id="namedview7"
     showgrid="false"
     inkscape:zoom="0.15611314"
     inkscape:cx="-1397.5179"
     inkscape:cy="-15.104269"
     inkscape:window-x="0"
     inkscape:window-y="0"
     inkscape:window-maximized="1"
     inkscape:current-layer="svg" />
  <path
     style="fill:#ffffff;stroke-width:0.81751955"
     d="m 316.41339,247.41485 c -0.89927,-0.21919 -2.28088,-0.9709 -3.07004,-1.67075 -2.01314,-1.78534 -4.77662,-11.62549 -5.19917,-18.51449 -0.46905,-7.64348 -0.66909,-8.13379 -3.9619,-9.70396 -3.88629,-1.85329 -5.47994,-4.66232 -6.27345,-11.05843 -1.25106,-10.08286 -1.69303,-12.42822 -2.42854,-12.88278 -0.40212,-0.24858 -0.73117,-1.84719 -0.73117,-3.55254 v -3.10067 l -6.74453,-0.64801 c -8.44294,-0.81121 -10.54371,-0.76323 -16.14602,0.3688 -2.47299,0.49971 -6.5749,1.21982 -9.11534,1.60025 -2.54044,0.38042 -5.01318,0.93534 -5.49526,1.23312 -1.09343,0.67578 -14.94757,-1.13655 -16.00549,-2.09377 -0.42716,-0.3865 -1.59212,-0.70273 -2.58873,-0.70273 -0.99686,0 -1.9996,-0.45986 -2.22876,-1.0219 -0.2915,-0.71548 -0.86351,-0.50804 -1.90763,0.69188 -1.22628,1.4095 -7.16147,6.40258 -13.3455,11.22704 -3.38312,2.63942 -7.14599,3.01504 -28.69079,2.86395 -15.25221,-0.10704 -22.11013,0.13081 -23.37184,0.81029 -2.06076,1.10976 -10.5774,1.30461 -11.22498,0.25681 -0.49587,-0.80237 -34.30588,-2.12264 -44.2157,-1.72661 -11.68317,0.46688 -34.910765,0.25318 -45.250241,-0.41616 -14.112661,-0.91371 -25.465197,1.10472 -25.465197,4.52762 0,1.30162 -4.373244,4.04259 -6.449999,4.04259 -1.308798,0 -4.177755,2.65111 -4.177755,3.86053 0,0.57451 -0.275913,1.04744 -0.61314,1.05097 -2.161138,0.023 -3.447122,8.56078 -1.708641,11.34449 0.771636,1.2356 0.608975,1.99498 -0.873188,4.07651 -1.706521,2.39658 -2.142642,2.55804 -6.909496,2.55804 -4.913011,0 -5.206296,-0.12058 -8.528287,-3.50539 -1.892149,-1.92797 -3.440276,-3.95133 -3.440276,-4.49636 0,-0.54503 -0.3678832,-0.99096 -0.8175192,-0.99096 -0.4496359,0 -0.8175197,-0.73577 -0.8175197,-1.63504 0,-1.80414 -1.2842976,-2.22519 -1.8702292,-0.61314 -0.2043799,0.56204 -0.208212,-0.81752 -0.00766,-3.0657 0.1997813,-2.24818 0.6668915,-4.82336 1.0383264,-5.72264 1.5179805,-3.67531 2.4305107,-6.78324 3.3143777,-11.2882 0.837089,-4.26641 0.758837,-5.11555 -0.771253,-8.37066 -2.5398035,-5.40324 -2.251168,-10.48283 0.954122,-16.79055 2.118729,-4.16948 3.319359,-5.54579 5.927016,-6.79443 1.985576,-0.95075 4.259252,-3.04112 5.78832,-5.32159 3.039793,-4.53368 5.430705,-5.04693 12.404837,-2.66294 2.583566,0.88315 5.680713,1.82618 6.882569,2.09561 1.20183,0.26945 3.278304,1.40971 4.614361,2.53392 2.088277,1.75716 3.23771,2.04403 8.189962,2.04403 3.168425,0 5.949269,-0.30501 6.179656,-0.6778 0.230438,-0.37279 2.551402,-1.1703 5.157756,-1.77225 2.606355,-0.60195 5.106712,-1.34745 5.556348,-1.65668 0.449636,-0.30923 1.737229,-0.81617 2.861319,-1.12652 1.124089,-0.31035 3.883217,-1.06811 6.131396,-1.68388 11.450281,-3.13619 23.423395,-3.51503 31.474505,-0.99584 9.39299,2.93903 20.58639,4.07778 22.52266,2.2913 0.42715,-0.3941 2.98395,-1.52562 5.68176,-2.51449 2.69781,-0.98886 6.00877,-2.26532 7.35768,-2.83658 4.06573,-1.72185 8.18924,-2.92509 10.02442,-2.92509 0.95323,0 1.96049,-0.36788 2.23839,-0.81752 0.27788,-0.44963 1.40823,-0.81752 2.51188,-0.81752 1.10366,0 2.64547,-0.3359 3.42623,-0.74647 0.78076,-0.41055 3.44293,-1.7255 5.91593,-2.9221 5.2005,-2.51632 10.85329,-5.54968 11.44527,-6.14166 0.88387,-0.88387 8.63017,-4.94398 12.67155,-6.64163 6.99197,-2.93705 23.33814,-4.11233 27.79311,-1.9983 1.4861,0.70524 3.01461,1.29045 3.39629,1.30044 0.38168,0.0102 1.61358,0.73758 2.73766,1.61685 1.12409,0.87929 2.6876,1.60686 3.47446,1.61687 0.78687,0.0102 1.43066,0.38605 1.43066,0.83569 0,0.44963 0.55183,0.81752 1.22628,0.81752 0.67446,0 1.22628,0.36788 1.22628,0.81752 0,1.01147 5.45617,1.09261 6.07544,0.0904 0.24781,-0.39995 1.64858,-0.90403 3.11398,-1.12016 1.46566,-0.21613 5.79162,-1.37823 9.61352,-2.58241 13.98929,-4.40769 23.13274,-5.61802 42.51102,-5.62727 18.13309,-0.008 21.93762,0.51657 29.55103,4.07937 4.04493,1.89289 6.27829,3.61083 8.7357,6.71983 1.81592,2.29726 3.53092,3.80584 3.81118,3.35237 0.28025,-0.45344 2.85749,-0.82444 5.72698,-0.82444 2.86949,0 5.44468,-0.36789 5.72264,-0.81752 0.27795,-0.44964 1.69763,-0.81752 3.15485,-0.81752 1.45723,0 3.01614,-0.36674 3.4645,-0.81494 0.4481,-0.44823 4.89311,-0.88671 9.87768,-0.97441 11.37834,-0.20029 13.28903,0.83303 20.19759,10.92273 5.13708,7.50245 5.52362,10.94714 2.10358,18.73954 -3.32731,7.58108 -6.00085,11.63874 -8.57655,13.0173 -1.10953,0.59375 -2.01723,1.56921 -2.01723,2.16768 0,1.30175 -0.81088,1.36104 -3.68242,0.26927 -2.47044,-0.93922 -6.12782,-0.27208 -6.12782,1.11776 0,0.61464 -1.30138,0.83565 -3.76595,0.63965 -2.8746,-0.22865 -4.31829,0.10858 -6.09844,1.42476 -3.01511,2.22925 -5.36216,2.18904 -6.59432,-0.11292 -0.59168,-1.10551 -1.11642,-1.43727 -1.31799,-0.83302 -0.24526,0.73374 -1.18975,0.56802 -3.5092,-0.61532 -1.74592,-0.89076 -4.48972,-1.61955 -6.09717,-1.61955 -1.60745,0 -3.82957,-0.59414 -4.93782,-1.3203 -1.8642,-1.22147 -2.01493,-1.21818 -2.01493,0.0442 0,0.75046 -1.08883,3.32145 -2.4196,5.71331 -1.33077,2.39186 -2.22288,4.54569 -1.98223,4.7863 0.24015,0.24066 -0.32598,0.67977 -1.25923,0.97594 -2.03077,0.64453 -2.11661,1.47981 -0.41898,4.07099 1.10493,1.68626 2.1281,2.01621 7.56205,2.43871 3.45658,0.26871 8.75411,0.68674 11.77254,0.92896 5.36114,0.43022 5.54074,0.38086 7.76644,-2.13546 5.6861,-6.42857 6.93307,-7.32743 10.16611,-7.32743 1.73186,0 3.14872,0.36788 3.14872,0.81752 0,0.44963 0.55183,0.81752 1.22628,0.81752 0.67446,0 1.22628,0.36788 1.22628,0.81752 0,0.44963 0.45986,0.81795 1.0219,0.81851 1.72037,0.002 5.51826,3.77061 5.51826,5.47611 0,0.88442 0.24781,1.85594 0.5508,2.15894 0.303,0.30299 0.4619,2.73284 0.35307,5.39966 -0.17372,4.24686 0.70511,7.72196 2.2842,9.0373 0.99329,0.8273 4.07815,8.08212 4.5845,10.78188 0.53803,2.86796 -1.27712,8.96819 -3.33242,11.19938 -0.75722,0.8223 -3.13365,1.11481 -8.6353,1.0629 -4.17446,-0.0393 -7.97363,0.24577 -8.44217,0.63401 -0.46854,0.38807 -3.61088,0.89864 -6.98315,1.13457 -8.11362,0.56766 -16.99981,1.77861 -24.52559,3.34217 -5.80464,1.20602 -15.6394,1.55808 -19.2117,0.68782 z m 21.66427,-5.14255 c 4.67876,-0.93404 12.69327,-2.03082 22.48178,-3.07658 3.14745,-0.33626 6.12961,-0.87245 6.62677,-1.19154 0.55157,-0.35376 0.75416,-2.14331 0.51938,-4.58598 -0.39931,-4.15652 0.31781,-5.41425 2.59026,-4.54224 1.62431,0.62328 1.87569,7.63742 0.27821,7.7601 -0.56205,0.0432 0.81752,0.51315 3.0657,1.04441 3.6027,0.85134 4.15274,0.80554 4.63687,-0.38605 0.38091,-0.93736 1.19587,-1.22845 2.65693,-0.94911 1.52877,0.29221 2.10767,0.0565 2.10767,-0.85876 0,-0.69389 -0.60777,-1.38058 -1.35069,-1.52597 -0.94066,-0.18395 -1.7753,-2.07129 -2.74815,-6.21407 -1.28274,-5.46134 -1.28912,-6.01909 -0.0792,-6.79428 1.00273,-0.64285 0.73168,-0.7232 -1.13508,-0.33646 -1.34891,0.27941 -3.54395,0.72312 -4.87804,0.98603 -2.98394,0.58808 -4.52343,2.04137 -4.52343,4.26962 0,0.93141 -0.27592,1.70808 -0.61314,1.72597 -0.33723,0.0179 -7.60294,0.0524 -16.14601,0.0766 -14.00079,0.0399 -15.99656,-0.13055 -20.23361,-1.7263 -2.58541,-0.97371 -4.74417,-2.2038 -4.79705,-2.73355 -0.0537,-0.52973 -0.0256,-5.93082 0.0766,-12.00241 0.1865,-11.97881 0.19927,-11.94386 -5.39461,-16.34764 -3.36818,-2.65195 -5.35347,-11.51414 -2.7019,-12.06137 1.50551,-0.31071 3.5649,3.45867 3.29895,6.03884 -0.19927,1.93307 3.48161,5.36198 5.07398,4.72695 2.87026,-1.14451 7.46498,-15.84123 6.26297,-20.03222 -0.38807,-1.35335 -0.945,-5.1097 -1.23752,-8.34746 -1.10544,-12.23428 -1.42146,-13.2066 -4.74672,-14.60082 -3.66275,-1.53589 -8.56582,-1.22347 -12.51444,0.79738 -3.65176,1.86888 -8.45877,7.07362 -8.45877,9.15842 0,1.21345 -3.48391,4.75799 -8.60695,8.75678 l -2.33581,1.8234 1.93497,2.05982 c 1.06431,1.1329 2.39227,2.05982 2.95073,2.05982 0.55873,0 1.1384,0.32315 1.28811,0.71809 0.15073,0.39496 1.43296,0.96827 2.8511,1.27402 l 2.57851,0.55592 0.42357,-4.33973 c 0.92738,-9.50026 3.1265,-14.55869 6.32914,-14.55869 1.86879,0 2.15442,2.59261 0.44197,4.01379 -1.44344,1.19802 -2.18636,4.60251 -2.69143,12.3366 -0.21971,3.37226 -0.7465,6.54881 -1.16905,7.05897 -1.02548,1.23775 -1.143,30.26503 -0.12774,31.57404 0.43354,0.55918 1.25489,4.87946 1.82511,9.60064 1.16497,9.64535 2.98625,17.65694 4.39979,19.35383 1.09471,1.31378 14.07947,0.98082 21.79149,-0.5588 z m -18.76642,-5.90702 c -1.74106,-3.74467 -2.13781,-5.37728 -1.49478,-6.15201 0.70639,-0.85134 1.15755,-0.7991 2.33989,0.27101 1.99679,1.80697 5.04129,8.45951 4.50786,9.84968 -0.96647,2.51888 -3.05676,0.96912 -5.35297,-3.96868 z m -5.63833,-24.0364 c -4.12183,-5.00048 -4.29325,-15.0933 -0.26646,-15.68271 2.05938,-0.30146 3.31376,1.91693 1.88924,3.34149 -2.22468,2.22472 0,10.63572 3.0869,11.61189 0.95752,0.30394 1.70964,1.23762 1.70964,2.12256 0,2.75918 -3.64946,1.96713 -6.41932,-1.39323 z m 6.91545,-3.22506 c -0.70639,-1.84085 -0.59117,-6.28392 0.19416,-7.52289 0.36712,-0.5786 1.27865,-0.81448 2.03128,-0.52567 1.04183,0.39979 1.36551,1.56841 1.36551,4.93281 0,3.7808 -0.2197,4.40888 -1.54766,4.40888 -0.85124,0 -1.77095,-0.58192 -2.0438,-1.29313 z M 305.22359,167.3275 c 0.59015,-0.23606 1.29526,-0.20719 1.56683,0.0644 0.27182,0.27165 -0.21205,0.46486 -1.073,0.42938 -0.95241,-0.0393 -1.14606,-0.233 -0.49383,-0.49391 z M 26.157531,225.32116 c 0.274329,-0.71487 0.118795,-1.67972 -0.34553,-2.1441 -1.437429,-1.4374 -0.933173,-6.73174 0.9951,-10.44795 2.458664,-4.73847 4.806427,-7.01434 9.275117,-8.99103 2.640154,-1.16788 3.588067,-2.00538 3.254264,-2.87524 -0.259026,-0.67504 -0.470968,-1.72625 -0.470968,-2.33599 0,-0.60971 -1.609951,-2.26478 -3.57767,-3.67786 -4.866975,-3.49521 -5.626476,-5.38209 -3.733126,-9.27456 1.43352,-2.94716 6.912588,-8.69578 8.288064,-8.69578 0.361778,0 0.657771,-0.49276 0.657771,-1.09504 0,-1.85058 -3.922842,-3.02183 -13.328072,-3.9794 l -9.011186,-0.91746 -1.807918,2.26736 c -3.787875,4.75045 -4.715198,12.56323 -2.016515,16.98949 l 1.631974,2.67668 0.0026,-6.69627 c 0.0017,-3.68295 0.370975,-6.92365 0.82061,-7.20156 0.449636,-0.27788 0.81752,-1.2193 0.81752,-2.09203 0,-0.87275 0.367884,-1.5868 0.817519,-1.5868 0.449636,0 0.81752,-0.51246 0.81752,-1.13881 0,-1.4749 1.870433,-2.18053 3.344191,-1.26161 0.960739,0.59906 0.846184,1.29955 -0.689526,4.21636 -1.615649,3.06861 -1.841412,4.70702 -1.839419,13.34904 0.0012,5.41811 -0.33664,10.2006 -0.750841,10.62776 -1.11502,1.14989 -4.152003,10.62979 -4.152003,12.96041 0,1.10902 0.429019,3.05201 0.953381,4.31778 0.524362,1.26578 0.984217,2.54665 1.0219,2.8464 0.03756,0.29978 0.344431,0.82095 0.681658,1.15817 0.337227,0.33723 0.613139,1.44821 0.613139,2.46889 0,1.49284 0.519585,1.90896 2.656939,2.12785 3.397458,0.34795 4.4552,0.0153 5.073066,-1.5947 z m 336.621219,-2.8768 c 0.76694,-0.55216 0.68059,-0.63831 -0.32011,-0.31909 -0.7539,0.2404 -1.8108,-0.0927 -2.34832,-0.74039 -0.73372,-0.88407 -3.05165,-1.17769 -9.29775,-1.17769 -4.57607,0 -8.67286,0.3525 -9.10359,0.78336 -0.49281,0.49269 -2.7415,0.50661 -6.06012,0.0376 -2.90194,-0.41022 -5.43778,-0.58443 -5.63501,-0.38715 -0.19672,0.19723 0.89237,0.91491 2.4219,1.59475 2.158,0.95933 5.74818,1.20571 16.03641,1.10056 7.29074,-0.0746 13.72871,-0.47587 14.30659,-0.89189 z m -14.07334,-6.17018 6.94892,-0.56335 -0.26621,-2.72857 c -0.16861,-1.73565 0.2427,-3.29047 1.13099,-4.27269 1.83124,-2.02349 2.81405,-1.30957 2.81405,2.04428 0,1.49216 0.50482,3.13187 1.12154,3.64384 0.88803,0.73697 1.31851,0.45559 2.06679,-1.35092 0.51989,-1.255 0.84281,-3.19234 0.71789,-4.30522 -0.16606,-1.48267 0.1635,-2.02535 1.23752,-2.03056 2.16463,-0.0102 3.11193,-2.05006 2.5596,-5.51113 -0.43048,-2.696 -0.28945,-3.0657 1.16931,-3.0657 0.9123,0 1.88591,0.36789 2.16387,0.81752 0.27796,0.44964 0.87781,0.81752 1.33281,0.81752 0.45526,0 0.27591,-0.55182 -0.39854,-1.22628 -2.31077,-2.31074 -8.70071,-0.97039 -8.70071,1.82504 0,0.39356 -1.30803,1.98333 -2.90679,3.53286 l -2.90705,2.8173 -9.96888,-0.26493 c -5.483,-0.14562 -11.34871,-0.56646 -13.03484,-0.93499 l -3.0657,-0.67008 v 5.99019 c 0,5.90518 0.0332,5.99516 2.24818,6.33905 1.2365,0.19186 3.71971,0.19391 5.51826,0.005 1.79854,-0.18931 6.39709,-0.59784 10.21899,-0.90768 z m 19.82485,0.63746 c -1.01168,-0.40666 -1.85066,-1.21108 -1.8642,-1.78761 -0.0256,-0.58805 -0.40774,-0.38998 -0.89672,0.4512 -0.62157,1.06898 -1.43577,1.35787 -2.83653,1.00631 -1.11183,-0.27905 -1.96461,-0.13157 -1.96461,0.33999 0,0.47521 2.01953,0.81085 4.70074,0.78129 3.64716,-0.0401 4.2884,-0.21766 2.86132,-0.79118 z m -63.33758,-30.63143 c -0.12263,-0.0973 -1.6376,-8.2e-4 -3.36486,0.21408 l -3.14004,0.39088 0.38806,3.3763 c 0.2146,1.85697 0.9657,5.86977 1.67158,8.9173 0.70587,3.04756 1.48533,7.257 1.73186,9.35434 0.24781,2.09735 0.9077,4.09751 1.46872,4.44483 0.79632,0.49294 1.06942,-2.34715 1.24468,-12.94473 0.12263,-7.46694 0.12263,-13.6558 0,-13.75303 z M 15.71589,197.98088 c -0.260967,-0.65215 -0.454694,-0.45845 -0.493909,0.49393 -0.03551,0.8618 0.157628,1.34464 0.429376,1.073 0.271647,-0.27168 0.300694,-0.97679 0.06464,-1.56693 z m 33.777378,-1.77085 c 5.27083,-0.87549 20.47539,-0.91723 38.773547,-0.10654 14.910615,0.66066 24.627805,-0.43614 25.399315,-2.86688 0.57111,-1.79944 4.22571,-5.00108 7.36572,-6.45281 1.34582,-0.62221 3.24985,-1.49882 4.2312,-1.94805 0.98136,-0.44923 2.36092,-0.59549 3.0657,-0.32504 1.72504,0.66196 1.6286,2.93331 -0.1492,3.5151 -4.85795,1.58977 -11.51415,5.61118 -10.67555,6.44975 1.00059,1.00062 13.19622,1.99296 24.66868,2.00729 l 12.97125,0.0153 -0.60941,-2.24818 c -0.33519,-1.2365 -0.83794,-8.38157 -1.11722,-15.87792 l -0.50778,-13.62963 -3.67884,1.67523 c -2.02336,0.92137 -6.66286,3.1 -10.30999,4.8414 -6.52608,3.116 -6.78207,3.16615 -16.1571,3.16615 -5.23928,0 -10.16476,-0.3301 -10.94554,-0.7336 -9.72854,-5.02746 -18.328895,-5.02355 -36.572891,0.0153 -1.798543,0.49688 -4.005846,1.20848 -4.905117,1.58134 -2.470851,1.02448 -8.037086,1.68434 -17.873609,2.11885 l -8.880893,0.39231 -3.262925,3.013 c -1.794609,1.65716 -3.999382,4.04447 -4.899497,5.30514 -1.565805,2.19294 -1.574312,2.36092 -0.196715,3.88321 0.791946,0.87511 1.904079,1.5911 2.471361,1.5911 0.567308,0 1.154082,0.3174 1.303969,0.70532 0.760217,1.96764 4.413047,5.6453 5.150118,5.18511 0.46476,-0.29019 2.868395,-0.86368 5.341392,-1.27443 z m 86.989212,-1.89867 c -0.26423,-0.82007 -0.85834,-2.28374 -1.32024,-3.25255 -0.9289,-1.94835 -0.31886,-3.5524 1.35108,-3.5524 1.5562,0 3.87088,3.86799 3.57075,5.96702 -0.32134,2.24741 -2.95038,2.85907 -3.60159,0.83793 z m -95.289411,-5.52653 c -1.069213,-2.34666 -0.435048,-4.5485 1.310049,-4.5485 1.374992,0 2.522176,3.40423 1.790087,5.31206 -0.700946,1.82665 -2.074047,1.48848 -3.100136,-0.76356 z m 82.898861,-6.7252 c -0.56205,-0.2266 -1.0219,-1.11721 -1.0219,-1.97901 0,-0.86182 0.45985,-1.62295 1.0219,-1.69145 2.16837,-0.26421 2.7533,-0.44235 5.82245,-1.77304 1.74106,-0.75488 3.47231,-1.37251 3.84725,-1.37251 0.37496,0 2.44535,-1.01552 4.60089,-2.25671 6.76758,-3.89684 8.26699,-4.51537 9.65468,-3.98288 1.65034,0.63329 1.25236,2.14236 -0.87551,3.31987 -0.87058,0.48175 -2.56096,1.51972 -3.75638,2.30658 -1.19541,0.78686 -2.7605,1.43066 -3.47795,1.43066 -0.71745,0 -1.30446,0.32498 -1.30446,0.72217 0,0.39719 -0.6438,0.93276 -1.43066,1.19016 -0.78686,0.25741 -3.27008,1.17807 -5.51826,2.04592 -6.30292,2.43306 -6.47375,2.47915 -7.56205,2.04024 z m -43.941679,-2.03217 c -2.698505,-1.0008 -5.313877,-3.01532 -5.313877,-4.09301 0,-0.97791 6.337641,-0.86233 6.948916,0.12671 0.284624,0.46054 4.232324,0.81752 9.040948,0.81752 5.145468,0 8.535719,-0.32471 8.535719,-0.81752 0,-1.22794 1.585303,-0.98406 3.036503,0.46714 1.16788,1.1679 1.16479,1.40457 -0.034,2.60341 -1.64694,1.64695 -18.370431,2.3213 -22.214153,0.89575 z m 95.649789,16.47621 c 7.97214,-1.11229 6.15485,-1.09619 18.39419,-0.16299 11.27528,0.85962 18.94944,0.54947 22.07303,-0.89207 5.00168,-2.30839 15.6113,-11.60855 17.64079,-15.46361 0.88369,-1.67888 1.14504,-5.59469 1.09062,-16.35039 -0.0383,-7.77855 -0.31551,-15.92536 -0.61314,-18.10402 -0.5273,-3.85593 -0.6719,-4.0282 -5.44672,-6.4827 -2.69782,-1.3868 -5.54406,-2.82325 -6.32479,-3.19208 -2.09719,-0.99076 -15.17682,-0.81423 -18.55151,0.25036 -6.38565,2.0145 -10.29681,3.44935 -10.6858,3.92021 -0.22482,0.27211 -2.24818,1.40455 -4.49636,2.51651 -2.24818,1.11195 -4.27154,2.21343 -4.49636,2.44775 -0.22481,0.23427 -2.43212,1.4898 -4.90511,2.78997 -2.473,1.30016 -5.00608,2.76334 -5.62908,3.2515 -0.62298,0.48819 -1.54269,0.91417 -2.0438,0.94664 -1.07527,0.0697 -3.60861,1.00557 -5.60073,2.06909 -0.78075,0.41681 -2.11827,0.75784 -2.97224,0.75784 -0.85398,0 -2.60643,0.57788 -3.89433,1.2842 l -2.34161,1.28417 2.86132,-0.40274 c 8.21957,-1.15699 15.95254,-4.37163 24.3175,-10.10898 2.80818,-1.92608 5.47534,-3.50195 5.92702,-3.50195 0.45165,0 0.82122,-0.2811 0.82122,-0.62466 0,-0.65655 5.96723,-3.46294 7.36327,-3.46294 1.134,0 1.01597,2.73903 -0.16912,3.9241 -0.53957,0.53956 -1.55125,0.98922 -2.24818,0.99921 -0.69694,0.0102 -2.18687,0.76086 -3.31096,1.66858 -2.64866,2.13886 -10.52068,7.30595 -11.13055,7.30595 -0.25908,0 -1.44757,0.67154 -2.64107,1.4923 -1.19348,0.82076 -3.45757,1.96156 -5.0313,2.53505 -1.57372,0.57354 -3.59709,1.33251 -4.49636,1.68662 -0.89927,0.35412 -3.97125,1.14473 -6.82659,1.75693 l -5.19153,1.11305 0.0904,13.08031 c 0.0771,11.16006 0.6255,16.67474 2.22265,22.34991 0.33411,1.18719 3.93733,1.03611 16.24529,-0.68109 z m -6.35757,-8.40747 c -0.50663,-1.32025 2.06884,-3.85987 3.91434,-3.85987 0.66931,0 1.21695,-0.28856 1.21695,-0.64124 0,-0.35271 1.01168,-1.24529 2.24818,-1.98353 3.22151,-1.9234 7.85649,-6.34551 10.11798,-9.6533 1.07018,-1.56532 3.29343,-4.31757 4.94055,-6.11612 1.64712,-1.79854 4.73129,-5.20147 6.85373,-7.56205 3.9807,-4.42741 6.9053,-5.57357 6.9053,-2.70625 0,0.87217 -2.30686,3.90721 -5.12636,6.74454 -2.81947,2.83735 -6.20637,6.63034 -7.52644,8.42888 -7.47363,10.18256 -22.14558,20.9938 -23.54423,17.34894 z m 32.92695,-0.87345 c 0,-0.60565 0.76712,-1.98521 1.70469,-3.06569 5.41106,-6.23574 6.76257,-7.98494 8.34585,-10.80166 1.24516,-2.21519 2.17141,-3.00448 3.20774,-2.73348 1.00943,0.26396 1.45708,-0.083 1.45708,-1.12922 0,-0.83065 0.36788,-1.73761 0.81752,-2.01552 0.44963,-0.27788 0.81752,-1.40324 0.81752,-2.50079 0,-1.46083 0.44503,-1.99557 1.66058,-1.99557 2.08519,0 2.90986,2.0146 1.77964,4.34714 -0.47544,0.98135 -1.09982,2.88791 -1.38723,4.23682 -2.27705,10.68615 -2.73534,11.85403 -4.651,11.85403 -1.42151,0 -1.53703,-0.41101 -1.09146,-3.88322 0.43959,-3.42566 0.37325,-3.67572 -0.56307,-2.12233 -0.58373,0.96848 -2.88109,3.81958 -5.1052,6.33578 -3.8261,4.32851 -6.99266,5.90157 -6.99266,3.47371 z m -30.4061,-22.21974 c -1.18742,-1.18742 1.39624,-3.65725 3.82898,-3.66026 1.35317,-0.002 3.66481,-0.73746 5.13698,-1.63504 1.47218,-0.89761 3.13425,-1.632 3.69346,-1.632 0.5592,0 2.37021,-0.91971 4.02444,-2.0438 2.86329,-1.94565 6.3942,-2.7426 6.33856,-1.43066 -0.0963,2.27314 -7.80233,7.67643 -13.0543,9.15351 -4.95284,1.39295 -9.28138,1.93499 -9.96812,1.24825 z m 187.80747,19.54806 c 1.46336,-0.95884 2.01493,-2.05396 2.01493,-4.00012 0,-5.0937 6.32403,-5.0877 6.90012,0.008 0.14562,1.2832 4.02271,0.52977 5.16928,-1.00445 1.66825,-2.23188 0.71354,-3.08315 -3.45708,-3.08315 -3.15282,0 -4.15275,-0.3581 -5.13709,-1.83942 -0.84077,-1.26531 -2.03307,-1.83942 -3.82012,-1.83942 -1.42912,0 -3.03964,-0.44146 -3.5792,-0.98102 -1.28095,-1.28105 -1.2577,-3.68104 0.0409,-4.18253 0.56204,-0.21716 -0.2657,-0.30499 -1.83942,-0.19544 -2.92034,0.20336 -3.58355,0.40794 -9.54327,2.94286 -1.87646,0.79816 -3.62391,1.23908 -3.88321,0.97983 -1.64066,-1.64056 0.93912,-5.02644 3.86891,-5.07795 1.98606,-0.035 1.10007,-1.27433 -2.02643,-2.83401 -3.40267,-1.69745 -5.14884,-0.42508 -4.35099,3.17027 0.74139,3.34015 0.73193,7.69914 -0.0256,10.55683 -0.4338,1.64314 -0.28051,2.5479 0.51734,3.05318 1.62073,1.0264 4.81263,0.91064 4.81263,-0.17449 0,-0.62755 0.39394,-0.59071 1.24595,0.1165 0.68544,0.56876 1.46949,0.81067 1.7426,0.53759 0.2731,-0.27305 1.27584,-0.0736 2.22825,0.4434 0.95266,0.51693 2.65183,0.96383 3.77592,0.99314 1.47664,0.0386 2.1161,0.56368 2.30489,1.89268 0.31168,2.19394 0.44632,2.21699 3.0376,0.5191 z m -97.31369,-0.28214 c 3.14745,-0.37611 8.25541,-1.26422 11.35075,-1.97357 3.09559,-0.70935 5.92114,-1.10863 6.27931,-0.88732 0.35818,0.22125 0.89314,0.0102 1.18924,-0.46815 0.32599,-0.52741 0.91204,-0.58269 1.48712,-0.14026 2.9469,2.26749 3.84438,1.55377 1.15347,-0.91736 -1.68614,-1.54846 -3.0657,-3.43128 -3.0657,-4.18404 0,-0.88404 -0.36175,-1.1468 -1.0219,-0.7421 -0.65529,0.40171 -0.58197,-0.0404 0.20438,-1.23223 1.6215,-2.45772 2.44617,-2.37354 4.01147,0.40945 1.53055,2.72111 3.06237,4.14658 5.59438,5.20558 1.01168,0.42312 1.83942,1.33026 1.83942,2.01585 0,1.00532 1.17698,1.24651 6.08312,1.24651 3.34569,0 6.27676,-0.31303 6.51307,-0.69563 0.23759,-0.38258 -1.02931,-1.17723 -2.81303,-1.7659 -1.78373,-0.58863 -3.243,-1.37928 -3.243,-1.75695 0,-0.37767 -0.53318,-0.68666 -1.18464,-0.68666 -1.43168,0 -5.35552,-4.95205 -5.35552,-6.75882 0,-1.42956 4.5449,-6.32149 5.87286,-6.32149 0.46318,0 0.63766,-0.53308 0.38755,-1.18464 -0.30094,-0.78469 -0.0613,-1.03388 0.7092,-0.73812 1.44752,0.55551 2.998,-0.95795 4.52114,-4.41302 0.64405,-1.46131 1.44931,-2.65694 1.78909,-2.65694 0.33978,0 0.618,-0.43614 0.618,-0.96919 0,-0.53308 0.79989,-1.82067 1.77759,-2.86132 1.56248,-1.66322 1.60515,-1.89212 0.35358,-1.89212 -1.10493,0 -1.29271,-0.41198 -0.83873,-1.83942 0.3219,-1.01168 0.52373,-3.58687 0.44887,-5.72264 -0.17372,-4.97249 1.64322,-5.25915 3.88807,-0.61314 0.86887,1.79854 1.28836,3.27008 0.93198,3.27008 -0.35639,0 -0.82008,0.89917 -1.03008,1.99812 l -0.38193,1.99814 3.35234,-1.72831 c 2.34858,-1.21077 4.88468,-1.73263 8.46924,-1.74264 4.7268,-0.0128 5.33943,0.19978 8.04056,2.79586 3.756,3.61017 5.39359,6.78511 5.17414,10.03155 -0.26723,3.95205 0,6.26775 0.70766,6.26775 0.73194,0 0.60701,-6.73123 -0.27693,-14.95098 -0.56665,-5.26753 -0.78508,-5.71502 -4.2976,-8.80696 -2.03537,-1.79159 -4.65118,-3.46163 -5.81256,-3.71118 -1.16165,-0.2496 -2.84778,-0.76793 -3.74705,-1.15196 -2.36187,-1.00856 -6.57618,-1.72205 -12.86776,-2.17846 -5.46563,-0.3965 -5.53282,-0.37593 -8.27177,2.52836 -1.51905,1.61044 -3.2269,2.92807 -3.79559,2.92807 -0.56843,0 -1.72062,0.79203 -2.56011,1.76002 -1.24416,1.43452 -1.86675,1.60558 -3.36614,0.92492 -1.81719,-0.825 -1.80058,-0.87191 1.36807,-3.88258 1.76406,-1.67612 3.97136,-3.36971 4.90512,-3.76353 2.28445,-0.96357 -14.91232,-0.36236 -20.78416,0.72663 -9.03282,1.67522 -16.02568,3.29973 -19.62047,4.55802 -2.02336,0.70828 -4.48486,1.29312 -5.46997,1.29968 -0.98511,0.008 -1.99347,0.33912 -2.24077,0.73909 -0.24781,0.39995 -1.64832,0.93432 -3.11373,1.18747 -8.50551,1.46929 -8.20379,1.29117 -7.66858,4.52707 0.26928,1.62786 0.49358,8.93784 0.49869,16.24442 0,10.80582 0.22226,13.28469 1.14785,13.28469 0.62617,0 1.35938,-0.57513 1.62916,-1.27809 0.26978,-0.70294 0.84843,-1.05685 1.28605,-0.78645 0.77103,0.47661 4.68924,-2.50473 7.32396,-5.57296 0.71149,-0.82835 2.29927,-2.66777 3.52862,-4.08759 1.22934,-1.41983 2.24102,-3.04136 2.24817,-3.6034 0,-0.56205 0.28895,-1.02422 0.62617,-1.02706 0.33723,-0.002 1.23982,-1.10649 2.00574,-2.45256 0.76591,-1.34607 1.97303,-2.4474 2.68274,-2.4474 1.56529,0 2.74712,2.63099 1.38569,3.08481 -0.53062,0.17679 -0.96467,0.84271 -0.96467,1.47969 0,0.63697 -0.36788,1.15814 -0.81752,1.15814 -0.44964,0 -0.81752,0.55183 -0.81752,1.22628 0,0.67445 -0.3431,1.22628 -0.76234,1.22628 -0.41949,0 -0.98102,0.6883 -1.24799,1.52955 -0.26697,0.84125 -2.77497,3.90297 -5.57344,6.80381 -5.3614,5.55777 -11.54796,9.28451 -13.90881,8.37855 -0.9616,-0.36898 -1.39796,-0.12621 -1.39796,0.77731 0,0.82584 0.69822,1.31373 1.8803,1.31373 1.03416,0 2.22978,0.33674 2.65694,0.74828 1.68868,1.62702 10.97314,2.04549 20.3971,0.91935 z M 65.843659,172.22712 c 2.023361,-0.42317 5.702199,-1.37688 8.175195,-2.11936 9.959023,-2.99016 15.172831,-3.85686 23.201818,-3.85686 4.594948,0 8.703928,0.30708 9.131078,0.6824 2.40195,2.11048 8.90417,3.49142 16.69881,3.54648 7.9258,0.0559 8.5719,-0.0746 14.57977,-2.94693 3.45755,-1.65302 6.92524,-3.35349 7.70599,-3.77878 0.78079,-0.42529 1.97641,-0.77325 2.65694,-0.77325 0.68056,0 1.23739,-0.36788 1.23739,-0.81752 0,-0.44963 0.39415,-0.81751 0.8759,-0.81751 0.91925,0 3.2117,-2.00068 3.2117,-2.80292 0,-0.77307 -3.13769,-0.52526 -3.63998,0.28746 -0.25649,0.41504 -1.64569,1.01365 -3.08711,1.33023 -1.44138,0.31659 -3.18462,0.8538 -3.87384,1.19381 -0.68922,0.33999 -2.35675,1.07821 -3.70566,1.64045 -1.34891,0.56225 -3.22463,1.37333 -4.16828,1.80238 -2.50523,1.13903 -17.22526,-0.11139 -21.17483,-1.79877 -6.19393,-2.64624 -14.444343,-3.0401 -24.525584,-1.17084 -3.597086,0.66696 -7.643808,1.4083 -8.992715,1.64742 -2.373873,0.4208 -5.016658,1.37413 -7.959728,2.87129 -0.780757,0.39716 -2.099007,0.72212 -2.929454,0.72212 -0.830421,0 -1.772944,0.26309 -2.09451,0.58463 -1.2109,1.21093 -8.469171,2.61461 -13.699507,2.64938 -4.214084,0.0281 -5.859239,0.40321 -7.357676,1.67803 l -1.929985,1.64194 8.992715,-0.31296 c 4.945993,-0.17219 10.648192,-0.65915 12.671553,-1.08232 z m -22.671988,-3.03703 c 2.012656,-1.52725 0.957749,-3.75671 -1.777569,-3.75671 -1.210874,0 -2.55107,-0.30966 -2.978224,-0.68814 -0.427154,-0.37849 -2.940464,-1.15148 -5.585089,-1.71777 l -4.808445,-1.02964 -1.858401,2.3307 c -2.194299,2.75187 -1.514736,3.49538 3.300096,3.61068 1.798543,0.0432 4.925556,0.55249 6.948917,1.13203 4.859004,1.39175 5.076259,1.39559 6.758715,0.1188 z m 310.620759,-6.41365 1.60004,-1.83941 -3.23738,-2.87821 c -1.78066,-1.583 -3.48647,-3.97424 -3.79099,-5.31388 -0.9726,-4.27902 -2.46661,-5.56564 -5.74819,-4.95003 -2.78493,0.52248 -2.90219,0.68468 -2.87716,3.98206 0.0332,4.42812 1.07836,5.70422 6.82144,8.33122 3.90979,1.78835 4.54745,2.35683 3.73836,3.33195 -1.7081,2.05793 1.68767,1.41293 3.49388,-0.6637 z M 39.747567,214.82518 c 0.03909,-0.95236 0.232993,-1.14606 0.493909,-0.49391 0.236059,0.59014 0.20719,1.29526 -0.06463,1.5669 -0.271646,0.27167 -0.464862,-0.21128 -0.429377,-1.07299 z m 313.454203,-19.9611 c -0.27796,-0.44963 -0.11497,-0.81752 0.36047,-0.81752 0.47621,0 0.86581,0.36789 0.86581,0.81752 0,0.44964 -0.16095,0.81752 -0.36048,0.81752 -0.19927,0 -0.58784,-0.36788 -0.8658,-0.81752 z m -64.17529,-4.95335 c 0,-0.47618 0.36789,-0.6384 0.81752,-0.36052 0.44964,0.2779 0.81752,0.6675 0.81752,0.86578 0,0.19824 -0.36788,0.3605 -0.81752,0.3605 -0.44963,0 -0.81752,-0.3896 -0.81752,-0.86576 z m 75.62056,0.0483 c 0.27796,-0.44964 0.8515,-0.81752 1.27457,-0.81752 0.42306,0 0.76923,0.36788 0.76923,0.81752 0,0.44963 -0.57354,0.81752 -1.27456,0.81752 -0.70103,0 -1.04719,-0.36789 -0.76924,-0.81752 z M 12.040654,167.8349 c 0.196716,-0.59017 0.840513,-1.23395 1.43066,-1.43066 0.613139,-0.20438 0.919709,0.10219 0.715329,0.71533 -0.196715,0.59012 -0.840512,1.23392 -1.430659,1.43066 -0.61314,0.20438 -0.919709,-0.10219 -0.71533,-0.71533 z m 1.32847,-5.41249 c 0.590147,-0.23606 1.295257,-0.20719 1.566904,0.0644 0.271646,0.27164 -0.211278,0.46488 -1.072995,0.42937 -0.952359,-0.0393 -1.146086,-0.23299 -0.493909,-0.49391 z"
     id="path1371"
     inkscape:connector-curvature="0" />
</svg>
