<?xml version="1.0" encoding="UTF-8" standalone="no"?>
<svg
   xmlns:dc="http://purl.org/dc/elements/1.1/"
   xmlns:cc="http://creativecommons.org/ns#"
   xmlns:rdf="http://www.w3.org/1999/02/22-rdf-syntax-ns#"
   xmlns:svg="http://www.w3.org/2000/svg"
   xmlns="http://www.w3.org/2000/svg"
   xmlns:sodipodi="http://sodipodi.sourceforge.net/DTD/sodipodi-0.dtd"
   xmlns:inkscape="http://www.inkscape.org/namespaces/inkscape"
   id="svg"
   version="1.1"
   width="400"
   height="377.93103448275866"
   viewBox="0, 0, 400,377.93103448275866"
   sodipodi:docname="B12 - B13.svg"
   inkscape:version="0.92.5 (2060ec1f9f, 2020-04-08)">
  <metadata
     id="metadata11">
    <rdf:RDF>
      <cc:Work
         rdf:about="">
        <dc:format>image/svg+xml</dc:format>
        <dc:type
           rdf:resource="http://purl.org/dc/dcmitype/StillImage" />
      </cc:Work>
    </rdf:RDF>
  </metadata>
  <defs
     id="defs9" />
  <sodipodi:namedview
     pagecolor="#ffffff"
     bordercolor="#666666"
     borderopacity="1"
     objecttolerance="10"
     gridtolerance="10"
     guidetolerance="10"
     inkscape:pageopacity="0"
     inkscape:pageshadow="2"
     inkscape:window-width="1366"
     inkscape:window-height="693"
     id="namedview7"
     showgrid="false"
     inkscape:zoom="0.44155464"
     inkscape:cx="156.81055"
     inkscape:cy="305.24969"
     inkscape:window-x="0"
     inkscape:window-y="0"
     inkscape:window-maximized="1"
     inkscape:current-layer="svg" />
  <path
     style="fill:#ffffff;stroke-width:1.46801603"
     d="m 349.7153,364.79233 c -6.17168,-1.88301 -11.90983,-6.65323 -12.00502,-9.97994 -0.0229,-0.88572 -2.00715,-5.55722 -4.40405,-10.38112 -2.39686,-4.8239 -4.35794,-9.6133 -4.35794,-10.64312 0,-1.02981 -0.51642,-1.87241 -1.14753,-1.87241 -0.63116,0 -2.00981,-3.13788 -3.06375,-6.97307 -1.0539,-3.83519 -2.48829,-8.6246 -3.18748,-10.64312 -0.69919,-2.01852 -1.69404,-7.63368 -2.21074,-12.47813 -0.51669,-4.84446 -2.32144,-14.09296 -4.01053,-20.55223 -1.68913,-6.45927 -3.32739,-16.79447 -3.64058,-22.96711 l -0.5695,-11.22298 -15.6986,5.48152 c -8.63427,3.0148 -22.92536,7.32582 -31.758,9.58005 -8.83269,2.25418 -18.73079,5.67874 -21.99588,7.61005 -3.26505,1.93132 -8.07675,4.60646 -10.69262,5.94478 -2.61591,1.33828 -5.12594,3.59834 -5.57791,5.02236 -0.99531,3.13591 -14.8098,15.09854 -24.89828,21.56057 -9.26507,5.93459 -10.516,6.7481 -17.31443,11.26019 -3.06361,2.03333 -6.45436,3.69696 -7.535,3.69696 -1.0806,0 -5.11723,-4.29394 -8.97031,-9.5421 -6.90271,-9.402 -12.39708,-12.48052 -12.44525,-6.97308 -0.0138,1.80204 -0.36563,2.02908 -1.17129,0.76048 -0.88384,-1.3914 -4.30299,-0.96444 -14.82403,1.85122 -7.52138,2.01283 -14.17626,3.96933 -14.78861,4.3478 -0.61234,0.37847 -7.94554,1.71432 -16.29599,2.96851 -8.35044,1.25424 -20.594199,3.93103 -27.208345,5.94845 -12.701504,3.87423 -14.779251,5.65851 -17.986545,15.44646 -2.403876,7.33609 -6.802557,11.61655 -11.937402,11.61655 -2.713306,0 -4.843489,1.02449 -5.783891,2.78162 -0.818786,1.5299 -3.583014,3.51172 -6.142775,4.40405 -5.868258,2.04568 -19.653204,2.10623 -23.396691,0.10276 -7.0229423,-3.75854 -1.111012,-15.77792 14.134747,-28.73706 4.644298,-3.94772 9.78052,-8.66405 11.413872,-10.48072 1.633305,-1.81667 3.676279,-3.32418 4.539931,-3.35005 2.223127,-0.0665 22.207321,-19.2684 21.719159,-20.86891 -0.222037,-0.7274 0.310119,-0.88168 1.181753,-0.34269 0.871864,0.53881 5.017037,-2.26258 9.21148,-6.22535 10.271295,-9.70395 19.634117,-14.94142 31.497797,-17.61954 10.72111,-2.42021 17.96701,-5.54025 17.96701,-7.73649 0,-0.76135 0.99091,-1.00403 2.20202,-0.53927 1.59431,0.6118 2.20202,-0.16469 2.20202,-2.81327 0,-2.32602 1.39934,-4.57516 3.84258,-6.17599 2.11339,-1.38479 7.63703,-5.91986 12.27473,-10.07797 4.63769,-4.15811 12.05388,-9.72712 16.4804,-12.37556 4.42658,-2.64848 9.3075,-5.95675 10.84653,-7.35178 5.89844,-5.34647 11.81859,-8.14694 28.80096,-13.62387 9.65744,-3.11463 20.63944,-7.39486 24.40444,-9.51165 3.765,-2.11683 14.44248,-7.31485 23.72768,-11.55117 16.86998,-7.69681 29.36881,-16.75979 29.35124,-21.2827 -0.009,-2.36805 -0.42114,-3.24001 -8.5529,-18.11174 -2.5393,-4.64389 -4.56241,-9.92875 -4.49579,-11.74413 0.11331,-3.086 -1.11767,-10.22781 -4.49071,-26.05495 -0.77433,-3.63334 -1.43664,-18.199725 -1.47183,-32.36975 -0.0413,-16.591608 -0.63496,-26.334739 -1.66794,-27.367672 -1.16,-1.160008 -1.13954,-2.471864 0.0739,-4.739214 1.37833,-2.575405 1.14051,-3.818355 -1.33199,-6.961653 -1.65547,-2.104722 -3.00989,-5.058783 -3.00989,-6.564692 0,-2.98255 2.91153,-3.643341 5.34238,-1.21249 1.05541,1.055412 1.48522,-0.415173 1.39462,-4.771052 -0.0895,-4.307205 0.44866,-6.180669 1.70409,-5.929638 1.00926,0.201852 1.83502,-0.293603 1.83502,-1.101012 0,-1.948883 5.43758,-1.890575 6.65011,0.07111 0.65033,1.052292 1.6067,0.995406 3.02269,-0.179832 3.19908,-2.655045 6.46739,0.984855 6.52001,7.261312 0.0367,4.329638 0.32434,4.845004 1.54096,2.756292 1.82332,-3.130498 5.54387,-3.357949 6.67585,-0.408292 0.456,1.188497 -2.09807,7.629417 -5.67586,14.313156 l -6.5051,12.152236 0.92137,12.486899 c 0.62482,8.468296 1.99494,14.704658 4.25734,19.378087 1.93512,3.997499 4.21848,13.179802 5.43757,21.867148 2.94076,20.9552 6.03703,29.85505 12.70733,36.5253 3.06238,3.06237 7.15282,9.15166 9.08987,13.53171 3.42245,7.73874 12.29046,17.32218 16.02908,17.32218 1.01665,0 4.35414,-2.64426 7.41665,-5.87615 3.06251,-3.23188 7.32746,-6.29834 9.4776,-6.81439 2.15018,-0.51601 6.36036,-2.16569 9.35599,-3.66596 14.41729,-7.22039 26.77436,-1.12863 31.24997,15.4055 2.31484,8.5517 2.32952,9.66583 0.18213,13.81866 -2.74363,5.30555 -8.88613,10.01059 -14.94784,11.44966 -2.37296,0.56335 -5.70614,2.28492 -7.40702,3.82578 -3.70628,3.35745 -12.97726,5.18742 -14.42371,2.84699 -0.55413,-0.89645 -1.96554,-1.62986 -3.13656,-1.62986 -1.76295,0 -2.10793,3.47172 -2.00563,20.18522 0.0679,11.10187 -0.61794,24.84943 -1.52416,30.55015 -1.15313,7.25392 -1.19685,12.32105 -0.14543,16.88218 0.82613,3.58448 1.5182,9.52302 1.53793,13.19673 0.0183,3.67371 0.67781,7.32141 1.46242,8.10602 2.22019,2.22019 4.38111,20.35092 4.4491,37.32908 0.0807,20.15411 0.59551,20.80775 19.08063,24.22731 10.51989,1.94608 14.91077,3.47589 17.87245,6.227 2.15945,2.00595 3.59063,4.52186 3.18041,5.59094 -1.17111,3.05182 -8.51426,3.96424 -17.27199,2.14615 -6.54565,-1.35884 -8.64501,-1.2814 -11.40653,0.42113 -2.86557,1.76644 -4.36432,1.78731 -9.7757,0.13625 z m 3.82226,-5.10186 c -1.41297,-0.82296 -2.56903,-2.45443 -2.56903,-3.6254 0,-2.42269 1.68652,-2.77198 3.74344,-0.7753 0.76704,0.74456 4.03704,1.81562 7.26668,2.38007 4.81399,0.8414 5.5441,0.67951 4.05191,-0.89852 -1.0011,-1.05862 -2.77836,-2.06545 -3.94947,-2.2373 -6.38018,-0.93641 -12.98304,-4.25151 -15.19654,-7.62979 -1.97108,-3.00828 -2.71509,-8.7485 -3.45562,-26.66027 -0.6167,-14.91779 -1.69643,-24.60679 -3.11632,-27.96465 -1.19496,-2.82593 -2.67481,-10.75322 -3.28863,-17.61619 -1.45558,-16.27443 -1.44925,-15.19883 -0.1624,-27.73775 l 1.11423,-10.85552 -10.75295,1.0149 c -5.91408,0.55822 -13.06502,1.57711 -15.89095,2.26419 l -5.13805,1.24928 6.11896,0.15001 c 7.74943,0.19039 10.76322,1.34856 10.76322,4.13655 0,1.61798 -0.97596,1.95916 -3.67004,1.283 -3.61857,-0.9082 -3.67004,-0.79369 -3.67004,8.16313 0,4.99635 1.59876,16.07409 3.55283,24.61726 1.95406,8.54312 4.84908,22.14873 6.43344,30.23466 1.94746,9.9392 5.07649,19.40084 9.65927,29.20774 3.7283,7.97834 6.77875,15.24745 6.77875,16.15363 0,2.21565 7.35205,6.65489 11.01012,6.64791 2.69628,-0.004 2.72624,-0.12753 0.367,-1.50187 z m -24.58927,-71.81521 c 0,-3.0665 0.62455,-4.44052 1.83502,-4.03704 1.00926,0.33627 1.83502,2.15307 1.83502,4.03704 0,1.88397 -0.82576,3.70064 -1.83502,4.03705 -1.21047,0.4037 -1.83502,-0.97054 -1.83502,-4.03705 z m -2.0332,-37.38275 c -2.78414,-4.24908 -2.92874,-5.18971 -0.79801,-5.18971 2.33887,0 5.76724,3.86469 5.76724,6.5012 0,3.40515 -2.27157,2.80565 -4.96923,-1.31149 z m 48.61211,109.89664 c -0.4878,-0.48784 -1.75396,-0.53995 -2.81369,-0.1156 -1.17106,0.46862 -0.82323,0.81649 0.88692,0.88691 1.54756,0.0638 2.41461,-0.28305 1.92677,-0.77103 z M 36.813094,346.43493 c 1.861583,-1.33911 1.806762,-1.45696 -0.354618,-0.76232 -1.626837,0.52285 -3.897628,-0.62441 -6.243472,-3.15426 -3.149766,-3.3969 -4.060257,-3.70399 -6.251363,-2.10862 -1.41058,1.02706 -3.720732,2.25552 -5.133698,2.72996 -2.686515,0.90205 -3.245966,2.28997 -1.59032,3.94557 1.589999,1.59 17.179137,1.07211 19.573517,-0.65033 z m 11.617284,-12.70912 c 5.387114,-5.14824 7.696532,-11.73532 6.15195,-17.54706 -2.185509,-8.22295 -7.200848,-5.72609 -28.007728,13.94349 -5.937804,5.61324 -6.235444,6.1864 -2.801296,5.39473 2.865797,-0.66065 4.85427,0.0518 7.823516,2.80382 2.189592,2.02926 4.919643,3.32941 6.066714,2.88924 1.339245,-0.5139 2.088804,0.17524 2.094631,1.92576 0.0046,2.11495 0.458984,1.86374 2.016228,-1.1206 1.103902,-2.11569 4.099114,-5.84592 6.655985,-8.28938 z m -18.389104,0.85782 c -1.222766,-1.97847 11.707566,-14.41201 14.98794,-14.41201 1.132987,0 2.059993,0.31103 2.059993,0.69125 0,0.71648 -14.845359,15.45692 -15.566981,15.45692 -0.224331,0 -0.89081,-0.78126 -1.480952,-1.73616 z m 27.126322,-2.06256 c 0.47027,-2.37956 0.234424,-2.46324 -1.915164,-0.67932 -1.348281,1.11899 -3.178943,3.39387 -4.068102,5.05525 -1.559171,2.91337 -1.491092,2.9375 1.915164,0.67937 1.942461,-1.28777 3.773123,-3.56265 4.068102,-5.0553 z m 19.413961,-19.53085 c 6.790354,-2.33493 15.979447,-4.72403 20.420195,-5.30913 4.440748,-0.58505 12.368038,-1.96617 17.616198,-3.06921 5.24816,-1.10303 10.16211,-2.01696 10.91988,-2.03095 0.75782,-0.0138 -0.0679,-1.37246 -1.83502,-3.01874 -3.04586,-2.83768 -4.47291,-8.75094 -2.11179,-8.75085 0.60556,5e-5 2.90067,2.25552 5.10026,5.01227 3.80542,4.76931 4.25004,4.93519 9.1751,3.42369 6.00666,-1.84351 6.76411,-5.55002 2.31699,-11.33763 -2.58738,-3.36726 -3.20808,-3.51438 -8.40848,-1.99301 -12.10732,3.54186 -44.132095,15.10744 -50.38933,18.19775 -7.740803,3.82308 -16.148176,9.98086 -16.148176,11.82739 0,1.72043 -0.680288,1.8709 13.344173,-2.95158 z m 1.335987,-12.56507 c 5.248157,-2.6378 15.157265,-6.62883 22.02024,-8.86897 6.862976,-2.24006 13.138746,-4.58622 13.946156,-5.21366 0.80741,-0.62744 5.76196,-2.22634 11.01012,-3.55315 5.24816,-1.32681 12.33936,-3.45351 15.75819,-4.72596 l 6.21613,-2.31364 -5.84913,-6.9861 c -3.21697,-3.8424 -5.84908,-7.72025 -5.84908,-8.61744 0,-2.29277 -1.46168,-2.05137 -7.64469,1.26249 -2.96957,1.59156 -10.33038,4.18541 -16.35737,5.76403 -10.23386,2.68051 -20.038422,6.70764 -20.038422,8.23062 0,0.80254 7.359898,-2.25478 9.844792,-4.08962 2.13706,-1.57793 5.24669,0.0275 3.9903,2.061 -1.31723,2.13133 -17.014907,9.24084 -20.547916,9.30617 -2.737529,0.0505 -9.561464,5.23467 -25.729826,19.54654 l -5.434044,4.81009 3.11045,3.49205 3.110451,3.49208 4.450749,-4.40024 c 2.447917,-2.42011 8.744742,-6.55845 13.9929,-9.19629 z m 35.585496,-19.87006 c -2.21377,-3.5448 -2.34264,-6.86439 -0.31517,-8.11748 0.82833,-0.51188 2.21414,1.10064 3.07967,3.58342 0.86549,2.48279 2.20858,4.51415 2.98466,4.51415 0.77608,0 1.00279,0.66061 0.50376,1.46802 -1.45604,2.35598 -4.28665,1.70042 -6.25292,-1.44811 z m 18.56494,-6.21787 c -0.97981,-1.83929 -2.8296,-4.12274 -4.11067,-5.07434 -2.08973,-1.55219 -2.04151,-1.84162 0.46843,-2.81381 4.55934,-1.76603 10.88566,7.85663 6.81806,10.37056 -0.7669,0.47399 -2.19601,-0.64312 -3.17582,-2.48241 z m 53.01474,32.67056 c 2.82593,-2.12468 9.00196,-6.14264 13.72452,-8.9288 8.76535,-5.17117 22.97588,-17.96236 22.97588,-20.68104 0,-0.82869 -2.21616,-4.26027 -4.92474,-7.62579 -2.70853,-3.36557 -7.06281,-10.4131 -9.6761,-15.66125 -2.6133,-5.24816 -5.90427,-10.86332 -7.31329,-12.47814 -6.9172,-7.92765 -9.43274,-13.23591 -10.25685,-21.6442 l -0.85938,-8.76828 -8.8081,6.43175 c -4.84445,3.53746 -12.44143,8.68886 -16.88218,11.44754 -4.44075,2.75877 -8.34531,5.21687 -8.6768,5.46249 -0.33122,0.24589 0.42067,1.60674 1.67188,3.02466 1.83062,2.07486 2.03949,4.26321 1.0701,11.2123 -1.27764,9.15899 -3.58618,13.39197 -5.12145,9.39103 -0.48202,-1.25611 -0.13167,-6.38977 0.77809,-11.40804 0.90999,-5.01828 1.31736,-9.46132 0.90522,-9.87346 -0.41197,-0.41197 -4.69371,2.68146 -9.51467,6.87458 -8.4667,7.36412 -8.70539,7.76654 -7.00492,11.81069 0.9682,2.30272 4.38253,7.50152 7.5874,11.55278 6.00537,7.59148 8.5461,8.30159 13.9011,3.88515 4.74504,-3.91341 15.99862,-8.48426 18.51301,-7.5194 2.44975,0.94003 -3.02544,4.53947 -19.61402,12.8945 -1.81667,0.91498 -3.30304,2.51072 -3.30304,3.54604 0,3.56131 8.60533,16.51018 20.65191,31.07588 1.6907,2.04425 2.57311,1.69555 10.17643,-4.02099 z m 3.59223,-12.89345 c 2.74134,-11.35675 3.95543,-15.0022 5.2661,-15.81223 2.04664,-1.26492 3.507,3.37584 1.74799,5.55479 -0.80649,0.99899 -1.92934,4.62393 -2.4953,8.05542 -0.68502,4.15338 -1.7752,6.23907 -3.26116,6.23907 -1.69262,0 -1.99659,-0.97578 -1.25763,-4.03705 z m 18.19684,-15.92348 c -0.49834,-8.1423 0.33306,-10.41731 3.1672,-8.66579 2.40466,1.48619 1.85915,16.88219 -0.59817,16.88219 -1.47022,0 -2.2112,-2.36993 -2.56903,-8.2164 z m -16.51201,-7.23805 c -2.3458,-1.22332 -5.097,-3.36194 -6.11379,-4.75252 -4.2232,-5.77554 -7.70818,-42.73881 -4.14301,-43.9423 1.59513,-0.53845 2.00971,1.97916 4.84762,29.43807 1.21262,11.73276 1.48705,12.21789 9.30722,16.45243 4.18517,2.2662 5.40349,5.05337 2.20202,5.03759 -1.00926,-0.004 -3.75431,-1.00995 -6.10006,-2.23327 z m 7.44573,-7.54445 c -1.47017,-1.47018 -1.17781,-12.23349 0.33214,-12.23349 1.7874,0 3.09311,3.76881 3.09311,8.92816 0,4.10324 -1.33718,5.39353 -3.42539,3.30533 z m -43.23569,30.61074 c 0.62767,-0.62766 -0.15276,-3.67958 -1.73464,-6.78205 -1.58175,-3.10246 -3.09931,-6.31118 -3.3724,-7.13047 -0.28856,-0.86586 -2.09367,-0.44316 -4.31028,1.00917 -3.6544,2.39442 -3.72225,2.6822 -1.62445,6.88733 1.20409,2.4137 1.78611,5.43909 1.29336,6.7232 -0.74593,1.94388 -0.10046,2.17559 3.85566,1.38433 2.61334,-0.52266 5.26508,-1.46384 5.89275,-2.09151 z m 81.03802,-25.9508 c 4.68265,-2.81979 11.24986,-5.85069 14.59377,-6.7354 3.34392,-0.88466 9.38292,-2.51847 13.41996,-3.63063 4.03705,-1.11216 9.32191,-2.44989 11.74413,-2.97273 8.91292,-1.92393 23.9494,-8.42954 23.31352,-10.08674 -1.12404,-2.92906 5.75444,-7.85311 14.12089,-10.10862 4.44075,-1.19722 6.61048,-2.23675 4.82165,-2.31011 -5.563,-0.228 -15.15951,-11.25124 -15.04895,-17.28607 0.0528,-2.89236 0.0413,-2.90291 8.4404,8.07432 1.84319,2.4091 4.98107,4.78926 6.97308,5.28921 1.99205,0.5 3.62192,1.88737 3.62192,3.08311 0,1.65368 1.91181,2.17404 7.98743,2.17404 4.39308,0 8.38879,-0.64937 8.87929,-1.44306 0.4905,-0.79365 0.45692,-3.76078 -0.0743,-6.59359 -0.8442,-4.50016 -1.39929,-5.0419 -4.39547,-4.28991 -4.16054,1.04422 -11.35749,-3.18592 -7.76548,-4.56434 1.2113,-0.46481 4.01085,-0.15735 6.22113,0.68281 2.21033,0.84035 4.30606,1.52793 4.65724,1.52793 0.35094,0 0.63845,-3.32625 0.63845,-7.39174 0,-7.0701 -0.13488,-7.31943 -3.10394,-5.73053 -1.86998,1.00077 -5.6703,1.2763 -9.55949,0.69308 -5.71696,-0.85732 -6.81898,-1.67129 -9.63188,-7.11455 -1.74699,-3.38061 -3.566,-8.4522 -4.04223,-11.27019 l -0.8659,-5.12365 -4.99736,6.95867 c -5.00873,6.97454 -7.43564,8.62147 -7.43564,5.04585 0,-2.61826 8.65575,-14.19508 10.7701,-14.40468 0.93939,-0.0931 2.36865,-0.25966 3.17605,-0.36976 0.80741,-0.1101 3.13303,-1.75015 5.16802,-3.64458 l 3.70004,-3.44433 -6.5512,-6.55121 -6.55121,-6.55125 -10.36098,2.47792 c -10.75739,2.5727 -16.83842,5.54314 -23.01212,11.24097 -1.99122,1.83768 -6.52239,4.66251 -10.06926,6.27733 -3.54686,1.61481 -15.33209,7.39315 -26.18945,12.84073 -10.85731,5.44763 -22.46092,10.60752 -25.78579,11.46649 -3.32487,0.85898 -8.85278,2.6022 -12.28427,3.87387 -6.17993,2.29019 -6.23906,2.38052 -6.23906,9.52568 0,7.90453 1.7918,12.22219 8.63831,20.81504 2.48613,3.12027 6.48881,9.83966 8.89484,14.93202 4.09783,8.67308 12.31069,19.76518 14.63461,19.76518 0.56941,0 4.86656,-2.30707 9.54926,-5.12681 z m -3.93149,-10.42553 c -1.70294,-1.70295 0.57831,-37.64057 2.83341,-44.63631 3.13467,-9.72405 9.16799,-22.02024 10.8046,-22.02024 2.27451,0 1.70941,2.52994 -2.92209,13.08236 -3.61407,8.23438 -4.60989,13.15842 -5.90582,29.20274 -1.56028,19.31748 -2.92902,26.25253 -4.8101,24.37145 z m 9.19098,-0.42297 c 0,-2.50825 3.27005,-10.44911 4.30298,-10.44911 2.30703,0 2.73886,1.8853 1.34663,5.87917 -1.3386,3.83983 -5.64961,7.32701 -5.64961,4.56994 z m 14.04496,-0.6352 c 0.40738,-1.0616 6.4089,-4.79155 13.33679,-8.28874 12.62393,-6.37265 22.36481,-8.36535 23.60175,-4.82821 0.42619,1.21919 -0.93342,1.83502 -4.05181,1.83502 -2.58142,0 -7.09557,1.2563 -10.03146,2.7918 -19.98456,10.45227 -24.21061,12.02213 -22.85527,8.49013 z m -5.23687,-1.54183 c 0,-1.10225 1.32122,-3.68371 2.93603,-5.73664 1.61482,-2.05288 2.93847,-4.28894 2.9415,-4.969 0.003,-0.68006 1.3819,-3.49425 3.0642,-6.25379 4.28945,-7.03611 6.23522,-3.18271 2.41562,4.78394 -5.4946,11.46034 -11.35735,17.74538 -11.35735,12.17549 z m -38.89036,-12.65659 c -0.60418,-0.97756 0.20461,-3.52021 1.81066,-5.69255 1.59638,-2.15922 3.39447,-5.56461 3.9958,-7.56753 0.6013,-2.00288 1.87452,-4.96286 2.82942,-6.57768 0.9549,-1.61481 2.59293,-4.9051 3.64004,-7.31177 1.85332,-4.25959 1.82933,-4.30831 -0.90361,-1.83502 -2.88107,2.60733 -6.29104,3.40057 -6.18911,1.43971 0.12203,-2.34286 15.93394,-18.62954 17.02628,-17.5372 0.63556,0.63556 0.40233,2.36195 -0.51871,3.83643 -1.14689,1.83649 -1.19873,3.15638 -0.1647,4.1905 1.03417,1.03413 0.53867,2.48058 -1.57316,4.59242 -1.69556,1.69555 -3.08283,3.48236 -3.08283,3.97066 0,0.4883 -1.53977,3.95648 -3.42172,7.70708 -1.8819,3.7506 -3.87093,8.47078 -4.41997,10.4893 -1.47136,5.40922 -7.6757,12.48442 -9.02843,10.29565 z m 47.69846,-35.30358 c 0,-0.83581 1.0967,-3.31308 2.43709,-5.50506 13.63479,-22.29682 17.0088,-26.96512 18.44837,-25.52559 0.78805,0.7881 -1.78024,6.31366 -6.33738,13.63466 -4.21435,6.77031 -8.56633,13.79596 -9.6711,15.61262 -2.08,3.42039 -4.87698,4.44314 -4.87698,1.78337 z m 35.28441,-15.72952 c 0.0775,-3.81753 3.03049,-8.32145 8.38906,-12.79399 5.38781,-4.49694 6.95877,-1.75203 1.71382,2.99457 -1.68147,1.52169 -3.95988,4.92712 -5.06314,7.56763 -2.14826,5.1414 -5.12539,6.45982 -5.03974,2.23179 z m 40.63583,8.98348 c 0.30048,-0.91567 -1.73424,-2.08711 -4.5387,-2.61325 -6.71493,-1.25974 -12.26844,-9.81506 -9.8363,-15.15309 2.12004,-4.65292 1.9893,-5.49593 -0.52821,-3.40658 -3.59705,2.9853 -4.12357,9.48806 -1.26777,15.65791 1.45278,3.13866 3.30203,6.20938 4.10944,6.82379 2.1499,1.63606 11.42575,0.62955 12.06154,-1.30878 z m 19.63361,-7.62276 c 10.10743,-6.54281 16.81796,-10.99278 17.48338,-11.59371 0.40371,-0.36471 -0.65538,-1.78942 -2.3535,-3.16628 -4.41304,-3.57829 -6.45459,-8.01569 -6.45459,-14.02951 0,-4.94326 -0.26975,-5.23457 -4.84446,-5.23457 -6.92027,0 -8.62519,2.24739 -5.64823,7.44545 2.3379,4.08223 2.2962,4.34125 -1.25144,7.7665 -4.46525,4.31119 -14.68016,6.62235 -14.68016,3.32143 0,-1.18354 1.81667,-2.55091 4.03704,-3.03861 3.30084,-0.72497 4.03705,-1.68322 4.03705,-5.25467 0,-2.40241 -0.67272,-4.36804 -1.49495,-4.36804 -3.13775,0 -16.1957,12.25289 -17.75951,16.66455 -1.90837,5.38367 0.5734,12.01411 4.92134,13.14801 6.40335,1.67001 20.35359,0.70511 24.00803,-1.66055 z m -23.85499,-4.29675 c -1.18629,-1.41296 -2.0499,-3.55994 -1.91911,-4.77105 0.13075,-1.21111 0.33857,-3.35809 0.46142,-4.77105 0.36563,-4.20183 2.91915,-2.92374 4.39941,2.20202 0.75782,2.62408 1.85044,5.92712 2.4281,7.34008 0.7152,1.74937 0.37022,2.56903 -1.08128,2.56903 -1.17235,0 -3.1022,-1.15606 -4.28854,-2.56903 z m 21.49433,-1.33654 c -2.73129,-2.73129 -2.68996,-4.84454 0.16744,-8.57257 2.23364,-2.91401 2.2718,-2.91002 5.0914,0.52964 1.56248,1.90612 2.84084,4.63668 2.84084,6.06786 0,3.43194 -5.34078,4.73421 -8.09996,1.97507 z m -12.45231,-4.16852 c 0,-1.21111 0.66061,-2.20202 1.46802,-2.20202 0.8074,0 1.46801,0.99091 1.46801,2.20202 0,1.21111 -0.66061,2.20202 -1.46801,2.20202 -0.80741,0 -1.46802,-0.99091 -1.46802,-2.20202 z m -52.14824,-24.32819 c -0.53101,-1.67313 -0.52381,-4.80165 0.0138,-6.95234 0.83195,-3.31483 1.18854,-3.5403 2.34121,-1.48054 0.74791,1.33635 1.49458,4.0581 1.65927,6.04827 l 0.29957,3.61848 7.40096,-2.18248 c 4.07053,-1.20038 7.65561,-2.42448 7.96683,-2.72019 0.93269,-0.88622 -3.83029,-7.43417 -9.20364,-12.65269 -6.28237,-6.10135 -11.06365,-18.85406 -12.61764,-33.65409 -1.68244,-16.023164 -3.03164,-23.186073 -4.54328,-24.120328 -2.16253,-1.336491 -6.0624,-16.617758 -6.28793,-24.638768 -0.18671,-6.640158 -0.61225,-7.563631 -3.87973,-8.419393 l -3.67004,-0.961183 3.99557,-1.621929 c 2.36525,-0.960128 5.02915,-3.889416 6.52863,-7.179057 1.3932,-3.056455 2.80497,-6.103092 3.13724,-6.770398 0.33214,-0.667259 -0.75887,-0.361957 -2.42484,0.678453 -3.73133,2.330246 -5.75054,0.717126 -3.09999,-2.476589 1.33108,-1.603853 0.23259,-1.335573 -3.46557,0.846312 -6.41716,3.786196 -8.6662,6.60208 -4.1209,5.159433 3.71192,-1.178082 3.76807,-0.902783 0.92691,4.544886 -3.21422,6.162961 -3.1282,52.519099 0.11836,63.706571 1.28112,4.41488 2.76748,11.33006 3.30303,15.3671 0.60217,4.53911 1.70107,7.34008 2.8797,7.34008 2.70757,0 8.21355,12.68201 6.07883,14.00139 -1.14267,0.70616 -0.70933,2.8419 1.4259,7.02721 1.68707,3.30703 3.06746,7.02996 3.06746,8.27323 0,1.24327 0.70511,2.26052 1.56693,2.26052 0.91709,0 1.16652,-1.26162 0.60147,-3.04196 z m -11.86781,-43.56755 c -2.32171,-2.32171 -2.33924,-2.6133 -0.18167,-3.02884 2.87254,-0.5533 8.4132,2.20051 8.4132,4.18151 0,2.35717 -5.49033,1.58834 -8.23139,-1.15267 z m -2.60394,-11.41208 c -2.44934,-2.44934 -3.33786,-10.975166 -1.14372,-10.975166 1.50251,0 5.43524,11.437266 4.31716,12.555346 -0.43811,0.43811 -1.86622,-0.27296 -3.17344,-1.58018 z m 0.74139,-78.895358 c -1.4498,-1.439068 -1.61844,-1.27043 -0.82176,0.821768 0.55128,1.447785 1.37213,2.262534 1.8241,1.810568 0.45187,-0.451873 9.6e-4,-1.636516 -1.00234,-2.632336 z"
     id="path817"
     inkscape:connector-curvature="0" />
</svg>
