<?xml version="1.0" encoding="UTF-8" standalone="no"?>
<svg
   id="svg"
   version="1.1"
   width="400"
   height="377.93103448275866"
   viewBox="0, 0, 400,377.93103448275866"
   sodipodi:docname="B14T.svg"
   inkscape:version="1.3 (0e150ed6c4, 2023-07-21)"
   xmlns:inkscape="http://www.inkscape.org/namespaces/inkscape"
   xmlns:sodipodi="http://sodipodi.sourceforge.net/DTD/sodipodi-0.dtd"
   xmlns="http://www.w3.org/2000/svg"
   xmlns:svg="http://www.w3.org/2000/svg"
   xmlns:rdf="http://www.w3.org/1999/02/22-rdf-syntax-ns#"
   xmlns:cc="http://creativecommons.org/ns#"
   xmlns:dc="http://purl.org/dc/elements/1.1/">
  <metadata
     id="metadata11">
    <rdf:RDF>
      <cc:Work
         rdf:about="">
        <dc:format>image/svg+xml</dc:format>
        <dc:type
           rdf:resource="http://purl.org/dc/dcmitype/StillImage" />
      </cc:Work>
    </rdf:RDF>
  </metadata>
  <defs
     id="defs9" />
  <sodipodi:namedview
     pagecolor="#ffffff"
     bordercolor="#666666"
     borderopacity="1"
     objecttolerance="10"
     gridtolerance="10"
     guidetolerance="10"
     inkscape:pageopacity="0"
     inkscape:pageshadow="2"
     inkscape:window-width="1366"
     inkscape:window-height="705"
     id="namedview7"
     showgrid="false"
     inkscape:zoom="0.31222628"
     inkscape:cx="376.32963"
     inkscape:cy="206.58095"
     inkscape:window-x="1198"
     inkscape:window-y="1090"
     inkscape:window-maximized="1"
     inkscape:current-layer="svg"
     inkscape:showpageshadow="0"
     inkscape:pagecheckerboard="0"
     inkscape:deskcolor="#d1d1d1" />
  <path
     style="fill:#ffffff;stroke-width:3.96566"
     d="m 139.32661,314.47221 c 0.43138,-0.69795 1.60716,-1.26901 2.61293,-1.26901 1.00573,0 1.8286,0.57106 1.8286,1.26901 0,0.69796 -1.17581,1.26901 -2.61289,1.26901 -1.43711,0 -2.25998,-0.57105 -1.82864,-1.26901 z m 13.32461,-1.90351 c 0,-2.77826 -0.5506,-3.17253 -4.43083,-3.17253 -4.17108,0 -4.4064,-0.22366 -4.01356,-3.81202 0.38228,-3.49232 2.09933,-7.03436 2.09933,-4.33078 0,0.63978 1.71317,1.16325 3.80704,1.16325 h 3.80703 l 0.23476,-10.78659 c 0.16775,-7.70186 0.36802,-8.88132 0.70081,-4.12428 0.25618,3.66427 1.00728,6.6623 1.66879,6.6623 0.66147,0 1.20267,1.42764 1.20267,3.17253 0,1.97402 0.71913,3.17252 1.90351,3.17252 1.04693,0 1.90352,0.79313 1.90352,1.76254 0,0.96936 -0.92817,1.68318 -2.06262,1.58626 -1.31382,-0.11223 -2.67186,1.55141 -3.74061,4.58252 -1.41744,4.01998 -1.40439,4.75878 0.0841,4.75878 0.96921,0 2.11513,0.57106 2.54647,1.26901 0.44483,0.71973 -0.6213,1.26901 -2.46311,1.26901 -2.61793,0 -3.24743,-0.61499 -3.24743,-3.17252 z m 219.67928,-4.75879 c -2.05964,-5.51845 -6.17703,-26.33196 -5.20905,-26.33196 0.53846,0 1.34257,1.85593 1.78693,4.12428 0.44431,2.26836 1.87361,8.83549 3.17625,14.59362 2.30385,10.1842 2.40795,13.40693 0.24587,7.61406 z m 13.81857,0.31725 c 0,-0.69795 2.25055,-1.26901 5.00117,-1.26901 2.75062,0 5.35407,0.57106 5.78541,1.26901 0.47906,0.77513 -1.46733,1.26901 -5.00113,1.26901 -3.182,0 -5.78545,-0.57105 -5.78545,-1.26901 z m -231.95759,-50.44315 0.27125,-14.91087 0.40477,14.27637 0.40482,14.27636 h 104.01726 c 82.38521,0 104.01049,-0.32994 103.98471,-1.58626 -0.0198,-0.87245 -1.14536,-6.44023 -2.50546,-12.37285 -2.56646,-11.19481 -3.05665,-14.90072 -1.80549,-13.64959 0.58188,0.58188 6.88153,26.58778 6.88153,28.40794 0,0.25856 -47.68306,0.46977 -105.96234,0.46977 h -105.9623 z m -46.37859,0.10589 c -1.6264,-1.6264 -0.84132,-15.78625 1.08139,-19.50437 1.31533,-2.54357 1.84788,-6.8086 1.67692,-13.43021 -0.21375,-8.28573 0.10707,-9.96784 2.19685,-11.51667 1.68465,-1.24846 3.63385,-1.50881 6.2544,-0.83532 10.35139,2.6602 21.31449,0.0397 39.33931,-9.40963 6.99843,-3.66819 18.01253,-4.48758 23.17597,-1.72419 3.65796,1.95769 3.58955,1.54101 -0.94942,-5.78252 -3.95054,-6.37416 -6.36392,-15.94166 -6.36392,-25.22919 v -5.44604 l -7.29681,-0.72365 c -17.79739,-1.76507 -29.30311,-5.79676 -40.52366,-14.19983 -2.22176,-1.66391 -5.15008,-3.02528 -6.50732,-3.02528 -3.13089,0 -11.28138,-3.37715 -15.66367,-6.49023 -2.74455,-1.94968 -5.682436,-2.39701 -15.862636,-2.41541 -6.87181,-0.0119 -17.60002,-0.55955 -23.84049,-1.21595 -7.58686,-0.798 -15.57579,-0.73503 -24.11119,0.18996 -7.02068,0.76093 -15.31747,1.56354 -18.43729,1.78363 -3.11986,0.2201 -7.81794,1.3676 -10.44019,2.55008 -3.88051,1.74988 -5.12739,1.85148 -6.70045,0.54599 -3.10325,-2.5755 -2.24484,-6.87994 2.17179,-10.89064 3.42784,-3.11277 3.68933,-3.20418 1.58626,-0.55464 -1.385,1.74489 -3.08924,3.59205 -3.7872,4.10485 -0.73904,0.54294 -0.44756,0.94042 0.69796,0.95176 1.08183,0.0119 2.55138,-0.56503 3.26568,-1.27932 2.27684,-2.27681 6.64148,-2.41608 12.55653,-0.40061 6.75566,2.30186 10.16549,0.73824 8.95009,-4.10418 -0.81121,-3.23209 4.02566,-9.96744 5.17328,-7.20381 0.42425,1.02163 2.99253,1.51032 7.21528,1.37291 5.90161,-0.19194 6.05579,-0.26451 1.54351,-0.72627 -3.21147,-0.32876 -6.5337,-1.84812 -9.24446,-4.22819 -5.10563,-4.48281 -5.84284,-4.54686 -8.81677,-0.76612 -2.83211,3.60042 -12.86633,10.39014 -13.87075,9.38572 -0.39966,-0.39966 1.18236,-1.68743 3.51555,-2.86174 2.33324,-1.17427 6.56899,-4.37773 9.4128,-7.11875 5.46262,-5.26516 8.64212,-5.54506 10.11933,-0.89081 1.58226,4.98531 5.70773,5.39754 17.85477,1.78407 6.19888,-1.84403 14.57438,-4.54837 18.61226,-6.00971 9.1889,-3.32544 16.4468,-2.65509 28.00768,2.58688 12.221286,5.54137 20.862056,7.04697 30.655486,5.34154 10.38796,-1.80902 20.96151,-0.61242 30.14006,3.41082 6.81898,2.98899 7.47015,3.06478 9.61993,1.11923 4.0717,-3.68485 20.59548,-8.74364 26.1399,-8.00278 3.5407,0.4731 5.95233,0.0238 8.24857,-1.54403 1.7847,-1.2169 6.95679,-3.77677 11.4935,-5.68857 10.39133,-4.37896 25.73937,-12.089306 32.35976,-16.256496 7.91346,-4.981097 12.8808,-6.026287 28.10163,-5.912867 7.7784,0.0579 14.75728,-0.27442 15.50861,-0.73892 0.75133,-0.46434 1.75167,-3.75139 2.22303,-7.3045 1.4805,-11.16043 11.21329,-18.91146 21.35716,-17.00847 10.43007,1.9567 19.66184,13.71566 17.28217,22.01313 -1.66835,5.81722 -3.80469,9.173947 -5.83863,9.173947 -1.02235,0 -1.85887,1.0279 -1.85887,2.28422 0,1.25632 -0.68526,2.96948 -1.52281,3.80703 -1.18438,1.184376 -0.97289,1.545046 0.95176,1.622976 1.82503,0.0738 1.97835,0.29465 0.58398,0.84171 -1.03979,0.40783 -3.84038,2.58101 -6.22346,4.82934 -4.26007,4.01911 -4.40902,4.05599 -8.86269,2.19515 -4.13162,-1.72629 -4.92312,-1.68997 -9.00466,0.4133 -2.46116,1.26829 -4.60896,2.36765 -4.7729,2.443 -0.16378,0.0754 0.78476,2.26094 2.10822,4.85686 1.32346,2.59588 2.80404,7.69643 3.29011,11.33452 0.48611,3.63809 1.82162,7.67327 2.96782,8.9671 1.62219,1.8311 2.13784,5.40428 2.32696,16.12444 0.13365,7.57465 0.80908,14.82993 1.50105,16.1229 1.96006,3.66244 5.22701,24.18959 5.23149,32.87124 0.004,10.63197 0.62951,11.83416 6.16763,11.8825 4.8655,0.0424 9.67608,2.66476 8.09307,4.41159 -0.5126,0.56566 0.0972,0.6585 1.35463,0.20622 1.54989,-0.55726 1.99393,-0.34858 1.3781,0.64798 -0.6123,0.99074 -0.19828,1.19763 1.26901,0.63451 1.19767,-0.45962 1.91585,-0.4139 1.59594,0.10152 -0.32003,0.51546 8.52517,0.75482 19.65574,0.53191 18.70421,-0.37475 20.67296,-0.19431 25.98718,2.37817 7.06339,3.41931 9.51187,8.60492 6.4085,13.57254 -0.78171,1.25124 -26.94854,1.58626 -123.90626,1.58626 -67.60342,0 -123.81858,-0.3466 -124.92262,-0.77029 -1.19033,-0.45676 -2.0073,-2.26447 -2.0073,-4.44153 0,-5.52321 -4.33105,-4.80701 -10.27878,1.69972 -4.70644,5.14877 -8.02244,10.80359 -11.54736,19.69198 -1.5635,3.94246 -3.42105,5.10324 -5.24604,3.27825 z m 4.26094,-6.45082 c 2.73511,-10.11595 16.55324,-25.24192 21.869,-23.9388 1.22666,0.30059 2.93982,-0.45241 3.80703,-1.67359 2.51375,-3.53974 6.74563,-5.19564 11.30772,-4.4246 4.00539,0.67698 4.09838,0.60952 1.76483,-1.27996 -2.47235,-2.0019 -4.43527,-2.36757 -11.4958,-2.14169 -3.53665,0.11302 -3.60423,0.0357 -0.95176,-1.09365 1.5704,-0.66853 2.85527,-1.501 2.85527,-1.84998 0,-0.34897 -1.28487,-0.15902 -2.85527,0.42175 -3.88384,1.43672 -3.47336,3.1207 1.02374,4.19959 2.49396,0.59838 1.83752,0.69823 -1.9755,0.3006 -3.1408,-0.32756 -7.56647,-0.0567 -9.83482,0.60159 -2.5312,0.73472 -4.12429,0.74114 -4.12429,0.0159 0,-0.64922 -0.92649,-1.18042 -2.05889,-1.18042 -1.57853,0 -1.72914,-0.39736 -0.64553,-1.70301 1.86505,-2.24726 0.56571,-3.37303 -3.893,-3.37303 -4.74408,0 -5.97862,3.353 -4.56162,12.38915 0.91726,5.8493 0.68229,7.78442 -1.49005,12.27188 -2.60754,5.38643 -3.65269,18.48531 -1.47495,18.48531 0.60726,0 1.83749,-2.71251 2.73389,-6.02779 z m 175.09245,-18.12547 c 3.83876,-0.44728 -25.28502,-0.8494 -64.71951,-0.89358 -39.43449,-0.044 -70.27143,0.38586 -68.52654,0.95588 3.68389,1.20326 122.8625,1.1475 133.24605,-0.0623 z m 46.57608,-6.86427 c -2.65036,-0.94541 -7.06715,-3.20679 -9.81512,-5.02532 -2.74792,-1.81849 -6.24638,-3.49716 -7.77431,-3.73034 -1.64487,-0.25102 -2.86055,-1.41367 -2.98027,-2.85031 -0.41707,-5.00307 -2.25578,-8.43503 -6.76692,-12.63054 -2.55519,-2.37642 -4.24063,-4.33621 -3.74544,-4.35508 0.49523,-0.0198 2.41532,1.53606 4.26689,3.45543 l 3.36644,3.48978 -0.78722,-3.43382 c -0.84885,-3.70269 -2.31642,-7.20021 -5.38064,-12.82315 -2.18286,-4.00567 -1.33706,-9.26147 0.95192,-5.91513 0.89512,1.30858 0.9811,0.53794 0.28711,-2.5736 -0.54484,-2.44284 -0.82938,-8.72444 -0.63229,-13.95911 0.1971,-5.23466 -0.26094,-10.94521 -1.0177,-12.6901 -1.12125,-2.58489 -1.27274,-1.67061 -0.818,4.93633 0.30694,4.45986 -0.0547,11.03052 -0.80368,14.60143 l -1.36184,6.49257 -3.78415,-3.53494 c -2.08126,-1.9442 -4.07352,-3.2455 -4.42722,-2.8918 -1.00363,1.00363 3.55632,14.79955 6.51609,19.71415 2.69074,4.46787 3.43164,6.53029 3.73525,10.39776 0.092,1.17014 0.57625,1.87464 1.0764,1.56556 1.80211,-1.1138 2.97662,2.41488 3.46083,10.39787 0.30099,4.95981 5.54387,9.01517 12.9734,10.0347 3.77202,0.51763 8.00032,1.40376 9.39623,1.9691 1.39591,0.56539 3.96566,1.03912 5.71055,1.05273 2.5492,0.0198 2.22572,-0.31289 -1.64631,-1.69417 z m 9.75298,-1.74711 c 0.35334,-0.57165 -1.12177,-0.78048 -3.27789,-0.46402 -2.68769,0.39458 -3.64337,0.12729 -3.0396,-0.84957 0.5546,-0.89738 0.18044,-1.15622 -1.01088,-0.6991 -1.04036,0.39922 -4.86824,-0.76926 -8.50642,-2.59659 -4.76977,-2.39574 -6.11885,-2.72314 -4.83663,-1.1738 3.9354,4.7553 18.74586,8.8987 20.67142,5.78308 z m -184.49907,-3.4868 c 0,-0.39538 -1.42764,-2.59093 -3.17253,-4.8786 -1.74489,-2.28766 -3.17252,-4.8193 -3.17252,-5.62587 0,-1.68921 -2.07226,-1.76087 -5.71055,-0.19749 -2.20054,0.94565 -2.03184,1.11435 1.26901,1.26901 2.93498,0.13761 3.27682,0.38744 1.49236,1.09051 -3.29582,1.29876 -2.88986,2.56677 1.90752,5.95804 4.01986,2.84171 7.38671,3.9285 7.38671,2.38436 z m 36.80129,0.0436 c 0,-1.55581 -5.79462,-2.77156 -7.32584,-1.53701 -1.18502,0.95544 -1.43204,0.82473 -0.92725,-0.49067 0.37832,-0.98618 1.96189,-2.58633 3.51881,-3.55589 2.52263,-1.57095 2.65441,-1.54938 1.2104,0.19828 -1.37272,1.66153 -1.14572,2.08039 1.48541,2.74075 4.3113,1.08207 6.7488,-0.12651 7.67168,-3.8035 0.43246,-1.72292 1.19779,-2.87994 1.70079,-2.57114 0.50301,0.30893 1.00181,-2.66587 1.1084,-6.61039 0.10668,-3.94452 1.38751,-12.02581 2.84639,-17.95843 1.45889,-5.93263 2.61115,-13.92739 2.56055,-17.76615 l -0.092,-6.97955 -1.71872,7.91069 c -0.94529,4.35088 -2.88545,11.48906 -4.3115,15.86263 -1.42601,4.37356 -3.17209,9.95062 -3.88016,12.39347 -0.94882,3.27345 -1.09821,3.44032 -0.56804,0.6345 0.39577,-2.09387 1.02909,-11.74592 1.40757,-21.44901 0.63443,-16.26387 0.51915,-17.57709 -1.47558,-16.81164 -1.19005,0.45668 -4.38122,1.1849 -7.09143,1.6183 -4.71009,0.75316 -4.84527,0.90556 -3.06156,3.45215 1.02631,1.46527 1.79981,3.82198 1.71883,5.23708 -0.11143,1.94524 -0.28275,2.0629 -0.70247,0.48238 -0.6236,-2.34794 -5.49537,-4.13931 -5.49537,-2.0207 0,0.74892 -0.33391,1.0279 -0.74174,0.61996 -0.40799,-0.40799 -1.83562,0.19471 -3.17252,1.33951 -4.20253,3.59832 -2.18322,17.17423 3.38238,22.73983 0.99963,0.99963 2.40494,2.91508 3.12288,4.25658 2.42567,4.53243 3.75314,2.4783 3.95935,-6.12674 0.19749,-8.24647 0.23318,-8.13864 0.95616,2.89187 0.60639,9.25303 1.30284,12.15946 3.61949,15.10459 1.57778,2.00579 2.60794,3.90764 2.28926,4.22628 -1.0647,1.0647 -8.33922,-2.83266 -8.33922,-4.46778 0,-4.85873 -18.27894,-9.59257 -25.4964,-6.60302 -2.02994,0.84084 -3.69861,1.88781 -3.70816,2.32661 -0.008,0.4388 -0.33709,1.98933 -0.72826,3.44568 -0.51704,1.92556 0.20701,3.24934 2.65414,4.85277 3.2606,2.13642 13.91271,4.00548 12.83135,2.25143 -0.29464,-0.47798 2.21344,-0.87899 5.5735,-0.89117 5.33186,-0.0198 5.96403,0.24905 4.96805,2.11017 -0.62764,1.1728 -1.86152,2.42254 -2.74197,2.77723 -0.88046,0.35453 1.68275,0.69002 5.69599,0.74511 4.01324,0.0551 7.29681,-0.20384 7.29681,-0.57522 z m 3.32932,-10.16025 c -0.43523,-1.13414 -0.7551,-2.72917 -0.71084,-3.54451 0.044,-0.81538 0.62757,-0.11461 1.29626,1.55704 0.66872,1.67172 0.98859,3.26675 0.71084,3.5445 -0.2776,0.2776 -0.86106,-0.42294 -1.29626,-1.55703 z m 9.36078,7.02861 c 0,-2.09387 -0.50622,-3.80703 -1.12498,-3.80703 -0.61872,0 -1.3764,1.71316 -1.68374,3.80703 -0.3811,2.5979 -0.0238,3.80703 1.12498,3.80703 1.0248,0 1.68374,-1.4899 1.68374,-3.80703 z m 91.36872,1.41256 c -1.87988,-0.51696 -4.04286,-2.6629 -5.30862,-5.26679 -1.17487,-2.41686 -3.50195,-7.24961 -5.1713,-10.73939 -1.66938,-3.48978 -4.9044,-9.99524 -7.18898,-14.4566 -3.09226,-6.03867 -4.43039,-10.74094 -5.23625,-18.40065 -0.59537,-5.65899 -2.14737,-13.9256 -3.44885,-18.37019 l -2.36635,-8.0811 -6.26122,-0.0849 c -3.56425,-0.0484 -8.00285,0.83211 -10.30456,2.04402 -3.77697,1.98866 -9.04844,2.4292 -25.45035,2.12698 -4.51478,-0.0833 -12.53703,3.12624 -17.93964,7.17708 -0.26411,0.19789 0.84659,3.09433 2.46795,6.43646 2.52085,5.19628 2.95691,8.09883 3.01021,20.03569 0.0781,17.49267 -1.44299,29.26064 -4.46969,34.58052 l -2.34644,4.12429 46.59333,-0.12651 c 25.62631,-0.0694 45.16565,-0.51906 43.42076,-0.99891 z m -2.51692,-14.06329 c -0.82267,-1.53712 -1.18403,-3.10645 -0.80304,-3.48743 0.38109,-0.3811 0.0805,-1.83686 -0.6681,-3.2353 -1.09595,-2.04779 -1.57742,-2.20055 -2.47393,-0.78489 -0.75665,1.1947 -1.11943,0.26689 -1.13264,-2.89731 -0.0238,-5.36212 -1.05672,-8.6696 -2.71131,-8.6696 -1.50132,0 -0.21217,7.23134 2.12745,11.9333 1.00839,2.02661 1.83344,4.97797 1.83344,6.55852 0,1.58059 0.36365,3.82135 0.80805,4.97948 0.70862,1.84668 1.0361,1.87766 2.6619,0.25182 1.48459,-1.48459 1.55593,-2.41061 0.3581,-4.64863 z m -86.81508,2.8159 c 2.61674,-4.21653 4.73654,-15.62477 3.19053,-17.17082 -0.78112,-0.78107 -1.42022,-2.7336 -1.42022,-4.3389 0,-3.74909 -2.2722,-3.79418 -3.19882,-0.0634 -1.11506,4.48932 -2.67654,20.7614 -2.14526,22.35524 0.68709,2.06127 1.98552,1.77713 3.57377,-0.78207 z m 100.01707,-19.16424 c -0.52053,-1.84839 -0.83917,-4.21727 -0.70811,-5.26421 0.18242,-1.45706 -0.0742,-1.39559 -1.09444,0.26213 -0.94684,1.53848 -0.87177,3.92707 0.25935,8.24857 1.19747,4.5753 1.70329,5.34329 2.04085,3.09864 0.24706,-1.64138 0.0238,-4.49665 -0.49757,-6.34505 z m -24.9485,-5.26421 c -0.65723,-5.23466 -1.71907,-10.51692 -2.35961,-11.73834 -0.76323,-1.45543 -0.69775,-2.22077 0.18996,-2.22077 0.74507,0 0.97825,-0.60904 0.51819,-1.35344 -2.31844,-3.75131 -3.68945,5.86121 -1.85811,13.02786 1.51841,5.94226 3.99175,12.73154 4.42996,12.16021 0.15109,-0.1967 -0.26332,-4.64085 -0.92051,-9.87552 z m 2.45276,-11.07968 c -0.32162,-1.23471 -0.60615,-0.53176 -0.63201,1.56211 -0.0278,2.09387 0.23754,3.10408 0.58497,2.24492 0.34779,-0.85916 0.36881,-2.57233 0.0472,-3.80703 z m 18.99617,-1.92767 c -0.35216,-0.87244 -0.64006,-0.15863 -0.64006,1.58626 0,1.74489 0.2879,2.45871 0.64006,1.58627 0.35215,-0.87245 0.35215,-2.30008 0,-3.17253 z m -93.86777,-3.14837 c -0.32161,-1.23471 -0.60615,-0.53176 -0.632,1.56211 -0.0278,2.09387 0.23754,3.10408 0.58497,2.24492 0.34779,-0.85916 0.36881,-2.57233 0.0472,-3.80703 z m 71.20804,-0.68087 c 1.26164,0.4555 1.17451,-0.55729 -0.36484,-4.24139 -1.1122,-2.66186 -2.32296,-8.2879 -2.69058,-12.50232 -0.36761,-4.21439 -0.94422,-9.01148 -1.28138,-10.66024 -0.59941,-2.93114 -0.67035,-2.94581 -3.19592,-0.66025 -2.0209,1.82893 -2.42123,3.3095 -1.83991,6.80475 0.40862,2.45701 0.93808,5.89491 1.17653,7.6398 0.23834,1.74489 0.91322,5.17122 1.49942,7.61406 0.58624,2.44285 0.90048,5.58365 0.69835,6.97956 -0.34303,2.36817 -0.20978,2.40045 1.98672,0.48286 1.29478,-1.13037 3.09999,-1.78594 4.01157,-1.45683 z m 12.83049,1.2777 c -0.29068,-0.18203 -1.95642,-1.46682 -3.70131,-2.85527 l -3.17252,-2.5245 2.41746,2.85527 c 1.32961,1.5704 2.99518,2.85527 3.70127,2.85527 0.70612,0 1.0459,-0.14871 0.7551,-0.33073 z m 1.50163,-11.95023 c 0.22525,-4.24345 -0.29544,-7.37473 -1.4757,-8.87605 -1.68651,-2.14515 -1.64935,-2.18258 0.49377,-0.49773 2.01388,1.58321 2.46727,1.58321 3.46083,0 1.09067,-1.73803 0.79023,-3.78748 -1.38326,-9.43596 -0.53715,-1.39592 -3.01315,-4.48901 -5.50223,-6.87356 -3.63679,-3.48407 -5.02988,-4.10715 -7.09302,-3.17252 -2.37245,1.07469 -2.42765,1.43112 -0.72694,4.69454 1.01223,1.94238 1.29348,3.19354 0.62499,2.7804 -2.24702,-1.38873 -1.24117,1.51996 1.33036,3.84716 4.12931,3.737 1.72125,3.81762 -3.14576,0.10549 -5.1661,-3.94035 -5.7431,-2.49971 -1.96602,4.90885 1.38057,2.70783 3.15417,6.87494 3.94139,9.26024 0.78722,2.38527 3.18038,6.32895 5.31811,8.76371 4.58029,5.2167 5.60327,4.29714 6.12348,-5.50445 z m -104.60295,3.31533 c 3.89773,-1.48193 6.87399,-4.26685 9.19517,-8.60405 1.4199,-2.6531 1.30125,-2.77152 -2.0491,-2.04513 -2.47635,0.53687 -1.46039,-0.42024 3.34559,-3.15182 3.79605,-2.15756 8.01927,-4.91313 9.38496,-6.12345 2.398,-2.1252 2.43329,-2.10565 1.02945,0.57121 -1.85958,3.54585 -2.02514,9.59368 -0.1848,6.74574 0.67658,-1.04693 1.23891,-1.45536 1.24958,-0.90762 0.0484,2.48734 7.64364,-8.01721 7.72268,-10.68102 0.0492,-1.65273 0.60666,-4.14708 1.23911,-5.543 0.81974,-1.80937 0.93573,-1.17177 0.40406,2.22077 -0.56721,3.6193 -0.31329,4.75879 1.0603,4.75879 2.28556,0 7.41236,-6.81026 6.29298,-8.35929 -0.99772,-1.3806 -6.60488,-1.42248 -8.80019,-0.0658 -0.9727,0.60116 -1.55446,0.2201 -1.55446,-1.0177 0,-3.17503 -3.79632,-2.32063 -3.89622,0.87684 -0.0642,2.06048 -0.32915,2.32542 -0.95176,0.95176 -1.17851,-2.6008 -9.88884,-3.11066 -10.83905,-0.63446 -0.3926,1.02337 -1.56334,1.53478 -2.60135,1.13647 -1.03805,-0.39835 -5.61545,1.11106 -10.17199,3.35424 l -8.28461,4.07851 -7.32496,-3.70424 c -6.95834,-3.51896 -11.76638,-4.1725 -11.76638,-1.59946 0,0.64679 1.03119,1.17597 2.29147,1.17597 1.26033,0 4.25836,1.50414 6.6623,3.34249 2.40399,1.8384 3.32481,2.98051 2.04628,2.53802 -1.27849,-0.44244 -8.70219,-0.89155 -16.49713,-0.99799 -11.76059,-0.16061 -12.84052,-0.32241 -6.3456,-0.95176 4.30484,-0.41703 8.20474,-1.13664 8.66646,-1.59915 1.91847,-1.92168 -13.4912,-3.79858 -21.31338,-2.596 -4.90476,0.75407 -6.4357,1.30454 -4.06313,1.46091 2.09387,0.138 4.94914,0.7898 6.34505,1.44853 2.96282,1.3981 -4.18686,0.73563 -20.93867,-1.94003 l -10.78658,-1.72292 9.51757,-0.33907 9.51758,-0.33906 -7.61406,-0.93459 c -4.33565,-0.53219 0.88957,-0.67103 12.1355,-0.3224 16.04422,0.49729 20.02954,0.27482 21.24172,-1.18574 1.24308,-1.49782 0.0238,-2.15263 -7.31199,-3.9229 -9.01608,-2.17616 -26.16996,-1.85089 -32.81014,0.62213 -1.61585,0.60179 -3.90006,1.0854 -5.07604,1.07473 -1.81139,-0.0159 -1.85287,-0.19987 -0.27125,-1.20005 2.38185,-1.50631 2.43642,-1.46868 -8.84742,-6.10274 -5.448416,-2.23751 -13.124706,-4.25749 -17.951656,-4.72385 -7.76369,-0.75007 -8.59037,-0.59009 -10.41532,2.01546 -1.09032,1.55656 -1.62695,3.40519 -1.1926,4.10802 0.49706,0.80424 -0.11064,0.91639 -1.63916,0.30258 -1.33595,-0.53639 -4.71318,-1.19425 -7.50501,-1.46197 -4.79317,-0.45962 -4.86387,-0.41846 -1.26901,0.73816 2.09387,0.67369 6.37678,1.91553 9.51758,2.75962 7.27408,1.95491 2.96254,2.95692 -5.92937,1.37803 -3.36942,-0.5983 -8.41044,-0.68987 -11.20227,-0.20344 -2.79182,0.48639 -8.8787,1.1617 -13.52641,1.50069 -11.28289,0.82299 -12.28097,1.61092 -7.70615,6.08367 3.16658,3.09591 4.44491,3.53312 8.66647,2.96401 2.72361,-0.36722 14.37443,-0.69236 25.8907,-0.72262 l 20.93867,-0.0551 -22.20768,-1.56525 c -12.21422,-0.8609 -22.4932,-1.69674 -22.84218,-1.85747 -0.34898,-0.16061 0.58029,-0.78278 2.06503,-1.38231 1.52428,-0.61551 4.83906,-0.59366 7.61407,0.0504 6.38783,1.48205 38.83281,1.41947 35.37076,-0.0682 -3.11673,-1.33932 -1.94758,-1.53689 10.342776,-1.74782 4.99056,-0.0857 8.41688,0.26372 7.61408,0.77663 -0.80285,0.51276 -2.52014,0.94105 -3.81624,0.95176 -1.4479,0.0119 -2.10409,0.6773 -1.70186,1.72554 0.50638,1.31953 -0.82871,1.62389 -5.892016,1.34324 l -6.54674,-0.36285 5.71054,0.92396 c 6.695666,1.08333 9.517586,2.64164 9.517586,5.2556 0,1.03758 2.56974,3.14532 5.71054,4.68388 6.28366,3.07818 8.13487,3.54751 7.04654,1.7866 -0.39459,-0.63835 -0.10985,-1.36307 0.63224,-1.61049 2.28997,-0.76331 -0.098,-4.63641 -3.66363,-5.94242 -7.08294,-2.59417 0.31448,-1.26825 17.02052,3.05086 21.61049,5.58706 35.09705,10.73155 43.15792,16.4626 6.6447,4.7242 12.38423,5.64657 19.14385,3.07659 z m -27.81825,-14.71693 c 0.87245,-0.35215 2.30008,-0.35215 3.17253,0 0.87244,0.35215 0.15862,0.64006 -1.58626,0.64006 -1.74489,0 -2.45871,-0.28791 -1.58627,-0.64006 z m 44.0981,-5.50461 c -0.43134,-0.69796 -0.17964,-1.26901 0.55964,-1.26901 0.73912,0 1.34388,0.57105 1.34388,1.26901 0,0.69796 -0.25182,1.26901 -0.5596,1.26901 -0.30773,0 -0.91253,-0.57105 -1.34392,-1.26901 z M 38.130984,133.42952 c 0.87676,-0.35334 1.27135,-1.16495 0.87684,-1.8033 -0.39458,-0.63835 -0.11262,-1.16063 0.62662,-1.16063 0.73912,0 1.34388,0.85658 1.34388,1.90352 0,1.04693 -0.99935,1.85842 -2.22077,1.80334 -1.33976,-0.0603 -1.58832,-0.35532 -0.62657,-0.74293 z m 47.26269,-6.77096 c 1.04693,-0.67658 2.47457,-1.23015 3.17253,-1.23015 0.69795,0 0.41243,0.55357 -0.63451,1.23015 -1.04693,0.67658 -2.47457,1.23015 -3.17252,1.23015 -0.69796,0 -0.41243,-0.55357 0.6345,-1.23015 z m 74.043016,29.04479 c 2.89735,-1.32017 2.96508,-1.56652 1.0467,-3.80703 -1.12815,-1.31759 -2.95216,-2.39558 -4.05334,-2.39558 -1.10122,0 -2.62705,-0.62483 -3.39072,-1.38849 -0.80467,-0.80471 -4.57973,-1.20489 -8.9784,-0.95176 -5.22852,0.30099 -7.41951,-0.004 -7.04209,-0.98273 0.30139,-0.78076 -0.76934,-1.77229 -2.37924,-2.20348 -4.21391,-1.12858 -11.17562,-0.99669 -11.17562,0.21177 0,1.74405 6.70978,6.10299 12.0556,7.83181 2.79182,0.90291 6.21815,2.09177 7.61406,2.64196 7.14167,2.81495 11.76559,3.1109 16.30305,1.04353 z m 145.56267,-11.73716 c -1.77728,-4.67459 -2.77342,-4.21053 -1.12319,0.52327 0.74233,2.12952 1.58519,3.63635 1.87298,3.34852 0.28791,-0.2879 -0.0496,-2.0301 -0.74979,-3.87179 z m -76.5512,0.96084 c -0.42171,-0.42171 -1.51623,-0.4668 -2.4323,-0.10033 -1.01231,0.40509 -0.71164,0.70577 0.76672,0.76668 1.33773,0.0551 2.08724,-0.24468 1.66558,-0.66651 z m 16.38565,-2.41564 c 0.40382,-1.05233 -0.2883,-3.47387 -1.53804,-5.3812 l -2.2722,-3.46784 -0.99471,3.71927 c -1.4195,5.30771 2.9476,9.97001 4.80495,5.12977 z m 8.323,-0.87851 c -1.18438,-1.18442 -1.8612,-1.18442 -3.04562,0 -1.18438,1.18442 -0.84599,1.52281 1.52281,1.52281 2.36885,0 2.70724,-0.33827 1.52281,-1.52281 z m -16.25217,-1.75349 c 1.08639,-2.83117 0.95917,-9.41765 -0.18163,-9.39437 -1.70915,0.0357 -3.71633,1.83091 -5.20329,4.65592 -2.42548,4.60805 -1.86815,5.57623 3.79854,6.59854 0.44879,0.0809 1.16261,-0.7561 1.58626,-1.86009 z m 35.66803,-3.06875 4.79055,-3.80703 -3.66431,0.0571 c -2.01534,0.0317 -5.31846,0.76346 -7.34027,1.62663 -3.4751,1.48355 -3.55684,1.68858 -1.49565,3.74977 1.19926,1.19925 2.34664,2.18043 2.5498,2.18043 0.20304,0 2.52509,-1.71316 5.15988,-3.80703 z M 8.618564,138.07965 c -0.43134,-0.69795 -1.4644,-1.26028 -2.29564,-1.24958 -0.90813,0.0119 -0.75161,0.51042 0.39221,1.24958 2.43792,1.57552 2.87724,1.57552 1.90351,0 z m 79.64783,-2.16231 c -1.5608,-0.30139 -4.41607,-0.30893 -6.34505,-0.0159 -1.92897,0.29188 -0.65195,0.53814 2.83783,0.54766 3.48977,0.008 5.06803,-0.22921 3.50722,-0.53033 z m 6.9357,-1.14239 c -0.42171,-0.42171 -1.51623,-0.4668 -2.4323,-0.10033 -1.01231,0.40509 -0.71163,0.70577 0.76672,0.76668 1.33774,0.0551 2.08725,-0.24468 1.66558,-0.66651 z M 247.58039,131.5822 c -2.01991,-1.24839 -4.17187,0.67448 -2.9562,2.64148 0.65802,1.06466 1.37422,1.03992 2.74134,-0.0948 1.48101,-1.22916 1.52392,-1.73779 0.21494,-2.54683 z m 5.95713,2.69042 c 0.43138,-0.69795 0.17964,-1.26901 -0.5596,-1.26901 -0.73916,0 -1.34392,0.57106 -1.34392,1.26901 0,0.69796 0.25182,1.26901 0.55963,1.26901 0.30774,0 0.91254,-0.57105 1.34389,-1.26901 z m -10.78659,-3.80703 c 0,-0.69795 -0.85658,-1.26901 -1.90351,-1.26901 -1.04694,0 -1.90352,0.57106 -1.90352,1.26901 0,0.69796 0.85658,1.26901 1.90352,1.26901 1.04693,0 1.90351,-0.57105 1.90351,-1.26901 z m 10.17806,-1.2261 c -1.03266,-0.65299 -4.10549,-1.56366 -6.82855,-2.02371 -6.71255,-1.1341 -3.46245,-3.00811 4.15208,-2.39411 3.20267,0.25816 7.3885,0.1618 9.30185,-0.21415 l 3.47879,-0.68376 -4.1133,-5.11339 c -2.26232,-2.81237 -5.60208,-6.86927 -7.42164,-9.01533 l -3.30835,-3.90197 -4.62297,2.19377 c -2.54266,1.20655 -4.623,2.77389 -4.623,3.48299 0,0.70906 -0.99935,1.14005 -2.22077,0.95771 -1.22142,-0.18242 -4.04834,0.63835 -6.28203,1.82376 -2.2337,1.18538 -5.20334,2.15526 -6.59925,2.15526 -1.39587,0 -2.99463,0.81098 -3.55279,1.80215 -0.55813,0.99118 -3.01351,2.04188 -5.45635,2.3349 -3.83106,0.45958 -3.6195,0.56071 1.53931,0.73591 3.28943,0.11183 8.99998,1.4021 12.6901,2.86756 6.32284,2.51098 19.64519,5.91871 23.84089,6.09827 1.67303,0.0714 1.67616,-0.0623 0.0278,-1.10578 z m 45.02578,-4.64331 c -1.19664,-2.93058 -4.32173,-6.66436 -7.73509,-9.24184 -4.2097,-3.17871 -5.28896,-4.61464 -4.07309,-5.41907 1.69429,-1.12093 -0.32994,-3.40785 -6.12666,-6.92182 -3.98021,-2.41278 -1.15999,-3.163836 3.91617,-1.04289 2.62542,1.09698 5.0133,1.75473 5.30636,1.46167 0.29306,-0.29307 -0.14633,-2.18246 -0.97658,-4.198636 -0.83017,-2.01618 -1.40305,-4.1365 -1.27306,-4.71188 0.13008,-0.57533 -0.39497,-0.6558 -1.16693,-0.17885 -0.80082,0.49496 -1.07017,2.30603 -0.62737,4.21863 0.58149,2.511686 0.45312,2.874416 -0.51228,1.447816 -0.70846,-1.046926 -1.29685,-1.390516 -1.30756,-0.763546 -0.0119,0.62697 -1.73755,-0.6579 -3.83748,-2.85527 -2.09994,-2.19737 -4.52692,-4.06099 -5.3933,-4.14138 -3.45412,-0.320417 -6.6686,0.4906 -10.8703,2.74253 l -4.40485,2.36088 9.38798,0.37674 c 7.31148,0.29345 9.39599,0.79765 9.4241,2.280126 0.0758,3.98901 2.10394,10.03763 3.85248,11.48878 1.00208,0.83168 1.82194,2.12008 1.82194,2.86317 0,0.74304 -1.5704,-0.11818 -3.48978,-1.91407 -3.70027,-3.46201 -10.63002,-7.3618 -13.08155,-7.3618 -2.70858,0 11.69135,12.00999 19.20278,16.01574 4.08427,2.17806 7.67664,3.70939 7.98307,3.40297 0.30654,-0.30655 1.61263,0.85361 2.90266,2.57787 3.15436,4.21625 3.49466,3.4318 1.07834,-2.48579 z m -7.1433,-2.69641 c -1.57849,-2.01273 -1.53359,-2.05762 0.4791,-0.47913 1.22142,0.95791 2.22076,1.95725 2.22076,2.22077 0,1.04443 -1.04209,0.37238 -2.69986,-1.74164 z m -5.07604,-5.07604 c -1.57849,-2.01273 -1.53359,-2.05762 0.4791,-0.47913 2.11385,1.65781 2.78611,2.6999 1.74167,2.6999 -0.26371,0 -1.26286,-0.99935 -2.22077,-2.22077 z m -79.78579,11.89372 c 0,-0.26372 -0.99935,-1.26286 -2.22077,-2.22077 -2.01273,-1.57849 -2.05758,-1.5336 -0.47909,0.47913 1.65776,2.11386 2.69986,2.78608 2.69986,1.74164 z m 81.21664,-4.04937 c 0,-0.23397 -2.71251,-2.26852 -6.0278,-4.52093 -3.31528,-2.25241 -9.07183,-6.84825 -12.79233,-10.21303 -4.8312,-4.36924 -7.82345,-6.11774 -10.46933,-6.11774 -5.27215,0 -4.89319,4.1246 1.10681,12.04655 4.14804,5.47681 5.56691,6.45062 10.46295,7.18129 3.11526,0.4649 7.03983,1.37176 8.72127,2.01523 2.69233,1.03036 8.99843,0.75605 8.99843,-0.39141 z m -14.34711,-20.25729 c -2.23468,-1.96597 -5.06997,-3.11792 -7.61406,-3.09345 -3.75722,0.0357 -3.54331,0.25777 2.92602,3.03079 8.87708,3.80513 8.94303,3.80604 4.68804,0.0627 z m 27.03721,-1.86342 c 0.69796,0 1.26901,0.64807 1.26901,1.44013 0,0.7921 1.21088,-0.0991 2.69082,-1.98065 1.78859,-2.273786 3.38421,-3.143176 4.75879,-2.592856 5.78034,2.314106 8.19994,1.527796 14.63597,-4.75653 3.55695,-3.473077 6.30924,-7.072987 6.11627,-7.999757 -0.19313,-0.92682 0.23516,-2.04739 0.95176,-2.4902 1.92437,-1.18934 1.5815,-2.77029 -0.60088,-2.77029 -1.04693,0 -1.90352,0.47588 -1.90352,1.05749 0,0.58164 -1.38682,1.05752 -3.08187,1.05752 -1.69504,0 -3.97925,0.89739 -5.07604,1.99417 -2.15251,2.15252 -2.42527,1.87492 -1.22669,-1.24859 0.42214,-1.09999 1.42149,-1.66823 2.22077,-1.26266 0.79931,0.40552 0.0238,-0.44166 -1.71924,-1.88262 -1.74488,-1.44092 -3.60081,-2.6326 -4.12428,-2.64811 -0.52346,-0.0159 -0.95176,-0.87272 -0.95176,-1.9049 0,-1.59388 -0.64898,-1.54609 -4.3071,0.31725 -2.36888,1.20667 -4.0529,2.61484 -3.74227,3.12926 0.92797,1.53673 -4.42131,6.49043 -7.49592,6.94161 -5.45056,0.79987 -6.96072,5.348827 -5.23653,15.774143 0.7482,4.52414 0.81102,4.56828 3.15857,2.22077 1.31731,-1.31735 2.96619,-2.39518 3.66414,-2.39518 z m 8.88307,-13.959103 c 0,-0.69796 0.57106,-1.26901 1.26901,-1.26901 0.69796,0 1.26901,0.57105 1.26901,1.26901 0,0.69795 -0.57105,1.26901 -1.26901,1.26901 -0.69795,0 -1.26901,-0.57106 -1.26901,-1.26901 z m 3.25414,-4.70406 c -0.68867,-1.80858 -0.54294,-1.95436 0.71037,-0.71037 0.86729,0.86078 1.25719,1.88476 0.86646,2.27549 -0.39062,0.39062 -1.10027,-0.31368 -1.57683,-1.56512 z"
     id="path1"
     sodipodi:nodetypes="ssssscsssscccsssssssssccssssssssssccccscssssccsscsssssscsssscsssssssssssssssssssssssssssssssssssssssssssssssssscssssssssssssssssssssssssssssssssssssssssssssssscscssssscsscssssscssssssssssssssssssssssssssssssscssscssssssssssscsssssccssssssssscssssscsssssssscssssssscssssscscssssssssssssssssscsssssssssscccccsssscccccsssssssssssssscssssssssssssssssssscssssssscssssssccssscsssssssssssscccssscsccsssssssssssssscsssssssssscsssscsssccssssssssssssssssssssssssssssssssssssssssssscsssssssssssscccsssscscsssccsccsssssssssssssssssssscssscsscssssssssssccssssssssssscssscssssssssssssssssssssssssssssssssssssssssccsssssscsssssssssssssssss" />
</svg>
