<?xml version="1.0" encoding="UTF-8" standalone="no"?>
<svg
   id="svg"
   version="1.1"
   width="400"
   height="377.93103448275866"
   viewBox="0, 0, 400,377.93103448275866"
   sodipodi:docname="B15.svg"
   inkscape:version="1.3.2 (091e20e, 2023-11-25, custom)"
   xml:space="preserve"
   xmlns:inkscape="http://www.inkscape.org/namespaces/inkscape"
   xmlns:sodipodi="http://sodipodi.sourceforge.net/DTD/sodipodi-0.dtd"
   xmlns="http://www.w3.org/2000/svg"
   xmlns:svg="http://www.w3.org/2000/svg"
   xmlns:rdf="http://www.w3.org/1999/02/22-rdf-syntax-ns#"
   xmlns:cc="http://creativecommons.org/ns#"
   xmlns:dc="http://purl.org/dc/elements/1.1/"><metadata
     id="metadata11"><rdf:RDF><cc:Work
         rdf:about=""><dc:format>image/svg+xml</dc:format><dc:type
           rdf:resource="http://purl.org/dc/dcmitype/StillImage" /></cc:Work></rdf:RDF></metadata><defs
     id="defs9" /><sodipodi:namedview
     pagecolor="#ffffff"
     bordercolor="#666666"
     borderopacity="1"
     objecttolerance="10"
     gridtolerance="10"
     guidetolerance="10"
     inkscape:pageopacity="0"
     inkscape:pageshadow="2"
     inkscape:window-width="1366"
     inkscape:window-height="705"
     id="namedview7"
     showgrid="false"
     inkscape:zoom="0.62445256"
     inkscape:cx="302.66511"
     inkscape:cy="204.17884"
     inkscape:window-x="-8"
     inkscape:window-y="-8"
     inkscape:window-maximized="1"
     inkscape:current-layer="svg"
     inkscape:showpageshadow="0"
     inkscape:pagecheckerboard="0"
     inkscape:deskcolor="#d1d1d1" /><path
     style="fill:#ffffff;stroke-width:2.49965"
     d="m 220.31872,319.83391 c -3.73948,-0.30326 -8.77876,-0.9517 -11.19842,-1.44095 -2.41966,-0.48925 -8.35881,-1.4272 -13.19813,-2.08435 -4.83931,-0.65714 -10.5985,-1.56738 -12.79819,-2.02277 -5.04186,-1.04377 -7.01349,-1.3817 -16.39767,-2.81037 -7.53178,-1.14667 -18.2913,-2.93741 -25.99632,-4.32667 -6.11713,-1.10294 -17.7491,-3.08375 -24.11808,-4.10708 -3.1464,-0.50556 -6.1557,-1.18801 -6.68737,-1.51662 -0.74957,-0.46325 -0.76719,-2.9806 -0.0785,-11.20868 0.4885,-5.83618 0.89372,-12.62941 0.90044,-15.09607 0.007,-2.46664 0.27672,-4.09564 0.59992,-3.61999 0.59094,0.86966 10.01328,0.37473 10.9639,-0.57589 1.85121,-1.8512 -3.37028,-4.6735 -8.6655,-4.68383 -2.14438,-0.005 -2.25918,-0.16848 -1.82034,-2.6041 0.25762,-1.42981 0.84938,-8.35882 1.31502,-15.39782 0.46565,-7.039 0.97525,-13.96802 1.13248,-15.39782 0.27716,-2.52034 -0.52193,-3.44379 -1.54605,-1.7867 -0.27634,0.44711 -0.89312,0.57147 -1.37063,0.27636 -0.52035,-0.32161 -0.63794,-0.16398 -0.29346,0.39338 0.36945,0.5978 -0.80059,1.53166 -3.27594,2.61465 -4.45485,1.94904 -13.611958,2.12743 -30.443188,0.59303 -7.17257,-0.65384 -10.08111,-0.65543 -10.86382,-0.005 -1.36291,1.13109 -5.61498,8.90279 -5.13407,9.3837 0.19922,0.19922 4.82423,-0.3456 10.27787,-1.21061 5.45365,-0.86502 14.93718,-2.18625 21.07451,-2.9361 l 11.158788,-1.36333 2.51398,2.90823 c 2.78789,3.22509 5.16417,9.62164 5.16417,13.90096 0,9.66208 -10.46857,15.57224 -27.452298,15.49847 -10.81171,-0.047 -14.55938,1.01426 -17.39223,4.92491 -2.92876,4.043 -2.96768,4.96087 -0.14898,3.5141 2.72334,-1.39785 9.39739,-2.73316 16.00193,-3.20154 4.85732,-0.34448 5.02077,-0.29286 5.59462,1.76737 1.12748,4.04809 0.56778,10.79164 -1.17362,14.14022 -1.75238,3.36972 -9.09056,10.77877 -10.67564,10.77877 -0.52412,0 -0.70303,0.56474 -0.41589,1.31296 0.37656,0.98126 0.24672,1.11017 -0.51432,0.51025 -0.56,-0.44151 -2.07609,-1.05627 -3.36905,-1.36615 -1.293,-0.30988 -3.32825,-1.2594 -4.52285,-2.11 -1.1946,-0.85063 -2.49868,-1.54661 -2.89795,-1.54661 -0.39927,0 -1.60353,-1.16983 -2.67612,-2.59962 -1.58045,-2.10678 -1.94745,-3.5345 -1.93585,-7.53077 0.0106,-3.39319 0.41866,-5.38896 1.31076,-6.39909 0.71308,-0.80738 1.52977,-2.56788 1.81487,-3.91221 0.28511,-1.34434 1.22505,-2.95359 2.08876,-3.5761 2.00894,-1.44799 1.99816,-3.3431 -0.0294,-5.17807 -0.87988,-0.79626 -1.59977,-1.9491 -1.59977,-2.5618 0,-0.61275 -0.84664,-1.90676 -1.88142,-2.87562 -2.44105,-2.28553 -4.05059,-9.10419 -3.47213,-14.70915 0.26491,-2.56666 1.45907,-6.30008 2.90184,-9.07229 1.34844,-2.59094 2.45171,-5.26545 2.45171,-5.94338 0,-0.67793 0.39091,-1.2326 0.86872,-1.2326 0.74764,0 -4.29539,-10.08611 -5.59918,-11.19841 -0.25783,-0.21997 -0.5397,-0.93987 -0.62634,-1.59977 -0.0867,-0.65992 -0.52799,-2.63963 -0.98078,-4.39938 -1.02236,-3.97339 -1.09795,-10.88184 -0.14598,-13.34603 0.99393,-2.57307 3.15225,-4.81025 6.75441,-7.00129 2.3508,-1.42988 2.81946,-2.04716 1.99972,-2.6339 -0.84235,-0.60293 -0.80588,-0.68325 0.17098,-0.37672 1.73158,0.54335 6.3572,-1.5304 6.3572,-2.85005 0,-0.59884 -1.06688,-2.11093 -2.37087,-3.36023 -1.54628,-1.48143 -2.9796,-4.23835 -4.12116,-7.92683 -1.59232,-5.14485 -1.67085,-6.2495 -0.86981,-12.23641 1.01531,-7.58824 1.89451,-9.52125 6.90795,-15.18764 3.77144,-4.26266 8.6713,-7.1652 12.85213,-7.61338 l 2.39966,-0.2572 -0.26254,5.99914 -0.26253,5.99915 4.86188,3.51431 c 4.449,3.21587 5.23131,4.14462 4.95662,5.88436 -0.052,0.32996 0.3486,0.50993 0.89043,0.39995 1.44169,-0.29264 4.017168,5.46795 4.447648,9.94809 0.71924,7.48518 -3.971598,14.69161 -10.810178,16.60745 -2.13747,0.59881 -4.78435,0.59208 -9.04704,-0.0225 -5.72953,-0.82676 -6.25749,-0.76694 -10.74448,1.2174 l -4.71885,2.0869 4.74533,2.27001 c 3.95024,1.88969 6.55457,2.42999 15.54377,3.22479 5.93916,0.52513 12.41823,1.47727 14.397948,2.11586 4.40258,1.4201 10.21497,5.90478 12.48547,9.63348 l 1.68701,2.77046 0.48951,-3.5712 c 0.26921,-1.96415 0.75257,-8.54638 1.07413,-14.62717 0.32155,-6.08079 0.78191,-10.03476 1.02302,-8.78659 l 0.43842,2.26941 1.99469,-2.1285 c 1.68391,-1.7969 1.80852,-2.24038 0.79989,-2.84654 -0.65714,-0.3949 -1.6284,-1.00936 -2.15833,-1.36546 -0.74939,-0.50358 -0.70999,-3.84173 0.17724,-15.02067 0.62745,-7.90526 1.20497,-16.53291 1.28334,-19.17253 0.0785,-2.63963 0.29116,-3.82298 0.47283,-2.62968 0.28316,1.85974 0.63739,2.11615 2.4798,1.79509 4.26607,-0.74339 36.25154,-4.53178 38.54429,-4.56522 0.6599,-0.0106 1.61772,-0.34587 2.12846,-0.74722 0.51076,-0.40132 1.11472,-0.42864 1.34212,-0.0608 0.22747,0.36796 -0.55042,1.11697 -1.72853,1.66445 -1.17808,0.54752 -4.12172,2.77207 -6.54137,4.94344 l -4.39938,3.94796 -0.25754,21.07366 c -0.28443,23.27557 0.61636,37.16645 2.60723,40.2049 2.83735,4.33036 8.59468,5.78168 16.44764,4.14616 3.43645,-0.71569 9.60762,-5.74183 15.84708,-12.90669 1.45692,-1.67299 2.78603,-2.90471 2.95358,-2.73717 0.16748,0.16748 2.26756,5.15465 4.66665,11.08244 2.3991,5.92777 8.19891,20.13647 12.88844,31.57486 4.68953,11.43837 10.36834,25.2964 12.61952,30.79563 2.25118,5.49922 4.30728,10.25687 4.5691,10.57252 0.26181,0.31569 4.78911,-1.05372 10.06063,-3.04309 5.27156,-1.98935 12.10427,-4.55602 15.18384,-5.70371 3.07956,-1.14769 5.72895,-2.18773 5.88753,-2.3112 0.32453,-0.25267 -4.72368,-12.88508 -12.00154,-30.03217 -2.67906,-6.31205 -4.90616,-12.08916 -4.94914,-12.83812 -0.043,-0.74894 -0.27095,-1.16658 -0.50665,-0.92809 -0.23571,0.23848 -5.32435,-9.58416 -11.30811,-21.82815 l -10.8796,-22.26177 1.68091,-2.40651 c 0.92449,-1.32356 1.86292,-2.58649 2.08539,-2.80645 1.49465,-1.47782 4.75798,-6.39627 4.23559,-6.38374 -0.35236,0.007 -2.07626,1.26804 -3.83087,2.79912 -1.75466,1.53109 -4.37221,3.00552 -5.81682,3.27654 -3.02867,0.56817 -13.58528,-0.24097 -17.9916,-1.37918 -3.19346,-0.82484 -4.75307,-3.14325 -9.08856,-13.51058 -2.31801,-5.54297 -2.3643,-3.78707 -0.18573,7.03797 l 1.72179,8.5548 -1.78473,4.97634 c -0.98159,2.73702 -1.5187,5.43775 -1.19358,6.00167 0.32511,0.56393 0.29536,0.75727 -0.0663,0.42964 -0.36149,-0.32763 -2.03101,1.50679 -3.71001,4.07645 -5.53317,8.46823 -12.80779,14.51666 -17.45965,14.51666 -1.87714,0 -4.59483,-1.25453 -6.20425,-2.86395 -3.04892,-3.04888 -3.33443,-23.25626 -0.62069,-43.92942 1.63657,-12.46724 2.24653,-14.20708 5.83247,-16.63646 3.8468,-2.60614 19.58318,-8.81078 27.76217,-10.94627 3.5195,-0.91894 7.02413,-2.01778 7.78804,-2.44183 1.5998,-0.88811 18.57292,-1.00999 34.47108,-0.24747 l 10.91656,0.52356 5.00767,4.95066 c 2.75423,2.7229 6.26751,6.51665 7.8073,8.43064 1.53977,1.91396 3.33951,4.05081 3.99943,4.74861 0.6599,0.69778 1.6995,2.22688 2.31019,3.398 0.61069,1.1711 2.54544,3.66829 4.29941,5.54926 1.75399,1.88098 4.13393,4.82973 5.28873,6.55275 1.15484,1.72303 2.68625,4.00999 3.40317,5.08214 0.7169,1.07212 2.06671,2.48392 2.99958,3.13732 0.93284,0.65338 1.69608,1.63689 1.69608,2.18554 0,0.54867 1.2403,2.19972 2.75621,3.66902 1.51591,1.46926 3.74739,4.23949 4.95882,6.15605 1.31502,2.08037 2.80393,3.48463 3.69473,3.48463 1.91165,0 17.52819,-4.04113 18.58599,-4.80955 0.43994,-0.31958 2.05971,-0.80741 3.59949,-1.08407 1.53978,-0.27666 6.21744,-1.58343 10.3948,-2.90391 4.17736,-1.32049 8.52674,-2.40088 9.66531,-2.40088 1.13853,0 2.32367,-0.25357 2.6336,-0.5635 0.89195,-0.89197 4.33873,-1.14839 4.82656,-0.35908 0.24347,0.39383 0.47501,24.2492 0.51468,53.01191 l 0.0722,52.29618 -1.85526,0.96433 c -1.98267,1.03056 -12.82341,4.63195 -23.70864,7.87622 -3.66055,1.09101 -7.97994,2.57151 -9.59864,3.28995 -1.61872,0.71848 -3.30305,1.36319 -3.74299,1.43268 -0.43994,0.0695 -1.33981,0.3312 -1.99972,0.58161 -9.91504,3.76239 -41.05988,13.27895 -48.37941,14.78276 -10.30242,2.11663 -22.15519,2.73472 -34.0089,1.77342 z m -45.50603,-29.1012 c 2.03983,-4.87729 3.17868,-9.6497 4.02348,-16.86059 0.81006,-6.91442 0.75137,-9.22104 -0.41231,-16.20617 -0.74627,-4.47939 -1.6161,-8.84517 -1.93296,-9.70178 -0.31687,-0.85658 -0.61396,4.81642 -0.66018,12.60669 -0.0723,12.16302 -0.44112,16.59459 -2.24458,26.9623 -0.15298,0.87988 -0.67048,3.21954 -1.14984,5.19926 -1.53038,6.32038 -0.87143,5.76589 2.37639,-1.99971 z m 2.53001,-25.99632 c 0,-1.97972 0.15599,-2.7896 0.34665,-1.79974 0.19073,0.98986 0.19073,2.60963 0,3.59949 -0.19072,0.98986 -0.34665,0.17997 -0.34665,-1.79975 z m 116.06403,-15.83045 c 1.7309,-2.84938 3.61759,-7.7812 4.96547,-12.97986 1.92618,-7.42909 2.20811,-10.17958 2.4744,-24.14008 l 0.30053,-15.75567 -1.81967,0.34435 c -6.6365,1.25593 -6.43936,1.11392 -5.90641,4.25438 3.47318,20.46607 2.17492,37.71302 -3.94746,52.44024 -1.23438,2.96922 1.10386,0.49413 3.93314,-4.16336 z m -180.17357,-34.7757 c -0.78998,-0.78412 -0.88184,-0.69222 -0.44775,0.44777 0.30038,0.78886 0.74764,1.23279 0.9939,0.98653 0.24622,-0.24622 5.1e-4,-0.8917 -0.54615,-1.4343 z m -6.74676,92.42898 c 1.10259,-0.20498 1.87938,-1.05203 2.09716,-2.28678 0.30125,-1.70826 0.3333,-1.67621 0.24845,0.24846 -0.0782,1.77508 -0.49067,2.22476 -2.09714,2.28678 -1.63942,0.0632 -1.68416,0.0175 -0.24847,-0.24846 z m -15.949278,-0.75847 c 0.54993,-0.22197 1.44979,-0.22197 1.99972,0 0.54991,0.22196 0.0999,0.40346 -0.99986,0.40346 -1.09984,0 -1.54978,-0.18147 -0.99986,-0.40346 z m -11.14842,-0.81654 c 0.57742,-0.23096 1.26732,-0.20272 1.53311,0.0632 0.26581,0.26578 -0.20672,0.45483 -1.04985,0.42011 -0.93183,-0.0385 -1.12134,-0.22797 -0.48326,-0.48325 z M 121.28873,137.95436 c 0.0175,-1.31981 0.19547,-1.7629 0.39836,-0.98463 0.20273,0.77826 0.18948,1.85811 -0.0298,2.39965 -0.21897,0.54156 -0.38505,-0.0953 -0.36872,-1.41502 z m -33.550408,-2.7996 c 0.18197,-0.67688 1.34155,-1.25512 2.66051,-1.32671 2.01345,-0.10922 2.06041,-0.0703 0.33827,0.2806 -1.09985,0.22422 -2.29708,0.82117 -2.66053,1.32672 -0.44174,0.61446 -0.55387,0.52143 -0.33825,-0.28061 z m 26.804708,0.23422 c 0.99499,-0.19123 2.43478,-0.18398 3.19955,0.015 0.76477,0.20023 -0.0493,0.35673 -1.80907,0.34785 -1.75975,-0.0106 -2.38546,-0.17273 -1.39048,-0.36399 z m -4.45271,-6.23332 c 0.0175,-1.31981 0.19546,-1.7629 0.39836,-0.98464 0.20272,0.77827 0.18947,1.85812 -0.0298,2.39966 -0.21896,0.54155 -0.38503,-0.0953 -0.36871,-1.41502 z m 85.12243,-2.14607 c 0.23097,-0.3738 0.7551,-0.47254 1.16463,-0.21947 1.04658,0.64681 0.92873,0.89902 -0.42001,0.89902 -0.64056,0 -0.97564,-0.3058 -0.74462,-0.6796 z m -94.63733,-3.85308 c 0,-2.41966 0.14998,-3.40952 0.33323,-2.19969 0.18322,1.20983 0.18322,3.18955 0,4.39938 -0.18322,1.20983 -0.33323,0.21997 -0.33323,-2.19969 z m 69.84919,1.9688 c -0.77186,-2.01147 -0.54417,-2.5305 0.39878,-0.90895 0.4669,0.80289 0.68039,1.62829 0.47445,1.83425 -0.20597,0.20596 -0.59889,-0.21048 -0.87323,-0.9253 z m 4.00956,-1.57345 c -0.25226,-0.65739 -0.13124,-1.19524 0.26891,-1.19524 1.0843,0 1.7576,1.42148 0.91885,1.93986 -0.40102,0.24796 -0.93552,-0.0873 -1.18776,-0.74462 z m 4.81542,-2.16015 c -0.64993,-2.48532 -0.15423,-2.61268 0.92772,-0.23822 0.50198,1.1017 0.60241,2.00309 0.22322,2.00309 -0.3792,0 -0.89713,-0.79416 -1.15094,-1.76479 z m -68.32977,-1.43474 c 0,-1.53979 0.16472,-2.1697 0.36583,-1.39981 0.20121,0.76989 0.20121,2.02972 0,2.79961 -0.20123,0.76989 -0.36583,0.13997 -0.36583,-1.3998 z m 62.11082,0.59991 c -0.0522,-0.54993 -0.0362,-1.44979 0.035,-1.99972 0.0714,-0.54991 -0.17972,-0.99985 -0.55791,-0.99985 -0.53303,0 -4.18731,-7.57255 -4.632,-9.59865 -0.17998,-0.82045 -1.37925,-3.71957 -3.14318,-7.59891 -2.57853,-5.670978 -4.80532,-11.062588 -4.80532,-11.634978 0,-0.26862 -0.60226,-1.72009 -1.33839,-3.22548 -0.73611,-1.50537 -2.29064,-4.80326 -3.45453,-7.3286 -4.16146,-9.02945 -12.30016,-14.20579 -22.33554,-14.20579 -5.16861,0 -10.06394,1.4894 -12.74987,3.87913 -0.81607,0.72607 -1.71595,1.27277 -1.99971,1.21488 -1.72066,-0.35106 -6.884,6.61191 -8.13332,10.96806 -0.99558,3.47138 -1.02291,15.13351 -0.0356,15.13351 0.4103,0 0.94785,0.62991 1.19456,1.39981 0.74917,2.33776 5.64213,7.332498 9.76389,9.967008 3.50058,2.23745 4.48721,2.48027 9.77982,2.40687 8.66519,-0.12023 14.1317,-2.10172 18.58369,-6.73641 3.75079,-3.904748 5.6671,-4.418308 3.36257,-0.90118 -1.32386,2.0205 -7.67314,6.76912 -8.79781,6.5799 -1.5416,-0.25937 -2.69611,0.13973 -2.29266,0.79248 1.10644,1.79028 -16.4483,2.26898 -18.22042,0.49686 -0.51469,-0.51465 -1.32234,-0.80692 -1.7948,-0.64941 -0.47245,0.15748 -2.08903,-0.79771 -3.59234,-2.12264 -1.50334,-1.32495 -2.94229,-2.41474 -3.19764,-2.42176 -0.25539,-0.007 -1.59283,-1.58419 -2.97212,-3.50481 -2.78639,-3.879978 -4.40734,-9.465458 -4.31575,-14.871188 0.058,-3.41864 0.3406,-4.33023 3.18714,-10.27752 1.30717,-2.73106 7.4432,-9.1777 8.67041,-9.10931 0.38167,0.0225 1.95376,-0.74471 3.49354,-1.70218 4.05613,-2.52222 15.5361,-2.50905 21.0225,0.025 4.1214,1.90292 11.77286,9.04339 11.77286,10.98663 0,0.65374 0.88579,2.77521 1.96844,4.71442 1.08265,1.9392 1.74256,3.75171 1.46648,4.02782 -0.2761,0.27609 -0.082,0.50198 0.4312,0.50198 0.51325,0 0.93319,0.7199 0.93319,1.59977 0,0.87988 0.41994,1.59978 0.9332,1.59978 0.51328,0 0.7202,0.21296 0.45986,0.47335 -0.44684,0.44684 0.82303,3.82721 4.17926,11.125 2.87031,6.241318 5.6261,13.319538 5.6261,14.450678 0,0.63091 0.31798,1.14711 0.7066,1.14711 0.38862,0 0.92267,0.62991 1.18675,1.3998 0.2641,0.76989 0.83439,2.20969 1.26735,3.19955 0.6152,1.4065 0.53066,1.79975 -0.38687,1.79975 -0.64574,0 -1.2167,-0.44994 -1.26881,-0.99987 z m -5.00569,-1.03078 c -0.77186,-2.01146 -0.54417,-2.53049 0.39878,-0.90894 0.4669,0.80288 0.68039,1.62829 0.47445,1.83423 -0.20597,0.20598 -0.59889,-0.21047 -0.87323,-0.92529 z m 8.79876,-3.99943 c -0.77187,-2.01146 -0.54418,-2.53049 0.39877,-0.90894 0.4669,0.80288 0.68039,1.62829 0.47445,1.83423 -0.20597,0.20598 -0.59888,-0.21047 -0.87322,-0.92529 z m -51.09159,-0.89877 c 0.54992,-0.22198 1.4498,-0.22198 1.99971,0 0.54993,0.22196 0.1,0.40344 -0.99985,0.40344 -1.09985,0 -1.54979,-0.18148 -0.99986,-0.40344 z m 11.24841,-0.0175 c 0.57742,-0.23097 1.26732,-0.20272 1.5331,0.0632 0.26582,0.26579 -0.20671,0.45483 -1.04984,0.42012 -0.93182,-0.0385 -1.12135,-0.22797 -0.48326,-0.48328 z m -20.4471,-3.10596 c -4.65752,-2.79148 -4.31489,-3.33832 0.39993,-0.63835 4.54299,2.60155 4.67029,2.69306 3.73281,2.68339 -0.40327,-0.005 -2.26301,-0.92442 -4.13274,-2.04504 z m 26.19628,1.78483 c 0,-0.20648 1.16162,-0.78054 2.58139,-1.27547 1.41975,-0.49493 2.22963,-0.5706 1.79974,-0.16824 -0.91085,0.85268 -4.38113,1.99617 -4.38113,1.44363 z M 111.7197,110.3575 c 0,-1.53977 0.16474,-2.16969 0.36583,-1.3998 0.20122,0.7699 0.20122,2.02972 0,2.79961 -0.20122,0.76988 -0.36583,0.13998 -0.36583,-1.39981 z m 63.50423,1.16891 c -0.77186,-2.01146 -0.54417,-2.53049 0.39877,-0.90894 0.46691,0.80289 0.6804,1.62829 0.47446,1.83424 -0.20597,0.20596 -0.5989,-0.21047 -0.87323,-0.9253 z m -73.83228,-5.16834 c 0,-2.85959 0.14523,-4.02943 0.32262,-2.59963 0.17746,1.42979 0.17746,3.76947 0,5.19926 -0.17748,1.4298 -0.32262,0.25996 -0.32262,-2.59963 z m 46.93727,4.49732 c 0,-0.16623 0.62991,-0.79602 1.3998,-1.39981 1.26867,-0.99496 1.29696,-0.96666 0.30201,0.302 -1.04495,1.33242 -1.70181,1.75614 -1.70181,1.09781 z m 6.36567,-5.49717 c 1.96133,-2.08971 3.67109,-3.79947 3.79947,-3.79947 0.60061,0 -0.0345,0.71818 -3.56607,4.03286 l -3.79947,3.56607 z m 7.73116,1.36887 c -0.77187,-2.01146 -0.54418,-2.53049 0.39876,-0.90894 0.46692,0.80289 0.68041,1.62829 0.47446,1.83423 -0.20596,0.20598 -0.59889,-0.21047 -0.87322,-0.92529 z m -32.28325,-1.74287 c 1.21587,-0.18398 3.01562,-0.17898 3.99943,0.0106 0.98381,0.18997 -0.0106,0.3403 -2.21069,0.33431 -2.19969,-0.005 -3.00462,-0.16123 -1.78874,-0.34521 z m -6.32823,-1.02046 c -0.94485,-0.38122 -1.97433,-1.10802 -2.28773,-1.61512 -0.35085,-0.5677 0.30936,-0.4777 1.71789,0.23422 1.25823,0.63589 2.82765,1.3571 3.48755,1.60269 1.06652,0.39695 1.06652,0.44795 0,0.45898 -0.6599,0.007 -1.97287,-0.29945 -2.91771,-0.68067 z m 15.7159,-0.4869 c 1.53977,-0.69576 3.43172,-1.82967 4.2043,-2.51985 0.77259,-0.69017 1.56056,-1.099018 1.75103,-0.90855 0.5355,0.53551 -4.51292,3.68928 -6.75522,4.22004 -1.25722,0.29757 -0.96021,0.002 0.79989,-0.79164 z m 31.69433,-1.54908 c -0.77186,-2.011468 -0.54417,-2.530488 0.39877,-0.90895 0.4669,0.80288 0.6804,1.62829 0.47446,1.83423 -0.20598,0.20598 -0.5989,-0.21046 -0.87323,-0.92528 z m -54.00829,-3.196448 c -1.36539,-1.55511 -2.48253,-3.06689 -2.48253,-3.35953 0,-0.29265 0.27276,-0.19022 0.60612,0.22772 0.33337,0.41794 1.66053,1.92972 2.94926,3.35952 1.28871,1.429808 2.13312,2.599628 1.8764,2.599628 -0.25671,0 -1.58387,-1.27234 -2.94925,-2.827418 z m 41.91118,1.22765 c 0.27192,-0.43994 0.65308,-0.79989 0.8471,-0.79989 0.19398,0 0.35273,0.35995 0.35273,0.79989 0,0.439928 -0.3812,0.799888 -0.84708,0.799888 -0.46591,0 -0.62464,-0.35996 -0.35275,-0.799888 z m -11.9983,-2.39966 c 0.79629,-0.87988 1.57502,-1.59977 1.73053,-1.59977 0.15548,0 -0.16672,0.71989 -0.71632,1.59977 -0.5495,0.87988 -1.32824,1.59977 -1.73054,1.59977 -0.40228,0 -0.08,-0.71989 0.71633,-1.59977 z m 1.99971,-3.10514 c 0,-0.43994 0.35996,-1.02233 0.79989,-1.29424 0.43994,-0.27188 0.79989,-0.13448 0.79989,0.30553 0,0.43995 -0.35995,1.02236 -0.79989,1.29425 -0.43993,0.2719 -0.79989,0.13448 -0.79989,-0.30554 z m -46.9536,-5.69362 c 0,-2.41965 0.14998,-3.40951 0.33323,-2.19969 0.18321,1.20983 0.18321,3.18955 0,4.39938 -0.18323,1.20983 -0.33323,0.21997 -0.33323,-2.19969 z m 11.02185,1.13317 c 0.0385,-0.93181 0.22796,-1.12134 0.48328,-0.48326 0.23097,0.57742 0.20272,1.26733 -0.0632,1.53311 -0.26579,0.26581 -0.45483,-0.20672 -0.42012,-1.04985 z m 50.86296,-5.26591 c -0.72374,-1.84254 -1.18488,-3.4811 -1.0247,-3.64128 0.16023,-0.16022 0.89125,1.20846 1.62462,3.04137 0.7334,1.83291 1.19453,3.47148 1.02473,3.64125 -0.16973,0.16974 -0.90088,-1.1988 -1.62465,-3.04134 z m -50.86296,0.46659 c 0.0385,-0.93182 0.22796,-1.12134 0.48328,-0.48326 0.23097,0.57742 0.20272,1.26732 -0.0632,1.53311 -0.26579,0.26581 -0.45483,-0.20672 -0.42012,-1.04985 z m 37.59467,-2.39966 c 0.0385,-0.93182 0.22797,-1.12134 0.48329,-0.48326 0.23096,0.57742 0.20271,1.26732 -0.0632,1.53312 -0.26579,0.2658 -0.45484,-0.20673 -0.42011,-1.04986 z m -37.20643,-0.56775 c 0.30038,-0.78886 0.74765,-1.2328 0.99391,-0.98653 0.24622,0.24622 5e-4,0.89173 -0.54615,1.4343 -0.78998,0.78411 -0.88184,0.69222 -0.44776,-0.44777 z m -10.78676,-1.03202 c 0.0385,-0.93182 0.22797,-1.12134 0.48328,-0.48326 0.23098,0.57742 0.20273,1.26732 -0.0632,1.53311 -0.2658,0.26581 -0.45485,-0.20672 -0.42012,-1.04985 z m 46.44569,-2.53297 c -0.87286,-2.03974 -0.85311,-2.08678 0.27153,-0.64701 0.66706,0.85398 1.21283,1.84384 1.21283,2.19969 0,1.21576 -0.54258,0.64821 -1.48436,-1.55268 z m -33.05528,-1.3998 c 0.85392,-1.71291 3.77988,-4.56073 5.74372,-5.59028 0.6599,-0.34598 0.29996,0.22721 -0.79989,1.27397 -1.09984,1.04668 -2.84157,2.80594 -3.87049,3.90954 -1.43418,1.53823 -1.68469,1.63317 -1.07334,0.40677 z m 30.17673,-2.75931 c -0.77621,-0.8577 -2.90171,-2.29722 -4.72333,-3.19892 -1.82159,-0.90168 -2.73608,-1.63972 -2.03221,-1.64006 1.32148,-6.6e-4 7.35331,4.0363 8.2862,5.54576 0.84971,1.37485 -0.002,0.98103 -1.53066,-0.70678 z m 12.41197,-2.11025 c -1.04586,-1.97142 -3.10473,-4.64084 -4.57535,-5.93203 -1.47059,-1.29122 -2.67383,-2.61168 -2.67383,-2.93439 0,-0.32268 1.4703,0.83615 3.26734,2.57521 2.97071,2.87484 6.84771,8.91129 6.16313,9.59586 -0.15398,0.15398 -1.13546,-1.3332 -2.18129,-3.30465 z m -51.38389,-1.52953 c 0.82373,-1.62785 5.13695,-5.86472 7.37113,-7.2407 0.67708,-0.41699 0.22121,0.14172 -1.01321,1.24155 -1.23432,1.09984 -3.35195,3.25954 -4.70583,4.79931 -1.35391,1.53979 -2.09733,2.07971 -1.65209,1.19984 z m 20.78802,-1.74626 c 0.57742,-0.23096 1.26733,-0.20271 1.53311,0.0632 0.26581,0.26578 -0.20672,0.45483 -1.04985,0.42011 -0.93181,-0.0385 -1.12134,-0.22797 -0.48326,-0.48328 z m -9.89569,-7.80827 c 0.85398,-0.68417 1.90383,-1.24394 2.33302,-1.24394 1.01628,0 0.56249,0.36947 -1.88598,1.53555 -1.88554,0.898 -1.91106,0.88135 -0.44704,-0.29161 z m 26.04341,-0.90876 c -2.41967,-1.03721 -3.85945,-1.88897 -3.19955,-1.89281 1.42172,-0.007 7.99886,2.88461 7.99886,3.51825 0,0.24146 -0.09,0.39884 -0.19997,0.3497 -0.10992,-0.0493 -2.17968,-0.93797 -4.59934,-1.97514 z m -21.59694,-1.09852 c 0.6599,-0.44656 1.88973,-0.81744 2.73293,-0.82419 2.04649,-0.0175 1.40803,0.44146 -1.5331,1.09937 -1.75248,0.39199 -2.07608,0.31778 -1.19983,-0.27518 z m 5.39923,-1.36618 c 0.54992,-0.22197 1.44979,-0.22197 1.99972,0 0.54992,0.22196 0.1,0.40344 -0.99986,0.40344 -1.09985,0 -1.54978,-0.18148 -0.99986,-0.40344 z m 5.19927,-0.0433 c 1.20983,-0.18323 3.18955,-0.18323 4.39938,0 1.20982,0.18322 0.21996,0.33323 -2.19969,0.33323 -2.41966,0 -3.40952,-0.14998 -2.19969,-0.33323 z"
     id="path2" /></svg>
