<?xml version="1.0" encoding="UTF-8" standalone="no"?>
<svg
   id="svg"
   version="1.1"
   width="400"
   height="377.93103448275866"
   viewBox="0, 0, 400,377.93103448275866"
   sodipodi:docname="B16.svg"
   inkscape:version="1.3.2 (091e20e, 2023-11-25, custom)"
   xml:space="preserve"
   xmlns:inkscape="http://www.inkscape.org/namespaces/inkscape"
   xmlns:sodipodi="http://sodipodi.sourceforge.net/DTD/sodipodi-0.dtd"
   xmlns="http://www.w3.org/2000/svg"
   xmlns:svg="http://www.w3.org/2000/svg"
   xmlns:rdf="http://www.w3.org/1999/02/22-rdf-syntax-ns#"
   xmlns:cc="http://creativecommons.org/ns#"
   xmlns:dc="http://purl.org/dc/elements/1.1/"><metadata
     id="metadata11"><rdf:RDF><cc:Work
         rdf:about=""><dc:format>image/svg+xml</dc:format><dc:type
           rdf:resource="http://purl.org/dc/dcmitype/StillImage" /></cc:Work></rdf:RDF></metadata><defs
     id="defs9" /><sodipodi:namedview
     pagecolor="#ffffff"
     bordercolor="#666666"
     borderopacity="1"
     objecttolerance="10"
     gridtolerance="10"
     guidetolerance="10"
     inkscape:pageopacity="0"
     inkscape:pageshadow="2"
     inkscape:window-width="1920"
     inkscape:window-height="1017"
     id="namedview7"
     showgrid="false"
     inkscape:zoom="0.88310928"
     inkscape:cx="550.89445"
     inkscape:cy="61.713767"
     inkscape:window-x="1358"
     inkscape:window-y="-8"
     inkscape:window-maximized="1"
     inkscape:current-layer="svg"
     inkscape:showpageshadow="0"
     inkscape:pagecheckerboard="0"
     inkscape:deskcolor="#d1d1d1" /><path
     style="fill:#ffffff;stroke-width:1.29368"
     d="m 315.41536,280.55222 c 0,-0.56597 0.46308,-1.02906 1.02907,-1.02906 0.56598,0 1.02906,0.46309 1.02906,1.02906 0,0.56599 -0.46308,1.02908 -1.02906,1.02908 -0.56599,0 -1.02907,-0.46309 -1.02907,-1.02908 z m 8.23251,0 c 0,-0.56597 0.46309,-1.02906 1.02907,-1.02906 0.56598,0 1.02907,0.46309 1.02907,1.02906 0,0.56599 -0.46309,1.02908 -1.02907,1.02908 -0.56598,0 -1.02907,-0.46309 -1.02907,-1.02908 z m 6.17439,0 c 0,-0.56597 0.46308,-1.02906 1.02907,-1.02906 0.56598,0 1.02906,0.46309 1.02906,1.02906 0,0.56599 -0.46308,1.02908 -1.02906,1.02908 -0.56599,0 -1.02907,-0.46309 -1.02907,-1.02908 z m 21.61035,-1.02906 c 0.6996,-1.13197 1.73507,-2.05812 2.30106,-2.05812 0.56599,0 0.45666,0.92615 -0.24293,2.05812 -0.6996,1.13198 -1.73507,2.05814 -2.30106,2.05814 -0.56599,0 -0.45667,-0.92616 0.24293,-2.05814 z m 5.97785,-0.318 c -0.90986,-1.47217 -0.56457,-1.81745 0.9076,-0.9076 2.37252,1.4663 3.1853,3.28374 1.46853,3.28374 -0.49918,0 -1.56844,-1.06926 -2.37613,-2.37614 z m 25.92314,1.34706 c 0,-0.56597 0.46308,-1.02906 1.02906,-1.02906 0.56599,0 1.02907,0.46309 1.02907,1.02906 0,0.56599 -0.46308,1.02908 -1.02907,1.02908 -0.56598,0 -1.02906,-0.46309 -1.02906,-1.02908 z M 282.48531,278.4941 c 0,-0.56599 0.46307,-1.02906 1.02906,-1.02906 0.56599,0 1.02906,0.46307 1.02906,1.02906 0,0.56599 -0.46307,1.02906 -1.02906,1.02906 -0.56599,0 -1.02906,-0.46307 -1.02906,-1.02906 z m 12.34876,0 c 0,-0.56599 0.46309,-1.02906 1.02908,-1.02906 0.56597,0 1.02906,0.46307 1.02906,1.02906 0,0.56599 -0.46309,1.02906 -1.02906,1.02906 -0.56599,0 -1.02908,-0.46307 -1.02908,-1.02906 z m 8.23252,0 c 0,-0.56599 0.46307,-1.02906 1.02906,-1.02906 0.56599,0 1.02907,0.46307 1.02907,1.02906 0,0.56599 -0.46308,1.02906 -1.02907,1.02906 -0.56599,0 -1.02906,-0.46307 -1.02906,-1.02906 z m 16.46503,0 c 0,-0.56599 0.46308,-1.02906 1.02906,-1.02906 0.56599,0 1.02907,0.46307 1.02907,1.02906 0,0.56599 -0.46308,1.02906 -1.02907,1.02906 -0.56598,0 -1.02906,-0.46307 -1.02906,-1.02906 z m 41.9951,-1.34706 c -0.90986,-1.47218 -0.56459,-1.81746 0.9076,-0.9076 2.37251,1.46629 3.18529,3.28372 1.46853,3.28372 -0.49918,0 -1.56844,-1.06926 -2.37613,-2.37612 z m -70.8089,-0.71106 c 0,-0.56599 0.46308,-1.02908 1.02907,-1.02908 0.56598,0 1.02906,0.46309 1.02906,1.02908 0,0.56597 -0.46308,1.02906 -1.02906,1.02906 -0.56599,0 -1.02907,-0.46309 -1.02907,-1.02906 z m 92.61578,-0.9406 c 0,-1.16137 -11.47369,-1.93695 -27.95956,-1.88993 -15.37776,0.0439 -28.46395,-0.42467 -29.0804,-1.04114 -0.61647,-0.61645 12.81941,-1.04313 29.85751,-0.94818 l 30.97837,0.17265 -1.08909,2.83813 c -1.25715,3.27607 -2.70683,3.7412 -2.70683,0.86847 z m -98.79206,-2.66123 c 10e-4,-0.84897 8.0286,-1.54358 17.83901,-1.54358 9.81041,0 17.41143,0.42567 16.89116,0.94594 -1.64462,1.64463 -34.73216,2.21401 -34.73017,0.59764 z m 37.04821,0.51454 c 0,-1.50929 0.61743,-2.12673 1.37208,-1.37208 0.75464,0.75464 0.75464,1.98952 0,2.74416 -0.75465,0.75465 -1.37208,0.13721 -1.37208,-1.37208 z m -68.43278,-1.45246 c 2.54694,-0.49056 6.71465,-0.49056 9.26158,0 2.54694,0.49055 0.46308,0.89192 -4.63078,0.89192 -5.09387,0 -7.17773,-0.40137 -4.6308,-0.89192 z m 73.80889,-4.14808 c -0.81637,-0.81637 -9.0746,-1.51099 -18.35164,-1.5436 l -16.86733,-0.0593 -0.63877,-7.718 -0.63879,-7.71798 h -6.94051 c -7.8523,0 -9.45871,-2.77507 -9.6505,-16.67122 -0.0775,-5.61322 -0.72246,-7.54738 -1.89804,-5.69176 -1.0416,1.64409 -1.7938,1.84753 -1.81223,0.49011 -0.0173,-1.27636 1.34752,-3.46514 3.03301,-4.86398 1.68549,-1.39883 2.60588,-3.28545 2.04531,-4.19248 -0.56057,-0.90703 0.10453,-2.02371 1.47794,-2.48153 1.54318,-0.5144 2.82252,-6.5905 3.34884,-15.90521 l 0.8517,-15.07284 -3.58296,-2.00512 -3.58295,-2.00512 2.81958,-1.76629 2.81959,-1.7663 -5.14532,-4.80289 c -6.72155,-6.27422 -8.0984,-6.56065 -11.19297,-2.32858 -1.81076,2.47636 -3.02455,2.82582 -4.0503,1.16611 -0.80557,-1.30345 -2.39084,-2.36991 -3.52282,-2.36991 -1.13197,0 -1.58112,0.7718 -0.99813,1.7151 0.583,0.94332 -0.24776,1.71512 -1.84612,1.71512 -1.59838,0 -2.42913,-0.7718 -1.84614,-1.71512 0.583,-0.9433 -0.43856,-1.7151 -2.27012,-1.7151 -2.01847,0 -2.74398,0.94841 -1.84198,2.40788 1.00974,1.63378 0.35246,1.97208 -2.0445,1.05229 -4.39151,-1.6852 -14.09384,4.35206 -12.16581,7.57013 0.77424,1.29228 -0.0984,1.12794 -1.94135,-0.36555 -1.8413,-1.4922 -6.41833,-2.41836 -10.17118,-2.05812 l -6.82337,0.65495 0.56578,4.11626 0.56576,4.11626 -2.21163,-3.60174 c -1.2164,-1.98094 -3.32332,-3.58754 -4.68204,-3.57021 -1.51109,0.0193 -1.27157,0.80625 0.61681,2.02663 1.81568,1.17338 2.08677,2.00807 0.6582,2.0266 -1.71895,0.0223 -1.91136,1.83642 -0.6582,6.20591 1.11641,3.89269 1.01842,6.1744 -0.26513,6.1744 -1.11976,0 -1.3404,1.15769 -0.49032,2.57266 l 1.5456,2.57266 -3.23865,-2.62249 -3.23866,-2.62248 -18.25223,2.09106 c -10.03874,1.15008 -23.90252,2.09866 -30.80843,2.10795 -16.77301,0.0225 -25.17888,3.21856 -33.39754,12.6981 -6.83206,7.88018 -16.83281,10.81511 -19.90638,5.84194 -4.239925,-6.86032 -14.568031,1.60505 -24.72396,20.26484 -9.211073,16.92378 -27.748113,21.63148 -43.177307,10.96537 -10.705603,-7.4007 -13.89006,-13.62793 -12.286745,-24.02675 0.698124,-4.52788 1.395951,-9.7853 1.550714,-11.68314 0.154777,-1.89783 1.16649,-2.90361 2.248256,-2.23503 1.131418,0.69925 1.391203,-0.28455 0.611615,-2.31614 -0.856445,-2.23185 -0.550346,-3.03424 0.831672,-2.18012 1.202803,0.74337 4.384892,-0.71331 7.071306,-3.23707 l 4.884397,-4.58864 -0.306979,4.07508 c -0.168826,2.24131 -1.69439,3.97762 -3.390126,3.85849 -1.695736,-0.11915 -5.253071,3.66575 -7.90519,8.41083 l -4.822028,8.62742 4.118057,2.20391 4.118057,2.20392 2.128745,-3.97759 c 1.97979,-3.69927 16.43911,-10.12765 18.530597,-8.2384 0.513864,0.46417 1.056125,2.49761 1.205028,4.51874 0.474808,6.44485 4.676502,8.96176 7.80903,4.67779 l 2.760322,-3.77497 9.450806,1.41723 9.450807,1.41723 4.261604,-3.6489 c 4.893582,-4.19001 5.482519,-6.85036 1.516509,-6.85036 -1.509795,0 -6.145106,-4.93666 -10.30068,-10.97038 -9.74204,-14.145 -16.824796,-20.7262 -20.703805,-19.23768 -2.09815,0.80513 -2.720477,0.22922 -1.942649,-1.79775 1.680367,-4.37895 6.058403,-3.63935 10.330783,1.74522 7.06022,8.89817 8.305339,8.20341 8.48881,-4.73658 0.09547,-6.73282 -0.48627,-12.64931 -1.292766,-13.14775 -1.915533,-1.18387 -1.520494,-16.22691 0.512519,-19.51639 0.866458,-1.40195 1.061856,-5.0433 0.434225,-8.09189 -0.627631,-3.04858 -0.629559,-4.36095 -0.0039,-2.91637 0.700621,1.61866 4.141537,-1.54035 8.967162,-8.2325 4.306676,-5.97246 7.31448,-11.78518 6.684029,-12.91716 -0.630464,-1.13197 -0.410719,-1.39384 0.48834,-0.58195 0.899059,0.8119 3.971961,-0.36235 6.828689,-2.60944 6.642706,-5.22516 25.913166,-10.86743 31.288966,-9.16121 2.27058,0.72066 4.12834,2.53059 4.12834,4.02208 0,1.49148 2.34491,4.24824 5.21091,6.12611 2.86599,1.87787 4.67146,4.28715 4.01213,5.35395 -0.67851,1.09786 1.30273,1.60708 4.56521,1.17335 21.18776,-2.81681 28.47124,-4.15674 35.19946,-6.47554 5.79705,-1.99789 8.31576,-2.05393 10.56882,-0.23517 l 2.95801,2.38782 -1.18057,-3.16069 c -1.40579,-3.76364 1.16009,-4.23219 24.07837,-4.39678 23.83815,-0.17122 38.79831,0.78075 41.23159,2.62372 1.16993,0.8861 3.35267,0.85369 4.85051,-0.0721 1.9078,-1.17908 2.04122,-2.10473 0.44551,-3.09092 -1.25282,-0.7743 -2.30602,-0.19544 -2.34044,1.28632 -0.037,1.5935 -0.9549,1.15966 -2.24678,-1.06196 -3.02397,-5.20021 -0.56622,-6.88324 4.00736,-2.74421 2.07976,1.88215 4.54931,2.72545 5.48792,1.874 0.93859,-0.85145 1.07496,-0.44644 0.30302,0.90002 -0.84832,1.47969 0.0388,2.52776 2.24269,2.64945 2.00542,0.11074 12.22493,0.86143 22.71004,1.66816 13.26903,1.02093 18.8055,0.7963 18.21398,-0.73903 l 4.4728,-0.12484 c -0.88941,-0.54969 -1.61711,-0.0762 -1.61711,1.05225 0,1.9529 1.97818,2.27525 14.85443,2.42059 3.07607,0.0347 6.13418,0.93903 6.79581,2.00958 0.67674,1.09499 -0.41933,1.41081 -2.50564,0.72198 -2.03976,-0.67346 -0.67623,0.7264 3.03004,3.11077 l 9.97137,6.39335 c 1.07807,0 1.96013,1.85233 1.96013,4.11626 0,2.26395 -0.61505,4.11626 -1.36676,4.11626 -0.75172,0 -2.2679,3.55027 -3.36932,7.8895 -1.53236,6.03702 -1.39277,7.88948 0.59449,7.88948 l -2.23158,4.71859 c 0.67113,1.08592 0.0543,3.84128 -1.37061,6.12301 -1.91569,3.06752 -1.98882,4.75063 -0.28064,6.45881 1.70819,1.70819 1.56857,3.73281 -0.5358,7.76935 -5.97894,11.4686 -10.70196,22.92605 -9.02286,21.8883 0.96302,-0.59518 1.61757,0.68844 1.45455,2.85247 -0.19849,2.63502 -1.34698,3.54213 -3.47716,2.74633 l -3.18077,-1.18828 3.08718,3.86762 c 1.69796,2.12718 2.02655,3.23206 0.7302,2.45528 -1.29635,-0.77677 -2.91713,0.0473 -3.60172,1.83139 -1.69276,4.41125 -1.58847,4.96516 0.93486,4.96516 1.19878,0 1.7026,-0.7718 1.1196,-1.7151 -0.583,-0.94331 0.13414,-1.7151 1.59365,-1.7151 1.4595,0 2.65363,1.19413 2.65363,2.65363 0,1.4595 -0.66651,2.24171 -1.48111,1.73826 -0.81462,-0.50346 -1.98717,1.0197 -2.60565,3.3848 -0.61849,2.36511 -2.03172,3.73951 -3.14051,3.05424 -1.10879,-0.68526 -1.80056,0.22177 -1.53729,2.01564 0.57756,3.93514 5.41006,7.2448 8.12674,5.5658 1.07792,-0.66619 1.29902,-0.142 0.49134,1.16487 8.80008,-4.73552 8.83263,1.91274 12.73135,2.53861 2.14703,0.0986 2.52608,0.57045 0.96447,1.20058 -4.0127,1.61915 -3.03858,10.59152 1.40829,12.97142 2.18953,1.1718 7.2834,2.13053 11.31972,2.13053 h 7.33875 v 3.93331 c 0,2.16331 -2.84954,6.33102 -6.3323,9.26158 l -6.33229,5.32827 h -11.84784 c -6.51631,0 -12.51578,-0.66794 -13.33215,-1.48431 z m 26.64604,-3.76758 3.9951,-3.19377 -5.14533,1.44531 c -7.40529,2.08011 -18.13498,1.79378 -29.89321,-0.79773 -5.63216,-1.24131 -14.72072,-2.84196 -20.19681,-3.55698 l -9.95651,-1.30004 0.73319,3.75489 0.7332,3.75489 16.78486,0.0151 c 9.23167,0.008 17.4727,0.70291 18.31339,1.5436 2.81493,2.81492 20.52559,1.61761 24.63212,-1.66523 z m 1.42243,-5.14697 c 14.13973,-3.9268 7.12107,-7.44606 -12.8633,-6.44986 l -5.14532,0.25649 3.7303,-1.55202 3.73029,-1.55204 -7.40185,-3.52969 c -9.24491,-4.40859 -10.56817,-4.42973 -6.99966,-0.1119 l 2.82466,3.41784 -4.54869,-2.83258 c -2.55063,-1.58835 -3.6379,-3.39548 -2.47524,-4.11404 1.26791,-0.78363 0.84503,-2.30097 -1.0885,-3.90566 -1.73907,-1.4433 -2.57064,-3.67694 -1.84792,-4.96365 0.72273,-1.2867 -1.71276,0.67055 -5.4122,4.34946 -7.41425,7.37312 -15.15695,8.66892 -18.44665,3.08719 l -2.12274,-3.60172 -2.06427,3.08719 c -2.51797,3.76573 -2.64578,8.34435 -0.33467,11.98965 0.96202,1.51738 8.40045,3.56569 16.76125,4.6155 8.26742,1.03809 15.50163,2.3574 16.07601,2.93179 1.82519,1.82519 19.61799,1.10263 27.6285,-1.122 z m -21.09581,-9.15336 c 0,-0.56599 0.46308,-1.02906 1.02906,-1.02906 0.56599,0 1.02907,0.46307 1.02907,1.02906 0,0.56598 -0.46308,1.02906 -1.02907,1.02906 -0.56598,0 -1.02906,-0.46308 -1.02906,-1.02906 z m -14.4069,-8.23252 c 0,-0.56598 0.46308,-1.02906 1.02906,-1.02906 0.56599,0 1.02907,0.46308 1.02907,1.02906 0,0.56599 -0.46308,1.02907 -1.02907,1.02907 -0.56598,0 -1.02906,-0.46308 -1.02906,-1.02907 z m -28.8138,4.34986 c 0,-1.5972 -2.71849,-3.25258 -6.17439,-3.75981 l -6.17438,-0.9062 v 3.7598 c 0,2.80548 1.56721,3.75981 6.17438,3.75981 3.89162,0 6.17439,-1.05503 6.17439,-2.8536 z m 23.34742,-9.16007 c 3.1154,-3.25176 5.08511,-7.16641 4.44508,-8.83427 -0.6321,-1.64725 1.24833,-10.82809 4.17876,-20.40186 12.89886,-42.14099 18.5765,-71.81008 15.04413,-78.61489 -3.71469,-7.15604 -13.39049,-9.79994 -43.35158,-11.84576 -16.16473,-1.10377 -31.5755,-2.0206 -34.24616,-2.03739 l -4.85574,-0.0305 1.18459,15.9505 c 0.65151,8.77276 1.44736,18.72896 1.76854,22.12488 l 0.58397,6.17438 7.20344,0.55011 c 3.9619,0.30257 16.92811,-2.18075 28.8138,-5.51847 11.8857,-3.33771 20.13191,-4.97451 18.32491,-3.63731 -1.80699,1.33721 -5.0074,5.67283 -7.112,9.63473 l -3.82656,7.20344 -0.54937,29.84289 c -0.30215,16.41357 -0.80638,32.62133 -1.12051,36.01724 -0.37642,4.06943 0.30592,5.99897 2.00151,5.65985 1.41497,-0.28298 2.57267,0.41163 2.57267,1.54359 0,3.58452 3.16698,2.24513 8.94052,-3.78114 z m -2.76613,-40.76959 c 0,-1.10885 3.01001,-4.73631 6.68891,-8.06102 l 6.68892,-6.04491 -6.17439,7.19317 c -3.39591,3.95625 -6.40593,7.58371 -6.68892,8.06101 -0.28299,0.47732 -0.51452,-0.0395 -0.51452,-1.14825 z m 12.34876,-16.16406 c 0,-0.56598 0.46309,-1.02906 1.02907,-1.02906 0.56598,0 1.02907,0.46308 1.02907,1.02906 0,0.56599 -0.46309,1.02906 -1.02907,1.02906 -0.56598,0 -1.02907,-0.46307 -1.02907,-1.02906 z m 3.3857,-9.26158 c 1.62878,-8.87626 2.79903,-10.55056 2.75718,-3.94474 -0.0173,2.73559 -0.9422,6.36304 -2.05526,8.061 -1.42379,2.172 -1.63188,0.95173 -0.70192,-4.11626 z m -65.12956,-21.61034 c 0,-0.56598 0.46309,-1.02906 1.02908,-1.02906 0.56598,0 1.02906,0.46308 1.02906,1.02906 0,0.56599 -0.46308,1.02907 -1.02906,1.02907 -0.56599,0 -1.02908,-0.46308 -1.02908,-1.02907 z m 4.11626,0 c 0,-0.56598 0.46309,-1.02906 1.02908,-1.02906 0.56597,0 1.02906,0.46308 1.02906,1.02906 0,0.56599 -0.46309,1.02907 -1.02906,1.02907 -0.56599,0 -1.02908,-0.46308 -1.02908,-1.02907 z m 11.96287,-0.37687 c 1.48572,-0.59453 3.26085,-0.52142 3.94476,0.16248 0.68389,0.6839 -0.53169,1.17034 -2.70129,1.08097 -2.39762,-0.0987 -2.8853,-0.58644 -1.24347,-1.24345 z m 8.23252,-2.05812 c 1.48572,-0.59454 3.26085,-0.52142 3.94476,0.16247 0.68389,0.68391 -0.5317,1.17034 -2.70131,1.08098 -2.3976,-0.0987 -2.88528,-0.58646 -1.24345,-1.24345 z m 7.24633,-2.02429 c 0.75464,-0.75464 1.98953,-0.75464 2.74418,0 0.75464,0.75465 0.1372,1.37209 -1.3721,1.37209 -1.50929,0 -2.12673,-0.61744 -1.37208,-1.37209 z m 9.6046,-1.71511 c 0,-0.56597 0.46307,-1.02906 1.02906,-1.02906 0.56599,0 1.02907,0.46309 1.02907,1.02906 0,0.56599 -0.46308,1.02907 -1.02907,1.02907 -0.56599,0 -1.02906,-0.46308 -1.02906,-1.02907 z m 32.96152,95.31184 c -2.60993,-0.96548 -5.27868,-1.22208 -5.93052,-0.57023 -1.93763,1.93763 4.23815,4.79601 7.58628,3.51121 2.35585,-0.90402 1.96265,-1.60244 -1.65576,-2.94098 z m -41.58108,-3.64178 c 4.82228,-6.52248 6.11002,-10.74582 2.03355,-6.66934 -3.46787,3.46786 -11.83289,3.07809 -13.251,-0.61744 -1.60306,-4.17751 -4.1696,-3.89346 -5.34239,0.59129 -3.22157,12.31931 8.80646,17.18249 16.55984,6.69549 z m 0.47504,-9.45093 c 1.5697,-1.89138 2.97151,-10.74756 3.43842,-21.7228 l 0.78828,-18.5296 -5.75907,3.61026 -5.75907,3.61027 5.65986,-5.45768 c 3.30149,-3.18355 5.65984,-7.67012 5.65984,-10.76735 0,-2.92034 1.4014,-8.6637 3.11421,-12.76305 1.71281,-4.09934 2.69897,-7.8686 2.19146,-8.37611 -0.50751,-0.50751 -5.51655,0.60308 -11.13121,2.46796 -12.31015,4.08877 -13.42726,6.97351 -10.35887,26.74974 1.22027,7.86485 1.60225,19.74814 0.84886,26.4073 -0.92163,8.14607 -0.57464,13.06572 1.06049,15.03593 3.16468,3.81321 6.94336,3.71553 10.2468,-0.26487 z m 30.78394,-6.06836 c 0,-0.56599 -0.46309,-1.02907 -1.02907,-1.02907 -0.56598,0 -1.02907,0.46308 -1.02907,1.02907 0,0.56598 0.46309,1.02906 1.02907,1.02906 0.56598,0 1.02907,-0.46308 1.02907,-1.02906 z m -94.98104,-44.45111 c 3.56483,-1.2427 6.4815,-3.09503 6.4815,-4.11626 0,-1.02124 1.85233,-1.85679 4.11626,-1.85679 2.26395,0 4.11626,-0.98857 4.11626,-2.19682 0,-1.23439 1.74191,-1.64396 3.97602,-0.93488 l 3.97603,1.26194 1.12315,-8.84124 c 0.61772,-4.86267 0.4493,-16.71356 -0.3743,-26.33531 l -1.49744,-17.49409 -12.34878,-1.45754 c -13.16891,-1.55435 -24.38357,-0.33552 -22.65454,2.46214 0.57744,0.93429 -0.81815,1.21022 -3.1013,0.61316 -2.28314,-0.59705 -4.65447,-1.89992 -5.26963,-2.89526 -1.58273,-2.56091 -9.10803,-2.25529 -9.10803,0.36989 0,1.19878 0.86215,1.64676 1.91591,0.99551 1.05376,-0.65127 2.4474,-0.32415 3.097,0.72692 1.35813,2.1975 -2.75251,1.8968 -6.55651,-0.47962 -3.6357,-2.2713 -3.20876,1.72007 0.51453,4.81012 1.69796,1.40918 3.08719,3.83798 3.08719,5.39733 0,1.55935 -1.38923,2.83518 -3.08719,2.83518 -3.79918,0 -3.80156,-0.15427 0.14277,9.28583 1.92572,4.6089 3.21135,13.61939 3.18387,22.31451 -0.029,9.16556 0.87383,15.16884 2.42989,16.15791 3.65624,2.32399 18.40413,1.96859 25.83734,-0.62263 z m -17.53,-3.22889 c 0.75465,-0.75464 1.98954,-0.75464 2.74418,0 0.75465,0.75465 0.13721,1.3721 -1.37208,1.3721 -1.5093,0 -2.12674,-0.61745 -1.3721,-1.3721 z m 9.44883,-5.31682 c 2.74426,-3.11293 6.44889,-5.58674 8.23252,-5.49737 l 3.24297,0.16249 -3.0872,1.12853 c -1.69796,0.6207 -5.40258,3.09452 -8.23252,5.49737 l -5.14532,4.36883 z m 10.44641,1.54359 c 0,-0.56598 0.46309,-1.02906 1.02908,-1.02906 0.56599,0 1.02906,0.46308 1.02906,1.02906 0,0.56598 -0.46307,1.02907 -1.02906,1.02907 -0.56599,0 -1.02908,-0.46309 -1.02908,-1.02907 z m -18.52314,-25.7266 c 0,-1.50929 0.61744,-2.12673 1.37208,-1.37208 0.75465,0.75464 0.75465,1.98951 0,2.74417 -0.75464,0.75465 -1.37208,0.13721 -1.37208,-1.37209 z m -6.71864,-14.93444 -3.63143,-6.6759 4.14596,4.85879 c 3.5279,4.13446 5.41349,8.55109 3.63145,8.50603 -0.28299,-0.008 -2.14868,-3.01717 -4.14598,-6.68892 z m 16.74675,-7.19044 -2.82467,-3.60172 3.60172,2.82467 c 3.42833,2.68867 4.51859,4.37878 2.82467,4.37878 -0.42738,0 -2.04816,-1.62078 -3.60172,-3.60173 z M 82.581156,169.90965 c 1.368408,-2.55689 2.766183,-8.80845 3.106176,-13.89236 1.449936,-21.68137 11.176013,-33.57826 32.537878,-39.80018 10.51277,-3.06199 10.98887,-6.31504 1.04424,-7.13488 -10.00249,-0.82462 -25.268887,6.38412 -29.064597,13.72421 -1.55118,2.99966 -4.729219,7.18145 -7.062289,9.29286 -6.494129,5.8771 -11.11922,22.06461 -9.461945,33.11615 1.528424,10.19223 4.983002,12.01419 8.900537,4.6942 z m 184.213684,-2.72887 c 1.73902,-0.25525 4.24189,0.83728 5.56191,2.42781 3.17302,3.82326 6.0123,3.67366 6.0123,-0.31677 0,-1.76476 -0.92616,-2.63625 -2.05812,-1.93667 -1.13198,0.6996 -2.05814,0.36837 -2.05814,-0.73608 0,-1.10444 1.15769,-2.41872 2.57266,-2.92062 1.41497,-0.5019 -2.25465,-0.85079 -8.1547,-0.77532 l -10.72737,0.13723 0.79832,4.20553 c 0.43907,2.31304 0.88131,4.66861 0.98277,5.23459 0.10142,0.56598 1.02237,-0.29499 2.04648,-1.91329 1.02411,-1.6183 3.28487,-3.15118 5.02389,-3.40641 z M 133.4193,150.68453 c 5.45669,-18.77033 3.40909,-33.75352 -4.61273,-33.75352 -6.5506,0 -20.37279,5.02335 -26.61349,9.67204 -6.090189,4.53658 -14.981943,20.07584 -12.759405,22.29838 2.576127,2.57613 7.396292,-2.03079 12.515555,-11.96185 3.04693,-5.91085 5.54885,-9.35775 5.55982,-7.65979 0.0104,1.69795 -1.87882,6.20165 -4.19952,10.00822 -2.32072,3.80657 -3.938028,7.11265 -3.594038,7.34683 0.343988,0.23418 4.403868,1.50889 9.021948,2.83267 4.61808,1.32378 10.6381,4.63464 13.37783,7.35749 2.73974,2.72284 5.65007,5.04833 6.46744,5.16774 0.81735,0.1194 2.99383,-4.96929 4.83659,-11.30821 z m -23.81678,-24.49194 c 0,-0.56599 0.46307,-1.02906 1.02906,-1.02906 0.56598,0 1.02906,0.46307 1.02906,1.02906 0,0.56599 -0.46308,1.02906 -1.02906,1.02906 -0.56599,0 -1.02906,-0.46307 -1.02906,-1.02906 z m 233.9406,1.7151 c -0.75466,-0.75464 -1.37209,-0.1372 -1.37209,1.3721 0,1.50929 0.61743,2.12673 1.37209,1.37208 0.75465,-0.75464 0.75465,-1.98952 0,-2.74418 z M 200.16017,123.3574 c 0,-2.63183 -6.05168,-7.23513 -7.54648,-5.74035 -1.4948,1.4948 3.10851,7.54648 5.74035,7.54648 0.99337,0 1.80613,-0.81276 1.80613,-1.80613 z m 59.68572,-17.74609 c 0,-0.56599 -0.46307,-1.02906 -1.02906,-1.02906 -0.56599,0 -1.02906,0.46307 -1.02906,1.02906 0,0.56599 0.46307,1.02906 1.02906,1.02906 0.56599,0 1.02906,-0.46307 1.02906,-1.02906 z M 80.788718,235.2734 c 0,-0.56599 0.463074,-1.02906 1.029061,-1.02906 0.565987,0 1.029061,0.46307 1.029061,1.02906 0,0.56599 -0.463074,1.02906 -1.029061,1.02906 -0.565987,0 -1.029061,-0.46307 -1.029061,-1.02906 z m 143.039932,-0.32316 c 19.57748,-1.50553 44.25898,-1.61226 44.25456,-0.19136 -0.003,0.84897 -11.81332,1.38178 -26.24594,1.18402 -14.43263,-0.19777 -22.5365,-0.64447 -18.00862,-0.99266 z m -210.95817,-3.7931 c 0,-0.56597 0.463074,-1.02906 1.029061,-1.02906 0.565987,0 1.029062,0.46309 1.029062,1.02906 0,0.56599 -0.463075,1.02908 -1.029062,1.02908 -0.565987,0 -1.029061,-0.46309 -1.029061,-1.02908 z m 253.14979,-2.05812 c 0,-0.56599 0.46309,-1.02906 1.02908,-1.02906 0.56597,0 1.02906,0.46307 1.02906,1.02906 0,0.56599 -0.46309,1.02906 -1.02906,1.02906 -0.56599,0 -1.02908,-0.46307 -1.02908,-1.02906 z M 335.3106,228.756 h 3e-5 z M 97.25374,227.0409 c 0,-0.56599 0.463074,-1.02908 1.029061,-1.02908 0.565987,0 1.029062,0.46309 1.029062,1.02908 0,0.56597 -0.463075,1.02906 -1.029062,1.02906 -0.565987,0 -1.029061,-0.46309 -1.029061,-1.02906 z m 168.82957,-2.05814 c 0,-1.13197 0.89779,-3.44736 1.9951,-5.14532 1.0973,-1.69795 1.99509,-2.16103 1.99509,-1.02906 0,1.13197 -0.89779,3.44736 -1.99509,5.14532 -1.09731,1.69796 -1.9951,2.16104 -1.9951,1.02906 z m 61.68082,0 c 0,-0.56599 0.46309,-1.02906 1.02906,-1.02906 0.56599,0 1.02907,0.46307 1.02907,1.02906 0,0.56599 -0.46308,1.02906 -1.02907,1.02906 -0.56597,0 -1.02906,-0.46307 -1.02906,-1.02906 z M 56.091178,221.89558 c 0,-1.50931 0.617437,-2.12674 1.372082,-1.3721 0.754645,0.75465 0.754645,1.98953 0,2.74418 -0.754645,0.75464 -1.372082,0.13721 -1.372082,-1.37208 z m 37.046303,1.02906 c 0,-0.56599 0.463087,-1.02906 1.029061,-1.02906 0.565987,0 1.029075,0.46307 1.029075,1.02906 0,0.56599 -0.463088,1.02906 -1.029075,1.02906 -0.565974,0 -1.029061,-0.46307 -1.029061,-1.02906 z m -31.646735,-4.19582 c -1.986052,-5.17557 -1.400168,-6.51101 1.026047,-2.33874 1.201316,2.06585 1.75064,4.18965 1.220747,4.71956 -0.529906,0.5299 -1.54096,-0.54147 -2.246794,-2.38082 z m 268.331514,2.13768 c 0,-0.56598 0.46308,-1.02906 1.02907,-1.02906 0.56598,0 1.02906,0.46308 1.02906,1.02906 0,0.56599 -0.46308,1.02908 -1.02906,1.02908 -0.56599,0 -1.02907,-0.46309 -1.02907,-1.02908 z M 210.45081,204.40148 c 0,-0.56599 0.46308,-1.02906 1.02906,-1.02906 0.56599,0 1.02906,0.46307 1.02906,1.02906 0,0.56599 -0.46307,1.02906 -1.02906,1.02906 -0.56598,0 -1.02906,-0.46307 -1.02906,-1.02906 z M 27.277379,202.34336 c 0,-0.56599 0.463075,-1.02908 1.029062,-1.02908 0.565987,0 1.029061,0.46309 1.029061,1.02908 0,0.56597 -0.463074,1.02906 -1.029061,1.02906 -0.565987,0 -1.029062,-0.46309 -1.029062,-1.02906 z m 172.882791,-2.05814 c 0,-0.56599 0.46307,-1.02906 1.02906,-1.02906 0.56599,0 1.02906,0.46307 1.02906,1.02906 0,0.56599 -0.46307,1.02906 -1.02906,1.02906 -0.56599,0 -1.02906,-0.46307 -1.02906,-1.02906 z m 13.0348,-2.40114 c 0.75465,-0.75465 1.98954,-0.75465 2.74418,0 0.75465,0.75464 0.13721,1.37208 -1.37208,1.37208 -1.5093,0 -2.12674,-0.61744 -1.3721,-1.37208 z m -174.597889,-3.1719 c 2.263948,-1.29836 5.244507,-3.81713 6.623459,-5.59727 l 2.507212,-3.2366 0.06546,3.52931 c 0.03596,1.94114 -1.72597,4.48807 -3.915505,5.65987 -5.456219,2.92008 -10.410578,2.58673 -5.280614,-0.35531 z M 210.45081,192.0527 c 0,-0.56597 0.46308,-1.02906 1.02906,-1.02906 0.56599,0 1.02906,0.46309 1.02906,1.02906 0,0.56599 -0.46307,1.02908 -1.02906,1.02908 -0.56598,0 -1.02906,-0.46309 -1.02906,-1.02908 z m 4.11626,-2.05813 c 0,-0.56599 0.46307,-1.02906 1.02906,-1.02906 0.56599,0 1.02906,0.46307 1.02906,1.02906 0,0.56599 -0.46307,1.02907 -1.02906,1.02907 -0.56599,0 -1.02906,-0.46308 -1.02906,-1.02907 z m 129.66209,-3.0872 c 0,-1.50929 0.61744,-2.12673 1.37209,-1.37208 0.75464,0.75464 0.75464,1.98953 0,2.74418 -0.75465,0.75465 -1.37209,0.1372 -1.37209,-1.3721 z m -113.19707,-1.02906 c 0,-0.56599 0.46308,-1.02906 1.02906,-1.02906 0.56599,0 1.02906,0.46307 1.02906,1.02906 0,0.56599 -0.46307,1.02906 -1.02906,1.02906 -0.56598,0 -1.02906,-0.46307 -1.02906,-1.02906 z m 107.02268,-3.20865 c 0,-2.33075 0.88571,-3.69033 1.96825,-3.02128 1.08253,0.66904 1.44652,2.57601 0.80886,4.23772 -1.63256,4.25439 -2.77711,3.75304 -2.77711,-1.21644 z m -114.22612,0.12148 c 0.69958,-1.13198 1.6804,-2.05814 2.17959,-2.05814 0.49918,0 0.90759,0.92616 0.90759,2.05814 0,1.13196 -0.98082,2.05812 -2.17958,2.05812 -1.19878,0 -1.6072,-0.92615 -0.9076,-2.05812 z m -7.20346,-1.02908 c 0,-0.56597 0.46308,-1.02906 1.02906,-1.02906 0.56599,0 1.02907,0.46309 1.02907,1.02906 0,0.56599 -0.46308,1.02908 -1.02907,1.02908 -0.56598,0 -1.02906,-0.46309 -1.02906,-1.02908 z m -148.185249,-8.2325 c 0,-0.56599 0.463075,-1.02906 1.029062,-1.02906 0.565987,0 1.029061,0.46307 1.029061,1.02906 0,0.56599 -0.463074,1.02906 -1.029061,1.02906 -0.565987,0 -1.029062,-0.46307 -1.029062,-1.02906 z m 0,-45.27882 c 0,-0.56599 0.463075,-1.02907 1.029062,-1.02907 0.565987,0 1.029061,0.46308 1.029061,1.02907 0,0.56597 -0.463074,1.02906 -1.029061,1.02906 -0.565987,0 -1.029062,-0.46309 -1.029062,-1.02906 z m 4.116259,0 c 0,-0.56599 0.463074,-1.02907 1.029061,-1.02907 0.565988,0 1.029062,0.46308 1.029062,1.02907 0,0.56597 -0.463074,1.02906 -1.029062,1.02906 -0.565987,0 -1.029061,-0.46309 -1.029061,-1.02906 z m 76.15076,-13.37784 c 0,-1.50929 0.61743,-2.12674 1.37208,-1.37208 0.75464,0.75465 0.75464,1.98952 0,2.74416 -0.75465,0.75465 -1.37208,0.13721 -1.37208,-1.37208 z m -63.801997,-3.08721 c 0,-0.56598 0.463088,-1.02906 1.029075,-1.02906 0.565987,0 1.029061,0.46308 1.029061,1.02906 0,0.56599 -0.463074,1.02906 -1.029061,1.02906 -0.565987,0 -1.029075,-0.46307 -1.029075,-1.02906 z m 59.685737,0 c 0,-0.56598 0.46307,-1.02906 1.02906,-1.02906 0.56598,0 1.02906,0.46308 1.02906,1.02906 0,0.56599 -0.46308,1.02906 -1.02906,1.02906 -0.56599,0 -1.02906,-0.46307 -1.02906,-1.02906 z m -49.395083,-4.11626 c 0,-0.56597 0.463074,-1.02906 1.029061,-1.02906 0.565987,0 1.029062,0.46309 1.029062,1.02906 0,0.56599 -0.463075,1.02908 -1.029062,1.02908 -0.565987,0 -1.029061,-0.46309 -1.029061,-1.02908 z m 180.086233,-1.02906 c 0.6996,-1.13197 1.73508,-2.05812 2.30107,-2.05812 0.56598,0 0.45667,0.92615 -0.24293,2.05812 -0.6996,1.13198 -1.73508,2.05814 -2.30107,2.05814 -0.56598,0 -0.45667,-0.92616 0.24293,-2.05814 z M 84.904963,105.61131 c 0,-0.56599 0.463088,-1.02906 1.029075,-1.02906 0.565987,0 1.029061,0.46307 1.029061,1.02906 0,0.56599 -0.463074,1.02906 -1.029061,1.02906 -0.565987,0 -1.029075,-0.46307 -1.029075,-1.02906 z m 165.336327,-0.34302 c 0.75465,-0.75465 1.98952,-0.75465 2.74418,0 0.75464,0.75465 0.13721,1.37208 -1.3721,1.37208 -1.50929,0 -2.12672,-0.61743 -1.37208,-1.37208 z m -37.73236,-1.7151 c 0,-0.56599 0.46309,-1.02908 1.02907,-1.02908 0.56598,0 1.02907,0.46309 1.02907,1.02908 0,0.56597 -0.46309,1.02906 -1.02907,1.02906 -0.56598,0 -1.02907,-0.46309 -1.02907,-1.02906 z m 16.46504,0 c 0,-0.56599 0.46307,-1.02908 1.02906,-1.02908 0.56599,0 1.02906,0.46309 1.02906,1.02908 0,0.56597 -0.46307,1.02906 -1.02906,1.02906 -0.56599,0 -1.02906,-0.46309 -1.02906,-1.02906 z m 51.4532,0 c 0,-0.56599 0.46309,-1.02908 1.02908,-1.02908 0.56597,0 1.02906,0.46309 1.02906,1.02908 0,0.56597 -0.46309,1.02906 -1.02906,1.02906 -0.56599,0 -1.02908,-0.46309 -1.02908,-1.02906 z m -153.52709,-3.4052 c -0.90987,-1.472175 -0.56459,-1.81746 0.90759,-0.907598 1.30687,0.807688 2.37613,1.876938 2.37613,2.376128 0,1.71677 -1.81744,0.90398 -3.28372,-1.46853 z m 73.26009,1.34706 c 0,-0.56599 0.46307,-1.02906 1.02906,-1.02906 0.56599,0 1.02906,0.46307 1.02906,1.02906 0,0.56599 -0.46307,1.02906 -1.02906,1.02906 -0.56599,0 -1.02906,-0.46307 -1.02906,-1.02906 z m 4.11625,0 c 0,-0.56599 0.46308,-1.02906 1.02907,-1.02906 0.56599,0 1.02906,0.46307 1.02906,1.02906 0,0.56599 -0.46307,1.02906 -1.02906,1.02906 -0.56599,0 -1.02907,-0.46307 -1.02907,-1.02906 z m 57.62759,0 c 0,-0.56599 0.46309,-1.02906 1.02908,-1.02906 0.56598,0 1.02906,0.46307 1.02906,1.02906 0,0.56599 -0.46308,1.02906 -1.02906,1.02906 -0.56599,0 -1.02908,-0.46307 -1.02908,-1.02906 z m 12.34878,0 c 0,-0.56599 0.46307,-1.02906 1.02906,-1.02906 0.56599,0 1.02908,0.46307 1.02908,1.02906 0,0.56599 -0.46309,1.02906 -1.02908,1.02906 -0.56599,0 -1.02906,-0.46307 -1.02906,-1.02906 z M 115.7769,99.436928 c 0,-0.565987 0.46307,-1.029061 1.02906,-1.029061 0.56599,0 1.02906,0.463074 1.02906,1.029061 0,0.565992 -0.46307,1.029062 -1.02906,1.029062 -0.56599,0 -1.02906,-0.46307 -1.02906,-1.029062 z m 16.46502,-2.058136 c 0,-0.565987 0.46309,-1.029061 1.02907,-1.029061 0.56598,0 1.02907,0.463074 1.02907,1.029061 0,0.565987 -0.46309,1.029075 -1.02907,1.029075 -0.56598,0 -1.02907,-0.463088 -1.02907,-1.029075 z"
     id="path1"
     sodipodi:nodetypes="sssssssssssssssssssssssssssssssssssssssssssssssssssssssssssssscsssssssssssssscscccsssssssscccccssssssssssssscccssssssscccsssssssssssscssscccsssscccsssssssssscssssssssssscssssssssssssccssssccsssccsssssscssssssssssssssssscsscsccccsssccccsscsscccsscsssssscsssssssssssssssssscssssssssscsscsssscsssssssscsssssssssssssssssssssssssssssssssssssssssssssssssscccssssssssssssssssssscsscssssssssssssssssssssscsscssssssssssscscsscsssssssssssssssssscssssssssscssssssssssssssssssssssssssssssssssssssssssscccsssssssssssssssssssssssssssssssssssssssssssssssssssssscssssssssssssssssssssssssssssssssssssssssssssssssssssssssscssssssssssssssssssssssssssssssssssssssssssssssssssssssssssssssssssssssssssss" /></svg>
