<?xml version="1.0" encoding="UTF-8" standalone="no"?>
<svg
   xmlns:dc="http://purl.org/dc/elements/1.1/"
   xmlns:cc="http://creativecommons.org/ns#"
   xmlns:rdf="http://www.w3.org/1999/02/22-rdf-syntax-ns#"
   xmlns:svg="http://www.w3.org/2000/svg"
   xmlns="http://www.w3.org/2000/svg"
   xmlns:sodipodi="http://sodipodi.sourceforge.net/DTD/sodipodi-0.dtd"
   xmlns:inkscape="http://www.inkscape.org/namespaces/inkscape"
   id="svg"
   version="1.1"
   width="400"
   height="377.93103448275866"
   viewBox="0, 0, 400,377.93103448275866"
   sodipodi:docname="B2.svg"
   inkscape:version="0.92.5 (2060ec1f9f, 2020-04-08)">
  <metadata
     id="metadata11">
    <rdf:RDF>
      <cc:Work
         rdf:about="">
        <dc:format>image/svg+xml</dc:format>
        <dc:type
           rdf:resource="http://purl.org/dc/dcmitype/StillImage" />
      </cc:Work>
    </rdf:RDF>
  </metadata>
  <defs
     id="defs9" />
  <sodipodi:namedview
     pagecolor="#ffffff"
     bordercolor="#666666"
     borderopacity="1"
     objecttolerance="10"
     gridtolerance="10"
     guidetolerance="10"
     inkscape:pageopacity="0"
     inkscape:pageshadow="2"
     inkscape:window-width="1366"
     inkscape:window-height="693"
     id="namedview7"
     showgrid="false"
     inkscape:zoom="0.31222628"
     inkscape:cx="-78.322664"
     inkscape:cy="292.22283"
     inkscape:window-x="0"
     inkscape:window-y="0"
     inkscape:window-maximized="1"
     inkscape:current-layer="svg" />
  <path
     style="fill:#ffffff;stroke-width:0.69788152"
     d="m 115.91049,365.88436 c -8.9462,-3.28297 -11.1661,-5.80018 -11.1661,-12.66164 0,-4.12928 -0.18668,-4.67738 -2.44259,-7.17449 -1.94708,-2.15519 -2.44258,-3.27882 -2.44258,-5.53904 0,-1.55946 -0.340959,-3.47248 -0.757681,-4.25112 -0.618585,-1.15587 -0.458465,-1.73552 0.872352,-3.15798 1.769459,-1.8913 6.481949,-5.23926 8.422599,-5.98377 1.48531,-0.56982 1.22415,-1.34855 -2.6745,-7.97497 -2.98427,-5.07227 -5.15987,-12.75909 -5.16919,-18.26369 -0.002,-1.39832 -0.47187,-3.43892 -1.043349,-4.53466 -1.074214,-2.05969 -2.653564,-10.2415 -2.086404,-10.80866 0.176433,-0.17644 -0.223868,-0.71947 -0.889603,-1.2067 -1.094627,-0.80109 -1.203955,-2.51066 -1.142497,-17.86496 0.04514,-11.29286 0.361415,-18.03084 0.944277,-20.11958 0.481952,-1.72726 1.171765,-5.33879 1.532853,-8.02564 0.361088,-2.68684 1.014262,-6.29838 1.451463,-8.02563 1.09375,-4.32107 1.18262,-38.94409 0.101629,-39.62934 -0.432796,-0.27438 -1.021197,-1.90001 -1.307569,-3.61248 -0.286393,-1.71251 -0.779402,-3.59679 -1.095586,-4.18729 -2.049264,-3.82718 -5.08989,-20.98141 -4.254351,-24.00156 0.402067,-1.45329 -1.349594,-4.26829 -8.761837,-14.08068 -0.545547,-0.72217 -2.879002,-5.4503 -4.295025,-8.70267 -0.417769,-0.95958 -1.262031,-4.25707 -1.876102,-7.32775 -0.742567,-3.7131 -1.869712,-6.75178 -3.365337,-9.07246 -4.053209,-6.28921 -5.440924,-10.64053 -6.788359,-21.285389 -0.364381,-2.878761 -0.966609,-6.573317 -1.338297,-8.210122 -0.371687,-1.636805 -0.689572,-4.777272 -0.70643,-6.978815 -0.01745,-2.201544 -0.50856,-5.258991 -1.092686,-6.79433 -0.584127,-1.53534 -1.242731,-3.41962 -1.463545,-4.187289 -0.220836,-0.76767 -0.805552,-1.866833 -1.29939,-2.442586 -1.347108,-1.570525 -5.186198,-9.536782 -5.186198,-10.761542 0,-0.912013 -1.772553,-1.0976 -12.038456,-1.260437 L 32.513545,57.566154 32.302654,53.902276 c -0.151789,-2.635382 0.04427,-3.676697 0.697882,-3.709548 0.499836,-0.02512 6.012074,-0.0063 12.24939,0.04229 l 11.340575,0.088 v -2.050516 c 0,-2.668251 0.90729,-3.33408 5.760663,-4.227473 4.666297,-0.858964 6.103323,-0.502394 6.103323,1.514426 0,1.447254 0.0065,1.446975 1.422958,-0.07467 0.782609,-0.840005 1.676072,-1.527314 1.985473,-1.527314 1.154754,0 2.872502,2.615242 2.872502,4.373351 v 1.820847 l 47.28148,0.02366 c 26.00481,0.01308 48.57922,-0.154625 50.16535,-0.37251 2.10774,-0.289536 3.12935,-0.85482 3.79596,-2.100379 0.74514,-1.392302 1.27119,-1.625338 2.8742,-1.273256 1.42647,0.313301 2.07764,0.130002 2.38518,-0.671439 0.4559,-1.188045 2.73385,-1.505317 3.37376,-0.469899 0.21503,0.347875 1.92556,0.843565 3.80127,1.101545 2.37304,0.326378 3.86742,0.994732 4.91309,2.19735 l 1.50276,1.72831 13.40549,-0.102218 c 12.65377,-0.09648 13.46905,-0.183063 14.5384,-1.544202 0.6231,-0.793101 1.72778,-1.485825 2.45486,-1.539396 0.72709,-0.05361 1.65074,-0.300569 2.05255,-0.548903 1.3118,-0.810736 7.26817,-0.810744 8.07891,-7e-6 0.435,0.435009 1.68063,0.612998 2.76802,0.395516 1.65644,-0.331291 2.08723,-0.105773 2.65609,1.390446 l 0.679,1.785872 15.56151,-0.131354 15.56154,-0.131355 -0.18516,-2.948771 c -0.19148,-3.049786 -0.51324,-3.963933 -3.26024,-9.264155 -1.12313,-2.167007 -1.43628,-3.504813 -1.01027,-4.31588 0.33954,-0.646476 0.6349,-3.472897 0.65636,-6.280934 0.0489,-6.385808 1.68711,-10.652662 5.17385,-13.47472 2.48527,-2.011494 2.87445,-2.098636 9.33297,-2.089723 8.47208,0.01178 10.74286,1.123264 13.58295,6.648998 1.89953,3.695732 1.95183,4.088589 1.74471,13.107225 -0.18341,7.991591 -0.38504,9.393105 -1.4348,9.979487 -0.94554,0.52817 -1.2213,1.601147 -1.2213,4.752377 v 4.070191 l 14.82999,0.111596 c 14.82274,0.11153 14.83033,0.11081 15.52786,-1.481723 0.86193,-1.967816 4.86805,-2.780757 9.4911,-1.92597 1.76558,0.326454 3.8426,0.428164 4.61557,0.226022 0.9399,-0.24578 1.84149,0.179291 2.72185,1.283208 1.27677,1.601039 1.65254,1.654671 12.4825,1.781498 6.14136,0.07193 11.41807,0.139641 11.72598,0.15048 0.30794,0.01091 0.46497,1.668474 0.34894,3.683606 l -0.21089,3.663878 -11.86398,0.348941 c -11.81117,0.347384 -11.86501,0.356256 -12.09645,1.991313 -0.1278,0.903303 -0.99149,3.069892 -1.91917,4.814644 -1.39884,2.630838 -1.68672,4.174803 -1.68672,9.046199 0,3.23066 0.36135,6.549121 0.803,7.374353 0.44165,0.825238 0.95806,4.464843 1.14758,8.088021 0.31224,5.969567 0.18778,6.888433 -1.32641,9.794272 -0.91904,1.763667 -1.85824,3.363697 -2.08708,3.555607 -0.22884,0.19192 -0.61573,1.84305 -0.85972,3.66916 -0.84056,6.29083 -4.08944,8.69834 -8.51106,6.30692 -4.95463,-2.67969 -15.23938,-12.34207 -16.5613,-15.559124 -0.69729,-1.696956 -0.73338,-1.668299 -1.3186,1.046822 -0.33093,1.535339 -1.46435,4.518782 -2.51872,6.629872 l -1.91706,3.83835 0.12737,15.26964 c 0.0724,8.68729 0.4425,16.05783 0.85837,17.09809 0.78795,1.97095 1.71663,6.93103 2.95561,15.7861 0.42964,3.07068 0.79485,11.88763 0.81157,19.59324 0.0264,12.20737 -0.17577,14.90152 -1.57245,20.93647 -0.88158,3.80943 -1.85183,7.55433 -2.15615,8.322 -0.3043,0.76767 -1.28007,3.28005 -2.16836,5.58305 -2.77389,7.1917 -7.51545,15.84008 -11.66989,21.28539 -6.77835,8.88447 -6.72514,8.75881 -4.65424,10.99218 1.91383,2.06401 2.2689,4.27686 0.90509,5.64067 -1.1729,1.1729 -1.14132,9.08062 0.0392,9.81021 1.46327,0.90437 1.86503,7.84303 0.61414,10.60682 -0.59255,1.30922 -1.30301,3.16554 -1.5788,4.12513 -0.49219,1.7126 -3.35178,4.88515 -4.40322,4.88515 -0.29396,0 -1.0747,1.71373 -1.73494,3.80829 -2.44396,7.7531 -7.58148,8.28905 -13.93904,1.45415 -3.54537,-3.81157 -4.86799,-7.71353 -4.47524,-13.20274 0.33128,-4.6299 0.23294,-5.03855 -2.0838,-8.66021 -1.79607,-2.80773 -2.52516,-4.83407 -2.78994,-7.75429 l -0.35847,-3.95333 3.04909,-2.03661 c 5.88129,-3.92838 6.12456,-4.27319 5.07959,-7.19993 -0.50731,-1.42091 -0.9362,-3.13735 -0.95304,-3.81425 -0.0174,-0.67693 -0.32218,-1.77609 -0.67852,-2.44259 -4.74371,-8.87282 -6.52218,-17.50908 -4.99212,-24.24192 0.3527,-1.55195 0.067,-2.7567 -1.10387,-4.65638 -1.26114,-2.04603 -1.67585,-4.05114 -2.0569,-9.94481 -0.34715,-5.36991 -0.72595,-7.38208 -1.38965,-7.38208 -0.50182,0 -1.12798,-1.14902 -1.39143,-2.55338 -0.57348,-3.05685 0.16313,-17.05157 1.20629,-22.9193 0.40944,-2.30301 0.94866,-9.27513 1.19824,-15.49355 0.30393,-7.57184 0.74196,-11.59422 1.32617,-12.17804 0.53759,-0.53723 0.88402,-2.89375 0.90276,-6.14077 0.0174,-2.89796 0.35633,-6.68222 0.75469,-8.40948 1.42898,-6.19566 1.47338,-8.45752 0.24422,-12.44163 -0.67172,-2.17722 -1.52806,-4.34808 -1.903,-4.82414 -0.37493,-0.47606 -0.84808,-2.93805 -1.0514,-5.471091 l -0.36968,-4.60553 -1.98672,3.441095 c -2.88526,4.997476 -9.38083,11.839086 -13.46359,14.180866 -7.4879,4.29489 -13.67416,1.87248 -14.72469,-5.76589 -0.2761,-2.00735 -0.76226,-4.13332 -1.08039,-4.72439 -3.18309,-5.91396 -3.31429,-8.66131 -1.05119,-22.011114 1.2247,-7.224441 1.05828,-11.265372 -0.59529,-14.452581 -0.52891,-1.019487 -1.17323,-2.816909 -1.43184,-3.99427 l -0.4703,-2.140647 H 207.7918 193.00828 l -3.96661,4.632376 c -3.01867,3.525342 -4.14701,5.473604 -4.72154,8.152506 -0.41522,1.936078 -1.09336,3.927921 -1.50699,4.42632 -0.41364,0.4984 -1.01437,4.4454 -1.33496,8.771114 -0.58343,7.872055 -1.7481,14.928322 -2.68045,16.239516 -0.27292,0.38383 -1.52125,3.99537 -2.77406,8.02563 -1.2528,4.03027 -2.74176,8.74097 -3.30881,10.46823 -0.56703,1.72725 -1.67736,5.60907 -2.46742,8.62626 -0.79005,3.01719 -3.26631,9.1411 -5.50278,13.60868 -6.85084,13.68526 -6.92289,13.90125 -6.82709,20.46247 0.0811,5.55861 -0.0759,6.22565 -2.77543,11.78079 -1.57381,3.23869 -2.8546,6.83069 -2.84618,7.98219 0.009,1.15151 -0.4973,4.60602 -1.12378,7.6767 -0.62651,3.07068 -1.43092,8.25245 -1.78761,11.51504 -0.76952,7.03888 -0.21198,35.88259 0.74196,38.38349 0.36602,0.95959 0.96927,5.67029 1.34057,10.46823 0.37127,4.79793 1.03336,10.6078 1.47128,12.9108 1.04002,5.46948 0.33023,24.24703 -1.06614,28.20473 -0.55754,1.58027 -1.811,3.91852 -2.78544,5.1961 -0.97446,1.27756 -1.77175,2.67016 -1.77175,3.09465 0,0.42451 -0.39461,1.02294 -0.87689,1.3299 -1.21132,0.77096 -7.08435,7.7918 -12.29431,14.69719 -2.39206,3.17047 -4.96434,6.33757 -5.71616,7.038 -1.35687,1.26413 -1.35659,1.28284 0.0366,2.54376 1.67016,1.51146 1.87275,6.04893 0.38973,8.72858 -0.69422,1.25435 -0.75524,1.99474 -0.21787,2.64233 0.41066,0.49484 0.8949,3.20947 1.07606,6.03255 0.28308,4.41079 0.0964,5.59978 -1.32772,8.45204 -0.91143,1.82553 -2.20672,3.66253 -2.87843,4.0822 -0.84127,0.52559 -1.22129,1.65552 -1.22129,3.63145 0,6.86475 -3.25924,10.0426 -8.37458,8.16545 z m 4.56712,-3.4746 c 1.52733,-1.52734 1.00246,-6.48064 -1.48318,-13.997 -1.75092,-5.2946 -1.97476,-9.73398 -0.65119,-12.91532 0.44763,-1.07594 0.0552,-1.22129 -3.29674,-1.22129 -3.73542,0 -5.45312,-0.9118 -6.19822,-3.29018 -0.18581,-0.5931 -0.96209,-0.40554 -2.58541,0.62471 -1.27592,0.80976 -2.0225,1.66226 -1.65906,1.89442 0.36344,0.23215 1.01295,2.07761 1.44335,4.10101 0.43042,2.0234 1.53157,5.16387 2.44699,6.97882 0.91543,1.81495 1.87623,4.71312 2.13515,6.44038 1.07836,7.19415 0.95915,6.97881 3.86356,6.97881 3.2386,0 6.0575,2.00128 5.36411,3.80825 -0.35786,0.93255 -0.69912,1.04696 -1.3965,0.46817 -1.12396,-0.9328 -6.5728,-1.73044 -5.63941,-0.8255 0.54413,0.52753 4.39879,1.85564 6.00558,2.06919 0.26046,0.0347 1.0034,-0.46688 1.65097,-1.11447 z m -5.6456,-9.46528 c -0.78573,-1.50934 -1.30038,-4.66115 -1.53837,-9.4214 -0.33961,-6.79296 -0.28777,-7.15329 1.02939,-7.15329 1.27196,0 1.41792,0.60559 1.75964,7.30107 0.27586,5.40511 0.66434,7.59277 1.49598,8.42443 1.52808,1.52808 1.41526,3.1173 -0.22127,3.1173 -0.80959,0 -1.81449,-0.90253 -2.52537,-2.26811 z m -4.71906,6.27371 c -0.64996,-0.48498 -1.43502,-2.55171 -1.78664,-4.70348 l -0.62722,-3.83835 -0.0816,3.22082 c -0.0587,2.31158 0.3349,3.7503 1.39373,5.09641 0.81144,1.03155 1.65213,1.69875 1.86823,1.48267 0.21613,-0.21613 -0.12889,-0.78224 -0.76651,-1.25807 z m 14.26115,-8.01841 c 0.86808,-1.10689 0.84339,-1.13158 -0.26349,-0.2635 -0.67172,0.52679 -1.2213,1.07638 -1.2213,1.22129 0,0.57438 0.57309,0.20479 1.48479,-0.95779 z m 1.86984,-3.33341 c -0.21481,-0.21482 -0.6051,0.1725 -0.86718,0.86072 -0.37873,0.99462 -0.29856,1.07479 0.39068,0.39067 0.47694,-0.47339 0.69136,-1.03651 0.4765,-1.25139 z m -1.56221,-3.71552 c 0.23851,-1.40083 0.7735,-3.54692 1.18889,-4.76911 0.54201,-1.59477 0.54177,-2.48145 -7e-4,-3.14047 -0.41589,-0.50507 -0.98113,-2.42934 -1.25608,-4.27616 -0.45386,-3.04832 -0.36337,-3.39358 0.98151,-3.74529 1.82683,-0.47772 1.96848,-2.31825 0.17839,-2.31825 -0.74706,0 -2.09124,1.19109 -3.15036,2.79153 -1.18062,1.78402 -1.52324,2.79152 -0.9493,2.79152 0.49393,0 1.24976,1.3347 1.67961,2.966 0.42987,1.6313 0.99762,3.62929 1.26172,4.43999 0.74048,2.27306 -1.55014,2.81582 -2.55706,0.60589 -0.43397,-0.95202 -1.09724,-1.73094 -1.47414,-1.73094 -0.91165,0 -0.0419,8.2753 1.00198,9.53306 1.15526,1.39199 2.56707,-0.0436 3.09552,-3.14777 z m -19.91503,-0.76056 c -0.39858,-0.74473 -1.00617,-2.5505 -1.35023,-4.01282 l -0.62552,-2.65874 -0.07,2.73657 c -0.0423,1.65182 0.38772,3.24247 1.08488,4.01282 1.49615,1.65324 1.87115,1.62286 0.96096,-0.0779 z m 9.05015,-12.16916 c 0,-0.14503 -0.47107,-0.65444 -1.04682,-1.13227 -0.85735,-0.71153 -1.04682,-0.66386 -1.04682,0.26349 0,0.62275 0.47107,1.13227 1.04682,1.13227 0.57575,0 1.04682,-0.11864 1.04682,-0.26349 z m 6.58547,-4.12902 c 1.33758,-1.99821 4.17161,-5.4747 6.29784,-7.7255 2.12621,-2.2508 3.86585,-4.23926 3.86585,-4.41877 0,-0.17949 1.17767,-1.78919 2.61706,-3.57706 1.43938,-1.78786 2.84135,-3.56796 3.11551,-3.95581 0.27416,-0.38782 1.84439,-2.30202 3.48941,-4.25378 1.64502,-1.95176 3.66486,-4.35042 4.48856,-5.33035 0.82367,-0.97996 1.71183,-2.7572 1.97369,-3.94942 0.26186,-1.19227 0.8768,-2.40514 1.36652,-2.69529 1.55614,-0.92201 2.48993,-3.47584 2.48993,-6.80966 0,-2.74558 -0.18428,-3.18132 -1.22129,-2.88838 -0.67171,0.18973 -2.6345,0.56046 -4.36176,0.8238 -1.72726,0.26336 -3.48666,0.75733 -3.90977,1.09775 -0.42311,0.34039 -2.68351,0.81896 -5.02309,1.0635 l -4.25376,0.44462 0.38427,2.1725 c 0.21132,1.19489 0.68002,3.35745 1.04148,4.80568 0.36148,1.44824 0.46762,2.93996 0.23588,3.31494 -0.65662,1.06244 -2.43264,0.80091 -2.43264,-0.35821 0,-1.49294 -2.07816,0.35923 -6.26152,5.58065 -3.32277,4.14727 -4.54306,7.42047 -5.95132,15.96339 -0.44817,2.71866 -2.6839,6.85485 -4.90674,9.07769 -0.65534,0.65533 -1.07561,1.25508 -0.93396,1.33276 0.14175,0.0776 0.88565,0.48097 1.65332,0.89621 0.76767,0.41522 1.69642,1.41415 2.06388,2.21985 0.84445,1.85148 1.19937,1.61067 4.17265,-2.83111 z m 3.18487,-18.97042 c 0,-0.56692 0.70661,-1.4994 1.57024,-2.07219 0.86363,-0.57281 2.51237,-2.45741 3.66388,-4.18805 2.97624,-4.47305 6.15913,-4.3188 3.34741,0.16226 -3.10102,4.94205 -8.58153,8.83649 -8.58153,6.098 z m 14.42288,-9.20486 c -0.79436,-0.79439 -0.51545,-3.05289 0.70521,-5.71022 1.28236,-2.7917 2.38852,-4.02573 5.26039,-5.86855 2.46605,-1.58241 3.3395,-1.53532 3.3395,0.17992 0,0.76767 -0.37027,1.39576 -0.82281,1.39576 -1.28275,0 -5.43747,4.88129 -5.87738,6.90517 -0.79628,3.66366 -1.36397,4.33875 -2.60491,3.09781 z m -24.26216,21.71074 c 1.73031,-2.93265 1.75757,-3.10058 0.50333,-3.10058 -0.52876,0 -1.32133,-0.43373 -1.76128,-0.96384 -1.05009,-1.26528 -2.98532,-8.73765 -2.47624,-9.56134 0.97425,-1.57637 2.21637,-0.35097 3.06423,3.02296 0.5064,2.01513 1.26157,4.29197 1.67818,5.05964 0.66975,1.23414 0.82608,1.0321 1.34999,-1.74471 1.51211,-8.01423 1.44232,-9.54595 -0.55416,-12.16346 -2.09334,-2.74451 -2.10974,-4.57906 -0.10294,-11.50837 0.60247,-2.08023 0.9342,-4.04303 0.7372,-4.36176 -0.19693,-0.31876 -3.89354,-0.57955 -8.21452,-0.57955 h -7.85638 l 0.50825,4.31062 c 0.51417,4.36052 3.1203,11.04278 4.30678,11.04278 1.21146,0 4.69915,2.88408 4.69915,3.88586 0,1.75989 -2.60768,1.07036 -4.51229,-1.19315 -1.71014,-2.03239 -1.81922,-2.07062 -1.49392,-0.52342 0.19301,0.91798 0.6875,3.77218 1.09888,6.34268 0.51854,3.24004 1.61847,6.18349 3.58586,9.59587 1.56084,2.70723 3.09376,4.92225 3.4065,4.92225 0.31276,0 1.22774,-1.11712 2.03332,-2.48248 z m -6.71102,-23.24765 c -2.13251,-2.13251 -3.85117,-6.53163 -3.20731,-8.20949 0.64039,-1.66885 1.90482,-0.67433 2.84718,2.23942 0.48705,1.50596 1.69435,3.45512 2.68285,4.33146 1.03263,0.91545 1.63017,2.0289 1.40447,2.61706 -0.57665,1.50271 -1.48431,1.26443 -3.72719,-0.97845 z m 15.35339,1.00966 c 1.29606,-1.69738 3.38617,-3.95259 4.64471,-5.0116 2.08728,-1.75631 2.25806,-2.19353 1.94428,-4.97746 -0.1893,-1.67863 -0.80272,-3.4275 -1.36336,-3.8864 -1.09081,-0.89287 -2.62604,-8.31393 -2.64364,-12.77882 -0.0196,-4.81143 -1.15373,-4.91476 -1.68028,-0.1531 -0.68347,6.18086 -2.489,13.99218 -3.5221,15.2379 -0.82575,0.99566 -2.16793,5.1807 -2.94033,9.16822 -0.35084,1.81129 1.40342,5.48729 2.61863,5.48729 0.32211,0 1.64606,-1.38876 2.94209,-3.08614 z m -2.59274,-22.94347 c 0.24027,-1.99668 1.0342,-7.06125 1.76432,-11.2546 0.73009,-4.19338 1.32745,-7.68315 1.32745,-7.7551 0,-0.072 -1.73792,-0.33505 -3.86205,-0.5847 -2.12412,-0.24966 -4.40095,-0.71774 -5.05965,-1.04023 -0.65867,-0.32247 -2.45377,-1.16575 -3.98911,-1.87397 -3.64455,-1.68113 -5.93199,-3.73268 -5.93199,-5.3203 0,-1.8144 1.37373,-1.53448 4.16092,0.84789 1.32892,1.13591 2.74213,2.06723 3.14047,2.06959 0.39834,0.002 1.5862,0.45395 2.63969,1.00351 1.0535,0.54956 3.33034,1.21137 5.05964,1.47069 2.83801,0.42558 3.1442,0.33529 3.1442,-0.92722 0,-1.23787 0.58188,-1.44027 5.05964,-1.7601 2.78281,-0.19868 7.39707,-0.70316 10.25395,-1.12088 4.04588,-0.59157 5.31239,-0.56841 5.72846,0.1049 1.17239,1.89697 -0.41784,2.32222 -14.05067,3.7573 -6.5397,0.68842 -3.47321,1.54555 5.74496,1.60583 4.12622,0.027 7.50223,0.32464 7.50223,0.66148 0,1.72041 -2.31259,2.25455 -9.19318,2.12335 -6.82386,-0.1302 -7.21864,-0.06 -7.42532,1.31891 -0.11995,0.80099 0.0975,2.04634 0.48337,2.76742 0.3859,0.72109 0.89174,3.79925 1.12406,6.84036 0.23233,3.0411 0.78619,7.33504 1.23083,9.54206 0.80326,3.98726 0.82415,4.01263 3.2815,3.98242 1.3602,-0.0174 3.72928,-0.3229 5.26462,-0.68043 15.06208,-3.50742 13.91441,-2.45389 13.38731,-12.28919 -0.23451,-4.37585 -0.75173,-9.12932 -1.14939,-10.56329 -0.39766,-1.43397 -1.04909,-6.37578 -1.4476,-10.9818 -1.05899,-12.23999 -1.45966,-15.70233 -1.81711,-15.70233 -0.17556,0 -1.19643,0.45373 -2.26885,1.0083 -1.07243,0.55458 -3.64772,1.23262 -5.72287,1.50677 -2.07515,0.27414 -4.09679,0.93863 -4.49251,1.47663 -0.56942,0.77417 -3.3707,0.98648 -13.43127,1.01802 -10.84142,0.034 -12.97862,-0.135 -14.52534,-1.14845 -1.23865,-0.81162 -1.70198,-1.61484 -1.46165,-2.5339 0.22136,-0.84651 -0.11667,-1.59636 -0.91117,-2.02161 -1.61492,-0.86429 -2.09,0.27553 -2.13109,5.11307 -0.0174,1.98375 -0.48804,4.86299 -1.04708,6.39833 -1.419319,3.89786 -2.588924,22.1754 -2.020783,31.57914 l 0.474319,7.85114 8.465394,0.0109 c 4.65593,0.007 8.92538,0.30163 9.48761,0.65725 1.30617,0.82609 2.59985,-2.05487 3.21374,-7.15686 z m 160.83985,5.36074 c 1.10466,-3.34713 0.54712,-8.22151 -1.41151,-12.3401 -1.36106,-2.86212 -1.52535,-4.00562 -1.12993,-7.86508 0.53682,-5.23976 -0.0266,-5.8376 -4.20271,-4.45938 -2.29069,0.75601 -2.69435,0.70796 -3.5182,-0.4187 -0.51183,-0.69998 -0.93488,-2.23331 -0.94013,-3.40741 -0.007,-1.1741 -0.1917,-2.81408 -0.4145,-3.64438 -0.39808,-1.48398 -0.45835,-1.47214 -3.5474,0.69788 -3.04398,2.13835 -3.13187,2.30238 -2.80487,5.23422 0.18559,1.66469 0.66375,3.35284 1.06239,3.75149 0.5003,0.50029 0.49971,-0.16204 -0.002,-2.13831 -0.39971,-1.57469 -0.52963,-3.37675 -0.2887,-4.00456 0.73072,-1.90425 2.29173,0.0606 3.26226,4.10625 0.47838,1.99407 1.44122,4.88345 2.13964,6.42084 0.94001,2.06917 1.27386,4.53108 1.2852,9.47793 0.0174,7.36755 0.68601,8.67678 5.24944,10.27146 3.6024,1.25885 4.37151,1.01293 5.26096,-1.68215 z m -6.5205,-6.8609 c -1.49857,-1.49857 -2.14169,-6.44764 -1.55264,-11.94819 0.40107,-3.74505 0.69841,-4.52539 1.65069,-4.33203 0.97841,0.19867 1.12629,1.01705 0.93815,5.19217 -0.12279,2.72599 0.13565,6.2892 0.57422,7.91823 0.91401,3.39443 0.13914,4.91945 -1.61042,3.16982 z m 12.081,0.13805 c 0.002,-0.47979 0.5271,-1.81449 1.16605,-2.966 1.3275,-2.39231 1.69282,-10.32679 0.52908,-11.49053 -0.52563,-0.52563 -0.65635,0.457 -0.4466,3.35705 0.25009,3.45724 0.0109,4.61189 -1.52493,7.36291 -2.09297,3.74887 -2.23754,4.60892 -0.77472,4.60892 0.57576,0 1.04877,-0.39256 1.05112,-0.87235 z m -1.88777,-17.11426 -0.42023,-9.82589 -1.93651,2.88339 c -1.54749,2.30414 -1.78974,3.15763 -1.2059,4.24853 0.44501,0.83152 0.54714,3.15597 0.26125,5.94643 -0.3766,3.67572 -0.22092,5.09333 0.78751,7.17195 1.24302,2.56212 1.26614,2.57311 2.0955,0.9961 0.59974,-1.14041 0.71891,-4.39345 0.41838,-11.42051 z m -11.59052,-6.25149 c -0.17687,-0.67902 -0.33335,-0.29243 -0.34759,0.85907 -0.0153,1.15151 0.13063,1.70706 0.32172,1.23458 0.19127,-0.47249 0.20282,-1.41463 0.0259,-2.09365 z m 9.35124,-5.94527 c 2.8272,-4.31815 6.88179,-10.20652 9.01022,-13.08528 3.86633,-5.22936 8.37228,-12.22074 8.37228,-12.99028 0,-0.22411 0.44837,-1.39707 0.99638,-2.60659 0.54801,-1.20951 1.65819,-3.76934 2.46708,-5.68852 0.80887,-1.91917 1.77371,-4.03472 2.14407,-4.70124 0.37037,-0.6665 0.67341,-2.76014 0.67341,-4.65254 0,-1.89239 0.34366,-3.55527 0.7637,-3.69528 1.04089,-0.34698 1.96067,-5.50543 1.99742,-11.20233 l 0.0303,-4.7107 -2.26812,-0.002 c -4.31594,-0.004 -11.46857,2.17776 -13.63761,4.15887 l -2.09039,1.9093 1.05062,3.77117 c 1.29444,4.64641 2.46786,13.11819 1.98961,14.3645 -0.48882,1.27381 -2.49115,1.16278 -2.49115,-0.13805 0,-1.34621 -7.95786,6.60425 -9.39811,9.38941 -0.58855,1.13842 -1.07011,3.40019 -1.07011,5.02641 v 2.95675 l 2.17274,-2.04975 c 1.19501,-1.12736 2.92622,-3.22742 3.84712,-4.6668 1.91706,-2.99644 3.0526,-3.35596 3.0526,-0.96648 0,2.69666 -6.24757,9.94547 -7.99411,9.27526 -0.67531,-0.25915 -1.13102,0.32256 -1.4496,1.85033 -0.67357,3.23003 -2.54633,8.93107 -3.59765,10.95181 -0.4992,0.95959 -0.9096,2.11181 -0.91198,2.5605 -0.007,1.03529 -2.27494,5.38872 -2.97029,5.69777 -0.83253,0.37001 -0.60607,2.20995 0.272,2.20995 1.07251,0 2.64438,2.15556 2.67179,3.66388 0.0438,2.41428 1.30781,1.09831 6.36767,-6.62987 z m 16.83818,-32.80043 c -0.85366,-1.04118 -1.04203,-2.50167 -0.92254,-7.1533 0.0803,-3.12664 0.43572,-3.87392 3.41871,-7.18805 3.12175,-3.46834 4.32909,-3.96198 4.32909,-1.77011 0,0.51068 -1.09917,2.14516 -2.44259,3.63215 -2.3418,2.59211 -2.44258,2.92332 -2.44258,8.02764 0,5.1758 -0.46728,6.24801 -1.94009,4.45167 z m -10.7477,34.89407 c -0.22636,-1.59376 -3.36349,-2.77813 -3.36349,-1.26984 0,0.41053 0.47107,0.74643 1.04682,0.74643 0.57576,0 1.04683,0.47107 1.04683,1.04682 0,0.57575 0.3359,1.04682 0.74642,1.04682 0.41053,0 0.64607,-0.7066 0.52342,-1.57023 z m -14.85762,-8.29535 c 0.25277,-1.15082 0.89911,-2.93489 1.43633,-3.9646 0.53722,-1.02968 0.97867,-2.26898 0.98105,-2.75397 0.002,-0.485 0.39685,-1.51523 0.87664,-2.28942 0.71302,-1.15048 0.69158,-1.52005 -0.11733,-2.0234 -0.84574,-0.52624 -1.73567,-4.1113 -2.34307,-9.43908 -0.0914,-0.80071 0.32042,-1.47096 0.98676,-1.60642 0.81443,-0.16553 1.34585,0.53094 1.84705,2.4208 l 0.70364,2.65324 0.0722,-3.40704 c 0.0502,-2.37319 -0.38687,-4.14969 -1.44047,-5.85446 -1.40296,-2.27006 -1.45253,-2.7565 -0.68375,-6.71226 0.45585,-2.34564 1.10261,-5.67802 1.43722,-7.40528 0.73075,-3.77205 0.3629,-4.56301 -0.70176,-1.50893 -0.83637,2.39921 -2.72641,3.01677 -2.72641,0.89082 0,-0.72379 0.46913,-2.21551 1.04253,-3.31493 0.57337,-1.09943 1.04444,-2.68702 1.04682,-3.52801 0.002,-0.84097 0.39686,-1.77413 0.87665,-2.07369 1.08918,-0.68 -7.48159,-2.22736 -12.66428,-2.28637 l -3.76629,-0.043 0.48428,8.10044 c 0.53052,8.87393 0.94962,9.95715 5.56314,14.37911 1.79105,1.71668 2.55676,2.96877 2.271,3.71345 -0.38312,0.99839 -0.65486,0.96423 -2.43975,-0.30674 l -2.00861,-1.43026 -0.45923,3.46175 c -0.63067,4.75427 0.89477,10.75169 4.83038,18.99097 0.49794,1.04246 1.12802,3.24079 1.40015,4.88517 0.27215,1.6444 0.64358,3.24059 0.82538,3.54711 0.57163,0.96369 2.19056,-0.91315 2.66981,-3.09512 z m -130.00135,-8.63196 c 1.73386,-0.86245 2.62613,-1.78804 2.64396,-2.74274 0.35169,-18.83109 0.21199,-31.74317 -0.32676,-30.20944 -0.72368,2.06008 -2.36555,3.00318 -3.41,1.95873 -0.44797,-0.44797 -0.28689,-1.29239 0.46564,-2.44091 1.52603,-2.32902 1.4517,-3.14895 -0.24519,-2.70518 -1.58092,0.41341 -1.92254,-1.08551 -0.55831,-2.44974 0.65134,-0.65136 0.49626,-0.83746 -0.69788,-0.83746 -2.06891,0 -1.89093,-1.26233 0.58666,-4.16094 1.13591,-1.32892 2.06529,-2.975 2.06529,-3.65795 0,-0.68296 0.59632,-1.61415 1.32514,-2.0693 1.29172,-0.80669 1.28731,-0.88169 -0.17447,-2.97191 -0.82478,-1.1794 -1.65664,-2.30137 -1.84855,-2.49329 -0.62903,-0.62903 -2.72314,-5.17078 -3.86134,-8.37458 -0.61363,-1.72726 -1.29498,-6.04825 -1.51412,-9.60219 l -0.39844,-6.46175 -4.07075,4.27803 c -2.23889,2.35291 -4.47278,5.19651 -4.9642,6.31908 -0.61593,1.40702 -1.27287,1.94308 -2.11478,1.72564 -0.73373,-0.18952 -1.22129,0.0763 -1.22129,0.66606 0,0.53982 -0.6281,0.98149 -1.39577,0.98149 -0.77691,0 -1.39576,-0.46527 -1.39576,-1.04935 0,-1.48346 -2.09655,-5.21349 -5.2901,-9.41179 l -2.73554,-3.59618 -0.44845,3.71371 c -0.50023,4.14267 -1.69215,9.26926 -2.6482,11.39043 -3.30081,7.32335 -4.40826,9.38941 -6.11744,11.41261 l -1.97694,2.34015 2.03149,2.27472 c 2.62781,2.94249 4.89932,8.6852 3.62833,9.17293 -0.54418,0.20871 -0.75631,1.05073 -0.54424,2.16001 0.30227,1.58131 0.15266,1.76684 -1.15028,1.42612 -1.7193,-0.44959 -1.96437,0.31529 -0.49245,1.53687 0.99902,0.82913 0.76423,2.82596 -0.33228,2.82596 -0.31535,0 -1.10943,-0.53606 -1.76461,-1.19124 -1.12307,-1.12306 -1.16468,-0.85349 -0.72702,4.7107 0.25532,3.24607 0.20413,8.72837 -0.11384,12.18288 -0.31799,3.45452 -0.45707,7.88451 -0.30907,9.84445 0.24997,3.31007 0.45091,3.65173 2.82556,4.80378 3.83866,1.8623 8.96968,2.35888 22.4461,2.17237 10.2912,-0.14241 12.62472,-0.37386 14.82998,-1.47078 z m -26.73883,-10.68932 c -2.97052,-1.51698 -4.18446,-3.40968 -2.75747,-4.2993 0.72401,-0.45138 1.47321,-0.23521 2.48758,0.71775 0.81301,0.76376 2.42948,1.36364 3.67465,1.36364 2.66801,0 2.9894,1.52046 0.5558,2.62929 -1.30521,0.5947 -2.16542,0.50535 -3.96056,-0.41138 z m 11.38543,-0.61678 c -0.98966,-0.19061 -1.57023,-0.80679 -1.57023,-1.66654 0,-1.12553 0.45764,-1.34979 2.61706,-1.28238 1.43938,0.0449 3.21134,-0.0259 3.93771,-0.15767 1.74756,-0.31667 2.16722,1.05827 0.7543,2.47122 -1.09768,1.09768 -2.52049,1.25518 -5.73884,0.63531 z m -4.7595,-1.82561 c -0.79677,-2.07635 5.8e-4,-5.68695 1.31075,-5.93527 1.09694,-0.20783 1.23381,0.19476 1.04682,3.08019 -0.21198,3.27121 -1.56781,4.91315 -2.35757,2.85508 z m -6.90677,-7.82443 c -1.66946,-1.66947 -2.47235,-3.06512 -2.33158,-4.05304 0.26173,-1.83689 2.19308,-2.00597 2.53663,-0.22208 0.31775,1.65001 2.42008,3.75234 4.07009,4.0701 1.7839,0.34355 1.61481,2.27489 -0.22208,2.53662 -0.98792,0.14067 -2.38357,-0.66212 -4.05306,-2.3316 z m 13.06204,2.00366 c -0.4798,-0.19366 -0.87235,-0.79689 -0.87235,-1.34067 0,-0.6836 0.838,-0.98866 2.71574,-0.98866 2.51418,0 2.79815,-0.20588 3.82585,-2.77444 0.8242,-2.05981 1.40025,-2.66307 2.23658,-2.34215 0.8406,0.32257 1.02054,0.98238 0.70907,2.59996 -0.71817,3.7297 -5.17218,6.23512 -8.61489,4.84596 z m -5.27773,-2.08217 c -0.97383,-0.97384 -0.51783,-7.06207 0.55992,-7.47563 1.24796,-0.4789 1.95954,1.77495 1.62877,5.15898 -0.21934,2.24372 -1.21148,3.29388 -2.18869,2.31665 z m -13.90124,-6.66423 c -0.15288,-0.45868 0.27056,-1.95041 0.94105,-3.31494 1.11347,-2.26606 2.05448,-3.45279 7.36265,-9.28527 1.77722,-1.95278 3.31876,-2.43831 4.03939,-1.2723 0.21989,0.35579 -1.47485,2.63262 -3.7661,5.05964 -2.29123,2.42703 -4.72946,5.58685 -5.41825,7.02182 -1.24639,2.59664 -2.62892,3.38056 -3.15874,1.79105 z m 26.68119,-0.61527 c 0,-0.42429 -0.93348,-0.53249 -2.33147,-0.27021 -2.87577,0.53948 -8.06805,-0.77884 -8.60784,-2.18553 -0.64299,-1.67559 0.17883,-1.88735 3.87913,-0.99967 2.13591,0.5124 3.91505,0.59409 4.59926,0.21111 0.91568,-0.51246 0.29764,-1.35173 -3.44573,-4.67901 -2.50886,-2.22993 -4.56157,-4.46937 -4.56157,-4.97644 0,-1.83105 1.2588,-1.62892 3.61908,0.58114 1.3233,1.23906 3.23811,2.83848 4.25516,3.55426 1.72377,1.21318 4.68763,6.21869 4.68763,7.91673 0,0.41349 -0.47107,0.93256 -1.04682,1.15351 -0.57576,0.22094 -1.04683,0.0833 -1.04683,-0.30589 z m -19.71515,-0.51624 c -1.35581,-0.15593 -1.91918,-0.61695 -1.91918,-1.57023 0,-1.18404 0.51321,-1.34942 4.18729,-1.34942 2.32626,0 4.18729,0.31016 4.18729,0.69788 0,0.38384 0.0785,0.9281 0.17447,1.20945 0.22038,0.64622 -4.09078,1.30447 -6.62987,1.01232 z m 167.60312,6.14051 c 3.39068,-3.23597 5.64597,-6.94844 5.64597,-9.29386 0,-1.3615 -0.27278,-2.64406 -0.60621,-2.85011 -0.33342,-0.20609 -0.81825,-1.70074 -1.07742,-3.3215 -0.25918,-1.62076 -0.74249,-3.27647 -1.07402,-3.67936 -0.33154,-0.40288 -0.94465,-2.5894 -1.36246,-4.85894 -0.96546,-5.24425 -1.46294,-5.74269 -1.46294,-1.46579 0,2.20618 -0.64176,4.70811 -1.86472,7.26959 -1.02562,2.14815 -2.26578,5.947 -2.75595,8.44193 -0.49018,2.49492 -1.23471,6.18055 -1.6545,8.19027 -0.56145,2.68781 -0.55436,4.04443 0.0268,5.1304 0.85957,1.60615 0.63257,1.73689 6.18541,-3.56263 z M 147.99167,191.21045 c 0,-0.93051 -0.0752,-0.93051 -0.6765,0 -0.37208,0.57576 -0.67651,1.5179 -0.67651,2.09365 0,0.93052 0.0752,0.93052 0.67651,0 0.37208,-0.57575 0.6765,-1.51789 0.6765,-2.09365 z m 131.46691,-1.72235 c 0.21613,-0.56347 0.0929,-1.2101 -0.27427,-1.43695 -0.36708,-0.22686 -0.66741,0.23413 -0.66741,1.02446 0,1.68508 0.38811,1.85508 0.94168,0.41249 z m -177.28344,-2.57489 c -0.39598,-1.97987 -0.29322,-2.16503 1.01204,-1.8237 1.65723,0.43338 1.44396,-1.18208 -0.24145,-1.82884 -0.54607,-0.20958 -0.99287,-0.92921 -0.99287,-1.59926 0,-1.06783 -0.12365,-1.09208 -1.00095,-0.19628 -0.81631,0.83338 -0.85899,1.63343 -0.23135,4.33683 0.84618,3.6449 2.16241,4.65053 1.45458,1.11133 z m 46.72786,-1.80889 c 0.44243,-3.92508 -0.79177,-5.38989 -2.04708,-2.42961 -0.65152,1.53639 -0.6168,2.01457 0.17905,2.46653 0.74394,0.4225 0.80808,0.89549 0.26022,1.91917 -0.56007,1.0465 -0.50182,1.35852 0.25357,1.35852 0.65215,0 1.10575,-1.11027 1.35422,-3.31461 z m 132.99143,-12.83795 c 0.0358,-6.50126 0.25126,-12.12152 0.47868,-12.48948 0.24,-0.38833 -0.88544,-0.66898 -2.68275,-0.66898 -2.91005,0 -5.23193,-1.29198 -4.19156,-2.33232 0.25257,-0.25257 2.42763,-0.45921 4.83348,-0.45921 5.27233,0 13.91862,-1.72525 16.22723,-3.23789 1.38986,-0.91067 1.77701,-0.93623 2.28321,-0.1507 0.88219,1.36901 -2.30379,3.93459 -5.49859,4.42787 -1.43787,0.22199 -3.91241,0.78557 -5.49898,1.25239 l -2.88467,0.84875 0.95449,3.67675 c 0.52496,2.0222 1.28445,6.41885 1.68774,9.77034 1.06821,8.87742 1.48208,11.32771 1.91324,11.32771 0.21132,0 1.36715,-0.7497 2.56846,-1.666 2.56177,-1.95394 9.63945,-3.91706 14.12233,-3.91706 h 3.15127 l -0.48327,-7.50222 c -0.2658,-4.12623 -0.76324,-10.17163 -1.10544,-13.43422 -0.55157,-5.2588 -1.08466,-8.41281 -3.24377,-19.19174 l -0.55918,-2.79153 -21.35531,-0.18442 -21.35532,-0.18441 -0.4342,2.62701 c -0.2388,1.44485 -0.43763,6.65174 -0.44186,11.57087 -0.004,4.91912 -0.29253,9.47612 -0.64068,10.12665 -0.91423,1.70822 -2.06556,17.35533 -1.54947,21.05766 l 0.43777,3.14047 5.93199,0.0933 c 3.26259,0.0515 8.28734,0.37339 11.1661,0.71557 3.00752,0.35746 5.41912,0.36115 5.66898,0.009 0.23918,-0.33743 0.4642,-5.93269 0.50008,-12.43396 z m -11.52696,-17.12243 c -1.88294,-0.38057 -3.29797,-1.99509 -2.65722,-3.03186 0.26384,-0.42691 0.99729,-0.55124 1.63031,-0.27636 0.6329,0.27481 4.60521,0.68879 8.8274,0.91991 6.17169,0.33789 7.67669,0.6255 7.67669,1.4671 0,0.85467 -1.28102,1.06349 -6.97881,1.1376 -3.83835,0.0499 -7.66261,-0.0476 -8.49837,-0.21635 z m 18.96659,-3.71273 c -0.57311,-0.92733 0.19585,-2.09365 1.38039,-2.09365 1.82252,0 5.27502,-2.45776 6.12709,-4.36176 0.92273,-2.06184 3.30969,-2.64285 3.30969,-0.80561 0,3.79126 -9.16107,9.94064 -10.81717,7.26102 z m -187.5896,25.2982 c 2.73873,-3.04014 6.81084,-10.99769 7.94612,-15.52786 0.95165,-3.79748 1.77083,-11.59772 1.45336,-13.83901 -0.22225,-1.56901 -7.95092,-9.97459 -9.01661,-9.80632 -1.40653,0.22209 -2.00455,-0.26356 -2.894698,-2.35076 -0.532004,-1.24746 -1.563757,-3.68132 -2.292759,-5.40858 -1.880137,-4.45472 -3.266456,-6.96764 -5.390088,-9.77034 -4.253784,-5.61405 -5.837801,-9.30876 -6.732005,-15.70234 -0.268401,-1.91917 -0.726189,-3.80345 -1.017293,-4.18729 -0.291082,-0.38383 -0.762,-1.79704 -1.046452,-3.140462 C 82.469561,95.653026 82.03561,94.39684 81.789672,94.204922 81.143128,93.700367 77.260465,85.492953 74.404385,78.593389 71.655364,71.952434 71.272162,67.671321 72.990782,62.800254 c 1.352254,-3.832682 1.344992,-7.956211 -0.01527,-9.085719 -0.886964,-0.736104 -0.991188,-0.695439 -0.630013,0.245772 0.238021,0.620299 -0.199768,2.156441 -0.972672,3.413652 -1.669289,2.714886 -2.181272,8.327027 -0.900464,9.8703 1.330403,1.603104 0.330665,2.53481 -2.719927,2.53481 h -2.71404 l 0.762828,2.268115 c 0.419558,1.247464 1.059472,2.648258 1.422021,3.112888 0.36255,0.464621 0.953917,3.762111 1.314155,7.327756 1.13903,11.274171 2.523103,21.008732 3.551235,24.976842 1.058425,4.08497 4.159374,10.74649 5.905059,12.68532 1.082,1.2017 1.912479,3.88419 3.094647,9.99583 0.371229,1.91917 0.958387,4.1175 1.304798,4.88517 0.346411,0.76767 0.84893,2.18088 1.116698,3.14047 0.26779,0.95959 0.680085,1.90173 0.916209,2.09364 0.236146,0.19192 2.311209,3.16564 4.611252,6.60827 2.907157,4.35135 4.256663,5.87103 4.427208,4.98551 0.134997,-0.70059 -0.07371,-1.59278 -0.46348,-1.9826 -0.872156,-0.87217 -0.281356,-2.63236 0.883583,-2.63236 1.876167,0 2.686342,3.25546 2.203277,8.8533 -0.498331,5.77467 0.636665,18.95651 1.728413,20.07389 0.35629,0.36464 0.647808,1.22827 0.647808,1.91917 0,1.83332 0.644298,1.56607 3.281003,-1.36087 z m 1.37847,-6.97881 c -0.16946,-0.28788 -0.53826,-1.62258 -0.81964,-2.966 -0.28138,-1.34342 -0.8679,-2.88312 -1.30336,-3.42154 -0.50956,-0.63003 -0.79177,-4.6099 -0.79177,-11.1661 0,-8.59001 0.164,-10.18715 1.04682,-10.18715 0.85879,0 1.11962,1.69223 1.45219,9.4214 0.25954,6.03273 0.82432,10.62247 1.57023,12.76072 1.4305,4.10082 1.48239,6.08208 0.1592,6.08208 -0.55309,0 -1.14426,-0.23554 -1.31369,-0.52341 z M 92.595429,135.90334 c -1.403963,-1.6313 -3.658622,-4.61533 -5.010374,-6.6312 -2.094975,-3.12425 -2.426338,-4.15426 -2.245063,-6.97881 0.153097,-2.38567 0.505811,-3.31361 1.259479,-3.31361 0.737465,0 1.111442,0.90133 1.265521,3.04992 0.210891,2.94041 2.323597,7.16078 4.864671,9.71755 2.280153,2.29421 4.338031,5.22088 4.338031,6.16944 0,1.81034 -1.928792,0.94205 -4.472265,-2.01329 z m -12.154348,-20.485 c -4.726337,-5.73387 -7.774879,-13.55665 -7.790952,-19.992125 -0.0065,-2.852445 0.186465,-3.314937 1.387475,-3.314937 1.169126,0 1.395763,0.465256 1.395763,2.865264 0,6.390848 2.623141,12.990478 7.777388,19.567368 2.355154,3.00521 2.428541,3.38898 0.647983,3.38898 -0.739711,0 -2.277667,-1.13155 -3.417657,-2.51455 z m 72.241099,56.49911 2.4322,-4.42485 -0.19213,-9.25199 c -0.18647,-8.97794 -0.14961,-9.24754 1.24443,-9.1017 1.17467,0.12278 2.03337,-1.08578 4.71024,-6.62988 1.80056,-3.72908 3.60698,-7.38736 4.01433,-8.12949 0.95448,-1.73904 3.36036,-10.13983 3.36036,-11.73373 0,-0.67293 -0.47107,-1.22351 -1.04682,-1.22351 -1.56195,0 -1.27584,-3.95909 0.55218,-7.64094 1.59555,-3.21369 3.28617,-4.49742 3.28617,-2.49531 0,0.63039 0.31404,0.95207 0.69788,0.71485 0.38383,-0.23722 0.6998,-1.11939 0.70218,-1.96036 0.002,-0.84098 0.44383,-2.37152 0.98104,-3.40121 0.53722,-1.02969 1.19964,-2.91397 1.47205,-4.18729 0.27242,-1.27332 0.73518,-2.629171 1.02835,-3.013006 0.9136,-1.196078 2.1915,-8.763333 2.73295,-16.183378 0.28539,-3.91101 0.87344,-7.538125 1.30678,-8.060265 0.43335,-0.522135 0.98899,-2.189946 1.23475,-3.706239 0.58742,-3.62387 2.10595,-6.454881 5.71812,-10.660295 l 2.96329,-3.449969 -1.742,-0.333009 c -1.10438,-0.211109 -1.742,-0.01439 -1.742,0.537523 0,0.854186 -4.00599,3.123208 -5.51405,3.123208 -0.42178,0 -0.76688,0.628093 -0.76688,1.395763 0,0.930507 -0.46527,1.395763 -1.39577,1.395763 -0.98719,0 -1.39576,-0.465256 -1.39576,-1.589419 0,-0.874186 -0.504,-2.308989 -1.12001,-3.188466 -0.61601,-0.879479 -1.37413,-2.441071 -1.68473,-3.470224 l -0.5647,-1.871173 -0.0495,2.093644 c -0.0898,3.804384 1.64761,7.587961 4.00608,8.723519 2.93446,1.412903 3.05018,3.771967 0.16422,3.348401 -1.86882,-0.274281 -2.07738,-0.09046 -2.48352,2.188905 -0.45866,2.574038 -2.61804,8.853074 -3.79046,11.021881 -1.50186,2.778231 -2.76405,5.877453 -3.19765,7.85164 -0.25281,1.150968 -0.74952,2.271822 -1.10383,2.490796 -0.35428,0.218973 -0.64417,0.881716 -0.64417,1.472768 0,0.591048 -0.43929,2.064235 -0.97618,3.273746 -1.32674,2.988846 -2.60105,7.850666 -3.0174,11.512156 -0.24079,2.11775 -0.93259,3.59387 -2.29407,4.89496 -3.54661,3.38934 -10.90825,20.18231 -10.37438,23.66552 0.25536,1.66605 -0.24822,2.3197 -1.6364,2.12407 -1.20273,-0.1695 -2.31354,0.79025 -4.96595,4.29063 l -3.41665,4.50894 0.36462,8.05293 c 0.4562,10.07518 2.59492,16.60936 7.03707,21.49933 1.78841,1.9687 2.22556,2.18037 2.42736,1.17538 0.13543,-0.67417 1.34061,-3.21695 2.67832,-5.65062 z m -7.92418,-7.62234 c -0.23083,-0.60156 -0.0639,-1.44948 0.37086,-1.88428 0.51793,-0.51794 0.79054,-4.36988 0.79054,-11.17036 0,-9.5087 0.1025,-10.36036 1.2213,-10.14777 0.98248,0.18669 1.28951,1.18603 1.57023,5.11081 l 0.34894,4.87876 1.54668,-2.61706 c 0.8507,-1.43938 1.85281,-2.61705 2.22694,-2.61705 1.48204,0 1.54991,1.62983 0.14699,3.52748 -0.81286,1.09947 -1.47794,2.48285 -1.47794,3.07413 0,0.60981 -0.60404,1.07508 -1.39576,1.07508 -1.2281,0 -1.39576,0.46525 -1.39576,3.87301 0,5.48746 -2.69167,10.18401 -3.95294,6.89725 z m 11.16181,-35.03154 c -1.48645,-0.95942 3.70777,-9.93491 5.74945,-9.93491 1.46409,0 1.21859,2.37674 -0.39646,3.83835 -0.76767,0.69473 -1.39734,1.60703 -1.39923,2.02733 -0.007,1.42049 -3.1095,4.61417 -3.95376,4.06923 z m 12.67546,-23.90109 c -0.24013,-0.38853 0.52645,-2.74471 1.70351,-5.23597 1.49846,-3.171503 2.14012,-5.575188 2.14012,-8.017095 0,-3.543179 0.45029,-4.15386 1.95407,-2.650087 1.25667,1.256662 1.01025,5.335904 -0.5741,9.504407 -2.27657,5.989745 -4.09767,8.220535 -5.2236,6.398745 z m -42.18054,54.20103 c 0.35629,-0.82633 1.16033,-2.20903 1.78677,-3.07266 l 1.13899,-1.57023 h -4.38058 c -4.108,0 -4.31503,0.0761 -3.3272,1.22129 0.57935,0.67171 1.47977,2.21928 2.00096,3.43907 1.01614,2.37827 1.75009,2.37365 2.78106,-0.0174 z m 1.91038,-9.33364 c 0.18254,-2.20605 1.763,-4.06156 2.87438,-3.37469 0.89372,0.55235 0.23379,3.96948 -0.9154,4.73981 -0.44486,0.29819 -0.14372,0.5172 0.71988,0.52341 2.49175,0.0174 3.02115,-1.33467 2.10811,-5.38625 l -0.82304,-3.65223 -2.07902,1.78645 c -1.80422,1.55032 -2.61003,1.7563 -6.09688,1.55859 -2.20985,-0.12541 -4.01732,-0.12039 -4.01662,0.0109 7e-4,0.13129 0.62936,1.03736 1.39703,2.01328 0.76767,0.97592 1.39576,2.20315 1.39576,2.72712 0,0.6371 0.87438,0.95272 2.6393,0.95272 2.36879,0 2.65544,-0.19475 2.7965,-1.89922 z m -8.64124,0.32899 c -0.27295,-0.4798 -0.96292,-1.41605 -1.53326,-2.08056 -0.81727,-0.9522 -0.85916,-1.42248 -0.19781,-2.21944 0.67664,-0.8153 0.56007,-1.16066 -0.60155,-1.78235 -1.22709,-0.65672 -1.44082,-0.56905 -1.44082,0.59104 0,0.7492 -0.39256,1.50403 -0.87235,1.67743 -0.57835,0.20893 -0.18145,1.05184 1.17739,2.50075 2.00687,2.13977 4.4689,3.0719 3.46834,1.31313 z m 17.86095,-4.05402 c 0,-0.36117 -0.31404,-0.65668 -0.69788,-0.65668 -0.38383,0 -0.69788,0.4896 -0.69788,1.08799 0,0.59842 0.31405,0.89392 0.69788,0.65671 0.38384,-0.23724 0.69788,-0.72684 0.69788,-1.08802 z m -7.44519,-4.83446 c 1.71943,-1.5097 2.50762,-2.9043 2.85957,-5.05965 0.70368,-4.30928 0.84522,-4.93493 1.42352,-6.292 0.28661,-0.67257 0.30563,-2.08134 0.0423,-3.1306 -0.41807,-1.66571 -0.56482,-1.75406 -1.15676,-0.69633 -0.69188,1.2363 -3.76003,1.62702 -5.26397,0.67035 -1.45497,-0.92552 -1.82062,-4.01131 -0.59577,-5.02783 0.87382,-0.72522 1.66842,-0.76065 3.62065,-0.16149 l 2.50115,0.76762 -0.3535,-3.13613 c -0.19454,-1.72488 -0.52904,-3.3117 -0.74362,-3.52628 -0.2146,-0.21457 -3.90059,-0.43459 -8.19114,-0.48893 -9.16548,-0.11607 -8.73203,-0.52948 -9.75586,9.30434 -0.49238,4.72915 -0.41141,6.3233 0.40429,7.95839 0.56101,1.12456 1.02002,3.08333 1.02002,4.35283 0,3.8235 3.5492,6.42553 8.87369,6.50559 2.30796,0.0347 3.4531,-0.40475 5.31542,-2.03988 z m -9.12949,-2.55517 c -3.63998,-1.79437 -2.88204,-2.88607 2.18864,-3.15232 7.05875,-0.37064 8.27731,0.32786 5.13911,2.94584 -1.92931,1.60949 -4.34368,1.67753 -7.32775,0.20653 z m 0,-5.59324 c -1.08179,-0.4365 -1.14385,-3.17445 -0.0957,-4.22259 1.28584,-1.28585 0.007,-2.29403 -2.9115,-2.29403 -2.58343,0 -2.75033,-0.12557 -2.75033,-2.06909 0,-3.5595 3.95675,-4.64515 7.31166,-2.00616 1.72966,1.36054 1.88492,1.84023 1.58973,4.91211 -0.29677,3.08869 -0.19846,3.38566 1.0595,3.20291 1.47813,-0.2147 3.25814,1.81662 2.37009,2.70469 -0.29176,0.29175 -1.09386,0.17861 -1.78248,-0.25142 -0.76913,-0.48035 -1.63162,-0.54157 -2.23638,-0.15875 -1.08141,0.68459 -1.27553,0.69844 -2.5546,0.18232 z m 21.05846,6.37915 c 1.50649,-2.10282 2.92681,-3.82331 3.15624,-3.82331 0.53793,0 2.59256,-4.02313 3.20772,-6.28093 0.84387,-3.09722 7.80284,-17.05126 9.27062,-18.58929 0.78267,-0.82016 1.64194,-2.70444 1.90945,-4.18729 0.26752,-1.48285 0.72398,-3.01014 1.01437,-3.39398 0.2904,-0.38383 0.74784,-2.03093 1.01655,-3.660218 0.26873,-1.629289 0.73969,-3.117541 1.04662,-3.307225 0.30692,-0.189693 0.77214,-1.486189 1.03383,-2.8811 0.26168,-1.394919 0.75879,-3.047131 1.10468,-3.671589 0.54195,-0.97848 3.71336,-8.589497 7.01604,-16.837711 1.16243,-2.903104 1.20614,-10.727771 0.075,-13.434219 l -0.80206,-1.919174 h -46.96559 -46.9656 l -0.848842,3.663878 c -1.952869,8.428956 -1.894465,9.563641 0.836825,16.257743 1.402328,3.436913 3.910427,9.075356 5.573588,12.529869 2.93928,6.105194 3.816277,8.724845 6.287694,18.781706 1.028219,4.18418 4.0138,9.30629 6.747467,11.57614 0.409482,0.34 1.052907,1.68744 4.097917,8.58178 0.954111,2.16028 3.350001,5.13067 6.754861,8.37458 2.90196,2.76479 5.55679,5.13159 5.89963,5.25952 0.34283,0.12802 0.62334,-1.17314 0.62334,-2.89132 0,-1.97609 -0.34559,-3.25656 -0.94051,-3.48485 -1.40754,-0.54013 -4.07072,-6.66643 -3.57583,-8.22572 0.23534,-0.74146 0.49776,-3.93561 0.58316,-7.09811 0.0874,-3.23762 0.57065,-6.51231 1.10588,-7.4947 0.52283,-0.95958 1.16791,-2.21577 1.4335,-2.79152 0.26561,-0.57575 1.70852,-1.90002 3.20646,-2.94282 2.47154,-1.72054 3.30477,-1.89598 9.0045,-1.89598 5.70211,0 6.53479,0.17551 9.03545,1.90456 1.5387,1.06391 3.48943,3.33262 4.41951,5.13998 1.45576,2.8288 1.67967,4.28939 1.78172,11.62214 0.10708,7.70278 -0.0109,8.55995 -1.45352,10.51091 -1.00756,1.36301 -1.57023,3.11628 -1.57023,4.89281 0,2.63025 0.29885,3.00202 2.79153,3.47283 0.19191,0.0362 1.58153,-1.65459 3.08801,-3.75739 z m 161.87005,-8.88295 c 0.54588,-2.03691 0.43472,-12.95846 -0.15309,-15.04564 -0.24963,-0.88628 -0.76789,-1.60093 -1.15173,-1.58811 -0.38383,0.0129 -0.68324,-1.46036 -0.66534,-3.27374 0.0414,-4.19248 2.16352,-9.09186 4.05886,-9.3707 0.94975,-0.13973 1.61551,-1.00363 2.04211,-2.649887 0.8611,-3.323033 0.34274,-17.376111 -0.66406,-18.003452 -0.43288,-0.269725 -1.28783,-3.167294 -1.89989,-6.439045 -0.89789,-4.799715 -0.96463,-6.78994 -0.34554,-10.30457 1.05757,-6.003909 0.45255,-6.655172 -5.85165,-6.298961 -2.63014,0.148627 -4.99919,0.616175 -5.26451,1.039006 -1.05686,1.684156 -6.14575,3.108722 -11.03661,3.089537 -5.03151,-0.01985 -7.42927,-0.689862 -10.90147,-3.046735 -2.5356,-1.721109 -6.45964,-1.421724 -6.45964,0.492831 0,1.121138 0.81098,1.50436 4.70416,2.222892 2.58731,0.477517 5.09968,1.124098 5.58305,1.436847 0.48339,0.312749 3.07722,0.725657 5.76407,0.917574 4.30359,0.307404 4.88517,0.515107 4.88517,1.744704 0,1.272552 -0.40046,1.378602 -4.53623,1.201327 -2.49493,-0.106951 -5.64715,-0.627271 -7.00495,-1.156285 -1.35779,-0.529016 -3.87016,-1.172701 -5.58305,-1.4304 l -3.11434,-0.468551 0.22867,4.861632 c 0.25584,5.438953 -0.81927,9.442211 -4.10922,15.301094 -1.1283,2.009319 -2.04878,4.050622 -2.04555,4.53623 0.0109,1.605036 13.16148,4.257664 19.18995,3.870778 5.50775,-0.353469 7.15028,0.32434 4.85431,2.003186 -1.98772,1.453449 -11.62753,1.201765 -17.42028,-0.45481 -7.35165,-2.102381 -7.17389,-2.190224 -6.52222,3.222824 0.30582,2.540219 0.83458,4.974084 1.17501,5.408584 0.34046,0.43449 1.16581,2.56256 1.83414,4.72905 1.26862,4.11241 1.2062,6.62221 -0.38084,15.31531 -0.4618,2.52938 -0.62397,5.74835 -0.36039,7.15329 l 0.4792,2.55443 h 20.12555 20.12555 z M 268.8819,126.133 c -2.59847,-8.20427 -2.5434,-7.64244 -0.7239,-7.38483 1.13251,0.16034 1.7096,0.76802 1.87672,1.97625 0.13281,0.95959 0.49591,2.05875 0.80703,2.44259 0.31115,0.38383 0.78778,2.1896 1.05921,4.01281 0.40532,2.72273 0.30312,3.31494 -0.57207,3.31494 -0.69445,0 -1.54663,-1.51903 -2.44699,-4.36176 z m 4.8226,-2.55731 c -0.53573,-0.33922 -0.79427,-1.08521 -0.57457,-1.65776 0.32002,-0.83397 1.3465,-0.9684 5.16134,-0.67597 5.39743,0.41375 5.43305,0.42761 4.86996,1.89494 -0.30724,0.80069 -1.44816,1.07418 -4.44796,1.06624 -2.21909,-0.006 -4.47303,-0.28823 -5.00877,-0.62745 z m 13.49834,-0.81843 c -0.78359,-1.26788 0.52952,-1.84209 5.09722,-2.22894 4.44358,-0.37635 5.44182,0.23266 3.5243,2.15017 -1.0449,1.0449 -7.98523,1.1083 -8.62152,0.0788 z m -3.10289,-4.08266 v -2.85004 l -4.96165,0.13327 c -4.51168,0.12119 -5.07988,-0.0205 -6.26541,-1.56288 -1.74076,-2.26467 -1.71315,-4.13875 0.0611,-4.13875 0.76767,0 1.39576,0.46002 1.39576,1.02227 0,1.64237 2.17388,2.33697 6.10646,1.95113 l 3.66388,-0.35946 v -4.49861 c 0,-3.90768 0.16051,-4.46808 1.22129,-4.26619 1.81787,0.34596 2.17364,8.17095 0.42948,9.44631 -1.1599,0.84813 -1.15913,0.93609 0.0153,1.79499 1.64811,1.20512 1.31832,5.61262 -0.44494,5.94664 -1.00157,0.18974 -1.22132,-0.28147 -1.22132,-2.61868 z m 3.86077,-3.49694 c -0.85113,-1.37717 1.09277,-2.82782 3.78936,-2.82782 2.08425,0 2.74905,-0.34017 3.38272,-1.73095 0.51471,-1.12964 1.15971,-1.58857 1.85674,-1.32109 3.03738,1.16555 -0.72981,5.58549 -5.30486,6.22403 -2.11905,0.29576 -3.40171,0.17722 -3.72396,-0.34417 z m 5.56063,-9.10875 c -0.76767,-0.32988 -2.25939,-0.62186 -3.31494,-0.64883 -1.47763,-0.0378 -1.91917,-0.39106 -1.91917,-1.53558 0,-1.34897 0.29058,-1.45377 3.14007,-1.13259 3.53464,0.39841 5.33721,1.53945 4.76941,3.01908 -0.42937,1.11893 -0.69574,1.14859 -2.67537,0.29792 z m -19.88962,-1.16205 c 0,-0.96498 0.84225,-1.57344 3.10121,-2.24044 1.70569,-0.50363 3.43294,-0.71068 3.83835,-0.46012 1.38043,0.85316 0.74243,2.30736 -1.18204,2.69428 -1.05555,0.21223 -2.7828,0.59853 -3.83835,0.85846 -1.58561,0.39044 -1.91917,0.24233 -1.91917,-0.85218 z m -102.64479,9.88557 c 0.007,-1.23081 -0.11123,-1.18957 -0.99062,0.34894 -0.54856,0.95958 -0.98299,2.52982 -0.96541,3.48941 0.0312,1.70116 0.0558,1.69246 0.99059,-0.34895 0.52728,-1.1515 0.96171,-2.72173 0.96544,-3.4894 z m 69.01946,-5.8672 c 3.37173,-1.72012 10.10461,-8.51797 12.46665,-12.586932 1.01535,-1.749109 2.06047,-3.337221 2.32249,-3.529139 0.26198,-0.191917 0.70383,-1.29108 0.98183,-2.442585 l 0.50546,-2.093645 -2.66613,2.501284 c -4.0312,3.781975 -6.55262,5.524354 -7.99436,5.524354 -2.22288,0 -1.43657,-1.819755 1.66436,-3.851706 5.80788,-3.805758 8.20011,-7.277563 8.20011,-11.900743 0,-2.705185 -0.18734,-3.16781 -1.13528,-2.80404 -0.62441,0.239612 -1.57041,0.07452 -2.10226,-0.366869 -1.35603,-1.125417 0.075,-2.710138 2.45063,-2.713782 1.00855,-0.0014 3.40396,-0.564089 5.32314,-1.250087 3.11229,-1.112471 3.5132,-1.491297 3.70948,-3.505234 0.12104,-1.241889 -0.13674,-3.977214 -0.57305,-6.078507 -0.7589,-3.655553 -0.87388,-3.802052 -2.66268,-3.39243 -2.50842,0.574413 -7.09695,3.521713 -8.98653,5.772226 -1.56326,1.861865 -2.09554,3.425824 -2.63738,7.748962 -0.16771,1.337924 -0.71095,2.56071 -1.20723,2.717306 -1.89501,0.597932 -5.97358,5.627006 -6.39792,7.888951 -0.25036,1.334504 0.0131,4.094388 0.60799,6.380083 1.29778,4.982462 1.33326,7.740753 0.11275,8.753772 -1.24308,1.031661 -1.85497,0.308551 -1.85497,-2.192185 0,-2.576937 -1.77059,-9.495956 -3.07192,-12.004269 -0.54149,-1.043723 -1.38355,-5.608804 -1.87122,-10.144621 l -0.8867,-8.246936 -3.01013,-0.239408 c -2.75393,-0.219024 -2.96895,-0.12021 -2.5259,1.160836 0.6144,1.776512 0.4844,3.419179 -0.88413,11.170584 -2.23883,12.680799 -2.10909,15.114223 1.14241,21.42938 0.33723,0.65494 0.81781,2.53922 1.068,4.18729 0.25017,1.64806 0.93285,3.54605 1.51704,4.21776 1.40325,1.61344 5.11297,1.56498 8.39554,-0.10967 z m -5.57064,0.0774 c -2.91734,-0.25021 -3.99215,-1.85635 -1.96737,-2.93998 1.70621,-0.91313 4.63838,-0.21732 5.19481,1.23275 0.58515,1.52481 -0.24354,1.96316 -3.22744,1.70723 z m 100.0489,-1.23009 c 0.18254,-1.5626 -0.0427,-2.66985 -0.60724,-2.98575 -0.7289,-0.4079 -0.71341,-1.90213 0.0824,-7.965671 1.0543,-8.032206 1.33258,-8.897139 2.86238,-8.897139 0.81142,0 0.92452,1.005669 0.60827,5.408582 -0.36702,5.109657 -0.32443,5.331437 0.77063,4.012818 0.94947,-1.143276 1.10348,-2.536269 0.85144,-7.700627 -0.16924,-3.467675 -0.66903,-6.98005 -1.11068,-7.805288 -0.4416,-0.825223 -0.80295,-4.347479 -0.80295,-7.827227 v -6.326813 h -2.03658 c -1.12009,0 -2.5333,-0.190631 -3.14046,-0.423608 -0.9209,-0.353378 -1.1039,0.188559 -1.1039,3.269157 0,3.717747 -1.15466,9.198302 -3.29686,15.648311 -0.63738,1.919174 -1.33402,6.312674 -1.54807,9.76334 -0.33479,5.396905 -0.5713,6.308645 -1.6921,6.522295 -1.21903,0.23238 -1.28535,-0.22661 -1.02986,-7.128354 0.16837,-4.548605 0.60101,-7.704662 1.12846,-8.232106 1.24388,-1.243898 1.01884,-5.565996 -0.38144,-7.325202 -0.92967,-1.167988 -2.28441,-1.626051 -5.91647,-2.000471 l -4.7107,-0.485621 v 5.570233 c 0,6.411472 0.76168,7.837314 5.93123,11.10328 1.76658,1.116061 3.13929,2.516861 3.13999,3.20424 0.001,1.497108 -1.6236,1.590395 -3.03951,0.17447 -0.57576,-0.575752 -1.32857,-1.046822 -1.67291,-1.046822 -0.34434,0 -1.36251,-0.783882 -2.26258,-1.741954 -0.90005,-0.958073 -1.77894,-1.599481 -1.95306,-1.425353 -0.46835,0.468342 4.73504,7.53766 6.42631,8.73082 0.8009,0.56501 2.75028,2.21634 4.33197,3.66961 2.4954,2.29282 2.99131,2.5031 3.74932,1.58977 1.65669,-1.99619 5.58781,-0.88108 5.58781,1.58506 0,0.69958 -0.55405,0.84101 -2.02722,0.51745 -1.16289,-0.25541 -2.22186,-0.13029 -2.48376,0.29348 -0.29178,0.47211 0.53831,0.73875 2.29981,0.73875 2.63923,0 2.76867,-0.10554 3.04629,-2.48365 z M 261.28989,80.517743 c 1.0806,-2.529585 1.86572,-4.677147 1.7447,-4.772358 -0.12103,-0.09522 -1.24068,0.102632 -2.48814,0.439644 -2.23728,0.604428 -2.26811,0.669436 -2.26811,4.780097 0,2.292037 0.23553,4.163854 0.52341,4.159597 0.28787,-0.0041 1.40754,-2.077397 2.48814,-4.60698 z m -21.15647,-0.02957 c 0,-0.635183 1.25697,-2.350598 2.79324,-3.812031 2.12281,-2.019362 2.97717,-3.514706 3.55946,-6.22989 0.58733,-2.738647 1.53052,-4.374043 4.04004,-7.005126 1.8006,-1.887817 3.57483,-3.442383 3.94277,-3.45459 0.36791,-0.01221 1.27854,-0.483282 2.02361,-1.046822 1.21499,-0.918964 0.47731,-1.024629 -7.15328,-1.024629 -7.92294,0 -8.50796,0.09208 -8.50796,1.339206 0,1.512867 -2.16618,5.628456 -2.966,5.635199 -0.28788,0.0021 -0.5238,1.182085 -0.5243,2.621465 -0.001,4.166109 1.55023,14.132101 2.20029,14.132101 0.32567,0 0.59213,-0.519699 0.59213,-1.154883 z m 70.21418,-3.432105 c -0.21024,-0.547837 -0.71212,-0.996064 -1.1153,-0.996064 -0.71498,0 -0.3067,3.034005 0.61043,4.53623 0.55468,0.908559 1.00373,-2.240165 0.50487,-3.540166 z m 17.5433,-6.38528 c 0.27421,-4.808809 0.12911,-6.423824 -0.64704,-7.208383 -0.55022,-0.5561 -1.60007,-2.031742 -2.333,-3.279206 -1.32364,-2.252844 -1.36944,-2.268114 -6.80637,-2.268114 -3.47146,0 -5.316,0.255285 -5.04246,0.697881 0.23722,0.383835 0.99832,0.697882 1.69132,0.697882 3.35027,0 8.62608,7.612037 9.51097,13.722577 0.54941,3.793852 1.56103,5.546873 2.60087,4.507017 0.36981,-0.369795 0.83138,-3.461137 1.02571,-6.869654 z m -6.45089,2.423219 c -1.11325,-5.532008 -3.47082,-9.020803 -7.47782,-11.065895 -4.28096,-2.184907 -5.28405,-1.838882 -5.77894,1.993436 -0.23542,1.823215 -0.54977,3.904485 -0.69853,4.625048 -0.3176,1.538489 1.31932,4.280764 3.00213,5.029327 0.64868,0.288552 2.90668,0.739815 5.01777,1.002812 6.81313,0.848772 6.44489,0.947088 5.93539,-1.584728 z M 67.305534,62.502012 c -0.05627,-2.467458 -0.310252,-4.822982 -0.564586,-5.234495 -0.254334,-0.411506 -2.092642,-0.708895 -4.085115,-0.660846 l -3.622681,0.08734 3.025316,0.490861 c 1.663924,0.269976 3.307871,0.937268 3.653192,1.482878 0.648223,1.024185 0.886985,3.434611 0.340195,3.434611 -0.63625,0 -5.643048,-3.106717 -6.135665,-3.807188 -0.999519,-1.421207 -0.525025,0.661662 0.97542,4.281735 1.503978,3.628648 1.553201,3.66507 5.818238,4.306437 0.412579,0.06205 0.656096,-1.72905 0.595686,-4.381342 z m 272.308756,-0.05071 c 0.50049,-1.151504 1.1295,-3.178647 1.39781,-4.504768 l 0.48786,-2.411127 -2.87839,2.907299 c -1.58312,1.599014 -2.87839,3.233599 -2.87839,3.632416 0,1.443961 -1.4874,0.678166 -2.6495,-1.364114 -0.65388,-1.149075 -1.47816,-2.091215 -1.83177,-2.093645 -0.35361,-0.0021 -1.22467,-0.530869 -1.93566,-1.174316 -0.93741,-0.848338 -1.50302,-0.959644 -2.0577,-0.404939 -0.55471,0.554704 -0.14874,1.623167 1.47724,3.8872 2.29723,3.198829 4.6302,4.274448 7.59151,3.500043 1.12856,-0.295127 1.51316,-0.06988 1.55462,0.910553 0.0414,0.978277 0.14939,1.041993 0.43375,0.255865 0.20828,-0.575752 0.78813,-1.988962 1.28862,-3.140467 z m -108.59303,1.744709 c 0.93285,0 1.16263,-0.414729 0.92332,-1.6665 -0.17512,-0.916576 0.0153,-2.289819 0.42274,-3.051661 0.67257,-1.256647 0.47651,-1.420678 -2.11316,-1.768026 -3.70091,-0.496397 -4.70504,-0.06868 -4.27427,1.820557 0.73778,3.235797 1.95831,5.372143 2.86944,5.022513 0.5115,-0.196279 1.48888,-0.356883 2.17193,-0.356883 z m 5.57523,-2.026905 c 0.96268,-1.351958 1.4233,-3.036797 1.38331,-5.059641 -0.0528,-2.662497 -0.12889,-2.804298 -0.62472,-1.161563 -0.31058,1.029153 -1.06869,2.590745 -1.6847,3.470224 -0.61602,0.879477 -1.12002,2.131086 -1.12002,2.781364 0,0.650279 -0.39255,1.340728 -0.87235,1.534327 -0.53968,0.217761 -0.42472,0.373011 0.30142,0.407096 0.64556,0.03029 1.82324,-0.857012 2.61706,-1.971807 z m -56.53247,-4.665103 c -0.44946,-0.541576 -1.17131,-0.959892 -1.6041,-0.929591 -0.49445,0.03461 -0.4627,0.18592 0.0855,0.407096 0.47979,0.193597 0.87235,0.815431 0.87235,1.381853 0,0.566423 0.32929,0.826334 0.73177,0.577595 0.50023,-0.309168 0.47321,-0.763802 -0.0855,-1.436953 z m 99.4997,1.108956 c -0.23721,-0.383835 -1.11938,-0.693073 -1.96037,-0.687198 -1.24308,0.0087 -1.33326,0.137199 -0.48221,0.687198 1.37491,0.888536 2.99173,0.888536 2.44258,0 z m 9.4214,0 c 0.74237,-0.479752 -0.13216,-0.679619 -3.00719,-0.687198 -2.52738,-0.007 -3.89159,0.252117 -3.62268,0.687198 0.55019,0.890211 5.25236,0.890211 6.62987,0 z m 47.25057,-7.851167 c -0.1664,-0.863629 -0.30242,-0.157024 -0.30242,1.570233 0,1.727257 0.13609,2.433862 0.30242,1.570233 0.1664,-0.863628 0.1664,-2.276838 0,-3.140466 z M 66.704985,49.88944 65.681694,46.400032 66.089257,49.88944 c 0.415283,3.555636 1.046953,5.387436 1.432053,4.152918 0.113842,-0.364929 -0.253505,-2.233744 -0.816325,-4.152918 z m 159.947545,3.009614 c -0.2228,-0.556722 -0.38816,-0.391359 -0.42166,0.421638 -0.0303,0.735681 0.13456,1.147869 0.36654,0.91597 0.23192,-0.231907 0.25669,-0.833829 0.055,-1.337608 z m -44.84335,-1.372129 c 1.59052,-3.188278 1.35614,-4.86103 -0.30044,-2.144025 -1.26798,2.079687 -1.83902,4.344892 -1.09532,4.344892 0.16378,0 0.7919,-0.990392 1.39576,-2.200867 z m 4.18908,-1.28854 0.4565,-1.744704 -1.05121,1.744704 c -1.17154,1.944444 -1.47719,3.473677 -0.48123,2.407691 0.3407,-0.364643 0.82488,-1.448104 1.07594,-2.407691 z m 43.66693,0.558305 c 0,-1.623342 -0.20958,-2.023704 -0.76721,-1.466011 -0.42196,0.421959 -0.55782,1.426908 -0.3019,2.233221 0.66635,2.099491 1.06911,1.810463 1.06911,-0.76721 z M 341.31555,50.7618 c 0.007,-0.287876 -0.30336,-0.523411 -0.6872,-0.523411 -0.38383,0 -0.69308,0.706605 -0.68719,1.570233 0.009,1.269754 0.14023,1.369913 0.68719,0.523411 0.37208,-0.575752 0.68133,-1.282357 0.6872,-1.570233 z M 62.878174,49.191563 c -0.407498,-2.090847 -0.564194,-2.324133 -0.624299,-0.929432 -0.07611,1.76451 0.572677,4.3652 0.979193,3.925529 0.104028,-0.112512 -0.05561,-1.460758 -0.354894,-2.996097 z m 9.065786,2.876975 c 0,-0.14492 -0.549582,-0.694497 -1.221293,-1.221293 -1.106884,-0.868075 -1.131571,-0.84339 -0.263494,0.263492 0.911695,1.162496 1.484787,1.532186 1.484787,0.957801 z m 117.93129,-1.696871 c -0.009,-1.017003 -0.10424,-1.035427 -0.68719,-0.133273 -0.88324,1.366709 -0.88324,2.290573 0,1.744703 0.38383,-0.237223 0.69306,-0.962365 0.68719,-1.611421 z m 43.48156,-0.133273 c 0.20086,-0.76767 0.0803,-1.395763 -0.26755,-1.395763 -0.34789,0 -0.63254,0.628093 -0.63254,1.395763 0,0.767669 0.12038,1.395763 0.26755,1.395763 0.14721,0 0.43179,-0.628094 0.63254,-1.395763 z m 44.46221,0 c -1.35302,-0.874389 -2.09365,-0.874389 -2.09365,0 0,0.383834 0.70661,0.693072 1.57024,0.687197 1.26975,-0.0087 1.36992,-0.140143 0.52341,-0.687197 z m 14.64482,-0.872352 c -0.007,-0.893295 -0.23172,-1.24366 -0.52341,-0.812712 -0.28199,0.416642 -1.14082,1.113695 -1.90849,1.549012 -1.30074,0.737604 -1.2651,0.792933 0.52341,0.812711 1.53438,0.01701 1.91704,-0.293614 1.90849,-1.549011 z m -2.69463,-2.792072 c 1.81155,-1.624395 2.65435,-3.059357 2.97136,-5.059095 0.55547,-3.503697 0.81456,-4.603471 1.41025,-5.986114 0.26088,-0.605521 0.11013,-2.018731 -0.33522,-3.140467 -0.44545,-1.122202 -0.95525,-1.647164 -1.13347,-1.167172 -0.41328,1.113015 -4.54742,1.138542 -5.65108,0.03489 -0.4606,-0.460602 -0.83745,-1.710807 -0.83745,-2.77823 0,-2.303417 2.12603,-3.149057 5.08688,-2.023341 1.64806,0.626593 1.89193,0.547481 1.89193,-0.613746 0,-0.733183 -0.30295,-2.129875 -0.67322,-3.103765 -0.65363,-1.719146 -0.85394,-1.769005 -6.87923,-1.712289 -3.41332,0.03212 -6.82251,-0.271522 -7.57601,-0.674782 -1.15091,-0.615943 -1.55745,-0.415861 -2.54216,1.251123 -0.64471,1.091378 -1.14738,3.035032 -1.11709,4.31923 0.0303,1.2842 0.21024,1.952293 0.39973,1.484652 0.50065,-1.235118 4.48267,-1.803219 6.7083,-0.957045 1.86441,0.708854 1.91239,0.865291 1.83545,5.984356 -0.0824,5.486675 -0.64853,6.671963 -2.46594,5.163634 -0.79177,-0.657114 -0.96899,-1.611432 -0.65906,-3.549488 l 0.42385,-2.650733 h -2.75122 c -2.29828,0 -2.80104,-0.258526 -3.05369,-1.570234 -0.23922,-1.242096 -0.32452,-1.132718 -0.40815,0.523412 -0.0582,1.151504 -0.39134,2.545016 -0.74043,3.096696 -0.41481,0.655562 -0.16946,2.227062 0.70821,4.53623 0.73862,1.943247 1.3479,4.318294 1.35396,5.277882 0.007,0.959587 0.24175,2.05875 0.52376,2.442585 1.191,1.621102 4.91732,3.104574 7.84048,3.121351 2.57285,0.01483 3.59751,-0.391819 5.66926,-2.249545 z m -9.37806,-3.384954 c -3.92672,-2.072006 -2.9711,-3.037158 3.24139,-3.273729 5.91717,-0.225327 6.69428,0.444764 3.73738,3.222644 -1.98035,1.860432 -3.52834,1.871766 -6.97877,0.05108 z m 4.38215,-5.891007 c -0.5898,-0.710644 -0.65848,-1.311261 -0.20217,-1.767582 1.0162,-1.016207 3.01823,-0.0061 3.01823,1.522883 0,1.594225 -1.58199,1.731688 -2.81606,0.244699 z M 102.63674,359.03408 c -0.48552,-0.58504 -0.70645,-1.24002 -0.49093,-1.45554 0.21547,-0.21547 0.74239,0.26315 1.17082,1.06368 0.91412,1.70805 0.57477,1.90363 -0.67989,0.39186 z"
     id="path1371"
     inkscape:connector-curvature="0" />
</svg>
