<?xml version="1.0" encoding="UTF-8" standalone="no"?>
<svg
   id="svg"
   version="1.1"
   width="400"
   height="377.93103448275866"
   viewBox="0, 0, 400,377.93103448275866"
   sodipodi:docname="B20.svg"
   inkscape:version="1.4.4 (dcaf3e7d9e, 2026-05-05)"
   xml:space="preserve"
   xmlns:inkscape="http://www.inkscape.org/namespaces/inkscape"
   xmlns:sodipodi="http://sodipodi.sourceforge.net/DTD/sodipodi-0.dtd"
   xmlns="http://www.w3.org/2000/svg"
   xmlns:svg="http://www.w3.org/2000/svg"
   xmlns:rdf="http://www.w3.org/1999/02/22-rdf-syntax-ns#"
   xmlns:cc="http://creativecommons.org/ns#"
   xmlns:dc="http://purl.org/dc/elements/1.1/"><metadata
     id="metadata11"><rdf:RDF><cc:Work
         rdf:about=""><dc:format>image/svg+xml</dc:format><dc:type
           rdf:resource="http://purl.org/dc/dcmitype/StillImage" /></cc:Work></rdf:RDF></metadata><defs
     id="defs9" /><sodipodi:namedview
     pagecolor="#ffffff"
     bordercolor="#666666"
     borderopacity="1"
     objecttolerance="10"
     gridtolerance="10"
     guidetolerance="10"
     inkscape:pageopacity="0"
     inkscape:pageshadow="2"
     inkscape:window-width="1920"
     inkscape:window-height="996"
     id="namedview7"
     showgrid="false"
     inkscape:zoom="1.2489051"
     inkscape:cx="186.16306"
     inkscape:cy="177.7557"
     inkscape:window-x="1360"
     inkscape:window-y="0"
     inkscape:window-maximized="1"
     inkscape:current-layer="svg"
     inkscape:showpageshadow="0"
     inkscape:pagecheckerboard="0"
     inkscape:deskcolor="#d1d1d1" /><path
     style="fill:#ffffff;stroke-width:1.65835"
     d="m 114.90439,264.49636 c -9.18959,-3.37821 -37.678412,-11.23972 -48.710263,-13.44167 -16.92165,-3.37752 -27.454668,-2.55346 -38.125496,2.98276 -5.70506,2.95995 -8.776824,3.7221 -10.3836,2.57635 -1.775762,-1.26633 -1.650059,-1.42461 0.567323,-0.7139 1.566976,0.50226 3.290168,0.19951 3.829132,-0.67273 0.53913,-0.87225 -0.274623,-1.58593 -1.808266,-1.58593 -2.206768,0 -2.385041,-0.48605 -0.85488,-2.32986 4.353669,-5.24578 38.226987,-7.10742 46.710615,-2.56715 1.892179,1.01273 7.546825,1.93748 12.565494,2.05497 5.018833,0.11758 7.809342,0.67515 6.201404,1.23922 -4.551346,1.59653 14.691829,4.91952 28.488657,4.91952 6.61251,0 12.27163,-0.64615 12.57561,-1.43588 0.30397,-0.78972 2.04524,-0.84218 3.86943,-0.11663 2.8847,1.14742 2.93162,1.33451 0.36136,1.43586 -3.68669,0.14544 -15.22201,4.87967 -14.25238,5.84934 0.39287,0.3928 4.05218,-0.0524 8.13173,-0.98947 4.07971,-0.937 8.82458,-1.99104 10.54413,-2.34228 4.19977,-0.85788 5.56543,-2.40102 2.12502,-2.40102 -1.52022,0 -2.76398,-0.96088 -2.76398,-2.13528 0,-3.92198 -15.75285,-17.80294 -22.23485,-19.59271 -7.61316,-2.10211 -7.03107,-3.61084 0.78955,-2.04669 3.95284,0.79057 8.59622,4.25187 15.66561,11.67767 l 10.04763,10.55406 10.30367,-0.40691 c 5.66707,-0.2238 10.30366,-1.04007 10.30366,-1.81393 0,-0.77385 0.55969,-1.0753 1.24376,-0.66986 0.68407,0.40544 9.82573,0.1938 20.31481,-0.47031 20.3541,-1.28868 25.1678,-2.89286 34.41079,-11.46766 2.9643,-2.75 5.38964,-4.56478 5.38964,-4.03286 0,0.53189 1.97492,-1.9355 4.3885,-5.48313 5.20091,-7.64424 7.40718,-20.54623 3.51337,-20.54623 -1.36366,0 -4.63227,1.64175 -7.26358,3.64836 -4.40391,3.35847 -4.55035,3.3775 -1.84159,0.2394 1.61838,-1.87493 5.53624,-4.80577 8.70634,-6.51299 7.95677,-4.28507 6.91068,-11.79174 -2.03912,-14.63231 -3.0026,-0.953 -4.42746,0.0267 -8.09125,5.5629 -5.70423,8.61967 -6.68349,8.58522 -2.26315,-0.0797 l 3.46877,-6.79913 -7.1664,1.11044 c -3.9414,0.61075 -11.8126,3.0825 -17.49163,5.49272 -8.78643,3.72914 -10.70034,5.31906 -12.84045,10.6677 -1.38306,3.457 -3.26777,6.09709 -4.18783,5.8669 -0.92022,-0.2302 -2.61058,1.4471 -3.75633,3.72734 -1.14576,2.28024 -4.79363,5.47405 -8.10636,7.09736 -5.10772,2.50291 -7.12212,2.66633 -13.2537,1.07521 -3.97672,-1.03194 -10.00035,-2.2492 -13.38588,-2.70502 -3.38536,-0.45581 -7.11665,-2.01572 -8.29176,-3.46649 -1.40048,-1.72909 -1.46002,-2.232 -0.1728,-1.45991 2.0532,1.23154 15.44904,-3.39377 15.44904,-5.33422 0,-0.61393 -3.44705,-2.13408 -7.66026,-3.37809 -6.17786,-1.82407 -9.46769,-1.87918 -16.99811,-0.28476 -8.19987,1.73611 -12.63216,2.22224 -29.668898,3.25392 -2.060994,0.12487 -4.992629,1.68123 -6.514498,3.45869 -1.522035,1.77747 -3.393982,2.84441 -4.159975,2.37097 -0.765992,-0.47343 -4.063291,0.78975 -7.327425,2.80707 -4.817841,2.97757 -8.541338,3.69317 -19.785125,3.80245 -7.617637,0.0739 -12.955704,0.6895 -11.862353,1.36773 1.676261,1.0397 12.86947,0.96336 65.119974,-0.44408 2.67326,-0.072 3.92764,-0.50732 2.78752,-0.96737 -1.14011,-0.46004 -2.07294,-1.54677 -2.07294,-2.41496 0,-0.95146 1.27428,-0.89657 3.20776,0.13815 4.91484,2.63039 8.11778,2.02435 4.3525,-0.82358 -1.77045,-1.33913 -2.51671,-2.41819 -1.65835,-2.3979 2.76381,0.0653 9.84447,6.32815 8.58197,7.59068 -1.33995,1.33993 -80.038173,1.85776 -88.666575,0.58342 -2.948714,-0.43549 -6.920631,-2.12704 -8.82674,-3.759 -6.232748,-5.33668 6.49825,-94.54486 25.370287,-92.24141 7.531071,0.91923 16.080038,2.43674 18.99774,3.37226 4.307569,1.38115 9.296386,0.72372 26.533617,-3.49661 17.432921,-4.26822 23.156221,-5.01185 32.008011,-4.15893 8.06357,0.77694 14.12186,0.19748 24.0461,-2.29996 12.33797,-3.10481 24.85221,-3.95079 53.26458,-3.60076 6.17785,0.0761 12.98954,1.3805 17.41268,3.33436 3.99597,1.76514 12.65754,4.43404 19.24816,5.93091 9.38643,2.13182 13.87824,4.26293 20.72939,9.83499 4.81054,3.9124 10.98527,8.18185 13.72154,9.48767 4.73145,2.25794 5.25898,2.12686 10.7715,-2.67678 3.18818,-2.77806 11.02389,-10.40161 17.41269,-16.94126 6.38896,-6.53964 14.02882,-13.08191 16.97737,-14.53838 7.87534,-3.89005 18.90139,-4.9276 28.32978,-2.66576 19.84714,4.76127 37.31406,31.23517 33.84097,51.29135 -1.45138,8.38077 -14.11919,24.68672 -20.26886,26.08971 -6.72793,1.53499 -13.80279,5.17771 -18.31963,9.43257 -2.32302,2.1883 -8.09774,5.26545 -12.83283,6.83816 -4.73493,1.57269 -9.03486,3.54864 -9.55542,4.391 -2.42418,3.92224 -9.09639,1.37904 -13.38538,-5.10186 -5.02596,-7.59478 -6.58233,-8.14726 -8.1755,-2.90212 -1.98953,6.5496 -8.87169,14.23494 -14.60328,16.30751 -4.00957,1.44987 -6.13724,3.61597 -7.64351,7.78182 -3.88635,10.74742 -11.9146,20.1479 -21.00519,24.59551 -7.57319,3.70524 -10.34082,4.15362 -22.70797,3.67906 -7.74616,-0.29723 -13.73546,0.0192 -13.3096,0.70334 1.53995,2.47399 -20.11696,1.24145 -25.12601,-1.42998 -7.04766,-3.75869 -31.61497,-2.07053 -47.66499,3.27535 -11.23517,3.74223 -29.82679,6.66341 -33.59422,5.27847 z m 102.63851,-8.74112 c 1.70561,-1.70558 -8.86654,-4.98512 -13.32369,-4.13309 -2.97508,0.56872 -3.32119,1.15775 -1.73895,2.95983 2.08223,2.3718 13.01275,3.2232 15.06264,1.17326 z m 35.00464,-6.51102 c 6.32562,-2.34257 9.30949,-4.98588 15.23726,-13.49788 3.02236,-4.33991 5.74655,-16.93048 3.66316,-16.93048 -0.76085,0 -0.90247,-1.25373 -0.31442,-2.78608 1.0013,-2.60919 0.81656,-2.60919 -2.90859,0 -4.87026,3.41128 -8.65462,3.64052 -4.17625,0.25298 5.35551,-4.0511 4.52433,-9.13135 -1.93562,-11.83042 -6.0311,-2.51999 -11.07015,-1.76048 -15.78435,2.37906 -1.59616,1.40163 -2.90211,1.74867 -2.90211,0.77123 0,-0.97746 0.93282,-2.15359 2.07293,-2.61364 1.60446,-0.64741 1.58605,-0.86604 -0.0812,-0.96737 -2.41837,-0.14692 -14.62483,24.27189 -12.9635,25.9333 0.58523,0.58511 3.69182,-0.18929 6.90355,-1.72092 9.15592,-4.36609 8.61995,-3.40004 -3.15833,5.69257 -6.03955,4.66253 -10.56005,9.15856 -10.04546,9.9912 0.51458,0.83263 -0.0182,1.30883 -1.18522,1.05821 -4.41934,-0.94954 -2.11838,4.6057 2.66745,6.44017 5.75863,2.20733 15.34257,1.37173 24.91126,-2.17193 z m -82.45322,-28.80203 c 2.78338,-4.45671 1.73514,-4.12786 -3.03827,0.95328 -2.18985,2.33087 -2.86347,3.80898 -1.49716,3.28467 1.36632,-0.5243 3.40726,-2.43137 4.53543,-4.23795 z m -4.11006,-2.04092 c 5.74486,-7.76864 7.13456,-11.22651 2.16598,-5.38963 -2.32933,2.73627 -5.37456,6.281 -6.76724,7.87716 -1.39269,1.59617 -1.82402,2.90211 -0.95836,2.90211 0.86582,0 3.36761,-2.42533 5.55962,-5.38964 z m 133.78071,-15.89873 c 3.9759,-6.69229 7.84682,-11.32588 9.46172,-11.32588 1.50314,0 4.66361,2.14938 7.02312,4.77638 3.53179,3.932 5.89063,4.88503 13.34326,5.39113 9.63999,0.65463 15.29945,-1.32847 20.64366,-7.23379 1.89649,-2.09557 5.20291,-3.49663 8.28777,-3.51188 5.88118,-0.029 6.47503,-0.3918 14.01025,-8.55652 4.32283,-4.68382 5.20473,-6.66217 3.9608,-8.88485 -1.08224,-1.93385 -1.97443,-2.25368 -2.75667,-0.98807 -2.18886,3.54163 -9.21181,2.11697 -11.21261,-2.27456 -1.03896,-2.28023 -2.96845,-4.14588 -4.28783,-4.14588 -1.48655,0 -2.0232,-0.97867 -1.41109,-2.57365 0.5431,-1.41551 0.31259,-2.15648 -0.51244,-1.6466 -0.82503,0.50988 -3.79928,-1.37214 -6.60935,-4.18228 -2.81024,-2.81014 -4.65864,-3.93484 -4.10774,-2.49929 1.51938,3.95973 -0.70365,3.13298 -5.24454,-1.9504 -2.47957,-2.77582 -3.67706,-3.42478 -3.05982,-1.65835 1.24625,3.5665 0.0348,3.65617 -4.98218,0.3688 -3.71123,-2.43176 -3.8356,-2.37308 -3.10212,1.46397 0.42023,2.1985 -0.16766,4.57318 -1.30662,5.27707 -1.25802,0.77747 -1.65204,0.60232 -1.00396,-0.44625 0.58673,-0.94933 -0.46002,-2.12532 -2.32617,-2.6133 -2.58902,-0.67704 -2.98222,-0.39261 -1.66,1.20052 1.27543,1.53697 0.72933,2.62472 -2.07013,4.12297 -5.81402,3.11156 -12.73995,0.21888 -12.73995,-5.32098 0,-1.32161 -1.24145,-3.42712 -2.759,-4.67893 -2.51787,-2.07711 -2.5736,-1.92798 -0.63631,1.70676 1.82054,3.41569 1.7683,3.8467 -0.36715,3.02722 -3.88337,-1.49016 -9.3483,3.17872 -8.32062,7.10854 0.69137,2.64377 1.36897,2.95803 3.16479,1.46772 1.2567,-1.043 2.28489,-1.22457 2.28489,-0.40351 0,0.82109 -1.49252,2.7708 -3.31671,4.33271 -1.82419,1.56192 -3.26927,4.15311 -3.21156,5.7582 0.0763,2.14171 0.60613,1.81504 1.98769,-1.22754 1.86947,-4.11691 1.88705,-4.10532 2.52485,1.65836 0.35322,3.19232 0.1393,10.51887 -0.47346,16.28121 -0.97379,9.1467 -2.05653,11.63232 -8.52691,19.57626 -7.10239,8.71971 -7.20305,8.99146 -2.41389,6.51492 3.05119,-1.57785 7.61796,-6.9953 11.72603,-13.91023 z m 27.28999,-24.43474 c 1.43332,-1.43328 2.60594,-3.67205 2.60594,-4.97506 0,-2.49667 1.99515,-3.13783 3.88468,-1.24833 1.25156,1.25152 -5.27886,8.82937 -7.60884,8.82937 -0.81824,0 -0.31509,-1.17269 1.11822,-2.60598 z m -4.02747,-5.15237 c 0,-0.92274 1.67908,-3.09932 3.7313,-4.83684 l 3.73128,-3.15914 -3.29896,4.14587 c -1.8144,2.28023 -3.49348,4.45683 -3.73128,4.83687 -0.23782,0.38002 -0.43234,-0.064 -0.43234,-0.98676 z m 16.58352,-3.85011 c 0,-0.91209 0.79036,-1.65835 1.75619,-1.65835 0.96598,0 1.29517,0.74626 0.73133,1.65835 -0.56368,0.9121 -1.35388,1.65835 -1.7562,1.65835 -0.40214,0 -0.73132,-0.74625 -0.73132,-1.65835 z m -60.50943,38.26251 c -1.0965,-6.48985 -4.16628,-11.09217 -4.16628,-6.24618 0,1.29897 -1.54657,4.32805 -3.43692,6.73128 -3.761,4.78119 -2.63612,5.87731 1.85767,1.81041 2.48986,-2.25325 2.94143,-2.26334 3.7774,-0.0844 0.64394,1.6778 0.17595,2.17773 -1.45338,1.55251 -1.32171,-0.50717 -2.40312,-0.15075 -2.40312,0.79204 0,1.55512 4.9923,3.58302 6.38349,2.59304 0.31857,-0.2267 0.068,-3.44359 -0.55886,-7.14865 z m -183.268242,0.42198 c 7.752802,-1.55648 19.507032,-2.87498 26.120372,-2.92996 6.6135,-0.0551 12.02388,-0.57984 12.02305,-1.16631 0,-1.60624 -3.66248,-2.62638 -8.12128,-2.2633 -3.43229,0.27948 -3.60973,0.0572 -1.30148,-1.63071 2.03446,-1.48759 2.21125,-2.41577 0.74028,-3.88663 -2.76563,-2.76568 -5.11401,-2.38465 -3.95284,0.64136 0.54311,1.4155 0.33449,2.16998 -0.46384,1.67661 -0.79833,-0.49338 -2.37359,0.21412 -3.50078,1.57221 -3.72565,4.48918 -5.25216,2.56252 -1.80512,-2.27839 1.85935,-2.61121 2.90511,-5.22312 2.32402,-5.80422 -0.58108,-0.58113 -0.3519,-1.05658 0.50927,-1.05658 2.2154,0 8.64433,4.53884 16.53162,11.67123 5.4908,4.96529 8.54565,6.34029 16.21586,7.2986 8.75824,1.09427 10.01461,0.80714 17.1505,-3.91948 4.23493,-2.80513 8.35925,-5.10024 9.16487,-5.10024 0.8058,0 5.75698,-2.91454 11.0025,-6.47674 5.24553,-3.56221 12.33217,-7.6444 15.74771,-9.07158 5.97156,-2.49501 6.16972,-2.83598 5.152,-8.86301 -1.71723,-10.17057 -2.48454,-11.98646 -5.81882,-13.77088 -2.66232,-1.42489 -2.99615,-1.22642 -2.094,1.24551 1.01407,2.77909 0.89567,2.78529 -2.15869,0.11281 -2.26596,-1.98274 -4.9515,-2.56443 -8.98742,-1.9467 -3.1658,0.48455 -6.6888,0.94857 -7.82892,1.03116 -1.14011,0.0825 -2.07293,0.69219 -2.07293,1.35469 0,0.66249 -1.08142,1.6195 -2.40296,2.12667 -1.64326,0.63055 -2.09732,0.12537 -1.43613,-1.59776 0.80198,-2.09003 -0.13267,-2.33817 -5.47405,-1.45456 -6.59344,1.09055 -12.97312,3.53408 -16.99843,6.51064 -3.89414,2.87952 -13.48422,5.61513 -14.41356,4.11148 -0.48789,-0.78931 -0.10613,-2.89401 0.84808,-4.67708 2.71356,-5.07035 2.08255,-8.43506 -1.58173,-8.43506 -1.82419,0 -3.31671,0.83953 -3.31671,1.86564 0,1.17918 -1.79036,1.50757 -4.8656,0.89251 -3.46397,-0.69279 -5.01669,-0.28734 -5.38965,1.4074 -0.34875,1.58478 -1.29418,1.89892 -2.82782,0.93982 -1.78206,-1.11437 -1.21855,-2.02857 2.48752,-4.03582 2.6353,-1.42731 4.04506,-2.63641 3.13297,-2.6869 -0.9121,-0.0504 -0.53897,-0.81519 0.82917,-1.69935 5.72514,-3.6998 -26.02201,-0.35699 -34.305818,3.61223 -2.795146,1.33932 -4.736748,3.63843 -4.843547,5.73507 -0.167663,3.29628 0.458534,3.45608 10.779295,2.75026 6.02661,-0.41213 12.07677,-1.17859 13.44491,-1.70326 3.61985,-1.38817 8.32973,-0.49581 12.78274,2.4219 5.44254,3.56615 3.53013,4.57003 -2.63396,1.38251 -4.22896,-2.1869 -4.93045,-2.22785 -4.16893,-0.24328 0.67129,1.74935 0,2.1457 -2.52915,1.48526 -1.89467,-0.49546 -5.40358,0.38265 -7.79774,1.95136 -2.39416,1.5687 -3.84405,2.02853 -3.22184,1.02183 0.62222,-1.0067 0.34096,-1.83037 -0.62504,-1.83037 -0.96582,0 -1.75619,0.61131 -1.75619,1.3585 0,0.74718 -3.54472,1.18709 -7.877171,0.9776 l -7.877166,-0.3809 11.437815,5.273 11.437652,5.27301 -6.4626,4.78899 c -3.5545,2.63395 -5.529939,3.77635 -4.38982,2.53866 2.61721,-2.84113 2.70742,-5.49156 0.13267,-3.90035 -1.304628,0.80626 -1.593185,0.29503 -0.881248,-1.56049 1.550388,-4.04037 -2.299634,-3.42439 -7.242359,1.15868 l -4.225638,3.91822 -3.809401,-9.82407 c -2.095162,-5.40324 -4.197287,-9.43616 -4.671244,-8.96207 -0.474123,0.47407 0.350741,3.89306 1.833141,7.59774 3.087519,7.71683 3.417199,10.62738 1.036636,9.15616 -0.912094,-0.5637 -1.681071,-2.65995 -1.708765,-4.65834 -0.117746,-8.47689 -3.27458,2.26231 -4.02996,13.70879 -0.702975,10.65241 -0.491701,11.7754 2.063321,10.97166 1.565484,-0.49244 9.189419,-2.16887 16.942208,-3.72535 z m 11.608462,-14.0884 c 0,-1.28692 5.48583,-4.69587 7.55661,-4.69587 0.62769,0 0.19817,1.13647 -0.95471,2.52549 -1.77809,2.14247 -1.6202,2.35391 1.04079,1.39412 1.84789,-0.66654 2.56911,-0.51182 1.75536,0.37663 -1.6814,1.83543 -9.39805,2.16357 -9.39805,0.39963 z m 137.08795,-3.77266 c 1.21739,1.66507 2.21357,2.13853 2.21357,1.0521 0,-1.08642 1.43033,-1.97531 3.17855,-1.97531 4.32366,0 5.24935,-3.44949 1.99467,-7.43401 -2.51638,-3.08093 -2.50278,-3.14651 0.21641,-1.0407 3.8046,2.94621 9.1075,-0.52369 5.75814,-3.7676 -4.41769,-4.27846 -12.63366,-9.31626 -15.19332,-9.31626 -1.48755,0 -4.49115,-1.17061 -6.6747,-2.60135 -2.25304,-1.47624 -6.35199,-2.35282 -9.47714,-2.02674 l -5.50706,0.57462 6.86773,2.23517 c 3.77706,1.22936 9.00087,4.0062 11.60846,6.17075 2.98139,2.475 3.59215,3.5352 1.64574,2.85678 -2.80227,-0.97673 -2.89564,-0.70211 -0.98672,2.90401 1.68656,3.1857 1.11193,2.92315 -2.87109,-1.31192 -5.5195,-5.86856 -12.91359,-8.49956 -16.87107,-6.00317 -1.41972,0.89552 -3.89315,3.9763 -5.49644,6.84619 l -2.91505,5.21798 8.82474,2.56538 c 6.60604,1.92047 9.32773,3.66948 10.82572,6.95718 l 2.00097,4.39177 4.32199,-4.66115 c 4.0948,-4.41599 4.43858,-4.50191 6.5359,-1.63372 z m 27.65435,-2.58156 c -1.6164,-2.73628 -3.56828,-4.97506 -4.3376,-4.97506 -0.7693,0 -1.03066,-0.59532 -0.58108,-1.32295 0.44974,-0.72762 0.18855,-2.34076 -0.58027,-3.58477 -1.08787,-1.76025 -2.3391,-1.19108 -5.64236,2.56671 -4.63477,5.27245 -5.56113,8.13592 -2.21689,6.85266 1.17278,-0.45005 4.71751,0.55822 7.87717,2.24058 7.9669,4.24202 8.86456,3.95091 5.48103,-1.77717 z m 0.18192,-14.12514 c -2.826,-8.98442 -8.80486,-17.38354 -12.37447,-17.38354 -1.0096,0 -1.29451,0.87526 -0.63333,1.94505 0.66119,1.06976 -0.58025,0.69664 -2.75866,-0.82917 -4.58799,-3.21353 -7.26125,-3.62526 -5.54884,-0.85465 0.81292,1.31539 0.0597,1.62505 -2.39201,0.98383 -2.15055,-0.5624 -3.17225,-0.27892 -2.56082,0.71052 0.65305,1.05671 -2.46398,1.3106 -8.70402,0.70898 -9.56123,-0.92183 -9.48677,-0.87538 4.50855,2.8157 15.71089,4.14353 22.2108,8.43681 28.089,18.55294 4.89678,8.42709 6.07703,5.12161 2.3746,-6.64966 z m 7.54434,-12.40845 c 0,-0.91209 -0.74626,-1.65835 -1.65835,-1.65835 -0.9121,0 -1.65835,0.74626 -1.65835,1.65835 0,0.9121 0.74625,1.65835 1.65835,1.65835 0.91209,0 1.65835,-0.74625 1.65835,-1.65835 z M 265.2205,149.03721 c -6.16857,-5.87321 -11.502,-9.67182 -12.85222,-9.15365 -1.26947,0.48716 -2.30826,0.20927 -2.30826,-0.61751 0,-0.82677 -1.30596,-1.46193 -2.90212,-1.41145 -1.59616,0.0504 -7.37966,-0.46822 -12.85222,-1.15267 -11.0098,-1.377 -17.40523,-1.36839 -24.87527,0.0335 -2.73628,0.51351 -8.70635,1.25196 -13.26681,1.64103 -4.56046,0.38905 -10.90365,1.18106 -14.09598,1.76002 -10.25956,1.86069 -23.78258,2.95396 -33.99621,2.74842 -9.69869,-0.19517 -40.46626,5.0961 -45.2725,7.78573 -5.021645,2.81029 5.77173,2.78034 30.34734,-0.0843 13.6814,-1.59469 37.93479,-4.42319 53.89642,-6.28554 15.96163,-1.86235 32.32856,-3.3954 36.37079,-3.40677 11.08028,-0.0311 32.00635,6.22812 41.89957,12.53277 4.83628,3.08193 9.16622,5.61392 9.62227,5.62664 0.45605,0.0132 -3.91553,-4.4946 -9.7148,-10.01627 z m -42.14319,7.41776 c -0.55107,-0.55105 -1.98139,-0.60998 -3.17856,-0.13085 -1.32286,0.52938 -0.92983,0.92235 1.00198,1.00192 1.74823,0.072 2.72765,-0.31995 2.17658,-0.87101 z m -13.41489,-3.23723 c -3.52086,-1.29091 -12.47594,-2.706 -19.90022,-3.14463 l -13.49881,-0.79752 16.21867,2.20568 c 8.92028,1.21311 16.69379,2.68076 17.27455,3.26145 0.58076,0.58071 2.23745,1.00324 3.68154,0.93898 1.44409,-0.0643 -0.25489,-1.17305 -3.77573,-2.46396 z m 89.31897,0.92246 c 0.56384,-0.9121 -0.0946,-1.65836 -1.46249,-1.65836 -1.36814,0 -2.94872,0.74626 -3.51256,1.65836 -0.56368,0.91209 0.0946,1.65835 1.46266,1.65835 1.36815,0 2.94872,-0.74626 3.51239,-1.65835 z m -63.84653,-2.84255 c -1.36815,-0.50727 -3.64705,-1.51568 -5.06427,-2.24088 -1.4174,-0.72521 -3.65617,-0.55397 -4.97506,0.38052 -1.96067,1.38902 -1.87841,1.53244 0.45074,0.7859 1.56698,-0.50227 3.29017,-0.19953 3.82913,0.67272 0.53914,0.87226 2.61522,1.52701 4.61353,1.45501 2.44209,-0.088 2.81788,-0.43336 1.14593,-1.05327 z m -128.52223,-6.24548 c 5.47256,-0.58739 14.39962,-2.28386 19.83786,-3.76992 l 9.88775,-2.70195 -4.91269,-2.09536 c -8.04733,-3.43233 -19.17154,-2.58086 -34.083279,2.60878 -12.781073,4.44815 -13.600133,4.99238 -9.800689,6.51284 2.280231,0.9125 5.265268,1.40134 6.633405,1.08632 1.368148,-0.31501 6.965083,-1.05334 12.437643,-1.64071 z m 29.85032,-11.70125 c -2.73628,-1.25294 -6.09443,-2.25109 -7.46258,-2.21816 -1.36814,0.033 -0.24875,1.08501 2.48753,2.33795 2.73629,1.25291 6.09444,2.25107 7.46259,2.21814 1.36813,-0.033 0.24875,-1.08501 -2.48754,-2.33793 z m 14.096,-1.59847 c 5.41616,-3.09612 3.52101,-3.13087 -3.54092,-0.0649 -3.06895,1.33243 -4.46064,2.42539 -3.09249,2.42875 1.36814,0.004 4.35317,-1.06035 6.63341,-2.36385 z M 97.077111,252.54298 c 1.140109,-0.46004 3.005759,-0.46004 4.145869,0 1.14013,0.46004 0.20729,0.83644 -2.072939,0.83644 -2.280232,0 -3.213052,-0.3764 -2.07293,-0.83644 z m 12.023039,-0.56006 c 0,-1.99207 7.80189,-1.99207 12.43764,0 2.49566,1.07238 1.36648,1.45409 -4.56046,1.54179 -4.33245,0.0641 -7.87718,-0.62969 -7.87718,-1.54179 z m 46.55871,-4.86685 c -2.17194,-1.8837 -4.81154,-3.4249 -5.86574,-3.4249 -1.05438,0 -3.36546,-1.17024 -5.13592,-2.60051 -3.06082,-2.47257 -2.97441,-2.54864 1.75586,-1.54606 2.73629,0.57997 6.8407,2.26616 9.12094,3.7471 8.61977,5.59824 20.8279,4.13361 31.5634,-3.78672 3.06065,-2.25807 6.31101,-4.10557 7.22311,-4.10557 0.91209,0 -0.91193,1.83919 -4.0535,4.08712 -3.14142,2.24791 -6.71401,4.95404 -7.93887,6.01365 -3.31488,2.86744 -12.09004,4.42574 -17.17554,3.05007 -2.54872,-0.68942 -4.7074,-0.52152 -5.01121,0.3898 -0.29352,0.88052 -2.31058,0.0597 -4.48253,-1.82398 z m -58.478111,0.41731 c 1.197171,-0.47906 2.627495,-0.42014 3.178571,0.13084 0.55107,0.55106 -0.428357,0.94301 -2.176586,0.87101 -1.931824,-0.0795 -2.324843,-0.47254 -1.001985,-1.00192 z m -36.172783,-3.01307 c -3.192327,-1.22935 -4.583849,-2.29198 -3.092493,-2.36137 1.49152,-0.0695 5.222811,0.96402 8.291756,2.29646 6.992273,3.03576 2.65585,3.08989 -5.199263,0.0649 z m 26.533616,0.82917 c -3.031296,-1.95903 -0.413091,-1.95903 4.145884,0 2.187027,0.93976 2.469455,1.45629 0.82917,1.5164 -1.368137,0.0501 -3.606906,-0.63223 -4.975054,-1.5164 z m -41.044189,-4.45985 c 1.596163,-0.41711 4.208066,-0.41711 5.804229,0 1.596163,0.41713 0.290211,0.75842 -2.902115,0.75842 -3.192326,0 -4.498278,-0.34129 -2.902114,-0.75842 z m 21.973154,-1.52056 -8.291757,-2.2697 7.303214,0.86876 c 4.016693,0.47782 8.494241,1.56513 9.950108,2.41627 3.455175,2.02 1.189534,1.76332 -8.961565,-1.01533 z m -15.308075,-3.4607 c 1.613409,-0.42045 3.852184,-0.39281 4.975054,0.0613 1.122703,0.45427 -0.19751,0.79828 -2.93379,0.76449 -2.736279,-0.0339 -3.654839,-0.40547 -2.041264,-0.82593 z m -14.024013,-3.30031 c 1.197163,-0.47907 2.627491,-0.42015 3.178561,0.13083 0.55107,0.55106 -0.428352,0.94301 -2.176586,0.87101 -1.931813,-0.0797 -2.324843,-0.47254 -1.001975,-1.00192 z m 162.000191,-3.84229 c 0.56385,-0.91209 1.79848,-1.65836 2.74408,-1.65836 0.94542,0 4.07308,-1.64992 6.95015,-3.66649 3.89762,-2.73198 4.62779,-2.91544 2.86431,-0.71982 -3.63661,4.52766 -15.00178,9.99796 -12.55854,6.04467 z m 143.13647,-22.6912 c 1.19716,-0.47907 2.62749,-0.42015 3.17855,0.13084 0.55107,0.55105 -0.42835,0.94301 -2.17658,0.871 -1.93181,-0.0797 -2.32484,-0.47252 -1.00197,-1.0019 z"
     id="path2"
     sodipodi:nodetypes="ssssssssssssssssssssssscsssssssssssssscsssssssssssssssssssssssssssssssssssssssssssssssssssssssssssssscsssssssssssssscsccssssssssssssssssssssssssssssssssssssssssscsscsssssssssscsssssssssssssssssssscssssssssssssssssssssssssssssssssssssssssssscssssscccssssscsssssssssssssssssssssssscssssssscsscsssssssssssssssssssssscsssssssssssssssssssssssssssscsssssssssssssssssscsssssssssssssssssssssssssssssssssssssssssssssssssssssscsssssssssssssssssssss" /></svg>
