<?xml version="1.0" encoding="UTF-8" standalone="no"?>
<svg
   xmlns:dc="http://purl.org/dc/elements/1.1/"
   xmlns:cc="http://creativecommons.org/ns#"
   xmlns:rdf="http://www.w3.org/1999/02/22-rdf-syntax-ns#"
   xmlns:svg="http://www.w3.org/2000/svg"
   xmlns="http://www.w3.org/2000/svg"
   xmlns:sodipodi="http://sodipodi.sourceforge.net/DTD/sodipodi-0.dtd"
   xmlns:inkscape="http://www.inkscape.org/namespaces/inkscape"
   id="svg"
   version="1.1"
   width="400"
   height="377.93103448275866"
   viewBox="0, 0, 400,377.93103448275866"
   sodipodi:docname="B3.svg"
   inkscape:version="0.92.5 (2060ec1f9f, 2020-04-08)">
  <metadata
     id="metadata11">
    <rdf:RDF>
      <cc:Work
         rdf:about="">
        <dc:format>image/svg+xml</dc:format>
        <dc:type
           rdf:resource="http://purl.org/dc/dcmitype/StillImage" />
      </cc:Work>
    </rdf:RDF>
  </metadata>
  <defs
     id="defs9" />
  <sodipodi:namedview
     pagecolor="#ffffff"
     bordercolor="#666666"
     borderopacity="1"
     objecttolerance="10"
     gridtolerance="10"
     guidetolerance="10"
     inkscape:pageopacity="0"
     inkscape:pageshadow="2"
     inkscape:window-width="1366"
     inkscape:window-height="693"
     id="namedview7"
     showgrid="false"
     inkscape:zoom="0.15611314"
     inkscape:cx="171.12699"
     inkscape:cy="23.506184"
     inkscape:window-x="0"
     inkscape:window-y="0"
     inkscape:window-maximized="1"
     inkscape:current-layer="svg" />
  <path
     style="fill:#ffffff;stroke-width:0.76473534"
     d="m 217.05048,370.99641 c -1.25068,-0.64886 -2.818,-1.6721 -3.48296,-2.2739 -0.66496,-0.60177 -2.64448,-1.09414 -4.39893,-1.09414 -2.24414,0 -3.18992,-0.32162 -3.18992,-1.08473 0,-1.34952 4.60122,-4.26842 6.72854,-4.26842 1.44808,0 1.2476,-0.70449 -2.44813,-8.60327 -2.21393,-4.7318 -4.46701,-10.15186 -5.00682,-12.04458 -0.53983,-1.89272 -1.26831,-4.3898 -1.61887,-5.54904 -0.35056,-1.15925 -1.06654,-5.54653 -1.59108,-9.74954 l -0.9537,-7.64181 2.63621,-2.75845 c 1.44992,-1.51714 7.97024,-6.95345 14.48961,-12.08072 12.39369,-9.74715 14.78893,-10.98164 26.18167,-13.49382 2.41267,-0.53202 4.87916,-1.51583 5.48108,-2.18626 0.60189,-0.67041 3.20927,-7.4133 5.79417,-14.98418 l 4.69983,-13.76523 0.85989,-15.02928 0.8599,-15.0293 -2.04155,-6.76566 c -2.91288,-9.6532 -3.47525,-12.69157 -4.31586,-23.31759 -0.41112,-5.197 -1.78726,-15.03408 -3.05811,-21.86018 -2.77148,-14.88676 -4.16811,-28.39875 -3.19567,-30.91767 0.97613,-2.52853 3.81198,-4.88896 7.1626,-5.96178 l 2.86775,-0.91824 v -5.2938 c 0,-3.9338 -0.6195,-7.11111 -2.4114,-12.36766 l -2.41142,-7.07383 -0.48007,-23.706799 c -0.43451,-21.457518 -0.6337,-24.142146 -2.09943,-28.295208 -2.75233,-7.79858 -3.67412,-13.109285 -2.66128,-15.332251 0.48774,-1.070462 0.88679,-4.606551 0.88679,-7.858014 0,-7.384811 0.92568,-8.890766 6.15432,-10.012107 8.05407,-1.727298 14.14306,-0.579143 14.99823,2.828063 0.28359,1.129992 -0.20887,4.810305 -1.15172,8.606738 -1.03285,4.15887 -1.64719,9.041395 -1.64719,13.091194 0,3.552244 -0.33622,6.794865 -0.74717,7.205814 -0.41093,0.410926 -0.97404,3.698547 -1.2513,7.305804 -0.50356,6.551129 -0.50047,6.5664 2.70272,13.338466 4.46813,9.446322 6.11649,16.006604 6.61532,26.32805 0.51968,10.7529 0.65533,11.4781 2.52197,13.48171 2.59408,2.7844 4.51603,7.41514 5.04069,12.14491 0.27943,2.51923 2.11067,10.94508 4.06937,18.72409 3.48576,13.84371 3.57509,14.07077 4.21257,10.70629 1.39788,-7.37764 5.30501,-19.62963 7.08415,-22.21448 1.31011,-1.90343 1.87056,-3.75732 1.87056,-6.18753 0,-1.90842 0.48253,-5.07315 1.07226,-7.03272 0.58975,-1.95956 0.88054,-3.56283 0.6462,-3.56283 -0.23444,0 0.22082,-0.71474 1.01134,-1.5883 1.18739,-1.31205 1.52552,-3.34037 1.94415,-11.66222 0.42997,-8.54785 0.93261,-11.458081 3.31806,-19.211015 1.54623,-5.025411 3.09677,-10.703571 3.44566,-12.618134 0.6528,-3.582403 0.005,-15.375936 -1.46934,-26.777806 -0.78892,-6.098382 -0.74378,-6.59914 0.78094,-8.66144 1.57578,-2.131365 1.58142,-2.232478 0.21412,-3.851327 -1.38295,-1.63737 -1.38104,-1.643775 0.12523,-0.423998 2.26495,1.834051 3.28298,1.039825 2.9014,-2.263569 -0.23491,-2.034554 0.0758,-3.367727 1.05964,-4.546853 1.21846,-1.460191 2.38942,-1.71977 9.38775,-2.080917 5,-0.258026 8.2503,-0.764066 8.67539,-1.350666 0.46143,-0.636738 0.54151,-0.50819 0.24928,0.400244 -0.23682,0.736057 -0.0899,1.338286 0.32662,1.338286 0.41642,0 1.1266,0.810859 1.57815,1.801932 0.66372,1.456725 0.45765,2.596396 -1.0757,5.94859 -3.17836,6.9486 -4.22784,10.816775 -3.96967,14.631275 0.19788,2.925256 -0.10419,4.062919 -1.52911,5.756306 -1.56904,1.864688 -1.88223,3.446161 -2.68912,13.579358 -0.50229,6.307872 -0.70205,12.664926 -0.4439,14.126813 0.25814,1.461887 0.6743,6.271356 0.92478,10.687702 0.39673,6.994589 0.20313,9.064839 -1.5012,16.059449 -1.43883,5.90471 -2.01236,10.51881 -2.16719,17.43522 l -0.21054,9.40555 3.36945,2.66635 c 1.99244,1.57669 3.84874,2.4824 4.54231,2.21627 0.64508,-0.24755 0.95298,-0.23013 0.68425,0.0385 -0.26874,0.26873 0.55694,1.42281 1.83483,2.56464 l 2.32349,2.07601 -2.02194,14.49114 c -1.11205,7.97012 -2.33156,19.6531 -2.71003,25.96217 -0.72576,12.09904 -0.87534,12.72603 -7.47919,31.35415 l -2.98215,8.41209 0.0889,22.94206 c 0.0762,19.6347 0.2906,23.69002 1.48748,28.13041 0.7692,2.85361 1.95593,5.4858 2.63721,5.84934 0.68129,0.36354 3.30347,0.91147 5.8271,1.21765 9.9422,1.20625 17.19306,4.58636 28.24232,13.16564 2.91514,2.26347 7.65022,5.48786 10.52237,7.16528 6.80476,3.97419 7.7219,5.42123 7.31702,11.54475 -0.39148,5.92075 -3.73167,24.54887 -4.49858,25.08844 -0.61801,0.43477 -6.02294,13.55037 -6.02294,14.61519 0,0.36774 0.64613,0.66862 1.43584,0.66862 1.5044,0 3.67548,2.02619 2.94925,2.75242 -0.23157,0.23181 -1.05503,0.51264 -1.82963,0.62431 -0.77461,0.11161 -1.51743,0.93931 -1.65073,1.83922 -0.13335,0.8999 -1.16462,2.36164 -2.29182,3.24828 -1.80903,1.42298 -2.85953,1.58176 -8.95464,1.35354 -6.25422,-0.2342 -7.26829,-0.49173 -10.75651,-2.73171 -3.27304,-2.10178 -4.20571,-2.37147 -6.21151,-1.79622 -1.56255,0.44813 -2.64477,0.39231 -3.20228,-0.16514 -2.45633,-2.45633 0.45432,-4.27348 10.06807,-6.28567 5.68122,-1.18911 5.99271,-1.36541 7.16519,-4.05591 0.92136,-2.11433 1.26612,-5.75614 1.38835,-14.66617 0.10133,-7.38111 0.52906,-12.79474 1.13387,-14.34835 1.49369,-3.83689 0.81814,-4.48383 -5.20983,-4.9892 -5.78692,-0.48515 -10.39242,-2.1893 -15.82479,-5.85556 -2.8262,-1.90737 -3.72969,-2.1691 -5.35487,-1.55119 -2.81645,1.07082 -6.97381,0.90189 -11.79702,-0.47937 -10.84111,-3.10461 -15.60111,-4.06347 -16.49386,-3.32254 -0.50358,0.41793 -1.67303,3.11551 -2.59879,5.99464 -1.60723,4.99851 -1.62767,5.39844 -0.45251,8.85977 0.67691,1.99377 1.8628,4.1892 2.63533,4.8788 2.04449,1.82499 3.40183,5.86026 2.79052,8.29592 -0.29003,1.15556 -0.5871,4.51753 -0.66018,7.47101 -0.16896,6.82701 -2.05803,10.82469 -6.25074,13.22741 -2.68187,1.53693 -3.92423,1.7263 -10.07849,1.53621 -8.38979,-0.25912 -10.25654,-1.30925 -13.43489,-7.55776 -2.00961,-3.95079 -2.08804,-4.52613 -1.80698,-13.25403 0.24787,-7.69713 0.50955,-9.28171 1.67341,-10.13274 0.75876,-0.55482 1.61493,-1.00879 1.90257,-1.00879 1.56151,0 1.98154,-8.78566 0.66264,-13.8602 l -0.72036,-2.77155 -7.07022,0.38493 c -3.88863,0.21173 -7.73467,0.72999 -8.54673,1.15176 -0.81207,0.42178 -3.604,0.86991 -6.20429,0.99585 -3.14643,0.15247 -5.59416,0.76517 -7.31794,1.83198 -6.46419,4.00042 -12.35193,6.36001 -17.844,7.15123 l -5.77641,0.83217 0.0559,5.39203 c 0.0509,4.92126 0.54014,9.11921 1.7868,15.33361 0.25315,1.26182 1.54837,5.26817 2.8783,8.90301 2.28314,6.24007 2.57584,6.65606 5.24634,7.45617 1.55557,0.46605 3.76876,0.84737 4.91821,0.84737 3.48566,0 7.40644,2.25599 7.13997,4.10833 -0.19739,1.37222 -0.67827,1.56978 -3.34648,1.37487 -2.15328,-0.15725 -3.43335,0.15486 -4.14317,1.01 -1.88882,2.2759 -4.16604,2.95076 -10.73069,3.18003 -4.74614,0.16586 -7.13718,-0.0932 -8.79274,-0.95204 z m 9.6462,-2.75582 c 0.41394,-0.73967 1.42074,-1.00549 2.9554,-0.78025 3.08609,0.45294 2.98031,1.66741 -0.15773,1.81209 -2.44928,0.1128 -2.45341,0.11925 -0.28558,0.44249 1.58733,0.23659 3.11257,-0.32759 5.47816,-2.02643 1.8031,-1.29488 3.91035,-2.38391 4.68281,-2.42005 0.83317,-0.0389 0.47126,-0.35417 -0.88975,-0.77479 -1.26181,-0.39 -3.0474,-0.53121 -3.968,-0.31383 -0.92057,0.21747 -1.88803,0.0485 -2.14988,-0.37513 -0.26185,-0.42369 -1.23536,-0.57979 -2.16337,-0.34688 -1.53234,0.38462 -1.98501,-0.33479 -4.93029,-7.83572 -3.551,-9.04349 -5.87716,-22.0097 -5.2839,-29.45282 l 0.32222,-4.04266 5.91064,-0.54394 c 7.30554,-0.6723 16.53482,-4.86661 22.48979,-10.22064 4.14395,-3.72576 5.80615,-4.06072 3.62398,-0.73032 l -1.26833,1.93571 h 2.90642 c 3.64547,0 5.89541,-1.55098 7.87285,-5.42704 3.73146,-7.31426 3.26977,-14.02505 -1.6589,-24.11339 -2.59788,-5.3175 -3.36799,-6.36167 -3.82858,-5.191 -0.3171,0.806 -1.53532,4.13246 -2.70716,7.39214 -1.5113,4.20394 -2.5051,5.9267 -3.41893,5.9267 -2.17751,0 -16.19179,3.9202 -18.76008,5.24774 -4.75943,2.46015 -25.51867,19.50075 -24.72414,20.29528 1.11336,1.11334 0.93401,3.95321 -0.31514,4.9899 -1.33348,1.10669 -2.59164,-0.40242 -1.36125,-1.6328 0.92442,-0.92443 0.31072,-3.09116 -0.6988,-2.46723 -1.86455,1.15236 -0.14387,14.41036 3.21807,24.79456 1.7621,5.44286 10.29021,23.03567 11.54137,23.80891 0.49698,0.30716 0.4267,0.6988 -0.19429,1.08258 -0.62601,0.38691 -1.6015,-0.18688 -2.73568,-1.60936 -1.38135,-1.73239 -1.96341,-2.01001 -2.69022,-1.2832 -0.5101,0.5101 -0.77833,1.0365 -0.59606,1.16978 0.18234,0.13335 1.5202,1.20842 2.9732,2.38922 2.30285,1.87141 3.12566,2.1004 6.41261,1.78458 2.20237,-0.21173 4.0319,-0.82897 4.39859,-1.4842 z m -7.66099,-5.51492 c -1.09219,-1.31601 -0.0253,-2.14742 1.50946,-1.17645 0.61084,0.38643 1.88489,0.70786 2.83125,0.71429 0.94636,0.007 1.72065,0.35584 1.72065,0.77645 0,1.17059 -5.04618,0.90896 -6.06136,-0.31429 z m -1.10658,-15.55397 c -0.21364,-0.73606 -0.78471,-2.88688 -1.26912,-4.7796 -0.48441,-1.89272 -1.70935,-4.53677 -2.7221,-5.87568 -1.94181,-2.56719 -2.34265,-4.06588 -1.08746,-4.06588 1.95938,0 6.84271,10.71344 6.88439,15.10352 0.0143,1.43919 -1.36159,1.14797 -1.80571,-0.38236 z m 1.05006,-37.13469 c 0,-0.55052 0.43016,-1.55296 0.95592,-2.22765 1.17162,-1.50352 5.95662,-4.412 7.26498,-4.41589 1.89951,-0.005 0.89828,1.62871 -1.64999,2.69347 -1.43325,0.59885 -3.28948,1.95781 -4.12493,3.01991 -1.68801,2.14597 -2.44598,2.4342 -2.44598,0.93016 z m 21.86443,-2.71034 c -0.22178,-0.35881 0.87636,-1.47723 2.44024,-2.48539 1.56389,-1.00819 3.18314,-2.60734 3.59832,-3.5537 0.87125,-1.98588 1.92169,-2.27191 1.92169,-0.52327 0,2.03278 -1.39749,3.94945 -4.09545,5.61688 -2.88616,1.78375 -3.28626,1.88163 -3.8648,0.94548 z m 11.57782,-1.33812 c -0.8646,-0.86463 1.04499,-4.43031 4.26072,-7.95586 1.7657,-1.93578 3.60016,-4.18919 4.07659,-5.00755 1.1683,-2.00681 2.26902,-0.79645 1.2519,1.37659 -0.60211,1.28633 -5.87852,8.26545 -8.96394,11.85663 -0.0903,0.10515 -0.37171,-0.0167 -0.62527,-0.26981 z m 111.85746,61.5871 c 0.90951,-0.52767 0.92757,-0.67032 0.0872,-0.68876 -1.66664,-0.0366 -0.52267,-5.98647 2.70193,-14.05326 1.53903,-3.85013 3.04461,-7.34435 3.3457,-7.76496 0.62383,-0.87144 1.96773,-6.76267 2.70401,-11.85339 0.27375,-1.89272 0.97797,-5.32029 1.56493,-7.61684 2.18093,-8.53306 1.10495,-11.13737 -6.33669,-15.33717 -2.39355,-1.35084 -7.47104,-4.82799 -11.28331,-7.72706 -9.26647,-7.0467 -15.64013,-10.30502 -22.23492,-11.36686 -2.93938,-0.47327 -6.94853,-1.21291 -8.90919,-1.64365 l -3.56482,-0.78316 -1.18538,-5.10193 c -0.65197,-2.80606 -1.31652,-5.79017 -1.47678,-6.63138 -0.24773,-1.30031 -0.43224,-1.18572 -1.23144,0.76473 -1.18211,2.88492 -2.35961,8.99788 -2.35961,12.24985 0,1.89826 0.8255,3.3573 3.51051,6.20468 1.93077,2.04755 4.33192,5.45741 5.33587,7.5775 1.35772,2.86711 3.05433,4.75275 6.62223,7.36005 7.50688,5.48575 12.11458,7.48451 19.43123,8.42898 7.70719,0.9949 8.2672,1.68514 6.69586,8.25276 -0.55711,2.32845 -1.02396,8.68164 -1.04083,14.16395 -0.0263,8.52891 -0.29624,10.7004 -1.90032,15.28181 -1.80607,5.1583 -3.47673,7.32647 -3.47673,4.5121 0,-1.06071 -0.20385,-1.15986 -0.91768,-0.4461 -0.50473,0.50472 -2.65554,0.94186 -4.7796,0.97143 -4.51344,0.0629 -8.56183,1.33119 -4.53861,1.42197 1.31026,0.0296 3.32419,0.79466 4.4754,1.7002 3.588,2.82233 7.21141,3.75392 12.64311,3.25063 2.73393,-0.25334 5.48698,-0.76008 6.11788,-1.12612 z m -9.48454,-0.94524 c -1.88349,-1.37724 -0.81138,-1.94004 2.82761,-1.4843 1.6985,0.21269 2.78419,0.72353 2.61759,1.23165 -0.4276,1.30423 -3.79354,1.46041 -5.4452,0.25265 z m -0.32891,-5.22304 c 1.78423,-6.79332 4.1698,-12.89739 5.04054,-12.89739 0.65648,0 0.89025,0.50341 0.62152,1.33829 -3.13042,9.725 -4.03193,11.97829 -4.90729,12.2655 -0.59111,0.19381 -0.91228,-0.10659 -0.75477,-0.7064 z m 13.90841,-27.61854 c 0.007,-2.20818 -0.26354,-4.78916 -0.60096,-5.73552 -1.04936,-2.94332 1.05957,-1.99079 2.33134,1.053 1.30027,3.11194 0.79141,8.69738 -0.79238,8.69738 -0.63836,0 -0.94638,-1.31836 -0.938,-4.01486 z m 2.58588,-10.7063 c -2.58693,-1.96443 -3.92314,-8.98564 -1.71006,-8.98564 0.80115,0 1.1471,0.80723 1.1471,2.67658 0,1.65692 0.58266,3.25923 1.52947,4.20604 2.5037,2.5037 1.74245,4.16011 -0.96651,2.10302 z m -20.44608,-13.86692 c -4.99977,-1.1048 -9.29488,-3.07818 -11.14191,-5.11911 -1.5923,-1.75947 -0.81449,-2.96711 1.04585,-1.62375 4.17672,3.01602 6.07257,3.87881 10.33408,4.70281 2.60302,0.50332 5.50705,1.06862 6.45341,1.25622 0.94636,0.1876 1.72066,0.67868 1.72066,1.09128 0,0.972 -3.14158,0.8572 -8.41209,-0.30745 z m -24.49046,-13.13978 c -1.1118,-2.9243 -0.91579,-4.921 0.48312,-4.921 0.72877,0 1.06463,0.42811 0.82525,1.05197 -0.22201,0.57857 0.0853,1.99443 0.68291,3.14633 1.35121,2.60445 1.34885,2.68432 -0.0793,2.68432 -0.64133,0 -1.50166,-0.88272 -1.91184,-1.96162 z m -35.04875,55.44528 c 2.08385,0.44691 4.06077,0.81255 4.39316,0.81255 1.19832,0 2.37931,-3.9787 2.37931,-8.01591 0,-2.26617 0.35775,-5.06126 0.79502,-6.21132 0.59353,-1.56109 0.50783,-2.97879 -0.33819,-5.59411 -0.62323,-1.92668 -1.42276,-4.7031 -1.77671,-6.16979 -0.76828,-3.18357 -5.21832,-6.09547 -9.34531,-6.11518 -3.9678,-0.0191 -8.25462,3.28198 -9.30585,7.16564 -1.50115,5.54581 -1.36467,5.30862 -2.5084,4.35942 -0.80716,-0.66988 -1.15741,-0.58722 -1.52042,0.35878 -0.8207,2.13873 -0.51096,2.97962 0.55872,1.51676 1.31216,-1.7945 2.43283,-0.30279 1.32609,1.76517 -0.42526,0.79461 -0.57555,1.64239 -0.33397,1.88395 0.24156,0.24156 0.70575,2.86731 1.03151,5.83496 0.32578,2.96767 1.12798,6.21331 1.78272,7.21255 1.11522,1.70204 1.43935,1.77153 5.13197,1.10038 2.59742,-0.4721 5.23358,-0.43931 7.73035,0.0961 z m -12.5371,-8.1267 c -0.73605,-0.19238 -1.33828,-0.87751 -1.33828,-1.52257 0,-0.78471 0.44287,-1.01863 1.33828,-0.70678 1.14462,0.39862 1.12765,0.30283 -0.11734,-0.66188 -1.26458,-0.97986 -1.29816,-1.18837 -0.25578,-1.58838 2.06293,-0.79162 5.53513,-0.0495 5.53513,1.18309 0,0.63091 0.30219,1.36673 0.67154,1.63515 2.079,1.511 -1.98255,2.66773 -5.8335,1.66137 z m 10.28569,-0.39052 c -1.08382,-1.08382 -1.19996,-5.86392 -0.18162,-7.47424 0.4695,-0.74241 0.40247,-1.31862 -0.19644,-1.6888 -0.69727,-0.43092 -0.68786,-0.78318 0.0404,-1.51142 1.77406,-1.77407 2.71939,0.33947 1.89035,4.2265 -0.66152,3.10169 -0.60629,3.42398 0.49562,2.89215 0.68207,-0.32921 1.67028,-0.53275 2.19603,-0.45234 0.52576,0.0803 1.57096,0.18928 2.32267,0.24183 1.58664,0.11088 2.11435,3.17709 0.70138,4.07518 -1.43789,0.91393 -6.25001,0.70946 -7.26833,-0.30886 z m -4.29248,-9.26305 c -1.07328,-0.78478 -1.20149,-1.20752 -0.49811,-1.64224 1.1051,-0.68298 2.64652,0.58985 2.22947,1.84098 -0.19883,0.59675 -0.72623,0.53622 -1.73136,-0.19883 z m -2.28914,-4.99817 c -0.22058,-0.35689 0.30759,-1.40955 1.1737,-2.3392 1.2561,-1.34828 2.06087,-1.58353 3.9772,-1.16264 3.00383,0.65975 5.98996,2.5671 5.43213,3.46968 -0.53689,0.86869 -10.04817,0.89761 -10.58303,0.0323 z m 4.28938,-10.34983 c 1.80752,-0.0323 4.4607,0.53818 5.89594,1.26741 1.43524,0.72924 2.63975,1.23837 2.67667,1.1314 0.9124,-2.6424 3.46958,-9.69252 3.84676,-10.60545 0.40813,-0.98775 -0.14721,-1.33281 -2.78206,-1.72847 -1.81058,-0.27191 -4.62555,-0.70558 -6.25549,-0.96375 -2.67255,-0.42331 -6.06463,0.65559 -12.54591,3.99039 -0.11806,0.0607 0.21054,2.35223 0.73032,5.09218 l 0.94502,4.9817 2.10119,-1.55347 c 1.29665,-0.95866 3.35946,-1.57585 5.38756,-1.61194 z m -0.15486,-5.24496 c 0,-0.99222 -0.37412,-2.17816 -0.83136,-2.6354 -0.59867,-0.59867 -0.59867,-0.9752 0,-1.34519 1.35728,-0.83884 2.36083,0.2814 2.36083,2.6354 0,1.21217 -0.34413,2.41663 -0.76474,2.67657 -0.42727,0.26407 -0.76473,-0.32343 -0.76473,-1.33138 z m 42.40202,-1.27916 c 0.23754,-0.38431 -0.60252,-1.15659 -1.86672,-1.71616 -1.52472,-0.67491 -2.29853,-1.56991 -2.29853,-2.65846 0,-1.55328 -5.81008,-10.233 -7.5835,-11.32901 -1.62028,-1.0014 -0.13072,13.33175 1.60253,15.4202 0.93988,1.1325 9.47411,1.37088 10.14622,0.28343 z m -13.41145,-4.08089 c -0.34581,-1.78757 -0.63557,-8.24003 -0.64391,-14.33879 -0.0143,-10.16642 0.14578,-11.47029 1.92123,-15.67708 1.83902,-4.35772 1.95672,-5.50451 2.34117,-22.80988 0.37438,-16.85242 0.30066,-18.33656 -0.98145,-19.75328 -1.77779,-1.96444 -13.95013,-9.50817 -19.30194,-11.96225 -5.45754,-2.5026 -11.81858,-2.05289 -19.97302,1.41198 -3.15454,1.34039 -7.66244,2.97824 -10.01754,3.63969 l -4.28201,1.20259 -0.93217,14.57639 c -0.68303,10.68053 -1.34758,15.80273 -2.48644,19.16479 -3.61282,10.66543 -3.6187,9.63158 0.0968,17.02358 5.95879,11.85481 6.69478,17.18198 3.45906,25.03687 -1.03958,2.52362 -1.89174,4.72133 -1.8937,4.88379 -0.002,0.1625 3.17968,0.12761 7.07027,-0.0777 5.5402,-0.29215 7.90277,-0.79169 10.89748,-2.30417 5.5178,-2.78679 8.10548,-3.15994 12.76878,-1.84137 2.23045,0.6307 7.4967,1.72955 11.70275,2.4419 4.20604,0.71235 8.16355,1.58573 8.79446,1.94085 1.94328,1.09379 2.11002,0.80166 1.46009,-2.55797 z m -46.3883,-2.69285 c -3.26803,-0.53424 -1.70804,-1.70443 2.29421,-1.72092 3.42243,-0.0143 12.73482,-1.74713 18.73601,-3.48674 1.22585,-0.35534 1.72066,-0.17804 1.72066,0.61652 0,1.7381 -17.99263,5.36902 -22.75088,4.59114 z m -1.72066,-40.77612 c 0,-0.45922 0.70304,-1.74972 1.56229,-2.86776 0.85927,-1.11804 2.20616,-2.89311 2.99312,-3.94462 1.7137,-2.28984 2.83411,-1.63713 1.52847,0.89041 -2.44431,4.7319 -6.08388,8.27461 -6.08388,5.92197 z m 42.52586,-2.23946 c -1.55829,-3.89448 -1.66234,-9.92607 -0.17135,-9.92607 0.75356,0 1.05885,1.04864 1.05885,3.63706 0,2.00038 0.53835,4.92549 1.19633,6.50025 0.9645,2.30835 0.99767,2.86319 0.17135,2.86319 -0.56377,0 -1.5786,-1.3835 -2.25518,-3.07443 z m -18.81906,-18.33816 c 0,-11.24821 0.84472,-14.95012 1.80791,-7.92299 0.26746,1.95143 0.4863,7.1134 0.4863,11.47103 0,6.53282 -0.20122,7.92299 -1.14711,7.92299 -0.96865,0 -1.1471,-1.78439 -1.1471,-11.47103 z m 23.33215,9.95403 c -0.26419,-0.42746 -0.28219,-0.77721 -0.0399,-0.77721 0.51619,0 -2.64453,-6.19352 -4.94232,-9.68458 -1.08736,-1.65202 -1.32323,-2.58605 -0.74351,-2.94433 0.46696,-0.28861 0.94261,-0.40426 1.05698,-0.25697 1.53578,1.97763 5.84569,9.93009 6.21312,11.46417 0.48654,2.03133 -0.64879,3.64793 -1.54431,2.19892 z m -47.40726,-4.57813 c -0.26068,-0.42182 -0.11423,-2.06206 0.32527,-3.64497 0.43958,-1.58291 0.80118,-4.85679 0.8035,-7.27526 0.002,-2.41848 0.3101,-4.39723 0.68391,-4.39723 1.26679,0 1.67521,5.26207 0.79896,10.29382 -0.86016,4.93947 -1.68411,6.52438 -2.61164,5.02364 z m 53.40355,-22.62953 c 1.00718,-3.33895 3.28184,-9.82845 5.05476,-14.42111 2.92124,-7.56732 3.28726,-9.28831 3.90344,-18.35365 0.81504,-11.99045 2.22362,-25.91461 2.66635,-26.35732 0.17541,-0.17541 -0.25471,-0.73843 -0.95585,-1.25111 -0.94108,-0.68814 -1.39017,-2.60966 -1.71559,-7.3406 -0.24247,-3.52466 -0.70829,-6.82588 -1.03519,-7.33606 -0.90059,-1.40558 -5.72237,-2.50467 -11.00903,-2.50943 -2.60397,-0.002 -4.94717,-0.34841 -5.20711,-0.76901 -0.25994,-0.42061 0.32198,-0.79341 1.29315,-0.82847 0.97119,-0.0351 2.53966,-0.1496 3.48549,-0.25449 4.21792,-0.4679 10.40184,1.00347 12.33275,2.93441 1.67835,1.67835 2.00888,2.82859 2.37646,8.26992 l 0.42698,6.32044 0.94006,-5.03342 c 1.37485,-7.36134 1.2305,-8.83895 -1.01758,-10.41677 -1.07672,-0.7557 -4.60407,-3.32024 -7.83854,-5.699 -7.82059,-5.7515 -11.16669,-6.64261 -16.87749,-4.49463 -6.86699,2.58282 -7.34944,3.21224 -10.27723,13.40805 -1.44934,5.04726 -3.07496,11.67178 -3.61247,14.72116 -0.53749,3.04938 -1.36758,5.54433 -1.84464,5.54433 -0.47707,0 -1.63842,-3.18321 -2.58081,-7.0738 -0.94237,-3.89059 -2.78868,-11.15783 -4.1029,-16.14942 -2.3411,-8.89191 -2.44496,-9.09882 -5.12973,-10.22057 -3.51862,-1.47018 -8.27761,-0.98491 -17.52482,1.787 -8.64963,2.59276 -10.84513,4.35571 -10.84513,8.70835 0,5.58861 1.56978,17.76511 3.55001,27.53685 1.06545,5.25756 2.40615,14.80657 2.97934,21.22005 1.00893,11.28883 3.22472,21.95397 5.50072,26.47642 0.9839,1.955 1.41311,2.15333 3.9295,1.81582 1.55372,-0.20839 4.36262,-1.07433 6.242,-1.92431 7.50669,-3.39502 9.70751,-4.15237 13.8083,-4.75176 2.35035,-0.34353 5.9127,-0.31834 7.91635,0.0559 3.50541,0.65488 14.42246,6.42576 20.20555,10.68087 1.53041,1.12605 2.86112,1.98633 2.95712,1.91172 0.0961,-0.0746 0.9986,-2.86752 2.00578,-6.20645 z m -10.21006,-8.10672 c -1.90517,-0.70676 -16.82417,-14.99443 -16.82417,-16.11221 0,-1.49395 1.79741,-0.11184 7.70208,5.92281 3.50378,3.58087 7.669,7.10821 9.25604,7.83853 1.58704,0.7303 2.89441,1.56563 2.90526,1.85626 0.0378,1.00875 -1.13764,1.20003 -3.03921,0.49461 z m -42.82518,-5.48532 c 0,-0.50282 1.66997,-1.50735 3.71103,-2.23227 3.51692,-1.2491 8.96042,-6.14758 11.30281,-10.17114 0.47643,-0.81837 1.13456,-1.2313 1.46251,-0.91762 1.58909,1.51989 -4.80665,9.52402 -9.32256,11.66695 -4.35562,2.06689 -7.15379,2.71386 -7.15379,1.65408 z m 23.10926,-11.02359 c -0.70595,-1.71915 -0.62173,-16.29087 0.12164,-21.03022 1.11391,-7.10251 1.77729,-3.44922 1.70072,9.366 -0.0727,12.17289 -0.49734,14.89083 -1.82229,11.66422 z m 35.70128,-3.05894 c -0.0409,-0.31546 -0.0167,-1.82583 0.0523,-3.35638 0.10945,-2.41045 -0.47299,-5.5738 -1.98714,-10.79123 -0.25263,-0.87053 0.0306,-1.33829 0.81026,-1.33829 0.65925,0 1.19863,0.0863 1.19863,0.19143 0,0.10539 0.50984,2.60027 1.13298,5.54433 1.11183,5.25285 0.88914,10.32364 -0.45335,10.32364 -0.37379,0 -0.71297,-0.2581 -0.75372,-0.57355 z m -61.86948,-6.22724 c 0,-1.08954 1.61486,-1.44392 9.25865,-2.03195 3.95075,-0.30391 8.62751,-0.98271 10.39285,-1.50842 3.05648,-0.91023 4.0553,-0.7992 4.0553,0.45079 0,0.8842 -6.57469,2.20851 -14.91234,3.00369 -9.48083,0.9042 -8.79446,0.89749 -8.79446,0.0858 z m 32.50126,-3.14077 c -0.55145,-0.89226 -0.34858,-0.93114 4.20604,-0.80637 1.89272,0.0519 5.77124,-0.56158 8.61893,-1.36316 2.84768,-0.80159 5.34824,-1.18135 5.5568,-0.84391 0.53154,0.86004 -0.70391,1.49659 -5.25808,2.70914 -4.60923,1.22724 -12.44107,1.40884 -13.12369,0.3043 z m -27.34747,-1.98375 c -1.02749,-1.02749 0.33376,-1.84022 3.11226,-1.85819 1.55244,-0.01 4.19914,-0.37809 5.88156,-0.81793 5.9576,-1.5575 6.50025,-1.62807 6.50025,-0.84568 0,1.75557 -14.06363,4.95224 -15.49407,3.5218 z m -8.97746,-2.84395 c 0,-2.09237 9.65629,-9.5287 10.83833,-8.34666 0.5134,0.5134 -0.58385,1.66825 -3.3148,3.48884 -2.24523,1.49678 -4.5153,3.428 -5.04462,4.29162 -1.08382,1.76831 -2.47891,2.08697 -2.47891,0.5662 z m 36.32435,-2.82056 c -1.2165,-1.96838 11.07934,-11.78591 12.71394,-10.15132 0.51782,0.51783 -0.37701,1.44337 -2.72712,2.82061 -1.92378,1.12744 -4.83324,3.43966 -6.46545,5.13828 -1.97823,2.05874 -3.15224,2.78968 -3.52137,2.19243 z m 30.11982,-4.75157 c -0.92858,-1.73506 -1.1624,-18.31488 -0.27846,-19.74513 1.21005,-1.95787 1.51337,0.11662 1.51337,10.35026 0,6.0987 -0.0738,11.0885 -0.16418,11.08845 -0.0903,-2e-5 -0.57215,-0.76213 -1.07063,-1.69358 z m -50.93876,-19.83766 c -3.87983,-3.41469 -6.86476,-6.51517 -6.63312,-6.88996 0.48353,-0.78235 1.77736,0.15558 9.57883,6.94313 5.93767,5.16605 6.79059,6.19213 5.12822,6.16934 -0.56081,-0.007 -4.19407,-2.80783 -8.07393,-6.22251 z m 2.44113,-7.62989 c -6.18888,-3.66884 -17.19089,-4.5708 -20.3941,-1.6719 -1.0139,0.91754 -1.64595,1.04437 -2.24068,0.44964 -1.3825,-1.3825 2.87801,-3.52947 7.69537,-3.87792 7.07275,-0.51161 19.30075,3.37948 17.79443,5.66238 -0.35844,0.54328 -1.30449,0.35697 -2.85502,-0.5622 z M 266.3928,137.82539 c 3.81866,-1.3473 11.65292,-1.51284 13.9297,-0.29435 1.55172,0.83045 1.58241,0.73145 1.17287,-3.78491 -0.35075,-3.86808 -0.9695,-5.42028 -3.72866,-9.35375 l -3.30813,-4.71605 -0.50534,-10.04386 c -0.62584,-12.438691 -1.32412,-15.456862 -5.83458,-25.218685 -3.3873,-7.331016 -3.58369,-8.112767 -3.49663,-13.919737 l 0.0923,-6.152511 -3.96272,-0.921291 c -5.6009,-1.302153 -6.87246,-1.21722 -6.24108,0.416996 1.29205,3.344092 1.94877,9.640349 2.04493,19.605114 0.0574,5.93621 0.25327,10.018822 0.43554,9.072462 0.18234,-0.94636 0.69199,-1.720655 1.13267,-1.720655 0.52274,0 0.66465,2.024541 0.40825,5.825109 -0.21604,3.203811 -0.10969,6.812558 0.23635,8.019398 0.38213,1.33241 0.33108,2.37862 -0.13,2.66355 -1.22638,0.75795 -1.61763,-0.14601 -2.25765,-5.21599 -0.4792,-3.796035 -0.53082,-3.206878 -0.24834,2.83506 0.265,5.66858 0.95601,9.49754 2.69127,14.91234 1.28408,4.007 2.44507,9.35025 2.57995,11.87388 0.13479,2.52363 0.28028,5.19064 0.32308,5.9267 0.0949,1.63106 0.53417,1.64905 4.66625,0.19118 z m 11.27985,-4.56511 c -1.55289,-2.13562 -1.65843,-2.69987 -0.50494,-2.69987 1.07854,0 3.72304,3.25681 3.25691,4.01103 -0.60015,0.97107 -1.35344,0.61217 -2.75197,-1.31116 z m -14.18584,-0.55862 c -1.06026,-1.06025 -1.25441,-9.49027 -0.23301,-10.12146 1.0567,-0.65308 1.57466,1.48505 1.08731,4.4883 -0.27485,1.69358 -0.0703,3.1602 0.54382,3.9002 1.24561,1.50089 -0.0385,3.09254 -1.39805,1.73296 z m 10.47587,-1.85644 c -0.0425,-0.36695 -0.0215,-1.73325 0.0485,-3.03619 0.0844,-1.58608 -0.55329,-3.17633 -1.92952,-4.8119 -2.11223,-2.51025 -2.09342,-3.68768 0.0459,-2.86678 1.28722,0.49394 4.16183,6.14254 4.19006,8.23338 0.0167,1.29596 -2.21891,3.65259 -2.35491,2.48149 z m -4.50695,-24.36351 c -0.39759,-1.04573 -1.42147,-3.34722 -2.27528,-5.11441 -1.75327,-3.628838 -1.8948,-4.455254 -0.76296,-4.455254 0.78861,0 5.32846,9.064264 5.32846,10.638784 0,1.56582 -1.56644,0.83457 -2.29022,-1.06912 z m -9.40266,-29.959707 c -0.83165,-1.349639 -0.8805,-6.645527 -0.0638,-6.917748 1.06789,-0.355961 2.12998,5.886263 1.1656,6.850618 -0.38901,0.389012 -0.88479,0.419219 -1.10176,0.06715 z m 50.71978,59.561917 c 2.50889,-0.24106 4.59563,0.11089 7.02159,1.18388 l 3.45177,1.52689 0.40175,-10.42621 c 0.22106,-5.73441 0.81268,-11.4586 1.31494,-12.72041 0.50227,-1.26182 1.40042,-4.81867 1.99591,-7.90409 0.93869,-4.86372 0.93394,-6.89804 -0.0356,-15.294715 -0.83407,-7.222543 -0.93647,-11.531898 -0.40276,-16.949809 1.12902,-11.460969 1.1235,-11.506089 -1.34591,-11.012213 -1.49357,0.298701 -2.94397,-0.150079 -5.00474,-1.548589 -1.59609,-1.083057 -3.05865,-1.96917 -3.25026,-1.96917 -0.19167,0 -0.34841,4.271692 -0.34841,9.492684 0,8.846363 -0.20529,10.174804 -3.01366,19.511147 -3.50186,11.641575 -3.95535,14.210485 -4.1376,23.439075 -0.10611,5.37511 -0.51392,7.62171 -1.92051,10.58061 -1.48232,3.11823 -3.08451,10.22437 -3.14861,13.96495 -0.01,0.61851 0.74086,0.52005 2.41848,-0.31684 1.33859,-0.6678 4.04024,-1.36854 6.00362,-1.55719 z m -5.37855,-4.97099 c 0,-2.11299 2.12255,-5.33731 3.11126,-4.72623 0.40029,0.24736 0.71242,-1.08732 0.71242,-3.04616 0,-1.91755 0.34413,-3.48643 0.76473,-3.48643 0.42061,0 0.76474,1.31073 0.76474,2.91276 0,1.60205 0.50525,3.5808 1.12277,4.39723 0.61753,0.81645 1.13373,1.74257 1.14711,2.05802 0.0461,1.08834 -2.31904,0.57054 -2.77073,-0.60658 -0.40077,-1.04441 -0.61789,-1.03077 -1.88785,0.11853 -0.78923,0.71427 -1.43498,1.93357 -1.43498,2.7096 0,0.77602 -0.34413,1.41094 -0.76473,1.41094 -0.42061,0 -0.76474,-0.78373 -0.76474,-1.74168 z m 12.61814,-9.72935 c -0.25994,-0.4206 -1.31265,-0.76473 -2.33935,-0.76473 -2.1638,0 -2.50989,-1.18291 -0.49988,-1.70854 1.96803,-0.51465 4.75106,0.69569 4.75106,2.06626 0,1.31874 -1.19155,1.57242 -1.91183,0.40701 z m -7.26499,-14.79823 c 0,-0.56815 0.33928,-2.0307 0.75396,-3.25012 0.41468,-1.21944 0.84988,-3.566682 0.96712,-5.216097 0.12236,-1.723068 0.66501,-3.149563 1.27525,-3.352982 0.8577,-0.285892 0.96789,0.447657 0.57252,3.811632 -0.57307,4.875837 -1.89929,9.040557 -2.87894,9.040557 -0.37945,0 -0.68991,-0.46486 -0.68991,-1.03299 z m 9.6939,-26.688666 c -0.2275,-0.94636 -0.65329,-4.559734 -0.94638,-8.029721 -0.46785,-5.538572 -0.38077,-6.309067 0.71293,-6.309067 0.9605,0 1.24584,0.762442 1.24584,3.329108 0,1.83104 0.22106,5.444414 0.49132,8.029722 0.31813,3.043861 0.2127,4.700613 -0.29946,4.700613 -0.43495,0 -0.97683,-0.774295 -1.20425,-1.720655 z M 265.13997,60.7783 c 0.61927,-0.989734 1.26392,-4.806887 1.51752,-8.98564 0.2425,-3.995742 0.9704,-8.95431 1.61759,-11.019024 0.64715,-2.064714 1.17666,-4.399714 1.17666,-5.188873 0,-1.22458 -0.23731,-1.307793 -1.61997,-0.567863 -1.27766,0.683792 -2.24237,0.586313 -4.56547,-0.461255 -2.56951,-1.158694 -3.39029,-1.203742 -6.42947,-0.352806 -1.91616,0.536486 -3.72349,1.358385 -4.01627,1.826451 -0.29279,0.468065 -0.42703,3.189759 -0.29829,6.04822 0.14745,3.27204 -0.10898,5.610624 -0.69213,6.313225 -0.97102,1.170021 -0.60287,5.496941 0.85177,10.010457 0.60235,1.86899 1.18309,2.378471 2.61515,2.294206 1.16207,-0.06835 1.57328,-0.376178 1.11515,-0.83478 -1.12471,-1.125929 -0.8689,-5.055379 0.85985,-13.208413 2.04041,-9.622904 2.10986,-9.823671 3.0669,-8.866653 0.52834,0.528361 0.16299,3.457751 -1.13666,9.113519 -1.0534,4.584182 -1.78553,9.02316 -1.62695,9.864369 0.15869,0.841209 0.31467,2.081896 0.34686,2.75711 0.0327,0.685131 1.15685,1.580015 2.54389,2.024971 3.51788,1.128487 3.48423,1.134007 4.67387,-0.767221 z m 61.37259,-1.105377 c 2.35783,-2.574123 2.58854,-3.247496 2.58854,-7.55494 0,-4.38222 1.52708,-9.31646 4.6715,-15.094322 0.88306,-1.622601 0.21365,-4.325511 -1.09053,-4.403418 -4.42694,-0.264407 -13.3471,0.315597 -14.52173,0.944233 -1.20185,0.643214 -1.38214,1.316803 -0.99705,3.725002 0.25856,1.616913 0.14028,3.143684 -0.2629,3.392844 -0.40316,0.24916 -0.56191,0.898851 -0.3528,1.443749 0.5501,1.433592 -1.04905,5.271392 -2.75331,6.607648 -1.24963,0.979769 -1.39562,1.788501 -1.00085,5.544331 0.37395,3.557668 0.72566,4.397228 1.84203,4.397228 0.75893,0 2.3454,0.849454 3.52553,1.887654 3.05471,2.687423 5.2933,2.44885 8.35157,-0.890009 z m -9.10842,-4.630138 c -0.57884,-1.049886 2.67793,-16.325498 3.42733,-16.075693 0.98347,0.327809 1.0116,-0.08317 -0.60307,8.810707 -1.30098,7.165977 -1.95349,8.844452 -2.82426,7.264986 z m 5.32466,-17.485913 c -1.19144,-0.645723 -2.64298,-0.991097 -3.22563,-0.767507 -1.50565,0.577757 -2.06486,-0.709722 -0.7737,-1.781308 0.84503,-0.70131 1.72192,-0.570444 3.9966,0.596542 2.90547,1.490612 2.92215,1.490349 5.65991,-0.08532 2.71727,-1.56386 5.30353,-1.431346 5.30353,0.271744 0,0.481281 -0.54332,0.662046 -1.21504,0.404306 -0.67424,-0.258744 -2.08164,0.215321 -3.16207,1.065276 -2.30725,1.814884 -3.66853,1.876135 -6.5836,0.296263 z m -8.182,6.251067 c -0.0143,-0.445363 -0.52958,-0.141715 -1.1471,0.674711 -0.61753,0.816451 -1.11183,1.848844 -1.09845,2.294206 0.0143,0.445363 0.52958,0.141715 1.1471,-0.674711 0.61753,-0.816427 1.11183,-1.84882 1.09845,-2.294206 z M 255.79106,32.071832 c -0.55171,-0.184014 -1.3667,0.02916 -1.81111,0.47361 -0.56748,0.567482 -0.2689,0.667017 1.00312,0.334381 1.03409,-0.27043 1.38073,-0.61707 0.80799,-0.807991 z m 12.13121,0.2201 c 0.83349,-1.004288 0.20266,-1.135178 -5.06833,-1.051367 -5.02572,0.07982 -5.48573,0.182819 -2.7844,0.623068 1.77975,0.29005 3.47173,0.763158 3.75994,1.051391 0.90561,0.905614 3.10153,0.571306 4.09279,-0.623092 z M 31.911201,370.47863 c -0.791597,-0.4207 -2.127518,-1.3786 -2.968727,-2.12869 -0.841208,-0.75008 -2.561863,-1.47737 -3.823676,-1.61619 -1.870017,-0.20576 -2.294206,-0.60594 -2.294206,-2.16428 0,-1.62833 0.396921,-1.94825 2.676574,-2.15755 1.472115,-0.13503 3.003498,-0.56529 3.403072,-0.95592 0.399574,-0.39062 1.345934,-0.7102 2.103022,-0.7102 1.292642,0 1.377647,-1.31669 1.394686,-21.60378 0.01673,-21.46758 0.03059,-21.63271 1.979422,-26.19218 1.078707,-2.52363 2.261418,-6.03386 2.628228,-7.80052 1.008974,-4.85941 4.578161,-11.35508 10.867607,-19.77823 3.120766,-4.17949 6.076946,-8.35743 6.56934,-9.28432 0.49237,-0.92688 2.583443,-3.61447 4.646795,-5.97239 3.545886,-4.05209 3.861626,-4.77732 5.758314,-13.2271 3.373964,-15.03102 7.257195,-27.45049 8.13762,-26.02595 0.632843,1.02398 2.514885,-6.66035 1.975508,-8.06598 -0.220579,-0.57474 -0.07241,-1.37351 0.328979,-1.77502 0.889722,-0.88972 1.273882,-26.67794 0.51591,-34.6342 -0.300517,-3.15453 -0.300517,-5.0034 0,-4.10861 0.528599,1.57385 0.721002,1.52075 5.899551,-1.62855 6.678386,-4.06144 11.439819,-8.56315 12.171073,-11.50726 0.614991,-2.47595 3.382712,-5.86411 4.318055,-5.28604 1.131641,0.6994 -4.815061,11.0731 -7.609643,13.27459 -4.717843,3.71659 -13.132633,8.55229 -13.975586,8.03132 -0.497508,-0.30747 -0.643836,0.0495 -0.384399,0.93761 0.230376,0.78873 0.651029,3.4128 0.934769,5.83128 0.485918,4.14149 0.636141,4.39722 2.583205,4.39722 3.242573,0 10.107483,-2.23611 13.083116,-4.26153 1.489657,-1.01399 4.672868,-2.23812 7.073802,-2.72028 6.734738,-1.35254 11.602968,-0.0657 18.757788,4.95804 3.23014,2.26806 7.65314,5.0201 9.82883,6.11566 l 3.95581,1.99192 0.54846,-5.12132 c 0.30164,-2.81671 1.71413,-8.57325 3.13888,-12.79227 3.81101,-11.28539 4.69827,-15.82756 5.60821,-28.71022 0.45165,-6.39415 1.32447,-14.25589 1.93961,-17.47055 1.65412,-8.64438 1.5021,-14.03196 -0.43,-15.23857 -1.45058,-0.90593 -1.51112,-0.8328 -0.95592,1.15432 1.03985,3.72163 0.72289,11.88463 -0.47715,12.28868 -0.84496,0.28448 -0.9704,-0.26417 -0.59658,-2.60926 0.26249,-1.64652 -4.1e-4,-5.00478 -0.59009,-7.53785 -0.58493,-2.51259 -0.9271,-4.78899 -0.76041,-5.05868 0.16657,-0.26971 -1.89562,-2.60163 -4.58285,-5.18204 -4.58984,-4.4074 -5.10697,-4.69169 -8.53432,-4.69169 -4.03367,0 -9.10552,2.0995 -11.56263,4.78635 -2.03427,2.22452 -7.66774,18.78654 -8.33091,24.49235 -0.31369,2.69887 -0.8448,4.31963 -1.36166,4.15521 -1.11685,-0.35526 -6.910867,-17.86739 -8.092646,-24.45963 -0.693758,-3.86982 -1.328345,-5.38787 -2.518584,-6.02487 -0.87512,-0.46835 -5.230647,-0.93004 -9.678897,-1.02594 -5.05275,-0.10897 -6.939854,0.0306 -5.028804,0.37202 l 3.058941,0.54641 -3.058941,0.17445 c -12.078952,0.68919 -12.735979,0.84618 -14.084112,3.36519 -0.727693,1.35973 -0.755965,3.13518 -0.122358,7.69004 0.453034,3.25718 0.784977,7.01568 0.737683,8.3522 -0.04732,1.33654 -0.560623,-1.18331 -1.140698,-5.59968 -1.145693,-8.72255 -0.87806,-11.87514 1.097658,-12.9295 0.701884,-0.37455 3.250986,-0.92705 5.664705,-1.22776 2.413725,-0.30073 4.243115,-0.78213 4.065314,-1.06979 -0.177801,-0.28768 -0.0072,-1.02281 0.379333,-1.63364 0.461255,-0.72915 0.706568,-0.78935 0.714263,-0.17541 0.0096,0.69242 2.298125,0.89101 8.816371,0.76473 l 8.804661,-0.17063 -0.46245,-3.44131 c -0.851772,-6.3386 -1.796578,-8.799215 -5.276076,-13.740553 -3.589286,-5.097224 -4.382436,-7.425413 -2.250999,-6.607504 0.970569,0.37245 1.128678,0.05066 0.805195,-1.638828 C 87.706943,85.239699 87.297332,82.400954 87.018156,80.087629 86.73898,77.774305 85.355287,72.504657 83.943298,68.377308 79.498752,55.385602 78.024032,48.994493 78.514753,44.851229 c 0.406242,-3.430101 0.306539,-3.765103 -1.120648,-3.765103 -0.861642,0 -2.508906,-0.670983 -3.660645,-1.49109 -2.157729,-1.536449 -5.407042,-1.389549 -5.407042,0.244428 0,0.478055 0.759979,3.276987 1.688846,6.219879 1.537333,4.870743 1.69169,6.962772 1.720655,23.321991 l 0.03178,17.971281 2.485395,5.87355 c 2.01577,4.763704 2.48539,6.895065 2.48539,11.279855 v 5.40629 l -2.48539,-0.10419 c -1.430944,-0.06 -1.836517,-0.23373 -0.955924,-0.40985 1.414598,-0.28276 1.498957,-0.7488 1.123018,-6.20492 -0.299537,-4.347671 -0.98668,-7.09558 -2.612579,-10.447917 l -2.206118,-4.54867 -0.07504,-18.39339 C 69.45261,51.682538 69.415807,51.278901 67.049214,42.561372 63.83202,30.710627 63.23806,25.741472 64.758402,23.39634 c 0.755821,-1.165863 1.247235,-4.048581 1.379415,-8.092072 0.112798,-3.454573 0.344059,-6.1423309 0.513639,-5.9727508 0.169676,0.1694367 1.010287,-0.3456843 1.868273,-1.1450239 3.323348,-3.0961745 15.123602,-2.9671015 17.555078,0.1921398 1.671138,2.1712269 1.712888,4.4276029 0.149362,8.0693929 -0.67139,1.563764 -1.507174,6.456565 -1.857303,10.872912 -0.403995,5.096124 -1.136062,9.007602 -2.003774,10.706294 -0.756419,1.480815 -1.488581,4.89727 -1.638875,7.647354 -0.237307,4.343577 0.254656,6.611185 3.899433,17.971281 2.906185,9.057956 4.46333,15.43463 5.134696,21.026996 0.738376,6.15036 1.41574,8.742239 2.897869,11.088662 2.516816,3.984439 3.965535,8.902695 3.965535,13.462505 0,2.01137 0.309551,3.84834 0.68788,4.08215 0.378352,0.23373 1.093977,2.23289 1.590315,4.44238 0.496313,2.20946 1.970695,7.9747 3.276415,12.81165 l 2.374,8.79448 0.88339,-3.4413 c 1.31238,-5.11243 6.57608,-19.32848 7.64518,-20.64788 0.5112,-0.63091 1.12748,-3.55602 1.36947,-6.50025 0.24199,-2.94423 1.17361,-7.41794 2.07024,-9.941567 1.03874,-2.923583 1.85818,-7.779318 2.25845,-13.382869 0.61384,-8.593618 1.40345,-11.823214 5.60905,-22.94206 2.71942,-7.189684 3.10222,-12.592467 1.7255,-24.353093 -1.64026,-14.011601 -1.57258,-15.784496 0.71716,-18.786465 1.1345,-1.487434 1.91183,-3.518811 1.91183,-4.996232 0,-1.811753 0.70798,-3.197669 2.6001,-5.0897918 2.57081,-2.5708012 2.67741,-2.6001002 9.46556,-2.6001002 5.1471,0 7.10196,0.2850073 7.81046,1.138691 0.51978,0.6262704 1.18955,0.9875601 1.48842,0.8028526 0.29886,-0.1847314 0.41639,1.6257554 0.26115,4.0232734 -0.42844,6.617255 -0.48725,6.936771 -1.24989,6.78987 -1.45044,-0.279343 -3.58811,4.790852 -4.25326,10.088055 -0.37936,3.021182 -1.39328,6.666891 -2.26515,8.144598 -1.32285,2.242037 -1.72171,4.933714 -2.46345,16.624534 -0.48678,7.672136 -0.69983,17.326633 -0.47344,21.454436 0.32659,5.955639 0.10228,8.718604 -1.08707,13.382868 -0.86886,3.407637 -1.68259,9.895007 -1.93631,15.43695 l -0.43765,9.55919 3.78145,3.44131 c 2.07977,1.89272 4.53096,4.04017 5.44707,4.77212 2.04232,1.63173 2.20074,5.88426 0.53448,14.34629 -0.62116,3.15453 -1.4878,10.89748 -1.92585,17.20655 -0.94461,13.60488 -2.29079,21.02076 -5.4305,29.91623 -1.27506,3.61254 -2.80371,9.37142 -3.39703,12.79753 -0.59329,3.42611 -1.60288,8.81028 -2.24354,11.96481 -1.84251,9.07242 -1.54651,18.86411 0.77969,25.79377 1.07047,3.18887 2.44431,9.61597 3.05295,14.28246 2.00645,15.38322 2.74033,16.99813 10.47496,23.05005 3.05531,2.39061 6.16819,5.2533 6.91751,6.36152 3.97722,5.88225 10.12612,16.46698 12.49893,21.51571 1.48258,3.15454 3.55779,6.64345 4.61159,7.75318 2.38961,2.51634 3.23275,5.93728 3.74348,15.18888 0.22058,3.99575 0.7324,9.78484 1.13737,12.86467 0.40496,3.0798 0.7363,9.6675 0.7363,14.63933 0,9.6424 0.0167,9.68728 4.15961,10.48258 0.81566,0.15654 1.63247,0.43421 1.81513,0.61686 0.67411,0.67414 -0.67168,2.84857 -1.97376,3.18906 -0.73945,0.19334 -1.89753,1.31525 -2.5735,2.49307 -1.19725,2.08607 -1.4047,2.14264 -8.01969,2.18678 -5.08986,0.0339 -7.62905,-0.32136 -10.138,-1.41856 -1.841,-0.80515 -4.98208,-1.46387 -6.98012,-1.46387 -7.16806,0 -6.10386,-4.59582 1.32402,-5.71795 1.77777,-0.26857 3.4327,-0.81256 3.67763,-1.20886 0.24493,-0.3963 1.45742,-0.72054 2.69441,-0.72054 2.1907,0 2.24906,-0.0999 2.24906,-3.84476 0,-2.36865 -1.0155,-6.84608 -2.64503,-11.66221 -1.86454,-5.51069 -2.78636,-9.84838 -3.12399,-14.70008 -0.66979,-9.62451 -1.22654,-10.98213 -6.04789,-14.74763 -3.83718,-2.99688 -8.85331,-10.05412 -13.43764,-18.90546 -0.80481,-1.55394 -3.18027,-3.32091 -7.67787,-5.71111 -3.58188,-1.90352 -8.3869,-4.75147 -10.67781,-6.32874 -2.29091,-1.57726 -4.57242,-2.86776 -5.06998,-2.86776 -1.37423,0 -3.54027,7.40487 -3.54027,12.10278 0,3.22876 0.3411,4.44536 1.51422,5.40044 2.12267,1.72816 4.30623,6.79388 3.60361,8.36013 -0.31699,0.70662 -0.79241,4.20987 -1.05649,7.78501 -0.60459,8.18508 -1.75934,10.60559 -6.13707,12.86397 -2.93381,1.51351 -4.29963,1.73043 -9.261423,1.47092 -11.237643,-0.58772 -14.255552,-4.57914 -14.565484,-19.2639 -0.1876,-8.88749 -0.157966,-9.06522 1.779467,-10.65787 2.477241,-2.03647 4.01541,-8.12967 3.283821,-13.00827 -0.495978,-3.30741 -0.642664,-3.48421 -2.543581,-3.06573 -5.310346,1.16907 -6.998428,2.13249 -10.02451,5.72125 -2.107825,2.49977 -4.033314,3.99094 -5.543284,4.29294 -1.822245,0.36444 -2.633653,1.18615 -3.820355,3.86889 -2.481781,5.61048 -7.515293,12.33224 -12.814575,17.11255 l -4.992336,4.50346 -1.34395,10.12548 c -0.739165,5.56901 -1.696351,12.19026 -2.12704,14.71389 -0.430713,2.52362 -0.981633,7.68559 -1.224246,11.47103 l -0.441133,6.88261 3.332932,0.90356 c 1.833095,0.49696 4.193235,1.08425 5.244746,1.3051 5.1883,1.0896 6.153061,5.05633 1.229791,5.05633 -1.661006,0 -3.444512,0.67268 -4.803614,1.81175 -1.946323,1.63128 -2.894428,1.81135 -9.516892,1.80758 -4.045356,-0.002 -8.002861,-0.34841 -8.794458,-0.76911 z m 18.129176,-3.30461 c 0.950614,-1.01189 2.442708,-1.87939 3.315749,-1.92776 2.244379,-0.12426 -4.078716,-1.51207 -6.647462,-1.45892 -4.199305,0.087 -4.712347,-6.95919 -1.695896,-23.29142 1.057485,-5.7256 2.140518,-13.4789 2.406741,-17.22961 l 0.484054,-6.81946 5.623864,-5.0533 c 7.222112,-6.48942 11.780461,-13.12137 15.093294,-21.95932 1.429458,-3.8135 3.203931,-4.99812 2.577398,-1.72066 -0.422517,2.21033 -0.478103,2.18217 2.040911,1.03443 2.897324,-1.32011 3.825785,-5.16034 3.855466,-15.94677 0.02557,-9.26049 -0.05282,-9.72648 -2.507185,-14.91234 -1.393424,-2.94423 -3.273,-6.14116 -4.176822,-7.10429 l -1.643321,-1.75115 -2.008649,8.74948 c -1.822818,7.94001 -2.32709,9.12795 -5.450293,12.83983 -1.892887,2.24966 -4.540257,5.71654 -5.883013,7.70416 -1.34278,1.98765 -4.313131,6.1019 -6.600766,9.14284 -5.166265,6.86742 -8.394954,12.85705 -9.612699,17.83272 -0.514715,2.10303 -1.573276,5.10045 -2.352423,6.66097 -1.805133,3.61552 -1.78819,4.2363 0.06978,2.55488 0.817503,-0.73981 1.591797,-2.18038 1.720655,-3.20123 0.337989,-2.67738 1.786135,-2.17464 1.645543,0.57124 -0.143388,2.80082 -2.393311,5.48908 -4.198828,5.01692 -1.215499,-0.31786 -1.337068,1.06456 -1.559534,17.73305 -0.255613,19.15217 -0.06859,24.03314 0.897895,23.43581 0.768606,-0.47502 5.361082,1.11343 5.361082,1.85429 0,1.06382 -1.007634,1.56788 -1.841483,0.9212 -0.459295,-0.3562 -1.590816,-0.83234 -2.514498,-1.05808 -1.464755,-0.35797 -1.709112,-0.0619 -1.911839,2.31583 -0.223446,2.61998 -2.14427,4.58062 -2.14427,2.1886 0,-0.64113 -0.340187,-1.37595 -0.755988,-1.6329 -0.448589,-0.27726 -0.551829,0.0648 -0.253893,0.84114 0.446439,1.16342 0.08532,1.25311 -3.258895,0.80964 -2.564492,-0.34009 -3.396022,-0.26085 -2.613842,0.24909 0.630907,0.41133 1.613616,0.75314 2.183798,0.75957 0.570206,0.007 2.059169,0.87204 3.308818,1.92355 2.513183,2.11471 4.459841,2.62075 2.913331,0.75735 -0.829857,-0.99992 -0.560838,-1.12791 2.00939,-0.95592 1.632138,0.10921 3.189784,0.50501 3.461432,0.87956 0.609088,0.8398 5.926484,1.80504 7.661358,1.39072 0.699972,-0.16728 2.050447,-1.13185 3.001061,-2.14374 z m -11.908459,-25.5262 c -1.328657,-2.14981 4.353662,-20.66826 6.341998,-20.66826 0.570803,0 0.859945,0.43016 0.642497,0.95592 -1.806305,4.36769 -5.085275,15.56251 -5.085275,17.36174 0,2.33837 -1.08038,3.67553 -1.89922,2.3506 z m 17.193927,-41.23964 c 0,-0.37855 1.184169,-1.87243 2.631502,-3.31977 1.447334,-1.44731 2.852583,-3.63254 3.122821,-4.85607 0.794823,-3.59882 1.037746,-4.1364 1.869037,-4.1364 1.287336,0 0.90007,3.66638 -0.723416,6.84868 -1.830704,3.58845 -6.899944,7.60243 -6.899944,5.46356 z m 0.764735,-17.68279 c 0,-1.47013 6.151556,-6.01471 8.220906,-6.07338 1.952847,-0.0554 0.842188,1.34708 -3.058942,3.86261 -5.063767,3.26518 -5.161964,3.30724 -5.161964,2.21077 z m 15.679322,-6.09685 c -0.283956,-0.45946 -0.0564,-1.38933 0.505466,-2.06641 0.561985,-0.6771 1.193823,-3.15697 1.40413,-5.51085 0.425217,-4.75919 1.771558,-5.75561 2.166257,-1.6032 0.454348,4.78041 -2.576327,11.60675 -4.075853,9.18046 z m 105.121958,88.75595 c 0.43542,-0.81356 0.79165,-2.08684 0.79165,-2.82952 0,-1.05027 -0.20385,-1.14641 -0.91769,-0.43265 -0.50472,0.50473 -1.19298,0.91768 -1.52947,0.91768 -0.33648,0 -0.64582,-5.76419 -0.68742,-12.80931 -0.0645,-10.93732 -1.01787,-24.74694 -1.34615,-19.50076 -0.17255,2.75645 -1.39935,1.98528 -1.90866,-1.1997 -0.25683,-1.6062 -1.33322,-4.54953 -2.39195,-6.54071 -2.24579,-4.2238 -2.26161,-4.30417 -0.84625,-4.30417 0.59329,0 1.96981,1.78822 3.05894,3.97383 l 1.98023,3.97383 v -4.44983 c 0,-3.81491 -0.1594,-4.3176 -1.11673,-3.52304 -0.91885,0.76261 -1.39258,0.47433 -2.6737,-1.62702 -0.85634,-1.40458 -1.60989,-3.32811 -1.67456,-4.27447 -0.0648,-0.94636 -0.15199,-2.12214 -0.19405,-2.61283 -0.0421,-0.49073 0.35369,-1.0356 0.87945,-1.21084 0.60337,-0.20122 0.95592,0.42395 0.95592,1.69491 0,2.4306 2.39281,7.3467 2.87724,5.91141 0.63554,-1.8829 -0.61432,-6.05929 -2.2449,-7.50134 -0.89759,-0.79379 -2.9282,-4.2292 -4.51249,-7.63426 -1.58429,-3.40503 -4.40053,-8.56699 -6.25828,-11.47103 -1.85776,-2.90401 -3.62437,-5.95865 -3.9258,-6.78807 -0.40999,-1.1282 -0.70183,-1.25917 -1.15869,-0.51998 -0.47053,0.76134 -1.27484,0.53737 -3.50507,-0.97611 -3.77196,-2.55971 -8.33141,-3.80205 -10.22822,-2.78691 -1.75188,0.93759 -2.69695,0.19023 -1.53293,-1.21242 1.39497,-1.68084 6.25539,-1.18335 10.7912,1.10457 3.96164,1.99828 4.1571,2.02812 3.14264,0.47987 -0.59497,-0.90803 -3.63202,-3.50153 -6.74903,-5.76333 -4.71813,-3.42363 -5.98069,-4.81681 -7.53845,-8.31841 -1.02915,-2.31333 -2.10592,-5.54412 -2.39286,-7.17955 l -0.52169,-2.97351 -3.34137,3.27931 c -5.14452,5.04897 -8.05771,11.1567 -8.57335,17.97481 -0.30664,4.05461 -0.14769,6.02621 0.55362,6.87139 1.34751,1.62363 10.47728,5.77385 11.68336,5.31104 0.60696,-0.23301 2.10006,1.72928 3.94637,5.18629 5.19198,9.72132 9.25624,15.41415 13.25152,18.56144 2.13572,1.68242 4.28467,3.91707 4.77547,4.96586 0.49079,1.04881 1.17879,5.52251 1.52889,9.94156 0.46095,5.8182 1.28175,9.82783 2.9754,14.53489 l 2.33882,6.50025 0.0143,-4.01486 c 0.012,-2.90573 0.30802,-4.01486 1.07546,-4.01486 0.8126,0 1.14093,1.8315 1.40515,7.83854 0.18975,4.3112 0.48675,8.31172 0.66028,8.89005 0.1735,0.57833 -0.10635,1.20649 -0.62216,1.39593 -0.60056,0.22058 -1.14988,-0.84477 -1.52797,-2.96335 l -0.5903,-3.30777 -0.38385,4.20605 c -0.33221,3.64035 -0.61525,4.2389 -2.1045,4.45042 -0.94636,0.13431 -1.72066,0.56457 -1.72066,0.95592 0,0.39135 -1.37652,0.71154 -3.05894,0.71154 -1.68242,0 -3.05894,0.26025 -3.05894,0.57833 0,0.31806 1.97875,1.32199 4.39723,2.23092 6.11322,2.29753 16.5894,2.47454 17.75318,0.29997 z m -13.55077,-0.23962 c 0.46744,-1.41582 9.754,-1.76466 9.754,-0.36641 0,0.76576 -1.35148,1.08397 -5.03511,1.18546 -3.73858,0.103 -4.95369,-0.10802 -4.71889,-0.81905 z m -13.16007,-62.22155 c -2.31084,-2.63188 -2.96651,-3.84714 -4.18344,-7.75358 -0.3989,-1.2805 -0.22942,-1.72065 0.66262,-1.72065 0.65925,0 1.19863,0.43525 1.19863,0.96724 0,1.67826 3.13861,6.90504 5.04852,8.40736 1.00875,0.79348 1.83409,1.76185 1.83409,2.15194 0,1.57423 -2.2753,0.55028 -4.56042,-2.05231 z m -16.51241,-16.57451 c -0.40839,-1.06428 -0.62075,-3.95218 -0.44789,-6.09141 0.21795,-2.69772 1.63761,-1.24525 1.63761,1.67551 0,1.65761 0.34974,3.22998 0.77721,3.49417 0.88307,0.54576 0.27932,1.90412 -0.84635,1.90412 -0.40897,0 -0.91324,-0.44206 -1.12058,-0.98239 z m -3.34318,-12.50362 c -2.01981,-2.56777 -2.29452,-9.45605 -0.37711,-9.45605 0.93462,0 1.0978,0.50107 0.72136,2.21499 -0.53804,2.44968 1.28222,7.72657 2.66529,7.72657 0.4669,0 0.63621,0.34413 0.37625,0.76474 -0.76538,1.23841 -1.69955,0.89347 -3.38579,-1.25025 z m -26.48847,44.84499 c 5.05279,1.07706 5.89278,0.16705 6.49451,-7.03609 0.25669,-3.07278 0.7342,-6.00991 1.06112,-6.52699 0.32692,-0.51706 0.23205,-1.61711 -0.21078,-2.44455 -0.63516,-1.18685 -0.52155,-1.67855 0.53821,-2.32905 1.23746,-0.75962 1.22498,-0.80804 -0.15845,-0.61439 -0.86711,0.1214 -1.57275,-0.27454 -1.66975,-0.93688 -0.93599,-6.39156 -1.11491,-6.77895 -3.88686,-8.41445 -1.54343,-0.91063 -4.26756,-1.71227 -6.053624,-1.7814 -2.737513,-0.10587 -3.66313,0.27731 -5.895536,2.44105 -1.621741,1.57185 -2.850312,3.64404 -3.169613,5.34613 -0.689767,3.67682 -1.07517,4.18527 -2.362482,3.11691 -0.683602,-0.56733 -1.079018,-0.60387 -1.079018,-0.0996 0,0.43769 -0.218428,1.42618 -0.485249,2.19665 -0.426459,1.23106 -0.336722,1.21548 0.740408,-0.12857 1.422694,-1.77533 1.342086,-1.93583 1.639521,3.26557 0.37245,6.51303 1.210002,11.14993 2.329025,12.89415 0.944663,1.47248 1.400207,1.56305 4.719994,0.93847 2.353832,-0.44285 5.030834,-0.40217 7.448504,0.11328 z m -0.92328,-7.70112 c -2.32099,-0.90705 -2.7985,-2.44262 -1.88215,-6.05274 0.54927,-2.16394 0.52049,-3.09754 -0.10253,-3.32815 -0.63535,-0.23516 -0.6251,-0.57676 0.0385,-1.28242 1.45121,-1.54321 3.57328,-0.29203 2.94419,1.73591 -1.49155,4.80832 -1.50703,4.77029 1.94221,4.77029 2.72936,0 3.26152,0.25693 3.48416,1.68214 0.14458,0.92516 0.01,1.82394 -0.30009,1.99727 -1.51336,0.84737 -4.56841,1.08568 -6.12417,0.4777 z m -11.900164,-0.46088 c -0.882529,-0.88252 -0.563562,-2.6726 0.373071,-2.09372 0.547001,0.33806 0.675285,0.20982 0.337224,-0.33725 -0.30011,-0.48558 -0.359091,-1.18474 -0.13096,-1.55368 0.541528,-0.87624 5.096459,0.0586 5.131756,1.05316 0.01434,0.4206 0.339017,1.14053 0.720214,1.59983 0.381196,0.45932 0.466631,1.06154 0.189988,1.33828 -0.657672,0.65768 -5.962091,0.65237 -6.621078,-0.007 z m 5.958961,-9.48262 c -0.703796,-1.13881 0.112081,-1.75796 1.576406,-1.19609 0.675716,0.25929 1.014374,0.818 0.752595,1.24157 -0.619865,1.00297 -1.69396,0.98201 -2.329001,-0.0454 z m -1.880389,-4.55722 c 0,-1.64485 2.435491,-3.26801 4.802538,-3.20068 2.860424,0.0813 6.045094,1.64604 5.669154,2.78542 -0.37386,1.13315 -10.471692,1.53359 -10.471692,0.41526 z m 3.686192,-9.73585 c 2.74098,-0.26336 4.47963,0.0452 6.69918,1.18871 l 2.9975,1.54441 1.6762,-5.42819 c 0.92191,-2.9855 1.5452,-5.64019 1.38508,-5.89927 -0.16012,-0.2591 -2.19845,-1.43607 -4.5296,-2.61553 l -4.23845,-2.14446 -4.160135,2.76136 c -2.288088,1.51874 -4.703481,2.96982 -5.367534,3.22465 -0.929919,0.35684 -1.207374,1.61407 -1.207374,5.4708 0,4.95056 0.01673,4.99183 1.521728,3.63034 0.844554,-0.76431 3.168967,-1.53542 5.223405,-1.73282 z m -1.391986,-4.34692 c 0,-0.6061 0.379261,-1.33638 0.842763,-1.62284 0.463525,-0.28647 1.347392,-1.72859 1.964153,-3.2047 1.39576,-3.34051 3.04955,-2.37651 1.75669,1.02398 -1.45137,3.81737 -4.563606,6.41128 -4.563606,3.80356 z m -10.950341,-2.68269 c 2.17909,-0.51202 6.42729,-2.45091 9.440467,-4.30867 3.013177,-1.85773 6.29425,-3.37771 7.29127,-3.37771 0.997,0 5.52412,2.02893 10.06027,4.50873 l 8.2475,4.50874 0.45932,-5.84702 c 0.57847,-7.36417 3.09631,-12.56136 8.89444,-18.35948 l 4.22827,-4.22827 -0.4591,-5.39488 c -0.25248,-2.96717 -1.35918,-7.97585 -2.4593,-11.13039 -3.03611,-8.70596 -3.32284,-21.76953 -0.67313,-30.66787 0.26532,-0.89101 -0.94875,-1.87226 -4.44775,-3.59483 -2.64699,-1.30311 -6.35349,-3.55537 -8.23668,-5.00505 -6.02675,-4.63941 -9.03334,-5.85163 -14.51321,-5.85163 -3.62538,0 -5.724312,0.42404 -7.658686,1.54727 -6.867969,3.98802 -9.533048,4.8777 -14.518047,4.84656 -3.903448,-0.0244 -4.396057,0.0853 -2.294206,0.51058 l 2.676574,0.5416 -2.382198,0.10061 -2.382175,0.10061 -0.522434,10.51511 c -0.66054,13.29481 -1.288268,16.84387 -4.967271,28.08446 l -2.983663,9.1161 2.511797,3.09909 c 5.724909,7.06345 8.49079,15.90441 7.798967,24.92889 -0.243281,3.1737 -0.680758,6.39168 -0.97217,7.15108 -0.493326,1.28555 -0.377181,1.3034 1.684665,0.25896 1.21796,-0.61697 3.997367,-1.54068 6.17648,-2.05271 z m 14.631417,-27.60055 c -0.23014,-8.19437 0.16299,-10.90978 1.40019,-9.67258 1.00201,1.00201 0.76791,17.56585 -0.25308,17.90733 -0.65481,0.2189 -0.97409,-2.07294 -1.14711,-8.23475 z m -24.012473,-1.33176 c -2.137412,-1.41275 -3.682994,-11.37537 -1.654744,-10.66617 0.525755,0.18378 0.842906,0.95257 0.704799,1.70828 -0.13813,0.7557 0.320615,2.87112 1.019416,4.70092 1.340988,3.51131 1.313887,5.17136 -0.06954,4.25697 z m 48.626603,-3.99034 c 0,-0.4206 0.2581,-0.77238 0.57355,-0.78175 0.31546,-0.01 1.38871,-0.64388 2.38502,-1.41005 1.5734,-1.21001 1.69069,-1.61876 0.89247,-3.11023 -0.80634,-1.50667 -0.74715,-1.68459 0.48274,-1.45144 0.94371,0.17899 1.479,1.06178 1.63816,2.70183 0.19859,2.04765 -0.13048,2.62589 -2.06505,3.62623 -2.65841,1.37473 -3.90689,1.51066 -3.90689,0.42541 z m 1.0144,-18.13066 c 0.0769,-2.80373 -0.38949,-4.42402 -1.98635,-6.89923 -2.37018,-3.6739 -2.46835,-4.03006 -1.11076,-4.03006 0.53694,0 1.91347,1.44543 3.05894,3.21201 2.32585,3.58699 2.84405,8.96937 1.01012,10.49138 -0.89674,0.74426 -1.0561,0.2895 -0.97195,-2.7741 z m -49.95746,-3.7022 c 0,-2.0445 0.632508,-3.36575 2.562652,-5.35315 1.409455,-1.45128 2.785979,-2.63867 3.058941,-2.63867 1.132095,0 0.353117,1.873 -1.797916,4.32288 -1.261814,1.43713 -2.294206,3.46131 -2.294206,4.4982 0,1.03686 -0.344131,1.88521 -0.764736,1.88521 -0.420604,0 -0.764735,-1.22152 -0.764735,-2.71447 z m 2.298125,-8.56537 c 0.0072,-2.11586 6.535476,-11.66222 7.976429,-11.66222 1.167631,0 0.155815,2.53845 -2.287563,5.73953 -1.495607,1.95935 -3.035664,4.39465 -3.422381,5.41172 -0.814802,2.1431 -2.27222,2.47168 -2.266485,0.51097 z m 45.880205,-1.60318 c 0,-2.26399 -2.16624,-5.97561 -4.30582,-7.37752 -1.43711,-0.94162 -1.74623,-1.52378 -1.1341,-2.13588 1.7456,-1.7456 8.52216,7.00405 7.49591,9.67844 -0.64991,1.69356 -2.05599,1.58071 -2.05599,-0.16513 z m -20.64786,-13.48443 c -2.39923,-0.64938 -3.96331,-0.69732 -5.165187,-0.15821 -2.296094,1.02979 -3.263222,-0.0648 -1.333866,-1.50951 2.327543,-1.74295 12.671353,0.0901 11.470723,2.03279 -0.53749,0.86969 -0.36237,0.88252 -4.97167,-0.36502 z m 20.50949,-91.91034 c 2.37182,-0.2809 4.55471,-0.0292 6.38793,0.73687 3.38044,1.41244 3.31814,1.55535 3.6009,-8.25807 0.10897,-3.78544 0.73543,-8.760307 1.39196,-11.055278 0.85414,-2.985909 0.94765,-4.254652 0.32876,-4.460964 -0.5583,-0.186165 -0.86489,-2.738637 -0.86489,-7.20082 0,-5.443888 0.20313,-6.743747 0.95592,-6.118097 0.7497,0.623044 0.95592,-0.387793 0.95592,-4.685964 0,-3.014205 0.27215,-10.361925 0.60476,-16.328271 l 0.60474,-10.84789 -3.40422,-1.50586 c -7.17876,-3.175492 -6.59713,-3.815312 -6.61948,7.281858 -0.0215,10.313651 0.0239,10.114533 -5.3211,24.331871 -1.17023,3.113405 -1.92856,7.41552 -2.35901,13.382869 -0.42699,5.919219 -1.27217,10.739848 -2.58514,14.744791 -1.07293,3.272685 -1.95077,7.497135 -1.95077,9.387655 v 3.43732 l 2.33533,-1.20764 c 1.28442,-0.66422 3.95669,-1.39968 5.93839,-1.63438 z m -7.49728,-3.12397 c 0.0597,-2.9286 6.8423,-5.22049 9.83665,-3.3239 1.82836,1.15805 0.28283,2.42159 -1.80078,1.47224 -1.50073,-0.68377 -2.34853,-0.53768 -4.60483,0.79358 -3.02503,1.78482 -3.44853,1.91542 -3.43104,1.05808 z m 4.5767,-7.06035 c 0,-2.280966 1.36348,-4.601866 2.70349,-4.601866 1.44915,0 1.43173,1.083654 -0.037,2.302594 -0.63646,0.528217 -1.06662,1.481006 -0.95592,2.117313 0.11064,0.636332 -0.22895,1.307369 -0.75465,1.491189 -0.57188,0.20003 -0.95592,-0.32599 -0.95592,-1.30923 z m 9.14796,-5.019029 c -0.5395,-0.650049 -1.43094,-1.009212 -1.981,-0.798145 -0.55003,0.211019 -1.20498,0.05234 -1.45541,-0.352949 -0.73916,-1.195975 1.87862,-1.762237 3.89642,-0.842882 1.0247,0.466895 1.86307,1.372461 1.86307,2.012377 0,1.496874 -1.07257,1.488366 -2.32308,-0.01912 z m 2.21792,-44.625176 c -0.64806,-1.920585 0.2821,-9.321837 1.13413,-9.024021 0.56449,0.197398 0.79176,1.797224 0.63024,4.436589 -0.24058,3.931098 -1.17021,6.348187 -1.76437,4.587432 z M 80.888491,36.380494 c 0.785001,-1.57361 1.214758,-4.563367 1.236673,-8.603272 0.01912,-3.690064 0.512636,-7.427445 1.219323,-9.250526 C 86.302818,10.895138 85.183484,8.1781051 79.10532,8.2365835 L 75.591337,8.2702795 78.550671,9.8312 c 1.62762,0.858487 3.606373,1.391699 4.397229,1.184886 0.904012,-0.236351 1.437893,0.0239 1.437893,0.699494 0,1.498164 -4.551561,1.398581 -6.759448,-0.147929 -2.184323,-1.529949 -6.142239,-0.917658 -7.985753,1.23543 -0.722843,0.844196 -1.314246,2.651672 -1.314246,4.016606 0,1.364933 -0.339734,3.666309 -0.754961,5.114144 -0.415227,1.447835 -0.480134,2.822065 -0.144105,3.053875 0.745402,0.51438 0.785192,9.215921 0.04206,9.215921 -0.291102,0 -0.369893,0.609471 -0.175173,1.354347 0.277026,1.059421 0.978551,1.294816 3.221161,1.080953 1.948235,-0.185687 3.189692,0.115427 3.873915,0.93986 0.553812,0.667279 1.97199,1.213253 3.151475,1.213253 1.641911,0 2.426553,-0.565259 3.347677,-2.411689 z M 69.091081,30.75718 c 0,-4.249754 3.885884,-17.129379 5.035047,-16.688414 0.775155,0.297458 0.742653,1.100048 -0.159639,3.945151 -0.623073,1.964462 -1.709212,6.238735 -2.413677,9.498419 -1.353414,6.26237 -2.461683,7.72323 -2.461683,3.244844 z m 72.099799,5.167245 c 0.66645,-1.577266 1.54415,-5.317539 1.95049,-8.311717 0.56045,-4.12981 1.31133,-6.234338 3.11051,-8.718031 1.30442,-1.800713 2.36121,-4.168764 2.34843,-5.262312 -0.0191,-1.616746 -0.15844,-1.756932 -0.7466,-0.750277 -1.37812,2.358587 -4.99566,3.265469 -8.78917,2.203346 -3.24186,-0.907669 -3.50409,-0.862406 -4.97869,0.859204 l -1.55657,1.817323 0.20863,-2.294207 0.20863,-2.294206 5.73551,-0.03298 c 3.71088,-0.02151 6.46787,-0.449808 7.81019,-1.213683 3.35576,-1.909736 1.20951,-2.959335 -6.0513,-2.959335 -6.92104,0 -9.30656,1.200396 -9.49851,4.779596 -0.51945,9.686043 -1.43008,12.872456 -3.24767,11.363992 -0.73352,-0.608777 -0.81965,0.175411 -0.39355,3.58312 0.30002,2.399357 0.57453,4.964686 0.61002,5.700743 0.0416,0.861785 0.68145,1.338287 1.7971,1.338287 0.95294,0 2.93169,0.668522 4.39723,1.485594 4.13366,2.304578 5.68442,2.021268 7.08537,-1.29441 z m -11.35997,-5.353147 c 0.40411,-2.33684 4.6104,-13.428586 5.5633,-14.670158 0.13981,-0.182342 0.58371,-0.0023 0.98623,0.400483 0.46603,0.466034 0.35149,1.465161 -0.31534,2.750466 -1.90584,3.673502 -4.26572,10.590844 -4.26572,12.50383 0,1.221879 -0.43267,1.883136 -1.2322,1.883136 -1.00223,0 -1.13965,-0.535243 -0.73627,-2.867757 z m -1.11389,-9.750376 c 0,-0.420604 -0.33359,-0.248539 -0.74131,0.382368 -0.40773,0.630906 -0.74132,1.491234 -0.74132,1.911838 0,0.420605 0.33359,0.248539 0.74132,-0.382368 0.40772,-0.630906 0.74131,-1.491233 0.74131,-1.911838 z m -5.43736,163.420988 c -6.16496,-4.0396 -11.36339,-10.60308 -11.36339,-14.34735 0,-2.29212 1.4871,-0.94499 3.28002,2.97131 1.84346,4.02662 5.67711,7.80293 11.05876,10.89335 1.36697,0.78497 2.48539,1.86922 2.48539,2.40946 0,1.44182 -0.69297,1.19732 -5.46078,-1.92677 z m -48.988995,-6.57804 c 0.333282,-2.85466 -1.853819,-11.42837 -2.770736,-10.86168 -0.314402,0.19429 -0.620894,-0.22369 -0.681093,-0.92884 -0.06022,-0.70518 -0.629688,-3.08495 -1.265493,-5.28834 -1.226899,-4.25176 -3.155155,-21.64624 -2.583515,-23.30524 0.186404,-0.5411 0.593912,2.1134 0.90547,5.89884 0.874284,10.62239 2.358826,18.03293 4.589512,22.90965 2.074636,4.53567 3.586996,14.18001 2.223568,14.18001 -0.396969,0 -0.584927,-1.17198 -0.417713,-2.6044 z m 28.878655,-4.96607 c -0.64735,-1.04745 0.21986,-27.22499 0.902,-27.22499 0.31897,0 0.75203,3.26925 0.96233,7.26499 l 0.38237,7.26498 8.9528,0.21509 c 6.7042,0.16107 9.65674,-0.0789 11.75561,-0.95592 3.30717,-1.38183 4.14548,-1.45532 4.14548,-0.36337 0,0.44426 -1.60458,1.51752 -3.56574,2.38504 -3.22248,1.42547 -4.43726,1.52529 -12.61813,1.03701 l -9.05239,-0.54029 v 5.37511 c 0,4.95016 -0.78605,7.28692 -1.86433,5.54225 z M 74.480798,162.67934 c -0.0072,-0.63091 0.528384,-2.69569 1.191672,-4.58841 0.862885,-2.46231 1.063915,-4.71484 0.70664,-7.91793 -0.392047,-3.51501 -0.283884,-4.4055 0.503554,-4.14563 1.123157,0.37068 1.769646,7.82448 1.024984,11.81779 -0.503004,2.69736 -3.402474,6.7876 -3.42685,4.83418 z m 6.846054,0.20385 c 0,-0.41133 2.516935,-0.93826 5.593179,-1.17091 4.654203,-0.35199 8.007568,-1.30229 12.186918,-3.45364 0.315453,-0.16227 0.573551,0.2408 0.573551,0.89596 0,2.15538 -4.588579,3.78432 -11.662214,4.14002 -4.080054,0.20528 -6.691434,0.0447 -6.691434,-0.41143 z m 26.000998,-9.22359 c 0,-0.69345 5.02109,-4.54667 12.11872,-9.3 3.33804,-2.23554 5.1003,-3.00398 5.64338,-2.46089 0.54311,0.54308 -0.61436,1.68359 -3.7066,3.65225 -2.47296,1.57443 -6.28829,4.17964 -8.4785,5.78938 -3.8779,2.85017 -5.577,3.55674 -5.577,2.31926 z M 72.095081,143.09339 c -1.004551,-2.57298 -0.515837,-12.57242 0.777473,-15.90769 1.232782,-3.17917 2.55685,-1.55918 1.533323,1.87604 -0.433581,1.45515 -0.702959,5.47077 -0.598644,8.92358 0.206718,6.84029 -0.367317,8.55265 -1.712152,5.10807 z m 19.177274,-18.384 c -2.091432,-1.48394 -3.231485,-1.79151 -5.242285,-1.41428 -1.937314,0.36344 -2.484482,0.23468 -2.223683,-0.52356 0.22727,-0.6608 1.687364,-0.99497 4.257879,-0.97453 3.042165,0.0241 4.343314,0.4364 5.852233,1.85395 3.660621,3.43897 1.774831,4.19381 -2.644144,1.05842 z m 39.762295,-5.21471 c -5.02438,-1.55728 -5.94391,-1.64626 -7.41629,-0.71765 -2.16697,1.36668 -3.40703,-0.21054 -1.34884,-1.71554 1.88906,-1.38131 4.88847,-1.29986 8.48055,0.23037 1.62865,0.69376 3.92458,1.46806 5.10208,1.72066 1.99622,0.42823 2.9731,1.75595 1.54892,2.10524 -0.347,0.0851 -3.21189,-0.64524 -6.36642,-1.62298 z m -52.974556,-9.39099 c -0.552211,-1.06246 0.3551,-7.83854 1.049551,-7.83854 0.378257,0 0.687736,1.89272 0.687736,4.20604 0,3.6742 -0.822162,5.39328 -1.737287,3.6325 z m -10.307299,-1.48306 c 0.736057,-0.19238 1.940516,-0.19238 2.676573,0 0.736058,0.19237 0.133829,0.34972 -1.338287,0.34972 -1.472115,0 -2.074344,-0.15749 -1.338286,-0.34972 z m -6.491337,-0.77846 c 0.951283,-0.18282 2.327807,-0.17589 3.058941,0.0143 0.731159,0.19142 -0.04708,0.34107 -1.729568,0.33259 -1.682418,-0.01 -2.280632,-0.16513 -1.329373,-0.34803 z m 23.340994,-1.94453 c 0.888145,-2.23262 2.729198,-7.184642 3.174967,-8.539968 0.348384,-1.059326 0.713784,-1.23457 1.316874,-0.631481 0.598334,0.598334 0.602516,1.50065 0.01434,3.18682 -0.625004,1.792859 -0.597139,2.352139 0.1171,2.352139 1.413589,0 4.418497,2.30747 3.963551,3.0436 -0.219144,0.3546 -1.457179,0.24512 -2.751183,-0.24331 -2.007765,-0.7579 -2.495977,-0.69194 -3.33102,0.45005 -1.11692,1.52746 -3.079756,1.82693 -2.50501,0.38215 z m -6.720733,-8.227096 c -0.828113,-1.339912 0.426221,-5.314552 1.931411,-6.120105 1.828267,-0.978455 3.043623,0.666514 1.238728,1.676586 -0.689959,0.38612 -1.254477,1.524954 -1.254477,2.530748 0,2.017492 -1.144594,3.160365 -1.915662,1.912771 z m 5.340099,-17.39154 c -0.983425,-6.018945 -1.25591,-7.497011 -1.621215,-8.794456 -0.23181,-0.823429 0.0411,-1.338287 0.709746,-1.338287 0.750397,0 1.357836,1.642627 1.963387,5.309271 1.066638,6.458859 1.090154,7.69123 0.146733,7.69123 -0.401557,0 -0.940935,-1.290491 -1.198651,-2.867758 z M 331.3953,58.750509 c 0,-0.79413 1.4547,-1.943742 1.88558,-1.490135 0.1398,0.147212 -0.22703,0.711491 -0.81562,1.253832 -0.58846,0.542341 -1.06996,0.648687 -1.06996,0.236351 z M 74.455944,52.748531 c 0.0096,-4.621702 0.864509,-8.026088 1.768952,-7.051648 0.613796,0.661281 -0.442232,12.213612 -1.11649,12.213612 -0.365304,0 -0.658891,-2.322884 -0.652462,-5.161964 z M 336.4719,30.76239 c -0.24211,-0.630907 -0.10682,-1.147103 0.30055,-1.147103 0.40741,0 0.74074,0.516196 0.74074,1.147103 0,0.630907 -0.13527,1.147103 -0.30054,1.147103 -0.16538,0 -0.49863,-0.516196 -0.74075,-1.147103 z m 2.69149,-0.382368 c 0,-1.051511 0.1735,-1.481674 0.38574,-0.955919 0.21221,0.525756 0.21221,1.386083 0,1.911839 -0.21222,0.525755 -0.38574,0.09559 -0.38574,-0.95592 z m -11.97413,-1.52947 c -1.24683,-0.535769 -1.29049,-0.66716 -0.23635,-0.710965 0.71125,-0.02963 1.50586,0.29036 1.7658,0.710965 0.54346,0.87935 0.51689,0.87935 -1.52947,0 z m 4.20604,0.476 c 0,-0.158922 0.60223,-0.761008 1.33829,-1.338287 1.21292,-0.951235 1.23997,-0.924183 0.28874,0.288735 -0.99903,1.273858 -1.62703,1.678977 -1.62703,1.049552 z m -2.67114,-1.996701 c -0.26792,-0.433509 0.0389,-0.561698 0.71959,-0.300564 1.32483,0.508405 1.56723,1.056529 0.46723,1.056529 -0.3958,0 -0.92987,-0.340187 -1.18682,-0.755965 z"
     id="path817"
     inkscape:connector-curvature="0" />
</svg>
