<?xml version="1.0" encoding="UTF-8" standalone="no"?>
<svg
   xmlns:dc="http://purl.org/dc/elements/1.1/"
   xmlns:cc="http://creativecommons.org/ns#"
   xmlns:rdf="http://www.w3.org/1999/02/22-rdf-syntax-ns#"
   xmlns:svg="http://www.w3.org/2000/svg"
   xmlns="http://www.w3.org/2000/svg"
   xmlns:sodipodi="http://sodipodi.sourceforge.net/DTD/sodipodi-0.dtd"
   xmlns:inkscape="http://www.inkscape.org/namespaces/inkscape"
   id="svg"
   version="1.1"
   width="400"
   height="377.93103448275866"
   viewBox="0, 0, 400,377.93103448275866"
   sodipodi:docname="B4.svg"
   inkscape:version="0.92.5 (2060ec1f9f, 2020-04-08)">
  <metadata
     id="metadata11">
    <rdf:RDF>
      <cc:Work
         rdf:about="">
        <dc:format>image/svg+xml</dc:format>
        <dc:type
           rdf:resource="http://purl.org/dc/dcmitype/StillImage" />
      </cc:Work>
    </rdf:RDF>
  </metadata>
  <defs
     id="defs9" />
  <sodipodi:namedview
     pagecolor="#ffffff"
     bordercolor="#666666"
     borderopacity="1"
     objecttolerance="10"
     gridtolerance="10"
     guidetolerance="10"
     inkscape:pageopacity="0"
     inkscape:pageshadow="2"
     inkscape:window-width="1366"
     inkscape:window-height="693"
     id="namedview7"
     showgrid="false"
     inkscape:zoom="0.22077732"
     inkscape:cx="-369.09949"
     inkscape:cy="615.13258"
     inkscape:window-x="0"
     inkscape:window-y="0"
     inkscape:window-maximized="1"
     inkscape:current-layer="svg" />
  <path
     style="fill:#ffffff;stroke-width:0.78775638"
     d="m 209.39443,330.56263 c -3.67464,-1.47818 -5.82819,-1.74085 -14.17962,-1.7296 -5.41582,0.007 -12.86012,0.47662 -16.54288,1.04294 -6.60209,1.01525 -27.55042,0.93894 -42.14497,-0.15361 -5.80426,-0.43447 -23.16129,-1.44686 -28.09666,-1.6388 -1.15536,-0.0448 -2.36654,-0.34755 -2.69149,-0.6725 -0.32495,-0.32495 -1.40068,-0.59082 -2.39049,-0.59082 -2.79888,0 -18.66816,-4.47534 -23.244015,-6.55512 -1.462494,-0.66471 -4.285616,-1.92594 -6.273618,-2.80271 -4.385661,-1.93416 -12.534459,-9.61447 -12.534459,-11.81374 0,-0.86916 -0.354491,-1.7994 -0.787757,-2.06717 -0.433266,-0.26776 -0.787756,-1.17491 -0.787756,-2.01589 0,-0.84095 -0.35449,-1.52901 -0.787756,-1.52901 -0.433266,0 -0.787757,-0.53656 -0.787757,-1.19232 0,-0.65578 -0.324703,-1.80788 -0.721535,-2.56021 -1.69924,-3.22143 -3.192334,-7.19157 -3.934967,-10.46313 -1.165879,-5.13607 -2.404995,-7.3149 -5.383674,-9.46644 -1.461929,-1.05599 -3.143296,-2.3631 -3.736354,-2.90468 -0.593082,-0.54158 -1.369514,-0.98514 -1.725408,-0.98565 -0.721117,-7.9e-4 -3.956407,-2.64187 -8.135997,-6.64094 -2.852392,-2.72918 -5.128367,-8.28205 -5.834,-14.23365 -0.205555,-1.73306 -0.611865,-4.30807 -0.903114,-5.72221 -0.753243,-3.65758 0.737537,-6.57996 5.011583,-9.82434 7.300089,-5.54137 9.011589,-6.20582 17.994202,-6.9858 4.62834,-0.40187 9.021657,-0.53821 9.762887,-0.30294 0.741254,0.23534 1.920426,1.92735 2.620397,3.76019 0.889353,2.32878 2.224009,3.92039 4.431376,5.28461 1.737274,1.07371 3.158706,2.24833 3.158706,2.61025 0,1.27514 2.271963,2.9091 4.079446,2.93386 3.206316,0.0441 4.858955,1.96006 4.72127,5.474 -0.06819,1.74146 0.227957,3.16626 0.658023,3.16626 0.430139,0 0.789972,0.7976 0.799597,1.77245 0.0098,0.97485 0.710729,2.65868 1.55801,3.74185 2.192523,2.80298 1.951543,4.43312 -1.139613,7.70959 -3.099329,3.28512 -3.04197,3.93699 0.227219,2.58281 2.333432,-0.96653 15.019412,-0.77828 20.606184,0.3058 6.50864,1.26297 13.1462,3.0383 15.06958,4.0306 6.81803,3.51761 11.08339,4.03194 22.68938,2.73591 3.7121,-0.41451 10.43868,-1.15057 14.94795,-1.63566 l 8.19865,-0.88196 5.58708,-5.7778 c 3.42044,-3.5372 7.38707,-6.70878 10.22863,-8.17849 2.55287,-1.32038 6.57515,-4.18789 8.93845,-6.37228 2.36327,-2.18438 4.64239,-3.9716 5.06473,-3.9716 1.2436,0 3.16117,-2.28299 2.63401,-3.13596 -0.26675,-0.43162 -0.0246,-0.61103 0.54057,-0.3987 1.06559,0.40114 4.22794,-4.12591 3.85917,-5.52454 -0.11422,-0.43327 0.0478,-0.53238 0.35986,-0.22033 0.56022,0.56024 4.02814,-1.56441 6.99902,-4.28796 0.83992,-0.77 1.96247,-1.39999 2.49458,-1.39999 0.5321,0 1.0856,-0.29624 1.23003,-0.65829 0.1445,-0.36207 2.21226,-1.9609 4.59523,-3.55295 2.38296,-1.59208 5.04164,-3.45072 5.90817,-4.13031 0.86653,-0.67961 3.193,-2.06631 5.16992,-3.08153 1.9769,-1.01522 4.05862,-2.40527 4.62605,-3.08896 0.56743,-0.6836 1.73518,-1.24299 2.59502,-1.24299 1.09501,0 1.42158,-0.3694 1.09013,-1.23315 -0.34612,-0.90198 -0.10438,-1.12032 0.90041,-0.81299 0.85284,0.26084 2.46284,-0.54097 4.24656,-2.11483 5.22455,-4.60988 5.86462,-5.01875 10.17818,-6.50185 2.35374,-0.80927 4.61628,-1.75436 5.02788,-2.10021 0.4116,-0.34585 1.54703,-0.62882 2.52314,-0.62882 0.97612,0 2.7663,-0.39863 3.97817,-0.88584 3.60698,-1.45013 5.20729,-2.05498 8.11157,-3.0658 1.51643,-0.52779 3.8526,-1.43955 5.19146,-2.02613 2.21355,-0.96978 9.05829,-3.01521 13.51776,-4.03959 0.97484,-0.22402 1.77245,-0.7203 1.77245,-1.10308 0,-0.38275 0.81533,-0.69591 1.81184,-0.69591 0.99651,0 2.1486,-0.30875 2.56021,-0.68611 0.98659,-0.90449 15.40937,-6.40911 16.78472,-6.40606 0.65074,0.002 0.88219,-0.48437 0.59158,-1.2417 -0.39102,-1.01899 -0.0635,-1.15315 1.81012,-0.74162 1.31196,0.28814 2.50728,0.14672 2.80286,-0.33145 0.28344,-0.45865 1.02214,-0.83389 1.64151,-0.83389 2.33068,0 4.17723,-2.47976 3.76018,-5.04964 -0.40448,-2.49249 1.0477,-4.52995 6.87406,-9.64468 2.70696,-2.37629 6.26503,-6.48124 6.26503,-7.22793 0,-0.34408 0.62036,-1.3128 1.37858,-2.15272 2.31592,-2.56548 3.31207,-6.71063 2.90209,-12.07613 -0.47285,-6.1882 0.70731,-7.96326 5.29451,-7.96326 1.66591,0 3.02892,0.35449 3.02892,0.78776 0,0.43326 1.24072,0.78775 2.75715,0.78775 1.51643,0 2.75715,0.35449 2.75715,0.78776 0,0.43327 0.44698,0.78776 0.99331,0.78776 0.54631,0 2.40738,1.23392 4.13572,2.74203 1.72831,1.50811 3.40828,2.74883 3.73323,2.75715 0.32495,0.007 0.59081,0.72409 0.59081,1.59062 0,0.86654 0.26587,1.57776 0.59082,1.58049 0.79248,0.007 3.34797,4.56131 3.34797,5.96703 0,0.6148 0.35449,1.1178 0.78775,1.1178 0.43327,0 0.78776,0.70898 0.78776,1.57552 0,0.86653 0.26818,1.57551 0.59596,1.57551 0.78483,0 2.55506,5.73221 2.55506,8.27353 0,2.43018 -3.61016,9.5502 -5.14001,10.13727 -1.27375,0.48876 -0.37802,3.85154 2.1253,7.97904 1.55003,2.5557 1.92505,7.09045 0.65145,7.87756 -0.43327,0.26777 -0.79896,1.08629 -0.81265,1.81896 -0.0384,2.06328 -3.66092,5.70215 -6.48154,6.5111 -4.0693,1.16706 -17.9875,0.85646 -20.27729,-0.45249 -2.70454,-1.54607 -3.24942,-1.47055 -5.68489,0.78775 -1.16814,1.08317 -2.35165,1.96939 -2.63,1.96939 -0.27835,0 -1.4459,0.99999 -2.59457,2.22221 -1.1487,1.22221 -2.67441,2.55155 -3.39051,2.95409 -3.2377,1.81999 -9.96337,8.49613 -9.57604,9.50551 0.28281,0.73695 0.0222,0.93874 -0.80491,0.62162 -1.14899,-0.4409 -5.39434,2.65281 -14.29751,10.41898 -5.19286,4.5297 -14.78225,8.15112 -21.58396,8.15112 -1.79699,0 -3.8828,0.31668 -4.63513,0.70376 -0.75236,0.38706 -3.31759,1.15128 -5.70055,1.69826 -4.91171,1.12745 -8.31415,3.32221 -9.90838,6.39144 -0.59923,1.15364 -3.04613,4.11767 -5.43753,6.58675 -2.39139,2.46907 -4.348,4.99629 -4.348,5.61604 0,0.61974 0.69025,1.86769 1.53388,2.77324 2.2042,2.36593 5.65447,9.72237 5.15636,10.99405 -0.4681,1.1951 -5.42112,4.62428 -6.67919,4.62428 -0.43934,0 -0.79881,0.35449 -0.79881,0.78776 0,0.43326 -0.42191,0.78775 -0.93758,0.78775 -1.48292,0 -10.87875,4.9189 -10.87875,5.69526 0,0.38487 -0.35691,0.4792 -0.79313,0.20949 -0.43624,-0.26961 -1.8203,0.24125 -3.07569,1.13516 -1.25542,0.89391 -2.59271,1.62532 -2.97176,1.62532 -0.37906,0 -1.20018,0.70898 -1.82474,1.57551 -0.62457,0.86653 -1.60998,1.57551 -2.18979,1.57551 -1.91511,0 -0.25305,1.36267 2.27996,1.86927 7.01145,1.40228 10.49753,6.8365 5.25685,8.19449 -1.3918,0.36065 -4.31634,0.37992 -6.49899,0.0428 -2.18266,-0.33709 -4.62837,-0.71066 -5.43496,-0.83015 -0.80656,-0.1194 -1.87003,0.47674 -2.36327,1.32498 -0.49321,0.84824 -1.25125,1.94199 -1.68451,2.43057 -1.07788,1.21549 -6.20937,7.51379 -6.69593,8.21849 -0.21664,0.31373 -0.92562,0.79413 -1.57552,1.06751 -0.6499,0.2734 1.47705,0.3377 4.72654,0.14278 5.06685,-0.30378 7.02994,0.002 13.78574,2.15127 4.33266,1.378 7.99573,2.78481 8.14013,3.12626 0.14451,0.34144 0.94203,0.6208 1.77245,0.6208 0.83044,0 1.50988,0.35449 1.50988,0.78775 0,0.43327 0.4649,0.78776 1.03309,0.78776 1.94571,0 4.4812,3.15324 4.4812,5.57298 0,2.06528 -0.4681,2.56174 -3.74184,3.9686 -2.7488,1.18126 -4.57809,1.47071 -6.89286,1.09064 -3.84937,-0.63202 -9.24422,-0.65585 -16.54288,-0.0731 -4.54922,0.36328 -6.27259,0.1354 -9.84696,-1.30255 z m 13.39186,-2.92814 c 1.94027,-0.59537 1.92601,-0.62336 -0.96459,-1.89303 -2.72354,-1.19631 -2.89827,-1.47219 -2.43633,-3.84679 0.2737,-1.40693 0.885,-2.81502 1.35846,-3.12911 0.47344,-0.3141 -7.29246,-0.60832 -17.25757,-0.65382 -9.96512,-0.0455 -19.53636,-0.22451 -21.26943,-0.39786 -5.49982,-0.55003 -14.03193,-1.77428 -18.51227,-2.65627 -2.38296,-0.46908 -8.02249,-1.18899 -12.53224,-1.59978 -8.89616,-0.81033 -12.2073,-1.34086 -14.64536,-2.34651 -9.36612,-3.86338 -19.37597,-7.19189 -24.9136,-8.28434 -1.13777,-0.22451 -3.44196,-1.64698 -5.12042,-3.16117 -1.67846,-1.51419 -3.6721,-2.96031 -4.43032,-3.21363 -0.75821,-0.25328 -1.37857,-0.74979 -1.37857,-1.10332 0,-0.35356 -0.708984,-0.8282 -1.575516,-1.05481 -1.747416,-0.45695 -2.17534,-3.3372 -0.590818,-3.97657 0.541583,-0.2186 -0.146473,-0.42531 -1.529035,-0.45953 -1.382537,-0.0342 -2.7328,-0.41667 -3.000564,-0.84994 -0.267788,-0.43327 -2.040239,-0.78776 -3.938782,-0.78776 -1.898566,0 -3.671018,0.35449 -3.938781,0.78776 -0.267788,0.43327 -1.88872,0.78776 -3.60209,0.78776 -1.71337,0 -3.819388,0.35449 -4.680061,0.78775 -0.860648,0.43327 -2.268985,1.14225 -3.129633,1.57552 -0.860648,0.43326 -2.27861,0.78775 -3.151025,0.78775 -0.872416,0 -1.586197,-0.35449 -1.586197,-0.78775 0,-1.41496 -1.614236,-0.83143 -4.083212,1.47603 l -2.422253,2.26377 0.865474,4.91335 c 1.215926,6.90289 3.990281,9.9857 3.827782,4.25337 -0.05539,-1.95223 0.388388,-3.19164 1.410158,-3.93878 2.341901,-1.71241 2.741958,-1.33692 2.578449,2.42014 -0.11447,2.63322 0.26604,3.96179 1.523497,5.31735 0.921945,0.99388 1.795986,2.64263 1.942262,3.66391 0.202355,1.41193 1.115414,2.13794 3.810919,3.02993 1.949697,0.6452 3.88167,1.49344 4.293273,1.88498 0.411602,0.39156 1.740941,0.71191 2.954086,0.71191 1.213145,0 2.205718,0.35449 2.205718,0.78775 0,0.43327 0.865301,0.78776 1.922889,0.78776 1.057587,0 2.118843,0.31705 2.358345,0.70455 0.239527,0.3875 1.766987,0.86185 3.394442,1.05414 1.627456,0.19226 3.490773,0.5261 4.140673,0.74184 0.6499,0.21565 0.91577,0.24372 0.59082,0.0618 -1.14459,-0.6401 -0.57406,-2.5635 0.78775,-2.65572 2.2664,-0.15337 3.7258,0.19399 4.00442,0.95326 0.1445,0.39358 1.09835,0.7156 2.11985,0.7156 1.02147,0 2.07633,0.35449 2.34411,0.78776 0.26777,0.43326 2.78125,0.78776 5.58549,0.78776 3.80546,0 5.21367,0.29969 5.55208,1.18163 0.36006,0.93822 2.03114,1.18163 8.11234,1.18163 7.43593,0 7.65707,-0.0517 7.59634,-1.77245 -0.0586,-1.66059 0.29792,-1.78707 5.6487,-2.0039 5.65368,-0.22919 5.71124,-0.21122 5.71124,1.77245 0,1.90519 -0.22304,2.00779 -4.5296,2.08302 l -4.5296,0.079 3.15103,0.7559 c 3.89373,0.93406 33.95084,0.36953 42.45408,-0.79736 3.41953,-0.46926 8.65626,-0.91476 11.63723,-0.98999 4.80433,-0.12136 5.36942,-0.29587 4.9753,-1.53765 -0.82476,-2.59859 2.60917,-2.7667 5.22972,-0.25604 1.27028,1.21701 2.13437,2.66941 1.92018,3.22758 -0.2513,0.6549 0.28379,1.01483 1.50875,1.01483 1.044,0 2.11727,0.35449 2.38505,0.78775 0.55943,0.90521 6.92729,0.9223 9.84696,0.0263 z m -17.33064,-14.79055 c 4.15266,-1.73848 11.32343,-10.31702 10.4872,-12.54603 -0.47657,-1.2702 -0.38226,-1.31351 0.78776,-0.3618 1.1691,0.951 1.32914,0.87988 1.32914,-0.59082 0,-0.91958 0.28327,-1.67196 0.62949,-1.67196 0.34622,0 1.05838,-1.18602 1.58255,-2.63559 0.95476,-2.64036 7.20273,-9.18076 8.77027,-9.18076 0.45872,0 0.83404,-0.27588 0.83404,-0.61312 0,-0.3372 2.70872,-2.02103 6.01939,-3.74184 4.43624,-2.30584 5.57575,-3.19492 4.33265,-3.38046 -0.97701,-0.14573 -1.68672,-0.8253 -1.68672,-1.6149 0,-0.74975 -0.30524,-1.69993 -0.67831,-2.11153 -0.96897,-1.06908 0.50753,-5.86879 1.80539,-5.86879 1.24986,0 2.81169,3.96254 2.81169,7.13361 0,1.86302 0.2521,2.1068 1.77245,1.71374 2.55169,-0.6597 6.75833,-3.32655 5.25283,-3.3301 -2.10661,-0.005 -21.5065,-21.42857 -26.21807,-28.953 -1.15303,-1.84138 -2.42055,-3.34796 -2.81675,-3.34796 -0.39619,0 -3.4064,1.24071 -6.68938,2.75714 -3.28297,1.51644 -6.49926,2.75715 -7.14734,2.75715 -0.64805,0 -1.17828,0.35449 -1.17828,0.78776 0,0.43326 -0.63809,0.78775 -1.41796,0.78775 -0.77988,0 -1.75473,0.32621 -2.16633,0.72489 -0.41161,0.3987 -2.72148,1.38514 -5.13302,2.19208 -5.15449,1.72477 -9.00448,4.47817 -8.16379,5.83845 0.365,0.59055 0.24666,0.73407 -0.31764,0.38532 -0.49462,-0.3057 -1.65818,0.15115 -2.58574,1.01539 -0.92756,0.86414 -3.52496,2.44167 -5.77199,3.50559 -5.02126,2.37745 -15.81972,13.64475 -14.54688,15.17844 0.5358,0.64559 0.51241,1.12713 -0.0721,1.48847 -0.4924,0.30432 -0.58242,0.92765 -0.20925,1.4487 0.36025,0.50301 0.76927,2.86426 0.9089,5.24722 0.13958,2.38297 0.5711,4.92971 0.95877,5.65944 0.38768,0.72974 0.70487,2.59081 0.70487,4.13572 0,1.54492 0.35449,2.80895 0.78776,2.80895 0.43327,0 0.78776,0.8457 0.78776,1.87934 0,2.5364 1.48802,5.23235 5.08634,9.21527 2.68089,2.9674 3.17926,3.22165 4.58908,2.34121 1.34046,-0.83714 1.51155,-0.80523 1.12228,0.20925 -0.46236,1.20482 -0.34888,1.22437 13.62275,2.34584 2.93133,0.23534 9.57178,-0.66841 11.81634,-1.60808 z m -19.16875,-1.51616 c -0.86651,-0.86651 -0.59362,-4.88805 0.45953,-6.77217 1.43483,-2.56697 6.97125,-7.94957 9.25614,-8.99893 6.10922,-2.80582 15.1878,-3.64904 16.01718,-1.4877 0.65408,1.70448 -2.61205,3.40315 -5.80458,3.01887 -4.32927,-0.5211 -14.93914,4.85571 -14.93914,7.57076 0,0.49075 -0.36012,0.89228 -0.80028,0.89228 -0.44014,0 -0.72521,0.98499 -0.63348,2.18888 0.25393,3.33226 -1.7693,5.37408 -3.55537,3.58801 z m -1.31292,-11.33768 c 0,-0.45882 0.35449,-0.61514 0.78776,-0.34738 0.43326,0.26776 0.78775,0.64318 0.78775,0.83426 0,0.19103 -0.35449,0.34738 -0.78775,0.34738 -0.43327,0 -0.78776,-0.37542 -0.78776,-0.83426 z m 19.98351,-11.36361 c -0.27441,-0.71514 -0.12087,-2.07397 0.34139,-3.01959 0.46222,-0.94563 1.29067,-3.13727 1.84102,-4.87033 0.55034,-1.73307 1.28276,-3.48779 1.62757,-3.8994 0.34482,-0.4116 0.62696,-2.22927 0.62696,-4.03927 0,-3.32864 1.54779,-5.65628 3.11651,-4.68675 1.09176,0.67474 1.05092,6.86209 -0.0635,9.63426 -0.4872,1.21189 -1.14769,2.91238 -1.46771,3.77891 -2.4741,6.69899 -5.02323,9.70531 -6.02216,7.10217 z m -25.01966,-15.04415 c -1.40959,-3.67334 0.62206,-8.19392 4.86166,-10.8176 7.30374,-4.5199 13.56635,-6.04583 13.56635,-3.30555 0,0.86853 -7.68791,5.12136 -9.27768,5.13229 -1.74003,0.0123 -5.08199,3.82918 -5.19729,5.93638 -0.0702,1.28212 -0.40782,2.77426 -0.75037,3.31584 -0.86845,1.37311 -2.63064,1.22929 -3.20267,-0.26136 z m -10.42903,36.24514 c -1.45927,-1.54731 -2.65321,-3.497 -2.65321,-4.33266 0,-0.83569 -0.3545,-1.51944 -0.78776,-1.51944 -0.43327,0 -0.78776,-1.21979 -0.78776,-2.71064 0,-1.49088 -0.31532,-2.90554 -0.70073,-3.14374 -0.38539,-0.2383 -0.88854,-1.58844 -1.11812,-3.00057 -0.22968,-1.41215 -0.98307,-5.51722 -1.67448,-9.12244 -0.69138,-3.60519 -1.09786,-6.81254 -0.90326,-7.12742 0.19448,-0.31486 0.0561,-1.05421 -0.30774,-1.64296 -0.544,-0.88022 -1.47985,-0.90395 -5.26539,-0.13368 -2.53207,0.51527 -11.16184,1.0139 -19.17726,1.10811 l -14.5735,0.17133 -0.12013,4.04543 c -0.18685,6.28967 -4.23968,13.91453 -6.30065,11.85356 -0.49695,-0.49695 1.27826,-8.36747 2.16461,-9.59694 0.31235,-0.43326 0.67993,-2.35637 0.8168,-4.27357 0.18168,-2.54601 -0.0643,-3.58068 -0.91301,-3.83758 -0.63906,-0.1935 -2.22538,-0.80544 -3.52518,-1.35987 -4.58984,-1.95782 -7.75627,-2.73927 -11.09966,-2.73927 -1.85947,0 -3.599951,-0.35449 -3.867714,-0.78776 -0.609675,-0.98647 -2.757148,-1.03915 -2.757148,-0.0677 0,0.39607 -1.234463,1.99128 -2.743238,3.54491 -3.128205,3.22121 -7.204303,4.04813 -6.326841,1.28355 0.416797,-1.31322 -0.414384,-1.0765 -5.617392,1.59986 -3.3586,1.72759 -6.567993,2.96403 -7.132002,2.74759 -2.232009,-0.85649 -0.79364,-2.76554 3.898016,-5.17354 5.037357,-2.58542 8.971215,-5.58241 5.711233,-4.35107 -0.866532,0.32731 -2.284493,0.78783 -3.151025,1.02337 -0.866532,0.23558 -2.756655,1.45075 -4.200268,2.70038 -1.443613,1.24965 -3.666563,2.48044 -4.939872,2.73511 -1.27331,0.25467 -2.505903,0.77173 -2.739103,1.14904 -0.233127,0.37726 -1.112041,0.68597 -1.952996,0.68597 -0.840954,0 -1.52901,0.35449 -1.52901,0.78775 0,0.43327 -0.531736,0.78776 -1.181635,0.78776 -0.649899,0 -1.181635,0.35449 -1.181635,0.78775 0,0.43327 -0.443113,0.79889 -0.984695,0.8125 -2.008336,0.0505 -3.841962,3.76092 -3.296219,6.67003 0.284602,1.51707 0.832511,2.75831 1.217551,2.75831 0.385041,0 0.72806,0.62036 0.762278,1.37857 0.04973,1.1003 0.154105,1.14006 0.51726,0.19694 0.606671,-1.57522 4.289014,-4.72437 5.525668,-4.72558 0.541583,-5.2e-4 0.984696,-0.35545 0.984696,-0.78871 0,-0.43327 0.536536,-0.78776 1.192318,-0.78776 0.655783,0 1.807876,-0.31097 2.560208,-0.69106 3.44801,-1.74193 7.526249,-2.45997 13.971992,-2.45997 7.132913,0 10.294253,0.65803 15.632633,3.25388 1.66569,0.80996 3.52676,1.47266 4.13572,1.47266 0.60896,0 1.10719,0.35449 1.10719,0.78776 0,0.43326 0.48991,0.78775 1.08868,0.78775 0.5988,0 3.32045,2.2042 6.04813,4.89822 4.33256,4.27912 5.76312,5.15969 11.31846,6.96692 5.43642,1.76856 10.45315,3.7738 15.41826,6.16279 0.6499,0.31272 4.70377,0.66103 9.00863,0.77402 4.30487,0.113 8.44682,0.53718 9.20434,0.9426 0.75756,0.4054 2.90724,0.77907 4.77711,0.83032 1.86986,0.0512 4.46323,0.36382 5.76303,0.69456 1.29979,0.33073 2.58236,0.6433 2.85015,0.69455 0.26779,0.0512 -0.70706,-1.17275 -2.16633,-2.72002 z m -12.18792,-9.93007 c -0.0448,-0.14007 -0.1354,-4.2381 -0.20088,-9.10673 -0.0945,-7.00732 0.11422,-8.94163 1.00111,-9.28196 1.84816,-0.70921 2.4821,0.67599 2.92568,6.39264 0.51596,6.64957 -0.44001,11.63368 -2.30012,11.99189 -0.73929,0.14229 -1.38089,0.14426 -1.42579,0.005 z m -88.049358,9.38221 c -0.777983,-0.77223 -0.868476,-0.68173 -0.440971,0.44097 0.295827,0.7769 0.736306,1.2141 0.978837,0.97157 0.242481,-0.24248 5.17e-4,-0.8782 -0.537866,-1.41254 z M 59.227186,278.60593 c -0.307201,-0.49702 -0.179954,-0.64884 0.296934,-0.35412 0.459041,0.28369 2.197644,-0.1578 3.863576,-0.9812 1.665908,-0.82335 4.254746,-2.03893 5.75296,-2.70126 2.639058,-1.16667 2.663626,-1.21731 0.787757,-1.62354 -1.064948,-0.23067 -2.645237,-0.52539 -3.511769,-0.655 -0.936667,-0.14007 -1.677601,-0.95112 -1.82725,-2.00006 -0.214664,-1.50504 0.110532,-1.76441 2.212808,-1.76441 1.539842,0 2.270387,-0.31419 1.947013,-0.83738 -0.77045,-1.24663 1.978007,-3.88915 4.04508,-3.88915 0.990431,0 2.019881,-0.35449 2.287669,-0.78776 0.267764,-0.43327 1.131514,-0.78776 1.919418,-0.78776 1.857283,0 4.041387,-2.46919 2.610181,-2.95088 -0.541582,-0.18217 -0.984695,-1.01087 -0.984695,-1.84131 0,-1.09033 -0.554088,-1.50986 -1.994131,-1.50986 -2.382151,0 -3.326228,-1.88022 -1.842021,-3.66855 0.935633,-1.12738 0.873868,-1.22511 -0.502687,-0.79571 -0.863135,0.26924 -2.02446,0.20334 -2.580715,-0.14623 -1.22629,-0.77092 -0.478955,-3.08347 1.104952,-3.41908 0.873326,-0.18513 0.785664,-0.4616 -0.373569,-1.17859 -1.23407,-0.76328 -1.785228,-0.6799 -2.97538,0.45001 -1.182226,1.12241 -1.874762,1.23055 -3.632271,0.56716 -1.194362,-0.45082 -2.171549,-1.07113 -2.171549,-1.37845 0,-0.30732 -0.572625,-1.13139 -1.272473,-1.83124 -1.171443,-1.17144 -1.160784,-1.39585 0.134165,-2.82679 1.356049,-1.49839 1.342632,-1.61397 -0.37288,-3.2122 -1.534943,-1.43003 -2.0315,-1.52306 -3.612749,-0.67678 -2.558362,1.36917 -2.970112,3.7946 -1.145422,6.74701 0.848536,1.37296 1.542796,3.03688 1.542796,3.69761 0,0.6607 0.531735,1.40533 1.181634,1.65473 0.68653,0.26345 1.181635,1.44238 1.181635,2.81372 0,2.64312 -2.155917,4.32362 -4.428102,3.4517 -1.180502,-0.45299 -1.106576,-0.0648 0.48804,2.56304 1.033586,1.70327 2.16569,3.71725 2.515774,4.47546 0.350084,0.75822 0.985262,2.07355 1.411512,2.92295 1.715241,3.4181 -1.312944,4.78301 -3.672816,1.65547 -0.832486,-1.1033 -0.983662,-1.08799 -1.462864,0.14819 -1.034521,2.66865 -3.139824,1.56653 -4.138232,-2.16633 -0.521445,-1.94969 -1.308709,-3.5449 -1.749459,-3.5449 -0.473171,0 -0.319041,1.15431 0.376351,2.81864 0.647733,1.55023 1.262847,4.29753 1.366905,6.10511 0.117917,2.04645 1.030681,4.55176 2.419372,6.63988 1.929511,2.90133 2.439928,3.24117 3.786154,2.5207 0.855774,-0.45801 1.314027,-1.22423 1.018323,-1.70269 z m 12.16217,-20.85855 c 0.568662,-0.22747 1.248102,-0.19965 1.509858,0.062 0.261757,0.26178 -0.203585,0.44796 -1.03393,0.41375 -0.917687,-0.0379 -1.10436,-0.22451 -0.475928,-0.47593 z m 19.447736,13.92999 c 0.267763,-0.43327 0.111517,-0.78776 -0.347401,-0.78776 -0.458843,0 -0.834234,0.35449 -0.834234,0.78776 0,0.43327 0.156321,0.78776 0.347376,0.78776 0.191031,0 0.566471,-0.35449 0.834259,-0.78776 z M 74.35297,268.43125 c 0.235342,-0.38096 -0.479055,-0.69266 -1.587797,-0.69266 -1.207089,0 -2.015869,0.44449 -2.015869,1.10788 0,1.18213 2.817066,0.85755 3.603666,-0.41522 z m 176.99081,-0.8896 c -1.65826,-3.37884 -2.63145,-3.92276 -4.30647,-2.40689 -1.31413,1.18926 -1.27366,1.35277 0.76976,3.11021 1.18624,1.02024 2.74998,1.85541 3.47501,1.85593 1.21977,7.8e-4 1.22438,-0.1903 0.0616,-2.55925 z M 55.85581,262.77082 c -1.028785,-1.02876 -1.171862,0.11127 -0.294104,2.34314 0.547392,1.39176 0.577992,1.3911 0.861633,-0.0197 0.161736,-0.80425 -0.09355,-1.84999 -0.567529,-2.32388 z m 190.85256,-3.7328 c 0.69337,-1.17381 2.24124,-3.20571 3.43974,-4.51537 3.39912,-3.71447 4.73149,-5.40559 7.75197,-9.83918 l 2.80849,-4.12248 -3.27581,3.39228 c -3.39262,3.51324 -6.11158,4.1436 -5.63189,1.30571 0.14377,-0.85083 2.01326,-3.23079 4.15428,-5.28881 3.02792,-2.91051 4.46621,-3.74184 6.47384,-3.74184 1.41956,0 2.99679,0.41576 3.50497,0.92394 0.70674,0.70674 1.40063,0.70674 2.95177,0 1.11529,-0.50818 3.40818,-0.92394 5.09528,-0.92394 1.68711,0 3.28657,-0.35449 3.55434,-0.78776 0.26776,-0.43326 2.06596,-0.78775 3.99596,-0.78775 1.93001,0 4.12465,-0.33099 4.87698,-0.73552 0.75236,-0.40454 3.05172,-1.19092 5.10973,-1.74749 2.05802,-0.5566 3.74184,-1.25064 3.74184,-1.54236 0,-0.29171 0.80096,-0.7314 1.77992,-0.97711 2.57288,-0.64574 7.9277,-5.7647 7.22306,-6.90486 -0.37335,-0.60408 -0.24544,-0.73271 0.35801,-0.3598 0.89706,0.5544 8.97643,-5.43358 13.51553,-10.01697 1.10055,-1.11127 4.21745,-3.65216 6.92647,-5.64641 2.709,-1.99426 5.12552,-4.14727 5.37004,-4.78447 0.24445,-0.63719 0.7848,-1.15854 1.20062,-1.15854 0.41581,0 1.91791,-0.88622 3.33804,-1.96939 1.4201,-1.08316 2.90303,-1.98118 3.29538,-1.99561 0.39238,-0.0148 1.56776,-0.73754 2.61198,-1.60695 1.3625,-1.13442 1.65771,-1.82159 1.04555,-2.43375 -0.61214,-0.61213 -1.43633,-0.26963 -2.91906,1.2131 -2.39224,2.39224 -3.00671,2.51228 -4.38135,0.85595 -0.83945,-1.01148 -0.65074,-1.57918 1.14978,-3.4585 2.40084,-2.50593 2.11358,-2.92423 -2.51659,-3.66459 -2.76758,-0.44258 -3.51654,-0.22747 -5.43913,1.56251 -1.22629,1.14166 -3.20447,2.50964 -4.39595,3.04 -1.19149,0.53033 -2.16633,1.23222 -2.16633,1.55971 0,0.32751 -0.53174,0.59547 -1.18164,0.59547 -0.6499,0 -1.18163,0.30144 -1.18163,0.66989 0,0.60475 -6.92448,4.21538 -12.99798,6.77758 -1.2998,0.54833 -3.42674,1.44251 -4.72654,1.98707 -1.2998,0.54456 -2.9788,1.30324 -3.73116,1.68595 -0.75233,0.38272 -1.90443,0.69586 -2.56021,0.69586 -0.65576,0 -1.19232,0.28327 -1.19232,0.62949 0,0.34624 -1.32934,1.1017 -2.95408,1.67883 -1.62475,0.5771 -5.43552,2.18935 -8.46839,3.58276 -10.85725,4.9882 -11.82759,5.39623 -14.5613,6.12319 -1.52313,0.40502 -3.9554,0.92344 -5.40502,1.15199 -2.37646,0.37473 -2.60336,0.63567 -2.30719,2.65363 0.32963,2.24585 -0.51207,3.08626 -3.09096,3.08626 -0.86486,0 -1.10187,-0.56061 -0.83256,-1.96939 0.30946,-1.61884 0.0675,-1.96939 -1.35967,-1.96939 -2.04218,0 -13.01275,5.3965 -13.01275,6.40106 0,0.37881 -0.50219,0.68874 -1.116,0.68874 -0.61379,0 -1.23414,0.26587 -1.37857,0.59082 -0.37315,0.83963 -5.9367,4.92328 -6.709,4.92444 -0.35387,5.2e-4 -1.70684,0.91737 -3.00664,2.03738 -1.2998,1.12004 -2.84789,2.30902 -3.44018,2.64219 -1.56983,0.88297 0.29885,5.61252 3.60056,9.11296 1.42823,1.51417 2.59676,2.9456 2.59676,3.18092 0,0.23534 0.79761,1.25908 1.77246,2.27501 0.97484,1.01594 3.35862,3.61182 5.29726,5.76859 3.86382,4.29859 4.93827,4.32109 7.39929,0.15485 z m 36.68532,-27.99015 c -0.85296,-1.02775 -0.83957,-1.35967 0.0778,-1.92656 0.60951,-0.37669 0.86191,-0.93115 0.56094,-1.23212 -0.97121,-0.97121 2.07591,-5.15542 5.46134,-7.49934 3.62282,-2.50829 4.354,-2.66956 6.6158,-1.45908 1.23202,0.65936 1.37136,1.12423 0.70824,2.36327 -0.45402,0.84832 -1.61062,1.55031 -2.5702,1.55996 -2.44525,0.0246 -4.84283,2.17098 -6.79982,6.08758 -1.82223,3.64682 -2.48822,3.99287 -4.05396,2.10629 z m -38.55023,-3.22077 c 0,-0.69962 0.62035,-1.74296 1.37857,-2.31851 1.52207,-1.15542 6.49899,-1.48544 6.49899,-0.43095 0,1.23146 -2.73676,3.05302 -5.31736,3.53919 -2.03056,0.38253 -2.5602,0.21909 -2.5602,-0.78973 z M 52.630908,254.34673 c -1.527288,-0.98699 -2.36327,-0.98699 -2.36327,0 0,0.43327 0.797604,0.78234 1.772452,0.77569 1.433274,-0.01 1.546317,-0.15829 0.590818,-0.77569 z m 150.639352,-9.45012 c 1.41858,-0.86493 3.19962,-1.57392 3.95784,-1.57552 0.75821,-0.002 1.37857,-0.28622 1.37857,-0.63247 0,-0.34621 1.32934,-1.10896 2.95409,-1.695 5.6169,-2.02597 12.44074,-5.45404 14.67041,-7.36993 1.89022,-1.62421 2.15444,-2.30473 1.69931,-4.3768 -0.63059,-2.87115 -1.80462,-3.87965 -2.4769,-2.12768 -0.25993,0.67734 -0.9664,1.23155 -1.56995,1.23155 -0.60354,0 -1.09734,0.35449 -1.09734,0.78776 0,0.43327 -0.37153,0.78776 -0.82562,0.78776 -0.84113,0 -9.48579,5.29355 -10.20297,6.24777 -0.21663,0.28824 -1.6346,1.37451 -3.15103,2.41393 -2.92031,2.00169 -9.17428,7.88119 -8.38318,7.88119 0.25716,0 1.6282,-0.70766 3.04677,-1.57256 z m 21.8793,-13.39482 c 0,-0.43327 0.35449,-0.78776 0.78775,-0.78776 0.43327,0 0.78776,0.35449 0.78776,0.78776 0,0.43327 -0.35449,0.78776 -0.78776,0.78776 -0.43326,0 -0.78775,-0.35449 -0.78775,-0.78776 z m 10.5131,-4.1143 c 1.36668,-0.96309 3.17207,-2.38105 4.01199,-3.15103 0.83989,-0.77001 1.99198,-1.39999 2.5602,-1.39999 0.56819,0 1.03309,-0.2946 1.03309,-0.65465 0,-1.71999 14.04789,-6.43516 19.17232,-6.43516 1.58669,0 2.88486,-0.35449 2.88486,-0.78775 0,-0.43327 1.06347,-0.78776 2.36327,-0.78776 1.2998,0 2.36327,-0.35449 2.36327,-0.78776 0,-0.43326 0.88623,-0.78775 1.96939,-0.78775 1.08317,0 1.96939,-0.35449 1.96939,-0.78776 0,-0.43327 0.49823,-0.78776 1.10719,-0.78776 0.60896,0 2.47004,-0.68249 4.13573,-1.51665 5.7453,-2.87718 8.3944,-3.99764 9.45159,-3.99764 0.58334,0 1.06062,-0.35449 1.06062,-0.78776 0,-0.43326 0.68806,-0.78775 1.52901,-0.78775 0.84098,0 1.74813,-0.35449 2.01589,-0.78776 0.26777,-0.43327 1.17492,-0.78776 2.0159,-0.78776 0.84095,0 1.52901,-0.35449 1.52901,-0.78775 0,-0.43327 0.62036,-0.78677 1.37857,-0.78557 1.53977,0.002 8.3209,-3.21459 8.7326,-4.14281 0.14524,-0.32766 0.58993,-0.39444 0.98802,-0.14844 0.74379,0.45968 7.20521,-2.72694 7.67568,-3.78549 0.1445,-0.32495 0.60265,-0.59082 1.01832,-0.59082 1.52022,0 9.15459,-6.24294 9.56811,-7.82424 0.54218,-2.0733 -1.17336,-2.15552 -4.03149,-0.19325 -2.65333,1.82171 -6.2583,3.43506 -12.72571,5.69521 -2.81623,0.98418 -5.45718,2.08655 -5.86879,2.4497 -0.4116,0.36316 -1.39127,0.66029 -2.17701,0.66029 -0.78576,0 -2.0442,0.31313 -2.79653,0.69586 -0.75236,0.3827 -2.25412,1.04427 -3.33729,1.4701 -1.08316,0.42586 -2.85561,1.15276 -3.93878,1.61537 -1.08316,0.46258 -3.38735,1.2724 -5.12041,1.79958 -5.40748,1.64488 -14.11716,4.72407 -15.54751,5.49664 -0.75233,0.40634 -2.06074,0.73879 -2.90758,0.73879 -0.84684,0 -1.75882,0.35449 -2.02658,0.78776 -0.26776,0.43327 -1.17974,0.78776 -2.02658,0.78776 -2.57667,0 -4.44211,1.6214 -4.07496,3.5419 0.21072,1.10291 -0.1285,1.92732 -0.91771,2.23021 -1.68144,0.64522 -3.61546,-0.16986 -3.61546,-1.52372 0,-1.52261 -1.5505,-1.3721 -5.17669,0.50252 l -3.09475,1.59986 3.18337,-0.22648 c 3.069,-0.21836 3.17193,-0.14845 2.86468,1.94502 -0.27321,1.86149 -0.68572,2.17145 -2.88999,2.17145 -1.41422,0 -3.01257,-0.53174 -3.55194,-1.18164 -1.29763,-1.56352 -1.63472,-1.50688 -3.98159,0.66927 -1.09786,1.01798 -3.57567,2.86517 -5.50624,4.10483 -6.06808,3.89647 -7.42908,5.95925 -5.32198,8.06633 1.22442,1.22442 1.15214,1.2388 4.0535,-0.80573 z m 120.56499,-29.29844 c -0.25156,-0.65556 0.54365,-1.83291 1.93057,-2.8583 1.29709,-0.95899 2.18551,-2.19395 1.97429,-2.74439 -0.21121,-0.55042 -0.0288,-1.22038 0.40555,-1.48876 1.09542,-0.67701 0.14426,-5.86544 -1.60043,-8.73058 -0.79152,-1.2998 -1.44046,-3.01753 -1.44206,-3.81718 -0.002,-1.438 2.1877,-4.99314 4.89911,-7.95077 0.77001,-0.83992 1.39999,-1.80911 1.39999,-2.15378 0,-0.96062 -4.13427,-9.15577 -7.28209,-14.43487 -2.70356,-4.53403 -2.72973,-6.37807 -0.0761,-5.35977 0.58087,0.22303 1.05613,-0.0987 1.05613,-0.7145 0,-1.18362 -5.63925,-4.56307 -7.6144,-4.56307 -2.97806,0 -4.77019,4.30132 -5.27378,12.65759 -0.39735,6.59365 -0.77132,8.05653 -3.71186,14.52 -0.78845,1.73306 -1.5623,3.86001 -1.71967,4.72654 -0.16322,0.89826 -0.77395,1.45462 -1.42097,1.29428 -4.87808,-1.20886 -6.90924,-1.04683 -7.8026,0.62243 -1.38087,2.58015 -0.68242,5.03393 1.76578,6.2037 3.26862,1.56178 6.733,1.42409 8.03391,-0.31928 3.54707,-4.75355 5.92725,-12.47703 5.92725,-19.23335 0,-3.73761 0.13219,-4.01984 1.77245,-3.78689 1.65926,0.23559 1.7646,0.60389 1.64946,5.76603 -0.14278,6.39895 -0.93317,11.25195 -1.93345,11.87014 -0.38538,0.23829 -0.70071,0.95884 -0.70071,1.60146 0,1.17988 -0.61989,2.09043 -3.61432,5.30915 l -1.64493,1.76815 3.41738,3.88359 c 2.54623,2.8936 3.41739,4.54176 3.41739,6.46539 v 2.58177 h 4.30794 c 3.3907,0 4.21686,-0.23731 3.88017,-1.11473 z m 8.35478,-2.61968 c 0,-1.46333 -0.45432,-1.22449 -1.91694,1.00776 -1.27958,1.9529 -1.27247,1.97621 0.30329,0.99213 0.88751,-0.55426 1.61365,-1.4542 1.61365,-1.99989 z m 1.50808,-5.71867 c -0.0396,-1.80364 -0.10019,-1.83678 -0.72033,-0.39388 -0.37236,0.86654 -0.6965,2.2845 -0.72033,3.15103 -0.0357,1.30036 0.0901,1.36917 0.72033,0.39388 0.42,-0.6499 0.74414,-2.06786 0.72033,-3.15103 z m -29.29237,-19.89085 c 1.41301,-1.52965 3.34589,-6.58574 3.35943,-8.78784 0.007,-1.02302 -3.85774,3.59589 -4.38608,5.24294 -0.24322,0.75822 -0.77281,1.37857 -1.17688,1.37857 -0.40407,0 -0.73468,0.47756 -0.73468,1.06126 0,0.58368 -0.79761,1.44593 -1.77245,1.91607 -1.69336,0.81668 -1.66434,0.8572 0.65044,0.90813 1.55222,0.0342 3.01124,-0.5836 4.06022,-1.71913 z m 30.69347,-3.52991 c -0.19965,-0.76646 -0.37628,-0.33009 -0.39235,0.96971 -0.0172,1.29979 0.14746,1.9269 0.36315,1.39356 0.2159,-0.53334 0.22895,-1.59681 0.0293,-2.36327 z m -2.02367,-5.14853 c -0.77801,-0.77222 -0.86848,-0.68173 -0.441,0.44097 0.29583,0.7769 0.73631,1.21411 0.97886,0.97158 0.24248,-0.24248 5e-4,-0.8782 -0.53786,-1.41255 z m -1.52884,-3.89939 c -0.56526,-0.56527 -0.93219,-0.61179 -0.93219,-0.11817 0,1.05146 0.93162,1.98308 1.45735,1.45735 0.22377,-0.22377 -0.0123,-0.8265 -0.52516,-1.33918 z m -1.80967,-3.17729 c -0.5131,-0.97485 -1.58906,-2.61787 -2.39099,-3.65116 -1.1086,-1.42837 -1.45807,-1.57 -1.45807,-0.59081 0,0.70834 0.27806,1.28788 0.6179,1.28788 0.33987,0 1.24613,1.06347 2.01395,2.36327 1.61916,2.74102 2.59937,3.2168 1.21721,0.59082 z M 248.05667,327.14854 c 0.0379,-0.91769 0.22451,-1.10434 0.47592,-0.47593 0.22747,0.56866 0.19965,1.2481 -0.0623,1.50986 -0.26176,0.26178 -0.44794,-0.20359 -0.41374,-1.03393 z M 73.506452,238.5916 c 0.267763,-0.43327 0.643178,-0.78776 0.834234,-0.78776 0.19103,0 0.3474,0.35449 0.3474,0.78776 0,0.43326 -0.375415,0.78775 -0.834259,0.78775 -0.458843,0 -0.615163,-0.35449 -0.347375,-0.78775 z M 213.96699,149.93481 c -1.68396,-0.91419 -4.68125,-1.08917 -14.483,-0.84558 -11.26871,0.28005 -12.59546,0.16814 -15.03158,-1.26932 -2.18863,-1.29133 -3.9967,-1.56313 -9.99554,-1.50262 -4.02797,0.0406 -9.77889,0.44833 -12.7798,0.90599 -9.04701,1.37971 -33.39262,1.91147 -39.87266,0.87091 -3.16752,-0.50867 -11.78545,-1.07907 -19.15097,-1.26759 -7.365525,-0.18857 -14.630239,-0.71071 -16.143814,-1.16039 -1.513575,-0.44969 -3.885461,-0.81762 -5.270878,-0.81762 -1.385393,0 -2.737995,-0.35449 -3.005758,-0.78776 -0.267788,-0.43326 -1.68575,-0.78775 -3.151026,-0.78775 -1.4653,0 -2.883262,-0.35449 -3.151025,-0.78776 -0.267788,-0.43327 -1.508504,-0.78776 -2.757148,-0.78776 -1.248667,0 -2.489384,-0.35449 -2.757147,-0.78775 -0.267788,-0.43327 -1.331259,-0.78776 -2.363269,-0.78776 -1.032035,0 -2.070667,-0.31431 -2.308077,-0.69847 -0.237558,-0.38413 -1.693381,-0.93514 -3.235488,-1.22444 -1.542082,-0.28928 -4.574747,-1.5702 -6.73928,-2.84644 -2.164533,-1.27626 -4.132176,-2.32046 -4.37254,-2.32046 -0.813113,0 -8.160196,-8.34271 -8.156775,-9.26214 0.0012,-0.32163 -0.677125,-2.00278 -1.507445,-3.73584 -3.84307,-8.02155 -6.372285,-14.32055 -6.372285,-15.87007 0,-3.43252 -6.03478,-12.095282 -8.42599,-12.095282 -0.564895,0 -1.027086,-0.35449 -1.027086,-0.787756 0,-0.433266 -0.350453,-0.787757 -0.778771,-0.787757 -2.060648,0 -12.6130877,-10.399098 -12.6130877,-12.429811 0,-0.789085 -0.3201245,-1.771467 -0.7113933,-2.18307 C 7.1061217,75.145144 6.5089285,71.519495 5.668294,62.907742 5.2511278,58.633869 5.2973592,58.51152 8.4214779,55.620996 c 1.7475881,-1.616944 3.3849651,-2.939907 3.6385981,-2.939907 0.253608,0 1.204282,-0.692364 2.112565,-1.538562 2.252467,-2.098484 8.066995,-3.975732 12.314282,-3.975732 1.930569,0 4.885123,-0.411972 6.565703,-0.915472 3.853704,-1.154604 6.678205,0.137858 7.39073,3.382011 0.448578,2.042381 6.054056,7.774293 7.602809,7.774293 0.355279,0 0.645961,0.531736 0.645961,1.181635 0,1.139662 0.881031,1.509637 2.954086,1.240446 0.541583,-0.07041 0.984696,0.242235 0.984696,0.694407 0,0.45227 0.476789,0.822294 1.059532,0.822294 1.794361,0 3.667006,2.752544 3.667006,5.390076 0,2.27408 0.473269,3.646622 2.487587,7.214026 2.546718,4.510349 2.319893,6.600833 -1.035752,9.545491 -0.798514,0.700709 -1.451835,1.439649 -1.451835,1.642053 0,0.202355 2.138537,0.07558 4.752337,-0.281894 4.453211,-0.609009 9.67707,-0.198662 21.243623,1.668222 6.810499,1.099314 8.810194,1.718048 12.604102,3.899813 3.476468,1.999252 3.80799,2.035415 17.174472,1.874023 7.49626,-0.09059 15.62603,-0.533606 18.06613,-0.984695 2.4401,-0.451065 7.52118,-0.820129 11.29123,-0.820129 6.28029,0 12.98927,-1.297016 16.67491,-3.22372 0.75236,-0.393288 2.97272,-0.715062 4.93419,-0.715062 1.96144,0 4.18183,-0.325515 4.93416,-0.723382 6.66737,-3.525948 12.5079,-5.333036 20.66792,-6.394735 3.68276,-0.479177 8.82287,-1.154752 11.42247,-1.501242 2.59959,-0.346539 5.00791,-0.468124 5.35184,-0.270201 0.34393,0.197924 1.07696,-0.01477 1.62893,-0.473047 0.56315,-0.467361 6.33903,-0.991687 13.16043,-1.194657 13.30354,-0.395873 18.37499,-0.920223 20.89984,-2.160865 2.32464,-1.142272 21.58558,0.430361 21.58558,1.762457 0,0.393164 1.31095,0.71484 2.9132,0.71484 3.08687,0 13.2444,1.159577 21.11337,2.410312 2.5996,0.413179 8.44869,1.113863 12.99798,1.557075 4.54929,0.443211 11.10736,1.136634 14.57349,1.540974 18.25409,2.129404 21.6633,2.014343 21.6633,-0.731185 0,-0.822172 0.44312,-1.674647 0.9847,-1.894407 0.74226,-0.301193 0.69379,-0.614154 -0.19694,-1.271217 -0.91776,-0.677003 -0.66895,-0.752036 1.11421,-0.335929 1.88852,0.440651 2.21128,0.315251 1.8191,-0.70674 -0.39464,-1.028416 -0.0123,-1.167061 2.21977,-0.804866 1.95322,0.316974 2.81988,0.116194 3.14386,-0.728059 0.29211,-0.761243 1.13661,-1.033881 2.43407,-0.785861 1.79129,0.342428 3.32483,-0.119394 7.57364,-2.280776 0.75233,-0.382727 2.1026,-0.69586 3.00056,-0.69586 0.898,0 1.41361,-0.35449 1.14585,-0.787756 -0.26777,-0.433266 0.23189,-0.787757 1.11041,-0.787757 1.19289,0 1.46648,-0.349049 1.08063,-1.378573 -0.42406,-1.131588 -0.31001,-1.211028 0.63661,-0.443384 1.64304,1.332342 6.84498,-2.884444 10.26419,-8.320332 3.06676,-4.875572 5.45669,-6.745287 7.70849,-6.030595 2.33612,0.741451 8.83523,7.830643 10.49201,11.444598 0.79369,1.731341 1.48145,5.010057 1.52832,7.286058 0.11472,5.570274 -0.97414,14.715486 -1.81383,15.234445 -0.37303,0.230419 -0.67821,1.131981 -0.67821,2.00319 0,4.214497 -8.77655,12.502604 -13.23941,12.502604 -1.24192,0 -1.54767,0.34098 -1.1755,1.31085 0.33824,0.88143 0.20112,1.12428 -0.4186,0.74128 -0.61651,-0.38103 -0.92162,0.13269 -0.92162,1.55183 0,5.49495 -2.98584,10.53243 -8.96851,15.13093 -2.39911,1.84404 -8.61099,2.46826 -9.54377,0.95902 -0.26776,-0.43327 -1.35216,-0.78776 -2.40977,-0.78776 -1.05759,0 -1.92289,-0.35449 -1.92289,-0.78775 0,-0.43327 -0.68805,-0.78776 -1.52901,-0.78776 -0.84098,0 -1.74813,-0.35449 -2.01589,-0.78775 -0.26776,-0.43327 -1.17491,-0.78776 -2.01589,-0.78776 -0.84096,0 -1.52901,-0.27805 -1.52901,-0.61792 0,-0.33985 -0.99157,-1.20364 -2.20348,-1.91952 -1.21192,-0.7159 -2.69189,-2.21426 -3.28886,-3.32972 -1.00848,-1.88434 -1.36882,-1.99448 -5.08329,-1.55375 -2.19883,0.26089 -10.91043,1.89101 -19.35912,3.6225 -8.44868,1.73148 -17.31094,3.45793 -19.69391,3.83652 -7.26148,1.15364 -9.45342,1.6884 -9.90308,2.416 -0.58409,0.94506 -13.41519,0.88706 -16.43082,-0.0743 -1.33057,-0.42419 -5.07788,-1.52025 -8.32738,-2.43572 -3.24949,-0.9155 -6.76357,-2.00514 -7.80907,-2.42147 -2.73729,-1.09 -11.50725,-1.78793 -13.20129,-1.05059 -0.79238,0.34486 -1.70478,0.57134 -2.02754,0.5033 -0.55192,-0.11644 -10.40212,3.90237 -13.38513,5.46097 -0.75234,0.39307 -1.99305,0.72597 -2.75715,0.73976 -3.07735,0.0554 -3.88805,1.71809 -4.33419,8.88862 -0.40806,6.55841 -0.33822,6.98368 1.25642,7.65327 4.93468,2.07202 7.14121,6.73345 4.45765,9.41701 -0.87313,0.87316 -2.47373,1.58753 -3.5569,1.58753 -1.2254,0 -1.96939,0.44639 -1.96939,1.18164 0,1.45085 -0.58062,1.44481 -3.305,-0.0342 z m -13.70071,-4.77489 c 1.57034,-0.6026 0.83874,-1.88684 -1.0749,-1.88684 -2.07293,0 -2.61321,-2.16934 -1.23055,-4.94096 0.65601,-1.31499 1.19291,-2.42508 1.19311,-2.46683 2e-4,-0.0419 -8.84938,-6.2e-4 -19.66575,0.0913 -11.93945,0.10167 -19.85015,-0.13048 -20.13461,-0.59082 -0.25772,-0.41697 -2.7309,-0.75812 -5.49598,-0.75812 -2.76509,0 -5.21994,-0.31148 -5.45521,-0.69217 -0.23534,-0.38068 -2.47178,-0.89853 -4.96998,-1.15076 -2.49819,-0.25223 -7.55534,-0.85051 -11.23811,-1.32946 -3.68276,-0.47898 -9.00011,-1.13996 -11.81634,-1.46885 -2.81623,-0.32889 -6.71562,-1.21908 -8.66532,-1.9782 -1.9497,-0.75913 -6.29669,-2.3616 -9.65994,-3.56106 -3.363253,-1.19945 -6.34688,-2.4127 -6.630275,-2.69609 -0.283396,-0.2834 -1.498731,-0.51527 -2.700749,-0.51527 -1.202018,0 -2.404577,-0.35449 -2.672341,-0.78776 -0.267788,-0.43326 -1.113149,-0.78775 -1.878577,-0.78775 -0.765428,0 -2.197496,-0.85772 -3.182339,-1.90605 -0.984868,-1.04833 -2.819109,-2.33206 -4.076097,-2.85271 -1.257013,-0.52069 -2.285454,-1.21682 -2.285454,-1.54699 0,-0.33016 -0.708981,-0.78571 -1.575513,-1.01231 -1.732128,-0.45296 -2.231418,-3.65682 -0.590817,-3.79118 1.213268,-0.0995 -3.349762,-1.37616 -7.895018,-2.20914 -2.344215,-0.42962 -3.985038,-0.29531 -5.407406,0.44262 -1.123094,0.5827 -3.231401,1.05941 -4.685131,1.05941 -1.453731,0 -3.905426,0.70898 -5.448197,1.57551 -3.049036,1.71254 -5.120417,2.03121 -5.120417,0.78776 0,-0.43326 -0.531735,-0.78776 -1.181634,-0.78776 -0.649899,0 -1.181635,0.3545 -1.181635,0.78776 0,0.43327 -0.379822,0.78776 -0.844032,0.78776 -1.925399,0 -3.066981,2.33752 -2.982076,6.10609 0.06967,3.09367 0.638353,4.63979 2.804167,7.62423 1.494201,2.05898 2.945495,3.51485 3.225099,3.23527 0.279579,-0.2796 0.144012,-0.75497 -0.301317,-1.05636 -0.445304,-0.30139 -1.278849,-1.70775 -1.852286,-3.12528 -0.988043,-2.44239 -0.926426,-2.67711 1.177228,-4.48474 1.220899,-1.0491 2.507822,-1.72947 2.859802,-1.51193 0.916087,0.56618 0.792507,3.45355 -0.147705,3.45355 -1.449028,0 -0.809124,2.12707 1.263365,4.19956 1.128116,1.12811 2.102965,3.00349 2.16633,4.16747 0.08862,1.62857 0.750682,2.37807 2.872357,3.25179 1.516431,0.62447 3.820618,1.58743 5.120416,2.13991 1.299798,0.55249 3.958476,1.44187 5.908173,1.97639 1.949697,0.53451 4.359173,1.28941 5.354404,1.67755 0.995232,0.38814 2.658161,0.70573 3.695366,0.70573 1.037204,0 2.104909,0.35449 2.372697,0.78776 0.267764,0.43326 0.909046,0.75976 1.425052,0.72557 0.676485,-0.0448 0.663512,-0.17306 -0.04653,-0.45953 -0.541583,-0.21861 -0.984696,-1.07677 -0.984696,-1.90721 0,-1.86866 3.254148,-2.08197 5.007891,-0.32822 0.649899,0.64989 2.249487,1.18163 3.554676,1.18163 1.305165,0 2.592137,0.35449 2.859901,0.78776 0.267763,0.43326 2.327007,0.79903 4.576101,0.81281 2.33939,0.0148 4.743549,0.51995 5.618347,1.18164 0.98847,0.74763 3.35608,1.15231 6.69594,1.14451 5.47636,-0.0123 6.56693,-0.3811 7.33921,-2.47865 0.61826,-1.6793 10.60746,-2.45455 12.31187,-0.95553 2.15532,1.89564 0.39606,3.4409 -4.0218,3.53255 l -4.16043,0.0864 3.5449,0.75627 c 4.18902,0.89366 34.13063,0.21589 39.54672,-0.89504 2.03709,-0.41791 7.28028,-0.83017 11.65151,-0.91616 4.86937,-0.0958 7.66544,-0.43861 7.21898,-0.88507 -0.78175,-0.78175 -0.30068,-3.74691 0.60787,-3.74691 0.30103,0 1.30834,0.70898 2.23846,1.57551 0.9301,0.86653 2.05366,1.57551 2.4968,1.57551 0.44311,0 1.02302,0.86589 1.28862,1.92422 0.3281,1.30718 1.15387,2.02714 2.57522,2.24523 3.5183,0.53983 9.37687,0.58405 10.68865,0.0807 z m 13.06693,-16.17859 c 0,-2.886 -0.2667,-3.83362 -0.98469,-3.49892 -0.54159,0.25245 -1.60506,0.67784 -2.36327,0.94528 -1.95876,0.69089 -1.73029,4.09781 0.38994,5.81468 2.41602,1.95637 2.95802,1.35885 2.95802,-3.26104 z m -7.70603,3.06622 c -0.44501,-0.54159 -0.99346,-3.11164 -1.21876,-5.71124 -0.22525,-2.5996 -0.84585,-7.38522 -1.37904,-10.63471 -0.53316,-3.2495 -1.00298,-9.91916 -1.04402,-14.82146 -0.0739,-8.828415 -0.0916,-8.910071 -1.86588,-8.574043 -0.98518,0.186599 -1.95491,0.07434 -2.15498,-0.249227 -0.56046,-0.906855 -10.58131,-1.628292 -23.62523,-1.700815 -10.77944,-0.05982 -12.35357,0.115948 -17.93805,2.005209 -3.36694,1.138997 -7.67102,2.070913 -9.56462,2.070913 -3.00452,0 -3.50512,0.247823 -3.93137,1.946177 -0.26867,1.070413 -0.13859,3.463223 0.28921,5.317356 0.42772,1.85416 0.78635,4.70052 0.79693,6.32527 0.01,1.62474 0.37377,2.95408 0.80704,2.95408 0.43326,0 0.78775,1.21979 0.78775,2.71065 0,1.49087 0.35449,2.92976 0.78776,3.19752 0.43327,0.26777 0.78776,1.1344 0.78776,1.92585 0,2.05821 1.66497,4.98883 4.8041,8.45597 2.95436,3.26306 7.5908,4.97944 13.45082,4.97944 h 3.26496 l -4.54627,-4.26489 c -4.19758,-3.9378 -5.03455,-5.97595 -2.45406,-5.97595 0.56913,0 3.29551,1.8083 6.05864,4.01845 2.76313,2.21015 5.98111,4.51433 7.15108,5.12041 2.90908,1.50701 21.11162,1.58246 21.11162,0.0876 0,-1.71046 4.36311,-6.39294 5.37447,-5.76788 1.32001,0.81582 1.14916,3.59572 -0.25405,4.1342 -1.94534,0.7465 -1.33724,2.51991 0.98469,2.87167 4.22171,0.63953 4.37542,0.62117 3.5195,-0.42047 z m -30.35245,-11.34042 c -0.85777,-0.85775 -0.63988,-2.574 0.72036,-5.67424 2.38837,-5.44349 2.57204,-6.04263 3.39124,-11.06229 0.92394,-5.661554 1.09205,-5.981875 2.79651,-5.327791 2.57658,0.988708 0.8958,11.339281 -3.0806,18.970871 -1.6242,3.1172 -2.82957,4.09141 -3.82751,3.09345 z m -27.40164,7.23891 c -3.06673,-3.37012 -4.6502,-6.34727 -4.6502,-8.74308 0,-1.00809 -0.31532,-2.02774 -0.70073,-2.26594 -0.38539,-0.23829 -0.89986,-1.58843 -1.14328,-3.00056 -0.24347,-1.41215 -0.7882,-4.63883 -1.21066,-7.17041 -0.42246,-2.5316 -0.97145,-4.80624 -1.21999,-5.05476 -0.24853,-0.24853 -0.45731,2.88622 -0.46394,6.96616 -0.0123,7.85371 -0.61575,9.91965 -2.66559,9.13305 -1.84451,-0.7078 -1.88311,-18.462551 -0.0416,-19.169193 0.6967,-0.267345 1.73405,0.165429 2.4198,1.009412 1.11735,1.375271 1.16861,1.290791 0.74169,-1.222328 -0.25223,-1.484822 -0.60913,-2.850225 -0.79312,-3.03424 -0.46889,-0.468863 -2.04987,-0.418988 -18.94909,0.597858 -8.23205,0.495351 -15.91354,0.716119 -17.06994,0.4906 -1.95652,-0.381545 -2.136914,-0.179707 -2.596742,2.905491 -1.015861,6.81572 -2.163696,10.7062 -3.521173,11.93471 -2.408294,2.17947 -5.400882,-0.19694 -3.12013,-2.47777 0.880219,-0.88022 2.994779,-9.545562 3.03653,-12.443472 0.03077,-2.131226 -3.607014,-4.077599 -9.633054,-5.154191 -2.699272,-0.48223 -5.996427,-1.203668 -7.326996,-1.603134 -1.330545,-0.399515 -2.928214,-0.72636 -3.550344,-0.72636 -1.146481,0 -6.668998,5.467669 -5.625516,5.569659 1.004881,0.09822 -2.537585,1.407523 -3.963104,1.464783 -1.762581,0.0709 -1.762581,-1.364443 0,-3.317586 1.22469,-1.357083 1.048528,-1.33318 -1.578049,0.214171 -1.626126,0.95801 -3.153635,2.060623 -3.394442,2.450292 -0.240758,0.389668 -1.125925,0.708463 -1.96688,0.708463 -0.840954,0 -1.52901,0.354491 -1.52901,0.787757 0,0.433266 -0.67944,0.787756 -1.509883,0.787756 -0.830418,0 -1.643703,0.401534 -1.807286,0.892282 -0.174783,0.524473 -0.980362,0.67555 -1.954128,0.366479 -1.204602,-0.382333 -1.539817,-0.972732 -1.228407,-2.163622 0.372239,-1.423427 0.181184,-1.561063 -1.459467,-1.051458 -5.773737,1.793278 -12.907093,6.211021 -12.110425,7.500061 0.197186,0.31889 -0.159028,1.00914 -0.791301,1.5339 -0.99922,0.82929 -0.945185,1.35487 0.412957,4.01707 l 1.562588,3.06294 3.235611,-3.14004 c 1.779591,-1.72703 3.830933,-3.14005 4.558574,-3.14005 0.727641,0 1.659753,-0.28214 2.071356,-0.62695 3.071856,-2.57343 22.027072,-4.01153 24.202412,-1.83616 0.488187,0.48818 1.669452,0.8876 2.625025,0.8876 1.786632,0 8.376091,3.08116 8.844781,4.13572 0.144504,0.32495 0.64148,0.59082 1.104558,0.59082 1.160168,0 7.637643,4.94817 7.6677,5.85741 0.04997,1.5133 3.515536,4.38342 5.292788,4.38342 1.013522,0 2.458317,0.31912 3.210647,0.70913 0.75234,0.39004 3.84933,1.66522 6.88219,2.83376 3.03286,1.16853 6.22327,2.41723 7.08981,2.77485 0.86653,0.35764 3.70245,0.8793 6.30205,1.15928 2.59959,0.27995 7.38521,0.8651 10.63471,1.30034 3.24949,0.43523 7.72715,0.90139 9.95035,1.03592 2.22319,0.13441 4.70462,0.62947 5.51429,1.09986 2.65991,1.5454 2.73049,0.94558 0.21417,-1.81972 z m 65.854,-7.4506 c 2.16633,-0.99838 4.55431,-2.13093 5.30665,-2.51678 0.75235,-0.38585 1.84162,-0.70155 2.42062,-0.70155 0.57898,0 3.33111,-1.11125 6.1158,-2.46944 2.78469,-1.35819 5.94931,-2.77473 7.03247,-3.14788 1.72027,-0.59261 1.67044,-0.62053 -0.39387,-0.22081 -4.60341,0.89151 -7.08981,0.7589 -7.08981,-0.37813 0,-0.60268 0.53173,-1.3592 1.18163,-1.68117 2.74322,-1.35898 5.339,-2.26231 8.78691,-3.0578 3.84616,-0.88738 6.67967,-0.0926 8.7847,2.46381 0.51736,0.62831 3.24484,1.77868 6.06107,2.55637 2.81623,0.77769 7.09373,2.07672 9.50554,2.88673 2.41179,0.81001 5.31541,1.47274 6.45249,1.47274 1.13705,0 2.28649,0.35449 2.55425,0.78775 0.60645,0.98123 13.31119,1.04553 15.17499,0.0768 2.45121,-1.27405 21.7453,-5.40364 28.93937,-6.19403 1.73306,-0.19029 3.48779,-0.66435 3.89939,-1.05325 0.4116,-0.38888 2.20178,-0.70706 3.97817,-0.70706 1.77639,0 3.56657,-0.3233 3.97817,-0.71844 0.4116,-0.39515 2.87531,-0.93398 5.47491,-1.19739 2.59959,-0.2634 6.76485,-0.68057 9.25613,-0.92704 3.77796,-0.37374 4.5296,-0.69793 4.5296,-1.95363 0,-1.81364 0.12038,-1.80461 -3.56031,-0.26671 -2.69634,1.12662 -3.07717,1.12662 -4.20379,0 -1.12661,-1.12661 -1.1163,-1.36136 0.11373,-2.5915 0.74396,-0.74396 2.30702,-1.394423 3.47344,-1.44548 3.04525,-0.13318 3.04825,-1.400507 0.01,-3.7188 l -2.64748,-2.019315 -11.47906,1.28035 c -10.11533,1.128264 -13.24334,1.157657 -26.33004,0.247503 -8.16808,-0.568071 -20.16839,-1.328576 -26.66738,-1.689984 -6.49899,-0.361432 -13.41155,-1.055372 -15.36125,-1.542131 -7.17604,-1.791555 -7.87756,-1.836236 -7.87756,-0.501752 0,0.689066 -0.888,1.834709 -1.97333,2.545857 -1.57625,1.032797 -2.207,1.099067 -3.13448,0.329306 -1.46695,-1.217453 -0.29952,-3.722321 2.20522,-4.731486 1.3671,-0.550814 0.96114,-0.703663 -1.97439,-0.743322 -2.03337,-0.02757 -3.91537,-0.404464 -4.18313,-0.83773 -0.6164,-0.997324 -6.44864,-1.037426 -7.05981,-0.0485 -0.25127,0.406556 0.87989,0.849669 2.51373,0.984696 2.57797,0.21294 2.97057,0.505739 2.97057,2.21485 0,1.553924 -0.44883,2.021186 -2.12738,2.214901 -3.07245,0.354564 -5.5993,-1.200566 -5.09348,-3.134803 0.38927,-1.488663 0.12998,-1.547572 -4.84926,-1.101948 -2.89328,0.25895 -7.74195,0.670184 -10.77481,0.913822 -3.03286,0.243712 -5.85106,0.769884 -6.26266,1.1694 -0.4116,0.399515 -1.72489,0.726385 -2.91842,0.726385 -1.87203,0 -2.24385,0.393583 -2.70769,2.866054 -0.66671,3.553963 1.0392,23.677767 2.20889,26.057107 0.47197,0.96008 1.07057,1.64952 1.33021,1.53209 0.25966,-0.11742 2.24456,-1.03033 4.41089,-2.02872 z m -4.33266,-3.57306 c 0,-1.67896 2.43687,-2.81232 4.11536,-1.91403 2.4564,1.31462 1.68235,3.05652 -1.35821,3.05652 -1.88365,0 -2.75715,-0.36195 -2.75715,-1.14249 z m 156.47379,-1.02492 c 2.92671,-2.65506 5.01626,-5.52772 5.01626,-6.89627 0,-0.27606 -0.53174,0.0298 -1.18164,0.67969 -0.6499,0.6499 -1.18163,1.53167 -1.18163,1.95947 0,1.43763 -6.45773,5.90918 -9.34799,6.47287 l -2.86224,0.55822 3.15103,0.0896 c 2.60287,0.0741 3.7173,-0.42421 6.40621,-2.86349 z m -11.02335,7.8e-4 c -0.0815,-1.02775 0.59225,-1.44472 2.64775,-1.63843 1.51643,-0.14303 3.0448,-0.77075 3.39639,-1.39514 0.35156,-0.62442 0.94353,-0.94721 1.31547,-0.71733 0.37195,0.22993 1.40979,-0.56029 2.30628,-1.75588 0.89652,-1.19562 1.98838,-2.60201 2.42637,-3.12528 0.43797,-0.52331 0.79632,-2.23043 0.79632,-3.79364 0,-4.460273 2.57564,-8.170877 5.71124,-8.227866 0.75821,-0.01477 1.37857,-0.379526 1.37857,-0.812792 0,-0.433266 0.7976,-0.799548 1.77245,-0.813974 0.97485,-0.01477 2.52311,-0.653592 3.44063,-1.420399 1.83148,-1.530684 2.47941,-4.306565 3.30082,-14.141433 0.53193,-6.368789 1.83702,-9.037412 3.57154,-7.30292 0.69172,0.691749 0.26673,13.513197 -0.58905,17.770553 -0.26129,1.299798 -0.27025,1.831534 -0.0197,1.181634 0.25031,-0.649899 0.7557,-1.890615 1.12307,-2.757147 0.62122,-1.465202 1.28301,-6.081307 1.8947,-13.215819 0.14032,-1.636244 -0.0502,-3.163753 -0.42364,-3.394467 -0.37354,-0.230419 -0.67897,-1.461731 -0.67897,-2.735952 0,-1.27422 -0.35449,-2.316767 -0.78776,-2.316767 -0.43327,0 -0.78776,-0.471841 -0.78776,-1.048528 0,-0.576687 -0.83795,-1.496983 -1.8621,-2.04509 -2.61902,-1.40164 -5.7139,0.350454 -10.49459,5.941358 -7.36624,8.614583 -11.77868,12.799957 -15.64137,14.836406 -2.14834,1.132646 -4.33276,2.625248 -4.85431,3.316898 -0.84863,1.125457 -1.20664,1.040109 -3.4084,-0.812546 -2.88102,-2.424222 -5.38754,-2.633372 -7.68454,-0.64121 -1.55586,1.349403 -2.31322,6.448673 -0.95776,6.448673 0.30087,0 1.77366,1.191284 3.27286,2.64728 3.65472,3.549433 5.32006,9.974768 3.85616,14.878208 -0.55007,1.84254 -1.39381,3.59665 -1.87495,3.89804 -1.07337,0.67235 -0.98406,0.74618 3.41221,2.82093 4.37451,2.06449 4.57768,2.08155 4.44206,0.37293 z m 2.79238,-24.405945 c 0.1834,-1.584498 0.87234,-2.36066 2.61252,-2.943846 1.29979,-0.435629 2.54051,-0.973888 2.75714,-1.196158 0.21664,-0.222295 1.45735,-0.986715 2.75715,-1.698797 1.2998,-0.712107 3.42674,-2.728764 4.72654,-4.481472 2.47025,-3.331028 4.08513,-4.056921 4.81191,-2.162958 0.78717,2.051293 -4.04136,9.115031 -5.82442,8.520669 -0.52627,-0.17503 -0.95688,0.02831 -0.95688,0.452418 0,0.680129 -9.35968,5.66227 -10.6374,5.66227 -0.27271,0 -0.38366,-0.968325 -0.24656,-2.151831 z m -2.5079,-3.362169 c 0,-0.433266 0.37541,-0.787756 0.83426,-0.787756 0.45882,0 0.61514,0.35449 0.34737,0.787756 -0.26776,0.433266 -0.64317,0.787757 -0.83425,0.787757 -0.19104,0 -0.34738,-0.354491 -0.34738,-0.787757 z m -11.02859,22.057184 c 0,-0.43327 -0.37542,-0.78776 -0.83426,-0.78776 -0.45882,0 -0.61514,0.35449 -0.34737,0.78776 0.26776,0.43326 0.64317,0.78775 0.83425,0.78775 0.19104,0 0.34738,-0.35449 0.34738,-0.78775 z m -102.99915,-0.52172 c -0.54158,-0.2186 -1.42779,-0.2186 -1.96938,0 -0.54158,0.2186 -0.0985,0.39732 0.98469,0.39732 1.08316,0 1.52628,-0.17872 0.98469,-0.39732 z M 39.239049,96.04565 c 0.962909,-1.055717 7.382508,-3.976742 8.739763,-3.976742 0.825569,0 1.50107,-0.35449 1.50107,-0.787756 0,-0.433266 -0.898707,-0.787757 -1.99711,-0.787757 -1.098428,0 -2.908815,-0.597365 -4.023121,-1.327492 -1.863487,-1.220998 -1.917547,-1.406761 -0.674147,-2.315979 0.767176,-0.560957 2.933088,-0.88278 5.007816,-0.744061 2.010773,0.134411 2.503859,0.09182 1.095745,-0.09478 -3.174068,-0.420613 -3.387402,-2.314502 -0.393878,-3.49685 1.191481,-0.470586 2.781863,-1.17196 3.534195,-1.558601 0.752356,-0.386641 1.861025,-0.702999 2.463757,-0.702999 0.602732,0 1.535706,-0.529963 2.073276,-1.177696 0.787634,-0.949049 0.726361,-1.560791 -0.315595,-3.151025 -0.711147,-1.085331 -1.795616,-1.97333 -2.409968,-1.97333 -1.629228,0 -2.27568,-1.47303 -1.209944,-2.757147 1.216222,-1.465473 0.3828,-2.709759 -1.487408,-2.220685 -2.017862,0.527673 -3.034905,-1.31255 -1.390094,-2.515282 0.716095,-0.523612 1.301989,-1.356049 1.301989,-1.849873 0,-1.106601 -2.089696,-1.190054 -2.757148,-0.11004 -0.267787,0.433266 -1.917103,0.787756 -3.665159,0.787756 -2.515774,0 -3.264167,-0.32842 -3.590274,-1.575512 -0.226726,-0.866532 -0.725154,-1.575513 -1.107905,-1.575513 -1.249997,0 -0.73025,-2.969276 0.609772,-3.483484 1.162384,-0.446042 1.122775,-0.671365 -0.36094,-2.053656 -1.940268,-1.807654 -5.856033,-2.16308 -5.207365,-0.472678 0.227957,0.593993 -0.131703,1.289557 -0.799203,1.545676 -1.342485,0.515168 -1.012513,2.061411 1.120756,5.251898 3.378367,5.05262 4.502741,11.008256 2.084378,11.040652 -0.495228,0.0074 -1.409345,0.334107 -2.031402,0.727715 -0.933688,0.590817 -0.952471,0.930734 -0.107578,1.948663 0.562828,0.678159 1.333573,1.041241 1.71278,0.806884 0.379206,-0.234358 0.476641,0.128502 0.216386,0.806465 -0.260132,0.677914 -0.119886,1.671176 0.311952,2.207244 0.43169,0.536069 1.031321,2.127041 1.33249,3.535525 0.423542,1.980813 0.257153,2.672291 -0.734632,3.052876 -1.546883,0.593599 -3.508987,-1.724965 -3.544756,-4.188673 -0.01477,-0.949271 -0.431223,-1.976998 -0.927682,-2.283829 -0.638452,-0.394592 -0.74443,0.07262 -0.362072,1.596019 0.297328,1.184638 0.325146,2.832698 0.06179,3.662403 -0.85634,2.69809 -2.427028,1.596782 -3.537223,-2.480202 -0.59739,-2.193779 -1.408361,-4.187836 -1.802165,-4.431204 -0.888614,-0.549213 0.123826,4.575068 1.110983,5.623375 0.387625,0.411602 0.704771,2.383086 0.704771,4.381058 0,2.436555 0.476543,4.144214 1.447305,5.186194 0.796004,0.85442 1.69311,2.532883 1.993541,3.729878 l 0.546235,2.176395 2.536059,-1.770946 c 1.394821,-0.974012 2.713304,-1.965255 2.929937,-2.202764 z M 379.5498,97.719632 c 0,-0.358232 -1.06347,-0.495228 -2.36327,-0.304468 -1.2998,0.190785 -2.36327,0.483855 -2.36327,0.651327 0,0.167398 1.06347,0.304468 2.36327,0.304468 1.2998,0 2.36327,-0.293095 2.36327,-0.651327 z M 54.20642,94.432177 c 0,-0.433266 0.355525,-0.787756 0.790071,-0.787756 0.434546,0 2.472865,-1.056726 4.529599,-2.348302 3.049873,-1.915233 3.403083,-2.351059 1.915282,-2.363269 -2.275607,-0.01969 -4.266686,1.027136 -6.823669,3.584144 -2.164459,2.164434 -2.403322,2.70294 -1.199039,2.70294 0.433266,0 0.787756,-0.354491 0.787756,-0.787757 z m 272.58435,-3.158632 c 9.83911,-1.172354 10.22018,-1.305042 10.22018,-3.558985 0,-1.752536 -0.16469,-1.858219 -1.54868,-0.993878 -1.48278,0.926008 -16.34518,-0.2847 -42.1718,-3.435307 -3.46612,-0.422828 -9.31522,-1.103622 -12.99798,-1.512886 -3.68276,-0.409239 -9.00011,-1.106207 -11.81634,-1.548803 -11.89271,-1.869001 -10.9622,-1.856815 -10.51264,-0.137611 0.50065,1.914494 -0.75922,2.808819 -2.96888,2.107494 -1.33608,-0.424059 -1.56394,-0.959758 -1.19428,-2.808006 l 0.4568,-2.283952 -5.69154,0.0049 c -5.62766,0.0049 -5.66523,0.01969 -3.34627,1.227768 2.91977,1.522437 3.71772,2.752051 2.63362,4.058324 -1.53834,1.85359 -3.85501,0.613416 -4.8786,-2.611659 -0.45882,-1.445656 -0.88593,-1.524505 -5.02738,-0.928125 -2.48929,0.358454 -6.83017,0.861067 -9.6464,1.116916 -5.17649,0.47029 -6.35249,1.14365 -8.47505,4.852653 -0.9056,1.582455 -0.82483,1.73235 0.93339,1.73235 1.05865,0 2.92273,-0.389398 4.1424,-0.865326 3.11626,-1.215951 25.36865,-1.397184 24.91015,-0.202847 -0.21516,0.560587 0.93922,1.039888 3.05425,1.268066 1.87011,0.201863 5.3499,0.904812 7.73286,1.562343 2.64913,0.730939 10.14857,1.424534 19.30004,1.785006 8.23205,0.324236 17.27155,0.845411 20.08778,1.15815 7.94524,0.882386 19.46374,0.888195 26.80437,0.01231 z M 68.779913,89.705639 c 0.267764,-0.433266 0.111517,-0.787756 -0.3474,-0.787756 -0.458844,0 -0.834234,0.35449 -0.834234,0.787756 0,0.433266 0.15632,0.787756 0.347376,0.787756 0.191031,0 0.56647,-0.35449 0.834258,-0.787756 z M 211.36382,87.34237 c 0.26776,-0.433266 1.19335,-0.787757 2.05686,-0.787757 1.03619,0 1.85009,-0.803511 2.39382,-2.363269 0.45313,-1.299798 1.14367,-2.363269 1.53455,-2.363269 0.39087,0 0.7107,-0.385976 0.7107,-0.857719 0,-1.633733 -27.69513,1.676764 -39.38782,4.708174 -2.27519,0.589857 -1.44898,0.742633 4.72654,0.873966 4.11603,0.08764 8.36991,0.44299 9.45308,0.789874 2.90034,0.928838 17.93819,0.928838 18.51227,0 z m 145.54657,-7.90228 c 3.59402,-1.722232 8.10141,-5.322796 7.46284,-5.961371 -0.21516,-0.215156 -0.87631,0.08025 -1.46946,0.65593 -0.59318,0.575801 -2.1221,1.126147 -3.39762,1.222968 -1.27553,0.09675 -2.51624,0.442079 -2.75715,0.76725 -0.57814,0.780297 -5.70648,2.552183 -7.38682,2.552183 -2.17322,0 -1.49572,1.444646 0.84369,1.799038 1.19148,0.180446 2.43606,0.381274 2.76574,0.44619 0.32965,0.06499 2.1021,-0.602067 3.93878,-1.482188 z m 1.36998,60.63546 c 0,-0.45882 0.3545,-0.61514 0.78776,-0.34738 0.43327,0.26777 0.78776,0.64318 0.78776,0.83426 0,0.19103 -0.35449,0.34738 -0.78776,0.34738 -0.43326,0 -0.78776,-0.37542 -0.78776,-0.83426 z M 44.605639,138.79616 c 0.568662,-0.22747 1.248102,-0.19965 1.509859,0.0623 0.261756,0.26178 -0.203586,0.44796 -1.033931,0.41374 -0.917687,-0.0379 -1.10436,-0.22451 -0.475928,-0.47592 z M 222.5168,138.19279 c -0.29277,-0.76297 -0.0596,-0.99627 0.70347,-0.7035 1.24603,0.47815 1.57054,1.845 0.43804,1.845 -0.38691,0 -0.90058,-0.51369 -1.14151,-1.1415 z M 393.33553,62.921922 c -0.26776,-0.433266 -0.11151,-0.787756 0.34738,-0.787756 0.45884,0 0.83426,0.35449 0.83426,0.787756 0,0.433266 -0.15632,0.787756 -0.34738,0.787756 -0.19103,0 -0.56649,-0.35449 -0.83426,-0.787756 z m -2.25426,-6.695929 c -0.27621,-0.719788 -0.002,-1.181635 0.70347,-1.181635 0.63631,0 1.15692,0.531736 1.15692,1.181635 0,0.649899 -0.31658,1.181634 -0.70347,1.181634 -0.38691,0 -0.90752,-0.531735 -1.15692,-1.181634 z"
     id="path817"
     inkscape:connector-curvature="0" />
</svg>
