<?xml version="1.0" encoding="UTF-8" standalone="no"?>
<svg
   xmlns:dc="http://purl.org/dc/elements/1.1/"
   xmlns:cc="http://creativecommons.org/ns#"
   xmlns:rdf="http://www.w3.org/1999/02/22-rdf-syntax-ns#"
   xmlns:svg="http://www.w3.org/2000/svg"
   xmlns="http://www.w3.org/2000/svg"
   xmlns:sodipodi="http://sodipodi.sourceforge.net/DTD/sodipodi-0.dtd"
   xmlns:inkscape="http://www.inkscape.org/namespaces/inkscape"
   id="svg"
   version="1.1"
   width="400"
   height="377.93103448275866"
   viewBox="0, 0, 400,377.93103448275866"
   sodipodi:docname="B5.svg"
   inkscape:version="0.92.5 (2060ec1f9f, 2020-04-08)">
  <metadata
     id="metadata11">
    <rdf:RDF>
      <cc:Work
         rdf:about="">
        <dc:format>image/svg+xml</dc:format>
        <dc:type
           rdf:resource="http://purl.org/dc/dcmitype/StillImage" />
      </cc:Work>
    </rdf:RDF>
  </metadata>
  <defs
     id="defs9" />
  <sodipodi:namedview
     pagecolor="#ffffff"
     bordercolor="#666666"
     borderopacity="1"
     objecttolerance="10"
     gridtolerance="10"
     guidetolerance="10"
     inkscape:pageopacity="0"
     inkscape:pageshadow="2"
     inkscape:window-width="1366"
     inkscape:window-height="693"
     id="namedview7"
     showgrid="false"
     inkscape:zoom="0.62445256"
     inkscape:cx="186.36991"
     inkscape:cy="306.56566"
     inkscape:window-x="0"
     inkscape:window-y="0"
     inkscape:window-maximized="1"
     inkscape:current-layer="svg" />
  <path
     style="fill:#ffffff;stroke-width:2.21044469"
     d="m 314.3962,347.89978 -15.47312,-1.10522 -9.61612,-14.73897 -9.61613,-14.73897 -23.54054,1.18113 c -18.53638,0.92998 -25.65505,2.25549 -33.48755,6.23518 -9.87434,5.01709 -50.94364,11.46731 -55.41579,8.70335 -1.13071,-0.69877 -2.05578,-3.12204 -2.05578,-5.38505 0,-3.46391 -2.35903,-4.34187 -14.9205,-5.5525 -8.20628,-0.79093 -19.32523,-2.85949 -24.7087,-4.59683 -5.38347,-1.73734 -13.83842,-3.18311 -18.78878,-3.21281 -4.95036,-0.0276 -13.476738,-1.0892 -18.947589,-2.35433 -15.669429,-3.62354 -37.577631,-5.82763 -37.577631,-3.78049 0,1.02448 -2.486751,2.99578 -5.526112,4.38055 -3.426397,1.56127 -5.526112,4.34277 -5.526112,7.32079 0,2.64162 -0.746026,5.55588 -1.657834,6.47626 -0.911809,0.92037 -1.657834,3.803 -1.657834,6.40594 0,10.5405 -17.320907,5.53978 -22.332884,-6.44766 -2.369458,-5.66717 -2.326217,-8.61715 0.252129,-17.184 1.711921,-5.68831 2.534828,-11.84799 1.82866,-13.68825 -0.706237,-1.84027 0.432418,-7.84066 2.530545,-13.33416 3.337564,-8.73921 4.545918,-9.90356 9.66289,-9.31109 4.057064,0.46972 6.542364,-0.67073 8.114267,-3.72412 3.559852,-6.91447 8.720826,-6.39274 17.64605,1.78383 7.167229,6.56606 10.22987,7.74216 23.331383,8.95983 8.481961,0.7883 20.024904,0.34124 26.379102,-1.02129 9.21777,-1.9769 14.12523,-1.73009 26.65451,1.34036 16.84829,4.1289 22.95782,3.4762 30.7542,-3.28555 2.84166,-2.46458 7.41266,-4.48106 10.15768,-4.48106 2.74503,0 11.29641,-1.97655 19.0032,-4.39236 17.11451,-5.36489 36.62748,-5.71538 46.84796,-0.84162 10.70691,5.10578 23.5306,2.63022 23.5306,-4.54254 0,-6.9238 3.64198,-9.52308 17.51094,-12.49737 9.64776,-2.06911 13.08756,-1.91328 19.74321,0.8944 4.43297,1.86997 11.71749,3.99538 16.18777,4.7231 5.31246,0.86477 11.9286,4.74023 19.10018,11.18817 l 10.97237,9.86507 7.90676,-3.30364 c 13.56875,-5.66938 22.11799,-4.38097 29.92425,4.50986 7.73351,8.808 8.44065,14.67272 3.3138,27.48577 -2.99764,7.49203 -4.96432,9.24249 -12.71006,11.31313 -5.03995,1.34726 -10.28596,3.36844 -11.65775,4.49148 -1.53791,1.25892 -4.83355,1.15234 -8.59573,-0.27768 -3.35587,-1.27591 -6.61807,-1.80331 -7.24943,-1.17195 -2.041,2.041 -7.08074,-3.64979 -7.08074,-7.9956 0,-6.44842 -5.12651,-7.03004 -14.29315,-1.62163 l -8.30057,4.89744 5.77071,3.02362 c 3.17393,1.66294 5.77078,3.92782 5.77078,5.03297 0,3.74056 -4.30553,4.69809 -9.24304,2.05558 -3.65283,-1.95493 -5.12975,-1.98118 -5.756,-0.10224 -0.4635,1.3901 -2.31033,2.52744 -4.10445,2.52744 -1.79405,0 -2.64715,0.9947 -1.89573,2.21045 0.75134,1.21574 4.35575,2.21044 8.00982,2.21044 3.65407,0 11.58971,2.12769 17.63486,4.72828 18.23493,7.84439 10.63445,12.7046 -16.8029,10.74483 z m 5.52611,-7.73656 c 0,-4.12048 -11.10065,-4.52119 -15.30733,-0.55261 -2.36435,2.23048 -2.7214,2.12396 -1.85242,-0.55261 0.59198,-1.82362 -0.21759,-6.79712 -1.79834,-11.05223 -1.58116,-4.2551 -3.20632,-15.49349 -3.61152,-24.97415 -0.61409,-14.37273 -0.2694,-16.59865 2.07464,-13.39281 1.54628,2.11463 2.81141,5.14674 2.81141,6.73799 0,1.59124 1.93994,2.89319 4.31099,2.89319 2.37112,0 5.20408,1.59574 6.29555,3.54611 1.81899,3.25032 2.5655,3.24562 8.95162,-0.0553 6.5016,-3.36216 9.11504,-6.03894 5.30935,-5.43804 -5.75877,0.90932 -13.81528,-0.63482 -13.81528,-2.64784 0,-1.43016 2.43528,-1.88896 6.07872,-1.14529 3.66906,0.74893 7.74588,-0.0345 10.28458,-1.97275 5.83467,-4.45805 2.38921,-16.58421 -5.83551,-20.53773 -6.40711,-3.07977 -19.89994,-1.33303 -14.67017,1.89912 1.60002,0.98883 2.27821,2.4288 1.50704,3.19997 -0.7711,0.7711 -3.97065,-0.28115 -7.11017,-2.3381 -7.15784,-4.69001 -18.78222,-2.90232 -26.98021,4.14928 l -5.79689,4.98628 5.76705,15.98759 c 5.56349,15.42324 19.24959,39.53795 24.33928,42.8854 1.35811,0.89315 6.1994,1.63918 10.75844,1.65783 5.90956,0.0207 8.28917,-0.91803 8.28917,-3.28182 z m -31.91654,-32.27318 c -3.92596,-10.91767 -3.28707,-18.57831 0.69836,-8.374 1.13416,2.90404 3.11341,7.98026 4.39823,11.28052 1.28489,3.30027 1.55747,6.48172 0.6058,7.0699 -0.95166,0.58784 -3.51778,-3.90122 -5.70232,-9.97642 z m -8.63511,-21.41175 c 1.17251,-4.48382 10.7704,-6.16121 13.15712,-2.29942 1.05176,1.70177 0.0553,2.13066 -3.06333,1.3157 -2.82301,-0.73822 -5.08278,-0.0138 -5.80235,1.86223 -1.73333,4.5169 -5.50069,3.74567 -4.29144,-0.87851 z m 14.02631,-7.9737 c 0,-1.89843 2.12134,-2.95944 5.52453,-2.76306 6.26301,0.36127 7.23112,2.50782 2.03119,4.50316 -5.4482,2.09067 -7.55572,1.60534 -7.55572,-1.7401 z M 31.122441,327.97966 c -1.124909,-5.62447 -0.116048,-7.80356 6.500918,-14.04433 l 7.832435,-7.3869 -4.16358,-6.34701 c -3.837056,-5.84932 -3.890935,-6.76313 -0.686619,-11.65381 2.885943,-4.40452 2.96766,-5.62966 0.480772,-7.20536 -5.17631,-3.27996 -7.916294,-2.16555 -10.111542,4.11246 -12.1781,34.82756 -12.273011,35.32788 -8.052305,42.47294 5.256645,8.89884 9.974839,8.92875 8.199507,0.0483 z m -5.189364,-8.64608 c 0,-2.97471 11.058786,-15.6427 13.655713,-15.6427 1.215745,0 -0.364723,3.06043 -3.512189,6.80092 -3.147397,3.74049 -5.722635,7.71929 -5.722635,8.84178 0,1.12249 -0.9947,2.04086 -2.210445,2.04086 -1.215744,0 -2.210444,-0.91837 -2.210444,-2.04086 z m 168.051833,8.67233 c 12.90554,-1.52292 22.33116,-4.10086 30.30762,-8.28917 11.34089,-5.955 16.46525,-11.83624 11.6976,-13.42541 -1.48259,-0.49389 -1.85905,-3.67604 -0.98572,-8.33137 0.93101,-4.96252 0.56021,-7.53175 -1.0874,-7.53175 -3.46066,0 -19.22065,10.0654 -31.14828,19.89325 -11.10582,9.15075 -19.70839,14.18587 -21.38039,12.51388 -0.60925,-0.60926 1.71407,-2.89672 5.16284,-5.08334 3.44878,-2.18661 11.7414,-8.36577 18.428,-13.73135 6.68659,-5.36558 16.29464,-11.76799 21.35131,-14.22753 7.06043,-3.4342 9.41242,-5.9615 10.13599,-10.89141 0.77248,-5.26314 -0.16716,-6.99316 -5.21582,-9.60397 -9.34217,-4.83106 -15.36901,-3.92444 -31.76982,4.77905 -8.25346,4.37986 -19.59373,8.64381 -25.2006,9.47535 -8.45695,1.25422 -10.09074,2.25155 -9.58663,5.85181 0.33433,2.38693 1.14066,10.30813 1.79198,17.6026 1.67601,18.76923 2.82191,23.20967 5.98962,23.20967 1.52838,0 11.20778,-0.99463 21.5097,-2.21031 z m 17.68957,-15.3869 c -4.91582,-3.10886 -2.36165,-3.7628 10.74027,-2.7498 7.96638,0.61616 10.89377,1.56396 8.84178,2.8635 -4.03088,2.55265 -15.47097,2.48619 -19.58205,-0.11398 z m -46.48331,3.33811 c 0,-8.33779 -4.57299,-27.73935 -6.53822,-27.73935 -6.49249,0 -15.53804,3.07217 -13.23545,4.49528 1.8967,1.17223 1.28537,2.41118 -2.07789,4.21111 -2.62083,1.40266 -5.92199,1.83536 -7.33584,0.96154 -1.73168,-1.07027 -1.17575,-2.13501 1.70356,-3.26255 3.62478,-1.41945 3.37245,-1.69741 -1.66067,-1.82914 -3.2642,-0.0856 -8.73505,-1.30596 -12.15744,-2.71222 -3.73945,-1.53646 -20.40697,-2.63913 -41.767327,-2.76305 l -35.544712,-0.20654 0.256964,7.73656 c 0.246603,7.42937 0.605109,7.75168 9.019375,8.11689 4.819322,0.2093 6.77301,-0.14644 4.341521,-0.79051 -5.416557,-1.43444 -9.947002,-4.95168 -9.947002,-7.7224 0,-1.13582 2.210721,-0.51669 4.912713,1.37593 2.701993,1.89249 7.178144,3.44098 9.947002,3.44098 2.768859,0 5.034288,1.32012 5.034288,2.9336 0,3.12281 22.017827,8.11862 35.780818,8.11862 4.20226,0 12.0452,1.41026 17.42867,3.134 5.38354,1.72366 14.26434,3.64799 19.73519,4.27624 8.23792,0.946 9.18744,0.70631 5.52612,-1.39527 -2.43149,-1.39569 -8.89704,-3.18712 -14.3679,-3.98095 l -9.947,-1.44335 10.61684,-0.29564 c 8.01272,-0.22312 12.61169,1.06018 18.74934,5.23081 10.11824,6.87552 11.52705,6.88885 11.52705,0.10914 z M 96.66738,295.2742 c 0,-0.98199 4.9735,-1.78535 11.05223,-1.78535 6.07872,0 11.05222,0.80336 11.05222,1.78535 0,0.98192 -4.9735,1.78535 -11.05222,1.78535 -6.07873,0 -11.05223,-0.80343 -11.05223,-1.78535 z m 265.25338,18.2332 c 0,-3.66582 3.4972,-4.25753 5.54836,-0.93868 1.5605,2.52488 5.50387,0.8218 5.50387,-2.37699 0,-1.14397 -1.82362,-2.07996 -4.05251,-2.07996 -2.22889,0 -4.79853,-0.74602 -5.71034,-1.65783 -0.91181,-0.91181 -2.81832,-1.70301 -4.23666,-1.75827 -1.41835,-0.0553 -2.33016,-1.29864 -2.02622,-2.76306 0.76551,-3.68847 -3.01014,-3.32679 -9.47217,0.90725 -6.1507,4.03006 -8.0005,15.56602 -2.13515,13.31531 1.82223,-0.69933 5.55236,-0.42482 8.28917,0.60925 5.79005,2.1882 8.29165,1.20559 8.29165,-3.25695 z m -111.04487,-0.67833 c 7.1253,-3.55336 17.94135,-6.45561 19.2355,-5.16146 0.70706,0.707 -1.4734,2.50747 -4.84544,4.00104 -6.08369,2.6946 -6.05855,2.71692 3.26352,2.89506 5.16691,0.0988 9.39439,-0.16233 9.39439,-0.57955 0,-0.41791 -1.9894,-6.54146 -4.42089,-13.60874 -6.26033,-18.19576 -5.82176,-21.75907 3.28113,-26.66128 6.44448,-3.4706 7.11404,-4.47684 4.10099,-6.16306 -2.42002,-1.35432 -8.9333,-0.34331 -19.85946,3.08363 -17.0283,5.34037 -19.35493,8.26417 -13.73605,17.26144 3.33674,5.34292 0.59406,20.21583 -3.72778,20.21583 -1.76856,0 -3.2155,1.49205 -3.2155,3.31567 0,3.69268 4.68496,4.31623 10.52959,1.40156 z m 63.12015,-0.94856 c 6.07851,-2.5981 5.98374,-2.66338 -3.86828,-2.66338 -9.75069,0 -11.7425,0.93578 -8.62585,4.05244 2.05758,2.05765 5.26432,1.70107 12.49413,-1.38906 z M 23.644368,297.54129 c 0.04145,-2.77446 1.510494,-8.47229 3.261028,-12.66178 1.7658,-4.22616 2.299692,-8.16296 1.199304,-8.84309 -3.363882,-2.07899 -8.191494,10.41886 -9.277029,24.01648 -0.92072,11.53321 -0.719224,12.37442 1.852629,7.73656 1.587168,-2.86204 2.920965,-7.47365 2.964068,-10.24817 z m 284.627032,7.02465 c -0.73456,-0.73449 -2.64107,-0.81296 -4.23666,-0.17407 -1.76338,0.70568 -1.23958,1.22942 1.33545,1.33552 2.33016,0.096 3.6357,-0.4262 2.90121,-1.16097 z m 41.21699,-14.06851 c -2.70227,-2.56149 -3.81999,-2.7127 -4.59524,-0.62169 -0.56366,1.51968 -1.97116,2.76306 -3.1284,2.76306 -1.23723,0 -1.11924,-1.84013 0.28667,-4.46662 2.39895,-4.48251 1.3405,-8.79605 -2.15843,-8.79605 -1.03014,0 -1.39231,1.83826 -0.80474,4.08504 0.58784,2.24678 -0.42482,7.65919 -2.25037,12.02751 -3.00282,7.18685 -2.98086,8.00754 0.2314,8.62612 1.95238,0.37578 6.34895,-1.7725 9.7701,-4.77456 5.69542,-4.99761 5.91895,-5.7437 2.64943,-8.84288 z m -105.40796,2.69398 c -0.55607,-2.12756 -1.01087,-0.38683 -1.01087,3.86827 0,4.25511 0.45522,5.99584 1.01087,3.86828 0.55606,-2.12755 0.55606,-5.609 0,-7.73655 z M 132.0345,284.78792 c -5.47085,-1.7238 -13.42845,-3.06927 -17.68356,-2.98991 l -7.73656,0.14437 9.94701,2.84906 c 5.47085,1.567 13.42845,2.91247 17.68355,2.98997 7.71867,0.14092 7.71356,0.13332 -2.21044,-2.99342 z m -79.774818,-9.55279 c -3.782693,-3.06561 -6.121413,-3.65946 -8.066052,-2.04818 -3.374796,2.79621 -1.642291,5.91563 4.622731,8.32357 7.270568,2.79441 9.537241,-1.33663 3.443321,-6.27539 z m 12.862785,7.22636 c -0.734558,-0.73449 -2.641067,-0.81296 -4.236732,-0.17476 -1.763313,0.70568 -1.239506,1.22942 1.335524,1.33552 2.330154,0.096 3.635698,-0.4262 2.901208,-1.16096 z m 123.910013,-6.9191 c 10.12093,-4.70494 7.81578,-5.45455 -4.95437,-1.61135 -5.91128,1.77906 -13.07644,3.23464 -15.92259,3.23464 -2.84616,0 -5.17479,1.08215 -5.17479,2.40476 0,3.09179 16.08609,0.60442 26.05175,-4.02805 z M 43.111549,267.08198 c -0.740914,-0.74092 -2.538627,0.97612 -3.994896,3.81564 -2.531236,4.93565 -2.471899,4.99491 1.347197,1.3472 2.197182,-2.09861 3.388681,-4.42193 2.647699,-5.16284 z m 290.073431,4.58895 c 0,-0.5906 -3.87885,-3.64074 -8.61956,-6.77798 -6.52523,-4.31818 -10.68771,-5.49027 -17.13095,-4.82389 l -8.51139,0.88031 8.84178,0.49874 c 4.97703,0.28114 12.22342,2.80312 16.57834,5.77029 8.58433,5.84891 8.84178,5.9785 8.84178,4.45225 z m -23.20967,-5.73037 c 3.09911,-1.45295 1.21105,-1.68588 -6.31476,-0.77904 -8.18472,0.9862 -10.33583,0.64655 -9.05288,-1.4292 1.08865,-1.76151 0.76903,-2.15808 -0.90524,-1.12332 -7.51206,4.6427 7.09677,7.63357 16.27288,3.33156 z m -33.70929,-6.15644 c -0.69007,-3.13675 0.65899,-3.16894 5.5561,-0.13262 2.75255,1.70674 5.65949,1.68353 10.27691,-0.0822 10.29217,-3.93556 3.95034,-7.56014 -10.14035,-5.79551 -9.366,1.17291 -12.26631,2.5266 -14.1932,6.62442 -2.27593,4.84012 -2.0763,5.05232 3.31567,3.52421 3.15562,-0.89433 5.48881,-2.75663 5.18487,-4.13843 z m 42.11437,-31.2742 c -3.111,-1.25284 -5.71766,-5.1502 -7.24943,-10.83898 -1.31556,-4.88543 -3.89363,-9.72313 -5.72913,-10.75029 -5.93498,-3.3214 -12.06226,-34.59927 -11.57092,-59.06599 0.24384,-12.15745 -0.34469,-26.36923 -1.30858,-31.58167 -2.00833,-10.86115 -1.74902,-10.85957 -24.88367,-0.15127 -7.50177,3.47219 -16.41207,6.3131 -19.80068,6.3131 -4.54185,0 -8.90706,2.92469 -16.60853,11.12779 -8.3237,8.86582 -13.54014,12.17976 -25.66209,16.30272 -8.36812,2.84616 -18.4186,6.83159 -22.33433,8.8565 -8.05452,4.16517 -11.41052,3.12211 -11.41052,-3.54639 0,-4.42731 -0.8084,-4.53728 -24.86751,-3.38294 -15.98131,0.76681 -27.98195,2.52287 -33.58308,4.91437 -4.79356,2.04659 -15.420479,5.11918 -23.615426,6.82786 -22.510687,4.6936 -25.495409,6.29507 -28.456784,15.26795 -2.234,6.76921 -2.096192,8.61784 0.888599,11.91596 4.67668,5.16774 4.455428,8.18486 -0.874024,11.91775 -2.423752,1.69762 -3.774058,3.71942 -3.000678,4.4928 2.959716,2.95971 -4.521742,8.14431 -11.752383,8.14431 -8.572658,0 -18.417703,-8.09734 -18.417703,-15.14818 0,-2.36331 -2.9841,-9.96979 -6.631334,-16.90327 -8.774015,-16.67981 -8.658658,-27.63056 0.291502,-27.63056 2.487856,0 5.107164,-2.28297 6.340178,-5.52611 1.762346,-4.63544 3.623955,-5.56832 11.550127,-5.78784 5.196963,-0.14368 10.316836,-0.10362 11.377505,0.0905 3.747118,0.68385 31.42617,-9.39059 46.519087,-16.9318 11.270994,-5.63159 19.582404,-8.05003 31.615304,-9.19939 13.62719,-1.30168 17.30951,-2.54533 22.28667,-7.52705 8.44563,-8.45329 47.67363,-33.891647 57.02077,-36.976461 4.30844,-1.421938 11.49273,-2.099715 15.96508,-1.506211 6.5787,0.872988 10.90267,-0.533961 22.64166,-7.368034 7.98053,-4.645872 17.43018,-9.141917 20.99922,-9.99128 3.56904,-0.849363 11.74216,-3.98557 18.1624,-6.969325 9.47127,-4.401756 14.05787,-5.225008 24.31489,-4.364178 6.95296,0.583695 15.12842,1.714269 18.16779,2.512654 4.33081,1.137619 8.08415,-0.484226 17.35289,-7.499487 6.50471,-4.923075 13.75594,-8.950989 16.11379,-8.950989 6.17633,0 21.00842,8.025987 22.62701,12.244068 2.98445,7.777381 1.42249,23.081189 -2.75483,26.991259 -14.56455,13.63278 -17.52634,15.457019 -27.53164,16.957358 -9.62414,1.443282 -10.78103,1.152402 -11.86222,-2.981821 -1.87708,-7.178143 -8.81567,-5.836127 -9.03125,1.746735 -0.0988,3.480276 -1.72595,10.027959 -3.61553,14.550391 -2.91143,6.968011 -3.10229,12.301681 -1.25118,34.958881 1.76359,21.58582 1.54365,30.1142 -1.14177,44.27058 -1.82942,9.64383 -3.32616,17.79733 -3.32616,18.11895 0,0.32189 2.73542,1.14466 6.07872,1.829 3.3433,0.68455 8.06812,2.73114 10.49961,4.54841 3.58935,2.68258 3.8908,3.8414 1.60264,6.16058 -2.29513,2.32635 -3.6607,2.33043 -7.35712,0.0207 -3.48366,-2.17556 -5.26389,-2.2329 -7.65705,-0.2466 -4.60829,3.82455 -2.25886,5.72836 8.9684,7.26725 5.52501,0.75728 13.08279,2.94756 16.7951,4.86726 5.5018,2.84505 6.26205,4.07792 4.11212,6.66836 -2.99523,3.60903 -30.71973,4.27831 -39.00524,0.94158 z m 20.88331,-3.70823 c -2.12755,-0.55606 -3.86828,-1.81657 -3.86828,-2.80139 0,-3.30765 -9.49165,-4.31216 -13.59409,-1.43872 -5.85188,4.09885 -2.7337,5.8002 10.0942,5.50746 6.18006,-0.14092 9.49573,-0.71135 7.36817,-1.26735 z m -18.97383,-15.75667 c -0.40548,-5.02793 0.89454,-17.37119 2.88946,-27.42948 3.01498,-15.20157 3.27229,-23.09148 1.52466,-46.75312 -1.90707,-25.82 -1.71793,-29.31209 2.03547,-37.577561 2.27586,-5.0117 4.04442,-12.096314 3.9301,-15.743548 -0.14368,-4.573134 -0.5381,-5.259201 -1.27128,-2.210445 -1.90347,7.913738 -5.05508,8.993264 -5.05508,1.731538 0,-3.789117 1.21512,-7.294261 2.7002,-7.789331 1.71862,-0.572643 0.50011,-3.100494 -3.35242,-6.952816 -4.51131,-4.511311 -7.30994,-5.670965 -10.98943,-4.553655 -10.44477,3.171574 -26.51401,18.828224 -22.96597,22.376333 2.56446,2.564393 10.29273,-2.088387 10.29273,-6.196705 0,-2.673533 0.96741,-3.804452 2.46347,-2.879865 1.62785,1.006098 1.97952,5.800346 1.03684,14.133032 -0.92646,8.188455 -0.11053,19.908443 2.32614,33.422413 2.06407,11.44658 3.61961,29.26691 3.45672,39.60074 l -0.29633,18.78878 3.42722,-9.39439 c 5.1674,-14.16418 7.8915,-11.28321 2.93982,3.10913 -5.15662,14.98799 -5.46415,22.55635 -0.9862,24.27469 2.06124,0.79092 3.31567,4.1593 3.31567,8.90284 0,4.52416 -0.89986,7.07439 -2.21045,6.2644 -2.48557,-1.53619 -3.03936,1.74992 -0.69076,4.09851 3.60427,3.60434 6.16624,-0.70741 5.47928,-9.22149 z m -3.29288,-55.11164 c -0.53672,-0.91181 -1.66888,-4.88964 -2.51604,-8.83964 -1.3045,-6.0821 -0.98641,-6.96918 2.07755,-5.79343 2.01682,0.77386 3.07604,2.80022 2.39349,4.57886 -0.67349,1.75475 -0.19825,5.10786 1.05597,7.45128 2.15685,4.02998 -0.71162,6.50969 -3.01097,2.60293 z m -6.78523,-39.41617 c -2.41851,-6.30246 -1.40674,-8.48673 1.90367,-4.10998 1.78494,2.35993 3.27699,5.03678 3.31567,5.94859 0.13056,3.08889 -3.86918,1.6798 -5.21934,-1.83861 z m 4.46295,-18.206052 c -3.40401,-4.911954 -5.75917,-10.742002 -5.23371,-12.955555 0.88694,-3.736827 1.08464,-3.708436 2.76237,0.395807 0.9938,2.43149 3.71258,7.170821 6.04163,10.531803 2.32905,3.36105 3.87111,7.201627 3.42674,8.534737 -0.44416,1.33303 -3.59301,-1.59518 -6.99703,-6.507138 z M 51.286119,203.32363 c -3.651931,-5.57364 -3.634455,-13.47501 0.05526,-24.9256 1.325024,-4.11212 0.868152,-4.64428 -3.096971,-3.60737 -7.338263,1.91901 -11.895855,-3.36665 -10.471499,-12.14426 1.120488,-6.9046 0.822631,-7.4112 -3.652069,-6.21142 -2.679612,0.71847 -5.979047,1.31992 -7.332115,1.33649 -2.536071,0.0345 -2.311849,1.01467 7.566491,33.18686 3.628583,11.81787 5.332353,14.49921 9.599616,15.1077 2.853339,0.40686 6.11637,1.63366 7.251019,2.72617 3.804936,3.66361 3.854463,0.2915 0.08013,-5.46857 z m -8.406253,-2.78668 c -2.224674,-2.22467 -1.702111,-16.85692 0.736769,-20.63084 1.520993,-2.3535 2.152628,0.37232 2.176598,9.39439 0.03454,12.83467 -0.24384,13.90618 -2.913367,11.23645 z m 265.990224,1.47361 c 0,-1.21575 -0.9947,-2.21045 -2.21045,-2.21045 -1.21574,0 -2.21044,0.9947 -2.21044,2.21045 0,1.21574 0.9947,2.21044 2.21044,2.21044 1.21575,0 2.21045,-0.9947 2.21045,-2.21044 z m 24.31489,1.36301 c 0,-0.46626 -1.99078,-1.36799 -4.424,-2.00432 -2.43315,-0.63619 -3.86648,-0.25489 -3.18518,0.84743 1.18977,1.92509 7.60918,2.90107 7.60918,1.15689 z M 60.748619,197.03706 c -1.39258,-4.18258 -8.290204,-4.77719 -8.290204,-0.71467 0,2.05047 1.88993,3.47772 4.605116,3.47772 2.701094,0 4.224713,-1.14238 3.685088,-2.76305 z m -31.104206,-9.79718 c -1.753711,-3.4257 -3.890037,-10.45084 -4.747482,-15.61133 -1.793569,-10.79478 -5.595189,-14.78422 -5.595189,-5.87164 0,6.15948 11.607529,32.86586 12.844342,29.55199 0.377848,-1.01224 -0.747959,-4.64324 -2.501671,-8.06902 z m 277.965577,3.46791 c -0.73269,-1.18556 -1.33552,-12.80455 -1.33953,-25.82 -0.004,-13.01544 -0.74899,-21.71921 -1.65534,-19.3416 -1.59933,4.19529 -1.71634,4.20068 -3.96547,0.18168 -6.23511,-11.14154 -4.82968,27.24262 1.61846,44.20254 1.19502,3.14318 3.1856,5.08899 4.42344,4.3239 1.23785,-0.76502 1.65114,-2.36089 0.91844,-3.54645 z m -249.800572,-13.01213 1.464765,-5.52611 -3.329552,5.52611 c -1.831215,3.03937 -3.334525,7.01817 -3.340672,8.84178 -0.0069,2.94729 0.197558,2.94729 1.864786,0 1.031725,-1.82361 2.534966,-5.80241 3.340673,-8.84178 z m 4.878659,-10.24928 c 4.707557,-1.98988 16.705851,-5.41496 26.662938,-7.61132 9.957083,-2.19635 21.098075,-5.54179 24.757745,-7.43428 3.65967,-1.89248 11.92549,-3.55861 18.36852,-3.70242 6.44303,-0.14368 14.69877,-0.93392 18.346,-1.75572 l 6.63134,-1.49412 -8.59995,-1.47147 c -4.73,-0.80929 -10.38411,-0.51669 -12.56479,0.6507 -6.30909,3.3766 -10.38543,2.43813 -5.49074,-1.26402 6.1717,-4.66805 31.68375,-3.38385 28.69958,1.44466 -0.65968,1.06771 1.30341,1.94132 4.36287,1.94132 h 5.56272 l -6.53573,-13.81528 c -3.59467,-7.5984 -6.53649,-15.05866 -6.53746,-16.57834 -0.002,-3.94005 -1.55408,-3.49008 -9.89008,2.8682 -5.44564,4.15356 -12.29906,6.34908 -26.11765,8.36694 -14.66485,2.14144 -21.552256,4.46275 -31.704967,10.68599 -7.133658,4.3726 -20.300518,10.29114 -29.259589,13.15221 -16.077947,5.13452 -21.232912,9.82294 -18.550882,16.87212 1.463729,3.84707 11.681786,3.44746 21.860125,-0.85489 z m -18.680884,-4.48803 c 1.064053,-5.48639 6.049297,-6.2617 5.643749,-0.87775 -0.189269,2.50954 -1.697069,4.56284 -3.351103,4.56284 -1.654034,0 -2.685691,-1.65832 -2.292646,-3.68509 z m 48.239298,-15.6389 c 0,-1.21305 4.579627,-2.72167 10.177029,-3.35262 5.5974,-0.63067 13.18081,-3.36789 16.85208,-6.08211 3.96782,-2.93353 6.26786,-3.71375 5.67118,-1.92371 -2.29085,6.87269 -32.700289,17.43537 -32.700289,11.35844 z m 42.020899,-17.55203 c 0.0276,-2.05585 17.91676,-10.02444 19.33131,-8.60996 1.23702,1.23702 -8.166,7.07777 -14.38025,8.93241 -2.73543,0.81641 -4.96342,0.67142 -4.95106,-0.32259 z m 77.34312,13.80464 c 5.70212,-2.1938 13.16203,-7.56469 17.48082,-12.58579 l 7.53389,-8.75882 -2.13177,-14.26435 c -1.17243,-7.84542 -1.40287,-14.264343 -0.51185,-14.264343 0.89087,0 2.07471,1.740726 2.63063,3.868279 0.83085,3.179174 1.01736,3.080734 1.04699,-0.552611 0.0484,-5.904237 -3.42777,-16.784253 -3.72377,-11.655814 -0.12088,2.099577 -2.95578,5.508774 -6.29907,7.576023 -3.3433,2.06725 -11.54958,9.301756 -18.23617,16.076706 -7.57623,7.67625 -16.5304,14.12046 -23.76229,17.10131 -16.59139,6.83871 -14.38474,2.04729 2.60481,-5.65618 9.8248,-4.45481 15.76012,-8.80821 19.23404,-14.10775 2.76341,-4.2156 9.24685,-10.336041 14.40755,-13.601006 7.8334,-4.955749 9.09839,-6.706007 7.65905,-10.596942 C 225.16351,70.3108 209.98211,74.26874 178.01154,95.585579 l -21.06332,14.044201 4.04345,10.64143 c 2.22385,5.8527 6.06422,13.95599 8.53412,18.00718 2.46989,4.05119 4.49445,9.43812 4.49901,11.97094 0.0138,7.12744 1.46919,7.32756 15.00816,2.06193 6.94688,-2.70178 17.10684,-6.63444 22.57769,-8.7392 z m 4.42089,-25.55841 c 0,-1.21574 2.40538,-2.21044 5.34527,-2.21044 2.93996,0 7.16744,-0.68386 9.39439,-1.51906 3.56442,-1.33725 3.68592,-1.07262 1.01536,2.21044 -3.24853,3.99366 -15.75502,5.19952 -15.75502,1.51906 z M 48.744522,149.07558 c 2.033471,-2.08141 0.658989,-2.32939 -6.233109,-1.12484 -11.908703,2.08141 -15.84288,5.93843 -4.819115,4.72469 4.644006,-0.51116 9.617507,-2.13128 11.052224,-3.59985 z M 303.74869,135.28275 c -0.70561,-1.76331 -1.22942,-1.23957 -1.33545,1.33546 -0.096,2.33022 0.4262,3.63577 1.16097,2.90121 0.73448,-0.73449 0.81302,-2.641 0.17476,-4.23667 z m -2.86045,-18.92693 c -0.74907,-5.16692 -2.52509,-9.39439 -3.94675,-9.39439 -1.93531,0 -2.03603,3.97009 -0.40064,15.80171 1.88599,13.64521 2.42465,14.92727 3.94675,9.39439 0.96941,-3.52407 1.14977,-10.6348 0.40064,-15.80171 z m -178.24813,6.76548 c -2.12755,-0.55606 -5.609,-0.55606 -7.73656,0 -2.12755,0.55607 -0.38683,1.01086 3.86828,1.01086 4.25511,0 5.99583,-0.45521 3.86828,-1.01086 z m 130.32672,-11.18637 c 3.90192,-2.73543 8.87542,-4.96839 11.05223,-4.96217 2.49165,0.007 0.68247,2.02863 -4.88398,5.4571 -12.75531,7.8562 -6.26005,6.81398 13.41615,-2.15277 9.3372,-4.2551 19.33932,-7.73655 22.22686,-7.73655 7.08012,0 6.63644,-1.73202 -2.6142,-10.205282 -7.58756,-6.949915 -7.75058,-7.422259 -4.63088,-13.41961 1.77837,-3.418868 5.56604,-8.329854 8.41696,-10.913381 12.47064,-11.30083 23.48494,-12.692443 30.44321,-3.846381 5.70827,7.25689 5.73528,6.18814 0.16164,-6.411464 -5.95632,-13.46527 -14.26497,-15.999476 -30.94761,-9.439014 -4.25511,1.673376 -14.47676,5.521484 -22.71481,8.551451 -8.23805,3.029898 -19.74618,8.568513 -25.57353,12.307895 l -10.59522,6.798983 2.36387,10.426875 c 2.22205,9.801458 2.40531,10.001849 3.05649,3.341364 0.3813,-3.896945 1.71634,-7.085443 2.96759,-7.085443 2.26142,0 1.5813,14.671621 -1.43458,30.946227 -0.78857,4.25511 -0.61754,6.74186 0.38061,5.52612 0.99795,-1.21575 5.00694,-4.44853 8.90886,-7.18395 z m 21.64136,-8.72953 c 3.64724,-1.96847 7.79334,-5.159872 9.21362,-7.092008 1.42028,-1.932067 3.27173,-2.823498 4.11426,-1.980973 2.40517,2.405171 -10.13178,12.839021 -15.30851,12.740521 -3.95462,-0.0753 -3.65814,-0.62445 1.98063,-3.66754 z m -4.06604,-22.377165 c -2.01883,-2.230753 -3.67052,-4.781952 -3.67052,-5.669307 0,-3.494714 14.20336,-19.037733 17.39683,-19.037733 2.17563,0 0.2763,3.193264 -5.29008,8.893725 -7.79541,7.98316 -8.3914,9.362961 -5.82155,13.477911 3.74884,6.002877 2.06524,7.506671 -2.61468,2.335404 z m -30.87453,24.517425 c -0.56021,-2.15069 -1.05583,-0.92624 -1.10087,2.72099 -0.0483,3.64723 0.41377,5.40689 1.01902,3.91035 0.6051,-1.49654 0.64241,-4.48065 0.0815,-6.63134 z m 60.36069,-15.860839 c 0,-3.222414 -1.11725,-3.921813 -4.74776,-2.972427 -4.54212,1.187838 -4.57169,1.370269 -0.68248,4.214006 5.22764,3.822481 5.43051,3.77613 5.43051,-1.241579 z m 63.51637,-11.303317 c 0.90483,0.0035 1.65562,-1.640219 1.6684,-3.652691 0.0138,-2.012541 1.26672,-4.076337 2.78641,-4.586259 1.51968,-0.509784 2.76305,0.209302 2.76305,1.598014 0,1.388781 0.9947,1.910308 2.21045,1.158964 1.21574,-0.751345 2.21044,-2.700681 2.21044,-4.331851 0,-2.186199 -2.6584,-2.717396 -10.11403,-2.020899 -7.39601,0.690971 -9.6803,0.243149 -8.50019,-1.666261 2.28373,-3.695173 -3.43455,-0.243839 -9.23628,5.575087 -3.64019,3.650826 -4.18099,5.679462 -2.50823,9.408552 2.00632,4.472489 2.57544,4.569265 9.60383,1.63262 4.10908,-1.716894 8.21139,-3.118799 9.11615,-3.115276 z M 346.13314,67.126102 c 6.19291,-8.376412 4.42849,-11.562353 -5.38402,-9.721467 -4.58633,0.860346 -7.56414,0.53327 -7.56414,-0.830506 0,-1.237227 1.9894,-1.729258 4.42089,-1.09341 4.73919,1.239369 6.27683,-2.787509 1.65783,-4.341659 -4.41909,-1.48687 -10.77778,0.89447 -9.62842,3.605719 0.57886,1.36495 2.26875,6.211764 3.75589,10.770807 3.27346,10.035005 6.23657,10.409468 12.74197,1.610516 z"
     id="path817"
     inkscape:connector-curvature="0" />
</svg>
