<?xml version="1.0" encoding="UTF-8" standalone="no"?>
<svg
   xmlns:dc="http://purl.org/dc/elements/1.1/"
   xmlns:cc="http://creativecommons.org/ns#"
   xmlns:rdf="http://www.w3.org/1999/02/22-rdf-syntax-ns#"
   xmlns:svg="http://www.w3.org/2000/svg"
   xmlns="http://www.w3.org/2000/svg"
   xmlns:sodipodi="http://sodipodi.sourceforge.net/DTD/sodipodi-0.dtd"
   xmlns:inkscape="http://www.inkscape.org/namespaces/inkscape"
   id="svg"
   version="1.1"
   width="400"
   height="377.93103448275866"
   viewBox="0, 0, 400,377.93103448275866"
   sodipodi:docname="B6.svg"
   inkscape:version="0.92.5 (2060ec1f9f, 2020-04-08)">
  <metadata
     id="metadata11">
    <rdf:RDF>
      <cc:Work
         rdf:about="">
        <dc:format>image/svg+xml</dc:format>
        <dc:type
           rdf:resource="http://purl.org/dc/dcmitype/StillImage" />
      </cc:Work>
    </rdf:RDF>
  </metadata>
  <defs
     id="defs9" />
  <sodipodi:namedview
     pagecolor="#ffffff"
     bordercolor="#666666"
     borderopacity="1"
     objecttolerance="10"
     gridtolerance="10"
     guidetolerance="10"
     inkscape:pageopacity="0"
     inkscape:pageshadow="2"
     inkscape:window-width="1366"
     inkscape:window-height="693"
     id="namedview7"
     showgrid="false"
     inkscape:zoom="0.62445256"
     inkscape:cx="174.86136"
     inkscape:cy="225.79569"
     inkscape:window-x="0"
     inkscape:window-y="0"
     inkscape:window-maximized="1"
     inkscape:current-layer="svg" />
  <path
     style="fill:#ffffff;stroke-width:1.57348013"
     d="m 282.08701,344.54971 c -6.29337,-0.60683 -8.49103,-4.23223 -9.97296,-16.45168 -1.32035,-10.88764 -3.36601,-13.73269 -9.8903,-13.75531 -2.70664,-0.0103 -8.28226,-1.03692 -12.39033,-2.28351 -14.06794,-4.2688 -19.47034,-4.41253 -27.53674,-0.7328 -6.48332,2.9576 -10.16615,3.39753 -27.68626,3.30741 -15.49088,-0.0797 -21.07943,-0.67478 -23.94021,-2.54919 -2.05261,-1.34494 -6.08082,-2.44529 -8.95163,-2.44529 -2.87081,0 -9.09127,-1.07296 -13.82332,-2.38441 -4.732,-1.31139 -14.26817,-2.63764 -21.19149,-2.94723 -15.60483,-0.69774 -43.592088,-4.90792 -58.218767,-8.75794 -14.125477,-3.71808 -24.388944,-5.37658 -24.388944,-3.94112 0,0.62025 2.478231,3.87086 5.507181,7.2235 3.02895,3.3527 5.507181,7.04614 5.507181,8.20762 0,3.48349 -5.227249,6.992 -9.653842,6.47964 -3.254941,-0.37665 -3.99546,0.0983 -3.443513,2.20892 1.012584,3.87223 -4.940236,8.57522 -10.648724,8.41291 -5.620619,-0.15981 -14.773898,-5.89755 -16.813276,-10.53937 -0.767367,-1.74672 -3.078318,-9.7839 -5.1354461,-17.86053 -3.3997994,-13.34822 -3.5268081,-15.0667 -1.3957261,-18.88176 1.6087356,-2.87986 3.8666302,-4.34673 7.1947872,-4.67407 3.348858,-0.32945 5.393301,-1.66887 6.604487,-4.32708 l 1.754136,-3.85001 27.963055,-0.38549 c 46.927032,-0.6474 50.354421,-0.41305 63.366321,4.33326 l 11.80109,4.3046 16.52155,-2.69635 c 9.08685,-1.48296 19.35381,-2.8626 22.81547,-3.06589 3.46165,-0.20306 8.85042,-1.52297 11.97501,-2.93266 3.12464,-1.40969 7.37304,-2.9078 9.44088,-3.3291 2.0679,-0.4214 6.23334,-1.51516 9.25654,-2.43077 9.31093,-2.81988 19.99033,-1.95496 31.19169,2.52631 10.29558,4.11889 14.49343,5.20183 22.31707,5.75727 3.16446,0.22471 3.84475,-0.36977 3.47886,-3.03981 -0.64272,-4.69055 5.37633,-8.18884 13.07302,-7.5981 8.18135,0.62802 10.52019,1.23941 23.17849,6.05927 5.84155,2.22427 10.62099,3.60947 10.62099,3.07822 0,-0.53119 0.88509,-0.26355 1.96685,0.59522 1.08177,0.85863 4.79911,2.41235 8.26077,3.45276 7.35333,2.2101 19.43072,7.75785 22.81547,10.48026 3.83712,3.08634 13.71927,-1.64693 14.928,-7.15003 2.28445,-10.40115 16.89766,-17.30441 28.31906,-13.37793 16.00278,5.50153 22.01786,22.95703 12.74131,36.97487 -3.88911,5.8768 -10.40263,10.2136 -14.41762,9.59946 -0.93493,-0.1431 -3.59564,1.86767 -5.91268,4.46814 -4.35702,4.88999 -6.50674,5.76848 -8.04109,3.28582 -0.50793,-0.82185 -3.57749,-0.38698 -7.13588,1.01067 -5.06837,1.99089 -6.69618,2.07807 -8.64238,0.4627 -1.31883,-1.09456 -2.39783,-2.96548 -2.39783,-4.15758 0,-1.19216 -0.53106,-2.26842 -1.18012,-2.39164 -6.50388,-1.23493 -13.14441,-0.89875 -17.70165,0.8961 -11.28165,4.44316 -26.97417,8.76885 -31.81134,8.76885 h -4.99606 l 5.0291,5.1887 c 4.18949,4.32245 5.02914,6.40854 5.02914,12.49501 0,9.59533 -1.7593,10.66874 -15.33938,9.35926 z m 9.04176,-5.80098 c 1.62772,4.13299 3.10158,0.41648 2.49584,-6.29392 -0.59321,-6.57164 -0.47942,-6.3754 -4.85237,-8.36787 -2.93252,-1.33612 -3.9337,-3.0023 -3.9337,-6.54646 0,-2.61483 -0.53105,-4.75599 -1.18011,-4.75821 -0.64906,-0.002 -1.39071,-4.42767 -1.64812,-9.83425 -0.25766,-5.40663 -1.14249,-10.06624 -1.96685,-10.35472 -0.82436,-0.28864 -1.49884,-1.15135 -1.49884,-1.91749 0,-2.73131 4.9867,0.57732 6.3755,4.23005 1.70673,4.48905 8.44069,5.12906 10.15903,0.96553 3.22061,-7.80367 3.58109,-13.01523 1.00432,-14.51978 -1.85789,-1.08477 -1.97989,-1.52622 -0.43123,-1.56054 1.6521,-0.0344 1.73806,-0.55569 0.36583,-2.20903 -3.49184,-4.20738 -33.3355,-5.01055 -30.75028,-0.82755 0.4686,0.75852 -0.24045,0.95982 -1.57628,0.44746 -3.90902,-1.50006 -4.51077,3.21905 -1.66765,13.07843 2.82243,9.78748 5.6159,16.74674 10.38321,25.86732 1.64477,3.14681 3.00018,8.10328 3.01203,11.01436 0.0344,8.02814 1.52805,12.00035 4.8444,12.86758 1.65082,0.43172 3.00151,0.14309 3.00151,-0.64129 0,-2.70624 3.14721,-1.41947 3.24668,1.32742 0.0708,1.95274 0.57643,1.60953 1.73874,-1.18011 1.55721,-3.73756 1.70074,-3.77679 2.8783,-0.78674 z m -12.58415,-3.9337 c 0,-0.86541 0.70807,-1.57348 1.57349,-1.57348 0.8654,0 1.57347,0.70807 1.57347,1.57348 0,0.86541 -0.70807,1.57348 -1.57347,1.57348 -0.86542,0 -1.57349,-0.70807 -1.57349,-1.57348 z m 5.63768,0.21144 c -0.67782,-1.09672 -0.80744,-2.41898 -0.28814,-2.93833 1.40822,-1.40822 2.94364,0.66287 2.183,2.94467 -0.53296,1.5989 -0.90357,1.59767 -1.89491,-0.005 z m -2.49072,-58.42996 c 0,-0.86542 0.70807,-1.57349 1.57348,-1.57349 0.86542,0 1.57348,0.70807 1.57348,1.57349 0,0.86541 -0.70806,1.57348 -1.57348,1.57348 -0.86541,0 -1.57348,-0.70807 -1.57348,-1.57348 z M 37.277874,318.25602 c 3.429155,-3.42915 2.511668,-5.91545 -1.873523,-5.07718 -2.184188,0.41746 -4.417792,0.0344 -4.963543,-0.84644 -0.564732,-0.91375 -0.217338,-1.12661 0.80626,-0.49402 1.106353,0.68378 1.48453,0.29306 0.982639,-1.0146 -0.528739,-1.37793 -3.213686,-2.0593 -7.628626,-1.93597 -5.98011,0.16718 -6.716499,-0.178 -6.025053,-2.82199 0.601758,-2.30112 1.849872,-2.8564 5.286452,-2.35201 2.474346,0.36338 4.498777,0.0748 4.498777,-0.64065 0,-0.71554 -2.066324,-1.30098 -4.59176,-1.30098 -2.525485,0 -5.648843,-0.40566 -6.940818,-0.90145 -1.927021,-0.73944 -2.135705,0.0443 -1.161524,4.3641 1.617046,7.16971 4.668319,12.55573 6.4791,11.43659 0.821996,-0.50799 1.494561,-0.14898 1.494561,0.79805 0,1.19782 1.077293,1.14766 3.54033,-0.16472 3.000775,-1.59895 3.261136,-1.54747 1.708259,0.33781 -1.490529,1.80979 -1.074982,2.26979 2.229376,2.4677 2.233751,0.13376 5.005338,-0.70068 6.159093,-1.85444 z m 260.148516,-5.66758 c 0,-0.85863 0.57378,-1.20647 1.27505,-0.77308 1.74475,1.07833 14.45975,-2.25735 14.45975,-3.79336 0,-0.67915 1.52681,-0.83547 3.39296,-0.34763 2.52745,0.66095 3.06755,0.36091 2.11712,-1.17716 -0.80656,-1.30506 -0.65988,-1.68377 0.39877,-1.02951 2.39686,1.48134 6.67903,-0.49171 6.67903,-3.07728 0,-1.20554 0.834,-2.01484 1.85332,-1.79849 2.67182,0.5671 5.07851,-7.07859 3.81402,-12.11659 -0.72282,-2.87985 -1.82936,-4.00967 -3.35412,-3.42457 -1.25151,0.4804 -2.20012,0.36779 -2.10802,-0.25028 0.6169,-4.13885 -1.17539,-6.29609 -8.02386,-9.65734 -6.34221,-3.11284 -8.43362,-3.49376 -11.38325,-2.07335 -2.548,1.22697 -2.85837,1.77149 -1.05261,1.84657 1.40851,0.0585 3.39414,1.11049 4.41253,2.33755 1.51984,1.83133 1.17505,2.15681 -1.92456,1.81654 -2.0769,-0.22816 -4.4296,-0.81836 -5.22823,-1.31194 -0.82259,-0.50838 -1.20898,1.65191 -0.89123,4.98321 0.3083,3.23439 -0.53287,8.49817 -1.86959,11.69731 -3.27717,7.8435 -3.25371,7.94563 2.14603,9.34484 2.62062,0.67906 4.72782,2.28169 4.72782,3.5957 0,1.8274 -0.6737,2.01007 -2.9401,0.79711 -1.617,-0.8654 -3.30731,-1.20621 -3.75624,-0.75733 -0.44894,0.44893 -3.19722,-0.63544 -6.10741,-2.40968 -6.45207,-3.93356 -7.08362,-3.9755 -7.28896,-0.48385 -0.40665,6.91269 1.11078,9.35252 5.90104,9.48873 2.61291,0.0742 4.75078,-0.56744 4.75078,-1.42603 z m -75.19805,-4.12896 c 11.60058,-4.09607 12.31228,-4.62112 13.33067,-9.83425 1.72916,-8.85186 1.26168,-25.66317 -0.81993,-29.48648 -3.64428,-6.69349 -10.74142,-9.06683 -27.00107,-9.02941 -13.10459,0.0295 -16.01537,0.5665 -23.60221,4.34963 -4.75977,2.3734 -7.43774,3.98199 -5.95095,3.57471 1.48675,-0.40715 3.12169,-0.0634 3.63317,0.76412 0.51153,0.8276 -0.57447,1.50478 -2.41322,1.50478 -4.77906,0 -9.43032,2.83861 -9.43032,5.7552 0,1.89649 -0.50233,2.08064 -2.08737,0.76516 -2.72763,-2.26375 -21.49979,-1.03334 -31.7719,2.08245 -10.82152,3.28248 -16.02861,3.02364 -30.20011,-1.5011 -11.173579,-3.56752 -13.919843,-3.83285 -31.136176,-3.00776 -10.384969,0.49771 -25.431374,0.78596 -33.436455,0.64051 l -14.554692,-0.26455 v 4.60179 c 0,7.03352 3.916343,9.28089 15.734802,9.02918 5.625192,-0.11948 11.70271,0.29847 13.505624,0.92953 12.050105,4.21772 52.048277,10.87496 69.888837,11.6322 7.35602,0.31224 15.41366,1.34705 17.90595,2.2995 2.49225,0.95249 9.39589,2.03466 15.34144,2.40481 8.71118,0.54236 10.81005,0.22914 10.81005,-1.61217 0,-1.25692 0.70807,-2.28524 1.57349,-2.28524 1.34507,0 1.78865,2.19309 1.51152,7.47403 -0.0959,1.82455 8.97522,3.10561 23.60176,3.33318 10.85652,0.16914 15.57283,-0.59109 25.56709,-4.11992 z m -52.82223,-10.61927 c -0.49776,-1.29714 -0.26454,-3.95239 0.51866,-5.90055 1.23602,-3.07508 1.43683,-2.76411 1.52342,2.35849 0.10572,6.25691 -0.55829,7.40874 -2.04208,3.54206 z m -2.57859,-16.52327 c 0,-0.86541 0.70807,-1.57348 1.57348,-1.57348 0.86542,0 1.57348,0.70807 1.57348,1.57348 0,0.86542 -0.70806,1.57349 -1.57348,1.57349 -0.86541,0 -1.57348,-0.70807 -1.57348,-1.57349 z m 185.41051,26.62589 c 0.79358,-5.74217 2.87735,-6.92208 4.0405,-2.28783 0.56777,2.26232 1.57643,3.77699 2.24142,3.36602 0.66504,-0.41108 2.15768,-0.16128 3.31704,0.55549 1.4031,0.86718 3.6139,-0.238 6.61216,-3.30506 4.98907,-5.10372 5.68838,-6.86386 2.19446,-5.52306 -3.02536,1.16088 -4.72432,-1.69562 -2.55976,-4.30372 0.93239,-1.12351 1.22939,-2.50861 0.65998,-3.07806 -0.56945,-0.5694 -0.33288,-1.0353 0.52608,-1.0353 2.31926,0 8.60321,7.1436 7.36936,8.3775 -0.58485,0.58485 -0.3329,1.06337 0.56015,1.06337 3.5835,0 9.81709,-6.71821 12.3238,-13.28204 2.50301,-6.55398 2.49769,-7.3683 -0.092,-14.14932 -1.78973,-4.68636 -4.52041,-8.29066 -7.8317,-10.33712 -8.48278,-5.24269 -21.6683,-3.60426 -27.78899,3.453 -4.11971,4.74999 -3.56659,5.60744 0.90642,1.40526 l 3.79229,-3.5627 3.17159,3.17164 c 2.99419,2.99414 3.19151,10.72519 0.22718,8.89307 -0.6858,-0.42386 -0.90224,-2.0884 -0.4809,-3.69901 1.32443,-5.06464 -3.75604,-5.26988 -7.29859,-0.29502 -3.80178,5.33921 -4.07851,7.94681 -0.84318,7.94681 1.29811,0 2.36021,0.70807 2.36021,1.57348 0,2.39774 -4.19283,1.87633 -6.93113,-0.86202 -1.84928,-1.84929 -3.1769,-2.03865 -5.51613,-0.78675 -1.69439,0.90682 -4.54337,1.64877 -6.33109,1.64877 -3.88891,0 -3.85833,-0.26553 -0.80941,7.03125 1.34257,3.21319 1.77759,5.43209 0.96666,4.93094 -1.48576,-0.91823 -3.67167,6.79286 -2.47459,8.72971 0.35403,0.57275 2.05899,0.67124 3.78898,0.21881 2.65348,-0.6939 3.1454,-2.14725 3.1454,-9.29317 0,-12.19727 2.69797,-10.46752 2.9662,1.90171 0.23651,10.91783 2.28882,16.98011 5.40107,15.95582 1.02321,-0.33682 2.0973,-2.32693 2.38692,-4.42266 z m -90.32633,-7.62891 c -1.57878,-4.39045 -3.48048,-7.98261 -4.22602,-7.98261 -0.74553,0 -0.98982,-0.59173 -0.54285,-1.31494 0.44697,-0.72321 0.23356,-3.37846 -0.47451,-5.90055 -1.54083,-5.49032 2.19796,-13.23975 6.3876,-13.23975 1.49319,0 3.03981,-0.53106 3.43693,-1.18012 0.3973,-0.64905 -4.34055,-1.136 -10.52812,-1.08205 -17.39398,0.15144 -17.13401,0.0708 -16.12119,5.01576 1.75026,8.54587 1.00924,23.20721 -1.3674,27.0526 -0.57633,0.93258 0.22275,1.67398 1.81845,1.6875 2.41342,0.0197 2.48738,0.25619 0.4863,1.54939 -1.86368,1.2044 -1.51614,1.53036 1.65216,1.54939 2.20681,0.0147 4.96595,0.90918 6.13137,1.99094 1.7142,1.59108 1.87818,1.54462 0.85833,-0.24291 -0.93215,-1.6341 -0.68481,-1.85125 0.94929,-0.83336 1.21547,0.75719 3.81225,1.46581 5.77065,1.57472 1.95834,0.10866 4.03533,0.67276 4.6155,1.25294 0.58018,0.58017 1.72291,0.38697 2.53935,-0.42976 0.93032,-0.93032 0.41305,-4.46447 -1.38603,-9.46715 z m -210.471864,7.10652 c 0.776954,-0.84929 0.400746,-0.90436 -0.923879,-0.13522 -1.67497,0.97241 -1.977029,0.62674 -1.206663,-1.38078 1.054281,-2.74744 0.468111,-3.14405 -7.086316,-4.794 -3.872974,-0.84589 -4.189588,-0.55573 -3.719757,3.4089 0.282244,2.38342 0.594284,4.41705 0.692972,4.51918 0.837878,0.86719 11.225994,-0.50563 12.243643,-1.61808 z m -25.4388,-10.22197 c -1.730828,-0.71854 -4.740109,-1.14289 -6.687291,-0.94295 -2.117019,0.21734 -3.54033,-0.49845 -3.54033,-1.78039 0,-1.17913 0.749812,-2.14382 1.666315,-2.14382 0.916503,0 1.247229,-0.67817 0.734962,-1.50706 -0.512314,-0.82888 1.039088,-0.47893 3.447446,0.7779 3.944765,2.05845 4.434855,2.02314 4.943335,-0.35601 0.31027,-1.45236 -0.397795,-3.39561 -1.57348,-4.31822 -1.175881,-0.92264 -2.208724,-2.56256 -2.295265,-3.64432 -0.08654,-1.08177 -0.263558,-3.5246 -0.393371,-5.42851 -0.183408,-2.69242 -0.655649,-3.04208 -2.124198,-1.57348 -1.038497,1.0385 -2.631646,1.87731 -3.540331,1.86409 -0.908685,-0.0147 -0.590054,-0.71048 0.708067,-1.54939 2.0766,-1.34204 2.065438,-1.52819 -0.09244,-1.54939 -1.349112,-0.0147 -3.827344,1.09047 -5.507181,2.45281 -1.679887,1.36229 -1.9922229,1.93445 -0.694102,1.27142 1.846332,-0.94301 1.99778,-0.71146 0.695528,1.06342 -0.91557,1.24788 -1.431621,4.03909 -1.146723,6.20262 0.284702,2.16353 0.620935,4.81878 0.746813,5.90055 0.125879,1.08177 0.796673,1.96685 1.490725,1.96685 0.694004,0 0.903276,0.93431 0.465161,2.0763 -0.591973,1.54251 1.342129,2.13384 7.523398,2.30009 5.722649,0.15391 7.33768,-0.1839 5.17321,-1.0827 z M 140.07836,275.02302 c 7.35602,-1.68642 17.09193,-3.08436 21.63535,-3.10659 4.54343,-0.0246 8.26077,-0.59025 8.26077,-1.26232 0,-1.67595 -24.91306,0.4804 -30.39197,2.63057 -6.52546,2.56088 -13.60342,2.13255 -24.04223,-1.45503 -14.02365,-4.81962 -28.567671,-8.16194 -30.533734,-7.01694 -2.202037,1.28244 -14.91379,2.60544 -27.405749,2.85233 -9.925709,0.1962 -14.230653,0.87672 -14.713073,2.32594 -0.548603,1.64808 4.348657,1.89335 25.045479,1.25441 24.143481,-0.74529 26.405605,-0.56271 36.741847,2.96548 13.50489,4.60985 18.35259,4.72107 35.40331,0.81215 z M 36.736793,269.35727 c -0.491712,-1.28087 -2.877108,-1.83866 -6.480968,-1.51526 -8.153184,0.73162 -7.916917,3.21958 0.322564,3.39478 5.054608,0.10769 6.725447,-0.40223 6.158651,-1.87952 z m 257.116467,-0.005 c -0.52289,-0.52283 -1.88002,-0.57874 -3.01583,-0.1244 -1.25524,0.50228 -0.88237,0.87515 0.95063,0.95062 1.65869,0.0684 2.58804,-0.30338 2.0652,-0.82641 z m -12.42278,-6.91736 c 0.68697,-2.09799 0.44844,-2.09799 -2.14529,0 -1.68127,1.35979 -2.41731,1.52652 -1.73653,0.39337 0.64994,-1.08176 0.43172,-1.96685 -0.48483,-1.96685 -2.38722,0 -2.66847,-0.056 -8.03365,-1.59458 -5.29742,-1.51923 -12.51443,0.75587 -12.51443,3.94512 0,3.03578 0.82568,3.18959 12.72286,2.3699 8.25065,-0.56847 11.63328,-1.4416 12.19172,-3.14696 z m 13.60765,-51.83875 c -4.52581,-1.83586 -7.12299,-7.55748 -7.58835,-16.7174 -0.24438,-4.80933 -1.91566,-10.6912 -4.24176,-14.92775 -3.70898,-6.75509 -3.83924,-8.0629 -3.85763,-38.72242 -0.0103,-17.45209 -0.3742,-32.0864 -0.80793,-32.52068 -0.43369,-0.43418 -4.68224,0.2552 -9.44089,1.53237 -4.75859,1.27703 -9.71407,2.56507 -11.0122,2.86222 -1.29811,0.29699 -6.96264,1.74258 -12.58783,3.212 -5.6252,1.46939 -11.39751,2.9016 -12.82736,3.18267 -3.70977,0.72925 -11.96985,5.15954 -13.13507,7.04496 -1.42154,2.30008 -10.22762,6.62887 -10.22762,5.02757 0,-0.74092 3.18629,-3.63538 7.08066,-6.4321 6.29948,-4.52395 7.08066,-5.75781 7.08066,-11.18395 0,-6.89873 -7.47196,-31.647217 -10.08754,-33.41173 -0.94251,-0.635833 -6.11242,-1.166883 -11.48881,-1.18011 -14.54751,-0.03441 -24.75271,4.419613 -36.9436,16.129109 l -10.21247,9.809221 6.44099,18.27376 c 6.33149,17.96311 6.50781,18.24859 10.37061,16.79425 6.15458,-2.3172 31.90832,-7.61387 32.78031,-6.74182 0.43075,0.43075 0.41206,1.15425 -0.0393,1.6078 -0.70315,0.7031 -14.79169,3.97368 -27.87258,6.4704 -2.08107,0.39731 -5.19416,1.47705 -6.918,2.39961 -2.44637,1.30923 -3.43924,1.13255 -4.52356,-0.80504 -1.02754,-1.8361 -2.31901,-2.12891 -4.96045,-1.12465 -1.96419,0.74677 -8.49286,1.84049 -14.50822,2.43045 -6.01531,0.58995 -13.27974,2.13059 -16.14312,3.42364 -2.86334,1.29311 -10.65207,2.69183 -17.30828,3.10836 -6.65617,0.41648 -17.058598,1.75905 -23.116498,2.98342 -6.057899,1.22436 -13.846626,2.62289 -17.308282,3.10787 -14.395477,2.01681 -18.206249,2.83752 -18.97868,4.08731 -1.304415,2.11062 5.284091,15.17538 8.946563,17.74065 4.694871,3.28842 2.935278,10.01112 -2.973042,11.3588 -2.366711,0.5399 -7.628036,2.58646 -11.691844,4.54796 -8.679513,4.18943 -15.418041,3.87557 -22.61096,-1.05311 -5.193714,-3.55877 -6.286103,-4.98125 -12.838272,-16.71729 -7.0365043,-12.60353 -7.165382,-15.09937 -1.102173,-21.34244 4.079985,-4.20105 7.125014,-5.755 12.842992,-6.55414 4.122223,-0.57614 15.459984,-4.87901 25.195008,-9.56194 29.806339,-14.33799 33.866212,-15.6217 54.680008,-17.2893 10.48731,-0.84024 13.90067,-1.85071 20.45525,-6.05554 4.32708,-2.77586 12.45882,-6.73189 18.07054,-8.79119 7.47497,-2.74306 12.50218,-6.00685 18.80176,-12.206564 4.72929,-4.654305 13.34887,-10.854506 19.15456,-13.778231 9.97617,-5.023926 11.31986,-5.28886 24.4689,-4.824487 13.72438,0.484829 23.87914,-1.34685 32.62518,-5.884325 2.23065,-1.157294 3.63238,-2.5275 3.11495,-3.04493 -0.51743,-0.517429 0.37862,-0.844221 1.99065,-0.726209 1.61232,0.11801 9.30404,-2.835068 17.09276,-6.562396 7.78873,-3.727379 17.70165,-7.747867 22.02872,-8.934468 12.95929,-3.553754 26.39686,-2.558232 31.75402,2.352501 3.16009,2.896777 9.03556,2.626335 7.37141,-0.339282 -0.75532,-1.346063 -0.53041,-1.382646 0.82839,-0.134729 3.15541,2.898055 12.3883,-0.955938 14.49927,-6.052293 4.01459,-9.692049 15.72183,-15.257645 27.46175,-13.055216 7.15433,1.342179 16.93907,10.147129 19.09975,17.187174 1.7744,5.781459 0.68732,15.220029 -2.41771,20.991997 -2.85443,5.30617 -12.35197,11.865076 -17.18108,11.865076 -2.63262,0 -6.12295,1.769772 -8.95924,4.542736 -4.05171,3.961285 -4.93753,4.25174 -6.92027,2.269008 -1.98268,-1.982733 -3.08063,-1.950919 -8.57709,0.248314 -6.13573,2.455023 -6.38051,2.426701 -9.20913,-1.066524 -1.59822,-1.973735 -2.90588,-4.723981 -2.90588,-6.111643 0,-4.486682 -3.98985,1.323887 -6.15875,8.969182 -1.07414,3.786285 -3.26265,8.289979 -4.86343,10.008169 -2.10915,2.26394 -3.1301,6.43347 -3.70834,15.14455 -2.07469,31.2536 -3.98922,50.25745 -5.56924,55.28084 -0.95092,3.0232 -1.72896,7.09457 -1.72896,9.04751 0,3.60072 4.15787,8.87035 8.01275,10.15534 2.6437,0.8812 2.4593,14.64591 -0.23995,17.89804 -2.01003,2.42198 -11.29931,2.85051 -16.45516,0.75911 z m 10.37101,-6.38001 c 0.80199,0 1.45813,1.10389 1.45813,2.45304 0,1.34921 0.74543,1.99238 1.65653,1.42932 0.91109,-0.56311 1.36676,-1.84402 1.01263,-2.84647 -0.35403,-1.00246 -0.058,-3.40728 0.65757,-5.34404 0.92171,-2.49397 0.5933,-4.10079 -1.12544,-5.50718 -9.52556,-7.79428 -9.87344,-9.19326 -6.36349,-25.58798 1.11166,-5.19249 2.18295,-14.04332 2.38062,-19.66851 0.19767,-5.62519 1.0358,-14.47601 1.86261,-19.6685 0.82677,-5.19249 1.2606,-10.85701 0.96405,-12.58784 -0.70359,-4.10683 -6.59495,-7.02849 -14.23095,-7.05751 l -6.1052,-0.0246 1.1218,7.47404 c 1.20847,8.05155 1.21802,11.2103 0.12538,41.52586 -0.42287,11.72774 -0.0344,22.05946 0.94508,25.17569 0.91394,2.90686 1.56767,7.91337 1.45255,11.12554 -0.24192,6.74812 5.48512,14.39213 7.87971,10.51763 1.01062,-1.63524 1.57653,-1.41205 2.52135,0.99439 1.09007,2.77636 1.27668,2.81314 1.77351,0.34912 0.30535,-1.51448 1.21138,-2.75359 2.01332,-2.75359 z m -10.29577,-1.49708 c -0.56085,-0.90745 -0.8009,-1.7025 -0.53347,-1.76682 5.1272,-1.23296 7.56693,-1.10753 7.56693,0.38895 0,1.00422 -0.46566,1.35992 -1.03536,0.79052 -0.56945,-0.56945 -1.92255,-0.29896 -3.00687,0.60087 -1.36597,1.13365 -2.28474,1.12946 -2.99123,-0.0147 z M 40.949099,191.33959 c 0,-0.70649 0.749812,-1.2845 1.666315,-1.2845 0.916503,0 1.185077,0.77868 0.596841,1.73044 -0.751632,1.21625 -0.0777,1.19977 2.267385,-0.0556 1.835268,-0.9822 3.33686,-2.1567 3.33686,-2.61006 0,-0.45336 -0.828437,-0.31223 -1.840874,0.31322 -1.237788,0.76501 -1.511721,0.27978 -0.836157,-1.48059 0.552636,-1.44008 0.495941,-2.67733 -0.125878,-2.74946 -0.621869,-0.0723 -2.900908,-0.33634 -5.064444,-0.58735 -2.163534,-0.25078 -5.12984,0.16422 -6.5918,0.9221 -1.676395,0.86931 -3.056534,0.73364 -3.737015,-0.3673 -0.756647,-1.22432 -1.465943,-1.11944 -2.374874,0.35108 -0.968428,1.56688 -1.648663,1.14362 -2.691143,-1.67448 -0.767367,-2.07433 -1.823221,-3.07891 -2.346354,-2.23247 -1.510639,2.44425 -0.321088,7.14424 2.290643,9.05095 2.777341,2.02753 15.450543,2.57996 15.450543,0.6735 z m 18.888499,-6.95581 c 1.001078,-1.00108 0.663616,-2.78526 -0.967247,-5.11362 -2.433241,-3.47389 -2.597866,-3.49455 -5.763069,-0.72267 -1.792046,1.5694 -2.770997,2.0173 -2.175385,0.99533 1.403003,-2.40743 -1.111812,-3.93542 -4.40014,-2.67359 -2.80281,1.07557 -2.35309,4.77482 0.503514,4.14203 0.967543,-0.21438 2.625155,0.99695 3.683567,2.69184 1.958195,3.13555 6.337044,3.46239 9.11876,0.68068 z m -36.668383,-4.3256 c 0.692084,-1.17121 3.382539,-2.94782 5.978781,-3.94796 l 4.720441,-1.81851 -5.803143,0.68629 c -3.847109,0.45484 -6.441287,-0.0826 -7.69658,-1.59521 -1.545502,-1.86226 -1.418836,-2.09937 0.689284,-1.2904 1.420557,0.54511 2.582818,0.25421 2.582818,-0.64655 0,-0.90068 1.770165,-1.31661 3.9337,-0.92428 2.783044,0.50464 3.933701,0.0147 3.933701,-1.67767 0,-1.31509 -1.416132,-2.47951 -3.14696,-2.58769 -5.091094,-0.31814 -5.971309,-0.52967 -7.162483,-1.72085 -0.621917,-0.62191 0.384028,-0.83905 2.235326,-0.48237 3.276133,0.63097 3.29236,0.54989 0.606281,-3.03415 -1.517916,-2.02537 -3.361494,-3.31592 -4.096899,-2.86797 -0.735406,0.44795 -0.53346,-0.68707 0.448933,-2.52229 1.176914,-2.19908 1.230412,-3.33686 0.156856,-3.33686 -0.895851,0 -1.628847,0.68584 -1.628847,1.52407 0,0.83827 -0.929779,1.16733 -2.066127,0.73127 -6.000811,-2.30274 -9.2481301,11.51915 -4.053187,17.25213 4.810375,5.30867 6.119314,7.18003 6.119314,8.74875 0,2.34453 2.762343,2.0262 4.248888,-0.48975 z m 23.647637,-6.68857 c -0.522838,-0.52283 -1.879965,-0.57874 -3.01582,-0.1244 -1.255245,0.50228 -0.882378,0.87514 0.950627,0.95062 1.658694,0.0684 2.588031,-0.30338 2.065193,-0.82641 z M 284.3399,164.58438 c -0.50229,-1.25524 -0.87516,-0.88238 -0.95063,0.95062 -0.0684,1.6587 0.30339,2.58804 0.82642,2.0652 0.52283,-0.52288 0.57875,-1.88002 0.12391,-3.01582 z M 43.309319,164.8794 c 0.534835,-0.8654 -0.173083,-1.57347 -1.573481,-1.57347 -1.400298,0 -2.108364,0.70807 -1.57348,1.57347 0.534836,0.86542 1.242902,1.57348 1.57348,1.57348 0.330432,0 1.038596,-0.70806 1.573481,-1.57348 z m 2.736233,-6.05135 c 5.832006,-1.73663 17.515097,-4.31395 25.962424,-5.72737 8.447327,-1.41343 18.023823,-3.26576 21.281124,-4.11628 3.2573,-0.85046 11.56311,-1.74809 18.45742,-1.99463 8.56283,-0.30634 13.41741,-1.22259 15.3196,-2.89171 1.54673,-1.35717 7.33129,-2.8896 13.01224,-3.44706 5.62519,-0.55204 11.64375,-1.29083 13.37458,-1.64182 1.73083,-0.35109 4.38608,-0.69234 5.90055,-0.75857 1.51448,-0.0664 2.75359,-1.31238 2.75359,-2.76922 0,-3.55769 -6.19705,-20.8766 -9.01904,-25.20548 l -2.25907,-3.4654 -8.1289,3.11539 c -13.14564,5.03809 -20.28507,8.97887 -28.58413,15.77779 -2.23267,1.82901 -7.71862,2.84785 -18.881772,3.50654 -18.470348,1.08988 -28.966592,3.91837 -44.057448,11.8724 -6.057899,3.19294 -13.939658,6.67037 -17.514998,7.72766 -9.274241,2.74243 -10.826676,5.17951 -6.667574,10.46688 2.035887,2.58824 4.374423,3.97187 5.908615,3.49604 1.396513,-0.4332 7.310782,-2.20853 13.142789,-3.94516 z m 238.002908,-0.25324 c -0.55121,-1.73657 -0.22078,-6.921 0.73408,-11.52087 3.08348,-14.85311 3.12945,-15.89111 1.05747,-23.87186 l -2.04262,-7.8674 -1.13728,20.49994 c -1.01701,18.33055 -0.52928,25.91772 1.66607,25.91772 0.39829,0 0.27339,-1.42089 -0.27782,-3.15753 z M 105.8768,124.43467 c -1.93534,-0.3737 -5.47567,-0.38304 -7.867407,-0.0197 -2.391788,0.36191 -0.808377,0.66726 3.518697,0.67906 4.32708,0.0103 6.28399,-0.28421 4.34871,-0.65757 z m 134.11756,-11.99685 c 1.73082,-0.43762 6.68729,-1.62118 11.01436,-2.63032 4.32706,-1.00919 8.92949,-2.12302 10.22762,-2.47523 1.29812,-0.35207 6.25458,-1.58258 11.01436,-2.73422 l 8.65414,-2.09381 0.47942,-7.362759 c 0.78183,-12.002999 3.02104,-9.475351 3.93183,4.438395 0.31421,4.798034 0.51817,4.908474 10.92999,5.915254 1.51447,0.14653 2.75359,0.71701 2.75359,1.26798 0,0.55097 1.77326,0.93027 3.94053,0.84295 2.16732,-0.0875 3.91222,-0.71516 3.87755,-1.3951 -0.0344,-0.67998 1.07311,-2.37246 2.46175,-3.76111 1.38866,-1.38864 3.596,-4.159687 4.90528,-6.157909 2.95986,-4.517314 4.72398,-28.147793 2.21704,-29.69718 -0.94527,-0.584204 -1.30821,-1.726304 -0.80656,-2.538073 0.50169,-0.811719 -0.19472,-1.900617 -1.54781,-2.419816 -1.35295,-0.519199 -2.45989,-1.930316 -2.45989,-3.135848 0,-1.205531 -0.53105,-2.108021 -1.18012,-2.005548 -3.01355,0.475978 -5.21815,-0.318138 -4.42899,-1.594918 1.28838,-2.084665 -2.08698,-2.827102 -10.91243,-2.400296 -10.85992,0.52515 -13.37459,0.985491 -13.37459,2.448286 0,0.694003 -0.99051,0.88174 -2.2011,0.417464 -1.21055,-0.464668 -2.66847,-0.08851 -3.23979,0.836109 -0.57133,0.92442 -2.7894,1.680771 -4.92898,1.680771 -2.13964,0 -4.29624,1.058019 -4.79248,2.351173 -0.49623,1.293156 -1.38029,2.055703 -1.96459,1.69459 -1.66154,-1.026893 -22.45302,9.348144 -21.21484,10.586277 0.60648,0.606526 0.0998,1.210596 -1.12636,1.342424 -7.70538,0.828437 -15.60366,3.071335 -15.60366,4.430969 0,0.700494 -1.23877,1.175292 -2.75286,1.055069 -3.85532,-0.305846 -4.27112,5.122564 -1.09038,14.236211 1.45385,4.165691 2.90151,9.538385 3.21704,11.939325 0.31568,2.40099 1.47051,5.41547 2.56674,6.69895 1.866,2.18477 3.53507,2.21693 11.43403,0.22028 z m 96.50887,-27.822086 c 0.78895,-5.869427 2.87041,-7.056864 4.06021,-2.31631 0.67291,2.681063 1.83218,3.892642 3.21625,3.361544 1.19029,-0.456801 2.59938,0.303878 3.13141,1.690261 0.79644,2.07547 1.92049,1.596886 6.36292,-2.708894 2.96758,-2.876272 4.98065,-5.901093 4.4734,-6.721761 -0.54039,-0.874463 -1.40177,-0.71618 -2.08068,0.382552 -0.77937,1.261047 -1.43295,0.825045 -1.99709,-1.332393 -0.46123,-1.763724 0.0246,-4.390846 1.08536,-5.838006 1.74331,-2.384118 2.25027,-2.216345 5.39915,1.786835 1.91139,2.429896 3.10108,5.393005 2.64374,6.584719 -0.55417,1.444211 1.24378,1.00039 5.39177,-1.330917 14.67683,-8.248824 15.32988,-30.588211 1.14702,-39.23596 -9.34834,-5.700031 -25.27736,-2.968371 -29.58089,5.072851 l -1.8213,3.403094 4.37772,-3.443463 c 4.10796,-3.231339 4.55665,-3.281592 7.28182,-0.815359 3.15281,2.853261 3.84725,7.66575 1.33067,9.221135 -0.88872,0.549244 -1.57348,-0.739486 -1.57348,-2.96124 0,-6.086074 -2.78604,-6.412129 -7.91097,-0.925846 -5.47925,5.865541 -5.8617,7.820787 -1.52991,7.820787 1.73083,0 3.14697,0.708066 3.14697,1.573481 0,2.497162 -6.54967,1.825237 -8.5237,-0.874413 -1.55076,-2.120757 -2.78299,-2.182319 -9.22099,-0.460243 -8.33084,2.228147 -9.01756,3.235665 -3.89067,5.708291 3.03706,1.464714 3.12493,1.722568 0.61838,1.813928 -1.9996,0.07277 -2.62049,0.892114 -1.96685,2.595407 0.52529,1.368878 0.95509,4.968215 0.95509,7.998541 0,3.712381 0.64159,5.293285 1.96686,4.846417 1.76225,-0.594136 2.13196,-2.680177 2.61803,-14.772177 0.0748,-1.854592 1.25376,-3.801086 2.62043,-4.325497 2.06244,-0.791461 2.30136,-0.118011 1.40521,3.962171 -0.85297,3.883693 -0.6314,4.660796 1.05547,3.701317 1.72172,-0.979295 1.75428,-0.804147 0.16816,0.904603 -2.16182,2.329046 -2.50571,7.842964 -0.96853,15.528876 1.2045,6.022447 5.80374,6.096203 6.60897,0.10621 z"
     id="path1371"
     inkscape:connector-curvature="0" />
</svg>
