<?xml version="1.0" encoding="UTF-8" standalone="no"?>
<svg
   xmlns:dc="http://purl.org/dc/elements/1.1/"
   xmlns:cc="http://creativecommons.org/ns#"
   xmlns:rdf="http://www.w3.org/1999/02/22-rdf-syntax-ns#"
   xmlns:svg="http://www.w3.org/2000/svg"
   xmlns="http://www.w3.org/2000/svg"
   xmlns:sodipodi="http://sodipodi.sourceforge.net/DTD/sodipodi-0.dtd"
   xmlns:inkscape="http://www.inkscape.org/namespaces/inkscape"
   id="svg"
   version="1.1"
   width="400"
   height="377.93103448275866"
   viewBox="0, 0, 400,377.93103448275866"
   sodipodi:docname="B7.svg"
   inkscape:version="0.92.5 (2060ec1f9f, 2020-04-08)">
  <metadata
     id="metadata11">
    <rdf:RDF>
      <cc:Work
         rdf:about="">
        <dc:format>image/svg+xml</dc:format>
        <dc:type
           rdf:resource="http://purl.org/dc/dcmitype/StillImage" />
      </cc:Work>
    </rdf:RDF>
  </metadata>
  <defs
     id="defs9" />
  <sodipodi:namedview
     pagecolor="#ffffff"
     bordercolor="#666666"
     borderopacity="1"
     objecttolerance="10"
     gridtolerance="10"
     guidetolerance="10"
     inkscape:pageopacity="0"
     inkscape:pageshadow="2"
     inkscape:window-width="1366"
     inkscape:window-height="693"
     id="namedview7"
     showgrid="false"
     inkscape:zoom="0.07805657"
     inkscape:cx="-3283.9867"
     inkscape:cy="-273.6296"
     inkscape:window-x="0"
     inkscape:window-y="0"
     inkscape:window-maximized="1"
     inkscape:current-layer="svg" />
  <path
     style="fill:#ffffff;stroke-width:0.93153232"
     d="m 273.6551,348.72112 c -9.20877,-0.17379 -17.15242,-0.72503 -17.65253,-1.22508 -0.50012,-0.50003 -1.97805,-0.91681 -3.28453,-0.92612 -3.3899,-0.0233 -9.39683,-4.96618 -18.21145,-14.98294 -3.99773,-4.54282 -4.27166,-4.65085 -20.95948,-8.26706 -8.44231,-1.82936 -9.1069,-1.84714 -14.43875,-0.38638 -10.12576,2.77413 -13.85189,3.34059 -24.98195,3.79782 -15.08733,0.61979 -25.48556,-1.99772 -39.22916,-9.87511 -3.0106,-1.72558 -4.50076,-1.99558 -8.38379,-1.51895 -2.59723,0.31882 -7.49942,0.80569 -10.89398,1.08197 -6.09513,0.4961 -6.1845,0.46967 -7.20715,-2.13128 -1.71897,-4.37282 -4.65853,-9.00882 -6.29134,-9.92257 -0.84653,-0.47392 -3.893505,-1.2146 -6.770776,-1.64602 -2.876979,-0.43141 -7.536679,-1.23876 -10.354564,-1.7941 -2.817885,-0.55537 -6.698009,-1.24232 -8.622496,-1.52655 -1.924488,-0.28441 -3.730787,-0.89174 -4.014031,-1.34996 -0.282371,-0.45823 -1.223801,-0.83198 -2.090126,-0.83055 -0.866325,0.002 -3.308395,-0.91535 -5.426467,-2.03723 -3.545936,-1.87806 -3.970947,-1.92048 -5.356311,-0.53491 -0.827899,0.8277 -1.505007,1.81626 -1.505007,2.19679 0,0.3805 -0.725139,1.4931 -1.61155,2.47243 -1.533536,1.69463 -1.488414,2.12721 0.931532,8.95983 1.398754,3.94859 2.543083,8.05758 2.543083,9.13111 0,2.99747 -4.370633,5.38577 -10.041627,5.48713 -2.705228,0.0483 -5.409001,0.57849 -6.008384,1.17807 -2.12826,2.1282 -11.047973,0.88953 -19.023054,-2.64171 -2.885713,-1.27783 -7.773929,-6.93593 -11.438927,-13.24059 -1.883733,-3.2406 -2.310782,-5.20779 -2.281381,-10.50775 0.02911,-3.5864 -0.206683,-6.73032 -0.503609,-6.98649 -1.7757338,-1.53151 -3.1724501,-5.76838 -3.581451,-10.86322 -0.40347,-5.02713 -0.1164416,-6.55828 2.0534465,-10.99581 1.3874015,-2.83549 2.8807635,-5.15542 3.3188755,-5.15542 0.438111,0 1.460759,-0.66424 2.272356,-1.4761 1.222928,-1.22289 3.809968,-1.45811 15.080927,-1.3713 12.254308,0.0943 16.352177,0.72025 18.042908,2.75547 0.256171,0.30837 1.681998,1.18878 3.168665,1.95648 3.510422,1.81288 21.098334,1.89203 23.252212,0.10451 1.020028,-0.84671 3.240568,-1.03904 7.540463,-0.65312 3.352061,0.30085 8.924079,0.77285 12.382393,1.0489 3.458314,0.27597 7.12622,0.90688 8.1509,1.40184 1.02469,0.495 3.12064,1.0524 4.65767,1.23871 1.53702,0.18631 3.59426,0.67367 4.57178,1.08302 0.97724,0.40935 4.14649,0.25501 7.04239,-0.3433 2.89619,-0.59816 6.99726,-1.08756 9.11358,-1.08756 2.11633,0 4.1069,-0.41919 4.42362,-0.93153 0.31672,-0.51235 2.83186,-0.93154 5.58919,-0.93154 2.75734,0 5.27248,-0.41919 5.5892,-0.93153 0.31672,-0.51234 2.20802,-0.93153 4.20295,-0.93153 1.99523,0 4.59042,-0.37858 5.76706,-0.84129 2.42344,-0.95281 15.84682,-5.03767 22.16785,-6.74587 5.92222,-1.60046 7.26537,-1.74013 22.11953,-2.3001 11.74517,-0.44276 13.86993,-0.2844 18.4915,1.3773 7.52561,2.70599 10.91901,5.35928 12.86155,10.0559 l 1.69888,4.10733 2.88833,-3.75818 c 1.58885,-2.06699 3.21786,-3.75815 3.62075,-3.75815 0.4026,0 0.73213,-0.5384 0.73213,-1.19644 0,-2.96198 8.93252,-6.49005 22.12389,-8.73827 1.66512,-0.28383 3.02748,-0.88932 3.02748,-1.3456 0,-0.45627 0.4483,-0.82962 0.99645,-0.82962 0.54815,0 2.74889,-1.18182 4.89054,-2.62631 6.55595,-4.42154 12.40976,-6.68901 17.26916,-6.68901 6.65114,0 20.24074,2.56236 24.18986,4.56107 1.88228,0.95276 4.87599,2.04635 6.6523,2.4302 1.77632,0.38382 3.87227,1.01487 4.65767,1.40227 0.78539,0.38743 2.68543,1.22142 4.22246,1.85332 1.53702,0.6319 3.51915,1.51708 4.40469,1.9671 1.08407,0.55086 2.60596,0.27218 4.65766,-0.85331 8.05688,-4.41902 23.2135,-10.41791 28.4391,-11.25605 8.55525,-1.37215 11.54722,0.13099 22.80071,11.45487 6.72013,6.76179 7.58704,8.92103 6.89101,17.15833 -1.32336,15.65205 -7.53639,27.93038 -13.58232,26.84116 -1.46018,-0.26316 -3.33576,0.39345 -5.21134,1.82408 -1.61156,1.22928 -4.01112,2.23504 -5.33245,2.23504 -1.55071,0 -3.66557,1.27384 -5.96704,3.59411 -3.34158,3.36915 -5.51467,3.9366 -6.91139,1.80493 -0.30362,-0.46329 -2.52271,-1.03531 -4.9313,-1.27119 -2.40859,-0.23579 -4.67542,-0.50259 -5.03726,-0.59274 -0.36184,-0.0903 -1.99581,0.15341 -3.63065,0.54133 -5.5234,1.31029 -8.91505,-2.47473 -9.06468,-10.11562 -0.0553,-2.86531 -0.47421,-3.7884 -1.83599,-4.05298 -1.39788,-0.2716 -1.65609,0.0672 -1.24593,1.63521 0.28529,1.0878 -0.0902,3.19656 -0.83401,4.68614 -1.93497,3.87898 -10.48061,12.20179 -14.06701,13.70027 -1.67705,0.70066 -3.04902,1.70587 -3.04902,2.23379 0,0.52795 -0.52399,0.87538 -1.16442,0.77212 -3.25832,-0.52538 -6.49598,2.194 -9.6303,8.08885 -2.45982,4.62634 -2.89764,7.82464 -1.08232,7.90455 0.64043,0.0291 4.70657,1.80973 9.03616,3.95901 5.80344,2.88114 8.34682,4.72438 9.68124,7.01633 1.80484,3.10043 1.80484,3.10776 -0.0844,2.7946 -1.04274,-0.17263 -2.78936,0.49353 -3.88129,1.48049 -1.52218,1.37567 -2.24121,1.53872 -3.08134,0.69865 -0.60287,-0.60258 -2.06014,-1.09571 -3.23853,-1.09571 -1.17838,0 -2.14252,-0.37032 -2.14252,-0.8229 0,-0.45258 -0.73358,-1.08162 -1.63018,-1.39788 -0.8966,-0.31625 -2.15417,-0.81928 -2.7946,-1.11781 -0.76094,-0.35468 -1.16441,0.24104 -1.16441,1.71929 0,3.11155 -2.608,5.19271 -7.01095,5.59461 -2.03598,0.18572 -11.23632,0.19562 -20.4451,0.0233 z m -2.34804,-5.76121 c -1.27824,-0.35564 -2.45168,-1.30909 -2.60742,-2.11877 -0.36679,-1.90379 2.45517,-2.98836 4.13921,-1.59085 1.02818,0.85345 1.18829,0.78676 0.76386,-0.31873 -0.37611,-0.98032 -2.50583,-1.5632 -7.1271,-1.95063 -6.53383,-0.54777 -6.62902,-0.59502 -11.06049,-5.48728 -4.1296,-4.55918 -5.3566,-6.42786 -7.52125,-11.45546 -0.44131,-1.02469 -0.90912,-6.47415 -1.03982,-12.10992 l -0.23871,-10.24686 -2.9582,-0.28673 c -3.25192,-0.31524 -5.48905,-2.29504 -4.46524,-3.9518 0.42268,-0.6838 2.02114,-0.84522 4.50512,-0.45502 8.45861,1.32874 15.7167,1.58305 16.71431,0.58567 0.55834,-0.55854 1.62553,-1.01555 2.37134,-1.01555 0.7458,0 2.72997,-1.04797 4.40935,-2.32883 1.67908,-1.28086 3.41581,-2.32884 3.85916,-2.32884 0.44335,0 2.57307,-1.69789 4.73277,-3.77311 3.96542,-3.81046 5.76386,-4.0889 5.76386,-0.89235 0,1.85515 1.05146,2.33937 6.98649,3.21778 2.47787,0.36673 4.62011,0.0774 6.39439,-0.86348 1.46745,-0.77823 3.68741,-1.41496 4.93275,-1.41496 2.55007,0 5.68788,-2.82231 7.76782,-6.9865 0.76764,-1.53703 1.60834,-3.00419 1.86801,-3.26036 2.50931,-2.47482 3.49732,-12.78968 1.80834,-18.87235 -1.23021,-4.42982 -4.05945,-6.28383 -11.90877,-7.80371 -10.82266,-2.09563 -16.53674,-1.67326 -23.4228,1.73134 -3.33867,1.65068 -6.88286,3.74662 -7.87611,4.65766 -0.99324,0.91104 -2.49534,1.65641 -3.33809,1.65641 -0.84274,0 -1.83191,0.29978 -2.19841,0.66617 -0.85148,0.85171 -8.81637,2.96492 -11.37809,3.01886 -3.36428,0.0707 -7.29652,2.60881 -12.3067,7.94317 -2.6604,2.83239 -4.83699,5.387 -4.83699,5.67691 0,0.68761 -1.26106,1.85861 -7.45225,6.91893 -2.81789,2.30324 -5.26316,4.50209 -5.43404,4.88635 -0.17175,0.38426 -0.72456,0.69865 -1.23079,0.69865 -2.26857,0 -3.58203,2.8789 -3.58203,7.85148 0,2.85451 0.37028,5.18998 0.82295,5.18998 0.45267,0 1.06981,0.73358 1.37168,1.63018 1.10212,3.27308 11.165,19.13859 13.8743,21.87482 0.8966,0.90548 1.63018,2.07569 1.63018,2.60038 0,1.83581 16.57662,17.67664 18.49762,17.67664 1.03749,0 2.14514,0.41919 2.46186,0.93153 0.32662,0.52827 4.48387,0.89133 9.60323,0.83867 5.14322,-0.053 8.02748,-0.37107 6.70354,-0.73949 z m -53.13519,-47.18104 c -0.903,-1.08826 -0.93065,-1.69835 -0.11353,-2.51513 0.59327,-0.5931 1.07854,-2.49243 1.07854,-4.22073 0,-2.48934 0.33856,-3.07819 1.63019,-2.83354 1.96844,0.37293 2.61847,4.85236 1.23282,8.49686 -1.08494,2.85378 -2.1105,3.14119 -3.82743,1.07254 z m 10.51264,-8.48414 c -3.51013,-3.8095 -3.77475,-4.98361 -1.12366,-4.98361 2.33057,0 6.22438,3.53068 6.64037,6.02119 0.5039,3.01847 -2.2581,2.49896 -5.51671,-1.03758 z m 36.6852,-11.22659 c -1.0081,-1.00798 -0.64742,-3.32616 0.7592,-4.88045 1.32015,-1.45875 0.99091,-5.08514 -0.87099,-9.5953 -0.79704,-1.93017 1.89538,-3.36473 3.43183,-1.82849 0.5694,0.56958 1.62843,0.66806 2.49912,0.23231 4.97468,-2.48987 6.66308,-3.02466 7.96839,-2.52376 0.80316,0.30816 1.46018,0.99881 1.46018,1.53476 0,1.27134 -5.58541,4.66523 -7.68515,4.66971 -1.28464,0.003 -1.63018,0.80619 -1.63018,3.79087 0,2.08306 -0.42879,4.58859 -0.95278,5.56783 -1.10154,2.05787 -4.11766,3.89459 -4.97962,3.03246 z m 29.29844,57.47727 c 0.98189,0 1.78534,-0.62879 1.78534,-1.3973 0,-1.05831 -1.14579,-1.3973 -4.72258,-1.3973 -4.36452,0 -4.69987,-0.15894 -4.42478,-2.09595 0.24744,-1.7341 0.96734,-2.14473 4.17618,-2.37846 2.49214,-0.18165 4.08156,-0.81183 4.44661,-1.76351 0.88874,-2.31608 -0.0291,-2.5292 -5.52457,-1.29704 -4.7089,1.0538 -5.12925,1.35948 -5.12925,3.73125 0,1.42088 -0.83838,3.34214 -1.86306,4.26948 -2.87466,2.60159 -2.25198,3.11743 2.53202,2.09711 3.72351,-0.7941 4.54209,-0.70488 5.35485,0.58363 0.52748,0.83658 1.09979,1.09962 1.27154,0.58457 0.17176,-0.51508 1.11551,-0.93648 2.0977,-0.93648 z m -17.14195,-2.52102 c 1.75536,-1.33876 3.09124,-3.19571 3.09124,-4.29658 0,-1.50797 -0.24744,-1.69041 -1.11784,-0.82097 -0.61481,0.61481 -2.89561,1.11784 -5.06841,1.11784 -2.1728,0 -4.20966,0.41919 -4.52638,0.93153 -0.31672,0.51235 -2.91307,0.93154 -5.76967,0.93154 h -5.19417 l 2.22141,1.72394 c 4.70308,3.64945 11.88286,3.83052 16.36382,0.4127 z m 1.69394,-9.60061 c 4.09874,-1.09708 9.13629,-2.35075 11.19469,-2.78595 3.82889,-0.80956 11.17373,-4.25331 13.25425,-6.21437 0.6381,-0.60171 3.55409,-2.26516 6.47997,-3.69655 2.92559,-1.43138 7.26654,-4.53947 9.64631,-6.90687 l 4.32697,-4.30438 -3.81841,-0.84866 c -2.46827,-0.54858 -3.92554,-1.42504 -4.12174,-2.47883 -0.24744,-1.33218 0.38047,-1.63019 3.43648,-1.63019 2.05665,0 3.99831,0.41919 4.31503,0.93154 0.31672,0.51234 0.98655,0.93153 1.48871,0.93153 0.50186,0 0.0582,-0.91741 -0.98655,-2.03872 -1.04478,-1.1213 -1.89946,-3.00765 -1.89946,-4.1919 0,-1.18424 -0.41919,-2.15318 -0.93153,-2.15318 -0.51234,0 -0.93153,-2.30554 -0.93153,-5.12343 0,-2.81788 0.38426,-5.12343 0.85381,-5.12343 0.46984,0 0.85409,-1.88635 0.85409,-4.19189 0,-3.81177 -0.20377,-4.1919 -2.25139,-4.1919 -1.23807,0 -2.25111,-0.44393 -2.25111,-0.98652 0,-2.05117 -1.7472,0.20115 -2.3757,3.06256 -0.36067,1.64244 -0.97287,3.62878 -1.36003,4.41412 -0.38746,0.78531 -1.27737,2.64981 -1.97776,4.14328 -2.13088,4.54492 -9.00355,10.79181 -11.87297,10.79181 -1.39409,0 -2.97653,0.44201 -3.51682,0.98225 -1.26368,1.26359 -12.0191,1.43427 -13.57505,0.21542 -2.34047,-1.83312 -5.34408,-1.95772 -7.46245,-0.30954 -1.15888,0.9017 -5.18368,3.37629 -8.94416,5.49907 -5.15167,2.90833 -7.84962,3.85966 -10.94551,3.85966 h -4.10835 v 9.6746 c 0,8.84898 0.45849,11.18052 2.95675,15.0324 0.92017,1.4189 15.72543,-0.009 24.52346,-2.36193 z m 10.74639,-6.00244 c -1.5641,-1.88478 -0.75629,-2.77078 3.87867,-4.25408 6.62669,-2.12072 14.71821,-8.17894 14.71821,-11.01973 0,-0.42903 0.80053,-1.50443 1.77864,-2.38976 1.69277,-1.53193 1.80776,-1.51866 2.37687,0.2748 1.10444,3.47945 -4.71268,11.34039 -10.35253,13.99016 -1.45872,0.68546 -3.3803,1.61659 -4.2702,2.06914 -0.88962,0.45258 -2.46158,0.82286 -3.49325,0.82286 -1.03138,0 -1.87558,0.41919 -1.87558,0.93153 0,1.36249 -1.46425,1.13706 -2.76083,-0.42495 z m -30.78045,-8.65749 c 0,-1.10756 6.68054,-6.61423 9.88035,-8.13268 1.60078,-0.75964 3.43881,-2.01767 4.08448,-2.79565 0.64567,-0.77794 1.75128,-1.41447 2.45721,-1.41447 0.70564,0 1.28319,-0.35192 1.28319,-0.78199 0,-1.09618 4.61341,-3.08142 5.65906,-2.43523 1.97164,1.21862 0.54524,3.21603 -4.71938,6.60791 -3.06969,1.9777 -5.58483,3.91019 -5.58919,4.29445 0,0.38426 -0.44947,0.69865 -0.98918,0.69865 -0.53941,0 -2.52299,1.04797 -4.40818,2.32883 -3.24756,2.20677 -7.64526,3.1429 -7.65836,1.63018 z m -72.30147,14.60308 c 11.08815,-2.89765 14.2932,-3.65489 16.41564,-3.87823 2.31864,-0.24394 2.33087,-0.29596 2.7946,-11.88926 0.37203,-9.30368 0.20377,-11.84991 -0.84187,-12.66779 -1.01858,-0.79751 -1.16209,-2.44382 -0.64975,-7.45227 0.73388,-7.1742 1.7146,-8.93363 3.81143,-6.83684 1.10182,1.10168 1.1813,2.07618 0.40085,4.90292 -1.25088,4.53033 -0.67216,7.7765 0.76705,4.30234 1.66454,-4.01755 5.71292,-8.14637 11.47561,-11.70334 4.96448,-3.06416 5.44393,-3.63481 4.89404,-5.82528 -0.33506,-1.33561 -1.16762,-2.98643 -1.84968,-3.66854 -0.68205,-0.68209 -1.2401,-1.62142 -1.2401,-2.08742 0,-0.466 -1.04797,-1.11027 -2.32883,-1.43177 -1.28086,-0.32146 -2.32883,-0.91642 -2.32883,-1.3221 0,-2.61834 -31.37867,-4.38426 -33.85742,-1.90542 -0.53999,0.54005 -1.87907,0.98195 -2.97537,0.98195 -1.09659,0 -5.30944,0.88801 -9.3619,1.97336 -4.05275,1.08538 -8.52643,2.18168 -9.94149,2.43625 -1.41534,0.25471 -2.80245,0.83372 -3.0825,1.287 -0.27946,0.45325 -1.9271,0.82411 -3.65975,0.82411 -1.73265,0 -3.37593,0.36502 -3.65161,0.81116 -0.27655,0.44612 -2.50146,1.07458 -4.94556,1.39657 -2.4444,0.32199 -6.95942,1.01639 -10.03348,1.54306 -3.07406,0.52669 -8.23067,1.31349 -11.4593,1.74846 -5.1799,0.69786 -6.24418,1.21154 -9.05304,4.36885 -1.75099,1.96792 -3.66529,4.84936 -4.2539,6.40318 -0.58891,1.55383 -2.11167,5.04926 -3.3835,7.76762 -2.59781,5.55141 -2.40161,9.51706 0.73795,14.90583 0.98713,1.6944 1.79465,3.72278 1.79465,4.50751 0,1.47133 3.07202,1.43235 15.10975,-0.19184 3.93106,-0.53033 5.21483,-0.17728 12.10992,3.32927 7.14922,3.63592 18.80036,7.62142 25.41191,8.69271 4.12407,0.66826 18.75145,-0.16622 23.17448,-1.32216 z m -38.54477,-11.63894 c -2.81788,-0.69003 -8.68653,-1.9044 -13.04145,-2.69859 -14.20063,-2.58969 -16.05234,-3.06748 -16.8421,-4.34531 -1.78651,-2.89034 1.22176,-2.97301 15.66255,-0.43051 8.07784,1.42221 15.64974,2.96643 16.82638,3.43162 3.46443,1.36926 6.87384,0.93604 11.83338,-1.50367 2.56171,-1.26016 5.18164,-2.29503 5.82207,-2.29972 0.64043,-0.006 1.16442,-0.33617 1.16442,-0.73667 0,-1.72683 8.39805,-3.05525 17.70261,-2.80019 8.95348,0.24541 9.77759,0.41983 9.77759,2.06993 0,1.66488 -0.8148,1.81794 -10.71262,2.01275 -10.1572,0.19999 -11.05496,0.37968 -17.31515,3.46888 -6.30793,3.1126 -12.82895,5.39325 -14.82272,5.18392 -0.51234,-0.0539 -3.23707,-0.66241 -6.05496,-1.35244 z m 46.87966,-36.21438 c -4.70074,-0.54096 -8.85771,-1.29797 -9.23789,-1.68223 -0.37989,-0.38426 -1.45959,-0.69865 -2.3987,-0.69865 -0.93939,0 -1.7079,-0.41919 -1.7079,-0.93153 0,-0.51234 -0.65877,-0.93153 -1.46396,-0.93153 -1.68753,0 -4.12524,-2.17988 -4.12524,-3.68884 0,-2.05324 2.82488,-2.03357 6.18509,0.0431 4.77643,2.95206 11.62814,4.23684 23.85683,4.47354 4.14387,0.0803 5.35631,0.42661 5.35631,1.53022 0,2.58887 -5.19038,3.18339 -16.46454,1.88588 z m 29.73888,46.31941 c -0.64043,-0.22881 -1.16442,-1.04346 -1.16442,-1.81055 0,-0.76709 -1.46716,-3.60506 -3.26036,-6.30662 -1.7932,-2.70156 -3.26036,-5.39255 -3.26036,-5.97994 0,-0.58742 -0.37378,-1.068 -0.83052,-1.068 -0.45674,0 -1.50967,-1.69828 -2.34019,-3.77396 -0.83052,-2.07566 -1.90789,-3.52812 -2.39403,-3.22767 -1.51898,0.93869 -2.12856,6.76403 -1.45785,13.92437 l 0.64508,6.88169 7.14777,1.29885 c 6.36644,1.15687 10.07394,1.19003 6.91488,0.0617 z M 37.090144,315.84629 c 4.660573,0 4.793899,-0.33087 2.632453,-6.52072 -1.716058,-4.91424 -1.241267,-9.20415 1.433977,-12.96123 1.056125,-1.48317 1.920121,-4.09985 1.920121,-5.81483 0,-2.71848 -0.507394,-3.38694 -3.959012,-5.2151 -2.177457,-1.15333 -4.587797,-2.09627 -5.356311,-2.09548 -1.925943,0.002 -5.868945,-3.66727 -7.196087,-6.696 -1.428738,-3.26127 0.771716,-8.20479 3.652189,-8.20479 1.591173,0 1.716057,-0.2326 0.749301,-1.3973 -1.861609,-2.24316 -7.897357,-1.80284 -9.576444,0.69865 -0.774045,1.15277 -2.232766,2.96073 -3.241732,4.0177 -5.415405,5.67314 -5.346414,10.13935 0.241616,15.72834 4.495517,4.49555 4.673672,5.17304 3.284234,12.49942 -0.573475,3.02457 -0.583955,5.63842 -0.02911,7.10037 1.240976,3.26436 10.629658,11.97241 11.01799,10.21961 0.209595,-0.94052 1.570214,-1.35864 4.424779,-1.35864 z m 11.575745,0.46577 c 0,-1.9536 0.439276,-2.32883 2.726188,-2.32883 1.813286,0 2.869119,0.54599 3.152363,1.63018 0.320506,1.22674 0.452667,1.11146 0.534176,-0.46577 0.05822,-1.15277 -0.264905,-2.09594 -0.7199,-2.09594 -0.455286,0 -1.101246,-1.57196 -1.435142,-3.49325 -0.333896,-1.92129 -1.042443,-4.60296 -1.57429,-5.9593 -1.050011,-2.67755 0.472753,-6.71292 3.936307,-10.43055 2.192012,-2.35273 2.224615,-3.32114 0.133908,-3.96822 -0.8966,-0.27742 -2.357942,-0.89313 -3.247555,-1.36807 -0.889905,-0.47493 -2.36813,-0.86353 -3.285107,-0.86353 -1.391476,0 -1.606893,0.63478 -1.301525,3.83705 0.200861,2.11036 -0.0012,4.10151 -0.450047,4.42478 -0.448882,0.32324 -1.623486,2.1275 -2.610619,4.00946 -1.599325,3.04934 -1.668899,3.91101 -0.639847,7.91802 0.634898,2.47296 1.375757,5.54428 1.646193,6.82514 0.824697,3.90746 1.174895,4.65766 2.174254,4.65766 0.528354,0 0.960643,-1.04797 0.960643,-2.32883 z M 18.062432,296.60165 c 0.795005,-1.56972 0.687296,-2.48445 -0.490801,-4.16628 l -1.509374,-2.15498 v 2.13158 c 0,1.17236 -0.466348,3.00288 -1.036329,4.06782 -0.781032,1.45919 -0.723394,2.87864 0.232883,5.76086 l 1.269213,3.82455 0.259082,-3.72613 c 0.142641,-2.04937 0.716407,-4.63123 1.276491,-5.73742 z m 343.776188,-0.77323 c -0.3176,-2.72121 0,-3.88408 1.27707,-4.82516 2.61382,-1.9112 3.94125,-1.50801 6.15539,1.86941 l 2.03802,3.10931 2.62808,-2.5115 c 1.44562,-1.38132 2.62809,-3.45686 2.62809,-4.61232 0,-2.21396 -0.38659,-2.23597 -7.69679,-0.4377 -2.06771,0.50864 -2.93316,0.17583 -4.40411,-1.69452 -1.58535,-2.01528 -2.37773,-2.26589 -5.90708,-1.8681 -3.54098,0.39911 -4.1424,0.20669 -4.57964,-1.46611 -0.27655,-1.05907 0.067,-2.67862 0.7656,-3.59904 2.11254,-2.78583 1.48812,-3.2447 -1.45494,-1.06887 -1.53062,1.13169 -3.0563,1.78426 -3.39048,1.45013 -0.50216,-0.50221 -7.11458,3.97174 -8.73079,5.90717 -1.25146,1.49886 -3.83442,1.68939 -4.35928,0.32158 -0.63228,-1.64762 1.88577,-4.29125 7.84059,-8.23192 2.17571,-1.43989 3.98958,-3.43482 4.15056,-4.56495 0.3077,-2.15932 -2.99895,-6.19923 -5.07452,-6.19923 -1.71635,0 -3.48888,-1.91415 -3.48888,-3.76805 0,-2.26475 -2.79605,-4.29282 -6.7507,-4.89645 -3.7829,-0.5774 -3.57155,-0.86641 -4.80875,6.56856 -0.57027,3.42652 0.30246,3.92757 2.02783,1.16441 1.43369,-2.29535 4.87396,-2.49834 4.87396,-0.28761 0,0.8665 -2.30555,3.7383 -5.12343,6.38178 -4.31271,4.04576 -5.12343,5.3206 -5.12343,8.0561 0,2.57845 0.49022,3.47307 2.37279,4.33081 1.30473,0.59461 3.29588,1.0944 4.42478,1.11071 3.99976,0.0576 5.31235,2.06509 5.31235,8.1243 0,6.68503 0.99558,7.43529 7.1105,5.35917 5.35835,-1.81917 6.85579,-1.76985 6.89218,0.22706 0.0291,1.55254 0.0873,1.55254 1.26717,0 1.68724,-2.22287 2.87232,-2.04864 4.66407,0.68567 1.46309,2.23305 1.57749,2.2557 3.19981,0.63326 1.2305,-1.23032 1.57022,-2.64631 1.26398,-5.26787 z m -259.14386,0.34965 c 0,-1.59537 0.89107,-4.63449 1.98009,-6.75361 1.08902,-2.11913 2.34659,-4.58085 2.7946,-5.47052 0.448,-0.88965 0.8145,-2.17298 0.8145,-2.85183 0,-0.67886 0.85934,-2.15679 1.90994,-3.28429 1.37837,-1.47966 1.57283,-2.14588 0.69865,-2.39462 -3.39457,-0.96589 -14.442244,-3.80651 -18.910397,-4.86234 -6.376048,-1.50661 -24.926932,-0.36694 -26.146657,1.60634 -0.592688,0.95924 -17.478167,1.14098 -18.421052,0.19824 -1.178389,-1.17859 -14.692885,-1.37098 -16.069224,-0.22881 -1.678214,1.39294 -1.670063,3.42667 0.02911,5.11755 1.539649,1.5395 3.327026,1.75399 3.327026,0.39922 0,-0.51234 1.275035,-0.93153 2.833605,-0.93153 1.558279,0 3.725256,-0.83084 4.815149,-1.8463 1.476188,-1.37535 2.293025,-1.588 3.201851,-0.83372 1.572252,1.30487 -0.02911,4.56582 -2.559385,5.22887 -0.973742,0.25471 -1.770493,1.04293 -1.770493,1.75168 0,0.92583 1.314916,1.28866 4.670179,1.28866 2.5687,0 5.398229,0.37029 6.287843,0.82287 0.889613,0.45255 2.863006,1.39572 4.385188,2.09594 1.522473,0.7002 4.813111,2.63545 7.313111,4.30058 2.5,1.66511 5.316721,3.02748 6.259606,3.02748 0.943177,0 1.946321,0.37491 2.229565,0.83314 0.282371,0.45822 2.089543,1.06325 4.014031,1.34452 6.774569,0.99016 10.038425,1.68395 11.882859,2.52591 1.024686,0.46774 4.168607,0.99045 6.986493,1.1615 2.817885,0.17117 5.647412,0.38857 6.287842,0.48335 0.71902,0.10654 1.16441,-0.93695 1.16441,-2.72834 z M 83.132585,284.17419 c -1.280857,-0.4102 -3.691196,-0.78762 -5.356311,-0.83868 -1.665114,-0.0509 -3.02748,-0.51205 -3.02748,-1.02439 0,-0.51234 -0.828772,-0.93153 -1.841523,-0.93153 -1.939916,0 -5.378434,-4.26889 -4.30397,-5.3433 0.344958,-0.34513 1.973684,-0.0745 3.619294,0.60136 1.64561,0.67586 4.149977,1.43884 5.565033,1.69548 1.415346,0.25675 2.802456,0.83753 3.082498,1.29081 0.699523,1.1319 15.946669,1.04422 18.092105,-0.10421 1.849669,-0.9899 4.664059,-0.36141 4.664059,1.04154 0,0.46506 -1.36236,1.6762 -3.02748,2.69146 -3.20068,1.95138 -12.687173,2.45182 -17.466225,0.92131 z M 17.472656,265.71194 c -0.520494,-0.5204 -5.133617,4.55074 -5.135364,5.6452 -5.82e-4,0.37957 1.260189,-0.62968 2.801875,-2.24286 1.541395,-1.61316 2.591698,-3.14422 2.333489,-3.40234 z m 26.535571,0.76313 c 0,-0.51234 -0.419189,-0.93153 -0.931532,-0.93153 -0.512343,0 -0.931532,0.41919 -0.931532,0.93153 0,0.51234 0.419189,0.93153 0.931532,0.93153 0.512343,0 0.931532,-0.41919 0.931532,-0.93153 z m 281.155383,-5.76586 c 1.12657,-4.43838 0.8113,-5.41253 -1.7507,-5.41253 -0.99441,0 -1.80805,-0.41919 -1.80805,-0.93153 0,-0.51234 -1.25757,-0.93153 -2.7946,-0.93153 -1.53702,0 -2.79459,-0.48906 -2.79459,-1.08678 0,-0.59775 -0.262,-0.82542 -0.58076,-0.50594 -0.31963,0.31946 -0.25034,1.3325 0.15138,2.2512 1.00343,2.28571 1.10969,2.73914 1.2433,5.29549 0.0815,1.54978 0.82528,2.40574 2.44528,2.81233 1.28085,0.32149 2.32883,0.99572 2.32883,1.49831 0,0.50256 0.57784,0.91378 1.28406,0.91378 0.72921,0 1.71227,-1.68689 2.27468,-3.9028 z m -34.36016,-43.51386 c -1.31433,-0.42344 -9.97758,-0.80138 -19.25128,-0.83983 -19.05275,-0.0792 -20.23434,-0.41713 -21.80601,-6.23816 -1.06922,-3.96038 -1.70587,-5.77506 -3.59542,-10.24685 -1.19003,-2.81649 -2.27585,-5.49837 -3.9596,-9.78109 -0.50331,-1.28086 -1.23107,-2.96903 -1.6165,-3.75154 -1.64677,-3.34115 -3.01263,-14.92414 -2.47612,-20.99916 0.31351,-3.55059 0.84594,-12.48541 1.18333,-19.85517 l 0.61365,-13.39954 -2.69446,0.54928 c -1.48201,0.30208 -4.58081,0.92961 -6.88635,1.39451 -7.49505,1.51126 -13.26881,4.00678 -16.21623,7.00887 -3.27026,3.33084 -6.38274,5.27073 -8.45686,5.27073 -0.7755,0 -1.40982,0.41919 -1.40982,0.93153 0,0.51235 -0.70388,0.93153 -1.5641,0.93153 -1.58797,0 -6.69073,1.47381 -10.08005,2.91148 -1.02469,0.43462 -3.33023,0.95572 -5.12343,1.15798 -13.31858,1.50227 -27.37337,5.99008 -28.72234,9.17123 -0.5726,1.35072 -3.5113,0.74985 -5.52981,-1.13076 -1.09979,-1.02469 -2.5623,-1.86307 -3.24959,-1.86307 -0.68759,0 -1.73964,-0.48958 -2.33786,-1.08794 -0.82964,-0.82956 -1.95039,-0.82956 -4.71937,0 -1.99698,0.59836 -6.3874,1.08794 -9.75577,1.08794 -3.36865,0 -6.3839,0.41919 -6.70063,0.93153 -0.31672,0.51235 -1.5641,0.93154 -2.77189,0.93154 -1.20808,0 -2.3361,0.35433 -2.50669,0.7874 -0.17175,0.43311 -1.47852,1.07365 -2.90609,1.4235 -2.24849,0.55109 -3.24406,0.006 -7.45226,-4.08652 -3.58989,-3.49077 -5.34263,-4.5829 -6.71984,-4.18703 -1.02469,0.2946 -9.827663,0.77419 -19.562176,1.06585 -16.761469,0.50215 -17.770726,0.63621 -19.048381,2.53062 -0.742315,1.10023 -4.619818,5.24895 -8.616674,9.21938 -3.997147,3.97042 -7.267408,7.76059 -7.267408,8.42259 0,0.662 1.467164,2.75911 3.260364,4.66025 4.006171,4.24715 4.245749,7.33437 0.698649,8.99273 -1.408943,0.65871 -3.289765,1.56791 -4.179378,2.02049 -0.889614,0.45255 -2.646425,0.82283 -3.903994,0.82283 -1.257569,0 -2.545412,0.41919 -2.862133,0.93154 -0.316721,0.51234 -3.485386,0.93153 -7.041511,0.93153 -3.68945,0 -6.465708,-0.39998 -6.465708,-0.93153 0,-0.51235 -0.523987,-0.93762 -1.164415,-0.94507 -1.428447,-0.0175 -11.900326,-9.93567 -13.507219,-12.79422 -1.390021,-2.47284 -1.553039,-10.13047 -0.232883,-10.94632 1.44795,-0.89485 1.103865,-3.78749 -0.852061,-7.16613 -2.924139,-5.05086 -4.262052,-10.70223 -3.103167,-13.10663 0.552515,-1.1462 1.56119,-3.44638 2.241499,-5.1115 0.68031,-1.66511 1.553913,-3.02748 1.941081,-3.02748 0.387168,0 0.70418,-0.60404 0.70418,-1.34231 0,-1.94763 1.805135,-2.76851 5.535922,-2.51726 2.005124,0.13507 5.092571,-0.68249 7.953249,-2.1059 4.426816,-2.20278 5.089077,-2.2787 12.442069,-1.42624 4.271658,0.49523 8.335468,1.46958 9.031206,2.16521 1.06544,1.06538 2.40248,0.8959 8.479564,-1.07482 3.968037,-1.28679 8.052515,-3.12014 9.076328,-4.07408 1.024103,-0.95398 2.376571,-1.73452 3.005938,-1.73452 0.629075,0 1.283768,-0.31439 1.454355,-0.69865 0.171751,-0.38425 2.292152,-1.70281 4.714136,-2.9301 4.035572,-2.04498 5.41948,-2.21917 16.559442,-2.0846 10.848856,0.131 12.218206,-0.0297 12.731716,-1.49467 1.09979,-3.13644 6.39002,-7.84792 11.39235,-10.14613 2.76723,-1.27131 9.47426,-3.79026 14.90452,-5.59764 5.43025,-1.80734 10.27159,-3.67041 10.75832,-4.14013 0.48673,-0.46973 1.6395,-0.854043 2.56171,-0.854043 0.92222,0 1.67676,-0.41919 1.67676,-0.931533 0,-0.512342 0.75454,-0.931532 1.67676,-0.931532 0.92222,0 2.07499,-0.378086 2.56171,-0.840184 1.36353,-1.294539 18.15877,-10.11158 23.24174,-12.201269 1.53702,-0.631899 3.52235,-1.519183 4.41226,-1.971733 0.88961,-0.452579 2.37773,-0.822864 3.30694,-0.822864 0.92891,0 2.16319,-0.473888 2.7422,-1.053097 2.60159,-2.601508 25.02619,-0.954762 28.56747,2.097869 1.01071,0.870983 6.15044,-4.412115 6.15044,-6.321669 0,-0.744586 0.40406,-1.103983 0.89806,-0.798673 0.494,0.305281 1.90265,-1.035806 3.12995,-2.980234 1.22758,-1.944428 4.45592,-5.418199 7.17396,-7.719492 2.71833,-2.301292 5.41453,-4.603371 5.99208,-5.115713 1.17985,-1.04713 2.40132,-1.833343 10.10305,-6.503202 2.97363,-1.802836 5.80316,-3.277888 6.28785,-3.277888 0.48498,0 0.88175,-0.419189 0.88175,-0.931532 0,-0.512343 0.83838,-0.931533 1.86306,-0.931533 1.02469,0 1.86307,-0.419189 1.86307,-0.931532 0,-0.512343 0.75454,-0.931532 1.67676,-0.931532 0.92221,0 2.20074,-0.523987 2.84146,-1.164416 2.33698,-2.336516 22.85253,-0.690527 26.68812,2.141244 2.67437,1.974412 8.17827,4.612366 9.62302,4.612366 0.90678,0 2.10963,0.461108 2.6732,1.024685 0.74523,0.745226 1.55828,0.49118 2.98091,-0.931532 1.07592,-1.07592 2.06101,-1.957324 2.1891,-1.958692 0.12808,-9.32e-4 4.2472,-3.903295 9.15376,-8.670994 15.74872,-15.30333 19.83611,-15.897618 40.77404,-5.928563 5.58425,2.658651 10.37844,11.083372 10.39416,18.264351 0.003,1.315964 0.46285,4.04154 1.02264,6.056881 1.8587,6.695709 -1.95709,18.226769 -6.03167,18.226769 -0.66284,0 -2.52882,1.647269 -4.14677,3.660573 -1.61796,2.013303 -3.75815,3.919684 -4.75606,4.236405 -0.9979,0.316692 -2.29157,2.021658 -2.87465,3.788804 -1.33908,4.05758 -4.15842,6.15181 -6.88577,5.114899 -1.32219,-0.502737 -2.61906,-0.325222 -3.7695,0.51601 -1.22759,0.897677 -2.10119,0.994091 -2.91191,0.321408 -0.79676,-0.661417 -1.34607,-0.656497 -1.76147,0.01455 -0.33186,0.537232 -1.38246,0.97677 -2.33407,0.97677 -0.95191,0 -1.89364,0.489142 -2.09275,1.086982 -0.19795,0.59784 -1.90993,1.121827 -3.80123,1.164415 l -3.43852,0.07743 v 8.093531 c -0.003,7.13784 -0.31818,8.67778 -2.67583,13.04145 -2.50582,4.63755 -2.71192,5.85357 -3.2886,19.38667 -0.55484,13.01758 -1.31142,18.12649 -3.31131,22.35678 -0.36329,0.76851 -1.24155,3.38845 -1.95214,5.82207 -0.71029,2.43363 -1.61912,4.42478 -2.01968,4.42478 -0.40027,0 -0.72805,0.55004 -0.72805,1.22232 0,0.67227 -0.83838,2.95758 -1.86306,5.07842 -1.02469,2.12087 -1.86307,4.23117 -1.86307,4.68954 0,0.45837 -0.69137,2.21943 -1.53644,3.91351 -0.84537,1.69405 -1.57895,4.5143 -1.63019,6.26724 -0.0844,2.84254 0.35952,3.4434 4.09816,5.55688 2.30555,1.30336 5.3045,3.15856 6.66454,4.12273 1.36003,0.96413 2.74045,1.75299 3.06823,1.75299 0.32749,0 1.70616,1.03005 3.06387,2.28901 2.41529,2.23944 2.4313,2.3302 0.74668,4.1919 -0.94725,1.04657 -2.47089,1.90289 -3.38583,1.90289 -0.91523,0 -1.89043,0.36679 -2.16756,0.81509 -0.89427,1.44699 -5.07132,0.86606 -6.69801,-0.93154 -1.79058,-1.97863 -4.26467,-2.3635 -3.57097,-0.55548 1.32918,3.46399 -7.63158,6.41817 -13.61784,4.48952 z m -25.81829,-5.60942 c 1.71606,-0.0483 2.37803,-0.47351 2.05345,-1.31932 -0.95628,-2.49185 1.93816,-3.62293 6.08843,-2.37939 4.47369,1.3403 6.83367,0.14846 4.7284,-2.38804 -0.84973,-1.0239 -2.92501,-1.43678 -7.22228,-1.43678 -8.83326,0 -10.93969,-1.76356 -11.91809,-9.97915 -1.13588,-9.53587 -0.23579,-24.86921 1.52539,-25.957 0.44801,-0.27684 0.8148,-1.71164 0.8148,-3.1882 0,-1.47654 0.41919,-2.9437 0.93153,-3.26037 0.51234,-0.31663 0.94172,-4.00928 0.95424,-8.20586 0.0291,-7.49904 1.04419,-14.20037 2.7256,-17.87704 1.57982,-3.45404 3.7762,-18.57475 3.78843,-26.0829 0,-7.57939 0.8378,-10.514879 2.64177,-9.39989 3.01641,1.86426 14.70278,-16.054817 13.63647,-20.909381 -0.35981,-1.637489 0.0815,-3.195098 1.36848,-4.831247 3.57126,-4.539881 2.07062,-17.487395 -2.45867,-21.217192 -4.03586,-3.323445 -11.54168,-4.95255 -12.87523,-2.794597 -0.31672,0.512343 -1.80863,0.931532 -3.31538,0.931532 -1.50676,0 -2.73958,0.41919 -2.73958,0.931533 0,0.512343 -0.61598,0.931532 -1.36906,0.931532 -1.51316,0 -7.78092,3.274482 -9.5191,4.973044 -1.82522,1.78368 -6.81096,11.850721 -6.81096,13.752212 0,0.972665 -0.37523,1.768455 -0.83372,1.768455 -0.45849,0 -1.0602,1.571961 -1.33704,3.493247 -0.9129,6.335264 -2.1204,11.927718 -2.81992,13.059326 -0.86633,1.401782 -1.99581,14.439916 -1.99581,23.037556 0,3.5864 0.76211,9.68321 1.69393,13.54843 1.74896,7.25655 1.74721,6.69556 0.12227,37.27407 -0.45471,8.56221 -0.25326,11.89989 0.98771,16.30182 0.85789,3.04436 1.77778,6.68797 2.04472,8.09691 0.26781,1.40894 0.85642,2.56171 1.31084,2.56171 0.45412,0 0.82586,0.84409 0.82586,1.8757 0,1.03164 0.37028,2.6036 0.82266,3.49325 0.45267,0.88967 1.23486,2.66552 1.73847,3.94638 0.50361,1.28085 1.3644,3.3768 1.91314,4.65766 0.54873,1.28085 1.25378,3.2461 1.56643,4.3672 0.54494,1.95307 3.45249,2.98789 7.00075,2.49155 0.76852,-0.10741 2.53668,-0.22764 3.92961,-0.26665 z m -12.66739,-38.08268 c -0.25617,-0.41255 -0.42646,-2.05999 -0.38076,-3.66098 0.0524,-1.88615 -1.08378,-4.6555 -3.23067,-7.86655 -2.39258,-3.57825 -3.04698,-5.27935 -2.35474,-6.12011 1.49336,-1.81346 2.14631,-1.45031 5.0262,2.79459 1.47706,2.17746 2.90493,4.16861 3.17303,4.42478 0.67303,0.64325 2.7783,5.50952 2.7783,6.42202 0,0.89654 -3.25687,4.75637 -4.01345,4.75637 -0.29373,0 -0.7429,-0.33753 -0.99791,-0.75012 z m 2.11895,-16.25034 c -0.0553,-0.12809 -0.18631,-2.74803 -0.29489,-5.82208 -0.12808,-3.66337 -0.92018,-6.98443 -2.29593,-9.63851 -1.15452,-2.22715 -1.87326,-4.63749 -1.59758,-5.35631 1.97019,-5.13385 8.01234,5.76686 8.01234,14.45485 0,4.12319 -0.36155,5.60285 -1.47357,6.02949 -1.59321,0.61146 -2.19725,0.6969 -2.35037,0.33256 z m -8.82394,-10.33221 c -0.29285,-0.7631 -0.39648,-2.57563 -0.22997,-4.02786 0.22124,-1.93698 0.87593,-2.72168 2.45517,-2.94553 2.00046,-0.28354 2.13262,-0.0204 1.86306,3.71806 -0.2125,2.95223 -0.72456,4.10573 -1.92274,4.33302 -0.89835,0.1703 -1.87267,-0.31459 -2.16552,-1.07769 z m 11.39468,-29.19131 c -0.34758,-0.34761 -0.36446,-2.05781 -0.0378,-3.80048 0.32691,-1.74263 0.17176,-4.07816 -0.34321,-5.19003 -5.46431,-11.781673 -6.79698,-19.254949 -3.43357,-19.254949 1.03255,0 3.17973,5.139555 3.19923,7.657545 0.003,0.369062 1.06224,2.981984 2.35445,5.806474 1.29192,2.82449 2.60684,6.4251 2.9221,8.00137 0.88903,4.44579 -2.32301,9.11821 -4.66115,6.78007 z m 18.02078,-42.819137 c -7.50757,-2.674749 -16.57196,-10.110823 -15.55513,-12.760595 0.84682,-2.206917 1.98416,-1.92999 5.48352,1.335177 5.67216,5.292239 11.54489,8.254308 16.42787,8.285951 1.55391,0.01164 2.07702,0.473567 1.8552,1.644212 -0.31526,1.664125 -5.22706,2.558512 -8.21146,1.495255 z m 31.41972,131.383957 c -0.30945,-0.30956 -1.11289,-0.34263 -1.78534,-0.0734 -0.74319,0.29737 -0.52224,0.51808 0.5627,0.56279 0.98218,0.0405 1.53237,-0.17961 1.22264,-0.48925 z m -7.29536,-3.84988 c 1.09572,0.28645 1.95855,0.0699 1.95855,-0.49173 0,-1.99493 -3.14043,-4.41092 -5.73358,-4.41092 -1.73469,0 -2.65021,-0.48268 -2.65021,-1.3973 0,-0.76851 -0.0815,-1.71169 -0.18049,-2.09595 -0.099,-0.38425 0.9752,-0.90824 2.38706,-1.16441 2.26071,-0.41014 2.98468,-1.52251 6.06107,-9.31533 1.92187,-4.86725 3.94242,-9.68793 4.49086,-10.71262 2.04646,-3.82499 5.2681,-13.40233 6.36207,-18.91252 0.33594,-1.69207 0.89893,-9.28607 1.25117,-16.87555 0.59938,-12.91806 0.80199,-14.04367 3.17536,-17.63015 1.69015,-2.55394 2.53551,-5.06369 2.53551,-7.5287 0,-3.68718 0,-3.69496 -2.7387,-2.74293 -1.50646,0.52506 -3.83908,2.39747 -5.18427,4.16086 -2.5981,3.40656 -4.18782,3.4403 -4.18578,0.0888 0.003,-4.76321 9.09961,-10.47403 11.25727,-7.0668 0.563,0.8892 0.82732,0.21017 0.83722,-2.14969 0,-1.89718 0.50215,-4.520698 1.09892,-5.830054 0.78598,-1.725285 0.80926,-2.955403 0.0844,-4.46859 -0.55019,-1.148404 -1.29658,-2.926379 -1.659,-3.951065 -0.50856,-1.438198 -0.75629,-1.544422 -1.08611,-0.465766 -0.93852,3.067361 -4.35317,9.315323 -5.09141,9.315323 -0.43171,0 -0.78511,0.628785 -0.78511,1.397302 0,0.76851 -0.37145,1.3973 -0.82528,1.3973 -0.45383,0 -1.50035,1.42233 -2.32533,3.16071 -1.76176,3.71303 -6.60602,8.18718 -11.25029,10.39101 l -3.29821,1.56507 v 8.60441 c 0,4.73242 0.48876,10.00617 1.08611,11.71943 0.82673,2.37192 0.82673,3.20139 0,3.477 -0.59735,0.19912 -1.08611,1.29117 -1.08611,2.42688 0,1.13568 -0.35719,2.46312 -0.79413,2.94984 -1.02003,1.13662 -2.70203,7.73483 -3.78726,14.85794 -0.46839,3.07406 -0.69283,12.34251 -0.49896,20.59659 0.28238,11.98769 0.0844,15.36158 -0.98014,16.76758 -2.07383,2.73941 -1.69918,3.15749 2.82953,3.15749 2.99196,0 4.38577,0.42958 4.7872,1.4754 0.42094,1.09694 0.74755,1.18214 1.27271,0.33218 0.38862,-0.62876 1.58797,-0.91276 2.66505,-0.63109 z m -8.25861,-13.92029 c 0.032,-3.69033 1.68898,-6.81841 3.61492,-6.81841 0.75425,0 1.02003,1.56852 0.82878,4.89054 -0.24453,4.26057 -0.55164,4.92889 -2.37745,5.18823 -1.86365,0.26461 -2.09274,-0.0964 -2.06625,-3.26036 z m 7.48806,-45.82027 c -1.14957,-2.14785 -0.46518,-2.90833 2.65137,-2.9467 2.66535,-0.0329 5.66692,-1.92175 5.66692,-3.56634 0,-1.64052 2.77917,-1.25411 3.44434,0.47886 0.40115,1.04536 -0.50215,2.54256 -2.81031,4.65766 -3.80502,3.48722 -7.51718,4.05796 -8.95232,1.37652 z m -16.35218,55.07079 c 2.19813,-2.4972 2.25722,-2.98399 2.35212,-19.32929 0.11645,-19.9297 1.28959,-28.53563 4.87017,-35.71324 1.21856,-2.44265 1.28348,-4.45191 0.44219,-13.70077 l -0.98568,-10.83832 -2.88135,0.53269 c -1.58447,0.293 -5.03784,0.8042 -7.67408,1.13603 l -4.79302,0.60334 -1.09252,5.70183 c -0.60113,3.136 -1.76641,7.79777 -2.58966,10.35948 -0.82324,2.56171 -1.79378,9.05915 -2.1562,14.43875 -0.66721,9.89424 -1.29745,13.84825 -2.74715,17.23335 -2.23044,5.20791 -2.92064,19.10442 -1.3187,26.54867 0.87884,4.08305 1.01042,4.20642 5.07278,4.75064 9.20528,1.23323 11.11347,0.9897 13.5011,-1.72316 z M 35.402324,188.51787 c -0.890486,-0.23318 -2.567245,-0.24162 -3.726129,-0.0175 -1.158593,0.22269 -0.42996,0.41357 1.619411,0.42391 2.049371,0.0116 2.997496,-0.17205 2.106718,-0.40513 z m 13.145668,-1.77967 c 0.865743,-0.73273 -0.825279,-2.85462 -3.262692,-4.09382 -1.470948,-0.7479 -3.60765,-1.93564 -4.748486,-2.63941 l -2.074115,-1.27955 2.408011,-4.33197 c 2.227236,-4.00742 10.996157,-13.04221 12.752096,-13.13924 1.126571,-0.0623 3.426874,-2.54727 3.426874,-3.70188 0,-1.32455 -4.935084,-1.26889 -9.528702,0.10742 -3.674313,1.10087 -3.706917,1.08803 -7.664183,-3.04136 -3.351478,-3.49735 -3.906322,-4.60742 -3.542442,-7.08672 0.238705,-1.61688 1.243304,-3.81137 2.235968,-4.87666 0.992373,-1.06527 1.683163,-1.97372 1.535282,-2.01881 -0.148463,-0.0451 -3.704005,-0.20202 -7.902014,-0.34851 l -7.632743,-0.26665 -0.611027,4.89072 c -0.336225,2.68989 -0.34554,7.35299 -0.02911,10.36248 0.32458,3.00946 0.890486,9.35125 1.257277,14.09281 0.585701,7.56875 0.969376,8.94055 3.144795,11.23867 2.287785,2.41707 7.906381,4.82589 11.256404,4.82589 0.774336,0 1.926525,0.62474 2.560258,1.38831 0.995575,1.19961 4.956043,1.14904 6.410398,-0.0818 z m -22.130297,-1.96614 c -1.675012,-1.38752 -3.531672,-3.37867 -4.126397,-4.42478 -1.948649,-3.42839 -3.630939,-32.29925 -2.1597,-37.06736 1.347229,-4.36667 -1.746623,-3.10317 -3.966872,1.62002 -2.606253,5.54506 -2.499127,7.01534 1.028179,14.10285 2.517466,5.05874 2.81381,6.30315 1.863065,7.82569 -0.621798,0.99572 -1.130648,3.83791 -1.130648,6.31593 0,4.19137 0.337972,4.84173 4.847753,9.32796 2.66622,2.65236 5.262284,4.82245 5.768805,4.82245 0.50652,0 -0.449465,-1.13524 -2.124185,-2.52276 z m 101.428145,-29.7146 c 3.32994,-0.71379 7.47322,-1.2978 9.20703,-1.2978 3.07202,0 8.92903,-1.30292 12.68427,-2.82167 1.02469,-0.41442 3.33023,-0.99968 5.12343,-1.30059 3.20214,-0.53735 11.94254,-3.5814 15.12488,-5.2675 0.88962,-0.47141 2.46158,-0.8571 3.49325,-0.8571 1.03138,0 1.87558,-0.41919 1.87558,-0.93153 0,-0.51234 0.56387,-0.93153 1.25291,-0.93153 0.68905,0 2.01153,-0.83838 2.93899,-1.86307 2.17687,-2.40533 4.19189,-2.38393 4.19189,0.0445 0,2.29367 -4.2638,6.47625 -6.60194,6.47625 -0.9196,0 -1.93089,0.41919 -2.24761,0.93153 -0.31673,0.51234 -1.39497,0.93153 -2.39637,0.93153 -1.0014,0 -2.54862,0.37029 -3.43823,0.82287 -3.15207,1.60334 -6.33442,2.84996 -11.1353,4.36181 -4.15842,1.30953 -4.67222,1.71809 -3.55962,2.83055 1.42903,1.42926 3.29617,1.73515 3.29617,0.54011 0,-1.28173 6.72595,-4.54579 11.64415,-5.65079 2.56172,-0.57557 8.22077,-1.68366 12.57569,-2.46242 8.92466,-1.59595 14.60322,-3.01959 16.98795,-4.25905 0.88961,-0.46239 2.46157,-0.84074 3.49324,-0.84074 1.03138,0 1.87558,-0.41919 1.87558,-0.93153 0,-0.51234 0.52399,-0.94085 1.16442,-0.95226 0.64043,-0.0116 2.21239,-0.84045 3.49325,-1.84234 1.98998,-1.55662 2.07877,-1.82464 0.60957,-1.84234 -3.20127,-0.0387 -10.48847,-6.08689 -12.37075,-10.26764 -2.80683,-6.23498 -3.14334,-8.31846 -3.14334,-19.46288 0,-8.63929 0.37814,-12.681063 1.37314,-14.675619 1.36003,-2.726275 7.66301,-6.988909 11.14607,-7.537843 3.14188,-0.495226 2.50524,-0.782022 -4.49814,-2.026432 -5.07364,-0.901491 -7.32912,-0.948038 -8.7628,-0.180776 -1.06166,0.568235 -3.40039,1.033128 -5.19708,1.033128 -1.79669,0 -3.52556,0.419189 -3.84228,0.931532 -0.31672,0.512343 -1.5152,0.931532 -2.66331,0.931532 -1.14811,0 -2.48574,0.352003 -2.97246,0.782225 -0.48673,0.430223 -2.35212,1.344667 -4.14532,2.03208 -1.7932,0.687442 -5.46926,2.640981 -8.16896,4.341203 -2.69969,1.70025 -5.49429,3.091348 -6.21041,3.091348 -0.71582,0 -1.44125,0.334478 -1.61184,0.743304 -0.45441,1.087535 -15.30653,8.049748 -21.27008,9.970778 -7.53464,2.42705 -12.33698,4.27014 -16.05642,6.1622 -0.88961,0.45255 -2.16465,0.82283 -2.83331,0.82283 -2.47468,0 -8.84054,7.79192 -9.51299,11.64415 -1.22612,7.02207 -1.59059,21.89101 -0.53679,21.89101 0.5464,0 0.99354,0.57825 0.99354,1.28499 0,0.70672 1.6689,3.00481 3.70895,5.10687 3.40708,3.51074 3.91913,3.73928 6.28784,2.80743 1.41826,-0.55796 5.30333,-1.59848 8.63356,-2.31229 z m -17.9547,-6.83305 c -0.64101,-2.4518 -0.0466,-2.84854 4.26205,-2.84854 3.56457,0 10.87215,-1.69824 11.82988,-2.74925 0.92978,-1.02043 6.22234,-3.9244 13.97298,-7.66683 4.35492,-2.10281 8.64579,-4.18255 9.53569,-4.62165 0.88962,-0.43907 2.64643,-0.79832 3.904,-0.79832 1.25756,0 2.54541,-0.41919 2.86213,-0.93153 0.31672,-0.51235 1.67385,-0.93154 3.01642,-0.93154 2.49418,0 7.81119,-1.44399 10.71116,-2.90894 0.88962,-0.44946 2.23714,-0.81719 2.9943,-0.81719 2.15882,0 10.03522,-4.69585 12.76228,-7.60872 2.44527,-2.61204 4.87948,-3.3807 5.83081,-1.84126 1.63106,2.63903 -13.84606,14.10765 -19.03848,14.10765 -0.95045,0 -1.98678,0.41919 -2.30351,0.93153 -0.31672,0.51234 -1.99347,0.93153 -3.72612,0.93153 -1.73266,0 -3.40941,0.41919 -3.72613,0.93153 -0.31673,0.51235 -1.99348,0.93154 -3.72613,0.93154 -1.73265,0 -3.40941,0.41918 -3.72613,0.93153 -0.31672,0.51234 -1.39497,0.93153 -2.39637,0.93153 -1.0014,0 -2.54861,0.35826 -3.43823,0.79614 -0.8899,0.43785 -4.34239,2.11603 -7.67262,3.72927 -6.06311,2.9371 -11.23574,5.77891 -12.10992,6.65298 -1.36062,1.36073 -4.91063,2.79459 -6.91896,2.79459 -1.25757,0 -2.54541,0.41919 -2.86213,0.93154 -0.31672,0.51234 -2.5981,0.93153 -5.06987,0.93153 -3.66587,0 -4.5811,-0.33334 -4.9671,-1.80912 z m -56.567589,4.09635 c 2.817885,-0.27131 15.313227,-0.85145 27.767232,-1.28918 12.454296,-0.43776 22.918017,-1.07007 23.253077,-1.40513 0.33506,-0.33503 0.10189,-1.4228 -0.51991,-2.41724 -1.43863,-2.30342 -1.47036,-14.03869 -0.0466,-17.16372 0.59559,-1.30714 0.85992,-2.59941 0.58773,-2.87173 -0.27363,-0.27219 -5.501272,-0.58495 -11.619984,-0.69472 -10.112948,-0.18136 -11.518398,0.003 -15.450919,2.02162 -2.379483,1.22168 -5.09752,2.93975 -6.040114,3.81792 -0.942886,0.8782 -2.323591,1.86321 -3.068817,2.18895 -0.745226,0.32572 2.903179,0.42004 8.107242,0.2096 6.681125,-0.27014 10.376979,-0.86903 12.575687,-2.0377 2.716581,-1.44399 5.215998,-1.76694 6.215649,-0.80304 0.597927,0.5768 -2.851071,5.09295 -3.556416,4.65688 -0.394154,-0.24366 -2.074697,0.23463 -3.734571,1.06276 -1.758558,0.87718 -6.420296,1.69955 -11.169364,1.97034 -7.402771,0.4221 -8.332265,0.28382 -10.122845,-1.50682 -1.527422,-1.52739 -2.446728,-1.78382 -4.081276,-1.13818 -1.16034,0.45837 -4.624767,1.54305 -7.698824,2.41045 -7.01502,1.97934 -10.712622,3.50099 -10.712622,4.40839 0,0.38726 -0.628784,0.70413 -1.397298,0.70413 -1.974558,0 -1.813286,5.12668 0.232883,7.4023 0.958023,1.06553 2.398405,1.63874 3.493246,1.39023 1.024686,-0.2326 4.168607,-0.64483 6.986493,-0.91611 z m 168.840229,-20.4662 c 2.43363,-0.88222 4.42478,-1.88938 4.42478,-2.23812 0,-0.34872 1.44795,-0.46501 3.21786,-0.2585 1.76962,0.20668 4.44225,-0.16651 5.93939,-0.82907 2.50408,-1.10849 2.64992,-1.4324 1.82552,-4.05592 -1.10853,-3.52681 -1.03138,-21.54389 0.12226,-28.46838 2.73871,-16.445883 7.68048,-32.571115 10.59647,-34.578335 0.4614,-0.317565 0.69283,-1.280362 0.51438,-2.139555 -0.26199,-1.255967 -1.69393,-0.599179 -7.31107,3.350839 -7.8959,5.552544 -9.80816,7.309414 -12.99837,11.941807 -2.86912,4.166424 -10.48847,11.46271 -15.87913,15.20613 -2.87262,1.994935 -5.29111,2.911796 -7.68515,2.913659 -1.92128,0.0019 -3.49324,0.326648 -3.49324,0.722549 0,0.395901 -0.59851,0.719841 -1.33035,0.719841 -0.91697,0 -1.53295,1.623487 -1.983,5.225722 -0.77259,6.183653 0.27364,22.804053 1.51462,24.070963 0.47712,0.48673 0.8672,1.44894 0.8672,2.13828 0,1.77591 4.12319,5.67652 7.6898,7.27457 3.49965,1.56814 7.72502,1.26668 13.96832,-0.9966 z m -9.86085,-0.14322 c -0.70884,-0.70878 2.02142,-4.03462 3.31218,-4.03462 1.51141,0 9.69667,-9.03542 11.35945,-12.53912 1.07913,-2.2739 2.13554,-3.2991 3.17711,-3.08322 1.77603,0.36816 1.77777,1.6893 0,6.24895 -1.12511,2.89939 -7.37511,10.30493 -8.69702,10.30493 -0.29809,0 -1.44154,0.83838 -2.54133,1.86306 -1.96233,1.82816 -5.38863,2.47011 -6.61883,1.24002 z m -7.41733,-29.77422 c -1.01973,-1.01968 1.19906,-4.069427 2.96082,-4.069427 0.92717,0 2.4444,-0.838379 3.37186,-1.863065 0.92716,-1.024685 2.04617,-1.863064 2.48602,-1.863064 0.44015,0 5.00088,-4.191896 10.13508,-9.315324 5.13419,-5.123428 9.73946,-9.315323 10.23404,-9.315323 1.39992,0 1.05671,3.4352 -0.49837,4.990364 -0.76851,0.768514 -1.3973,1.802603 -1.3973,2.298003 0,1.126543 -18.0039,16.874039 -21.16965,18.516386 -2.5067,1.30057 -5.17292,1.57118 -6.1225,0.62145 z m 82.71833,12.26019 c 6.8424,-1.56169 16.45377,-8.18907 17.60247,-12.13772 0.29809,-1.02469 1.49307,-2.91104 2.65574,-4.191897 1.16267,-1.280857 2.62546,-3.481602 3.25076,-4.890545 1.11259,-2.507074 1.07097,-2.561714 -1.94138,-2.561714 -6.14287,0 -8.49586,-4.812238 -9.83901,-20.122845 -0.84712,-9.659408 -2.77073,-15.275383 -5.23172,-15.275383 -0.75542,0 -1.37343,-0.41919 -1.37343,-0.931533 0,-0.512342 -0.42705,-0.931532 -0.94929,-0.931532 -1.05642,0 -0.24162,4.57819 1.06951,6.008384 1.50559,1.642262 0.887,11.543839 -0.9781,15.659902 -2.07907,4.588175 -2.95791,10.930659 -1.51666,10.945272 0.53738,0.0058 2.37308,1.44667 4.07924,3.202696 1.70587,1.756026 4.32581,3.461632 5.82208,3.79023 2.99517,0.657837 2.95732,0.610416 2.15475,2.702055 -0.7592,1.978226 -2.4182,1.855758 -6.62581,-0.489083 -4.4143,-2.46009 -6.77923,-4.926234 -6.79058,-7.080927 0,-0.918025 -1.24418,0.485125 -2.75443,3.118072 -1.51025,2.632976 -4.85969,6.957615 -7.44352,9.610298 -4.49349,4.61315 -4.69784,5.04701 -4.69784,9.96719 v 5.14407 l 5.35631,-0.44859 c 2.94597,-0.24657 6.61388,-0.73559 8.15091,-1.0864 z m 41.2369,-20.055746 c 0.64014,-1.024686 1.63775,-1.863065 2.21734,-1.863065 0.57959,0 1.55245,-0.681853 2.16203,-1.515225 0.90213,-1.233843 1.48346,-1.314275 3.12994,-0.433017 1.67531,0.896571 2.0223,0.831888 2.0223,-0.377037 0,-2.265196 2.6604,-2.742577 4.74936,-0.852207 1.61592,1.462506 2.00804,1.511877 2.7454,0.345861 1.15045,-1.818584 1.103,-3.43098 -0.20668,-7.054873 -0.84828,-2.345977 -0.84129,-3.339515 0.0291,-4.389584 1.36207,-1.641157 6.92099,-2.663018 6.34694,-1.166715 -0.21251,0.557609 0.18339,1.549836 0.88583,2.204937 1.05234,0.983028 1.60107,0.656701 3.14013,-1.867956 2.80159,-4.594899 2.47875,-6.319428 -1.18246,-6.319428 -1.9862,0 -3.52469,0.651753 -4.39771,1.863065 -1.42757,1.9807 -4.16715,2.478808 -5.12342,0.931532 -0.76503,-1.237686 -4.49174,-1.190527 -5.75513,0.07278 -0.55251,0.552399 -2.20831,0.866791 -3.67955,0.69865 -2.13292,-0.243654 -2.73492,-0.82496 -2.96984,-2.867432 -0.31119,-2.703277 -2.03424,-3.615772 -2.03424,-1.0772 0,0.816488 -0.83837,1.703743 -1.86306,1.971704 -1.02469,0.268107 -1.86307,1.0671 -1.86307,1.77585 0,0.70878 -0.37144,1.288659 -0.82527,1.288659 -0.45413,0 -1.49424,1.409408 -2.31166,3.132044 -2.03423,4.286679 -4.09991,5.965155 -4.87046,3.957295 -0.94812,-2.470511 0.33681,-5.709245 3.7826,-9.535543 3.73749,-4.150151 4.51706,-8.732184 1.48522,-8.732184 -0.99441,0 -2.06713,-0.41919 -2.38385,-0.931533 -0.85556,-1.384227 -3.86295,-1.127503 -5.45616,0.465767 -0.76852,0.768514 -1.74168,1.406643 -2.16232,1.418025 -0.42094,0.01164 -1.81329,0.840446 -3.09414,1.842338 -1.28086,1.001921 -3.54216,1.830956 -5.02533,1.842367 l -2.6962,0.02038 0.5464,5.852352 c 0.80781,8.651869 1.89334,10.915201 5.23404,10.915201 1.51957,0 3.02166,-0.419189 3.33838,-0.931532 0.31672,-0.512343 1.91343,-0.926322 3.54827,-0.919976 2.36318,0.0087 3.40213,0.674663 5.06841,3.247293 1.15277,1.779663 2.09595,3.888128 2.09595,4.685433 0,1.679727 1.89887,4.078569 3.26909,4.13021 0.51729,0.02038 1.46396,-0.802951 2.10381,-1.827637 z M 313.22107,60.090098 c 0,-2.082382 -3.37826,-3.287436 -7.40918,-2.642874 -3.46122,0.553476 -3.70487,0.7847 -3.20505,3.043491 1.30211,5.887343 0.94667,5.698125 5.98568,3.187034 2.5457,-1.268543 4.62855,-2.883005 4.62855,-3.587651 z"
     id="path817"
     inkscape:connector-curvature="0" />
</svg>
