<?xml version="1.0" encoding="UTF-8" standalone="no"?>
<svg
   xmlns:dc="http://purl.org/dc/elements/1.1/"
   xmlns:cc="http://creativecommons.org/ns#"
   xmlns:rdf="http://www.w3.org/1999/02/22-rdf-syntax-ns#"
   xmlns:svg="http://www.w3.org/2000/svg"
   xmlns="http://www.w3.org/2000/svg"
   xmlns:sodipodi="http://sodipodi.sourceforge.net/DTD/sodipodi-0.dtd"
   xmlns:inkscape="http://www.inkscape.org/namespaces/inkscape"
   id="svg"
   version="1.1"
   width="400"
   height="377.93103448275866"
   viewBox="0, 0, 400,377.93103448275866"
   sodipodi:docname="B9.svg"
   inkscape:version="0.92.5 (2060ec1f9f, 2020-04-08)">
  <metadata
     id="metadata11">
    <rdf:RDF>
      <cc:Work
         rdf:about="">
        <dc:format>image/svg+xml</dc:format>
        <dc:type
           rdf:resource="http://purl.org/dc/dcmitype/StillImage" />
      </cc:Work>
    </rdf:RDF>
  </metadata>
  <defs
     id="defs9" />
  <sodipodi:namedview
     pagecolor="#ffffff"
     bordercolor="#666666"
     borderopacity="1"
     objecttolerance="10"
     gridtolerance="10"
     guidetolerance="10"
     inkscape:pageopacity="0"
     inkscape:pageshadow="2"
     inkscape:window-width="1366"
     inkscape:window-height="693"
     id="namedview7"
     showgrid="false"
     inkscape:zoom="0.11038866"
     inkscape:cx="-841.20869"
     inkscape:cy="402.2309"
     inkscape:window-x="0"
     inkscape:window-y="0"
     inkscape:window-maximized="1"
     inkscape:current-layer="svg" />
  <path
     style="fill:#ffffff;stroke-width:0.99919105"
     d="m 48.372763,316.40136 c -1.09911,-0.44986 -2.818655,-1.73017 -3.821187,-2.84514 -1.70131,-1.89209 -2.003659,-1.92347 -4.535235,-0.47056 -2.490452,1.42935 -3.036167,1.40577 -6.670287,-0.2882 -4.174558,-1.94589 -8.451001,-6.08985 -8.453061,-8.19115 -6.56e-4,-0.68694 -0.450854,-1.24899 -1.000409,-1.24899 -0.549555,0 -0.999191,-0.68057 -0.999191,-1.51234 0,-0.83179 -0.422845,-2.29311 -0.939708,-3.24737 -0.516832,-0.95429 -1.663372,-3.75839 -2.547844,-6.23139 -0.884471,-2.473 -3.197349,-6.27479 -5.139745,-8.44841 -4.0645,-4.54835 -7.3597692,-10.56376 -7.3597692,-13.435 0,-1.08859 -0.449636,-2.25714 -0.999191,-2.59677 -0.5495551,-0.33963 -0.9991911,-3.97219 -0.9991911,-8.07234 0,-8.33853 2.2604824,-13.32474 7.8427223,-17.29965 3.902028,-2.77847 5.341051,-2.66025 8.978512,0.73765 1.991919,1.86075 3.496076,2.55668 4.352226,2.01368 4.529051,-2.87226 10.618527,0.51037 17.338306,9.63118 4.003384,5.43385 8.57334,9.45709 10.764098,9.47635 0.997848,0.009 2.610917,0.4423 3.584598,0.96341 1.408391,0.75377 3.692885,-0.49797 11.175202,-6.12313 5.172687,-3.88882 11.428248,-7.97071 13.901246,-9.07091 2.472998,-1.10017 5.277134,-2.3915 6.231392,-2.86958 0.954259,-0.47808 2.613853,-0.86927 3.687983,-0.86927 1.074162,0 2.230882,-0.44963 2.570513,-0.99919 0.339662,-0.54955 1.47746,-0.99919 2.528453,-0.99919 4.074394,0 13.551034,-5.25646 19.212764,-10.65681 l 5.87406,-5.6029 11.4012,0.50312 c 8.73399,0.38541 12.04712,0.16799 14.16238,-0.9294 2.07032,-1.0741 4.88804,-1.28418 11.26163,-0.8397 4.67528,0.32608 14.09359,0.83258 20.92962,1.12559 11.39022,0.48823 12.78172,0.35141 16.64752,-1.63683 3.95293,-2.03307 4.25581,-2.4927 4.81295,-7.30399 1.57941,-13.63893 1.74296,-20.97333 0.56176,-25.19214 l -1.23818,-4.42248 h -7.36407 c -5.68836,0 -7.3641,0.32224 -7.3641,1.41601 0,0.89203 -1.8668,1.81634 -5.04513,2.49798 -6.91915,1.48389 -7.38603,1.42275 -10.74968,-1.40755 l -2.95863,-2.48955 -55.8205,-0.25823 -55.820498,-0.25822 v -5.49555 -5.49556 l 54.955508,-0.24167 c 51.02529,-0.22451 55.06271,-0.36736 56.4543,-1.99839 1.69194,-1.98302 4.83874,-3.61101 10.04562,-5.19698 4.6956,-1.43028 6.0748,-5.30183 6.96114,-19.54108 0.37629,-6.0451 1.01602,-11.89037 1.42163,-12.98948 1.50419,-4.07614 3.1018,-7.04705 4.8028,-8.93133 2.11179,-2.33933 2.18926,-3.17565 0.35918,-3.87793 -0.76419,-0.2932 -2.62257,-3.05359 -4.12972,-6.13409 -1.50712,-3.08051 -3.81422,-6.44569 -5.12682,-7.47817 -1.9917,-1.56667 -2.3579,-2.6861 -2.21352,-6.76618 0.11054,-3.12453 -0.42534,-5.802173 -1.48501,-7.419426 -1.09927,-1.677735 -1.45314,-3.554997 -1.05006,-5.57049 0.35665,-1.78315 0.15331,-3.320999 -0.49185,-3.719707 -1.79958,-1.112225 -1.24562,-6.803742 1.02723,-10.553737 2.41776,-3.989114 9.8508,-11.569541 14.51381,-14.801612 2.07426,-1.437711 4.63637,-2.179485 7.49393,-2.169587 4.135,0.01561 11.01902,1.832423 12.48352,3.296925 0.37663,0.376632 1.50912,0.684789 2.51665,0.684789 2.35981,0 9.82536,7.440259 9.82536,9.792074 0,0.989199 0.4314,2.229975 0.95869,2.757236 1.58372,1.583749 3.64608,28.213725 2.3462,30.295125 -0.87873,1.40705 -0.72023,2.0046 0.78021,2.94165 1.03563,0.64673 2.94602,1.1759 4.24537,1.1759 1.29933,0 3.78519,0.49597 5.52413,1.10217 2.64454,0.92191 3.89287,0.75848 7.63213,-0.9992 3.01578,-1.41757 6.50614,-2.11169 10.72628,-2.13311 3.90949,-0.0187 6.98332,-0.582 8.1954,-1.49879 1.06676,-0.80688 3.17599,-1.46703 4.6872,-1.46703 1.51119,0 3.02552,-0.44964 3.36516,-0.99919 0.33963,-0.54956 1.91335,-0.99919 3.49716,-0.99919 1.58382,0 3.15754,-0.44964 3.49717,-0.99919 0.80435,-1.30148 11.18595,-1.30148 11.9903,0 0.33963,0.54955 1.51258,0.99919 2.60657,0.99919 2.65994,0 7.76671,2.64798 11.07716,5.74372 4.28584,4.00791 4.48205,9.34388 1.15747,31.47614 -0.30944,2.06084 -0.96525,3.74697 -1.45707,3.74697 -0.49185,0 -0.89425,1.03416 -0.89425,2.29814 0,1.26398 -0.37532,2.72529 -0.83404,3.24737 -0.83692,0.95251 -2.82877,6.39079 -5.14399,14.04431 -0.92194,3.04772 -0.95616,4.63456 -0.13302,6.17257 1.20952,2.26001 0.56885,5.07495 -1.23999,5.44818 -0.62812,0.12958 21.11489,0.46684 48.31787,0.7494 l 49.45996,0.51374 v 5.49555 5.49555 l -53.85256,0.25854 c -47.91823,0.23012 -53.98079,0.43393 -55.0163,1.85006 -1.14007,1.55915 -10.13335,2.34307 -14.98961,1.30666 -1.59349,-0.34006 -2.11154,0.32499 -2.78787,3.57907 -0.45685,2.19823 -1.23809,5.79531 -1.73609,7.99353 -0.49797,2.19822 -1.18826,5.34568 -1.53398,6.99434 -0.34569,1.64867 -0.98202,3.89685 -1.41401,4.99596 -2.89328,7.36097 -4.89182,18.07183 -5.66413,30.35611 -0.25511,4.05609 -0.89768,8.18565 -1.42813,9.17682 -0.53044,0.99116 -0.96447,4.05871 -0.96447,6.81676 0,4.65854 -0.46678,6.49537 -3.32961,13.10217 -1.16078,2.67883 -7.62455,11.27244 -8.89337,11.82377 -0.42159,0.18329 -0.7665,0.93731 -0.7665,1.67584 0,1.80407 -6.99759,7.48341 -9.22038,7.48341 -0.9739,0 -1.77072,0.44963 -1.77072,0.99919 0,0.54955 -0.9054,0.99919 -2.01194,0.99919 -1.10657,0 -2.7927,0.39718 -3.74696,0.88263 -4.10006,2.08568 -17.01798,6.90378 -20.96946,7.82113 -1.2365,0.28696 -2.24818,0.91913 -2.24818,1.40465 0,0.48548 -0.89928,0.88269 -1.99839,0.88269 -1.09911,0 -1.99838,0.44964 -1.99838,0.99919 0,0.54956 -1.09755,0.99919 -2.43899,0.99919 -1.34145,0 -2.7169,0.44964 -3.05656,0.99919 -0.83685,1.35409 -6.13057,1.26439 -8.7708,-0.14863 -1.17958,-0.6313 -3.73542,-2.89425 -5.67966,-5.02877 l -3.53498,-3.88095 -5.14074,0.98623 c -10.80775,2.07342 -16.33662,-1.1926 -22.28421,-13.16365 -3.99114,-8.03325 -5.19139,-9.24983 -7.71822,-7.82333 -3.55063,2.00447 -9.59405,4.07933 -11.88185,4.07933 -1.27434,0 -2.56552,0.40214 -2.8693,0.89365 -0.82568,1.33598 -7.43789,2.17752 -23.54622,2.99667 -7.968554,0.40523 -15.916432,1.2285 -17.661956,1.82951 -3.735851,1.28631 -6.562718,2.78615 -6.3379,3.36269 0.591302,1.51665 -2.23722,5.67256 -4.615232,6.78113 -7.773238,3.62366 -9.354177,4.48737 -9.354177,5.11046 0,0.37157 -1.729475,2.54894 -3.843264,4.83861 -3.947523,4.27592 -6.999458,5.11945 -11.644198,3.2184 z m 6.561907,-5.38305 c -0.586494,-0.5865 -1.066356,-2.24119 -1.066356,-3.67709 0,-4.79936 -7.687214,-17.9726 -10.487853,-17.9726 -2.450609,0 -7.497586,-7.77212 -7.497586,-11.54594 0,-1.27865 -0.449636,-2.6027 -0.999191,-2.94233 -0.549555,-0.33964 -0.999191,-1.47693 -0.999191,-2.52733 0,-2.73332 -4.936097,-13.16294 -7.135005,-15.07574 -1.021734,-0.88878 -1.857713,-2.12527 -1.857713,-2.74777 0,-2.15694 -1.963254,-1.12006 -2.587343,1.36649 -0.674391,2.6871 1.390874,15.37055 2.757736,16.936 0.45585,0.52208 0.828798,2.63893 0.828798,4.70407 0,2.99701 0.756293,4.52215 3.746965,7.55638 2.060832,2.09084 5.225301,4.88789 7.032119,6.21563 3.181737,2.3381 5.332558,5.87665 6.716531,11.05002 1.549121,5.79081 3.084097,8.01748 6.453432,9.36133 3.829712,1.52748 6.900663,1.10488 5.094657,-0.70112 z m -15.821754,-7.57818 c -1.737843,-5.19835 -4.848668,-10.07475 -6.427109,-10.07475 -1.665401,0 -9.792414,-8.54917 -9.792414,-10.30107 0,-0.8642 -0.449636,-1.84919 -0.999191,-2.18882 -0.549555,-0.33963 -1.004062,-2.05231 -1.009995,-3.80595 -0.0062,-1.75361 -0.680418,-5.39563 -1.498787,-8.09335 -0.8184,-2.69772 -1.487983,-7.67775 -1.487983,-11.06673 0,-5.18174 -0.374727,-6.51382 -2.356186,-8.37528 l -2.356217,-2.21355 -1.640556,2.50381 c -1.153223,1.76002 -1.640578,4.73189 -1.640578,10.0044 0,8.88612 2.877273,16.50736 8.205054,21.73341 1.855966,1.82049 3.954049,4.88373 4.662413,6.80717 0.708364,1.92345 1.700061,4.27792 2.203747,5.23221 0.503748,0.95426 0.915852,2.64039 0.915852,3.74696 0,1.10654 0.449635,2.01194 0.99919,2.01194 0.549555,0 0.999191,0.69406 0.999191,1.54237 0,3.77282 8.284355,9.803 11.123369,8.09673 1.48917,-0.89503 1.497881,-1.3786 0.100232,-5.5595 z m 27.662667,-2.22158 c 5.884236,-3.03563 8.246667,-4.8556 6.302866,-4.8556 -0.645352,0 -1.80432,-1.2365 -2.575477,-2.74777 -1.221168,-2.39325 -1.190974,-3.41514 0.234185,-7.92018 0.899897,-2.84483 1.968937,-5.50517 2.375639,-5.9119 1.216734,-1.21674 0.835699,-8.07681 -0.509525,-9.17317 -0.686944,-0.55983 -5.352229,-0.96853 -10.367294,-0.9082 -8.614744,0.10366 -9.332101,-0.0518 -12.989484,-2.81516 -4.872773,-3.68165 -5.311887,-4.1281 -8.844714,-8.99247 -4.995768,-6.87878 -7.110368,-8.49313 -11.124774,-8.49313 -3.63234,0 -3.664657,0.034 -1.887129,1.99839 0.994695,1.09911 2.841824,1.99838 4.104739,1.99838 1.697595,0 2.72111,0.97686 3.925916,3.74696 0.896305,2.06084 2.041503,4.52771 2.544846,5.482 0.503373,0.95426 0.915196,2.64649 0.915196,3.76052 0,1.11404 0.385438,2.80626 0.856526,3.76052 2.579037,5.22436 4.647987,8.85221 5.597686,9.81546 1.742465,1.76738 10.480703,6.40784 12.066263,6.40784 0.804848,0 1.463346,0.44964 1.463346,0.99919 0,0.54956 0.533069,0.99919 1.184604,0.99919 2.725887,0 5.809734,4.33546 5.809734,8.1677 0,3.15648 -0.34825,3.8226 -1.998382,3.8226 -1.401741,0 -2.002941,-0.67124 -2.013683,-2.24818 -0.02186,-3.3422 -0.947326,-4.30808 -7.346208,-7.67407 -7.083141,-3.72595 -7.416371,-3.76561 -4.143989,-0.4932 1.415729,1.4157 3.496263,4.67556 4.623413,7.24414 1.127181,2.56855 2.462319,5.45084 2.966973,6.40513 0.504654,0.95426 0.924158,2.52798 0.932276,3.49717 0.01249,1.33657 0.31281,1.17751 1.248989,-0.65866 0.678826,-1.33145 3.670248,-3.67749 6.647556,-5.2135 z m 126.743237,6.21716 c 3.58488,-1.89581 11.10092,-5.00779 13.6245,-5.64119 1.43974,-0.36133 2.86481,-1.05683 3.16681,-1.54549 0.30195,-0.48867 1.42797,-0.8885 2.5021,-0.8885 1.07413,0 2.84614,-0.44964 3.93778,-0.99919 3.82444,-1.92529 5.52862,-2.60742 11.33439,-4.53683 5.95727,-1.97977 8.8404,-4.211 13.5045,-10.45104 1.43765,-1.92344 2.88564,-3.72199 3.21771,-3.99676 0.33208,-0.27478 1.79595,-2.65133 3.25305,-5.2812 2.01746,-3.64124 2.64205,-6.1434 2.61892,-10.4915 -0.0219,-4.07589 -0.30101,-5.24672 -0.97606,-4.09141 -2.6067,4.46139 -9.16208,6.73261 -22.97415,7.95981 -20.45438,1.81734 -22.60376,2.13795 -20.22722,3.01708 1.27594,0.472 2.24178,1.67112 2.24178,2.78322 0,2.64305 4.05082,7.2787 8.41344,9.62814 2.48867,1.34023 3.57686,2.61707 3.57686,4.19701 0,3.00697 -1.27394,2.86518 -6.48788,-0.72207 -5.56327,-3.82765 -10.49837,-9.80819 -10.49837,-12.72229 0,-1.92854 -0.52648,-2.27032 -3.49717,-2.27032 -1.92344,0 -3.49717,-0.48174 -3.49717,-1.07057 0,-1.57407 2.62244,-3.92539 4.37799,-3.92539 0.83772,0 2.55596,-0.41073 3.81834,-0.9127 1.26236,-0.50197 8.8149,-1.44255 16.78345,-2.09012 20.35015,-1.65381 24.1131,-3.51793 28.22761,-13.98343 0.54016,-1.37388 1.35556,-3.24078 1.812,-4.14864 0.63639,-1.26572 -0.0849,-2.25605 -3.09271,-4.24656 -2.15747,-1.42775 -4.60677,-2.5959 -5.44288,-2.5959 -0.8361,0 -1.5202,-0.44963 -1.5202,-0.99919 0,-0.54955 -1.2365,-0.99232 -2.74778,-0.98389 -1.6703,0.009 -2.27319,0.3169 -1.53744,0.78446 2.21443,1.4073 9.40748,13.41692 8.87188,14.81263 -0.74718,1.94714 -3.52711,1.7049 -4.3003,-0.37473 -0.35756,-0.96172 -2.19579,-4.09431 -4.08497,-6.96133 -1.90075,-2.8846 -3.177,-5.88473 -2.8575,-6.71731 0.7147,-1.86252 -3.69342,-3.09937 -14.3269,-4.0199 -4.12167,-0.35684 -10.05605,-1.54385 -13.18755,-2.63784 l -5.69361,-1.98901 -4.17131,2.12803 c -4.47597,2.28346 -3.58815,2.27425 -37.1488,0.38615 -7.46142,-0.41978 -10.7413,-0.27134 -10.7413,0.48583 0,0.6767 2.48805,1.09015 6.56044,1.09015 3.60823,0 7.42892,0.46481 8.49044,1.03291 1.11475,0.59661 9.10628,1.0272 18.91893,1.01943 l 16.98893,-0.0125 v 2.47774 c 0,2.40343 -0.21139,2.47774 -7.05082,2.47774 h -7.05082 l 1.69794,3.24737 c 3.10723,5.94266 3.41098,6.7052 3.41098,8.56282 0,1.01499 0.33723,2.18136 0.7494,2.59197 0.68853,0.68591 3.41199,19.02116 4.87758,32.83732 0.77996,7.35311 -1.08493,14.34607 -4.78906,17.95774 -2.80551,2.73547 -2.3802,3.57773 0.92422,1.83024 z m 27.43838,-25.01406 c -2.3214,-1.68161 -4.22074,-3.72911 -4.22074,-4.55001 0,-1.81234 3.34798,-1.96978 5.17831,-0.24355 0.72835,0.68694 2.17886,1.92344 3.22336,2.74778 1.84769,1.45825 1.85437,1.41232 0.24574,-1.69897 -2.15342,-4.16535 -2.08525,-5.29537 0.31952,-5.29537 1.15381,0 2.57822,1.17086 3.43128,2.82056 0.80223,1.55127 2.16269,3.4049 3.02324,4.1191 0.86059,0.7142 1.56467,1.91795 1.56467,2.67499 0,1.69216 -3.16184,1.81169 -4.79237,0.1811 -0.92759,-0.92759 -1.48164,-0.80369 -2.47384,0.55324 -1.19113,1.62894 -1.56723,1.53945 -5.49929,-1.30897 z m 6.38936,-31.02229 c -1.78068,-2.69083 -3.37795,-3.99677 -4.88836,-3.99677 -1.2339,0 -2.81537,-0.91576 -3.51437,-2.03504 -1.4961,-2.39565 -4.98765,-3.89753 -11.20009,-4.81763 -3.59752,-0.53282 -4.49636,-1.06295 -4.49636,-2.65201 0,-1.63302 0.62159,-1.95857 3.49717,-1.83164 5.81123,0.25635 9.31034,1.42965 13.10239,4.39279 2.33074,1.82124 3.9533,2.47765 4.57867,1.85228 1.17571,-1.17571 9.73256,10.57266 8.79978,12.0819 -1.22419,1.98078 -3.27937,0.93412 -5.87883,-2.99388 z m -37.10153,50.20935 c 0.5425,-1.2365 1.32936,-2.24818 1.74859,-2.24818 0.41925,0 0.76226,-2.69782 0.76226,-5.99515 0,-5.53414 -0.17112,-5.99515 -2.22698,-5.99515 -2.88573,0 -15.48734,-4.76177 -18.91029,-7.14562 -1.45869,-1.01589 -3.14483,-1.8471 -3.74696,-1.8471 -0.60211,0 -1.09474,-0.34016 -1.09474,-0.75591 0,-0.78559 -7.00136,-3.24085 -9.24158,-3.24085 -1.71215,0 -9.06089,3.95951 -9.95042,5.36128 -0.38884,0.61276 0.0281,2.23582 0.92629,3.6068 0.8983,1.37096 2.88753,4.87709 4.42054,7.79138 4.51597,8.58502 4.83746,8.75926 15.59225,8.45129 8.74314,-0.25043 9.59711,-0.0965 12.55987,2.26301 3.83352,3.05299 7.76015,2.94764 9.16117,-0.24574 z M 77.848899,287.37023 c 0,-1.38722 3.620319,-1.2512 5.983781,0.22482 1.546529,0.96581 2.218017,0.96581 3.18386,0 0.673174,-0.6732 3.494608,-1.23085 6.269861,-1.23928 3.312194,-0.009 4.566772,-0.31871 3.651325,-0.89833 -2.046062,-1.29558 -0.561514,-4.48959 1.652818,-3.55597 0.957101,0.40355 4.213156,0.9458 7.235706,1.20506 3.37961,0.28976 5.97863,1.08556 6.7502,2.06661 1.06154,1.34978 1.76444,1.41095 4.5673,0.39743 1.82196,-0.65885 4.09553,-1.19788 5.05234,-1.19788 4.97485,0 18.40251,-5.4612 25.98834,-10.56982 2.79221,-1.88038 6.27714,-3.41888 7.74429,-3.41888 2.17565,0 2.5712,-0.36852 2.14498,-1.99839 -0.68547,-2.62125 0.95611,-2.56189 6.90713,0.2498 3.12375,1.4759 4.76443,2.88098 4.77601,4.09031 0.009,1.01318 0.91691,2.07729 2.01602,2.36472 1.09911,0.28758 1.99839,0.81003 1.99839,1.16134 0,0.35131 1.46131,1.23581 3.24737,1.96559 1.78605,0.72979 4.14664,1.73079 5.24575,2.22442 1.09911,0.49366 3.9419,1.31478 6.31732,1.82468 3.84651,0.82571 4.23648,0.74568 3.56509,-0.73153 -0.41464,-0.91223 -1.08388,-5.25572 -1.48714,-9.65216 -1.14258,-12.45566 -3.29128,-21.04883 -6.79044,-27.15639 l -2.39194,-4.17499 -8.09957,-0.58241 c -21.26472,-1.52904 -24.91474,-1.65575 -25.47856,-0.88434 -1.22638,1.67786 -11.88197,8.0384 -22.08905,13.18539 -5.77033,2.90973 -13.38408,7.30418 -16.91943,9.7654 -3.53536,2.4612 -7.6945,4.72827 -9.242524,5.03786 -2.65738,0.53148 -3.229917,1.30254 -2.918825,3.93094 0.13895,1.17343 -8.665172,5.3749 -11.262912,5.3749 -0.827424,0 -1.782276,0.44964 -2.121939,0.99919 -1.268067,2.05178 -3.498199,0.97846 -3.633246,-1.74858 -0.132705,-2.67793 -0.146756,-2.68427 -0.558704,-0.2498 -0.232624,1.37389 -1.295295,4.40403 -2.3619,6.73364 -2.3318,5.09304 -2.413671,6.25584 -0.440487,6.25584 0.824332,0 1.498786,-0.44963 1.498786,-0.99919 z m 79.487531,-37.88542 c -0.86596,-1.40114 1.09208,-5.72898 2.90702,-6.42545 2.24396,-0.86109 3.09705,1.92881 1.50144,4.91024 -1.32134,2.46891 -3.38142,3.17699 -4.40846,1.51521 z m -11.29274,-1.57847 c -1.4975,-1.7009 -1.64176,-5.13903 -0.25167,-5.99818 1.12459,-0.69503 5.91681,4.32085 5.96542,6.24382 0.0428,1.69601 -4.1635,1.51518 -5.71378,-0.24573 z M 81.486954,268.3856 c 1.231534,0 2.517056,-0.44963 2.856687,-0.99919 0.339663,-0.54955 1.693941,-0.99919 3.009533,-0.99919 1.315591,0 3.649639,-0.50437 5.1868,-1.12084 5.028617,-2.01674 13.774826,-6.27245 14.285476,-6.95103 0.90361,-1.20075 14.81559,-9.91357 15.82924,-9.91357 2.65872,0 22.14002,-11.54646 22.14002,-13.12225 0,-1.78736 -3.78419,-0.78799 -4.28628,1.13196 -0.42691,1.63252 -1.3629,1.99838 -5.11249,1.99838 -4.19279,0 -4.58991,-0.20983 -4.58991,-2.42472 0,-1.46903 0.68919,-2.6048 1.74858,-2.88164 0.96173,-0.25136 0.0918,-0.50912 -1.93334,-0.57288 -6.37512,-0.20077 -12.62374,3.30498 -11.43102,6.41318 0.94558,2.46413 -1.12503,6.4604 -3.34736,6.4604 -1.11269,0 -2.02311,-0.62774 -2.02311,-1.395 0,-1.31359 -2.6176,-0.34718 -12.22654,4.51401 -0.95426,0.48276 -2.646484,0.87775 -3.760519,0.87775 -1.114036,0 -2.80626,0.4137 -3.760518,0.91935 -0.954259,0.50563 -4.304297,1.90021 -7.444505,3.09906 -3.140239,1.19884 -6.648648,2.99426 -7.796469,3.98977 -1.147852,0.9955 -3.074948,2.54884 -4.282439,3.45186 -1.976213,1.47786 -1.995884,1.57297 -0.197028,0.9526 2.225386,-0.76744 5.461172,-0.78976 6.20813,-0.0428 0.856088,0.85609 -0.830609,2.71237 -3.326931,3.66148 -2.121626,0.80666 -2.266853,1.1658 -1.176954,2.91102 0.807628,1.29323 1.584655,1.64944 2.217549,1.01655 0.535816,-0.53579 1.981864,-0.97421 3.213398,-0.97421 z M 257.17488,221.92322 c 0.93543,-3.29733 2.14845,-7.56887 2.69563,-9.49232 0.54715,-1.92344 1.2133,-4.84607 1.48027,-6.49474 0.26697,-1.64866 0.88097,-3.89684 1.36439,-4.99595 0.48343,-1.09911 1.01805,-4.13416 1.1881,-6.74454 l 0.30913,-4.74616 h -20.63351 c -18.67976,0 -20.70933,0.16549 -21.43431,1.74858 -0.44045,0.96173 -1.27543,5.79531 -1.8555,10.74131 -0.93533,7.97504 -1.28083,8.99272 -3.05305,8.99272 -2.60134,0 -3.37246,-5.87069 -1.10083,-8.38078 2.41891,-2.6729 0.72557,-7.51748 -2.77116,-7.92811 -3.1043,-0.36458 -4.62048,-2.92913 -2.51853,-4.26005 1.02439,-0.64863 0.73144,-0.88675 -1.10339,-0.897 l -2.49797,-0.0125 -0.044,15.73589 c -0.025,8.65474 -0.36998,16.97238 -0.76841,18.48366 -0.60888,2.30938 -0.41198,2.74778 1.234,2.74778 1.07716,0 2.19666,0.38547 2.48783,0.85655 0.52508,0.84956 3.19242,1.28306 19.57237,3.1809 4.67122,0.54121 9.84204,1.4733 11.4907,2.07129 3.77582,1.36958 7.84115,3.22751 8.49312,3.88157 0.27478,0.27572 1.39887,1.00325 2.49798,1.61691 1.86855,1.04322 2.03957,0.75111 2.63237,-4.49636 0.34869,-3.08665 1.39934,-8.30989 2.33477,-11.60722 z m -42.4368,2.06342 c 0,-5.19791 1.60529,-8.55816 4.08853,-8.55816 1.81897,0 2.04625,0.41176 1.51674,2.74777 -0.34256,1.51128 -0.90345,4.2091 -1.24639,5.99515 -0.43843,2.28306 -1.17818,3.24737 -2.49124,3.24737 -1.46156,0 -1.86764,-0.74621 -1.86764,-3.43213 z m 9.37241,-14.00588 c -0.95694,-2.49379 0.57753,-3.545 5.17484,-3.545 3.23082,0 4.43738,0.39799 4.43738,1.46366 0,3.1334 -8.50206,4.97441 -9.61222,2.08134 z m -0.37189,-12.22669 c 0.009,-2.21268 4.23326,-4.3078 8.68454,-4.3078 2.64882,0 3.29795,0.39953 3.29795,2.02977 0,2.28612 -0.57328,2.55936 -7.24413,3.45242 -4.15068,0.55571 -4.74519,0.40836 -4.73836,-1.17439 z m -6.00295,-6.80577 c 0,-0.82434 -0.69216,-1.49879 -1.53819,-1.49879 -1.27085,0 -1.31425,0.25386 -0.2498,1.46079 1.63786,1.85699 1.78799,1.86021 1.78799,0.0381 z m 58.59163,-13.48908 c 1.91929,0 4.3353,-0.4526 5.36893,-1.00578 1.39238,-0.74518 2.08738,-0.63605 2.68211,0.42113 0.68014,1.20902 1.44246,1.1333 4.99206,-0.49582 4.10642,-1.88463 6.39981,-3.91549 4.42173,-3.91549 -0.54956,0 -1.27709,0.44964 -1.61672,0.99919 -0.84719,1.37077 -5.21519,1.26204 -6.08882,-0.15144 -0.91145,-1.47474 2.49957,-4.00703 4.5376,-3.36868 1.81978,0.57001 4.04919,-3.54297 4.04919,-7.4702 0,-1.42918 0.38681,-3.02567 0.85962,-3.54775 0.4728,-0.52208 1.6876,-3.42223 2.69956,-6.44478 1.012,-3.02255 2.19888,-5.9227 2.63756,-6.44478 0.43867,-0.52208 0.7976,-2.18167 0.7976,-3.68801 0,-1.50632 0.44964,-3.01666 0.99919,-3.35629 0.54956,-0.33966 0.99919,-3.03748 0.99919,-5.99514 0,-2.9577 0.44964,-5.65552 0.99919,-5.99515 1.46969,-0.90833 1.21589,-7.84699 -0.40098,-10.96356 -1.7306,-3.33568 -4.03655,-4.99162 -9.69534,-6.96218 -4.74516,-1.65241 -13.89403,-2.07934 -15.43301,-0.72016 -0.52208,0.46106 -3.512,1.42672 -6.64427,2.14588 -3.13228,0.71917 -5.90922,1.86571 -6.17098,2.54785 -0.32167,0.83822 -2.95798,1.24024 -8.13341,1.24024 -8.89162,0 -15.19448,2.57589 -18.74024,7.65883 -1.17199,1.68008 -2.40208,3.27954 -2.73353,3.55431 -0.33145,0.27478 -1.54725,2.52296 -2.70172,4.99596 l -2.09908,4.49636 2.07341,3.72071 c 2.55403,4.58307 11.88841,14.04416 15.53118,15.74193 1.47974,0.68966 3.47119,1.6511 4.42548,2.13652 3.05658,1.5549 3.67967,0.90624 6.11052,-6.3615 0.32167,-0.96172 1.31087,-1.74858 2.19825,-1.74858 0.88737,0 1.41804,-0.56205 1.17923,-1.24899 -0.23887,-0.68694 -1.51277,-1.11653 -2.83105,-0.95463 -6.92255,0.85015 -18.88349,-0.27822 -18.88349,-1.78156 0,-0.42775 -0.897,-1.01228 -1.99333,-1.29898 -2.07594,-0.54287 -3.71752,-3.32675 -2.61297,-4.43129 0.35009,-0.35006 3.44065,0.34831 6.86797,1.55199 3.42728,1.20369 8.09079,2.18399 10.36329,2.17843 4.87681,-0.0125 10.19213,-2.02752 9.64395,-3.65698 -0.21264,-0.63186 1.65934,-3.66053 4.15975,-6.73039 4.89935,-6.01507 5.58717,-9.08743 2.93922,-13.12872 -1.48009,-2.25892 -1.47762,-2.50232 0.0315,-3.08135 1.07654,-0.4131 2.48384,0.35437 4.10381,2.238 3.85731,4.48515 3.30963,7.44279 -2.89838,15.65246 -1.57753,2.08618 -2.70162,3.95458 -2.49797,4.15201 0.66408,0.64382 9.29572,-2.6354 12.01521,-4.56468 1.45872,-1.03488 3.06205,-1.88157 3.56296,-1.88157 0.50093,0 1.98014,-1.91095 3.28718,-4.24656 3.06923,-5.48456 4.69048,-7.07171 6.51035,-6.37337 1.81569,0.69675 1.8816,2.06554 0.18329,3.80401 -0.70946,0.72619 -2.3886,3.56855 -3.73148,6.31632 -2.13062,4.35969 -2.48464,6.65025 -2.77975,17.98544 -0.1861,7.14421 -0.75501,13.41664 -1.26444,13.93871 -0.5095,0.52208 -0.92631,1.76467 -0.92631,2.76133 0,1.98265 -1.91623,5.8399 -3.49717,7.03958 -0.54956,0.41701 -2.12328,1.02549 -3.49717,1.35213 -5.44363,1.29429 -7.99356,2.8733 -7.87762,4.87808 0.0974,1.68342 0.18891,1.72432 0.57288,0.25573 0.32514,-1.24431 1.46331,-1.74858 3.94652,-1.74858 z m 18.94338,-33.70827 c -0.92338,-0.92338 -0.70562,-4.74969 0.33064,-5.80973 0.5104,-0.52208 1.07244,-2.51928 1.24899,-4.43822 0.21826,-2.37096 0.88235,-3.59531 2.07266,-3.82082 2.65064,-0.50212 3.03942,1.9918 1.26311,8.10219 -1.47578,5.07643 -3.43154,7.45047 -4.9154,5.96658 z m -56.5722,-11.29304 c -1.45004,-2.70944 -0.44529,-5.49521 3.25868,-9.03488 3.4764,-3.32225 4.56102,-3.58675 5.42932,-1.32405 0.3865,1.00718 -0.36046,2.42885 -2.02976,3.86322 -1.81082,1.55599 -2.64127,3.25405 -2.64127,5.40072 0,3.64854 -2.31291,4.27903 -4.01697,1.09499 z m 59.62695,-14.77901 c -2.16388,-2.39103 -2.10211,-4.16791 0.14488,-4.16791 2.30201,0 4.1966,1.89463 4.1966,4.19661 0,2.32106 -2.22832,2.30632 -4.34148,-0.0281 z M 175.8529,177.45922 c 1.65716,0 2.92092,0.53878 2.9296,1.24899 0.009,0.86289 0.2423,0.9096 0.74939,0.15112 0.40377,-0.60382 2.9573,-1.09092 5.67454,-1.08243 2.88863,0.009 5.10183,-0.46875 5.32902,-1.15032 0.21358,-0.64117 0.92766,-1.16574 1.5865,-1.16574 1.43312,0 2.14417,-22.345 1.07432,-33.76182 -0.65388,-6.9777 -0.74227,-7.17657 -2.06058,-4.63553 -0.87205,1.68092 -1.38279,6.00379 -1.39209,11.78321 -0.0219,13.41538 -4.41696,25.61494 -9.22872,25.61494 -0.97615,0 -2.55556,0.41682 -3.50981,0.92625 -0.95426,0.50947 -2.5219,1.16981 -3.48362,1.46744 -0.96172,0.29757 -1.71308,1.11735 -1.66968,1.82153 0.0618,1.00284 0.18797,1.00962 0.58284,0.0315 0.27727,-0.68694 1.81544,-1.24898 3.41829,-1.24898 z m 10.23128,-3.598 c -0.67326,-1.75451 1.18667,-3.35709 3.92392,-3.38104 2.21121,-0.0187 2.34791,3.5377 0.16799,4.37418 -2.48998,0.95551 -3.43194,0.72688 -4.092,-0.99314 z m 29.54689,-1.64776 c -1.22085,-8.57215 -1.10095,-9.74211 0.99851,-9.74211 2.31309,0 2.79979,1.18176 3.67587,8.92528 l 0.68591,6.06259 h 10.86202 c 6.79116,0 10.86205,-0.38597 10.86205,-1.02989 0,-1.97449 12.02745,-13.15831 13.53058,-12.58153 2.35924,0.90536 1.75301,2.1739 -3.84608,8.04777 l -5.30336,5.56365 h 4.78475 c 4.40531,0 4.83318,-0.21795 5.39619,-2.74778 1.26929,-5.70335 1.62141,-6.35326 3.25893,-6.01497 1.27266,0.26291 1.61878,1.33217 1.47402,4.55319 -0.16018,3.56458 0.10773,4.20956 1.74859,4.20956 1.76098,0 1.93777,-0.75208 1.93777,-8.24333 v -8.24332 h -6.84308 c -9.86427,0 -14.50626,-2.87827 -25.88042,-16.04713 -3.94871,-4.57177 -4.73267,-6.73852 -4.31651,-11.93022 0.20889,-2.60439 4.13521,-10.49151 5.22299,-10.49151 0.46316,0 0.8421,-0.52663 0.8421,-1.1703 0,-0.64366 0.74415,-1.99257 1.65366,-2.99757 1.54878,-1.7114 1.52895,-1.82727 -0.31265,-1.82727 -2.12041,0 -6.55666,4.24943 -7.82345,7.49393 -0.84731,2.17015 -2.31278,8.92499 -3.14324,14.48827 -0.28726,1.92344 -1.20159,4.99864 -2.03213,6.83378 -3.33015,7.35798 -8.23896,9.1495 -12.73916,4.6493 -2.45738,-2.45739 -6.57311,-13.60702 -6.58292,-17.83328 -0.003,-1.17858 -1.06941,-3.47328 -2.37042,-5.09931 l -2.36546,-2.95642 -1.13412,5.28809 c -0.62374,2.90846 -0.86445,5.72437 -0.53491,6.25756 0.32955,0.53323 0.97447,8.02704 1.43319,16.65296 0.88063,16.56027 1.59873,21.88596 3.2262,23.92678 0.61862,0.77578 3.53189,1.24899 7.68884,1.24899 h 6.69286 z m 65.91055,-5.34014 c 0.1964,-1.04718 0.77493,-2.41942 1.28533,-3.04938 0.99932,-1.23334 1.39409,-24.12824 0.43265,-25.08968 -0.31874,-0.31877 -1.59055,-0.0924 -2.82621,0.50284 -1.23569,0.5953 -4.71968,1.89116 -7.74223,2.87964 -6.8671,2.24575 -6.53646,1.9537 -5.22945,4.61889 1.47093,2.99951 3.23107,14.16852 3.23107,20.50289 v 5.10306 l 5.24575,-1.78215 c 3.52305,-1.19691 5.3631,-2.40743 5.60309,-3.68611 z m -16.34439,-12.3955 c 0,-0.73272 -0.56205,-1.51957 -1.24899,-1.74858 -0.74299,-0.24761 -1.24899,0.46076 -1.24899,1.74858 0,1.28787 0.506,1.99626 1.24899,1.74859 0.68694,-0.22888 1.24899,-1.01584 1.24899,-1.74859 z m -47.66345,-8.74291 c 1.90093,-2.70269 2.77857,-5.82816 3.85797,-13.73888 0.30007,-2.19822 0.94892,-4.42392 1.44221,-4.946 0.49326,-0.52207 0.89684,-1.92063 0.89684,-3.10792 0,-1.18729 1.06398,-3.72657 2.36443,-5.64287 l 2.3644,-3.48418 -3.26321,-1.18001 c -2.1525,-0.77834 -3.83302,-2.38073 -4.93722,-4.70763 -2.3707,-4.99592 -4.76473,-4.21059 -5.88679,1.9311 -0.73291,4.01159 -1.55268,5.30417 -4.90347,7.73146 -2.21287,1.60301 -4.67256,2.91454 -5.46601,2.91454 -0.98009,0 -0.34313,1.53036 1.98667,4.77333 2.72614,3.79455 3.44427,5.76371 3.50229,9.60353 0.0403,2.65663 0.56254,5.31976 1.16084,5.91806 0.59827,0.59829 1.08778,1.69128 1.08778,2.4289 0,1.43378 2.05074,4.15339 3.17933,4.21634 0.37476,0.0219 1.55102,-1.1985 2.61394,-2.70977 z m -0.32676,-22.28818 c -2.04903,-3.96238 -1.62575,-11.29301 0.67726,-11.72947 1.29598,-0.24574 1.79945,0.81834 2.36006,4.98734 0.39196,2.91473 1.15066,5.84189 1.68598,6.50476 0.53535,0.66287 0.68326,1.67455 0.32873,2.24818 -1.20611,1.95155 -3.46872,1.05099 -5.05203,-2.01081 z m -15.57143,-5.38092 c 5.99324,-3.09921 9.10572,-6.5448 9.10572,-10.08022 0,-1.84216 0.44964,-3.62725 0.9992,-3.96691 0.54955,-0.33963 0.99919,-1.62515 0.99919,-2.85669 0,-1.231562 0.53956,-2.778747 1.19903,-3.438213 1.88066,-1.880634 -1.45114,-1.526108 -5.16442,0.549555 -3.02533,1.691131 -3.17777,1.682919 -4.63937,-0.249798 -0.83117,-1.09911 -1.75941,-3.210307 -2.06276,-4.691577 -0.36121,-1.763728 -1.28812,-2.798265 -2.68573,-2.997573 -1.28834,-0.183601 -2.70069,-1.591461 -3.56353,-3.551749 -1.19915,-2.724451 -1.96338,-3.247371 -4.74615,-3.247371 -1.82425,0 -3.31685,0.397209 -3.31685,0.88266 0,0.485451 -0.89699,1.117221 -1.99332,1.403926 -1.09637,0.286643 -2.25327,1.350813 -2.57092,2.364711 -0.31768,1.013897 -0.97818,2.59824 -1.46781,3.520774 -1.16531,2.195691 0.32258,2.71168 6.03205,2.091775 3.64555,-0.395804 4.84427,-0.103041 6.335,1.546748 2.05321,2.272317 1.48011,6.174842 -0.90677,6.174842 -0.7873,0 -1.43147,0.44964 -1.43147,0.99919 0,1.86715 -3.85878,1.00965 -4.49636,-0.99919 -1.05427,-3.321745 -2.49797,-2.246897 -2.49797,1.85984 0,3.6364 0.15237,3.82906 2.65207,3.35122 2.48586,-0.4752 2.61454,-0.3193 2.05318,2.48752 -0.55068,2.7533 -0.40214,2.95686 1.84429,2.52742 1.95117,-0.37297 2.44318,-0.0531 2.44318,1.58884 0,1.13074 -0.44964,2.3338 -0.99919,2.67343 -1.4172,0.87589 -1.24075,4.24485 0.24979,4.76924 1.36103,0.47879 4.16004,-0.40093 8.62992,-2.7124 z m 17.59885,-22.540254 c 0.33963,-0.549555 -0.33482,-0.999191 -1.49879,-0.999191 -1.16396,0 -1.83842,0.449636 -1.49878,0.999191 0.33966,0.549556 1.01408,0.999191 1.49878,0.999191 0.4847,0 1.15916,-0.449635 1.49879,-0.999191 z"
     id="path1371"
     inkscape:connector-curvature="0" />
</svg>
