<?xml version="1.0" encoding="UTF-8" standalone="no"?>
<svg
   xmlns:dc="http://purl.org/dc/elements/1.1/"
   xmlns:cc="http://creativecommons.org/ns#"
   xmlns:rdf="http://www.w3.org/1999/02/22-rdf-syntax-ns#"
   xmlns:svg="http://www.w3.org/2000/svg"
   xmlns="http://www.w3.org/2000/svg"
   xmlns:sodipodi="http://sodipodi.sourceforge.net/DTD/sodipodi-0.dtd"
   xmlns:inkscape="http://www.inkscape.org/namespaces/inkscape"
   id="svg"
   version="1.1"
   width="400"
   height="377.93103448275866"
   viewBox="0, 0, 400,377.93103448275866"
   sodipodi:docname="win_hoff.svg"
   inkscape:version="0.92.5 (2060ec1f9f, 2020-04-08)">
  <metadata
     id="metadata11">
    <rdf:RDF>
      <cc:Work
         rdf:about="">
        <dc:format>image/svg+xml</dc:format>
        <dc:type
           rdf:resource="http://purl.org/dc/dcmitype/StillImage" />
      </cc:Work>
    </rdf:RDF>
  </metadata>
  <defs
     id="defs9" />
  <sodipodi:namedview
     pagecolor="#ffffff"
     bordercolor="#666666"
     borderopacity="1"
     objecttolerance="10"
     gridtolerance="10"
     guidetolerance="10"
     inkscape:pageopacity="0"
     inkscape:pageshadow="2"
     inkscape:window-width="1366"
     inkscape:window-height="736"
     id="namedview7"
     showgrid="false"
     inkscape:zoom="0.62445256"
     inkscape:cx="176.54377"
     inkscape:cy="251.88013"
     inkscape:window-x="0"
     inkscape:window-y="0"
     inkscape:window-maximized="1"
     inkscape:current-layer="svg" />
  <path
     style="fill:#ffffff;stroke-width:0.15426537"
     d="m 70.185688,374.01491 c -0.509035,-0.19531 -1.393278,-0.57023 -1.964882,-0.83303 -1.370031,-0.63001 -2.952659,-1.12234 -6.59681,-2.05215 -5.020502,-1.28102 -6.077089,-1.68426 -7.867523,-3.00236 -2.147614,-1.58096 -4.643696,-4.54641 -7.823777,-9.29488 -0.890712,-1.32999 -1.639096,-2.43948 -1.663066,-2.46549 -0.02402,-0.0262 0.05596,0.42526 0.177285,1.00275 1.046636,4.97509 1.377592,8.57441 0.8947,9.73025 -0.481571,1.15264 -1.572022,1.87726 -2.83445,1.8835 -0.603929,0 -0.754612,-0.0726 -1.315678,-0.65791 -0.397364,-0.41473 -1.102069,-1.57988 -1.889465,-3.12392 -1.443931,-2.8314 -1.622308,-3.25303 -2.836921,-6.70478 -0.492625,-1.39997 -0.899285,-2.40658 -0.903721,-2.23692 -0.0069,0.16974 0.208174,1.45396 0.472424,2.85393 0.374692,1.98486 0.497704,3.12478 0.558515,5.17614 l 0.07803,2.63079 -0.383563,0.44589 c -0.335966,0.39061 -0.510482,0.45397 -1.406504,0.51108 -1.166523,0.0742 -2.425388,-0.25751 -2.99975,-0.79059 -0.737547,-0.68451 -2.10089,-3.60077 -3.27417,-7.00326 -0.525754,-1.52487 -0.623257,-2.03027 -0.760357,-3.9435 -0.08653,-1.20691 -0.162106,-3.79106 -0.167989,-5.7425 -0.0069,-2.31895 -0.06182,-3.46796 -0.158026,-3.31675 -0.08113,0.12729 -0.840945,1.35383 -1.688428,2.72561 -2.232763,3.61399 -3.226585,4.38627 -5.782605,4.49374 -1.240342,0.0523 -1.434186,0.0225 -1.812589,-0.27502 -0.42076,-0.33096 -0.423747,-0.34657 -0.423747,-2.21373 v -1.88053 l 1.0951,-2.23488 c 0.602251,-1.22923 2.031863,-4.21342 3.176886,-6.63154 3.315802,-7.00253 6.279873,-12.92363 7.208874,-14.40062 1.106574,-1.75918 2.376563,-3.37923 5.339323,-6.81085 3.98484,-4.61544 4.969723,-5.91093 8.972063,-11.80129 4.793311,-7.05456 8.381947,-13.18832 12.455131,-21.28863 4.224108,-8.40041 6.308141,-13.22248 10.042244,-23.23637 3.422832,-9.179 4.84925,-12.61724 7.264032,-17.50928 4.337733,-8.78767 8.930431,-16.20245 15.933108,-25.72359 3.131623,-4.25789 4.017176,-5.68242 5.957282,-9.58356 2.434904,-4.89611 4.181304,-9.51925 6.759706,-17.89479 3.09907,-10.06658 3.4083,-11.46437 4.57294,-20.67156 1.19667,-9.46061 1.757,-12.94665 3.01261,-18.74322 2.08186,-9.61131 3.67771,-14.71457 6.1023,-19.51462 1.86708,-3.69632 4.89313,-8.00027 6.89092,-9.80109 2.49268,-2.2468 6.01403,-4.04086 9.80888,-4.99741 4.06454,-1.02454 6.46966,-1.26678 13.21745,-1.3313 4.98083,-0.0479 5.6787,-0.0856 6.76734,-0.3675 1.61997,-0.41953 3.63855,-1.5033 7.8107,-4.19352 1.90908,-1.23097 4.23464,-2.69727 5.16793,-3.25848 2.50683,-1.50728 3.53378,-2.26452 4.88151,-3.59939 4.26246,-4.22192 5.8278,-10.03796 4.52883,-16.827097 -0.11698,-0.611191 -0.31229,-1.306887 -0.43414,-1.546075 -0.45498,-0.893115 -1.32483,-3.740274 -1.73528,-5.679875 -0.34221,-1.61693 -0.43151,-2.473927 -0.46087,-4.423181 -0.0203,-1.329708 -0.0827,-2.492451 -0.13922,-2.583932 -0.0566,-0.09135 -0.39743,-0.166242 -0.75759,-0.166242 -1.44952,0 -3.26103,-1.446321 -4.1109,-3.282237 -0.53687,-1.159904 -0.82954,-2.593665 -1.22901,-6.021575 -0.42999,-3.689414 -0.55169,-4.12093 -2.30914,-8.18584 -0.88344,-2.043285 -1.15052,-3.617916 -1.03667,-6.112987 0.13391,-2.936675 0.66714,-4.53122 1.65172,-4.939052 0.29296,-0.121335 0.83717,-0.163335 1.46413,-0.113073 0.54886,0.04436 0.99708,0.03631 0.99607,-0.01747 0,-0.05378 -0.10756,-1.173923 -0.23687,-2.489038 -0.28947,-2.944225 -0.33088,-9.528545 -0.0733,-11.64659 0.59848,-4.92147 4.53115,-12.283585 9.60658,-17.984234 3.57876,-4.019499 8.56097,-7.4693591 13.08261,-9.0588192 2.94118,-1.0339187 3.86438,-1.7116801 10.56313,-1.7080477 5.37522,0 6.00667,0.636861 7.18242,0.8969698 6.12047,1.3536137 12.5679,5.6190571 17.25447,11.4149631 4.05713,5.017448 7.15576,10.810593 8.10743,15.157559 0.50411,2.30245 0.46967,10.772232 -0.0596,14.672864 l -0.11468,0.844794 1.19987,-0.08228 1.19987,-0.08228 0.53112,0.531132 c 0.69301,0.693008 1.00391,1.748078 1.18142,4.008822 0.14183,1.806269 0.0247,3.665214 -0.30995,4.906866 -0.0919,0.341413 -0.60474,1.645405 -1.13957,2.897663 -1.25444,2.93725 -1.39946,3.501074 -1.87428,7.287347 -0.6173,4.92285 -1.04271,6.236138 -2.48889,7.683332 -0.94259,0.943319 -1.86454,1.413272 -2.7817,1.418064 -0.35559,0 -0.70173,0.0902 -0.76916,0.196246 -0.0676,0.106063 -0.13325,1.164707 -0.14625,2.352512 -0.0269,2.419206 -0.36569,4.539654 -1.1472,7.173355 -0.9803,3.303737 -1.10367,4.054947 -1.11493,6.787678 -0.008,1.86469 0.061,2.875427 0.2559,3.779504 0.86121,3.990585 2.52427,7.026004 5.29065,9.656294 1.39067,1.3223 2.06347,1.80031 5.45085,3.87294 1.31511,0.80469 3.58558,2.23634 5.04543,3.18147 3.63375,2.35251 5.05435,3.14536 6.55459,3.65817 l 1.2811,0.43791 6.1706,0.10836 c 7.97688,0.14008 10.81293,0.49843 15.11803,1.91024 5.51182,1.80765 8.75896,4.45384 12.50098,10.18741 3.70577,5.67805 5.84582,11.7048 8.46339,23.83405 1.08892,5.04564 1.74843,9.09137 2.71609,16.66063 1.3611,10.64756 1.69591,12.32101 3.93951,19.68843 3.14702,10.33419 5.17483,15.83044 7.69874,20.86723 1.79246,3.57716 3.14571,5.7143 6.39467,10.09905 6.18921,8.35295 10.78546,15.78315 15.11077,24.42752 2.65731,5.31099 3.93957,8.36864 7.45824,17.78553 3.98339,10.66041 6.49604,16.44432 10.75611,24.75957 3.79796,7.41326 6.66947,12.28983 11.38263,19.33079 3.86226,5.7699 5.48995,7.95479 8.6244,11.57707 3.13794,3.62634 4.64428,5.49343 5.70596,7.07235 1.04742,1.55778 3.29778,5.94318 6.43586,12.54167 1.31133,2.75751 3.08607,6.47148 3.94386,8.25326 l 1.5596,3.23952 v 1.86585 c 7e-5,2.29359 -0.0807,2.41326 -1.68958,2.50415 -1.33711,0.0756 -2.45409,-0.24253 -3.55652,-1.01263 -0.93504,-0.65327 -1.55909,-1.48382 -3.39595,-4.51967 l -1.23089,-2.03435 v 3.60382 c 0,4.60984 -0.20672,7.48738 -0.63154,8.86635 -0.72825,2.3637 -2.49274,6.42592 -3.2675,7.52232 -0.48106,0.68081 -1.52508,1.072 -2.89598,1.08529 -1.42613,0.0138 -1.93074,-0.24885 -2.0879,-1.08652 -0.20409,-1.08768 0.0582,-5.28897 0.45142,-7.23016 0.75441,-3.72488 0.66976,-3.81635 -0.50903,-0.55032 -1.49632,4.14585 -3.58072,8.38601 -4.64988,9.45917 -0.36547,0.36677 -0.54552,0.42425 -1.32993,0.42425 -0.73514,0 -1.04045,-0.0845 -1.60944,-0.44533 -1.75796,-1.11486 -1.81164,-3.04588 -0.29651,-10.66179 0.32914,-1.65449 0.58809,-3.0193 0.57552,-3.03288 -0.0123,-0.0138 -0.5549,0.81944 -1.2051,1.85118 -3.49913,5.55236 -6.89494,9.6307 -9.41267,11.30444 -1.4836,0.98633 -2.78177,1.45904 -6.96076,2.53452 -4.32189,1.11232 -5.03604,1.34003 -7.51251,2.39539 -1.06059,0.45192 -2.34204,0.92922 -2.84775,1.06058 -1.05121,0.27312 -4.57997,0.31723 -7.10236,0.0888 -5.05879,-0.45818 -7.60261,-0.64091 -11.87845,-0.85307 -8.17972,-0.40593 -12.71291,-0.81042 -15.73504,-1.40396 -0.67876,-0.13333 -5.43399,-1.1355 -10.56719,-2.22704 -14.22188,-3.02416 -18.84276,-3.94103 -25.93212,-5.14547 -8.66618,-1.47234 -16.88507,-4.22345 -43.48731,-14.55632 -4.79381,-1.862 -9.16672,-3.55529 -9.71769,-3.76295 l -1.00179,-0.37745 -1.54362,0.6 c -13.36132,5.19307 -33.59613,12.65444 -42.19255,15.55813 -8.77008,2.96226 -11.93629,3.83073 -17.35488,4.76039 -5.29929,0.90917 -13.96851,2.64285 -25.06851,5.01324 -5.30315,1.13251 -10.26661,2.1665 -11.03002,2.29787 -3.17973,0.54704 -6.787909,0.85199 -14.809023,1.2516 -2.630207,0.131 -5.983218,0.34033 -7.45105,0.46515 -1.649472,0.14023 -4.477603,0.22386 -7.404695,0.21885 -4.562326,-0.008 -4.769914,-0.021 -5.661569,-0.36322 z m 9.718699,-1.54979 c 2.290897,-0.20744 6.907278,-0.52081 10.258692,-0.69643 8.188011,-0.42912 11.249081,-0.68436 14.115291,-1.1772 1.537,-0.26425 3.12988,-0.59594 13.24651,-2.75801 9.39742,-2.00833 16.65781,-3.4567 22.46592,-4.48154 5.02398,-0.88656 6.2495,-1.15518 8.87026,-1.94424 9.18779,-2.76636 21.23524,-7.06305 43.11713,-15.37764 7.96445,-3.02627 8.06312,-3.06405 16.89205,-6.47162 3.30905,-1.27704 7.09241,-2.7368 8.40751,-3.2438 8.41936,-3.246 11.1595,-4.22934 16.16758,-5.80223 3.32191,-1.0433 4.53297,-1.41436 10.44317,-3.20029 7.36792,-2.2263 10.74927,-3.412 16.12071,-5.65269 1.82422,-0.76102 4.42747,-1.84689 5.78501,-2.41311 8.69879,-3.6281 11.481,-5.00866 15.90339,-7.89114 3.14245,-2.04822 5.06976,-2.8109 9.28514,-3.67452 5.41381,-1.10919 6.57879,-1.2484 10.44673,-1.2484 4.04137,0 4.47142,0.0654 8.62963,1.31307 1.41072,0.42323 2.66494,0.76952 2.78715,0.76952 0.33931,0 0.74198,-0.92224 0.73064,-1.67339 -0.007,-0.4217 -0.18767,-1.03144 -0.48797,-1.64147 -0.89013,-1.8081 -4.78269,-5.07682 -7.09379,-5.95685 -0.47481,-0.18084 -1.45336,-0.39053 -2.17449,-0.4661 -0.72121,-0.0756 -1.65841,-0.24973 -2.0826,-0.38698 -0.92907,-0.30072 -3.09412,-1.3948 -4.18631,-2.11557 -1.60414,-1.05862 -4.24598,-2.59969 -5.19125,-3.0283 -3.35846,-1.52284 -9.06993,-1.50408 -21.01275,0.0691 -9.09189,1.1974 -14.19347,0.78963 -19.59172,-1.566 -1.81892,-0.79371 -3.81679,-1.95275 -7.01903,-4.07196 -5.25686,-3.47885 -7.29324,-4.58579 -9.03477,-4.91115 -1.3215,-0.24689 -4.97218,0.35464 -7.28982,1.20118 -1.66059,0.60655 -3.63411,1.66117 -5.17548,2.76564 -2.23466,1.60138 -3.41135,2.91728 -7.40753,8.28393 -7.18076,9.64335 -9.53901,12.49117 -12.07353,14.58 -1.63697,1.34911 -2.51446,1.79871 -5.06911,2.59745 -7.17538,2.24337 -19.61962,4.34499 -32.77939,5.53585 -2.58334,0.23381 -4.21727,0.26193 -11.56986,0.19916 -16.00155,-0.13652 -19.59884,-0.10296 -21.90572,0.20439 -7.64621,1.0188 -17.86261,4.15187 -24.45107,7.49848 -2.61037,1.32586 -3.75684,2.06923 -7.17335,4.65091 -2.049162,1.5484 -8.564523,6.79298 -8.793105,7.07794 -0.04217,0.0531 -1.257268,1.10403 -2.69967,2.33595 -1.442334,1.23184 -3.073202,2.63362 -3.624099,3.11512 -0.812745,0.71039 -1.103597,0.87502 -1.542674,0.87314 -0.816663,-0.007 -0.952178,-0.15535 -0.897538,-1.00508 l 0.04792,-0.74627 2.314005,-1.99286 c 1.272678,-1.09603 2.661095,-2.28725 3.085337,-2.64706 0.424183,-0.3598 1.291925,-1.09975 1.92827,-1.64438 5.237305,-4.48226 10.537464,-8.56882 13.421114,-10.34792 4.72354,-2.91438 13.74698,-6.25445 21.73418,-8.0451 l 1.60261,-0.35929 -1.60261,-0.67318 c -0.88142,-0.37025 -2.43557,-1.15656 -3.45372,-1.74734 -1.01815,-0.59078 -2.1636,-1.24739 -2.54542,-1.45911 -0.38181,-0.21173 -1.7355,-1.04787 -3.00817,-1.85807 -3.62475,-2.30762 -5.36534,-2.93698 -11.10712,-4.01645 -3.98338,-0.74888 -4.80442,-0.84363 -7.404692,-0.85446 -4.255559,-0.0175 -4.375446,0.0247 -12.881187,4.54794 -11.214364,5.9636 -17.270527,9.4686 -21.412451,12.39228 -1.460283,1.03072 -1.402586,0.77547 -0.701798,3.10386 0.833165,2.7682 0.999694,3.87092 1.083177,7.17329 0.0863,3.41011 0.0963,3.32779 -0.864777,7.09299 -0.828798,3.24722 -0.95951,4.1377 -1.06501,7.25371 -0.100433,2.96886 -0.107327,3.01537 -0.523353,3.55921 -0.231856,0.30305 -0.606628,0.65014 -0.832739,0.77126 -0.448798,0.24057 -2.227466,0.30051 -2.79514,0.0942 -0.325796,-0.11836 -0.347158,-0.0851 -0.347733,0.53999 0,0.74881 -0.410739,1.54252 -0.955304,1.84899 -0.590415,0.33219 -2.940537,0.23875 -4.289137,-0.1706 -2.449796,-0.74358 -5.186663,-2.27921 -6.890776,-3.86634 -1.421696,-1.32411 -1.34991,-1.32527 -1.236999,0.0197 0.107443,1.27863 0.686608,3.078 1.308129,4.06375 3.818597,6.05653 7.141892,10.24256 9.365071,11.79619 1.594833,1.11458 2.516204,1.45817 7.096181,2.64613 4.341008,1.12598 5.03351,1.347 7.515791,2.39858 3.465268,1.46805 3.695952,1.4889 10.070432,0.9117 z M 326.8995,370.6114 c 0.51804,-0.12222 1.73289,-0.56187 2.69967,-0.9771 2.55007,-1.09531 3.22607,-1.31562 7.15707,-2.33283 1.95144,-0.50496 4.02444,-1.06639 4.60657,-1.2476 1.73245,-0.53941 3.08476,-1.44232 4.96448,-3.31471 2.06378,-2.05571 3.31066,-3.66377 6.04077,-7.79044 1.63523,-2.47182 2.29032,-3.75423 2.57652,-5.04404 0.38101,-1.71712 0.35391,-1.75934 -0.56347,-0.87669 -1.58786,1.52785 -4.12804,3.02009 -6.69897,3.93536 -1.02571,0.3651 -3.52483,0.55619 -4.36963,0.33408 -0.75746,-0.19922 -1.23409,-0.94789 -1.23409,-1.93851 0,-0.65936 -0.0319,-0.74074 -0.22786,-0.57828 -0.1533,0.12722 -0.65784,0.17132 -1.54049,0.13463 -1.31234,-0.0545 -1.31263,-0.0545 -1.9704,-0.71226 l -0.65784,-0.65762 -0.0981,-3.04473 c -0.0538,-1.67453 -0.18158,-3.46119 -0.28359,-3.9703 -0.23781,-1.18636 -0.81951,-3.60738 -1.3138,-5.46822 -0.34141,-1.28554 -0.38697,-1.76762 -0.38617,-4.08809 0,-3.14048 0.22858,-4.8042 1.08565,-7.94047 0.34876,-1.27616 0.61141,-2.43621 0.58366,-2.57775 -0.0927,-0.47301 -4.34639,-3.25616 -8.38078,-5.48355 -1.60733,-0.88745 -4.50456,-2.39248 -10.45581,-5.43168 l -3.51387,-1.79442 -0.46181,0.34142 c -0.32761,0.24216 -0.74089,0.35863 -1.42257,0.40077 -0.82888,0.0516 -1.38827,-0.0682 -4.07268,-0.87283 -3.85311,-1.15432 -5.91289,-1.4865 -8.38092,-1.35187 -2.05302,0.11203 -4.77397,0.51333 -7.99206,1.1788 -4.9416,1.02185 -6.15288,1.4881 -9.56734,3.68258 -1.88417,1.21091 -3.81766,2.36596 -4.26916,2.55029 -0.37048,0.1512 -0.46333,0.11433 1.9332,0.76901 2.97846,0.81376 5.64463,1.8649 9.02474,3.55797 4.24075,2.12415 6.71554,3.64074 10.08344,6.17918 3.89322,2.93442 3.85863,2.90624 12.02878,9.77987 0.64724,0.54442 1.95769,1.67658 2.9122,2.51584 l 1.73549,1.52589 v 0.74576 c 0,0.80389 -0.127,0.93307 -0.91737,0.93307 -0.47881,0 -0.77257,-0.203 -2.55813,-1.7682 -0.68125,-0.5971 -1.64854,-1.4328 -2.14943,-1.85706 -0.50091,-0.42424 -1.72047,-1.4655 -2.71014,-2.314 -1.59389,-1.36647 -3.72836,-3.13075 -6.45135,-5.33257 -0.47933,-0.38755 -1.84921,-1.44022 -3.04414,-2.33922 -7.00479,-5.27007 -14.87383,-9.05082 -21.71419,-10.43277 l -1.39634,-0.28213 -1.31947,0.61003 c -1.54041,0.7122 -4.9485,2.17726 -7.25864,3.1203 -0.89086,0.36364 -2.97345,1.23175 -4.62794,1.9292 -6.62813,2.79384 -9.04247,3.63572 -19.74596,6.88548 -10.05947,3.05417 -12.96578,4.01187 -18.43472,6.07476 -1.81877,0.68604 -11.85018,4.53566 -14.65521,5.62408 -0.93329,0.36213 -2.13076,0.82343 -2.66109,1.02512 -0.86178,0.32769 -1.23031,0.59964 -0.81282,0.59964 0.0832,0 1.55837,0.54872 3.2781,1.21942 1.71981,0.6707 4.13343,1.61075 5.36374,2.08914 1.23024,0.47829 3.2781,1.27782 4.55077,1.77669 15.64909,6.13428 27.2005,10.13924 34.09267,11.82017 0.84849,0.20694 3.00047,0.62072 4.78225,0.91956 6.33881,1.06306 11.42253,2.07249 25.22241,5.00801 5.13312,1.09197 10.06193,2.12749 10.95278,2.30113 2.80902,0.54763 6.78964,0.94485 12.41837,1.23919 7.26163,0.37971 9.34428,0.51609 12.95828,0.84893 4.62953,0.42635 6.02289,0.45788 7.26672,0.16457 z M 43.332493,366.30694 c 0.552999,-0.74061 0.450475,-1.67222 -0.986331,-8.96706 -0.417783,-2.12117 -0.874728,-4.65495 -1.01554,-5.63068 -0.302034,-2.09399 -0.473504,-7.09567 -0.269778,-7.86759 0.138055,-0.5227 0.166242,-0.53992 0.886932,-0.53992 h 0.744385 l 0.5668,0.93219 c 1.499513,2.46623 4.301191,5.33374 6.430499,6.5817 2.818317,1.65181 5.689171,2.54405 6.201044,1.92718 0.167989,-0.20236 0.01034,-0.38538 -1.084488,-1.26271 -1.609437,-1.2891 -3.562632,-3.19324 -4.161252,-4.05663 -0.731813,-1.05542 -1.1618,-2.13752 -1.658849,-4.17469 -0.890494,-3.64975 -0.983791,-6.7345 -0.258011,-8.53134 0.560125,-1.3868 1.295201,-2.42356 1.957987,-2.76171 0.718219,-0.36642 2.265386,-0.40623 2.906305,-0.0748 0.706015,0.36511 1.674109,1.58875 2.370024,2.99569 l 0.6481,1.31016 v 5.25439 5.25438 l 0.648043,1.32499 c 0.666337,1.36241 1.636028,2.45453 2.179432,2.45453 0.154694,0 0.437836,-0.16668 0.629221,-0.37042 0.326888,-0.34795 0.351008,-0.52313 0.397949,-2.8925 0.05527,-2.78279 0.317006,-4.47411 1.249926,-8.07561 0.798358,-3.08207 0.875602,-3.64458 0.773078,-5.63068 -0.11829,-2.29061 -0.30124,-3.37118 -0.94826,-5.59857 -0.83251,-2.86613 -1.038707,-4.38925 -0.960671,-7.09692 0.07515,-2.60688 0.220653,-3.15951 1.603692,-6.0906 0.371428,-0.78725 0.675357,-1.45352 0.675357,-1.48062 0,-0.0494 3.328891,-6.88657 5.868054,-12.05188 3.018561,-6.14045 6.232219,-11.13464 11.001616,-17.09716 3.84243,-4.80361 6.419238,-7.63015 14.509597,-15.9156 14.679266,-15.03317 15.966466,-16.54525 18.647536,-21.90572 2.60543,-5.20912 3.89925,-8.85109 5.12418,-14.42379 1.09088,-4.9631 2.153,-7.54289 4.63644,-11.26137 2.17676,-3.25934 3.29081,-5.66039 5.90512,-12.72686 2.81925,-7.6207 6.78513,-16.87636 9.68352,-22.5999 1.68137,-3.3203 2.16193,-4.18784 2.40497,-4.34202 0.29979,-0.19014 1.11551,-0.1573 1.3263,0.0538 0.38843,0.38843 0.21049,1.44095 -0.45099,2.66734 l -0.63612,1.17923 0.70529,2.34212 c 1.07119,3.55768 1.72729,5.96774 2.80495,10.30352 2.53779,10.21022 3.76767,17.85411 4.0891,25.41385 0.18245,4.28971 0.33082,5.46161 0.96984,7.65936 0.469,1.61307 0.49255,1.81891 0.47619,4.16517 -0.0262,3.74166 -0.72112,8.17145 -2.07967,13.2551 -1.37534,5.14671 -1.6765,8.33529 -1.29062,13.66423 0.69976,9.66391 0.0801,14.21708 -2.44574,17.97188 -2.09857,3.11963 -6.12126,6.15724 -11.84073,8.94104 -2.31182,1.12532 -2.38695,1.03341 1.09045,1.33363 2.5202,0.21761 6.22916,0.10285 8.02177,-0.2482 4.03759,-0.79072 6.95625,-2.19803 13.27028,-6.39846 4.14861,-2.75989 6.37557,-3.91813 8.34604,-4.34071 0.51377,-0.1102 1.50213,-0.14415 2.6029,-0.0894 4.38845,0.21812 8.13926,1.45133 11.80579,3.88138 1.92797,1.27782 5.07934,4.48457 8.5611,8.71165 6.4741,7.85982 9.01865,10.86465 10.57897,12.49306 1.6141,1.68443 3.40314,3.26676 4.59822,4.06701 0.7366,0.4932 0.66598,0.5328 2.76448,-1.54834 1.95384,-1.93763 3.83327,-4.25337 8.16636,-10.06243 4.81684,-6.45753 5.6984,-7.57057 7.2099,-9.10343 2.9871,-3.02939 7.3991,-5.32174 11.74627,-6.1031 2.25,-0.40441 4.69805,-0.46298 6.00139,-0.14358 1.47852,0.36236 4.3288,1.8179 6.93482,3.54134 4.56922,3.02184 6.1714,4.0054 7.94461,4.87694 4.25026,2.08898 7.19384,2.70802 12.18702,2.56307 2.4987,-0.0726 7.64977,-0.60793 10.74564,-1.11675 0.54871,-0.0902 0.49415,-0.12788 -2.00549,-1.38457 -9.83009,-4.94203 -16.36085,-9.91756 -18.42237,-14.03536 -1.4445,-2.88509 -1.83228,-7.68857 -1.27034,-15.73505 0.39867,-5.70806 0.16624,-8.02322 -1.448,-14.42379 -1.97251,-7.82124 -2.46833,-13.32193 -1.48796,-16.50638 0.58693,-1.90632 0.82772,-3.78496 1.00704,-7.85655 0.0876,-1.98777 0.26498,-4.59095 0.39431,-5.78493 0.88453,-8.16658 3.22055,-18.94819 6.4969,-29.98642 l 0.70108,-2.36196 -0.47925,-0.89921 c -0.33219,-0.62319 -0.47932,-1.11254 -0.47932,-1.59396 0,-0.76713 0.13187,-0.88192 1.01343,-0.88192 0.45004,0 0.5849,0.094 0.94077,0.65566 1.09779,1.7326 4.69354,9.30251 6.86971,14.46237 0.59043,1.39997 1.16637,2.75358 1.27987,3.00818 0.48041,1.07765 2.22412,5.52619 3.62809,9.25586 1.97353,5.24298 2.03384,5.39259 3.04647,7.55902 0.97549,2.08702 1.34896,2.74305 2.81032,4.93652 2.54433,3.81881 3.31734,5.74351 4.64653,11.56986 1.1876,5.20579 2.40941,8.63842 4.80029,13.48651 2.54846,5.16756 4.74999,7.93589 13.13563,16.51814 11.14178,11.40291 11.86007,12.14722 14.06938,14.57805 3.43263,3.7769 6.22094,7.13055 8.74122,10.51378 3.67597,4.93448 5.73299,8.36501 9.0969,15.17145 4.46402,9.03236 6.33037,12.96925 6.93692,14.63319 0.4427,1.21448 0.49218,1.53599 0.55525,3.60978 0.0804,2.64619 -0.15506,4.38496 -0.96896,7.1509 -0.69352,2.35665 -0.89741,3.75008 -0.91171,6.23048 -0.0116,1.99757 0.0175,2.19912 0.71771,4.9365 1.03261,4.03817 1.22522,5.26696 1.28117,8.17429 0.0487,2.52848 0.0516,2.5457 0.45463,2.8925 0.22305,0.19189 0.51767,0.34883 0.65478,0.34883 0.35632,0 1.51397,-1.2588 1.95057,-2.1211 0.84494,-1.66851 0.88483,-2.03093 0.77642,-7.05768 l -0.0997,-4.62793 0.3901,-1.02179 c 0.6598,-1.7283 1.89323,-3.3884 2.91778,-3.92708 0.81711,-0.42962 2.38601,-0.19334 3.18597,0.47977 0.72963,0.61395 1.69038,2.63522 1.90319,4.00409 0.29616,1.90501 -0.16529,5.52366 -1.11173,8.7182 -0.62107,2.0964 -2.72176,4.54873 -5.91622,6.90647 -0.66918,0.49394 -0.78544,0.75805 -0.41982,0.95371 0.44765,0.23962 0.79415,0.20243 2.17304,-0.23316 2.72866,-0.862 5.46946,-2.58501 7.44771,-4.68213 1.21593,-1.28895 2.5702,-3.07255 3.03259,-3.994 l 0.33292,-0.66344 0.79364,0.0465 c 0.76356,0.0444 0.79909,0.0669 0.93663,0.58635 0.2216,0.83701 0.008,5.99281 -0.34193,8.25319 -0.17075,1.10302 -0.68879,3.91451 -1.15127,6.24776 -1.13629,5.73371 -1.28058,6.9083 -0.93728,7.63175 0.14481,0.30524 0.38705,0.62115 0.53817,0.70202 0.22729,0.12163 0.34244,0.0319 0.66534,-0.51914 1.06334,-1.8144 2.78998,-5.51552 3.53785,-7.58329 1.09815,-3.03644 2.5449,-7.57398 2.73577,-8.58043 0.18892,-0.99607 0.36729,-1.21535 0.98859,-1.21535 0.79916,0 0.98189,0.25873 1.23997,1.75563 0.48106,2.79063 0.2963,6.32718 -0.54914,10.50841 -0.17148,0.8485 -0.35305,2.28894 -0.40348,3.20101 l -0.0916,1.65841 h 0.3702 c 1.02099,0 1.66154,-0.92908 3.03636,-4.39645 1.452,-3.6618 1.55037,-4.08285 1.73564,-7.42503 0.10526,-1.89782 0.12876,-4.8111 0.0617,-7.65195 -0.0846,-3.58414 -0.0661,-4.63839 0.0855,-4.82077 0.23461,-0.28263 1.0863,-0.30705 1.41428,-0.0407 0.13056,0.10606 0.88569,1.37293 1.6781,2.81534 1.45534,2.64917 1.84201,3.29546 3.3379,5.5799 0.62209,0.95006 1.02098,1.38092 1.61953,1.74923 0.98605,0.60669 1.77605,0.76806 1.92028,0.39228 0.1674,-0.43632 -0.16494,-1.25908 -2.19187,-5.42652 -1.06785,-2.1955 -2.06842,-4.26951 -2.22355,-4.6089 -1.2375,-2.70737 -5.10754,-10.61209 -5.94456,-12.14182 -1.11224,-2.03297 -2.31567,-3.84927 -3.45254,-5.21095 -1.06103,-1.27078 -4.44651,-5.21725 -5.2291,-6.09554 -0.82177,-0.92225 -3.27047,-4.19395 -4.70503,-6.28634 -0.5671,-0.82722 -1.47262,-2.14617 -2.01219,-2.93101 -8.31182,-12.09046 -15.89946,-26.87363 -21.55638,-41.99879 -0.76159,-2.03629 -1.45904,-3.87592 -1.54985,-4.088 -0.0909,-0.21209 -0.42789,-1.11457 -0.74896,-2.00544 -0.92145,-2.55689 -3.1402,-8.04146 -4.08765,-10.10443 -4.62539,-10.07129 -10.09928,-19.23794 -17.1752,-28.76177 -6.5163,-8.77051 -9.1994,-14.60849 -14.04219,-30.55323 -2.54542,-8.38047 -2.88952,-10.05648 -4.26042,-20.74871 -1.16587,-9.09334 -1.5891,-11.62465 -3.0294,-18.11808 -1.88794,-8.51163 -3.42189,-13.37657 -5.57429,-17.67914 -1.14248,-2.28363 -1.35536,-2.64743 -2.74865,-4.69739 -3.46149,-5.09309 -5.81625,-7.06829 -10.58194,-8.87638 -4.28157,-1.62434 -9.23748,-2.24694 -17.48465,-2.19652 -3.78125,0.0232 -4.18065,-5e-4 -5.32217,-0.31475 -1.786,-0.4916 -3.37778,-1.30421 -6.4156,-3.27533 -1.47735,-0.95858 -4.3174,-2.76951 -6.31127,-4.02422 -4.02938,-2.53576 -5.64172,-3.81875 -7.11835,-5.66426 -2.69698,-3.37088 -4.29298,-7.899933 -4.2964,-12.192402 v -1.140002 l -0.40368,0.600079 c -1.28335,1.907483 -3.64459,4.344432 -5.27459,5.443812 -2.05578,1.386521 -4.42572,2.240692 -7.62485,2.748063 -1.49588,0.2373 -2.78976,0.27566 -9.2967,0.27566 -6.60553,0 -7.79254,-0.0363 -9.41018,-0.28714 -5.87213,-0.910836 -9.12909,-2.640678 -12.42281,-6.597835 l -0.72294,-0.868627 -0.0902,2.179881 c -0.22474,5.429271 -1.86004,9.404961 -5.27111,12.815081 -1.4352,1.43477 -2.47987,2.19077 -6.09823,4.41323 -1.14545,0.70348 -2.91568,1.83286 -3.93383,2.50967 -4.34784,2.89011 -6.0433,3.81751 -8.09887,4.42987 -1.08172,0.32231 -1.5835,0.35297 -7.71327,0.4717 -3.606,0.0697 -6.79931,0.16827 -7.09626,0.2187 -0.29695,0.0501 -1.23409,0.19849 -2.08259,0.32892 -2.83794,0.43645 -5.96803,1.34497 -8.04205,2.33419 -3.0118,1.43645 -4.91216,3.03027 -7.22857,6.06235 -4.04987,5.30147 -6.30814,10.38387 -8.54527,19.2325 -2.04749,8.09886 -2.95913,13.03857 -4.19221,22.71628 -1.44639,11.35227 -1.80286,13.11146 -4.32116,21.32759 -2.18126,7.1166 -4.19433,12.92559 -5.465902,15.77327 -0.113647,0.25451 -0.459634,1.0528 -0.76886,1.774 -1.598762,3.72909 -4.263339,8.27688 -6.868989,11.7242 -2.290242,3.02989 -4.337308,5.90525 -6.040547,8.4846 -1.397714,2.11673 -4.447014,6.93133 -4.447014,7.02157 0,0.0348 -0.406304,0.743 -0.902916,1.57326 -2.087825,3.49055 -4.947568,9.00548 -6.782174,13.0794 -1.379913,3.06441 -2.977584,7.10854 -5.637288,14.26954 -1.402299,3.77581 -3.44216,8.9478 -4.088674,10.36702 -0.169437,0.37187 -0.619407,1.40207 -0.999982,2.28937 -3.413454,7.95776 -9.635217,19.63378 -14.24098,26.7251 -3.181977,4.89917 -8.104103,11.96049 -8.679625,12.45172 -0.04941,0.0422 -0.273777,0.32007 -0.497923,0.61701 -0.224215,0.29703 -0.537302,0.67877 -0.695846,0.8485 -0.158462,0.16966 -0.911776,1.03741 -1.674029,1.92833 -0.762253,0.89086 -1.45533,1.69678 -1.540203,1.79094 -1.955505,2.16993 -3.834145,4.70605 -4.787048,6.46225 -1.016839,1.8742 -3.817,7.54529 -6.055508,12.26411 -1.187299,2.50292 -2.677735,5.59742 -3.312033,6.87662 -1.326802,2.67577 -1.569839,3.32758 -1.437392,3.85507 0.08078,0.32217 0.15883,0.36461 0.516021,0.28069 0.644986,-0.15149 1.821023,-0.82111 2.236623,-1.27356 0.563525,-0.61344 2.808216,-4.2589 4.361496,-7.0831 l 1.38166,-2.51221 0.771263,0.0444 0.771331,0.0435 0.01528,6.86484 c 0.0092,4.03476 0.08458,7.34076 0.18295,8.01931 0.343241,2.36726 2.859662,8.52275 3.735333,9.13707 0.212092,0.14888 0.559251,0.2891 0.771331,0.31171 0.368303,0.0392 0.387918,0 0.4361,-0.88455 0.05596,-1.0225 -0.105373,-2.23807 -0.694903,-5.24508 -0.702672,-3.5837 -0.63808,-9.74943 0.111579,-10.65271 0.207151,-0.24965 1.463396,-0.31032 1.607185,-0.0776 0.04941,0.08 0.164358,0.5485 0.255322,1.04126 0.253942,1.37447 2.045388,6.85954 3.265241,9.99764 1.032605,2.65636 3.225563,6.77765 3.549039,6.66982 0.09216,-0.0306 0.30995,-0.24652 0.483903,-0.47953 z m 11.617093,-18.26157 c -0.31519,-0.83971 -0.32914,-1.08035 -0.261929,-4.51226 0.12831,-6.55336 0.149454,-6.23839 -0.507736,-7.55902 -0.316638,-0.63634 -0.739431,-1.35339 -0.939458,-1.59354 l -0.363729,-0.43652 -1.334213,1.70971 -1.334213,1.70978 v 0.92261 c 0,1.01226 0.619407,4.1731 1.103816,5.63264 0.435296,1.31161 1.364435,2.66814 2.690156,3.92751 0.628921,0.59733 1.17421,1.08609 1.211855,1.08609 0.03781,0 -0.08147,-0.39911 -0.264549,-0.887 z m 292.105524,-2.77582 c 0.46646,-0.57326 1.0204,-1.38936 1.23104,-1.81354 0.66568,-1.3406 1.50205,-5.15709 1.50438,-6.86492 0,-0.82742 -0.0306,-0.88932 -1.27151,-2.49549 l -1.27275,-1.64709 -0.35798,0.33445 c -0.19698,0.18397 -0.64818,0.91978 -1.00275,1.63509 -0.73632,1.48548 -0.70544,1.07323 -0.5732,7.64955 0.0669,3.30948 0.0494,3.61297 -0.25415,4.51335 l -0.32558,0.96525 0.73725,-0.61722 c 0.40543,-0.33946 1.11886,-1.08623 1.58525,-1.65943 z M 68.720188,317.58463 c 3.189446,-1.91997 7.896941,-4.54807 13.062771,-7.29272 l 3.729736,-1.98159 -0.36235,-0.28504 c -0.66351,-0.52197 -0.889839,-1.45323 -0.825167,-3.39523 0.05228,-1.579 0.105489,-1.8463 0.553287,-2.79673 1.04474,-2.21737 5.3524,-5.68307 8.267288,-6.65131 0.410223,-0.13623 1.378455,-0.31315 2.151682,-0.39315 1.713558,-0.17729 3.053736,-0.78085 6.523575,-2.93799 2.89069,-1.79711 5.07666,-2.86032 6.47343,-3.1484 3.56314,-0.73501 8.16942,-0.73269 15.4267,0.008 l 2.47356,0.25234 2.6172,-1.18345 c 8.62709,-3.90092 13.43928,-7.83613 14.96371,-12.23658 1.07039,-3.08969 1.30377,-6.10993 0.92043,-11.90961 -0.30851,-4.66696 -0.25314,-9.154 0.14473,-11.73335 0.13747,-0.89093 0.65958,-3.25114 1.16028,-5.24502 1.96982,-7.84354 2.43613,-12.10709 1.62113,-14.82087 -0.61548,-2.04952 -0.83367,-3.64196 -1.00035,-7.3018 -0.38058,-8.35396 -1.56251,-15.86445 -4.10508,-26.08529 -1.02645,-4.12622 -2.72743,-10.24763 -2.95368,-10.62945 -0.0995,-0.16806 -0.5174,0.63227 -1.92493,3.68752 -2.44173,5.30031 -5.09395,11.75464 -7.82865,19.0518 -2.24397,5.98764 -3.35207,8.3079 -5.49605,11.50825 -2.40511,3.59017 -3.35708,5.94856 -4.51837,11.19438 -1.03428,4.67203 -2.1009,7.84188 -4.0915,12.15875 -3.17848,6.89304 -4.65591,8.73084 -18.001453,22.39231 -11.009971,11.27067 -14.371049,15.01821 -18.796838,20.95885 -3.746962,5.02943 -5.681116,8.27469 -9.331943,15.65789 -6.229024,12.5971 -7.162162,14.75946 -7.174297,16.62517 l -0.0069,0.58154 1.812601,-1.21192 c 0.996937,-0.66649 3.027502,-1.94316 4.51226,-2.83699 z m 268.882222,1.76741 c -0.007,-0.58308 -0.4879,-2.28211 -1.00152,-3.52267 -0.56229,-1.35855 -4.66447,-9.87047 -7.39095,-15.3363 -3.01254,-6.03931 -6.12665,-10.82099 -10.95082,-16.81495 -3.58588,-4.45538 -7.41596,-8.60181 -16.53952,-17.90541 -8.16862,-8.32984 -11.05509,-11.48457 -13.31569,-14.55327 -1.31801,-1.78904 -1.8872,-2.74668 -3.218,-5.41343 -2.36146,-4.73198 -3.90202,-9.04123 -4.96354,-13.88388 -1.13659,-5.18491 -2.17357,-7.78113 -4.46112,-11.1685 -2.09472,-3.10191 -3.36849,-5.70618 -5.18499,-10.6012 -3.10482,-8.3666 -5.95838,-15.27025 -9.10002,-22.01565 -0.83717,-1.7974 -1.24782,-2.52768 -1.33428,-2.37307 -0.0691,0.12286 -0.54386,1.70709 -1.0558,3.52056 -3.48589,12.34927 -5.45064,22.71309 -5.86035,30.91367 -0.26368,5.27729 -0.44292,6.91316 -0.97092,8.86033 -0.60205,2.2202 -0.68343,3.78459 -0.34382,6.60995 0.32899,2.73636 0.83396,5.26776 1.77626,8.90362 1.54652,5.96774 1.79051,9.22529 1.3018,17.3782 -0.24383,4.0671 -0.25626,4.99304 -0.0886,6.61999 0.22611,2.19405 0.77336,4.49824 1.34663,5.67021 2.01262,4.11432 9.57651,9.56713 20.27652,14.61721 l 3.09056,1.45861 3.42574,-0.10044 c 3.77675,-0.11088 6.422,0.0654 8.58981,0.57233 1.46784,0.34323 3.64866,1.42395 6.40581,3.17442 3.4298,2.17748 4.43313,2.62338 6.3962,2.84237 1.6409,0.1831 2.54193,0.4658 4.01673,1.26002 1.51463,0.8158 3.02823,1.96198 4.56306,3.45546 1.60115,1.55815 2.1604,2.63813 2.40816,4.65075 l 0.17597,1.42896 1.55569,0.82037 c 0.85568,0.45121 4.05487,2.10694 7.10933,3.67939 5.80048,2.98609 8.9722,4.76199 11.56987,6.47824 0.84849,0.56055 1.59476,1.02475 1.65834,1.03166 0.0639,0.007 0.11468,-0.10905 0.11342,-0.25749 z m -201.85395,-3.4503 c 2.71943,-0.16247 3.973,-0.14859 16.23849,0.1799 6.25038,0.1674 9.54708,0.0639 15.30883,-0.48048 10.08257,-0.9527 21.81504,-2.86316 27.99916,-4.55928 1.99925,-0.54835 4.24336,-1.30137 4.23573,-1.42133 -0.007,-0.0566 -0.36656,-0.38066 -0.8065,-0.72003 -2.83626,-2.1878 -5.62037,-5.24211 -12.37667,-13.57806 -5.02115,-6.19509 -7.93813,-9.29423 -10.18151,-10.81699 -3.17355,-2.1543 -6.30764,-3.31101 -10.14768,-3.74521 -2.67147,-0.30212 -4.16801,0.35616 -10.90955,4.7986 -3.26719,2.15299 -5.35036,3.36667 -7.09619,4.1343 -5.51922,2.4267 -10.45457,2.80401 -20.18147,1.54289 -10.16897,-1.31845 -14.63393,-1.47924 -18.46197,-0.66475 -1.42679,0.30356 -3.77893,1.45126 -6.17496,3.01283 -3.285008,2.141 -5.133783,2.96254 -7.049114,3.13234 -2.087377,0.18499 -3.723853,0.9109 -5.904895,2.61924 -3.23464,2.53357 -4.640788,4.78306 -3.996388,6.39352 0.135147,0.33785 0.364959,0.65209 0.510712,0.69838 0.145685,0.0465 1.302027,-0.23214 2.569545,-0.61868 4.038389,-1.2314 4.581644,-1.32622 8.089487,-1.41175 3.718773,-0.0908 5.274073,0.0742 10.412933,1.10456 5.21727,1.04605 6.60103,1.57237 10.28515,3.91203 3.66129,2.32519 7.14196,4.23428 10.07792,5.52743 2.84483,1.25306 2.95818,1.28859 3.85659,1.20874 0.50912,-0.045 2.17516,-0.15694 3.70235,-0.2482 z M 207.97887,98.499029 c 2.41522,-0.366119 3.99683,-0.813699 5.51981,-1.562071 4.47928,-2.201231 8.60609,-7.636908 10.16954,-13.394888 0.77831,-2.866705 1.05215,-4.918345 0.9327,-6.989014 -0.10262,-1.779678 -0.0894,-1.918158 0.23265,-2.439339 0.43427,-0.702671 1.02673,-1.007393 1.96234,-1.009289 0.60939,0 0.85787,-0.0948 1.40368,-0.528731 1.60384,-1.275068 2.06268,-2.475295 2.56918,-6.720248 0.54485,-4.566831 0.81027,-5.617466 2.2319,-8.83649 0.49523,-1.121616 0.97826,-2.407084 1.07336,-2.856686 0.26376,-1.247317 0.20243,-3.812277 -0.11516,-4.813213 -0.26309,-0.829235 -0.28183,-0.848058 -0.82953,-0.831706 -0.35951,0.01034 -1.0135,0.273478 -1.82421,0.732756 -1.29702,0.734858 -2.19267,0.919119 -2.58088,0.530902 -0.38973,-0.389734 -0.19843,-1.306968 0.61047,-2.926793 0.74808,-1.497916 0.80868,-1.70848 1.01394,-3.521506 0.27966,-2.471307 0.31511,-8.745734 0.0588,-10.490027 -0.58373,-3.978302 -3.69537,-10.109086 -7.6731,-15.118036 -2.91516,-3.670883 -7.49747,-7.481054 -11.3144,-9.4077917 -4.38584,-2.2139529 -10.13778,-3.0808318 -15.89489,-2.395452 -5.23927,0.6237666 -8.83895,2.2042176 -13.80583,6.0616877 -6.01344,4.670218 -11.88906,13.557637 -13.29659,20.112525 -0.22589,1.051793 -0.27609,2.019884 -0.27478,5.297837 0,2.206039 0.0919,4.878671 0.20241,5.939257 0.19342,1.858301 0.23114,1.988209 1.03843,3.577743 0.4608,0.907134 0.83774,1.83155 0.83774,2.054179 0,1.26352 -0.83476,1.328031 -2.9778,0.230179 -0.82815,-0.424252 -1.64054,-0.771331 -1.80533,-0.771331 -0.72599,0 -1.23365,2.513882 -0.95058,4.706759 0.18288,1.416973 0.41481,2.122333 1.54616,4.703427 1.0401,2.372713 1.34984,3.625041 1.80692,7.305147 0.60008,4.832104 1.06728,6.175407 2.55698,7.352961 0.68756,0.543485 0.87232,0.614179 1.60617,0.614179 0.70696,0 0.90939,0.07044 1.37265,0.477066 0.76414,0.670922 0.93677,1.360298 0.73551,2.936905 -0.18419,1.442908 0.0116,3.211245 0.6577,5.930393 0.77118,3.247362 1.70593,5.39709 3.48408,8.013277 2.52921,3.721164 5.25155,5.894575 8.85959,7.073302 2.02723,0.662269 3.4899,0.904445 7.48185,1.238883 0.38182,0.03194 3.19331,0.03631 6.24777,0.01034 4.02015,-0.03482 5.98895,-0.113877 7.13041,-0.286992 z"
     id="path817"
     inkscape:connector-curvature="0"
     sodipodi:nodetypes="cccccccccccsccccccccccccccsccccsccccsccccsccccccccccccsccccccccccccccccccccccccccccccccccccscccccccccscccccccccccscccccccsccccccccccccsccccccccccccccccccccccccccccscscccccscccccccssccccccccccccccccsccsccccccccccccccccccccscccccccccccccsccccccccccccccccccccccccccsscccccccccccsccscccccccccccccccscccccccccccccccscccccccscccccccccccccccccccccccccccccccccccccccccccccccccsscccccccccccscccccccsccccccsccccccccccccccccsccccsccccccccccsccccccccscccccccccccccccccsccccccccccccccccccccscccccscccccccccccccccccccccccccccccccccccsccsccccccccccccccccccccscccccccccccsccccccccccccccccsccccccccccccccccccccccccccccccccccsccccccccccccccccccccccccccccccccccccccccccccccccscsccccsccccccccc" />
</svg>
