<?xml version="1.0" encoding="UTF-8" standalone="no"?>
<svg
   id="svg"
   version="1.1"
   width="400"
   height="377.93103448275866"
   viewBox="0, 0, 400,377.93103448275866"
   sodipodi:docname="D2.svg"
   inkscape:version="1.3.2 (091e20e, 2023-11-25, custom)"
   xml:space="preserve"
   xmlns:inkscape="http://www.inkscape.org/namespaces/inkscape"
   xmlns:sodipodi="http://sodipodi.sourceforge.net/DTD/sodipodi-0.dtd"
   xmlns="http://www.w3.org/2000/svg"
   xmlns:svg="http://www.w3.org/2000/svg"
   xmlns:rdf="http://www.w3.org/1999/02/22-rdf-syntax-ns#"
   xmlns:cc="http://creativecommons.org/ns#"
   xmlns:dc="http://purl.org/dc/elements/1.1/"><metadata
     id="metadata11"><rdf:RDF><cc:Work
         rdf:about=""><dc:format>image/svg+xml</dc:format><dc:type
           rdf:resource="http://purl.org/dc/dcmitype/StillImage" /></cc:Work></rdf:RDF></metadata><defs
     id="defs9" /><sodipodi:namedview
     pagecolor="#ffffff"
     bordercolor="#666666"
     borderopacity="1"
     objecttolerance="10"
     gridtolerance="10"
     guidetolerance="10"
     inkscape:pageopacity="0"
     inkscape:pageshadow="2"
     inkscape:window-width="1366"
     inkscape:window-height="705"
     id="namedview7"
     showgrid="false"
     inkscape:zoom="0.62445256"
     inkscape:cx="174.55289"
     inkscape:cy="-31.227352"
     inkscape:window-x="-8"
     inkscape:window-y="-8"
     inkscape:window-maximized="1"
     inkscape:current-layer="svg"
     inkscape:showpageshadow="0"
     inkscape:pagecheckerboard="0"
     inkscape:deskcolor="#d1d1d1" /><path
     style="fill:#ffffff"
     d="m 107.83801,341.06584 c -3.73632,-2.0455 -16.321364,-12.64758 -23.829374,-20.0747 -1.8017,-1.78229 -3.58976,-4.38273 -3.97347,-5.77874 -1.36472,-4.96522 1.25726,-31.36039 4.48103,-45.1101 1.28823,-5.49442 2.32218,-7.59933 7.6094,-15.49121 3.36523,-5.02305 7.878974,-11.24811 10.030534,-13.83347 2.15155,-2.58536 3.91192,-4.91777 3.91192,-5.18313 0,-0.26537 -1.03671,-2.84453 -2.3038,-5.73147 -2.91644,-6.64486 -4.252554,-12.47839 -5.739464,-25.05879 -2.1995,-18.60955 -2.96284,-23.10767 -4.31496,-25.42649 -0.74131,-1.27132 -1.59911,-3.87176 -1.90621,-5.77875 -0.30711,-1.90698 -3.32158,-9.18821 -6.69883,-16.18049 l -6.14046,-12.71324 0.48191,-5.77875 c 0.26505,-3.17831 0.98374,-7.8591 1.59708,-10.40175 0.61334,-2.54265 1.12058,-6.80116 1.1272,-9.46337 0.007,-2.68632 0.55785,-6.11517 1.23854,-7.70499 0.67457,-1.57555 1.53789,-5.25291 1.91848,-8.17192 0.38059,-2.919 1.56229,-7.208282 2.626,-9.531722 2.17527,-4.75141 2.37976,-8.18602 1.06782,-17.93452 l -0.86619,-6.43632 2.40719,-2.15083 c 1.43639,-1.28342 2.40719,-2.90049 2.40719,-4.00969 0,-1.02238 0.99528,-3.75092 2.21172,-6.06342 2.05416,-3.90502 2.13649,-4.38344 1.15575,-6.71594 -2.17519,-5.17326 -0.7778,-13.71735 2.4458,-14.95436 4.113444,-1.57848 8.024494,0.6058 11.190594,6.24982 1.37105,2.44409 3.19353,5.22341 4.04995,6.17627 1.34436,1.49574 1.72319,1.58716 2.77229,0.66901 1.95349,-1.70964 4.49174,-2.17248 6.37799,-1.16299 6.71629,3.59445 35.69864,28.64021 42.25542,36.51599 1.41121,1.6951 4.12002,4.71353 6.01957,6.70762 l 3.45373,3.62562 2.5867,-2.27116 c 1.42268,-1.24913 4.11009,-2.65475 5.97201,-3.12358 2.66918,-0.67211 3.59135,-1.34985 4.35929,-3.20382 0.53569,-1.29326 2.13543,-3.51285 3.55499,-4.93241 2.13552,-2.13552 3.15877,-2.58101 5.92824,-2.58101 2.16586,0 3.71831,0.44713 4.39866,1.2669 1.11446,1.34285 1.88281,15.12274 1.5834,28.397332 -0.19678,8.7248 0.78681,13.56495 4.57438,22.51001 4.47945,10.57905 5.95563,17.88477 6.88039,34.05152 0.99725,17.43383 2.24716,24.29136 5.71041,31.32972 3.44319,6.99761 7.37224,11.41232 14.6097,16.41557 5.69079,3.93404 5.8759,3.99945 8.965,3.16764 6.8655,-1.84869 12.42872,-1.03232 21.15069,3.10373 2.54264,1.20575 5.20328,2.36883 5.91252,2.58463 0.70923,0.21579 2.68551,2.28203 4.39171,4.59164 l 3.1022,4.19929 3.54432,-1.79437 c 1.94938,-0.9869 5.44693,-2.22015 7.77233,-2.74055 3.84343,-0.86012 4.39474,-0.8118 6.06105,0.53122 17.90865,14.43414 21.17164,17.60725 23.59582,22.94583 1.41561,3.1175 1.94476,9.17341 1.01358,11.60004 -0.89364,2.32878 -2.24306,1.15844 -4.70225,-4.07821 -2.02671,-4.31573 -3.42921,-6.03889 -7.76898,-9.54526 -7.62043,-6.15703 -11.72214,-10.50972 -13.37979,-14.19851 -1.42895,-3.17987 -1.48886,-3.21582 -3.93656,-2.36255 -1.36705,0.47655 -4.61012,2.96978 -7.20683,5.54051 -2.59671,2.57072 -6.93199,6.56753 -9.63396,8.8818 -10.41184,8.91788 -14.84579,14.01203 -18.80412,21.60398 -3.81693,7.32077 -5.28807,11.03775 -12.98928,32.81867 -2.26164,6.39646 -5.19293,13.59939 -6.51397,16.00651 -2.72987,4.97418 -2.76819,4.97503 5.27147,-0.11674 6.93301,-4.39089 11.25866,-8.3936 18.83053,-17.42465 7.39305,-8.81776 10.99149,-12.46603 23.54695,-23.87298 9.01612,-8.19138 18.92812,-13.61386 25.94978,-14.19615 3.96172,-0.32854 4.36001,-0.23546 3.4881,0.81513 -0.54136,0.65231 -2.27217,1.42147 -3.84622,1.70926 -4.62516,0.84561 -8.7593,3.75056 -15.60523,10.96537 -5.50753,5.80429 -18.36829,21.55212 -30.70668,37.59992 -4.17207,5.42636 -10.9628,10.55889 -18.57523,14.03945 -10.15382,4.64252 -10.6186,4.83718 -11.54912,4.83718 -0.50296,0 -3.65299,1.20405 -7.00004,2.67567 -3.34706,1.47161 -8.43074,3.05024 -11.29707,3.50806 -2.86633,0.45782 -7.52942,1.21213 -10.36243,1.67625 -3.69319,0.60504 -5.76471,0.60865 -7.31975,0.0128 -1.19285,-0.4571 -4.0758,-0.96839 -6.40656,-1.13619 -3.03846,-0.21876 -4.87682,-0.83356 -6.49592,-2.17245 -3.8063,-3.14756 -9.40293,-8.72816 -10.16311,-10.13402 -0.6588,-1.21837 -1.14637,-1.11671 -5.70703,1.18987 -2.74267,1.38713 -6.66018,3.80692 -8.70557,5.3773 -2.04539,1.57039 -4.12574,2.8995 -4.623,2.95358 -0.49726,0.0541 -1.59756,0.17918 -2.4451,0.27799 -0.84755,0.0988 -4.48817,1.56891 -8.09025,3.26689 -8.63104,4.06857 -14.90909,5.65473 -24.27074,6.13204 -7.37948,0.37624 -7.87436,0.30012 -11.71378,-1.80183 z m 9.01703,-6.48181 c 2.75454,-0.44453 5.81158,-1.33192 6.79344,-1.97197 1.52084,-0.99141 1.63493,-1.3458 0.7705,-2.39324 -0.84485,-1.0237 -0.83015,-1.29153 0.0878,-1.6001 0.60635,-0.20384 1.93992,-1.27431 2.96348,-2.37883 1.73941,-1.87699 2.34708,-2.01587 9.29928,-2.12533 4.09104,-0.0644 9.17188,-0.38179 11.29076,-0.70527 3.6724,-0.56067 3.79847,-0.5222 2.69675,0.82303 -1.09159,1.33285 -0.99535,1.38539 1.73362,0.94634 2.70995,-0.43599 3.84717,0.29636 2.11887,1.36451 -0.94266,0.5826 -1.01905,1.92625 -0.10951,1.92625 0.36354,0 1.9977,-2.16703 3.63146,-4.81562 1.63377,-2.64859 4.2394,-6.20252 5.79028,-7.89762 3.85199,-4.21017 6.86827,-10.44217 6.86827,-14.19071 0,-3.72851 -1.44648,-10.96024 -2.39378,-11.96776 -0.42227,-0.44911 -0.68822,-0.25766 -0.68822,0.49544 0,0.67508 -0.51063,1.42337 -1.13474,1.66286 -1.07365,0.412 -1.99297,-1.75844 -2.85191,-6.73315 -0.22093,-1.27959 -0.57511,-1.15039 -2.94785,1.07537 l -2.69675,2.52971 -0.241,-2.41778 c -0.36835,-3.69545 3.29174,-15.87491 8.11054,-26.98897 1.15524,-2.66443 -3.89224,2.03044 -8.68476,8.07805 -2.85191,3.59879 -6.60898,7.69816 -8.34903,9.1097 -6.69474,5.43079 -17.49159,9.37203 -23.19673,8.46763 -8.34703,-1.32319 -16.58423,-11.4239 -16.55744,-20.30325 0.005,-1.56827 1.29793,-5.51636 3.00632,-9.17818 l 2.99802,-6.42607 -3.11725,-4.1683 c -1.71448,-2.29257 -3.54127,-4.16831 -4.05953,-4.16831 -1.01247,0 -13.006904,16.81269 -15.722254,22.038 -1.78545,3.43586 -2.45389,6.9099 -4.32313,22.4685 -2.90945,24.21677 -1.68993,27.46033 13.861664,36.86786 4.12447,2.49499 8.74017,5.28922 10.2571,6.20938 l 2.75805,1.67303 -2.64102,0.43067 c -1.45256,0.23687 -3.50784,0.52418 -4.56727,0.63847 -1.32691,0.14315 -1.92625,0.67646 -1.92625,1.71406 0,2.5142 3.61042,3.13195 11.17224,1.9116 z m -13.54293,-19.03401 c -4.282394,-1.52495 -10.987664,-6.11683 -13.387914,-9.16825 -1.35005,-1.71631 -1.4114,-2.21719 -0.5355,-4.37223 1.24237,-3.0567 2.91374,-3.32292 8.66719,-1.38057 4.871674,1.64467 6.448744,1.45893 4.686244,-0.5519 -1.9133,-2.18288 -2.23206,-4.46458 -0.82088,-5.87576 1.04503,-1.04503 2.14229,-1.20341 5.61227,-0.81009 2.9982,0.33985 6.87645,-0.009 12.72013,-1.14542 12.11175,-2.35457 19.02112,-4.80233 28.16969,-9.97955 7.95229,-4.50026 10.6866,-5.43764 6.68906,-2.29317 -2.15028,1.6914 -2.66115,3.47319 -1.14112,3.97986 0.49651,0.16551 -1.05928,1.83328 -3.45731,3.70617 -2.39803,1.87289 -6.22184,5.66703 -8.49735,8.43141 -2.57069,3.12299 -7.15427,7.1839 -12.10493,10.72461 -13.0863,9.35932 -19.20426,11.36836 -26.59958,8.73489 z m 94.26381,15.70462 c -1.80568,-1.22537 -3.38206,-1.70895 -4.73052,-1.45118 -5.33267,1.0194 0.0634,-3.55992 6.46932,-5.49009 4.85507,-1.46289 12.79109,-5.44232 17.06616,-8.55765 5.88765,-4.29043 14.22999,-18.66006 23.87639,-41.12692 l 1.4482,-3.3729 -1.91389,1.25402 c -3.7294,2.4436 -3.72206,1.13936 0.0182,-3.23028 2.75016,-3.21295 2.86438,-4.36286 0.19325,-1.94552 -1.91215,1.73048 -1.78566,0.18194 0.19034,-2.33014 l 1.59938,-2.03328 -1.98463,0.75455 c -2.53985,0.96565 -2.64825,-0.30438 -0.25101,-2.94089 1.38169,-1.51959 1.4599,-1.80832 0.38525,-1.42222 -2.51085,0.90211 -1.36647,-0.95826 2.38651,-3.87964 2.05419,-1.59901 4.7413,-3.69373 5.97137,-4.65493 l 2.23649,-1.74763 -3.46724,1.65562 c -1.90699,0.9106 -4.42075,2.32741 -5.58613,3.14848 -1.16538,0.82107 -2.11887,1.14914 -2.11887,0.72906 0,-0.42009 3.12052,-3.22533 6.9345,-6.23388 3.81397,-3.00854 6.93449,-5.62702 6.93449,-5.81885 0,-0.69348 -3.72354,1.09074 -8.04375,3.85434 -2.4266,1.55228 -4.60989,2.62443 -4.85177,2.38255 -0.77233,-0.77233 4.8378,-5.47986 9.32463,-7.82441 2.38575,-1.24665 4.33855,-2.70004 4.33956,-3.22976 0.002,-1.22432 -1.71763,-1.24696 -2.92607,-0.0385 -1.67163,1.67163 -0.96542,-0.20339 1.0931,-2.90225 2.11861,-2.77764 1.98317,-3.19133 -0.59334,-1.81242 -2.49799,1.33688 -2.47036,0.30498 0.0693,-2.58751 l 2.35915,-2.68692 -2.50427,0.87862 c -1.37735,0.48324 -2.96074,1.17057 -3.51865,1.5274 -0.55791,0.35684 -1.22035,0.44284 -1.47207,0.19111 -0.63913,-0.63913 1.89654,-3.29695 4.93988,-5.17784 1.40515,-0.86843 2.55482,-1.87246 2.55482,-2.23118 0,-0.79101 -7.5785,-1.8684 -12.22761,-1.73833 -10.62132,0.29715 -25.04994,12.56097 -31.71176,26.95387 -1.25983,2.72188 -2.2906,5.1354 -2.2906,5.36339 0,0.22799 -2.27179,5.23227 -5.04841,11.12062 -5.47238,11.60521 -7.63843,17.22123 -9.17957,23.80032 -0.54598,2.33076 -1.93469,7.66569 -3.08602,11.8554 -1.15133,4.18971 -2.36553,10.08403 -2.69821,13.09849 -0.70668,6.40337 -2.44175,13.57109 -3.28512,13.57109 -0.32349,0 -0.58816,0.3005 -0.58816,0.66777 0,1.41994 10.05485,5.14692 14.55439,5.3948 1.66293,0.0916 1.57901,-0.0765 -0.86698,-1.73635 z m -52.529,-64.46255 c 7.70196,-3.3452 17.6608,-9.68215 23.48451,-14.94353 l 3.1589,-2.85387 -2.00209,-3.02537 c -1.10115,-1.66395 -2.25721,-3.01942 -2.56903,-3.01215 -0.31182,0.007 -3.16738,0.69477 -6.34569,1.52779 -7.50163,1.96615 -12.43972,2.00503 -14.1534,0.11143 -0.72348,-0.79944 -1.08051,-1.98526 -0.80998,-2.69026 0.29926,-0.77985 0.0125,-1.44153 -0.75192,-1.73486 -1.63391,-0.62699 -1.53657,-3.03915 0.28456,-7.05118 1.95394,-4.30462 1.46093,-4.15205 -1.24488,0.38525 -1.89762,3.18207 -2.21648,3.42947 -2.44239,1.89502 -0.14292,-0.97067 0.45956,-2.98416 1.33884,-4.47441 0.87927,-1.49026 1.59209,-3.12315 1.58404,-3.62865 -0.0213,-1.33526 -4.46718,5.95514 -5.05158,8.28358 -0.53984,2.1509 -1.86828,2.69724 -1.86828,0.76836 0,-0.71348 -0.36207,-0.97745 -0.89173,-0.6501 -1.33139,0.82284 -0.23073,-5.99151 1.65706,-10.25919 3.0507,-6.89662 1.60854,-7.36837 -1.84256,-0.60273 -1.87156,3.66906 -1.96865,3.74244 -2.0391,1.541 -0.0638,-1.99428 -0.16485,-2.10002 -0.73617,-0.7705 -1.18143,2.74934 -0.88177,-4.39359 0.357,-8.50971 0.62012,-2.06051 0.98716,-3.88672 0.81563,-4.05824 -0.46222,-0.46222 -2.71362,5.21089 -2.71362,6.83782 0,0.77079 -0.37526,1.63336 -0.83391,1.91681 -0.56284,0.34786 -0.76292,-0.63885 -0.61552,-3.03565 0.1201,-1.95307 -0.17931,-3.94872 -0.66537,-4.43477 -0.50961,-0.50961 -0.68739,-1.86545 -0.41994,-3.20268 0.32947,-1.64738 0.20582,-2.1595 -0.42699,-1.76841 -0.56062,0.34648 -0.89077,-0.0206 -0.89077,-0.99047 0,-0.84755 -0.31803,-1.73755 -0.70672,-1.97777 -0.4247,-0.26248 -0.3985,-1.55307 0.0656,-3.23406 0.44728,-1.61991 0.4834,-2.99564 0.0858,-3.26857 -0.3776,-0.25921 -0.72339,-2.37828 -0.76842,-4.70904 -0.0529,-2.73877 -1.68986,-9.62623 -4.62781,-19.47147 -4.18563,-14.02625 -5.606,-17.14871 -5.606,-12.32392 0,1.4203 -0.31722,1.74907 -1.36634,1.41609 -0.75148,-0.23851 -2.65721,0.25821 -4.23495,1.10383 -3.87255,2.07556 -5.49291,2.02495 -4.92316,-0.15377 0.3023,-1.156 -1.15877,-4.93571 -4.61654,-11.94275 -2.782344,-5.63831 -5.290734,-10.25148 -5.574194,-10.25148 -0.28346,0 -1.65895,1.04449 -3.05665,2.32109 -1.3977,1.2766 -2.86187,2.12295 -3.25371,1.88077 -1.17499,-0.72618 -0.8097,-4.69995 0.82817,-9.00922 2.85526,-7.51229 1.51596,-21.41505 -2.44452,-25.37553 -1.84805,-1.84805 -2.9168,-0.91086 -2.93679,2.57529 -0.006,1.13115 -0.87861,6.41301 -1.93805,11.73747 -1.05944,5.32446 -1.92625,10.76711 -1.92625,12.09478 0,1.45409 2.57236,7.71812 6.46922,15.7534 3.55808,7.3367 7.03965,15.05682 7.73682,17.15582 0.69718,2.09901 1.94673,4.43098 2.77677,5.18216 0.83005,0.75118 1.50918,2.26783 1.50918,3.37033 0,1.1025 0.348734,3.21579 0.774954,4.6962 0.42622,1.48042 1.31879,7.89254 1.9835,14.24916 1.90066,18.1762 2.73465,21.32621 8.23035,31.08627 4.54227,8.06681 7.70318,11.175 13.09207,12.8737 3.94927,1.24489 4.42762,1.62001 4.42762,3.47213 0,3.05394 -1.69811,4.06113 -6.12919,3.63536 l -3.80973,-0.36607 -0.81793,3.81387 c -1.0479,4.88621 0.0802,9.35699 3.06432,12.14461 5.24295,4.89765 12.97365,4.88207 24.32691,-0.049 z m 48.90411,-17.10626 c 8.67801,-11.59506 12.26184,-15.34513 19.76109,-20.67774 7.13286,-5.07208 11.80945,-7.57323 17.87357,-9.55922 l 4.16395,-1.36368 -2.70551,-1.63284 c -1.48802,-0.89806 -5.22739,-3.71292 -8.3097,-6.25523 -6.2153,-5.12643 -8.0033,-8.2011 -10.86235,-18.67907 -1.32926,-4.8715 -1.73786,-9.32362 -2.21027,-24.08306 -0.64674,-20.20568 -0.79382,-20.8645 -7.74074,-34.67248 -2.91837,-5.80067 -3.33822,-7.30545 -3.67322,-13.16521 -0.3638,-6.36345 -0.44451,-6.6033 -2.11448,-6.28407 -2.03451,0.38892 -3.36841,-1.22018 -1.82296,-2.19906 0.85488,-0.54147 0.8151,-0.67485 -0.2041,-0.68435 -1.58305,-0.0147 -2.08974,-1.3705 -1.44423,-3.8643 0.42434,-1.63933 0.92153,-1.91316 3.33801,-1.83836 l 2.83941,0.0879 v -6.059252 c 0,-5.32118 -0.16894,-6.05926 -1.3869,-6.05926 -2.20174,0 -3.2361,-1.60298 -3.2361,-5.01508 0,-3.79423 1.51848,-6.2411 3.42021,-5.51133 0.88483,0.33954 1.21779,0.18767 0.99245,-0.45269 -0.60602,-1.72211 -5.18679,-0.86323 -7.56913,1.41921 -2.92432,2.80168 -5.31902,9.34545 -5.31902,14.53481 0,2.28064 -0.54563,6.276382 -1.2125,8.879432 -1.29899,5.07048 -1.44552,3.96177 2.10629,15.93657 0.78739,2.65464 4.16523,7.44527 10.47108,14.85062 5.09044,5.97803 5.25926,7.37304 0.80607,6.66094 -8.32537,-1.33128 -12.16315,-6.61606 -19.07076,-26.26124 -4.14783,-11.7964 -8.18993,-18.957452 -15.13567,-26.814612 l -3.15825,-3.57267 -2.97604,1.51727 c -3.52174,1.79548 -4.96171,1.9189 -4.96171,0.42525 0,-0.60062 1.64695,-1.70231 3.65988,-2.44821 2.01293,-0.7459 3.79596,-1.45965 3.96229,-1.5861 0.55374,-0.421 -1.78673,-2.76624 -4.52886,-4.53809 -1.48943,-0.96242 -8.2318,-7.15631 -14.98304,-13.76421 -6.75125,-6.60789 -12.73225,-12.01435 -13.29112,-12.01435 -0.55887,0 -1.70958,0.69345 -2.55713,1.541 -1.81182,1.81182 -4.623,2.04608 -4.623,0.38525 0,-0.63567 0.45382,-1.15575 1.00848,-1.15575 0.55467,0 1.66226,-0.47806 2.46132,-1.06234 1.3617,-0.9957 1.37405,-1.18259 0.19689,-2.97916 -1.79262,-2.73589 -4.10133,-3.10798 -6.4972,-1.04714 l -1.99729,1.718 2.9684,4.18944 c 1.63263,2.30419 3.38368,4.45068 3.89123,4.76997 0.50755,0.31929 2.23527,2.39964 3.83938,4.623 1.60411,2.22336 5.73358,6.98963 9.17661,10.59172 7.41858,7.76129 12.26886,13.97091 16.21826,20.76353 1.58877,2.732562 6.03929,9.493702 9.89004,15.024742 3.85075,5.53105 7.58821,10.96777 8.30546,12.0816 l 1.30409,2.02514 -2.82075,0.45775 c -1.8217,0.29562 -3.40553,0.0746 -4.47185,-0.6241 -2.58373,-1.69293 -6.04186,-7.45689 -8.42356,-14.04028 -3.56151,-9.84459 -11.28201,-21.908052 -19.63499,-30.680142 -4.03528,-4.23774 -8.86879,-9.5598 -10.74114,-11.82679 -1.87234,-2.26698 -4.29658,-5.06958 -5.38719,-6.22799 -1.09062,-1.15841 -3.36984,-4.60933 -5.06494,-7.66871 -3.91926,-7.07364 -4.47243,-7.55105 -6.90353,-5.95813 -2.16199,1.41659 -3.95749,1.6033 -4.64956,0.48351 -0.25949,-0.41986 0.76022,-1.35089 2.26603,-2.06896 1.5058,-0.71806 2.73782,-1.77487 2.73782,-2.34845 0,-0.57358 -1.33858,-2.4779 -2.97462,-4.23182 l -2.97461,-3.18895 -1.3179,2.01136 c -1.05019,1.60281 -1.14011,2.34355 -0.44266,3.64675 0.48138,0.89946 0.73527,2.04957 0.56421,2.55579 -0.17106,0.50623 -0.89751,-0.20958 -1.61435,-1.59067 -1.05379,-2.03029 -1.12925,-2.84169 -0.39411,-4.23775 0.50008,-0.94967 1.29073,-1.9814 1.75701,-2.29274 0.49064,-0.32761 0.13587,-0.57105 -0.84215,-0.57788 -0.92947,-0.006 -2.229694,0.7588 -2.889384,1.70064 -2.2898,3.26915 -0.85391,12.92362 1.832724,12.32259 2.27501,-0.50895 4.06985,0.98025 6.15151,5.104 1.21724,2.41134 3.56964,6.02577 5.22755,8.03207 1.65791,2.0063 5.20616,7.37535 7.885,11.93123 7.12214,12.11252 9.25879,15.43659 13.43015,20.89381 2.06286,2.698742 6.34877,10.153642 9.52426,16.566442 4.56305,9.21494 6.67802,12.58704 10.08707,16.08277 3.2203,3.30219 4.0916,4.64499 3.43803,5.29856 -1.31218,1.31217 -4.77691,0.14086 -7.17407,-2.4253 -1.95926,-2.0974 -3.47287,-5.30963 -7.71111,-16.36478 -1.43592,-3.7455 -1.88259,-4.29737 -2.83706,-3.50523 -0.92244,0.76556 -1.38505,0.60578 -2.49092,-0.8603 -0.9724,-1.28913 -1.5235,-1.5328 -1.94055,-0.85801 -0.32036,0.51835 -0.20486,1.32006 0.25667,1.78158 0.60517,0.60518 0.60311,1.12351 -0.007,1.85912 -1.10656,1.33332 -2.19882,1.30171 -2.19882,-0.0636 0,-0.70427 -0.53946,-0.94254 -1.541,-0.68063 -2.27041,0.59372 -1.96414,-1.64356 0.48915,-3.57333 1.11659,-0.8783 2.50349,-1.59692 3.082,-1.59692 0.57852,0 1.05184,-0.40537 1.05184,-0.90082 0,-1.54245 -4.43816,-8.859692 -11.29384,-18.620262 -3.62076,-5.15496 -7.99008,-11.79973 -9.70961,-14.76615 -5.71258,-9.85505 -4.83607,-9.00628 -7.82756,-7.57974 -3.20745,1.52953 -4.60607,1.05979 -6.604684,-2.21826 -2.20717,-3.62011 -2.038,-7.18185 0.417524,-8.79077 1.39253,-0.91242 1.72612,-1.52774 1.1439,-2.10996 -0.58222,-0.58223 -1.523204,-0.12064 -3.226634,1.58279 -3.15354,3.15354 -3.13536,6.51179 0.0756,13.96076 2.530154,5.86962 2.559574,8.62243 0.0921,8.62243 -0.93649,0 -1.90588,-1.25013 -2.98738,-3.8525 -0.96869,-2.33093 -2.08373,-3.8525 -2.82319,-3.8525 -1.06115,0 -1.19366,1.24351 -1.00582,9.43862 0.20918,9.12622 0.27372,9.44677 1.94996,9.68483 1.52251,0.21624 1.73362,-0.0917 1.73362,-2.52887 0,-3.56768 1.98322,-8.36703 3.26367,-7.89801 0.53574,0.19624 0.82937,0.83355 0.6525,1.41624 -0.17687,0.58269 -0.47424,3.56186 -0.66082,6.62038 -0.62008,10.16473 1.566314,16.466992 12.406074,35.760472 1.91485,3.4082 3.62378,8.19553 5.13559,14.38662 1.24618,5.10328 3.14433,11.79332 4.21813,14.86676 1.09187,3.12517 1.95492,7.31172 1.95817,9.49886 0.0123,8.25704 2.56019,18.40987 8.22193,32.76263 2.72497,6.90793 12.16896,21.98807 16.51275,26.36752 6.61533,6.66963 15.15269,9.60758 25.76745,8.86732 3.36808,-0.23488 7.29742,-0.66766 8.73189,-0.96172 l 2.60811,-0.53465 -2.12265,3.90001 c -1.34738,2.47558 -2.93918,4.23823 -4.35827,4.82604 -1.22959,0.50931 -2.43524,1.24902 -2.67923,1.64379 -0.42903,0.69419 11.20086,19.07002 12.08809,19.09982 0.24155,0.008 3.35852,-3.8859 6.9266,-8.65337 z M 134.38391,145.60955 c -1.76922,-1.62456 -2.89151,-3.35961 -2.89488,-4.47546 -0.006,-1.98579 -5.03852,-15.87481 -6.30817,-17.4096 -0.60585,-0.73239 -1.52507,-0.51351 -4.04475,0.96312 -3.64875,2.13831 -5.05157,2.39066 -5.05157,0.90869 0,-0.55122 1.59319,-1.77624 3.54041,-2.72228 3.87344,-1.88186 3.89248,-1.39759 -0.25782,-6.556 -2.59804,-3.2291 -8.2275,-14.79961 -10.23863,-21.043972 l -1.75413,-5.44638 -2.00153,1.04443 c -1.10085,0.57444 -2.38121,1.04657 -2.84525,1.04918 -1.64517,0.009 -3.511184,-2.92673 -3.259174,-5.12798 0.30907,-2.69968 2.319944,-2.91758 2.933654,-0.31789 0.5424,2.29767 1.77604,2.8027 3.06181,1.25345 0.7982,-0.96178 0.54804,-1.91081 -1.42536,-5.40749 -2.71643,-4.81324 -2.77681,-5.03483 -1.37203,-5.03483 2.37513,0 5.4984,5.05329 9.77108,15.80915 3.86286,9.724172 8.06241,17.739822 12.26269,23.405692 2.40298,3.24144 4.69406,7.50277 5.83094,10.84532 1.02998,3.02827 2.66658,6.4497 3.63689,7.60319 3.09671,3.68133 4.77644,8.28282 3.99669,10.94867 l -0.6915,2.36412 z m -12.90587,-14.79747 c 0,-1.16583 2.03144,-2.43896 2.74812,-1.72228 0.20358,0.20358 0.15153,0.93987 -0.11567,1.63618 -0.61302,1.5975 -2.63245,1.66355 -2.63245,0.0861 z m -1.82494,-1.67234 c -0.90725,-0.90725 -0.49219,-1.66178 1.81968,-3.30798 2.79021,-1.9868 4.60806,-1.33941 2.5682,0.91461 -1.75017,1.93392 -3.75422,3.02703 -4.38788,2.39337 z m 6.159,-17.79538 c -0.70425,-1.13951 0.81012,-2.56322 3.83119,-3.60181 5.21991,-1.79452 5.4201,0.0686 0.28866,2.68648 -3.38082,1.72477 -3.59076,1.77141 -4.11985,0.91533 z m 18.27065,-11.28011 c 0.27895,-0.726912 0.0642,-0.984162 -0.60677,-0.726712 -1.9285,0.740042 -2.2744,-1.44504 -0.46118,-2.9133 0.96192,-0.77891 2.02294,-1.41621 2.35783,-1.41621 1.0889,0 0.50459,5.327172 -0.63216,5.763382 -0.72204,0.27708 -0.94388,0.0386 -0.65772,-0.70716 z m -4.87368,-4.863602 c 0.0119,-1.67662 5.09238,-5.14025 5.8179,-3.96634 0.5954,0.96339 -3.34748,5.31472 -4.81584,5.31472 -0.55638,0 -1.00731,-0.60677 -1.00206,-1.34838 z m 18.48245,-2.07518 c 0,-1.36484 2.93066,-3.51094 4.79444,-3.51094 1.95066,0 1.69447,1.17358 -0.6606,3.02608 -2.36498,1.86029 -4.13384,2.06776 -4.13384,0.48486 z m -8.53736,145.195492 c 0.865,-1.81627 0.84897,-1.84086 -0.28088,-0.43061 -0.65904,0.82261 -1.19825,1.83389 -1.19825,2.24729 0,0.97896 0.35589,0.54185 1.47913,-1.81668 z m 9.57144,1.19499 c 0.28636,-0.74624 0.0582,-0.97442 -0.68807,-0.68806 -1.21872,0.46767 -1.53613,1.80457 -0.42844,1.80457 0.37843,0 0.88086,-0.50243 1.11651,-1.11651 z m -17.61813,-12.71706 c 0.71574,-1.38409 0.89728,-2.26681 0.40343,-1.96159 -1.12529,0.69547 -3.87095,7.00783 -3.79808,8.73192 0.0299,0.70647 0.51307,0.0384 1.0738,-1.48466 0.56072,-1.52303 1.6051,-3.90158 2.32085,-5.28567 z m -4.34063,-9.28142 c -0.002,-0.63566 -0.48025,-0.11557 -1.06238,1.15575 -0.58213,1.27133 -1.04768,3.00495 -1.03456,3.8525 0.0155,0.99996 0.38849,0.59418 1.06238,-1.15575 0.57119,-1.48321 1.03673,-3.21684 1.03456,-3.8525 z m -25.30529,-54.70259 c 1.0098,-0.65007 0.96774,-1.0621 -0.33309,-3.26283 -3.14556,-5.32164 -5.01386,-9.5278 -5.0546,-11.37955 -0.0233,-1.05943 -0.93502,-4.00659 -2.02601,-6.54924 -2.70269,-6.29886 -3.8381,-11.01565 -2.88183,-11.97192 0.49986,-0.49986 1.78152,2.14524 3.74297,7.72476 1.64056,4.6667 3.22412,8.4849 3.51902,8.4849 0.29491,0 1.86353,2.94717 3.48584,6.54925 2.11029,4.6856 3.34262,6.54925 4.33067,6.54925 1.97364,0 1.78349,-1.30013 -2.05602,-14.05763 -2.1668,-7.19962 -5.26793,-15.13404 -8.46656,-21.66215 -2.77606,-5.6657 -5.0527,-10.78168 -5.05919,-11.36886 -0.009,-0.85084 -0.16344,-0.83294 -0.758704,0.0882 -0.4108,0.63566 -0.75221,3.84287 -0.7587,7.12712 -0.0114,5.78063 -0.88458,7.79418 -1.83766,4.23775 -0.71242,-2.65838 -0.57441,-7.26162 0.38245,-12.75631 1.39125,-7.98917 -1.10096,-16.330052 -4.87932,-16.330052 -1.7642,0 -3.48271,3.75575 -4.6907,10.251372 -0.77835,4.18537 -0.72679,4.60922 0.65385,5.37439 5.48934,3.04229 8.04808,9.98983 8.04808,21.85234 0,7.18326 0.12926,7.83419 1.88281,9.48157 1.03554,0.97284 3.085604,4.76057 4.555674,8.41718 5.93934,14.77326 5.88751,14.68984 8.20102,13.2005 z m 89.24424,-53.5579 c -0.22893,-0.22893 -1.01501,-0.18646 -1.74686,0.0944 -1.0456,0.40123 -1.11186,0.64582 -0.30935,1.1418 1.02493,0.63344 2.83664,-0.45575 2.05621,-1.23618 z m -16.52145,-5.19558 c 0.61016,-2.22482 1.29696,-5.865432 1.52622,-8.090252 0.51718,-5.01882 -0.33092,-5.19577 -4.99758,-1.0427 l -3.37372,3.00241 2.49693,5.087832 c 1.37331,2.79831 2.66385,5.08783 2.86785,5.08783 0.20401,0 0.87014,-1.8203 1.4803,-4.04512 z M 200.8395,86.853568 c 0,-4.5475 -1.82437,-4.28039 -2.16318,0.31672 -0.1841,2.49804 0.0306,3.21474 0.96313,3.21474 0.91185,0 1.20005,-0.84811 1.20005,-3.53146 z m -93.8021,-21.11401 c 1.12357,-0.009 0.9156,-0.63471 -1.21941,-3.67039 -1.4157,-2.01293 -3.13974,-3.76959 -3.83119,-3.90369 -1.90724,-0.36989 -2.443134,3.09069 -0.93133,6.01418 1.01011,1.95334 1.62674,2.37523 2.95207,2.01975 0.92139,-0.24713 2.28483,-0.45406 3.02986,-0.45985 z"
     id="path1" /></svg>
